<?xml version="1.0" encoding="utf-8" standalone="yes"?>
<!DOCTYPE svg PUBLIC "-//W3C//DTD SVG 1.1//EN" "http://www.w3.org/Graphics/SVG/1.1/DTD/svg11.dtd">
<svg style="fill:none;stroke:none;fill-rule:evenodd;clip-rule:evenodd;stroke-linecap:round;stroke-linejoin:round;stroke-miterlimit:1.5;" version="1.1" xmlns="http://www.w3.org/2000/svg" xmlns:xlink="http://www.w3.org/1999/xlink" width="876" height="679" viewBox="0 0 876 679"><style class="text-font-style fontImports" data-font-family="Roboto">@import url(https://fonts.googleapis.com/css2?family=Roboto:wght@400;700&amp;amp;display=block);</style><rect id="" x="0" y="0" width="876" height="678.031" style="fill: #2c2c2c;"></rect><g id="items" style="isolation: isolate"><g id="blend" style="mix-blend-mode: normal"><g id="g-root-tf_qp26lg1hw5lae-fill" data-item-order="-890933"><g id="tf_qp26lg1hw5lae-fill-merged" stroke="none" fill="#2c2c2c" fill-opacity="1"><g><path d="M0 0 H876 V678.03 H0 V0"></path></g></g></g><g id="g-root-cp_4_g-4_2590k1hvoqgw-fill" data-item-order="-481880" transform="translate(134, 140.03125)"><g id="cp_4_g-4_2590k1hvoqgw-fill-merged" stroke="none" fill="#cb68f9" fill-opacity="1"><g><path d="M142 52C142 55.314 139.314 58 136 58 H16C12.686 58 10 55.314 10 52 V16C10 12.686 12.686 10 16 10 H136C139.314 10 142 12.686 142 16 V52"></path></g></g></g><g id="g-root-cp_1_g-1_1lsf9pg1hvooox-fill" data-item-order="-481806" transform="translate(590, 110.03125)"><g id="cp_1_g-1_1lsf9pg1hvooox-fill-merged" stroke="none" fill="#f79438" fill-opacity="1"><g><path d="M10 76C10 79.314 12.686 82 16 82 H184C187.314 82 190 79.314 190 76 V16C190 12.686 187.314 10 184 10 H16C12.686 10 10 12.686 10 16 V76"></path></g></g></g><g id="g-root-cp_-1_parent-4-part_18gyrc41hvoq9u-fill" data-item-order="-481728" transform="translate(314, 338.03125)"><g id="cp_-1_parent-4-part_18gyrc41hvoq9u-fill-merged" stroke="none" fill="#b7b7b7" fill-opacity="1"><g><path d="M238 88C238 91.314 235.314 94 232 94 H16C12.686 94 10 91.314 10 88 V16C10 12.686 12.686 10 16 10 H232C235.314 10 238 12.686 238 16 V88"></path></g></g></g><g id="g-root-cp_3_g-3_zly86c1hvonwr-fill" data-item-order="-481646" transform="translate(62, 410.03125)"><g id="cp_3_g-3_zly86c1hvonwr-fill-merged" stroke="none" fill="#f366bb" fill-opacity="1"><g><path d="M214 76C214 79.314 211.314 82 208 82 H16C12.686 82 10 79.314 10 76 V16C10 12.686 12.686 10 16 10 H208C211.314 10 214 12.686 214 16 V76"></path></g></g></g><g id="g-root-cp_2_g-2_huo7ok1hvoq9w-fill" data-item-order="-481572" transform="translate(590, 410.03125)"><g id="cp_2_g-2_huo7ok1hvoq9w-fill-merged" stroke="none" fill="#fb6762" fill-opacity="1"><g><path d="M10 76C10 79.314 12.686 82 16 82 H160C163.314 82 166 79.314 166 76 V16C166 12.686 163.314 10 160 10 H16C12.686 10 10 12.686 10 16 V76"></path></g></g></g><g id="g-root-he_1upb84k1hvopam-fill" data-item-order="-481509" transform="translate(542, 134.03125)"></g><g id="g-root-he_1q9hq041hvoq2w-fill" data-item-order="-481507" transform="translate(602, 182.03125)"></g><g id="g-root-he_1q9hq041hvoq2y-fill" data-item-order="-481505" transform="translate(542, 396.8310546875)"></g><g id="g-root-he_1luaoys1hvonpg-fill" data-item-order="-481503" transform="translate(602, 482.03125)"></g><g id="g-root-he_1cynopw1hvooi6-fill" data-item-order="-481501" transform="translate(266, 396.8310546875)"></g><g id="g-root-he_18iu6lg1hvopag-fill" data-item-order="-481499" transform="translate(242, 482.03125)"></g><g id="g-root-he_18iu6lg1hvopai-fill" data-item-order="-481497" transform="translate(266, 164.03125)"></g><g id="g-root-he_1430oh01hvoq2s-fill" data-item-order="-481495" transform="translate(242, 188.03125)"></g><g id="g-root-tx_roleplay_v5hgis1jjxiix-fill" data-item-order="0" transform="translate(626, 284.03125)"><g id="tx_roleplay_v5hgis1jjxiix-fill-merged" stroke="none" fill="#f4f4f4" fill-opacity="1"><g><text style="font: bold 20px Roboto, sans-serif; white-space: pre;" font-weight="bold" font-size="20px" font-family="Roboto, sans-serif"><tspan x="12" y="33.85" dominant-baseline="ideographic">Role-Playing</tspan></text></g></g></g><g id="g-root-tx_multisen_ddlrdw1hvq329-fill" data-item-order="0" transform="translate(74, 320.03125)"><g id="tx_multisen_ddlrdw1hvq329-fill-merged" stroke="none" fill="#f4f4f4" fill-opacity="1"><g><text style="font: bold 20px Roboto, sans-serif; white-space: pre;" font-weight="bold" font-size="20px" font-family="Roboto, sans-serif"><tspan x="12.7" y="33.85" dominant-baseline="ideographic">Multisensorialità</tspan></text></g></g></g><g id="g-root-tx_roleplay_1qehip01hvq3np-fill" data-item-order="0" transform="translate(626, 320.03125)"><g id="tx_roleplay_1qehip01hvq3np-fill-merged" stroke="none" fill="#f4f4f4" fill-opacity="1"><g><text style="font: bold 20px Roboto, sans-serif; white-space: pre;" font-weight="bold" font-size="20px" font-family="Roboto, sans-serif"><tspan x="12" y="33.85" dominant-baseline="ideographic">Altri framework</tspan></text></g></g></g><g id="g-root-tx_debate_1qcm3fo1hvq4ng-fill" data-item-order="0" transform="translate(626, 248.03125)"><g id="tx_debate_1qcm3fo1hvq4ng-fill-merged" stroke="none" fill="#f4f4f4" fill-opacity="1"><g><text style="font: bold 20px Roboto, sans-serif; white-space: pre;" font-weight="bold" font-size="20px" font-family="Roboto, sans-serif"><tspan x="12" y="33.85" dominant-baseline="ideographic">Debate</tspan></text></g></g></g><g id="g-root-tx_iacomepa_1lqjug41hvrh8u-fill" data-item-order="0" transform="translate(326, 350.03125)"><g id="tx_iacomepa_1lqjug41hvrh8u-fill-merged" stroke="none" fill="#2c2c2c" fill-opacity="1"><g><text style="font: bold 25px Roboto, sans-serif; white-space: pre;" font-weight="bold" font-size="25px" font-family="Roboto, sans-serif"><tspan x="17.24" y="40" dominant-baseline="ideographic">IA come Partner </tspan><tspan x="50.91" y="70" dominant-baseline="ideographic">Strategico</tspan></text></g></g></g><g id="g-root-tx_scaffold_dbqc4k1hvq420-fill" data-item-order="0" transform="translate(122, 260.03125)"><g id="tx_scaffold_dbqc4k1hvq420-fill-merged" stroke="none" fill="#f4f4f4" fill-opacity="1"><g><text style="font: bold 20px Roboto, sans-serif; white-space: pre;" font-weight="bold" font-size="20px" font-family="Roboto, sans-serif"><tspan x="12.47" y="33.84" dominant-baseline="ideographic">Scaffolding </tspan><tspan x="28.72" y="57.85" dominant-baseline="ideographic">Esecutivo</tspan></text></g></g></g><g id="g-root-tx_allucina_1hgz36s1hvrjlu-fill" data-item-order="0" transform="translate(110, 566.03125)"><g id="tx_allucina_1hgz36s1hvrjlu-fill-merged" stroke="none" fill="#f4f4f4" fill-opacity="1"><g><text style="font: bold 20px Roboto, sans-serif; white-space: pre;" font-weight="bold" font-size="20px" font-family="Roboto, sans-serif"><tspan x="11.88" y="33.85" dominant-baseline="ideographic">Allucinazioni</tspan></text></g></g></g><g id="g-root-tx_semplifi_djui901hvoqhb-fill" data-item-order="0" transform="translate(74, 200.03125)"><g id="tx_semplifi_djui901hvoqhb-fill-merged" stroke="none" fill="#f4f4f4" fill-opacity="1"><g><text style="font: bold 20px Roboto, sans-serif; white-space: pre;" font-weight="bold" font-size="20px" font-family="Roboto, sans-serif"><tspan x="19.63" y="33.84" dominant-baseline="ideographic">Semplificazione </tspan><tspan x="86.66" y="57.85" dominant-baseline="ideographic">Testuale</tspan></text></g></g></g><g id="g-root-tx_analisic_1lrssmc1hvrjev-fill" data-item-order="0" transform="translate(74, 422.03125)"><g id="tx_analisic_1lrssmc1hvrjev-fill-merged" stroke="none" fill="#2c2c2c" fill-opacity="1"><g><text style="font: bold 20px Roboto, sans-serif; white-space: pre;" font-weight="bold" font-size="20px" font-family="Roboto, sans-serif"><tspan x="13.9" y="33.84" dominant-baseline="ideographic">Analisi Critica degli </tspan><tspan x="127.01" y="57.85" dominant-baseline="ideographic">Output</tspan></text></g></g></g><g id="g-root-tx_inclusio_me8kbo1hvonim-fill" data-item-order="0" transform="translate(146, 152.03125)"><g id="tx_inclusio_me8kbo1hvonim-fill-merged" stroke="none" fill="#2c2c2c" fill-opacity="1"><g><text style="font: bold 20px Roboto, sans-serif; white-space: pre;" font-weight="bold" font-size="20px" font-family="Roboto, sans-serif"><tspan x="23.15" y="33.85" dominant-baseline="ideographic">Inclusione</tspan></text></g></g></g><g id="g-root-tx_assisten_1d310bo1hvrimj-fill" data-item-order="0" transform="translate(602, 422.03125)"><g id="tx_assisten_1d310bo1hvrimj-fill-merged" stroke="none" fill="#2c2c2c" fill-opacity="1"><g><text style="font: bold 20px Roboto, sans-serif; white-space: pre;" font-weight="bold" font-size="20px" font-family="Roboto, sans-serif"><tspan x="12" y="33.84" dominant-baseline="ideographic">Assistenti </tspan><tspan x="12" y="57.85" dominant-baseline="ideographic">Personalizzati</tspan></text></g></g></g><g id="g-root-tx_errori_1cy17ms1hvrj7s-fill" data-item-order="0" transform="translate(170, 494.03125)"><g id="tx_errori_1cy17ms1hvrj7s-fill-merged" stroke="none" fill="#f4f4f4" fill-opacity="1"><g><text style="font: bold 20px Roboto, sans-serif; white-space: pre;" font-weight="bold" font-size="20px" font-family="Roboto, sans-serif"><tspan x="18.49" y="33.85" dominant-baseline="ideographic">Errori</tspan></text></g></g></g><g id="g-root-tx_metodolo_1upb84k1hvq3gq-fill" data-item-order="0" transform="translate(602, 122.03125)"><g id="tx_metodolo_1upb84k1hvq3gq-fill-merged" stroke="none" fill="#2c2c2c" fill-opacity="1"><g><text style="font: bold 20px Roboto, sans-serif; white-space: pre;" font-weight="bold" font-size="20px" font-family="Roboto, sans-serif"><tspan x="12" y="33.84" dominant-baseline="ideographic">Metodologie </tspan><tspan x="12" y="57.85" dominant-baseline="ideographic">Didattiche Attive</tspan></text></g></g></g><g id="g-root-tx_integraz_1430oh01hvoq2t-fill" data-item-order="0" transform="translate(146, 58.421875)"><g id="tx_integraz_1430oh01hvoq2t-fill-merged" stroke="none" fill="#f4f4f4" fill-opacity="1"><g><text style="font: bold 25px Roboto, sans-serif; white-space: pre;" font-weight="bold" font-size="25px" font-family="Roboto, sans-serif"><tspan x="12.44" y="43" dominant-baseline="ideographic">Integrazione dell'IA nella Progettazione Didattica</tspan></text></g></g></g><g id="g-root-tx_supporto_13z9tyc1hvswzw-fill" data-item-order="0" transform="translate(626, 488.03125)"><g id="tx_supporto_13z9tyc1hvswzw-fill-merged" stroke="none" fill="#f4f4f4" fill-opacity="1"><g><text style="font: bold 20px Roboto, sans-serif; white-space: pre;" font-weight="bold" font-size="20px" font-family="Roboto, sans-serif"><tspan x="12" y="33.85" dominant-baseline="ideographic">Supporto Didattico</tspan></text></g></g></g><g id="g-root-tx_bias_1czwmw41hvri81-fill" data-item-order="0" transform="translate(182, 530.03125)"><g id="tx_bias_1czwmw41hvri81-fill-merged" stroke="none" fill="#f4f4f4" fill-opacity="1"><g><text style="font: bold 20px Roboto, sans-serif; white-space: pre;" font-weight="bold" font-size="20px" font-family="Roboto, sans-serif"><tspan x="16.96" y="33.85" dominant-baseline="ideographic">Bias</tspan></text></g></g></g><g id="g-root-tx_inclusio_18gyrc41hvsv7x-fill" data-item-order="0" transform="translate(626, 524.03125)"><g id="tx_inclusio_18gyrc41hvsv7x-fill-merged" stroke="none" fill="#f4f4f4" fill-opacity="1"><g><text style="font: bold 20px Roboto, sans-serif; white-space: pre;" font-weight="bold" font-size="20px" font-family="Roboto, sans-serif"><tspan x="12" y="33.85" dominant-baseline="ideographic">Inclusione</tspan></text></g></g></g><g id="g-root-tx_projectb_59mg41hvq51n-fill" data-item-order="0" transform="translate(626, 188.03125)"><g id="tx_projectb_59mg41hvq51n-fill-merged" stroke="none" fill="#f4f4f4" fill-opacity="1"><g><text style="font: bold 20px Roboto, sans-serif; white-space: pre;" font-weight="bold" font-size="20px" font-family="Roboto, sans-serif"><tspan x="12" y="33.84" dominant-baseline="ideographic">Project Based </tspan><tspan x="12" y="57.85" dominant-baseline="ideographic">Learning</tspan></text></g></g></g><g id="g-root-tf_qp26lg1hw5lae-stroke" data-item-order="-890933"></g><g id="g-root-cp_4_g-4_2590k1hvoqgw-stroke" data-item-order="-481880" transform="translate(134, 140.03125)"><g id="cp_4_g-4_2590k1hvoqgw-stroke" fill="none" stroke-linecap="round" stroke-linejoin="round" stroke-miterlimit="4" stroke="#2c2c2c" stroke-width="2" stroke-opacity="1"><g><path d="M 16 10C 12.6863 10 10 12.6863 10 16M 16 10L 136.000008 10M 136 10C 139.3137 10 142 12.6863 142 16M 142 52L 142 16M 10 52L 10 16M 10 52C 10 55.3137 12.6863 58 16 58M 136.000008 58L 16 58M 136 58C 139.3137 58 142 55.3137 142 52"></path></g></g></g><g id="g-root-cp_1_g-1_1lsf9pg1hvooox-stroke" data-item-order="-481806" transform="translate(590, 110.03125)"><g id="cp_1_g-1_1lsf9pg1hvooox-stroke" fill="none" stroke-linecap="round" stroke-linejoin="round" stroke-miterlimit="4" stroke="#2c2c2c" stroke-width="2" stroke-opacity="1"><g><path d="M 184 10C 187.3137 10 190 12.6863 190 16M 184 10L 16 10M 16 10C 12.6863 10 10 12.6863 10 16M 10 76L 10 16M 190 76L 190 16M 190 76C 190 79.3137 187.3137 82 184 82M 16 82L 184 82M 16 82C 12.6863 82 10 79.3137 10 76"></path></g></g></g><g id="g-root-cp_-1_parent-4-part_18gyrc41hvoq9u-stroke" data-item-order="-481728" transform="translate(314, 338.03125)"><g id="cp_-1_parent-4-part_18gyrc41hvoq9u-stroke" fill="none" stroke-linecap="round" stroke-linejoin="round" stroke-miterlimit="4" stroke="#2c2c2c" stroke-width="2" stroke-opacity="1"><g><path d="M 16 10C 12.6863 10 10 12.6863 10 16M 16 10L 232 10M 232 10C 235.3137 10 238 12.6863 238 16M 238 88L 238 16M 10 88L 10 16M 10 88C 10 91.3137 12.6863 94 16 94M 232 94L 16 94M 232 94C 235.3137 94 238 91.3137 238 88"></path></g></g></g><g id="g-root-cp_3_g-3_zly86c1hvonwr-stroke" data-item-order="-481646" transform="translate(62, 410.03125)"><g id="cp_3_g-3_zly86c1hvonwr-stroke" fill="none" stroke-linecap="round" stroke-linejoin="round" stroke-miterlimit="4" stroke="#2c2c2c" stroke-width="2" stroke-opacity="1"><g><path d="M 16 10C 12.6863 10 10 12.6863 10 16M 16 10L 208 10M 208 10C 211.3137 10 214 12.6863 214 16M 214 76L 214 16M 10 76L 10 16M 10 76C 10 79.3137 12.6863 82 16 82M 208 82L 16 82M 208 82C 211.3137 82 214 79.3137 214 76"></path></g></g></g><g id="g-root-cp_2_g-2_huo7ok1hvoq9w-stroke" data-item-order="-481572" transform="translate(590, 410.03125)"><g id="cp_2_g-2_huo7ok1hvoq9w-stroke" fill="none" stroke-linecap="round" stroke-linejoin="round" stroke-miterlimit="4" stroke="#2c2c2c" stroke-width="2" stroke-opacity="1"><g><path d="M 160 10C 163.3137 10 166 12.6863 166 16M 160 10L 16 10M 16 10C 12.6863 10 10 12.6863 10 16M 10 76L 10 16M 166 76L 166 16M 166 76C 166 79.3137 163.3137 82 160 82M 16 82L 160 82M 16 82C 12.6863 82 10 79.3137 10 76"></path></g></g></g><g id="g-root-he_1upb84k1hvopam-stroke" data-item-order="-481509" transform="translate(542, 134.03125)"><g id="he_1upb84k1hvopam-stroke" fill="none" stroke-linecap="round" stroke-linejoin="round" stroke-miterlimit="4" stroke="#f4f4f4" stroke-width="2" stroke-opacity="1"><style>.fillAsHole-mk-qoekfo1j9o3rb { fill:#2C2C2C; }</style><g><path d="M 10 239.2L 22 239.2C 28.63 239.2 34 233.83 34 227.2L 34 22C 34 15.37 39.37 10 46 10L 55 10"></path><path d="M 55 10C 55.000001 11.656854 56.343147 13 58.000001 13C 59.656856 13 61.000001 11.656854 61.000001 10C 61.000001 8.343146 59.656856 7 58.000001 7C 56.343147 7 55.000001 8.343146 55.000001 10Z" stroke-dasharray="none" class="fillAsHole-mk-qoekfo1j9o3rb" fill="#2C2C2C"></path></g></g></g><g id="g-root-he_1q9hq041hvoq2w-stroke" data-item-order="-481507" transform="translate(602, 182.03125)"><g id="he_1q9hq041hvoq2w-stroke" fill="none" stroke-linecap="round" stroke-linejoin="round" stroke-miterlimit="4" stroke="#f4f4f4" stroke-width="2" stroke-opacity="1"><style>.fillAsStrokeColor-mk-ddkj5g1j9o26g { fill:#f4f4f4; }
.fillAsStrokeColor-mk-ddkj5g1j9o26h { fill:#f4f4f4; }
.fillAsStrokeColor-mk-ddkj5g1j9o26i { fill:#f4f4f4; }
.fillAsStrokeColor-mk-ddkj5g1j9o26j { fill:#f4f4f4; }</style><g><path d="M 10 10L 10 148C 10 154.627421 15.372583 160.000005 22 160.000004L 22 160M 10 28L 22 28M 10 88L 22 88M 10 124L 22 124"></path><path d="M 20.5 160C 20.5 160.828432 21.171573 161.500004 22 161.500004C 22.828427 161.500004 23.5 160.828432 23.5 160.000004C 23.5 159.171577 22.828427 158.500004 22 158.500004C 21.171573 158.500004 20.5 159.171577 20.5 160.000004Z" stroke-dasharray="none" class="fillAsStrokeColor-mk-ddkj5g1j9o26g" fill="#f4f4f4"></path><path d="M 20.5 28C 20.5 28.828428 21.171573 29.500001 22 29.500001C 22.828427 29.500001 23.5 28.828428 23.5 28.000001C 23.5 27.171573 22.828427 26.500001 22 26.500001C 21.171573 26.500001 20.5 27.171573 20.5 28.000001Z" stroke-dasharray="none" class="fillAsStrokeColor-mk-ddkj5g1j9o26h" fill="#f4f4f4"></path><path d="M 20.5 88C 20.5 88.828429 21.171573 89.500002 22 89.500002C 22.828427 89.500002 23.5 88.828429 23.5 88.000002C 23.5 87.171575 22.828427 86.500002 22 86.500002C 21.171573 86.500002 20.5 87.171575 20.5 88.000002Z" stroke-dasharray="none" class="fillAsStrokeColor-mk-ddkj5g1j9o26i" fill="#f4f4f4"></path><path d="M 20.5 124C 20.5 124.828431 21.171573 125.500003 22 125.500003C 22.828427 125.500003 23.5 124.828431 23.5 124.000003C 23.5 123.171576 22.828427 122.500003 22 122.500003C 21.171573 122.500003 20.5 123.171576 20.5 124.000003Z" stroke-dasharray="none" class="fillAsStrokeColor-mk-ddkj5g1j9o26j" fill="#f4f4f4"></path></g></g></g><g id="g-root-he_1q9hq041hvoq2y-stroke" data-item-order="-481505" transform="translate(542, 396.8310546875)"><g id="he_1q9hq041hvoq2y-stroke" fill="none" stroke-linecap="round" stroke-linejoin="round" stroke-miterlimit="4" stroke="#f4f4f4" stroke-width="2" stroke-opacity="1"><style>.fillAsHole-mk-8xr1101j9o2ys { fill:#2C2C2C; }</style><g><path d="M 10 10L 22 10C 28.63 10 34 15.37 34 22L 34 35.2C 34 41.83 39.37 47.2 46 47.2L 55 47.2"></path><path d="M 55 47.2C 55.000001 48.856855 56.343147 50.200001 58.000001 50.200001C 59.656856 50.200001 61.000001 48.856855 61.000001 47.200001C 61.000001 45.543147 59.656856 44.200001 58.000001 44.200001C 56.343147 44.200001 55.000001 45.543147 55.000001 47.200001Z" stroke-dasharray="none" class="fillAsHole-mk-8xr1101j9o2ys" fill="#2C2C2C"></path></g></g></g><g id="g-root-he_1luaoys1hvonpg-stroke" data-item-order="-481503" transform="translate(602, 482.03125)"><g id="he_1luaoys1hvonpg-stroke" fill="none" stroke-linecap="round" stroke-linejoin="round" stroke-miterlimit="4" stroke="#f4f4f4" stroke-width="2" stroke-opacity="1"><style>.fillAsStrokeColor-mk-1uo11pw1j9o16t { fill:#f4f4f4; }
.fillAsStrokeColor-mk-1uo11pw1j9o16u { fill:#f4f4f4; }</style><g><path d="M 10 10L 10 52C 10 58.627419 15.372583 64.000002 22 64.000002L 22 64M 10 28L 22 28"></path><path d="M 20.5 64C 20.5 64.828429 21.171573 65.500002 22 65.500002C 22.828427 65.500002 23.5 64.828429 23.5 64.000002C 23.5 63.171574 22.828427 62.500002 22 62.500002C 21.171573 62.500002 20.5 63.171574 20.5 64.000002Z" stroke-dasharray="none" class="fillAsStrokeColor-mk-1uo11pw1j9o16t" fill="#f4f4f4"></path><path d="M 20.5 28C 20.5 28.828428 21.171573 29.500001 22 29.500001C 22.828427 29.500001 23.5 28.828428 23.5 28.000001C 23.5 27.171573 22.828427 26.500001 22 26.500001C 21.171573 26.500001 20.5 27.171573 20.5 28.000001Z" stroke-dasharray="none" class="fillAsStrokeColor-mk-1uo11pw1j9o16u" fill="#f4f4f4"></path></g></g></g><g id="g-root-he_1cynopw1hvooi6-stroke" data-item-order="-481501" transform="translate(266, 396.8310546875)"><g id="he_1cynopw1hvooi6-stroke" fill="none" stroke-linecap="round" stroke-linejoin="round" stroke-miterlimit="4" stroke="#f4f4f4" stroke-width="2" stroke-opacity="1"><style>.fillAsHole-mk-1lse1h01j9o1zj { fill:#2C2C2C; }</style><g><path d="M 58 10L 46 10C 39.37 10 34 15.37 34 22L 34 35.2C 34 41.83 28.63 47.2 22 47.2L 13 47.2"></path><path d="M 7 47.2C 7 48.856855 8.343146 50.200001 10 50.200001C 11.656854 50.200001 13 48.856855 13 47.200001C 13 45.543147 11.656854 44.200001 10 44.200001C 8.343146 44.200001 7 45.543147 7 47.200001Z" stroke-dasharray="none" class="fillAsHole-mk-1lse1h01j9o1zj" fill="#2C2C2C"></path></g></g></g><g id="g-root-he_18iu6lg1hvopag-stroke" data-item-order="-481499" transform="translate(242, 482.03125)"><g id="he_18iu6lg1hvopag-stroke" fill="none" stroke-linecap="round" stroke-linejoin="round" stroke-miterlimit="4" stroke="#f4f4f4" stroke-width="2" stroke-opacity="1"><style>.fillAsStrokeColor-mk-1hckjck1j9o2rs { fill:#f4f4f4; }
.fillAsStrokeColor-mk-1hckjck1j9o2rt { fill:#f4f4f4; }
.fillAsStrokeColor-mk-1hckjck1j9o2ru { fill:#f4f4f4; }</style><g><path d="M 22 10L 22 94C 22.000001 100.62742 16.627417 106.000003 10 106.000003L 10 106M 22 34L 10 34M 22 70L 10 70"></path><path d="M 8.5 106C 8.5 106.82843 9.171573 107.500003 10 107.500003C 10.828427 107.500003 11.5 106.82843 11.5 106.000003C 11.5 105.171576 10.828427 104.500003 10 104.500003C 9.171573 104.500003 8.5 105.171576 8.5 106.000003Z" stroke-dasharray="none" class="fillAsStrokeColor-mk-1hckjck1j9o2rs" fill="#f4f4f4"></path><path d="M 8.5 34C 8.5 34.828428 9.171573 35.500001 10 35.500001C 10.828427 35.500001 11.5 34.828428 11.5 34.000001C 11.5 33.171574 10.828427 32.500001 10 32.500001C 9.171573 32.500001 8.5 33.171574 8.5 34.000001Z" stroke-dasharray="none" class="fillAsStrokeColor-mk-1hckjck1j9o2rt" fill="#f4f4f4"></path><path d="M 8.5 70C 8.5 70.828429 9.171573 71.500002 10 71.500002C 10.828427 71.500002 11.5 70.828429 11.5 70.000002C 11.5 69.171575 10.828427 68.500002 10 68.500002C 9.171573 68.500002 8.5 69.171575 8.5 70.000002Z" stroke-dasharray="none" class="fillAsStrokeColor-mk-1hckjck1j9o2ru" fill="#f4f4f4"></path></g></g></g><g id="g-root-he_18iu6lg1hvopai-stroke" data-item-order="-481497" transform="translate(266, 164.03125)"><g id="he_18iu6lg1hvopai-stroke" fill="none" stroke-linecap="round" stroke-linejoin="round" stroke-miterlimit="4" stroke="#f4f4f4" stroke-width="2" stroke-opacity="1"><style>.fillAsHole-mk-141qi2c1j9o16z { fill:#2C2C2C; }</style><g><path d="M 58 209.2L 46 209.2C 39.37 209.2 34 203.83 34 197.2L 34 22C 34 15.37 28.63 10 22 10L 13 10"></path><path d="M 7 10C 7 11.656854 8.343146 13 10 13C 11.656854 13 13 11.656854 13 10C 13 8.343146 11.656854 7 10 7C 8.343146 7 7 8.343146 7 10Z" stroke-dasharray="none" class="fillAsHole-mk-141qi2c1j9o16z" fill="#2C2C2C"></path></g></g></g><g id="g-root-he_1430oh01hvoq2s-stroke" data-item-order="-481495" transform="translate(242, 188.03125)"><g id="he_1430oh01hvoq2s-stroke" fill="none" stroke-linecap="round" stroke-linejoin="round" stroke-miterlimit="4" stroke="#f4f4f4" stroke-width="2" stroke-opacity="1"><style>.fillAsStrokeColor-mk-zlwzxw1j9o1z8 { fill:#f4f4f4; }
.fillAsStrokeColor-mk-zlwzxw1j9o1z9 { fill:#f4f4f4; }
.fillAsStrokeColor-mk-zlwzxw1j9o1za { fill:#f4f4f4; }</style><g><path d="M 22 10L 22 142C 22.000001 148.627421 16.627417 154.000004 10 154.000004L 10 154M 22 34L 10 34M 22 94L 10 94"></path><path d="M 8.5 154C 8.5 154.828431 9.171573 155.500004 10 155.500004C 10.828427 155.500004 11.5 154.828431 11.5 154.000004C 11.5 153.171577 10.828427 152.500004 10 152.500004C 9.171573 152.500004 8.5 153.171577 8.5 154.000004Z" stroke-dasharray="none" class="fillAsStrokeColor-mk-zlwzxw1j9o1z8" fill="#f4f4f4"></path><path d="M 8.5 34C 8.5 34.828428 9.171573 35.500001 10 35.500001C 10.828427 35.500001 11.5 34.828428 11.5 34.000001C 11.5 33.171574 10.828427 32.500001 10 32.500001C 9.171573 32.500001 8.5 33.171574 8.5 34.000001Z" stroke-dasharray="none" class="fillAsStrokeColor-mk-zlwzxw1j9o1z9" fill="#f4f4f4"></path><path d="M 8.5 94C 8.5 94.82843 9.171573 95.500003 10 95.500003C 10.828427 95.500003 11.5 94.82843 11.5 94.000003C 11.5 93.171575 10.828427 92.500003 10 92.500003C 9.171573 92.500003 8.5 93.171575 8.5 94.000003Z" stroke-dasharray="none" class="fillAsStrokeColor-mk-zlwzxw1j9o1za" fill="#f4f4f4"></path></g></g></g><g id="g-root-tx_roleplay_v5hgis1jjxiix-stroke" data-item-order="0" transform="translate(626, 284.03125)"></g><g id="g-root-tx_multisen_ddlrdw1hvq329-stroke" data-item-order="0" transform="translate(74, 320.03125)"></g><g id="g-root-tx_roleplay_1qehip01hvq3np-stroke" data-item-order="0" transform="translate(626, 320.03125)"></g><g id="g-root-tx_debate_1qcm3fo1hvq4ng-stroke" data-item-order="0" transform="translate(626, 248.03125)"></g><g id="g-root-tx_iacomepa_1lqjug41hvrh8u-stroke" data-item-order="0" transform="translate(326, 350.03125)"></g><g id="g-root-tx_scaffold_dbqc4k1hvq420-stroke" data-item-order="0" transform="translate(122, 260.03125)"></g><g id="g-root-tx_allucina_1hgz36s1hvrjlu-stroke" data-item-order="0" transform="translate(110, 566.03125)"></g><g id="g-root-tx_semplifi_djui901hvoqhb-stroke" data-item-order="0" transform="translate(74, 200.03125)"></g><g id="g-root-tx_analisic_1lrssmc1hvrjev-stroke" data-item-order="0" transform="translate(74, 422.03125)"></g><g id="g-root-tx_inclusio_me8kbo1hvonim-stroke" data-item-order="0" transform="translate(146, 152.03125)"></g><g id="g-root-tx_assisten_1d310bo1hvrimj-stroke" data-item-order="0" transform="translate(602, 422.03125)"></g><g id="g-root-tx_errori_1cy17ms1hvrj7s-stroke" data-item-order="0" transform="translate(170, 494.03125)"></g><g id="g-root-tx_metodolo_1upb84k1hvq3gq-stroke" data-item-order="0" transform="translate(602, 122.03125)"></g><g id="g-root-tx_integraz_1430oh01hvoq2t-stroke" data-item-order="0" transform="translate(146, 58.421875)"></g><g id="g-root-tx_supporto_13z9tyc1hvswzw-stroke" data-item-order="0" transform="translate(626, 488.03125)"></g><g id="g-root-tx_bias_1czwmw41hvri81-stroke" data-item-order="0" transform="translate(182, 530.03125)"></g><g id="g-root-tx_inclusio_18gyrc41hvsv7x-stroke" data-item-order="0" transform="translate(626, 524.03125)"></g><g id="g-root-tx_projectb_59mg41hvq51n-stroke" data-item-order="0" transform="translate(626, 188.03125)"></g></g></g></svg>