<?xml version="1.0" encoding="utf-8" standalone="yes"?>
<!DOCTYPE svg PUBLIC "-//W3C//DTD SVG 1.1//EN" "http://www.w3.org/Graphics/SVG/1.1/DTD/svg11.dtd">
<svg style="fill:none;stroke:none;fill-rule:evenodd;clip-rule:evenodd;stroke-linecap:round;stroke-linejoin:round;stroke-miterlimit:1.5;" version="1.1" xmlns="http://www.w3.org/2000/svg" xmlns:xlink="http://www.w3.org/1999/xlink" width="1032" height="705" viewBox="0 0 1032 705"><style class="text-font-style fontImports" data-font-family="Roboto">@import url(https://fonts.googleapis.com/css2?family=Roboto:wght@400;700&amp;amp;display=block);</style><rect id="" x="0" y="0" width="1032" height="705" style="fill: #2c2c2c;"></rect><g id="items" style="isolation: isolate"><g id="blend" style="mix-blend-mode: normal"><g id="g-root-tf_147dtsrix5amc-fill" data-item-order="-1091340"><g id="tf_147dtsrix5amc-fill-merged" stroke="none" fill="#2c2c2c" fill-opacity="1"><g><path d="M0 0 H1032 V705 H0 V0"></path></g></g></g><g id="g-root-cp_4_g-4_1lzabdnixdptu-fill" data-item-order="-599246" transform="translate(266.0000305175781, 146.342041015625)"><g id="cp_4_g-4_1lzabdnixdptu-fill-merged" stroke="none" fill="#43dd93" fill-opacity="1"><g><path d="M271.097 76.833L237.734 142.345C179.161 148.96 136.05 203.788 142.688 262.023L76.663 228.399L10.31 262.191C3.609 131.946 106.522 16.928 237.061 10L271.097 76.833"></path></g></g></g><g id="g-root-cp_3_g-3_1cua6u3ixf217-fill" data-item-order="-599242" transform="translate(266.30999755859375, 364.741943359375)"><g id="cp_3_g-3_1cua6u3ixf217-fill-merged" stroke="none" fill="#fb6762" fill-opacity="1"><g><path d="M227.92 204.434L261.433 138.626C203.419 144.906 149.023 101.914 142.379 43.624L76.354 10L10 43.792C16.716 174.333 131.539 277.437 261.798 270.958L227.92 204.434"></path></g></g></g><g id="g-root-cp_2_g-2_18egopnixf2tg-fill" data-item-order="-599238" transform="translate(484.22900390625, 373.487060546875)"><g id="cp_2_g-2_18egopnixf2tg-fill-merged" stroke="none" fill="#f79438" fill-opacity="1"><g><path d="M10 195.689L43.514 129.881C102.031 123.547 145.379 69.083 139.139 10.87L204.434 44.123L271.438 10C278.144 140.549 174.741 255.704 43.879 262.213L10 195.689"></path></g></g></g><g id="g-root-cp_1_g-1_zitogrixf3m5-fill" data-item-order="-599234" transform="translate(493.06201171875, 146.012939453125)"><g id="cp_1_g-1_zitogrixf3m5-fill-merged" stroke="none" fill="#ffe711" fill-opacity="1"><g><path d="M44.036 77.163L10.673 142.675C69.107 136.076 124.003 179.543 130.306 238.344L195.602 271.597L262.606 237.474C255.884 106.613 140.534 3.401 10 10.329L44.036 77.163"></path></g></g></g><g id="g-root-cp_0_g-0_v306cbixf4ee-fill" data-item-order="-599230" transform="translate(409.9880065917969, 289)"><g id="cp_0_g-0_v306cbixf4ee-fill-merged" stroke="none" fill="#e8e8e8" fill-opacity="1"><g><path d="M10 106C10 159.019 52.981 202 106 202C159.019 202 202 159.019 202 106C202 52.981 159.019 10 106 10C52.981 10 10 52.981 10 106"></path></g></g></g><g id="g-root-tx_ciclodig_m7zn6jixf21b-fill" data-item-order="0" transform="translate(242, 38)"><g id="tx_ciclodig_m7zn6jixf21b-fill-merged" stroke="none" fill="#f4f4f4" fill-opacity="1"><g><text style="font: bold 25px Roboto, sans-serif; white-space: pre;" font-weight="bold" font-size="25px" font-family="Roboto, sans-serif"><tspan x="16.89" y="39.74" dominant-baseline="ideographic">Ciclo di Generazione Aumentata dal Recupero</tspan><tspan x="249.18" y="69.74" dominant-baseline="ideographic">RAG</tspan></text></g></g></g><g id="g-root-ic_spee_1cws36jixjc3z-fill" data-item-order="0" transform="translate(361.9880065917969, 230)"></g><g id="g-root-ic_inst_8zni8rixf4so-fill" data-item-order="0" transform="translate(607.9879760742188, 242)"></g><g id="g-root-tx_generari_1cxek9nixf37q-fill" data-item-order="0" transform="translate(38, 290)"><g id="tx_generari_1cxek9nixf37q-fill-merged" stroke="none" fill="#43dd93" fill-opacity="1"><g><text style="font: bold 20px Roboto, sans-serif; white-space: pre;" font-weight="bold" font-size="20px" font-family="Roboto, sans-serif"><tspan x="16.21" y="33.59" dominant-baseline="ideographic">Genera Risposta</tspan></text></g></g></g><g id="g-root-tx_inviaque_4gpmorixf4eg-fill" data-item-order="0" transform="translate(758, 290)"><g id="tx_inviaque_4gpmorixf4eg-fill-merged" stroke="none" fill="#ffe711" fill-opacity="1"><g><text style="font: bold 20px Roboto, sans-serif; white-space: pre;" font-weight="bold" font-size="20px" font-family="Roboto, sans-serif"><tspan x="12" y="33.59" dominant-baseline="ideographic">Invia Query</tspan></text></g></g></g><g id="g-root-tx_ilmodell_qqxiqjixf2fj-fill" data-item-order="0" transform="translate(38, 326)"><g id="tx_ilmodell_qqxiqjixf2fj-fill-merged" stroke="none" fill="#f4f4f4" fill-opacity="1"><g><text style="font: 15px Roboto, sans-serif; white-space: pre;" font-size="15px" font-family="Roboto, sans-serif"><tspan x="22.95" y="27.95" dominant-baseline="ideographic">Il modello genera una risposta </tspan><tspan x="154.9" y="45.95" dominant-baseline="ideographic">informata.</tspan></text></g></g></g><g id="g-root-tx_lutentei_1lr6597ixf3ep-fill" data-item-order="0" transform="translate(758, 326)"><g id="tx_lutentei_1lr6597ixf3ep-fill-merged" stroke="none" fill="#f4f4f4" fill-opacity="1"><g><text style="font: 15px Roboto, sans-serif; white-space: pre;" font-size="15px" font-family="Roboto, sans-serif"><tspan x="12" y="30.95" dominant-baseline="ideographic">L'utente inizia con una query.</tspan></text></g></g></g><g id="g-root-tx_ragtechn_zn702jixkq33-fill" data-item-order="0" transform="translate(433.988037109375, 355)"><g id="tx_ragtechn_zn702jixkq33-fill-merged" stroke="none" fill="#2c2c2c" fill-opacity="1"><g><text style="font: bold 20px Roboto, sans-serif; white-space: pre;" font-weight="bold" font-size="20px" font-family="Roboto, sans-serif"><tspan x="13.07" y="33.59" dominant-baseline="ideographic">RAG Technique</tspan></text></g></g></g><g id="g-root-tx_integrac_hu1kbfixf1tw-fill" data-item-order="0" transform="translate(38, 422)"><g id="tx_integrac_hu1kbfixf1tw-fill-merged" stroke="none" fill="#fb6762" fill-opacity="1"><g><text style="font: bold 20px Roboto, sans-serif; white-space: pre;" font-weight="bold" font-size="20px" font-family="Roboto, sans-serif"><tspan x="14.05" y="33.59" dominant-baseline="ideographic">Integra Contesto</tspan></text></g></g></g><g id="g-root-tx_recupera_18gc3yzixf1tu-fill" data-item-order="0" transform="translate(758, 422)"><g id="tx_recupera_18gc3yzixf1tu-fill-merged" stroke="none" fill="#f79438" fill-opacity="1"><g><text style="font: bold 20px Roboto, sans-serif; white-space: pre;" font-weight="bold" font-size="20px" font-family="Roboto, sans-serif"><tspan x="12" y="33.59" dominant-baseline="ideographic">Recupera Documenti</tspan></text></g></g></g><g id="g-root-tx_idocumen_1uo23obixf40d-fill" data-item-order="0" transform="translate(38, 458)"><g id="tx_idocumen_1uo23obixf40d-fill-merged" stroke="none" fill="#f4f4f4" fill-opacity="1"><g><text style="font: 15px Roboto, sans-serif; white-space: pre;" font-size="15px" font-family="Roboto, sans-serif"><tspan x="13.62" y="27.95" dominant-baseline="ideographic">I documenti recuperati vengono </tspan><tspan x="165.34" y="45.95" dominant-baseline="ideographic">integrati.</tspan></text></g></g></g><g id="g-root-ic_spre_8wj4t7ixja4k-fill" data-item-order="0" transform="translate(344.9880065917969, 465)"></g><g id="g-root-tx_ilsistem_v4vllnixf3er-fill" data-item-order="0" transform="translate(758, 458)"><g id="tx_ilsistem_v4vllnixf3er-fill-merged" stroke="none" fill="#f4f4f4" fill-opacity="1"><g><text style="font: 15px Roboto, sans-serif; white-space: pre;" font-size="15px" font-family="Roboto, sans-serif"><tspan x="12" y="27.95" dominant-baseline="ideographic">Il sistema cerca documenti </tspan><tspan x="12" y="45.95" dominant-baseline="ideographic">rilevanti.</tspan></text></g></g></g><g id="g-root-ic_refr_18egopnixhv60-fill" data-item-order="0" transform="translate(589.9879760742188, 482)"></g><g id="g-root-tf_147dtsrix5amc-stroke" data-item-order="-1091340"></g><g id="g-root-cp_4_g-4_1lzabdnixdptu-stroke" data-item-order="-599246" transform="translate(266.0000305175781, 146.342041015625)"><g id="cp_4_g-4_1lzabdnixdptu-stroke" fill="none" stroke-linecap="round" stroke-linejoin="round" stroke-miterlimit="4" stroke="#2c2c2c" stroke-width="2" stroke-opacity="1"><g><path d="M 271.097369 76.8332L 237.734069 142.3453C 179.160869 148.9602 136.050069 203.788 142.688169 262.0235L 76.663169 228.3991L 10.309569 262.1909C 3.608969 131.9458 106.522169 16.9282 237.061269 10L 271.097369 76.8332Z"></path></g></g></g><g id="g-root-cp_3_g-3_1cua6u3ixf217-stroke" data-item-order="-599242" transform="translate(266.30999755859375, 364.741943359375)"><g id="cp_3_g-3_1cua6u3ixf217-stroke" fill="none" stroke-linecap="round" stroke-linejoin="round" stroke-miterlimit="4" stroke="#2c2c2c" stroke-width="2" stroke-opacity="1"><g><path d="M 227.9196 204.4341L 261.4334 138.6264C 203.4191 144.9059 149.0228 101.9139 142.3786 43.6244L 76.3537 10L 10 43.7918C 16.7158 174.333 131.5387 277.4367 261.7981 270.958L 227.9196 204.4341Z"></path></g></g></g><g id="g-root-cp_2_g-2_18egopnixf2tg-stroke" data-item-order="-599238" transform="translate(484.22900390625, 373.487060546875)"><g id="cp_2_g-2_18egopnixf2tg-stroke" fill="none" stroke-linecap="round" stroke-linejoin="round" stroke-miterlimit="4" stroke="#2c2c2c" stroke-width="2" stroke-opacity="1"><g><path d="M 10 195.689L 43.5138 129.8813C 102.0314 123.5473 145.3786 69.0832 139.1385 10.87L 204.4341 44.1231L 271.4382 10C 278.1439 140.5492 174.741 255.7042 43.8785 262.2129L 10 195.689Z"></path></g></g></g><g id="g-root-cp_1_g-1_zitogrixf3m5-stroke" data-item-order="-599234" transform="translate(493.06201171875, 146.012939453125)"><g id="cp_1_g-1_zitogrixf3m5-stroke" fill="none" stroke-linecap="round" stroke-linejoin="round" stroke-miterlimit="4" stroke="#2c2c2c" stroke-width="2" stroke-opacity="1"><g><path d="M 44.036 77.1626L 10.6727 142.6748C 69.1073 136.0755 124.0032 179.5426 130.3063 238.3437L 195.602 271.5967L 262.606 237.4736C 255.8844 106.6131 140.5341 3.4015 10 10.3294L 44.036 77.1626Z"></path></g></g></g><g id="g-root-cp_0_g-0_v306cbixf4ee-stroke" data-item-order="-599230" transform="translate(409.9880065917969, 289)"><g id="cp_0_g-0_v306cbixf4ee-stroke" fill="none" stroke-linecap="round" stroke-linejoin="round" stroke-miterlimit="4" stroke="#2c2c2c" stroke-width="2" stroke-opacity="1"><g><path d="M 10 106C 10.000003 159.019339 52.980667 202.000003 106.000003 202.000003C 159.019339 202.000003 202.000003 159.019339 202.000003 106.000003C 202.000003 52.980667 159.019339 10.000003 106.000003 10.000003C 52.980667 10.000003 10.000003 52.980667 10.000003 106.000003"></path></g></g></g><g id="g-root-tx_ciclodig_m7zn6jixf21b-stroke" data-item-order="0" transform="translate(242, 38)"></g><g id="g-root-ic_spee_1cws36jixjc3z-stroke" data-item-order="0" transform="translate(361.9880065917969, 230)"><g id="ic_spee_1cws36jixjc3z-stroke" fill="none" stroke-linecap="round" stroke-linejoin="round" stroke-miterlimit="4" stroke="#2c2c2c" stroke-width="2" stroke-opacity="1"><g><path d="M 31.0375 26.25L 31.0375 14.135C 31.0375 12.541658 32.329159 11.25 33.922501 11.25L 65.652496 11.25C 67.245842 11.25 68.537506 12.541658 68.537506 14.135L 68.537506 35.864998C 68.537506 37.45834 67.245842 38.75 65.652496 38.75L 51.950001 38.75L 41.1325 46.25L 41.1325 38.75L 36.422501 38.75M 38.6325 18.75L 60.939999 18.75M 38.6325 25L 60.939999 25M 38.6325 31.25L 52.672501 31.25M 40.927502 66.072502C 40.926125 67.550674 39.728172 68.748619 38.25 68.75L 14.1425 68.75C 12.663353 68.75 11.46388 67.551643 11.4625 66.072502L 11.4625 59.375C 11.462501 51.238464 18.058466 44.642502 26.195 44.642502C 34.331535 44.642502 40.927502 51.238464 40.927502 59.375ZM 20.57 53.75C 20.57 54.095177 20.849821 54.375 21.195 54.375C 21.540178 54.375 21.82 54.095177 21.82 53.75C 21.82 53.404823 21.540178 53.125 21.195 53.125C 20.849821 53.125 20.57 53.404823 20.57 53.75M 30.57 53.735001C 30.57 54.080177 30.849821 54.360001 31.195 54.360001C 31.540176 54.360001 31.82 54.080177 31.82 53.735001C 31.82 53.38982 31.540176 53.110001 31.195 53.110001C 30.849821 53.110001 30.57 53.38982 30.57 53.735001M 26.195 44.642502L 26.195 39.285M 22.1775 35.267502C 22.177502 37.486305 23.976196 39.285004 26.195 39.285004C 28.413805 39.285004 30.2125 37.486305 30.2125 35.267502C 30.2125 33.048698 28.413805 31.25 26.195 31.25C 23.976196 31.25 22.177502 33.048698 22.177502 35.267502M 11.4625 62.037502L 40.927502 62.037502"></path></g></g></g><g id="g-root-ic_inst_8zni8rixf4so-stroke" data-item-order="0" transform="translate(607.9879760742188, 242)"><g id="ic_inst_8zni8rixf4so-stroke" fill="none" stroke-linecap="round" stroke-linejoin="round" stroke-miterlimit="4" stroke="#2c2c2c" stroke-width="2" stroke-opacity="1"><g><path d="M 68.125 63.125C 68.125 65.875 65.875 68.125 63.125 68.125L 16.875 68.125C 14.125 68.125 11.875 65.875 11.875 63.125L 11.875 16.875C 11.875 14.125 14.125 11.875 16.875 11.875L 63.125 11.875C 65.875 11.875 68.125 14.125 68.125 16.875L 68.125 63.125ZM 40.75 35.625252C 47.998749 35.625252 53.875 33.1628 53.875 30.125225C 53.875 27.087675 47.998749 24.62525 40.75 24.62525C 33.501225 24.62525 27.624975 27.087675 27.624975 30.125225C 27.624975 33.1628 33.501225 35.625252 40.75 35.625252ZM 27.624975 30.125124L 27.624975 39.625248C 27.624975 42.625252 33.62495 45.125 40.625 45.125C 47.875 45.125 53.875 42.625252 53.875 39.625248L 53.875 30.125124M 27.624975 39.375L 27.624975 49.375C 27.624975 52.375 33.62495 54.875 40.625 54.875C 47.875 54.875 53.875 52.375 53.875 49.375L 53.875 39.375"></path></g></g></g><g id="g-root-tx_generari_1cxek9nixf37q-stroke" data-item-order="0" transform="translate(38, 290)"></g><g id="g-root-tx_inviaque_4gpmorixf4eg-stroke" data-item-order="0" transform="translate(758, 290)"></g><g id="g-root-tx_ilmodell_qqxiqjixf2fj-stroke" data-item-order="0" transform="translate(38, 326)"></g><g id="g-root-tx_lutentei_1lr6597ixf3ep-stroke" data-item-order="0" transform="translate(758, 326)"></g><g id="g-root-tx_ragtechn_zn702jixkq33-stroke" data-item-order="0" transform="translate(433.988037109375, 355)"></g><g id="g-root-tx_integrac_hu1kbfixf1tw-stroke" data-item-order="0" transform="translate(38, 422)"></g><g id="g-root-tx_recupera_18gc3yzixf1tu-stroke" data-item-order="0" transform="translate(758, 422)"></g><g id="g-root-tx_idocumen_1uo23obixf40d-stroke" data-item-order="0" transform="translate(38, 458)"></g><g id="g-root-ic_spre_8wj4t7ixja4k-stroke" data-item-order="0" transform="translate(344.9880065917969, 465)"><g id="ic_spre_8wj4t7ixja4k-stroke" fill="none" stroke-linecap="round" stroke-linejoin="round" stroke-miterlimit="4" stroke="#2c2c2c" stroke-width="2" stroke-opacity="1"><g><path d="M 29.375 11.875L 11.875 11.875L 11.875 68.125L 29.375 68.125L 29.375 11.875ZM 11.875 30.625L 29.375 30.625M 11.875 49.375L 29.375 49.375M 66.125 18.625175C 67.375 19.625175 68.125 21.125124 68.125 22.625124L 68.125 39.625248C 68.125 42.375252 65.875 44.625248 63.125 44.625248L 45.625 44.625248C 42.875 44.625248 40.625 42.375252 40.625 39.625248L 40.625 17.12525C 40.625 14.37525 42.875 12.125245 45.625 12.125245L 55.875 12.125245C 56.875 12.125245 58.125 12.375153 58.875 13.12515L 66.125 18.625175ZM 48.125 20.87525L 56.875 20.87525M 48.125 28.37525L 60.625 28.37525M 48.125 35.875248L 54.375 35.875248M 59.625248 52.375L 59.625248 56.874752C 59.625248 59.624748 57.375252 61.874752 54.625248 61.874752L 39.875252 61.874752M 39.875252 61.874752L 46.125252 55.624752M 39.875252 61.874752L 46.125252 68.124756"></path></g></g></g><g id="g-root-tx_ilsistem_v4vllnixf3er-stroke" data-item-order="0" transform="translate(758, 458)"></g><g id="g-root-ic_refr_18egopnixhv60-stroke" data-item-order="0" transform="translate(589.9879760742188, 482)"><g id="ic_refr_18egopnixhv60-stroke" fill="none" stroke-linecap="round" stroke-linejoin="round" stroke-miterlimit="4" stroke="#2c2c2c" stroke-width="2" stroke-opacity="1"><g><path d="M 21.25 31.25L 45 31.25M 21.25 38.75L 36.25 38.75M 21.25 23.75L 38.75 23.75M 21.25 46.25L 31.25 46.25M 21.25 53.75L 31.25 53.75M 33.75 68.75L 13.75 68.75C 12.369288 68.75 11.25 67.630707 11.25 66.25L 11.25 13.75C 11.25 12.369288 12.369288 11.25 13.75 11.25L 46.982502 11.25C 47.645489 11.250141 48.281269 11.513626 48.75 11.9825L 58.017502 21.25C 58.486374 21.718733 58.749855 22.354513 58.75 23.0175L 58.75 33.75M 60 53.737503L 68.75 53.737503L 68.75 44.987499M 53.75 68.735001C 46.317802 68.738007 40.228382 62.834606 40.000881 55.405888C 39.773384 47.977173 45.490158 41.712212 52.908611 41.260429C 60.327068 40.808647 66.761848 46.333576 67.4375 53.735004M 68.75 44.985001L 68.75 53.735001L 60 53.737503"></path></g></g></g></g></g></svg>