<?xml version="1.0" encoding="utf-8" standalone="yes"?>
<!DOCTYPE svg PUBLIC "-//W3C//DTD SVG 1.1//EN" "http://www.w3.org/Graphics/SVG/1.1/DTD/svg11.dtd">
<svg style="fill:none;stroke:none;fill-rule:evenodd;clip-rule:evenodd;stroke-linecap:round;stroke-linejoin:round;stroke-miterlimit:1.5;" version="1.1" xmlns="http://www.w3.org/2000/svg" xmlns:xlink="http://www.w3.org/1999/xlink" width="792" height="553" viewBox="0 0 792 553"><style class="text-font-style fontImports" data-font-family="Roboto">@import url(https://fonts.googleapis.com/css2?family=Roboto:wght@400;700&amp;amp;display=block);</style><rect id="" x="0" y="0" width="792" height="552" style="fill: #2c2c2c;"></rect><g id="items" style="isolation: isolate"><g id="blend" style="mix-blend-mode: normal"><g id="g-root-tf_13zv2zui36i9w-fill" data-item-order="-655776"><g id="tf_13zv2zui36i9w-fill-merged" stroke="none" fill="#2c2c2c" fill-opacity="1"><g><path d="M0 0 H792 V552 H0 V0"></path></g></g></g><g id="g-root-cp_4_g-4_8xr17ui37wg7-fill" data-item-order="-339254" transform="translate(219.26199340820312, 110)"><g id="cp_4_g-4_8xr17ui37wg7-fill-merged" stroke="none" fill="#43dd93" fill-opacity="1"><g><path d="M144.268 99C110.91 108.592 84.54 135.214 74.738 169.09C85.807 173.323 93.684 184.219 93.684 197 H171.738 V118.704C159.089 118.704 148.317 110.487 144.268 99"></path></g></g><g id="cp_4_g-4_8xr17ui37wg7-fill-merged" stroke="none" fill="#43dd93" fill-opacity="1"><g><path d="M10 164.089L32.237 136L60.769 172.04C72.07 121.422 117.014 83.605 170.737 83.605L169.737 105L194.085 86.041L230.737 57.5L201.781 34.952L169.737 10L170.737 32C91.364 32 25.161 88.731 10 164.089"></path></g></g></g><g id="g-root-cp_3_g-3_4hxj3ei37x8g-fill" data-item-order="-339248" transform="translate(194, 236)"><g id="cp_3_g-3_4hxj3ei37x8g-fill-merged" stroke="none" fill="#fb6762" fill-opacity="1"><g><path d="M99 98.39C110.468 94.463 118.702 83.687 118.702 71 H197 V149.838C184.311 149.838 173.505 157.829 169.444 169C135.157 159.445 108.231 132.497 99 98.39"></path></g></g><g id="cp_3_g-3_4hxj3ei37x8g-fill-merged" stroke="none" fill="#fb6762" fill-opacity="1"><g><path d="M35.263 38.089L57.5 10L86.032 46.04L105 70 H83.297C83.294 70.333 83.292 70.666 83.292 71C83.292 124.859 120.613 169.948 170.656 181.517L137 208L169.953 233.931C91.757 221.376 32 153.209 32 71C32 70.666 32.001 70.333 32.003 70 H10L35.263 38.089"></path></g></g></g><g id="g-root-cp_2_g-2_1uo11wqi37uo9-fill" data-item-order="-339242" transform="translate(321, 297)"><g id="cp_2_g-2_1uo11wqi37uo9-fill-merged" stroke="none" fill="#f79438" fill-opacity="1"><g><path d="M70 88.838C82.43 88.838 93.015 96.829 96.993 108C130.581 98.445 156.957 71.497 166 37.39C154.766 33.463 146.7 22.687 146.7 10 H70 V88.838"></path></g></g><g id="cp_2_g-2_1uo11wqi37uo9-fill-merged" stroke="none" fill="#f79438" fill-opacity="1"><g><path d="M207.5 67.002L179.718 31.324C169.923 83.121 125.11 122.432 71 123.379 V99.002L43.656 120.518L10 147.001L42.953 172.932L71 195.001 V174.989C151.514 174.021 218.07 114.681 230.803 37.076L207.5 67.002"></path></g></g></g><g id="g-root-cp_1_g-1_1q87jsai37vgi-fill" data-item-order="-339236" transform="translate(381, 134.9530029296875)"><g id="cp_1_g-1_1q87jsai37vgi-fill-merged" stroke="none" fill="#ffe711" fill-opacity="1"><g><path d="M32.348 61.089L69 32.548L40.044 10C114.516 24.355 171.093 89.386 172.953 168.048 H195.001L170.803 199.122L147.501 229.048L119.719 193.371L100 168.048 H121.639C119.82 115.26 82.139 71.641 32.348 61.089"></path></g></g><g id="cp_1_g-1_1q87jsai37vgi-fill-merged" stroke="none" fill="#ffe711" fill-opacity="1"><g><path d="M105 144.137C94.159 148.37 86.445 159.266 86.445 172.047 H10 V93.751C22.389 93.751 32.939 85.534 36.904 74.047C69.574 83.639 95.4 110.261 105 144.137"></path></g></g></g><g id="g-root-tx_ciclodir_1cwr1eyi37x1f-fill" data-item-order="0" transform="translate(122, 38)"><g id="tx_ciclodir_1cwr1eyi37x1f-fill-merged" stroke="none" fill="#f4f4f4" fill-opacity="1"><g><text style="font: bold 25px Roboto, sans-serif; white-space: pre;" font-weight="bold" font-size="25px" font-family="Roboto, sans-serif"><tspan x="12.57" y="42.74" dominant-baseline="ideographic">Ciclo di Riflessione per il Miglioramento dell'IA</tspan></text></g></g></g><g id="g-root-tx_riprovac_qs5f56i37v9m-fill" data-item-order="0" transform="translate(38, 122)"><g id="tx_riprovac_qs5f56i37v9m-fill-merged" stroke="none" fill="#43dd93" fill-opacity="1"><g><text style="font: bold 20px Roboto, sans-serif; white-space: pre;" font-weight="bold" font-size="20px" font-family="Roboto, sans-serif"><tspan x="12" y="33.59" dominant-baseline="ideographic">Riprova con </tspan><tspan x="12" y="57.59" dominant-baseline="ideographic">Correzioni</tspan></text></g></g></g><g id="g-root-tx_4_3zg8ai3evwv-fill" data-item-order="0" transform="translate(368, 139)"><g id="tx_4_3zg8ai3evwv-fill-merged" stroke="none" fill="#2c2c2c" fill-opacity="1"><g><text style="font: bold 25px Roboto, sans-serif; white-space: pre;" font-weight="bold" font-size="25px" font-family="Roboto, sans-serif"><tspan x="14.82" y="42.74" dominant-baseline="ideographic">4</tspan></text></g></g></g><g id="g-root-tx_liaappli_dgowrui37wuj-fill" data-item-order="0" transform="translate(38, 182)"><g id="tx_liaappli_dgowrui37wuj-fill-merged" stroke="none" fill="#f4f4f4" fill-opacity="1"><g><text style="font: 15px Roboto, sans-serif; white-space: pre;" font-size="15px" font-family="Roboto, sans-serif"><tspan x="12" y="30.95" dominant-baseline="ideographic">L'IA applica le </tspan><tspan x="12" y="48.95" dominant-baseline="ideographic">intuizioni per </tspan><tspan x="12" y="66.95" dominant-baseline="ideographic">migliorare l'output.</tspan></text></g></g></g><g id="g-root-tx_generaou_3zg8ai37w9a-fill" data-item-order="0" transform="translate(578, 170)"><g id="tx_generaou_3zg8ai37w9a-fill-merged" stroke="none" fill="#ffe711" fill-opacity="1"><g><text style="font: bold 20px Roboto, sans-serif; white-space: pre;" font-weight="bold" font-size="20px" font-family="Roboto, sans-serif"><tspan x="21.9" y="33.59" dominant-baseline="ideographic">Genera Output</tspan></text></g></g></g><g id="g-root-tx_liaprodu_1lu9gx6i37uhb-fill" data-item-order="0" transform="translate(614, 206)"><g id="tx_liaprodu_1lu9gx6i37uhb-fill-merged" stroke="none" fill="#f4f4f4" fill-opacity="1"><g><text style="font: 15px Roboto, sans-serif; white-space: pre;" font-size="15px" font-family="Roboto, sans-serif"><tspan x="12.89" y="27.95" dominant-baseline="ideographic">L'IA produce un </tspan><tspan x="18.6" y="45.95" dominant-baseline="ideographic">output iniziale.</tspan></text></g></g></g><g id="g-root-ic_wren_91hvqii37uh0-fill" data-item-order="0" transform="translate(318, 234)"></g><g id="g-root-ic_2_8z8x6i3dhxj-fill" data-item-order="0" transform="translate(396, 234)"></g><g id="g-root-tx_3_zn5yayi3exab-fill" data-item-order="0" transform="translate(230, 278)"><g id="tx_3_zn5yayi3exab-fill-merged" stroke="none" fill="#2c2c2c" fill-opacity="1"><g><text style="font: bold 25px Roboto, sans-serif; white-space: pre;" font-weight="bold" font-size="25px" font-family="Roboto, sans-serif"><tspan x="14.82" y="42.74" dominant-baseline="ideographic">3</tspan></text></g></g></g><g id="g-root-tx_1_1usediii3exoj-fill" data-item-order="0" transform="translate(505, 278)"><g id="tx_1_1usediii3exoj-fill-merged" stroke="none" fill="#2c2c2c" fill-opacity="1"><g><text style="font: bold 25px Roboto, sans-serif; white-space: pre;" font-weight="bold" font-size="25px" font-family="Roboto, sans-serif"><tspan x="14.82" y="42.74" dominant-baseline="ideographic">1</tspan></text></g></g></g><g id="g-root-ic_edit_4hxj3ei3dipz-fill" data-item-order="0" transform="translate(318, 312)"></g><g id="g-root-ic_sear_v97vfui3di4v-fill" data-item-order="0" transform="translate(396, 312)"></g><g id="g-root-tx_annotale_1hefysqi37v9k-fill" data-item-order="0" transform="translate(38, 350)"><g id="tx_annotale_1hefysqi37v9k-fill-merged" stroke="none" fill="#fb6762" fill-opacity="1"><g><text style="font: bold 20px Roboto, sans-serif; white-space: pre;" font-weight="bold" font-size="20px" font-family="Roboto, sans-serif"><tspan x="12" y="33.59" dominant-baseline="ideographic">Annota le </tspan><tspan x="12" y="57.59" dominant-baseline="ideographic">Lezioni </tspan><tspan x="12" y="81.59" dominant-baseline="ideographic">Apprese</tspan></text></g></g></g><g id="g-root-tx_rifletti_qq9zvui37w98-fill" data-item-order="0" transform="translate(602, 350)"><g id="tx_rifletti_qq9zvui37w98-fill-merged" stroke="none" fill="#f79438" fill-opacity="1"><g><text style="font: bold 20px Roboto, sans-serif; white-space: pre;" font-weight="bold" font-size="20px" font-family="Roboto, sans-serif"><tspan x="19.55" y="33.59" dominant-baseline="ideographic">Rifletti sugli </tspan><tspan x="78.49" y="57.59" dominant-baseline="ideographic">Errori</tspan></text></g></g></g><g id="g-root-tx_2_v97vfui3ewb3-fill" data-item-order="0" transform="translate(368, 419.0001220703125)"><g id="tx_2_v97vfui3ewb3-fill-merged" stroke="none" fill="#2c2c2c" fill-opacity="1"><g><text style="font: bold 25px Roboto, sans-serif; white-space: pre;" font-weight="bold" font-size="25px" font-family="Roboto, sans-serif"><tspan x="14.82" y="42.74" dominant-baseline="ideographic">2</tspan></text></g></g></g><g id="g-root-tx_liaanali_dffylmi37uod-fill" data-item-order="0" transform="translate(590, 410.0001220703125)"><g id="tx_liaanali_dffylmi37uod-fill-merged" stroke="none" fill="#f4f4f4" fill-opacity="1"><g><text style="font: 15px Roboto, sans-serif; white-space: pre;" font-size="15px" font-family="Roboto, sans-serif"><tspan x="45" y="27.95" dominant-baseline="ideographic">L'IA analizza e </tspan><tspan x="16.44" y="45.95" dominant-baseline="ideographic">identifica gli errori.</tspan></text></g></g></g><g id="g-root-tx_liaregis_znsfe2i37ugx-fill" data-item-order="0" transform="translate(38, 434.0001220703125)"><g id="tx_liaregis_znsfe2i37ugx-fill-merged" stroke="none" fill="#f4f4f4" fill-opacity="1"><g><text style="font: 15px Roboto, sans-serif; white-space: pre;" font-size="15px" font-family="Roboto, sans-serif"><tspan x="12" y="27.95" dominant-baseline="ideographic">L'IA registra le </tspan><tspan x="12" y="45.95" dominant-baseline="ideographic">intuizioni dagli errori.</tspan></text></g></g></g><g id="g-root-tf_13zv2zui36i9w-stroke" data-item-order="-655776"></g><g id="g-root-cp_4_g-4_8xr17ui37wg7-stroke" data-item-order="-339254" transform="translate(219.26199340820312, 110)"><g id="cp_4_g-4_8xr17ui37wg7-stroke" fill="none" stroke-linecap="round" stroke-linejoin="round" stroke-miterlimit="4" stroke="#2c2c2c" stroke-width="2" stroke-opacity="1"><g><path d="M 144.268281 99C 110.909781 108.5921 84.540081 135.2141 74.738281 169.0897C 85.807381 173.3228 93.684381 184.2195 93.684381 197L 171.738281 197L 171.738281 118.7039C 159.088981 118.7039 148.316781 110.4867 144.268281 99Z"></path></g></g><g id="cp_4_g-4_8xr17ui37wg7-stroke" fill="none" stroke-linecap="round" stroke-linejoin="round" stroke-miterlimit="4" stroke="#2c2c2c" stroke-width="2" stroke-opacity="1"><g><path d="M 10 164.0894L 32.2374 136L 60.7689 172.0398C 72.0703 121.4216 117.0144 83.6049 170.7374 83.6049L 169.7374 105L 230.7374 57.5L 169.7374 10L 170.7374 32C 91.3642 32 25.1609 88.7309 10 164.0894Z"></path></g></g></g><g id="g-root-cp_3_g-3_4hxj3ei37x8g-stroke" data-item-order="-339248" transform="translate(194, 236)"><g id="cp_3_g-3_4hxj3ei37x8g-stroke" fill="none" stroke-linecap="round" stroke-linejoin="round" stroke-miterlimit="4" stroke="#2c2c2c" stroke-width="2" stroke-opacity="1"><g><path d="M 99 98.3901C 110.4681 94.4629 118.7021 83.6869 118.7021 71L 197 71L 197 149.838C 184.3112 149.838 173.5053 157.8292 169.4441 169C 135.1569 159.4453 108.2314 132.4974 99 98.3901Z"></path></g></g><g id="cp_3_g-3_4hxj3ei37x8g-stroke" fill="none" stroke-linecap="round" stroke-linejoin="round" stroke-miterlimit="4" stroke="#2c2c2c" stroke-width="2" stroke-opacity="1"><g><path d="M 57.5 10L 105 70L 83.2965 70C 83.2936 70.333 83.2922 70.6663 83.2922 71C 83.2922 124.8588 120.6133 169.9476 170.6558 181.5167L 137 208L 169.9534 233.9305C 91.7571 221.3757 32 153.2089 32 71C 32 70.6664 32.001 70.3331 32.0029 70L 10 70L 57.5 10Z"></path></g></g></g><g id="g-root-cp_2_g-2_1uo11wqi37uo9-stroke" data-item-order="-339242" transform="translate(321, 297)"><g id="cp_2_g-2_1uo11wqi37uo9-stroke" fill="none" stroke-linecap="round" stroke-linejoin="round" stroke-miterlimit="4" stroke="#2c2c2c" stroke-width="2" stroke-opacity="1"><g><path d="M 70 88.838C 82.4299 88.838 93.0152 96.8292 96.9935 108C 130.581 98.4453 156.957 71.4974 166 37.3901C 154.766 33.4629 146.7 22.6869 146.7 10L 70 10L 70 88.838Z"></path></g></g><g id="cp_2_g-2_1uo11wqi37uo9-stroke" fill="none" stroke-linecap="round" stroke-linejoin="round" stroke-miterlimit="4" stroke="#2c2c2c" stroke-width="2" stroke-opacity="1"><g><path d="M 207.5 67.001719L 179.7184 31.324219C 169.9232 83.120719 125.1097 122.432019 71 123.379319L 71 99.001719L 10 147.001719L 71 195.001719L 71 174.989719C 151.5139 174.021619 218.0702 114.680719 230.8029 37.075919L 207.5 67.001719Z"></path></g></g></g><g id="g-root-cp_1_g-1_1q87jsai37vgi-stroke" data-item-order="-339236" transform="translate(381, 134.9530029296875)"><g id="cp_1_g-1_1q87jsai37vgi-stroke" fill="none" stroke-linecap="round" stroke-linejoin="round" stroke-miterlimit="4" stroke="#2c2c2c" stroke-width="2" stroke-opacity="1"><g><path d="M 32.347656 61.089L 69.000256 32.548L 40.043856 10C 114.515956 24.3552 171.092856 89.3865 172.952956 168.048L 195.000256 168.048L 147.500256 229.048L 100.000256 168.048L 121.639256 168.048C 119.820256 115.2602 82.138656 71.6411 32.347656 61.089Z"></path></g></g><g id="cp_1_g-1_1q87jsai37vgi-stroke" fill="none" stroke-linecap="round" stroke-linejoin="round" stroke-miterlimit="4" stroke="#2c2c2c" stroke-width="2" stroke-opacity="1"><g><path d="M 105 144.136575C 94.1591 148.369675 86.4445 159.266375 86.4445 172.046875L 10 172.046875L 10 93.750775C 22.3885 93.750775 32.9386 85.533575 36.9036 74.046875C 69.5743 83.638975 95.4003 110.260975 105 144.136575Z"></path></g></g></g><g id="g-root-tx_ciclodir_1cwr1eyi37x1f-stroke" data-item-order="0" transform="translate(122, 38)"></g><g id="g-root-tx_riprovac_qs5f56i37v9m-stroke" data-item-order="0" transform="translate(38, 122)"></g><g id="g-root-tx_4_3zg8ai3evwv-stroke" data-item-order="0" transform="translate(368, 139)"></g><g id="g-root-tx_liaappli_dgowrui37wuj-stroke" data-item-order="0" transform="translate(38, 182)"></g><g id="g-root-tx_generaou_3zg8ai37w9a-stroke" data-item-order="0" transform="translate(578, 170)"></g><g id="g-root-tx_liaprodu_1lu9gx6i37uhb-stroke" data-item-order="0" transform="translate(614, 206)"></g><g id="g-root-ic_wren_91hvqii37uh0-stroke" data-item-order="0" transform="translate(318, 234)"><g id="ic_wren_91hvqii37uh0-stroke" fill="none" stroke-linecap="round" stroke-linejoin="round" stroke-miterlimit="4" stroke="#2c2c2c" stroke-width="2" stroke-opacity="1"><g><path d="M 40.872002 38.764L 40.872002 28.945999C 44.797707 27.720583 47.471058 24.085518 47.471058 19.973C 47.471058 15.860481 44.797707 12.225417 40.872002 11L 40.872002 19.973999C 40.831173 21.511499 39.573044 22.736668 38.035 22.736668C 36.49696 22.736668 35.238827 21.511499 35.197998 19.973999L 35.197998 11C 31.439344 12.170469 28.805557 15.555664 28.595068 19.486719C 28.384581 23.417774 30.641823 27.064859 34.253998 28.630001L 34.253998 35.672001M 37.288002 38.764L 49.009998 38.764L 49.827999 40.139999C 50.20414 40.702953 50.20414 41.43705 49.828003 42L 49.310001 42.776001C 48.976658 43.276859 48.936977 43.91785 49.206001 44.456001L 50.071999 46.189999C 50.307919 46.66217 50.307919 47.217827 50.071999 47.689999L 49.071999 49.672001C 48.872517 50.069508 48.839413 50.530056 48.98 50.952L 49.271999 51.824001C 49.474358 52.425594 49.319508 53.089886 48.871998 53.540001L 46.400002 55.698002L 34.648003 55.698002C 34.008083 55.697891 33.374046 55.820084 32.779999 56.057999L 29.488001 57M 17.75 46.939999L 23.382 44.827999C 24.079018 44.565994 24.669256 44.079876 25.059999 43.445999L 28.68 35.07C 29.060179 34.452019 29.569902 33.923874 30.174 33.521999L 31.912001 32.25"></path></g></g></g><g id="g-root-ic_2_8z8x6i3dhxj-stroke" data-item-order="0" transform="translate(396, 234)"><g id="ic_2_8z8x6i3dhxj-stroke" fill="none" stroke-linecap="round" stroke-linejoin="round" stroke-miterlimit="4" stroke="#2c2c2c" stroke-width="2" stroke-opacity="1"><g><path d="M 50 27C 49.99382 19.094072 44.214287 12.377884 36.397625 11.193171C 28.580965 10.008457 21.070864 14.710434 18.722288 22.259468C 16.373714 29.808504 19.890842 37.941154 27 41.400002L 27 50C 27 51.104568 27.89543 52 29 52L 39 52C 40.104568 52 41 51.104568 41 50L 41 41.400002C 46.509819 38.719292 50.004787 33.127342 50 27ZM 29 52L 39 52L 39 52L 39 55C 39 56.104568 38.104568 57 37 57L 31 57C 29.89543 57 29 56.104568 29 55L 29 52L 29 52ZM 27 46L 41 46"></path></g></g></g><g id="g-root-tx_3_zn5yayi3exab-stroke" data-item-order="0" transform="translate(230, 278)"></g><g id="g-root-tx_1_1usediii3exoj-stroke" data-item-order="0" transform="translate(505, 278)"></g><g id="g-root-ic_edit_4hxj3ei3dipz-stroke" data-item-order="0" transform="translate(318, 312)"><g id="ic_edit_4hxj3ei3dipz-stroke" fill="none" stroke-linecap="round" stroke-linejoin="round" stroke-miterlimit="4" stroke="#2c2c2c" stroke-width="2" stroke-opacity="1"><g><path d="M 28.018 50.987999L 13.018 50.987999C 11.91343 50.987999 11.018 50.092571 11.018 48.987999L 11.018 16.987999C 11.018 15.88343 11.91343 14.988 13.018 14.988L 41.017998 14.988C 42.12257 14.988 43.018002 15.88343 43.018002 16.987999L 43.018002 31.988001M 19.018 18.987999L 19.018 10.988M 27.018 18.987999L 27.018 10.988M 35.017998 18.987999L 35.017998 10.988M 55.778 40.228001L 40.517998 55.487999L 33.017998 56.987999L 34.517998 49.487999L 49.778 34.228001C 51.429905 32.576164 54.108097 32.576164 55.760002 34.228001L 55.778 34.243999C 57.430061 35.896591 57.430061 38.575409 55.778 40.227997Z"></path></g></g></g><g id="g-root-ic_sear_v97vfui3di4v-stroke" data-item-order="0" transform="translate(396, 312)"><g id="ic_sear_v97vfui3di4v-stroke" fill="none" stroke-linecap="round" stroke-linejoin="round" stroke-miterlimit="4" stroke="#2c2c2c" stroke-width="2" stroke-opacity="1"><g><path d="M 39 29.982L 39 20.982L 17 20.982L 17 46.98L 29 46.981998M 45 27.982L 45 16.982C 45 15.87743 44.104568 14.982 43 14.982L 34.104 14.982C 33.043873 12.558297 30.649412 10.992139 28.004 10.992139C 25.358589 10.992139 22.964127 12.558297 21.903999 14.982L 13 14.982C 11.895431 14.982 11 15.87743 11 16.982L 11 50.981998C 11 52.086571 11.895431 52.981998 13 52.981998L 31 52.981998M 23 26.982L 33 26.982M 23 32.982002L 33 32.982002M 23 38.982002L 29 38.982002M 35 44.042C 35 49.044594 39.055405 53.099998 44.057999 53.099998C 49.060593 53.099998 53.115997 49.044594 53.115997 44.042C 53.115997 39.039406 49.060593 34.984001 44.057999 34.984001C 39.055405 34.984001 35 39.039406 35 44.042ZM 57 56.981998L 50.504002 50.487999"></path></g></g></g><g id="g-root-tx_annotale_1hefysqi37v9k-stroke" data-item-order="0" transform="translate(38, 350)"></g><g id="g-root-tx_rifletti_qq9zvui37w98-stroke" data-item-order="0" transform="translate(602, 350)"></g><g id="g-root-tx_2_v97vfui3ewb3-stroke" data-item-order="0" transform="translate(368, 419.0001220703125)"></g><g id="g-root-tx_liaanali_dffylmi37uod-stroke" data-item-order="0" transform="translate(590, 410.0001220703125)"></g><g id="g-root-tx_liaregis_znsfe2i37ugx-stroke" data-item-order="0" transform="translate(38, 434.0001220703125)"></g></g></g></svg>