<?xml version="1.0" encoding="utf-8" standalone="yes"?>
<!DOCTYPE svg PUBLIC "-//W3C//DTD SVG 1.1//EN" "http://www.w3.org/Graphics/SVG/1.1/DTD/svg11.dtd">
<svg style="fill:none;stroke:none;fill-rule:evenodd;clip-rule:evenodd;stroke-linecap:round;stroke-linejoin:round;stroke-miterlimit:1.5;" version="1.1" xmlns="http://www.w3.org/2000/svg" xmlns:xlink="http://www.w3.org/1999/xlink" width="660" height="421" viewBox="0 0 660 421"><style class="text-font-style fontImports" data-font-family="Roboto">@import url(https://fonts.googleapis.com/css2?family=Roboto:wght@400;700&amp;amp;display=block);</style><rect id="" x="0" y="0" width="660" height="420.074" style="fill: #2c2c2c;"></rect><g id="items" style="isolation: isolate"><g id="blend" style="mix-blend-mode: normal"><g id="g-root-tf_1ha3lxmlfctmy-fill" data-item-order="-415800"><g id="tf_1ha3lxmlfctmy-fill-merged" stroke="none" fill="#2c2c2c" fill-opacity="1"><g><path d="M0 0.004 H660 V420.004 H0 V0.004"></path></g></g></g><g id="g-root-cp_0_g-0_18hkz4alffoqo-fill" data-item-order="-227654" transform="translate(101, 229.07421875)"><g id="cp_0_g-0_18hkz4alffoqo-fill-merged" stroke="none" fill="#f4f4f4" fill-opacity="1"><g><path d="M70 40C70 56.569 56.569 70 40 70C23.431 70 10 56.569 10 40C10 23.431 23.431 10 40 10C56.569 10 70 23.431 70 40"></path></g></g></g><g id="g-root-sy_1_line_zmkfyilffmdl-fill" data-item-order="-227643" transform="translate(233, 163.07421875)"></g><g id="g-root-sy_3_line_v6qxu2lffn5u-fill" data-item-order="-227637" transform="translate(233, 259.07421875)"></g><g id="g-root-sy_2_line_v6qxu2lffn5v-fill" data-item-order="-227631" transform="translate(233, 259.07421875)"></g><g id="g-root-tx_qualeper_hvafgqlffoqs-fill" data-item-order="0" transform="translate(14, 37.07421875)"><g id="tx_qualeper_hvafgqlffoqs-fill-merged" stroke="none" fill="#f4f4f4" fill-opacity="1"><g><text style="font: bold 20px Roboto, sans-serif; white-space: pre;" font-weight="bold" font-size="20px" font-family="Roboto, sans-serif"><tspan x="11.87" y="33.59" dominant-baseline="ideographic">Quale percorso di ragionamento dovrebbe essere selezionato per la </tspan><tspan x="245.48" y="57.59" dominant-baseline="ideographic">risposta finale?</tspan></text></g></g></g><g id="g-root-tx_percorso_huo1jelf1ma7-fill" data-item-order="0" transform="translate(401, 127.07421875)"><g id="tx_percorso_huo1jelf1ma7-fill-merged" stroke="none" fill="#4f91fc" fill-opacity="1"><g><text style="font: bold 15px Roboto, sans-serif; white-space: pre;" font-weight="bold" font-size="15px" font-family="Roboto, sans-serif"><tspan x="12" y="30.95" dominant-baseline="ideographic">Percorso di Ragionamento 1</tspan></text></g></g></g><g id="g-root-ic_rota_dccjwqlfl91h-fill" data-item-order="0" transform="translate(353, 145.07421875)"></g><g id="g-root-tx_questope_1heh0p6lf1khs-fill" data-item-order="0" transform="translate(401, 157.07421875)"><g id="tx_questope_1heh0p6lf1khs-fill-merged" stroke="none" fill="#f4f4f4" fill-opacity="1"><g><text style="font: 11.7px Roboto, sans-serif; white-space: pre;" font-size="11.7px" font-family="Roboto, sans-serif"><tspan x="12" y="26.85" dominant-baseline="ideographic">Questo percorso porta a una risposta </tspan><tspan x="12" y="40.85" dominant-baseline="ideographic">specifica attraverso una linea logica </tspan><tspan x="12" y="54.84" dominant-baseline="ideographic">unica.</tspan></text></g></g></g><g id="g-root-tx_percorso_1430ibulf1m2p-fill" data-item-order="0" transform="translate(401, 223.07421875)"><g id="tx_percorso_1430ibulf1m2p-fill-merged" stroke="none" fill="#43dd93" fill-opacity="1"><g><text style="font: bold 15px Roboto, sans-serif; white-space: pre;" font-weight="bold" font-size="15px" font-family="Roboto, sans-serif"><tspan x="12" y="30.95" dominant-baseline="ideographic">Percorso di Ragionamento 2</tspan></text></g></g></g><g id="g-root-ic_face_4ju096lf07bf-fill" data-item-order="0" transform="translate(113, 241.07421875)"></g><g id="g-root-ic_mana_4mw22lfjugz-fill" data-item-order="0" transform="translate(353, 241.07421875)"></g><g id="g-root-tx_questope_v7di2ylf1mve-fill" data-item-order="0" transform="translate(401, 253.07421875)"><g id="tx_questope_v7di2ylf1mve-fill-merged" stroke="none" fill="#f4f4f4" fill-opacity="1"><g><text style="font: 11.7px Roboto, sans-serif; white-space: pre;" font-size="11.7px" font-family="Roboto, sans-serif"><tspan x="12" y="26.85" dominant-baseline="ideographic">Questo percorso offre una risposta </tspan><tspan x="12" y="40.85" dominant-baseline="ideographic">alternativa con una diversa linea </tspan><tspan x="12" y="54.84" dominant-baseline="ideographic">logica.</tspan></text></g></g></g><g id="g-root-tx_percorso_hwjgsqlf1laj-fill" data-item-order="0" transform="translate(401, 319.07421875)"><g id="tx_percorso_hwjgsqlf1laj-fill-merged" stroke="none" fill="#a6da37" fill-opacity="1"><g><text style="font: bold 15px Roboto, sans-serif; white-space: pre;" font-weight="bold" font-size="15px" font-family="Roboto, sans-serif"><tspan x="12" y="30.95" dominant-baseline="ideographic">Percorso di Ragionamento 3</tspan></text></g></g></g><g id="g-root-ic_arro_4kge6ilffn5x-fill" data-item-order="0" transform="translate(353, 337.07421875)"></g><g id="g-root-tx_questope_dgpyoalf1m2s-fill" data-item-order="0" transform="translate(401, 349.07421875)"><g id="tx_questope_dgpyoalf1m2s-fill-merged" stroke="none" fill="#f4f4f4" fill-opacity="1"><g><text style="font: 11.7px Roboto, sans-serif; white-space: pre;" font-size="11.7px" font-family="Roboto, sans-serif"><tspan x="12" y="26.85" dominant-baseline="ideographic">Questo percorso converge con altri, </tspan><tspan x="12" y="40.85" dominant-baseline="ideographic">suggerendo una risposta più </tspan><tspan x="12" y="54.84" dominant-baseline="ideographic">coerente.</tspan></text></g></g></g><g id="g-root-tf_1ha3lxmlfctmy-stroke" data-item-order="-415800"></g><g id="g-root-cp_0_g-0_18hkz4alffoqo-stroke" data-item-order="-227654" transform="translate(101, 229.07421875)"><g id="cp_0_g-0_18hkz4alffoqo-stroke" fill="none" stroke-linecap="round" stroke-linejoin="round" stroke-miterlimit="4" stroke="#f4f4f4" stroke-width="2" stroke-opacity="1"><g><path d="M 142 40L 70 40"></path></g></g><g id="cp_0_g-0_18hkz4alffoqo-stroke" fill="none" stroke-linecap="round" stroke-linejoin="round" stroke-miterlimit="4" stroke="#f4f4f4" stroke-width="2" stroke-opacity="1"><g><path d="M 70 40C 70 56.5685 56.5685 70 40 70C 23.4315 70 10 56.5685 10 40C 10 23.4315 23.4315 10 40 10C 56.5685 10 70 23.4315 70 40Z"></path></g></g></g><g id="g-root-sy_1_line_zmkfyilffmdl-stroke" data-item-order="-227643" transform="translate(233, 163.07421875)"><g id="sy_1_line_zmkfyilffmdl-stroke" fill="none" stroke-linecap="round" stroke-linejoin="round" stroke-miterlimit="4" stroke="#4f91fc" stroke-width="2" stroke-opacity="1"><g><path d="M 115.99 10L 57.94 10C 44.69 10 33.94 20.75 33.94 34L 34 82C 34 95.23 23.23 106 10 106"></path><path d="M 110 16.5L 116.5 10L 110 3.5" stroke-dasharray="none"></path></g></g></g><g id="g-root-sy_3_line_v6qxu2lffn5u-stroke" data-item-order="-227637" transform="translate(233, 259.07421875)"><g id="sy_3_line_v6qxu2lffn5u-stroke" fill="none" stroke-linecap="round" stroke-linejoin="round" stroke-miterlimit="4" stroke="#a6da37" stroke-width="2" stroke-opacity="1"><g><path d="M 116 106L 57.95 106C 44.7 106 34 95.25 34 82L 34 34C 34 20.77 23.23 10 10 10"></path><path d="M 110 112.5L 116.5 106L 110 99.5" stroke-dasharray="none"></path></g></g></g><g id="g-root-sy_2_line_v6qxu2lffn5v-stroke" data-item-order="-227631" transform="translate(233, 259.07421875)"><g id="sy_2_line_v6qxu2lffn5v-stroke" fill="none" stroke-linecap="round" stroke-linejoin="round" stroke-miterlimit="4" stroke="#43dd93" stroke-width="2" stroke-opacity="1"><g><path d="M 116 10L 10 10"></path><path d="M 110 16.5L 116.5 10L 110 3.5" stroke-dasharray="none"></path></g></g></g><g id="g-root-tx_qualeper_hvafgqlffoqs-stroke" data-item-order="0" transform="translate(14, 37.07421875)"></g><g id="g-root-tx_percorso_huo1jelf1ma7-stroke" data-item-order="0" transform="translate(401, 127.07421875)"></g><g id="g-root-ic_rota_dccjwqlfl91h-stroke" data-item-order="0" transform="translate(353, 145.07421875)"><g id="ic_rota_dccjwqlfl91h-stroke" fill="none" stroke-linecap="round" stroke-linejoin="round" stroke-miterlimit="4" stroke="#f4f4f4" stroke-width="2" stroke-opacity="1"><g><path d="M 24.932499 42.099998C 16.869999 41.5975 10.75 39.1465 10.75 36.195999C 10.75 34.031502 14.05 32.1325 18.988001 31.077999M 37.071999 31.093C 41.98 32.150501 45.25 34.038998 45.25 36.193001C 45.25 39.331001 38.326 41.904999 29.5 42.168999M 21.274 37.213001L 24.932499 42.101498L 19.75 45.172001M 23.875 14.953C 23.875 17.231174 25.721827 19.077999 28 19.077999C 30.278175 19.077999 32.125 17.231174 32.125 14.953C 32.125 12.674826 30.278175 10.828 28 10.828C 25.721827 10.828 23.875 12.674826 23.875 14.953ZM 33.25 25.827999C 33.25 22.928507 30.899494 20.578001 28.000002 20.578001C 25.100506 20.578001 22.750002 22.928507 22.750002 25.827999L 22.75 30.327999L 25.1245 30.327999L 25.75 37.827999L 30.25 37.827999L 30.8755 30.327999L 33.25 30.327999Z"></path></g></g></g><g id="g-root-tx_questope_1heh0p6lf1khs-stroke" data-item-order="0" transform="translate(401, 157.07421875)"></g><g id="g-root-tx_percorso_1430ibulf1m2p-stroke" data-item-order="0" transform="translate(401, 223.07421875)"></g><g id="g-root-ic_face_4ju096lf07bf-stroke" data-item-order="0" transform="translate(113, 241.07421875)"><g id="ic_face_4ju096lf07bf-stroke" fill="none" stroke-linecap="round" stroke-linejoin="round" stroke-miterlimit="4" stroke="#2c2c2c" stroke-width="2" stroke-opacity="1"><g><path d="M 28.299999 24.841C 26.799999 23.341 23.799999 22.591 22.299999 24.091M 13.45 27.841C 13.3 27.241001 13.3 26.640999 13.3 25.890999C 13.3 17.791 19.9 11.191 28 11.191C 36.099998 11.191 42.699997 17.791 42.699997 25.890999C 42.699997 31.291 39.849998 35.941002 35.5 38.490997M 25.224998 43.900002C 28.224998 42.699997 27.662498 40.0555 27.0625 37.655502L 31.838501 35.806C 32.945641 35.377548 33.524639 34.158295 33.157001 33.029503L 33.156998 33.029499C 32.966873 32.445686 32.544945 31.965803 31.990271 31.702511C 31.435596 31.439217 30.797033 31.415707 30.224501 31.637501L 21.4375 35.0425C 20.6875 35.342499 19.7875 34.7425 19.7875 33.9925L 19.729 32.571999C 19.705038 31.993246 19.44207 31.450363 19.002792 31.072781C 18.563515 30.695202 17.987289 30.51676 17.411501 30.580002L 17.411499 30.58C 16.352261 30.696966 15.550443 31.591824 15.55 32.657501L 15.55 38.7925C 15.55 42.692501 19.15 45.5425 22.900002 44.642498C 22.900002 44.642498 24.474998 44.199997 25.224998 43.900002ZM 20.9125 18.841C 20.601841 18.841 20.35 18.589161 20.35 18.2785C 20.35 17.96784 20.601841 17.716 20.9125 17.716M 20.9125 18.841C 21.22316 18.841 21.475 18.589161 21.475 18.2785C 21.475 17.96784 21.22316 17.716 20.9125 17.716M 28.900002 18.841C 28.58934 18.841 28.337502 18.589161 28.337502 18.2785C 28.337502 17.96784 28.58934 17.716 28.900002 17.716M 28.900002 18.841C 29.210661 18.841 29.462502 18.589161 29.462502 18.2785C 29.462502 17.96784 29.210661 17.716 28.900002 17.716"></path></g></g></g><g id="g-root-ic_mana_4mw22lfjugz-stroke" data-item-order="0" transform="translate(353, 241.07421875)"><g id="ic_mana_4mw22lfjugz-stroke" fill="none" stroke-linecap="round" stroke-linejoin="round" stroke-miterlimit="4" stroke="#f4f4f4" stroke-width="2" stroke-opacity="1"><g><path d="M 11.5 28L 14.5 28M 20.5 28L 28 28M 34 28L 44.5 28M 41.4655 25L 44.5 28L 41.4655 31M 14.5 28C 14.5 29.656855 15.843145 31 17.5 31C 19.156855 31 20.5 29.656855 20.5 28C 20.5 26.343145 19.156855 25 17.5 25C 15.843145 25 14.5 26.343145 14.5 28M 28 28C 28 29.656855 29.343145 31 31 31C 32.656853 31 34 29.656855 34 28C 34 26.343145 32.656853 25 31 25C 29.343145 25 28 26.343145 28 28M 31 25L 31 19.75M 17.5 36.25L 17.5 31M 26.5 10.75L 35.5 10.75C 35.5 10.75 37 10.75 37 12.25L 37 18.25C 37 18.25 37 19.75 35.5 19.75L 26.5 19.75C 26.5 19.75 25 19.75 25 18.25L 25 12.25C 25 12.25 25 10.75 26.5 10.75M 13 36.25L 22 36.25C 22 36.25 23.5 36.25 23.5 37.75L 23.5 43.75C 23.5 43.75 23.5 45.25 22 45.25L 13 45.25C 13 45.25 11.5 45.25 11.5 43.75L 11.5 37.75C 11.5 37.75 11.5 36.25 13 36.25"></path></g></g></g><g id="g-root-tx_questope_v7di2ylf1mve-stroke" data-item-order="0" transform="translate(401, 253.07421875)"></g><g id="g-root-tx_percorso_hwjgsqlf1laj-stroke" data-item-order="0" transform="translate(401, 319.07421875)"></g><g id="g-root-ic_arro_4kge6ilffn5x-stroke" data-item-order="0" transform="translate(353, 337.07421875)"><g id="ic_arro_4kge6ilffn5x-stroke" fill="none" stroke-linecap="round" stroke-linejoin="round" stroke-miterlimit="4" stroke="#f4f4f4" stroke-width="2" stroke-opacity="1"><g><path d="M 34.75 33.25L 42.474998 33.25C 42.474998 33.25 43.974998 33.25 43.974998 34.75L 43.974998 42.474998C 43.974998 42.474998 43.974998 43.974998 42.474998 43.974998L 34.75 43.974998C 34.75 43.974998 33.25 43.974998 33.25 42.474998L 33.25 34.75C 33.25 34.75 33.25 33.25 34.75 33.25M 13.525 12.028L 21.25 12.028C 21.25 12.028 22.75 12.028 22.75 13.528L 22.75 21.253C 22.75 21.253 22.75 22.753 21.25 22.753L 13.525 22.753C 13.525 22.753 12.025 22.753 12.025 21.253L 12.025 13.528C 12.025 13.528 12.025 12.028 13.525 12.028M 27.25 17.38867L 33.307152 17.38867C 36.2374 17.38867 38.612801 19.764099 38.612801 22.694334L 38.612801 22.694334C 38.612801 25.624599 36.2374 28 33.307152 28L 28.2283 28M 28.76515 28L 22.692865 28C 19.76263 28 17.387199 30.375401 17.387199 33.305649L 17.387199 33.305649C 17.387199 36.235901 19.76263 38.611298 22.692865 38.611298L 28.975601 38.611298M 10 10M 30.7099 13.91992L 27.24115 17.38867L 30.7099 20.85742M 10 10M 25.506851 42.080048L 28.975601 38.611298L 25.506851 35.142548"></path></g></g></g><g id="g-root-tx_questope_dgpyoalf1m2s-stroke" data-item-order="0" transform="translate(401, 349.07421875)"></g></g></g></svg>