<?xml version="1.0" encoding="utf-8" standalone="yes"?>
<!DOCTYPE svg PUBLIC "-//W3C//DTD SVG 1.1//EN" "http://www.w3.org/Graphics/SVG/1.1/DTD/svg11.dtd">
<svg style="fill:none;stroke:none;fill-rule:evenodd;clip-rule:evenodd;stroke-linecap:round;stroke-linejoin:round;stroke-miterlimit:1.5;" version="1.1" xmlns="http://www.w3.org/2000/svg" xmlns:xlink="http://www.w3.org/1999/xlink" width="786" height="510" viewBox="0 0 786 510"><style class="text-font-style fontImports" data-font-family="Roboto">@import url(https://fonts.googleapis.com/css2?family=Roboto:wght@400;700&amp;amp;display=block);</style><rect id="" x="0" y="0" width="786" height="510" style="fill: #2c2c2c;"></rect><g id="items" style="isolation: isolate"><g id="blend" style="mix-blend-mode: normal"><g id="g-root-tf_mcz9p6lf8n48-fill" data-item-order="-601290"><g id="tf_mcz9p6lf8n48-fill-merged" stroke="none" fill="#2c2c2c" fill-opacity="1"><g><path d="M0 0 H786 V510 H0 V0"></path></g></g></g><g id="g-root-sy_4_line_dccgrelfbgud-fill" data-item-order="-58275" transform="translate(296, 217.99993896484375)"></g><g id="g-root-sy_3_line_4hbxlmlfbeha-fill" data-item-order="-58269" transform="translate(296, 217.99993896484375)"></g><g id="g-root-sy_1_line_1ifh6lfbf9j-fill" data-item-order="-58263" transform="translate(296, 55.99993896484375)"></g><g id="g-root-sy_2_line_1ifh6lfbf9k-fill" data-item-order="-58257" transform="translate(296.00244140625, 163.99993896484375)"></g><g id="g-root-sy_0_cu_1umszbulfbfup-fill" data-item-order="-58253" transform="translate(224, 217.99993896484375)"></g><g id="g-root-ic_3_v491i2lf083y-fill" data-item-order="0" transform="translate(416, 38)"></g><g id="g-root-tx_generape_1qa3umylfbh1l-fill" data-item-order="0" transform="translate(464, 44)"><g id="tx_generape_1qa3umylfbh1l-fill-merged" stroke="none" fill="#43dd93" fill-opacity="1"><g><text style="font: bold 20px Roboto, sans-serif; white-space: pre;" font-weight="bold" font-size="20px" font-family="Roboto, sans-serif"><tspan x="12" y="33.59" dominant-baseline="ideographic">Genera pensieri</tspan></text></g></g></g><g id="g-root-tx_creaperc_4kgb16lfbfns-fill" data-item-order="0" transform="translate(464, 80)"><g id="tx_creaperc_4kgb16lfbfns-fill-merged" stroke="none" fill="#f4f4f4" fill-opacity="1"><g><text style="font: 20px Roboto, sans-serif; white-space: pre;" font-size="20px" font-family="Roboto, sans-serif"><tspan x="12" y="33.59" dominant-baseline="ideographic">Crea percorsi decisionali </tspan><tspan x="12" y="57.59" dominant-baseline="ideographic">multipli per l'esplorazione.</tspan></text></g></g></g><g id="g-root-ic_stra_1lza57elfjv29-fill" data-item-order="0" transform="translate(80, 140)"></g><g id="g-root-ic_1_1qbcst6lfjw9b-fill" data-item-order="0" transform="translate(416, 146)"></g><g id="g-root-tx_valutape_hvacbelfbh8n-fill" data-item-order="0" transform="translate(464, 152)"><g id="tx_valutape_hvacbelfbh8n-fill-merged" stroke="none" fill="#4f91fc" fill-opacity="1"><g><text style="font: bold 20px Roboto, sans-serif; white-space: pre;" font-weight="bold" font-size="20px" font-family="Roboto, sans-serif"><tspan x="12" y="33.59" dominant-baseline="ideographic">Valuta pensieri</tspan></text></g></g></g><g id="g-root-tx_assegnav_v6quoqlfbfnq-fill" data-item-order="0" transform="translate(464, 188)"><g id="tx_assegnav_v6quoqlfbfnq-fill-merged" stroke="none" fill="#f4f4f4" fill-opacity="1"><g><text style="font: 20px Roboto, sans-serif; white-space: pre;" font-size="20px" font-family="Roboto, sans-serif"><tspan x="12" y="33.59" dominant-baseline="ideographic">Assegna valori per identificare </tspan><tspan x="12" y="57.59" dominant-baseline="ideographic">le opzioni promettenti.</tspan></text></g></g></g><g id="g-root-tx_comeimpl_1luwtlmlfbeo2-fill" data-item-order="0" transform="translate(14, 212)"><g id="tx_comeimpl_1luwtlmlfbeo2-fill-merged" stroke="none" fill="#f4f4f4" fill-opacity="1"><g><text style="font: bold 25px Roboto, sans-serif; white-space: pre;" font-weight="bold" font-size="25px" font-family="Roboto, sans-serif"><tspan x="70.08" y="39.74" dominant-baseline="ideographic">Come </tspan><tspan x="11.84" y="69.74" dominant-baseline="ideographic">implementare la </tspan><tspan x="19.17" y="99.74" dominant-baseline="ideographic">tecnica Tree of </tspan><tspan x="43.08" y="129.74" dominant-baseline="ideographic">Thoughts?</tspan></text></g></g></g><g id="g-root-ic_1_8wiymylfjuo4-fill" data-item-order="0" transform="translate(416, 254)"></g><g id="g-root-tx_scartape_18hkvyylfbh8l-fill" data-item-order="0" transform="translate(464, 260)"><g id="tx_scartape_18hkvyylfbh8l-fill-merged" stroke="none" fill="#fb6762" fill-opacity="1"><g><text style="font: bold 20px Roboto, sans-serif; white-space: pre;" font-weight="bold" font-size="20px" font-family="Roboto, sans-serif"><tspan x="12" y="33.59" dominant-baseline="ideographic">Scarta pensieri</tspan></text></g></g></g><g id="g-root-tx_eliminap_1q8uwgqlfbevg-fill" data-item-order="0" transform="translate(464, 296)"><g id="tx_eliminap_1q8uwgqlfbevg-fill-merged" stroke="none" fill="#f4f4f4" fill-opacity="1"><g><text style="font: 20px Roboto, sans-serif; white-space: pre;" font-size="20px" font-family="Roboto, sans-serif"><tspan x="12" y="33.59" dominant-baseline="ideographic">Elimina percorsi deboli per </tspan><tspan x="12" y="57.59" dominant-baseline="ideographic">concentrarsi sulle migliori </tspan><tspan x="12" y="81.59" dominant-baseline="ideographic">soluzioni.</tspan></text></g></g></g><g id="g-root-ic_cros_18jgb8alfbg8z-fill" data-item-order="0" transform="translate(416, 362)"></g><g id="g-root-tx_applicaa_hu1e56lfbf2j-fill" data-item-order="0" transform="translate(464, 368)"><g id="tx_applicaa_hu1e56lfbf2j-fill-merged" stroke="none" fill="#f79438" fill-opacity="1"><g><text style="font: bold 20px Roboto, sans-serif; white-space: pre;" font-weight="bold" font-size="20px" font-family="Roboto, sans-serif"><tspan x="12" y="33.59" dominant-baseline="ideographic">Applica algoritmo di ricerca</tspan></text></g></g></g><g id="g-root-tx_utilizza_1lr5z2ylfbgne-fill" data-item-order="0" transform="translate(464, 404)"><g id="tx_utilizza_1lr5z2ylfbgne-fill-merged" stroke="none" fill="#f4f4f4" fill-opacity="1"><g><text style="font: 20px Roboto, sans-serif; white-space: pre;" font-size="20px" font-family="Roboto, sans-serif"><tspan x="12" y="33.59" dominant-baseline="ideographic">Utilizza metodi sistematici per </tspan><tspan x="12" y="57.59" dominant-baseline="ideographic">trovare la soluzione ottimale.</tspan></text></g></g></g><g id="g-root-tf_mcz9p6lf8n48-stroke" data-item-order="-601290"></g><g id="g-root-sy_4_line_dccgrelfbgud-stroke" data-item-order="-58275" transform="translate(296, 217.99993896484375)"><g id="sy_4_line_dccgrelfbgud-stroke" fill="none" stroke-linecap="round" stroke-linejoin="round" stroke-miterlimit="4" stroke="#f79438" stroke-width="2" stroke-opacity="1"><g><path d="M 116 172L 57.95 172C 44.7 172 33.95 161.25 33.95 148L 33.95 33.95C 33.95 20.72 23.23 10 10 10"></path><path d="M 110 178.5L 116.5 172L 110 165.5" stroke-dasharray="none"></path></g></g></g><g id="g-root-sy_3_line_4hbxlmlfbeha-stroke" data-item-order="-58269" transform="translate(296, 217.99993896484375)"><g id="sy_3_line_4hbxlmlfbeha-stroke" fill="none" stroke-linecap="round" stroke-linejoin="round" stroke-miterlimit="4" stroke="#fb6762" stroke-width="2" stroke-opacity="1"><g><path d="M 116 64L 57.95 64C 44.7 64 33.95 53.25 33.95 40L 33.95 33.95C 33.95 20.72 23.23 10 10 10"></path><path d="M 110 70.5L 116.5 64L 110 57.5" stroke-dasharray="none"></path></g></g></g><g id="g-root-sy_1_line_1ifh6lfbf9j-stroke" data-item-order="-58263" transform="translate(296, 55.99993896484375)"><g id="sy_1_line_1ifh6lfbf9j-stroke" fill="none" stroke-linecap="round" stroke-linejoin="round" stroke-miterlimit="4" stroke="#43dd93" stroke-width="2" stroke-opacity="1"><g><path d="M 116 10L 57.95 10C 44.7 10 33.95 20.75 33.95 34L 33.95 148.05C 33.95 161.28 23.23 172 10 172"></path><path d="M 110 16.5L 116.5 10L 110 3.5" stroke-dasharray="none"></path></g></g></g><g id="g-root-sy_2_line_1ifh6lfbf9k-stroke" data-item-order="-58257" transform="translate(296.00244140625, 163.99993896484375)"><g id="sy_2_line_1ifh6lfbf9k-stroke" fill="none" stroke-linecap="round" stroke-linejoin="round" stroke-miterlimit="4" stroke="#4f91fc" stroke-width="2" stroke-opacity="1"><g><path d="M 116 10L 57.95 10C 44.7 10 33.95 20.75 33.95 34L 33.95 40.05C 33.95 53.28 23.23 64 10 64"></path><path d="M 110 16.5L 116.5 10L 110 3.5" stroke-dasharray="none"></path></g></g></g><g id="g-root-sy_0_cu_1umszbulfbfup-stroke" data-item-order="-58253" transform="translate(224, 217.99993896484375)"><g id="sy_0_cu_1umszbulfbfup-stroke" fill="none" stroke-linecap="round" stroke-linejoin="round" stroke-miterlimit="4" stroke="#f4f4f4" stroke-width="2" stroke-opacity="1"><g><path d="M 82 10L 10 10"></path></g></g></g><g id="g-root-ic_3_v491i2lf083y-stroke" data-item-order="0" transform="translate(416, 38)"><g id="ic_3_v491i2lf083y-stroke" fill="none" stroke-linecap="round" stroke-linejoin="round" stroke-miterlimit="4" stroke="#f4f4f4" stroke-width="2" stroke-opacity="1"><g><path d="M 25.375 17.5L 11.875 17.5C 11.425 17.5 11.125 17.200001 11.125 16.75L 11.125 12.25C 11.125 11.8 11.425 11.5 11.875 11.5L 25.375 11.5C 25.825001 11.5 26.125 11.8 26.125 12.25L 26.125 16.75C 26.125 17.049999 25.825001 17.5 25.375 17.5ZM 44.125 44.5L 30.625 44.5C 30.174999 44.5 29.875 44.199997 29.875 43.75L 29.875 39.25C 29.875 38.800003 30.174999 38.5 30.625 38.5L 44.125 38.5C 44.574997 38.5 44.875 38.800003 44.875 39.25L 44.875 43.75C 44.875 44.050003 44.574997 44.5 44.125 44.5ZM 44.125 27.25L 36.625 27.25C 36.175003 27.25 35.875 26.950001 35.875 26.5L 35.875 22C 35.875 21.549999 36.175003 21.25 36.625 21.25L 44.125 21.25C 44.574997 21.25 44.875 21.549999 44.875 22L 44.875 26.5C 44.875 26.799999 44.574997 27.25 44.125 27.25ZM 21.625 31L 14.125 31C 13.675 31 13.375 30.700001 13.375 30.25L 13.375 25.75C 13.375 25.299999 13.675 25 14.125 25L 21.625 25C 22.075001 25 22.375 25.299999 22.375 25.75L 22.375 30.25C 22.375 30.549999 22.075001 31 21.625 31ZM 26.125 14.5L 30.625 14.5C 31.075001 14.5 31.375 14.8 31.375 15.25L 31.375 23.5C 31.375 23.950001 31.674999 24.25 32.125 24.25L 35.875 24.25M 29.875 41.5L 26.875 41.5C 26.424999 41.5 26.125 41.199997 26.125 40.75L 26.125 28.75C 26.125 28.299999 25.825001 28 25.375 28L 22.375 28"></path></g></g></g><g id="g-root-tx_generape_1qa3umylfbh1l-stroke" data-item-order="0" transform="translate(464, 44)"></g><g id="g-root-tx_creaperc_4kgb16lfbfns-stroke" data-item-order="0" transform="translate(464, 80)"></g><g id="g-root-ic_stra_1lza57elfjv29-stroke" data-item-order="0" transform="translate(80, 140)"><g id="ic_stra_1lza57elfjv29-stroke" fill="none" stroke-linecap="round" stroke-linejoin="round" stroke-miterlimit="4" stroke="#f4f4f4" stroke-width="2" stroke-opacity="1"><g><path d="M 12.5 60C 12.5 64.142136 15.857864 67.5 20 67.5C 24.142136 67.5 27.5 64.142136 27.5 60C 27.5 55.857868 24.142136 52.5 20 52.5C 15.857864 52.5 12.5 55.857868 12.5 60M 32.5 52.5L 47.5 52.5L 47.5 67.5L 32.5 67.5ZM 60 52.5L 52.5 67.5L 67.5 67.5L 60 52.5ZM 43.75 40L 36.25 40M 47.5 26.25C 47.382439 22.157547 44.092449 18.867558 39.999996 18.75C 35.907547 18.867558 32.617558 22.157547 32.499996 26.249998C 32.556248 28.850052 33.982307 31.226816 36.25 32.5L 36.25 35L 43.75 35L 43.75 32.5C 46.017693 31.226816 47.443752 28.850052 47.5 26.25ZM 20 52.5L 20 46.25C 20 45.559647 20.559643 45 21.25 45L 58.75 45C 59.440353 45 60 45.559647 60 46.25L 60 52.5M 40 40L 40 52.5M 40 12.5L 40 15M 49.725002 16.525L 47.950001 18.299999M 53.75 25L 51.25 25M 30.275 16.525L 32.049999 18.299999M 26.25 25L 28.75 25"></path></g></g></g><g id="g-root-ic_1_1qbcst6lfjw9b-stroke" data-item-order="0" transform="translate(416, 146)"><g id="ic_1_1qbcst6lfjw9b-stroke" fill="none" stroke-linecap="round" stroke-linejoin="round" stroke-miterlimit="4" stroke="#f4f4f4" stroke-width="2" stroke-opacity="1"><g><path d="M 23.546501 32.453499C 20.62187 35.37999 15.878131 35.37999 12.9535 32.453499L 11.5 31L 25 31ZM 43.046501 32.453499C 40.121872 35.37999 35.378132 35.37999 32.453499 32.453499L 31 31L 44.5 31ZM 18.25 34.647999C 18.203541 36.461605 19.390018 38.076897 21.134501 38.574997L 23.848 39.350498M 37.75 34.647999C 37.796642 36.461182 36.610886 38.076332 34.866997 38.574997L 32.1535 39.350498M 14.875 14.8735C 14.875 16.737461 16.38604 18.248501 18.25 18.248501C 20.11396 18.248501 21.625 16.737461 21.625 14.8735C 21.625 13.009539 20.11396 11.4985 18.25 11.4985C 16.38604 11.4985 14.875 13.009539 14.875 14.8735ZM 18.25 19.75C 13.75 19.75 13.75 23.2645 13.75 25.75L 13.75 25.75L 16 25.75L 16.75 31L 19.75 31L 20.5 25.75L 22.75 25.75L 22.75 25.75C 22.75 23.261499 22.75 19.75 18.25 19.75ZM 34.1185 43.3615L 34.1395 43.400501C 34.262016 43.633125 34.25378 43.912918 34.11779 44.137932C 33.9818 44.362946 33.737915 44.50032 33.474998 44.5L 22.525002 44.5C 22.261641 44.500599 22.017265 44.363022 21.881182 44.137547C 21.745098 43.912067 21.737247 43.631737 21.8605 43.399002L 21.8815 43.360001L 24.589001 37.84C 24.841805 37.325497 25.365746 37.000072 25.939001 37.001499L 30.07 37.001499C 30.643255 37.000072 31.167194 37.325497 31.42 37.84ZM 41.5 16L 38.949997 16C 38.086174 15.994368 37.321594 16.557743 37.071079 17.384466C 36.820568 18.211189 37.143837 19.104202 37.865501 19.578999L 40.6255 21.4195C 41.347179 21.892893 41.671806 22.784382 41.423515 23.610983C 41.175224 24.437586 40.413082 25.002632 39.549999 25L 37 25M 40 16.001499L 40 14.5015M 38.5 26.501501L 38.5 25.001501"></path></g></g></g><g id="g-root-tx_valutape_hvacbelfbh8n-stroke" data-item-order="0" transform="translate(464, 152)"></g><g id="g-root-tx_assegnav_v6quoqlfbfnq-stroke" data-item-order="0" transform="translate(464, 188)"></g><g id="g-root-tx_comeimpl_1luwtlmlfbeo2-stroke" data-item-order="0" transform="translate(14, 212)"></g><g id="g-root-ic_1_8wiymylfjuo4-stroke" data-item-order="0" transform="translate(416, 254)"><g id="ic_1_8wiymylfjuo4-stroke" fill="none" stroke-linecap="round" stroke-linejoin="round" stroke-miterlimit="4" stroke="#f4f4f4" stroke-width="2" stroke-opacity="1"><g><path d="M 18.25 32.5C 18.592733 34.75322 17.062941 36.864197 14.815001 37.239998C 12.535467 37.174625 10.73125 35.290222 10.765 33.010002C 10.421205 30.750175 11.94775 28.630344 14.2 28.24C 16.487844 28.31345 18.2922 30.211365 18.25 32.5ZM 23.965 37.389999C 21.668447 37.37307 19.784151 39.203911 19.735001 41.5C 20.110664 43.754707 22.231438 45.286751 24.49 44.935001C 26.770222 44.96875 28.654625 43.164536 28.720001 40.885002C 28.358341 38.615158 26.239317 37.05764 23.965 37.389999ZM 17.139999 36.025002L 24.895 27.130001C 25.131683 26.85062 25.404007 26.60351 25.704998 26.394999L 30.414999 23.17C 30.414999 23.17 37.014999 14.17 45.25 15.67M 20.619999 38.965L 28 30.460001C 28.465826 29.936161 28.800064 29.308823 28.975 28.630001L 30.385 23.17C 30.385 23.17 36.25 10.39 45.25 11.14"></path></g></g></g><g id="g-root-tx_scartape_18hkvyylfbh8l-stroke" data-item-order="0" transform="translate(464, 260)"></g><g id="g-root-tx_eliminap_1q8uwgqlfbevg-stroke" data-item-order="0" transform="translate(464, 296)"></g><g id="g-root-ic_cros_18jgb8alfbg8z-stroke" data-item-order="0" transform="translate(416, 362)"><g id="ic_cros_18jgb8alfbg8z-stroke" fill="none" stroke-linecap="round" stroke-linejoin="round" stroke-miterlimit="4" stroke="#f4f4f4" stroke-width="2" stroke-opacity="1"><g><path d="M 18.253 10.7935L 25.753 10.7935L 25.753 18.293499L 18.253 18.293499ZM 18.253 18.293499L 25.753 18.293499L 25.753 25.793499L 18.253 25.793499ZM 25.753 25.793501L 25.753 18.293499L 33.252998 18.293499L 33.252998 24.293501M 10.753 18.293499L 18.253 18.293499L 18.253 25.793499L 10.753 25.793499ZM 33.252998 24.293501L 33.252998 18.293499L 40.753002 18.293499L 40.753002 25.793501L 39.331001 25.793501M 18.253 33.293499L 18.253 25.793501L 25.753 25.793501L 28.806999 25.793501M 24.253 33.293499L 18.253 33.293499L 18.253 40.793499L 25.753 40.793499L 25.753 39.365501M 27.247 34.618C 27.247 38.711258 30.565243 42.029503 34.658501 42.029503C 38.751759 42.029503 42.07 38.711258 42.07 34.618C 42.07 30.524742 38.751759 27.206499 34.658501 27.206499C 30.565243 27.206499 27.247 30.524742 27.247 34.618M 45.246998 45.206501L 39.899502 39.859001M 25.753 25.793501L 25.753 28.674999"></path></g></g></g><g id="g-root-tx_applicaa_hu1e56lfbf2j-stroke" data-item-order="0" transform="translate(464, 368)"></g><g id="g-root-tx_utilizza_1lr5z2ylfbgne-stroke" data-item-order="0" transform="translate(464, 404)"></g></g></g></svg>