<?xml version="1.0" encoding="utf-8" standalone="yes"?>
<!DOCTYPE svg PUBLIC "-//W3C//DTD SVG 1.1//EN" "http://www.w3.org/Graphics/SVG/1.1/DTD/svg11.dtd">
<svg style="fill:none;stroke:none;fill-rule:evenodd;clip-rule:evenodd;stroke-linecap:round;stroke-linejoin:round;stroke-miterlimit:1.5;" version="1.1" xmlns="http://www.w3.org/2000/svg" xmlns:xlink="http://www.w3.org/1999/xlink" width="924" height="738" viewBox="0 0 924 738"><style class="text-font-style fontImports" data-font-family="Roboto">@import url(https://fonts.googleapis.com/css2?family=Roboto:wght@400;700&amp;amp;display=block);</style><rect id="" x="0" y="0" width="924" height="738" style="fill: #ffffff;"></rect><g id="items" style="isolation: isolate"><g id="blend" style="mix-blend-mode: normal"><g id="g-root-tf_qqwnct5wasjq-fill" data-item-order="-1022868"><g id="tf_qqwnct5wasjq-fill-merged" stroke="none" fill="#ffffff" fill-opacity="1"><g><path d="M0 0 H924 V738 H0 V0"></path></g></g></g><g id="g-root-cp_5_text-5_142zmt95wgff0-fill" data-item-order="-562376" transform="translate(128, 145.375)"><g id="cp_5_text-5_142zmt95wgff0-fill-merged" stroke="none" fill="#7f64ea" fill-opacity="1"><g><path d="M262 52C262 55.314 259.314 58 256 58 H16C12.686 58 10 55.314 10 52 V16C10 12.686 12.686 10 16 10 H256C259.314 10 262 12.686 262 16 V52"></path></g></g></g><g id="g-root-cp_1_text-1_dgp35p5wgff1-fill" data-item-order="-562306" transform="translate(524, 121.375)"><g id="cp_1_text-1_dgp35p5wgff1-fill-merged" stroke="none" fill="#de8431" fill-opacity="1"><g><path d="M202 76C202 79.314 199.314 82 196 82 H16C12.686 82 10 79.314 10 76 V16C10 12.686 12.686 10 16 10 H196C199.314 10 202 12.686 202 16 V76"></path></g></g></g><g id="g-root-cp_4_text-4_1ur5lq55wgefa-fill" data-item-order="-562234" transform="translate(122, 337.375)"><g id="cp_4_text-4_1ur5lq55wgefa-fill-merged" stroke="none" fill="#ba5de5" fill-opacity="1"><g><path d="M178 52C178 55.314 175.314 58 172 58 H16C12.686 58 10 55.314 10 52 V16C10 12.686 12.686 10 16 10 H172C175.314 10 178 12.686 178 16 V52"></path></g></g></g><g id="g-root-cp_-1_parent-5-part_18k233x5wggsv-fill" data-item-order="-562168" transform="translate(338, 295.375)"><g id="cp_-1_parent-5-part_18k233x5wggsv-fill-merged" stroke="none" fill="#969696" fill-opacity="1"><g><path d="M238 214C238 217.314 235.314 220 232 220 H16C12.686 220 10 217.314 10 214 V16C10 12.686 12.686 10 16 10 H232C235.314 10 238 12.686 238 16 V214"></path></g></g></g><g id="g-root-cp_2_text-2_zp1jy55wgf7k-fill" data-item-order="-562104" transform="translate(614, 325.375)"><g id="cp_2_text-2_zp1jy55wgf7k-fill-merged" stroke="none" fill="#e55753" fill-opacity="1"><g><path d="M214 76C214 79.314 211.314 82 208 82 H16C12.686 82 10 79.314 10 76 V16C10 12.686 12.686 10 16 10 H208C211.314 10 214 12.686 214 16 V76"></path></g></g></g><g id="g-root-cp_3_text-3_qtejp95wgg09-fill" data-item-order="-562032" transform="translate(326, 529.375)"><g id="cp_3_text-3_qtejp95wgg09-fill-merged" stroke="none" fill="#de58a9" fill-opacity="1"><g><path d="M262 52C262 55.314 259.314 58 256 58 H16C12.686 58 10 55.314 10 52 V16C10 12.686 12.686 10 16 10 H256C259.314 10 262 12.686 262 16 V52"></path></g></g></g><g id="g-root-he_dikif15wgeff-fill" data-item-order="-561965" transform="translate(500, 148.375)"></g><g id="g-root-he_dikif15wgefh-fill" data-item-order="-561963" transform="translate(536, 193.375)"></g><g id="g-root-he_92r0al5wgf7r-fill" data-item-order="-561961" transform="translate(566, 352.375)"></g><g id="g-root-he_92r0al5wgf7t-fill" data-item-order="-561959" transform="translate(626, 397.375)"></g><g id="g-root-he_92r0al5wgf7v-fill" data-item-order="-561957" transform="translate(452, 505.375)"></g><g id="g-root-he_4mxi655wgg05-fill" data-item-order="-561955" transform="translate(338, 577.375)"></g><g id="g-root-he_4mxi655wgg07-fill" data-item-order="-561953" transform="translate(290, 364.375)"></g><g id="g-root-he_7401p5wggsh-fill" data-item-order="-561951" transform="translate(266, 385.375)"></g><g id="g-root-he_1qd7iv15wge8b-fill" data-item-order="-561949" transform="translate(380, 172.375)"></g><g id="g-root-he_1qd7iv15wge8d-fill" data-item-order="-561947" transform="translate(356, 193.375)"></g><g id="g-root-ic_myth_1cy094t5wrnrj-fill" data-item-order="-5184" transform="translate(416, 313.375)"><g id="ic_myth_1cy094t5wrnrj-fill-merged" stroke="none" fill="#ffffff" fill-opacity="1"><g><path d="M55 31.84C51.967 28.6 51.262 23.818 53.23 19.84C53.833 18.79 55.159 18.406 56.23 18.97C57.293 19.562 57.682 20.901 57.1 21.97C55.938 24.522 56.611 27.536 58.75 29.35C63.43 33.46 71.5 28.84 71.05 21.49C71.235 15.325 66.385 10.18 60.22 10 H21.1C14.997 10.147 10.166 15.207 10.3 21.31 V21.55C10 29.08 18.04 33.31 22.6 29.32C24.562 27.636 25.309 24.932 24.49 22.48C24.114 21.72 24.197 20.812 24.706 20.133C25.214 19.454 26.061 19.119 26.897 19.266C27.733 19.413 28.414 20.018 28.66 20.83C30.022 24.632 29.154 28.877 26.41 31.84 H55 M38.56 75.49 V53.14C38.59 51.166 39.422 49.289 40.866 47.942C42.309 46.595 44.239 45.894 46.21 46 V36.31 H34.21 V82 H42.61C40.121 80.789 38.546 78.258 38.56 75.49 M29.83 36.31 H24.07 V80.5C24.07 81.328 24.742 82 25.57 82 H29.83 V36.31 M50.68 36.31 V46.36C52.901 46.687 55.096 47.168 57.25 47.8 V36.31 H50.68 M78.76 50.44C73.067 50.658 67.484 52.079 62.38 54.61C57.276 52.079 51.693 50.658 46 50.44C45.237 50.391 44.486 50.654 43.921 51.168C43.355 51.683 43.023 52.406 43 53.17 V75.49C43.032 76.984 44.236 78.188 45.73 78.22C46.24 78.22 46.63 78.04 48.73 78.04C52.837 78.045 56.853 79.255 60.28 81.52C60.964 81.756 61.687 81.858 62.41 81.82C63.173 81.874 63.938 81.772 64.66 81.52C68.02 79.28 71.962 78.071 76 78.04C76.932 78.052 77.864 78.112 78.79 78.22C80.313 78.221 81.561 77.012 81.61 75.49 V53.17C81.577 51.629 80.301 50.407 78.76 50.44 M47.32 73.81 V54.82C51.764 55.165 56.106 56.325 60.13 58.24 V76.57C56.188 74.509 51.761 73.555 47.32 73.81 M64.63 58.24C68.654 56.325 72.996 55.165 77.44 54.82 V73.81C72.999 73.559 68.573 74.513 64.63 76.57 V58.24 M50.56 61.9C52.568 61.923 54.538 62.449 56.29 63.43C56.512 63.546 56.759 63.608 57.01 63.61C57.693 63.6 58.283 63.13 58.445 62.467C58.607 61.803 58.301 61.114 57.7 60.79C55.515 59.575 53.06 58.925 50.56 58.9C49.732 58.9 49.06 59.572 49.06 60.4C49.06 61.228 49.732 61.9 50.56 61.9 M56.29 70.48C57.021 70.862 57.923 70.597 58.33 69.88C58.518 69.531 58.558 69.121 58.439 68.742C58.321 68.364 58.054 68.049 57.7 67.87C55.515 66.655 53.06 66.005 50.56 65.98C49.732 65.98 49.06 66.652 49.06 67.48C49.06 68.308 49.732 68.98 50.56 68.98C52.564 69.007 54.53 69.522 56.29 70.48 M74.26 58.9C71.751 58.931 69.288 59.58 67.09 60.79C66.484 61.117 66.179 61.814 66.349 62.481C66.519 63.148 67.122 63.613 67.81 63.61C68.052 63.611 68.29 63.549 68.5 63.43C70.261 62.444 72.242 61.918 74.26 61.9C75.088 61.9 75.76 61.228 75.76 60.4C75.76 59.572 75.088 58.9 74.26 58.9 M74.26 65.98C71.751 66.011 69.288 66.66 67.09 67.87C66.516 68.21 66.235 68.889 66.402 69.535C66.569 70.182 67.143 70.64 67.81 70.66C68.052 70.661 68.29 70.599 68.5 70.48C70.268 69.511 72.244 68.986 74.26 68.95C75.088 68.95 75.76 68.278 75.76 67.45C75.76 66.622 75.088 65.95 74.26 65.95"></path></g></g></g><g id="g-root-ic_elec_hv9tfh5w9erz-fill" data-item-order="-900" transform="translate(338, 538.375)"><g id="ic_elec_hv9tfh5w9erz-fill-merged" stroke="none" fill="#ffffff" fill-opacity="1"><g><path d="M10 36.875C10.007 37.39 10.423 37.806 10.938 37.813 H12.813C13.33 37.813 13.75 37.393 13.75 36.875C13.75 36.357 13.33 35.938 12.813 35.938 H12.5C12.155 35.938 11.875 35.658 11.875 35.313 V25.938C11.875 25.592 12.155 25.313 12.5 25.313 H17.5C18.018 25.313 18.438 24.893 18.438 24.375C18.438 23.857 18.018 23.438 17.5 23.438 H10.938C10.423 23.444 10.007 23.86 10 24.375 V36.875 M40 24.375C39.993 23.86 39.577 23.444 39.063 23.438 H31.737C31.22 23.438 30.8 23.857 30.8 24.375C30.8 24.893 31.22 25.313 31.738 25.313 H37.5C37.845 25.313 38.125 25.592 38.125 25.938 V35.313C38.125 35.658 37.845 35.938 37.5 35.938 H37.188C36.67 35.938 36.25 36.357 36.25 36.875C36.25 37.393 36.67 37.813 37.188 37.813 H39.063C39.577 37.806 39.993 37.39 40 36.875 V24.375 M31.563 33.125 H21.563C21.217 33.125 20.938 33.405 20.938 33.75 V34.375C20.938 34.72 20.658 35 20.313 35 H19.063C18.717 35 18.438 35.28 18.438 35.625 V37.5C18.438 37.845 18.717 38.125 19.063 38.125 H20.313C20.658 38.125 20.938 38.405 20.938 38.75 V39.375C20.938 39.72 21.217 40 21.563 40 H31.563C31.908 40 32.188 39.72 32.188 39.375 V33.75C32.188 33.405 31.908 33.125 31.563 33.125 M18.75 31.563C19.268 31.563 19.688 31.143 19.688 30.625C19.688 30.107 19.268 29.688 18.75 29.688 H18.438C18.092 29.688 17.813 29.408 17.813 29.063 V28.75C17.813 28.232 17.393 27.813 16.875 27.813C16.357 27.813 15.938 28.232 15.938 28.75 V29.063C15.938 29.408 15.658 29.688 15.313 29.688 H15C14.482 29.688 14.063 30.107 14.063 30.625C14.063 31.143 14.482 31.563 15 31.563 H15.313C15.658 31.563 15.938 31.842 15.938 32.188 V32.5C15.938 33.018 16.357 33.438 16.875 33.438C17.393 33.438 17.813 33.018 17.813 32.5 V32.188C17.813 31.842 18.092 31.563 18.438 31.563 H18.75 M35 29.688 H31.25C30.732 29.688 30.313 30.107 30.313 30.625C30.313 31.143 30.732 31.563 31.25 31.563 H35C35.518 31.563 35.938 31.143 35.938 30.625C35.938 30.107 35.518 29.688 35 29.688 M22.125 24.425C22.349 24.53 22.495 24.753 22.5 25C22.507 25.871 22.985 26.67 23.75 27.087C23.951 27.197 24.076 27.408 24.075 27.637 V28.15C24.075 28.668 24.495 29.088 25.013 29.088C25.53 29.088 25.95 28.668 25.95 28.15 V27.637C25.949 27.408 26.074 27.197 26.275 27.087C27.03 26.664 27.498 25.866 27.5 25C27.517 24.759 27.666 24.547 27.887 24.45C31.191 23.079 33.067 19.565 32.368 16.057C31.669 12.549 28.59 10.023 25.013 10.023C21.435 10.023 18.356 12.549 17.657 16.057C16.958 19.565 18.834 23.079 22.138 24.45 M25 12.5C27.416 12.493 29.492 14.215 29.931 16.592C30.37 18.968 29.047 21.318 26.788 22.175C26.606 22.228 26.41 22.201 26.25 22.1C26.078 21.986 25.975 21.794 25.975 21.588 V20C25.975 19.831 26.043 19.669 26.162 19.55L27.5 18.163C27.735 17.8 27.692 17.324 27.395 17.009C27.099 16.695 26.626 16.624 26.25 16.837L25.475 17.612C25.229 17.844 24.846 17.844 24.6 17.612L23.75 16.837C23.374 16.624 22.901 16.695 22.605 17.009C22.308 17.324 22.265 17.8 22.5 18.163L23.875 19.575C23.995 19.694 24.062 19.856 24.063 20.025 V21.588C24.063 21.794 23.96 21.986 23.788 22.1C23.618 22.212 23.406 22.24 23.212 22.175C20.953 21.318 19.63 18.968 20.069 16.592C20.508 14.215 22.584 12.493 25 12.5"></path></g></g></g><g id="g-root-ic_1_1lymywt5wgh6o-fill" data-item-order="-900" transform="translate(338, 154.375)"><g id="ic_1_1lymywt5wgh6o-fill-merged" stroke="none" fill="#ffffff" fill-opacity="1"><g><path d="M25.654 10.75C25.929 10.311 26.508 10.179 26.946 10.454L29.946 12.335C30.385 12.61 30.519 13.188 30.244 13.628L29.335 15.076L29.456 15.151C29.738 15.327 29.937 15.608 30.012 15.932C30.086 16.255 30.028 16.595 29.851 16.876L25.186 24.318L18.111 19.95C18.091 19.938 18.07 19.926 18.049 19.915C18.055 19.904 18.061 19.894 18.067 19.884L22.746 12.421C23.113 11.837 23.884 11.66 24.469 12.026L24.745 12.199L25.654 10.749 M18.629 23.208L22.104 25.352L21.11 26.936C20.835 27.375 20.256 27.508 19.818 27.233L17.946 26.06C17.507 25.785 17.375 25.206 17.65 24.767L18.629 23.208 M36.949 40C36.981 40 37.014 40 37.045 39.996C37.697 39.947 38.2 39.403 38.2 38.75 V33.417C38.2 32.727 37.64 32.167 36.95 32.167 H32.02C30.639 32.167 29.52 33.287 29.52 34.667 V35.976 H16.406C15.026 35.976 13.906 37.096 13.906 38.476 V38.751C13.906 39.442 14.466 40.001 15.156 40.001 H36.95 M27.693 23.85L30.875 18.774C33.186 20.681 34.523 23.521 34.52 26.518C34.521 27.812 34.272 29.094 33.785 30.294 H32.018C29.957 30.294 28.175 31.732 27.74 33.746 H13.409C12.718 33.746 12.159 33.187 12.159 32.496C12.159 31.806 12.718 31.246 13.409 31.246 H25.384C26.267 31.131 27.063 30.552 27.679 29.709C28.37 28.763 28.756 27.587 28.756 26.684C28.756 25.79 28.374 24.74 27.74 23.914C27.724 23.893 27.708 23.872 27.693 23.851"></path></g></g></g><g id="g-root-ic_3_13z8vgd5wqarq-fill" data-item-order="-900" transform="translate(536, 142.375)"><g id="ic_3_13z8vgd5wqarq-fill-merged" stroke="none" fill="#ffffff" fill-opacity="1"><g><path d="M40 23.675C40.005 23.039 39.531 22.501 38.9 22.425L36.737 22.15C36.613 22.135 36.509 22.046 36.475 21.925C36.183 20.917 35.763 19.951 35.225 19.05C35.157 18.943 35.157 18.807 35.225 18.7L36.575 16.975C36.966 16.473 36.918 15.757 36.463 15.313L34.675 13.462C34.229 13.018 33.522 12.976 33.025 13.363L31.25 14.7C31.143 14.768 31.007 14.768 30.9 14.7C30.001 14.158 29.034 13.738 28.025 13.45C27.9 13.422 27.808 13.315 27.8 13.188L27.563 11.1C27.486 10.469 26.948 9.995 26.313 10 H23.675C23.039 9.995 22.501 10.469 22.425 11.1L22.162 13.262C22.154 13.39 22.063 13.497 21.938 13.525C20.928 13.813 19.961 14.233 19.063 14.775C18.956 14.843 18.819 14.843 18.712 14.775L16.975 13.35C16.475 12.966 15.768 13.015 15.325 13.462L13.462 15.325C13.007 15.77 12.959 16.485 13.35 16.987L14.7 18.75C14.768 18.857 14.768 18.993 14.7 19.1C14.162 20.001 13.742 20.967 13.45 21.975C13.416 22.096 13.312 22.185 13.188 22.2L11.1 22.5C10.469 22.576 9.995 23.114 10 23.75 V26.4C9.995 27.036 10.469 27.574 11.1 27.65L13.262 27.925C13.387 27.94 13.491 28.029 13.525 28.15C13.813 29.159 14.233 30.126 14.775 31.025C14.843 31.132 14.843 31.268 14.775 31.375L13.35 33.025C12.966 33.525 13.015 34.232 13.462 34.675L15.325 36.537C15.768 36.985 16.475 37.034 16.975 36.65L18.75 35.3C18.857 35.232 18.993 35.232 19.1 35.3C19.996 35.847 20.964 36.268 21.975 36.55C22.096 36.584 22.185 36.688 22.2 36.813L22.5 38.912C22.582 39.539 23.118 40.005 23.75 40 H26.4C27.032 40.005 27.568 39.539 27.65 38.912L27.925 36.737C27.94 36.613 28.029 36.509 28.15 36.475C29.161 36.193 30.129 35.772 31.025 35.225C31.132 35.157 31.268 35.157 31.375 35.225L33.112 36.575C33.612 36.959 34.319 36.91 34.763 36.463L36.625 34.6C37.073 34.157 37.121 33.45 36.737 32.95L35.3 31.25C35.232 31.143 35.232 31.007 35.3 30.9C35.842 30.001 36.262 29.034 36.55 28.025C36.584 27.904 36.688 27.815 36.813 27.8L38.975 27.525C39.606 27.449 40.08 26.911 40.075 26.275L40 23.675 M23.75 22.3C23.751 22.408 23.694 22.508 23.6 22.563C22.725 23.062 22.186 23.993 22.188 25 V25.4C22.209 25.51 22.165 25.622 22.075 25.688L18.75 28.35C18.678 28.413 18.58 28.437 18.487 28.412C18.393 28.392 18.313 28.327 18.275 28.237C17.773 27.232 17.508 26.124 17.5 25C17.499 21.483 19.941 18.437 23.375 17.675C23.467 17.664 23.56 17.686 23.638 17.737C23.712 17.799 23.753 17.891 23.75 17.987 V22.3 M23.65 27.663C23.743 27.609 23.857 27.609 23.95 27.662C24.625 27.929 25.375 27.929 26.05 27.662C26.143 27.609 26.257 27.609 26.35 27.662L29.737 30.313C29.815 30.373 29.861 30.465 29.862 30.562C29.865 30.655 29.824 30.744 29.75 30.8C26.987 33.061 23.013 33.061 20.25 30.8C20.176 30.744 20.135 30.655 20.137 30.563C20.139 30.465 20.185 30.373 20.262 30.312L23.65 27.663 M27.9 25.688C27.81 25.622 27.766 25.51 27.787 25.4 V25C27.789 23.993 27.25 23.062 26.375 22.563C26.291 22.502 26.244 22.403 26.25 22.3 V17.987C26.247 17.891 26.288 17.799 26.362 17.737C26.44 17.686 26.533 17.664 26.625 17.675C30.059 18.437 32.501 21.483 32.5 25C32.503 26.121 32.251 27.228 31.763 28.237C31.724 28.327 31.645 28.392 31.55 28.412C31.458 28.437 31.359 28.413 31.288 28.35L27.9 25.688"></path></g></g></g><g id="g-root-ic_circ_1ly0kzh5wrpjc-fill" data-item-order="-900" transform="translate(626, 346.375)"><g id="ic_circ_1ly0kzh5wrpjc-fill-merged" stroke="none" fill="#ffffff" fill-opacity="1"><g><path d="M10 25C10 16.716 16.716 10 25 10C33.284 10 40 16.716 40 25C40 33.284 33.284 40 25 40C16.716 40 10 33.284 10 25 M32.225 19.1C32.476 18.866 32.579 18.514 32.494 18.182C32.409 17.85 32.15 17.591 31.818 17.506C31.486 17.421 31.134 17.524 30.9 17.775L17.775 30.9C17.524 31.134 17.421 31.486 17.506 31.818C17.591 32.15 17.85 32.409 18.182 32.494C18.514 32.579 18.866 32.476 19.1 32.225L32.225 19.1"></path></g></g></g><g id="g-root-ic_star_18lxlj15wq8ej-fill" data-item-order="-900" transform="translate(248, 346.375)"><g id="ic_star_18lxlj15wq8ej-fill-merged" stroke="none" fill="#ffffff" fill-opacity="1"><g><path d="M12.025 13.863 V14.887C12.032 15.407 12.455 15.825 12.975 15.825C13.488 15.818 13.9 15.4 13.9 14.887 V13.863 H14.85C15.368 13.863 15.788 13.443 15.788 12.925C15.788 12.407 15.368 11.988 14.85 11.988 H13.9 V11.05C13.9 10.537 13.488 10.119 12.975 10.113C12.455 10.112 12.032 10.53 12.025 11.05 V11.988 H11.1C10.582 11.988 10.163 12.407 10.163 12.925C10.163 13.443 10.582 13.863 11.1 13.863 H12.025 M39.225 35.513C37.844 35.513 36.725 34.393 36.725 33.013C36.725 32.667 36.445 32.388 36.1 32.388C35.755 32.388 35.475 32.667 35.475 33.013C35.475 34.393 34.356 35.513 32.975 35.513C32.63 35.513 32.35 35.792 32.35 36.138C32.35 36.483 32.63 36.763 32.975 36.763C34.356 36.763 35.475 37.882 35.475 39.263C35.475 39.608 35.755 39.888 36.1 39.888C36.442 39.881 36.718 39.605 36.725 39.263C36.725 37.882 37.844 36.763 39.225 36.763C39.567 36.756 39.843 36.48 39.85 36.138C39.85 35.792 39.57 35.513 39.225 35.513 M33.963 22.85C33.926 22.766 33.926 22.671 33.962 22.587C34.861 21.443 35.696 20.249 36.463 19.013C38.625 15.413 39.037 13 37.713 11.675C36.862 10.944 35.69 10.711 34.625 11.063C32.313 11.55 29.4 13.4 26.913 15.288C26.83 15.33 26.732 15.33 26.65 15.288C25.833 15.081 24.993 14.981 24.15 14.988C21.019 14.997 18.074 16.472 16.191 18.974C14.308 21.475 13.705 24.714 14.563 27.725C11.875 31.375 9.137 36.125 11.25 38.2C11.79 38.706 12.511 38.972 13.25 38.938C15.475 38.938 18.638 37.137 21.712 34.838C21.784 34.774 21.883 34.751 21.975 34.775C22.72 34.952 23.484 35.04 24.25 35.037C29.773 35.038 34.25 30.56 34.25 25.038C34.231 24.3 34.135 23.567 33.963 22.85 M15.488 30.775C15.542 30.69 15.636 30.638 15.737 30.637C15.842 30.622 15.946 30.672 16 30.762C16.459 31.398 16.987 31.981 17.575 32.5C17.687 32.595 17.851 32.595 17.962 32.5C20.638 30.581 23.147 28.44 25.462 26.1C27.741 23.837 29.832 21.391 31.712 18.788C31.798 18.672 31.798 18.515 31.712 18.4C31.157 17.764 30.522 17.201 29.825 16.725C29.741 16.667 29.691 16.571 29.691 16.469C29.691 16.367 29.741 16.271 29.825 16.212C31.311 15.139 32.934 14.269 34.65 13.625C34.979 13.501 35.324 13.425 35.675 13.4C35.767 13.396 35.856 13.432 35.919 13.5C35.981 13.567 36.011 13.659 36 13.75C36.1 15.25 33.3 20.587 26.675 27.213C20.05 33.838 14.738 36.55 13.262 36.512C13.108 36.514 12.975 36.403 12.95 36.25C12.97 35.926 13.033 35.607 13.138 35.3C13.706 33.689 14.497 32.166 15.488 30.775"></path></g></g></g><g id="g-root-tx_criterio_de7d4t5w9de4-fill" data-item-order="0" transform="translate(662, 337.375)"><g id="tx_criterio_de7d4t5w9de4-fill-merged" stroke="none" fill="#ffffff" fill-opacity="1"><g><text style="font: bold 20px Roboto, sans-serif; white-space: pre;" font-weight="bold" font-size="20px" font-family="Roboto, sans-serif"><tspan x="12" y="33.84" dominant-baseline="ideographic">Criterio di </tspan><tspan x="12" y="57.85" dominant-baseline="ideographic">Demarcazione</tspan></text></g></g></g><g id="g-root-tx_metafisi_1usen255wq96q-fill" data-item-order="0" transform="translate(134, 349.375)"><g id="tx_metafisi_1usen255wq96q-fill-merged" stroke="none" fill="#ffffff" fill-opacity="1"><g><text style="font: bold 20px Roboto, sans-serif; white-space: pre;" font-weight="bold" font-size="20px" font-family="Roboto, sans-serif"><tspan x="21.32" y="33.85" dominant-baseline="ideographic">Metafisica</tspan></text></g></g></g><g id="g-root-tx_insensat_1uneud95wrn5w-fill" data-item-order="0" transform="translate(158, 397.375)"><g id="tx_insensat_1uneud95wrn5w-fill-merged" stroke="none" fill="#484848" fill-opacity="1"><g><text style="font: bold 20px Roboto, sans-serif; white-space: pre;" font-weight="bold" font-size="20px" font-family="Roboto, sans-serif"><tspan x="16.2" y="33.85" dominant-baseline="ideographic">Insensata</tspan></text></g></g></g><g id="g-root-tx_falsific_dhy4hp5wqa6h-fill" data-item-order="0" transform="translate(560, 241.375)"><g id="tx_falsific_dhy4hp5wqa6h-fill-merged" stroke="none" fill="#484848" fill-opacity="1"><g><text style="font: bold 20px Roboto, sans-serif; white-space: pre;" font-weight="bold" font-size="20px" font-family="Roboto, sans-serif"><tspan x="12" y="33.85" dominant-baseline="ideographic">Falsificazionismo</tspan></text></g></g></g><g id="g-root-tx_veritipo_1lqivy55wq8el-fill" data-item-order="0" transform="translate(200, 241.375)"><g id="tx_veritipo_1lqivy55wq8el-fill-merged" stroke="none" fill="#484848" fill-opacity="1"><g><text style="font: bold 20px Roboto, sans-serif; white-space: pre;" font-weight="bold" font-size="20px" font-family="Roboto, sans-serif"><tspan x="14.36" y="33.85" dominant-baseline="ideographic">Verità Ipotetica</tspan></text></g></g></g><g id="g-root-tx_confront_4j6qt95wrnym-fill" data-item-order="0" transform="translate(350, 397.375)"><g id="tx_confront_4j6qt95wrnym-fill-merged" stroke="none" fill="#ffffff" fill-opacity="1"><g><text style="font: bold 25px Roboto, sans-serif; white-space: pre;" font-weight="bold" font-size="25px" font-family="Roboto, sans-serif"><tspan x="34.99" y="43" dominant-baseline="ideographic">Confronto tra </tspan><tspan x="14.31" y="73" dominant-baseline="ideographic">Circolo di Vienna </tspan><tspan x="33.77" y="103" dominant-baseline="ideographic">e Karl Popper</tspan></text></g></g></g><g id="g-root-tx_verifica_1czvoe55wq9ds-fill" data-item-order="0" transform="translate(560, 205.375)"><g id="tx_verifica_1czvoe55wq9ds-fill-merged" stroke="none" fill="#484848" fill-opacity="1"><g><text style="font: bold 20px Roboto, sans-serif; white-space: pre;" font-weight="bold" font-size="20px" font-family="Roboto, sans-serif"><tspan x="12" y="33.85" dominant-baseline="ideographic">Verificazionismo</tspan></text></g></g></g><g id="g-root-tx_signific_1lseed95w9gct-fill" data-item-order="0" transform="translate(650, 409.375)"><g id="tx_signific_1lseed95w9gct-fill-merged" stroke="none" fill="#484848" fill-opacity="1"><g><text style="font: bold 20px Roboto, sans-serif; white-space: pre;" font-weight="bold" font-size="20px" font-family="Roboto, sans-serif"><tspan x="12" y="33.85" dominant-baseline="ideographic">Significanza</tspan></text></g></g></g><g id="g-root-tx_signific_v5hagt5wrnyl-fill" data-item-order="0" transform="translate(134, 433.375)"><g id="tx_signific_v5hagt5wrnyl-fill-merged" stroke="none" fill="#484848" fill-opacity="1"><g><text style="font: bold 20px Roboto, sans-serif; white-space: pre;" font-weight="bold" font-size="20px" font-family="Roboto, sans-serif"><tspan x="16.39" y="33.85" dominant-baseline="ideographic">Significativa</tspan></text></g></g></g><g id="g-root-tx_scientif_141quyl5w9fk6-fill" data-item-order="0" transform="translate(650, 445.375)"><g id="tx_scientif_141quyl5w9fk6-fill-merged" stroke="none" fill="#484848" fill-opacity="1"><g><text style="font: bold 20px Roboto, sans-serif; white-space: pre;" font-weight="bold" font-size="20px" font-family="Roboto, sans-serif"><tspan x="12" y="33.85" dominant-baseline="ideographic">Scientificità</tspan></text></g></g></g><g id="g-root-tx_veritdef_mgpi655wowec-fill" data-item-order="0" transform="translate(188, 205.375)"><g id="tx_veritdef_mgpi655wowec-fill-merged" stroke="none" fill="#484848" fill-opacity="1"><g><text style="font: bold 20px Roboto, sans-serif; white-space: pre;" font-weight="bold" font-size="20px" font-family="Roboto, sans-serif"><tspan x="20.25" y="33.85" dominant-baseline="ideographic">Verità Definitiva</tspan></text></g></g></g><g id="g-root-tx_deduttiv_zk1xkt5wauq5-fill" data-item-order="0" transform="translate(362, 625.375)"><g id="tx_deduttiv_zk1xkt5wauq5-fill-merged" stroke="none" fill="#484848" fill-opacity="1"><g><text style="font: bold 20px Roboto, sans-serif; white-space: pre;" font-weight="bold" font-size="20px" font-family="Roboto, sans-serif"><tspan x="12" y="33.85" dominant-baseline="ideographic">Deduttivismo</tspan></text></g></g></g><g id="g-root-tx_obiettiv_hzmypp5wgglj-fill" data-item-order="0" transform="translate(140, 157.375)"><g id="tx_obiettiv_hzmypp5wgglj-fill-merged" stroke="none" fill="#ffffff" fill-opacity="1"><g><text style="font: bold 20px Roboto, sans-serif; white-space: pre;" font-weight="bold" font-size="20px" font-family="Roboto, sans-serif"><tspan x="17.79" y="33.85" dominant-baseline="ideographic">Obiettivo Scientifico</tspan></text></g></g></g><g id="g-root-tx_ruolodel_4goxml5watcb-fill" data-item-order="0" transform="translate(374, 541.375)"><g id="tx_ruolodel_4goxml5watcb-fill-merged" stroke="none" fill="#ffffff" fill-opacity="1"><g><text style="font: bold 20px Roboto, sans-serif; white-space: pre;" font-weight="bold" font-size="20px" font-family="Roboto, sans-serif"><tspan x="12" y="33.85" dominant-baseline="ideographic">Ruolo dell'Induzione</tspan></text></g></g></g><g id="g-root-tx_confront_1lxe0ql5wgf0m-fill" data-item-order="0" transform="translate(194, 37.375)"><g id="tx_confront_1lxe0ql5wgf0m-fill-merged" stroke="none" fill="#484848" fill-opacity="1"><g><text style="font: bold 25px Roboto, sans-serif; white-space: pre;" font-weight="bold" font-size="25px" font-family="Roboto, sans-serif"><tspan x="15.82" y="43" dominant-baseline="ideographic">Confronto tra Circolo di Vienna e Karl Popper</tspan></text></g></g></g><g id="g-root-tx_induttiv_1lr5g715wasck-fill" data-item-order="0" transform="translate(362, 589.375)"><g id="tx_induttiv_1lr5g715wasck-fill-merged" stroke="none" fill="#484848" fill-opacity="1"><g><text style="font: bold 20px Roboto, sans-serif; white-space: pre;" font-weight="bold" font-size="20px" font-family="Roboto, sans-serif"><tspan x="12" y="33.85" dominant-baseline="ideographic">Induttivismo</tspan></text></g></g></g><g id="g-root-tx_principi_58ny55wq9lb-fill" data-item-order="0" transform="translate(572, 133.375)"><g id="tx_principi_58ny55wq9lb-fill-merged" stroke="none" fill="#ffffff" fill-opacity="1"><g><text style="font: bold 20px Roboto, sans-serif; white-space: pre;" font-weight="bold" font-size="20px" font-family="Roboto, sans-serif"><tspan x="12" y="33.84" dominant-baseline="ideographic">Principio </tspan><tspan x="12" y="57.85" dominant-baseline="ideographic">Fondamentale</tspan></text></g></g></g><g id="g-root-tf_qqwnct5wasjq-stroke" data-item-order="-1022868"></g><g id="g-root-cp_5_text-5_142zmt95wgff0-stroke" data-item-order="-562376" transform="translate(128, 145.375)"><g id="cp_5_text-5_142zmt95wgff0-stroke" fill="none" stroke-linecap="round" stroke-linejoin="round" stroke-miterlimit="4" stroke="#ffffff" stroke-width="2" stroke-opacity="1"><g><path d="M 16 10C 12.6863 10 10 12.6863 10 16M 16 9.999999L 256.000015 9.999999M 256 10C 259.3137 10 262 12.6863 262 16M 261.999985 52L 261.999985 16M 10 52L 10 16M 10 52C 10 55.3137 12.6863 58 16 58M 256.000015 58L 16 58M 256 58C 259.3137 58 262 55.3137 262 52"></path></g></g></g><g id="g-root-cp_1_text-1_dgp35p5wgff1-stroke" data-item-order="-562306" transform="translate(524, 121.375)"><g id="cp_1_text-1_dgp35p5wgff1-stroke" fill="none" stroke-linecap="round" stroke-linejoin="round" stroke-miterlimit="4" stroke="#ffffff" stroke-width="2" stroke-opacity="1"><g><path d="M 16 10C 12.6863 10 10 12.6863 10 16M 16 10L 196 10M 196 10C 199.3137 10 202 12.6863 202 16M 202 76L 202 16M 10 76L 10 16M 10 76C 10 79.3137 12.6863 82 16 82M 196 82L 16 82M 196 82C 199.3137 82 202 79.3137 202 76"></path></g></g></g><g id="g-root-cp_4_text-4_1ur5lq55wgefa-stroke" data-item-order="-562234" transform="translate(122, 337.375)"><g id="cp_4_text-4_1ur5lq55wgefa-stroke" fill="none" stroke-linecap="round" stroke-linejoin="round" stroke-miterlimit="4" stroke="#ffffff" stroke-width="2" stroke-opacity="1"><g><path d="M 16 10C 12.6863 10 10 12.6863 10 16M 16 10L 172 10M 172 10C 175.3137 10 178 12.6863 178 16M 178 52L 178 16M 10 52L 10 16M 10 52C 10 55.3137 12.6863 58 16 58M 172 58L 16 58M 172 58C 175.3137 58 178 55.3137 178 52"></path></g></g></g><g id="g-root-cp_-1_parent-5-part_18k233x5wggsv-stroke" data-item-order="-562168" transform="translate(338, 295.375)"><g id="cp_-1_parent-5-part_18k233x5wggsv-stroke" fill="none" stroke-linecap="round" stroke-linejoin="round" stroke-miterlimit="4" stroke="#ffffff" stroke-width="2" stroke-opacity="1"><g><path d="M 16 10C 12.6863 10 10 12.6863 10 16M 16 10L 232 10M 232 10C 235.3137 10 238 12.6863 238 16M 238 214L 238 16M 10 214L 10 16M 10 214C 10 217.3137 12.6863 220 16 220M 232 220L 16 220M 232 220C 235.3137 220 238 217.3137 238 214"></path></g></g></g><g id="g-root-cp_2_text-2_zp1jy55wgf7k-stroke" data-item-order="-562104" transform="translate(614, 325.375)"><g id="cp_2_text-2_zp1jy55wgf7k-stroke" fill="none" stroke-linecap="round" stroke-linejoin="round" stroke-miterlimit="4" stroke="#ffffff" stroke-width="2" stroke-opacity="1"><g><path d="M 16 10C 12.6863 10 10 12.6863 10 16M 16 10L 208 10M 208 10C 211.3137 10 214 12.6863 214 16M 214 76L 214 16M 10 76L 10 16M 10 76C 10 79.3137 12.6863 82 16 82M 208 82L 16 82M 208 82C 211.3137 82 214 79.3137 214 76"></path></g></g></g><g id="g-root-cp_3_text-3_qtejp95wgg09-stroke" data-item-order="-562032" transform="translate(326, 529.375)"><g id="cp_3_text-3_qtejp95wgg09-stroke" fill="none" stroke-linecap="round" stroke-linejoin="round" stroke-miterlimit="4" stroke="#ffffff" stroke-width="2" stroke-opacity="1"><g><path d="M 16 10C 12.6863 10 10 12.6863 10 16M 16 9.999999L 256.000015 9.999999M 256 10C 259.3137 10 262 12.6863 262 16M 261.999985 52L 261.999985 16M 10 52L 10 16M 10 52C 10 55.3137 12.6863 58 16 58M 256.000015 58L 16 58M 256 58C 259.3137 58 262 55.3137 262 52"></path></g></g></g><g id="g-root-he_dikif15wgeff-stroke" data-item-order="-561965" transform="translate(500, 148.375)"><g id="he_dikif15wgeff-stroke" fill="none" stroke-linecap="round" stroke-linejoin="round" stroke-miterlimit="4" stroke="#484848" stroke-width="2" stroke-opacity="1"><style>.fillAsHole-mk-dl2ukt4ipg5c { fill:#FFFFFF; }</style><g><path d="M 10 157L 10 22C 10 15.37 15.37 10 22 10L 31 10"></path><path d="M 31 10C 31.000001 11.656854 32.343146 13 34.000001 13C 35.656855 13 37.000001 11.656854 37.000001 10C 37.000001 8.343146 35.656855 7 34.000001 7C 32.343146 7 31.000001 8.343146 31.000001 10Z" stroke-dasharray="none" class="fillAsHole-mk-dl2ukt4ipg5c" fill="#FFFFFF"></path></g></g></g><g id="g-root-he_dikif15wgefh-stroke" data-item-order="-561963" transform="translate(536, 193.375)"><g id="he_dikif15wgefh-stroke" fill="none" stroke-linecap="round" stroke-linejoin="round" stroke-miterlimit="4" stroke="#484848" stroke-width="2" stroke-opacity="1"><style>.fillAsStrokeColor-mk-4pfubx4ipgy1 { fill:#484848; }
.fillAsStrokeColor-mk-4pfubx4ipgy2 { fill:#484848; }</style><g><path d="M 10 10L 10 58C 10 64.627419 15.372583 70.000002 22 70.000002L 22 70M 10 34L 22 34"></path><path d="M 20.5 70C 20.5 70.828429 21.171573 71.500002 22 71.500002C 22.828427 71.500002 23.5 70.828429 23.5 70.000002C 23.5 69.171575 22.828427 68.500002 22 68.500002C 21.171573 68.500002 20.5 69.171575 20.5 70.000002Z" stroke-dasharray="none" class="fillAsStrokeColor-mk-4pfubx4ipgy1" fill="#484848"></path><path d="M 20.5 34C 20.5 34.828428 21.171573 35.500001 22 35.500001C 22.828427 35.500001 23.5 34.828428 23.5 34.000001C 23.5 33.171574 22.828427 32.500001 22 32.500001C 21.171573 32.500001 20.5 33.171574 20.5 34.000001Z" stroke-dasharray="none" class="fillAsStrokeColor-mk-4pfubx4ipgy2" fill="#484848"></path></g></g></g><g id="g-root-he_92r0al5wgf7r-stroke" data-item-order="-561961" transform="translate(566, 352.375)"><g id="he_92r0al5wgf7r-stroke" fill="none" stroke-linecap="round" stroke-linejoin="round" stroke-miterlimit="4" stroke="#484848" stroke-width="2" stroke-opacity="1"><style>.fillAsHole-mk-9mc7h4iphqb { fill:#FFFFFF; }</style><g><path d="M 10 58L 22 58C 28.63 58 34 52.63 34 46L 34 22C 34 15.37 39.37 10 46 10L 55 10"></path><path d="M 55 10C 55.000001 11.656854 56.343147 13 58.000001 13C 59.656856 13 61.000001 11.656854 61.000001 10C 61.000001 8.343146 59.656856 7 58.000001 7C 56.343147 7 55.000001 8.343146 55.000001 10Z" stroke-dasharray="none" class="fillAsHole-mk-9mc7h4iphqb" fill="#FFFFFF"></path></g></g></g><g id="g-root-he_92r0al5wgf7t-stroke" data-item-order="-561959" transform="translate(626, 397.375)"><g id="he_92r0al5wgf7t-stroke" fill="none" stroke-linecap="round" stroke-linejoin="round" stroke-miterlimit="4" stroke="#484848" stroke-width="2" stroke-opacity="1"><style>.fillAsStrokeColor-mk-1qf3dxp4ipibw { fill:#484848; }
.fillAsStrokeColor-mk-1qf3dxp4ipibx { fill:#484848; }</style><g><path d="M 10 10L 10 58C 10 64.627419 15.372583 70.000002 22 70.000002L 22 70M 10 34L 22 34"></path><path d="M 20.5 70C 20.5 70.828429 21.171573 71.500002 22 71.500002C 22.828427 71.500002 23.5 70.828429 23.5 70.000002C 23.5 69.171575 22.828427 68.500002 22 68.500002C 21.171573 68.500002 20.5 69.171575 20.5 70.000002Z" stroke-dasharray="none" class="fillAsStrokeColor-mk-1qf3dxp4ipibw" fill="#484848"></path><path d="M 20.5 34C 20.5 34.828428 21.171573 35.500001 22 35.500001C 22.828427 35.500001 23.5 34.828428 23.5 34.000001C 23.5 33.171574 22.828427 32.500001 22 32.500001C 21.171573 32.500001 20.5 33.171574 20.5 34.000001Z" stroke-dasharray="none" class="fillAsStrokeColor-mk-1qf3dxp4ipibx" fill="#484848"></path></g></g></g><g id="g-root-he_92r0al5wgf7v-stroke" data-item-order="-561957" transform="translate(452, 505.375)"><g id="he_92r0al5wgf7v-stroke" fill="none" stroke-linecap="round" stroke-linejoin="round" stroke-miterlimit="4" stroke="#484848" stroke-width="2" stroke-opacity="1"><style>.fillAsHole-mk-1lz9vt94ipj46 { fill:#FFFFFF; }</style><g><path d="M 10 10L 10 31"></path><path d="M 7 34C 7 35.656855 8.343146 37.000001 10 37.000001C 11.656854 37.000001 13 35.656855 13 34.000001C 13 32.343146 11.656854 31.000001 10 31.000001C 8.343146 31.000001 7 32.343146 7 34.000001Z" stroke-dasharray="none" class="fillAsHole-mk-1lz9vt94ipj46" fill="#FFFFFF"></path></g></g></g><g id="g-root-he_4mxi655wgg05-stroke" data-item-order="-561955" transform="translate(338, 577.375)"><g id="he_4mxi655wgg05-stroke" fill="none" stroke-linecap="round" stroke-linejoin="round" stroke-miterlimit="4" stroke="#484848" stroke-width="2" stroke-opacity="1"><style>.fillAsStrokeColor-mk-1cu9r9p4iqvbj { fill:#484848; }
.fillAsStrokeColor-mk-18eg9594iqw3s { fill:#484848; }</style><g><path d="M 10 10L 10 58C 10 64.627419 15.372583 70.000002 22 70.000002L 22 70M 10 34L 22 34"></path><path d="M 20.5 70C 20.5 70.828429 21.171573 71.500002 22 71.500002C 22.828427 71.500002 23.5 70.828429 23.5 70.000002C 23.5 69.171575 22.828427 68.500002 22 68.500002C 21.171573 68.500002 20.5 69.171575 20.5 70.000002Z" stroke-dasharray="none" class="fillAsStrokeColor-mk-1cu9r9p4iqvbj" fill="#484848"></path><path d="M 20.5 34C 20.5 34.828428 21.171573 35.500001 22 35.500001C 22.828427 35.500001 23.5 34.828428 23.5 34.000001C 23.5 33.171574 22.828427 32.500001 22 32.500001C 21.171573 32.500001 20.5 33.171574 20.5 34.000001Z" stroke-dasharray="none" class="fillAsStrokeColor-mk-18eg9594iqw3s" fill="#484848"></path></g></g></g><g id="g-root-he_4mxi655wgg07-stroke" data-item-order="-561953" transform="translate(290, 364.375)"><g id="he_4mxi655wgg07-stroke" fill="none" stroke-linecap="round" stroke-linejoin="round" stroke-miterlimit="4" stroke="#484848" stroke-width="2" stroke-opacity="1"><style>.fillAsHole-mk-13ymr0t4iqww1 { fill:#FFFFFF; }</style><g><path d="M 58 46L 46 46C 39.37 46 34 40.63 34 34L 34 22C 34 15.37 28.63 10 22 10L 13 10"></path><path d="M 7 10C 7 11.656854 8.343146 13 10 13C 11.656854 13 13 11.656854 13 10C 13 8.343146 11.656854 7 10 7C 8.343146 7 7 8.343146 7 10Z" stroke-dasharray="none" class="fillAsHole-mk-13ymr0t4iqww1" fill="#FFFFFF"></path></g></g></g><g id="g-root-he_7401p5wggsh-stroke" data-item-order="-561951" transform="translate(266, 385.375)"><g id="he_7401p5wggsh-stroke" fill="none" stroke-linecap="round" stroke-linejoin="round" stroke-miterlimit="4" stroke="#484848" stroke-width="2" stroke-opacity="1"><style>.fillAsStrokeColor-mk-v2zqrx4iqxoq { fill:#484848; }
.fillAsStrokeColor-mk-v2zqrx4iqxor { fill:#484848; }</style><g><path d="M 22 10L 22 58C 22.000001 64.627419 16.627417 70.000002 10 70.000002L 10 70M 22 34L 10 34"></path><path d="M 8.5 70C 8.5 70.828429 9.171573 71.500002 10 71.500002C 10.828427 71.500002 11.5 70.828429 11.5 70.000002C 11.5 69.171575 10.828427 68.500002 10 68.500002C 9.171573 68.500002 8.5 69.171575 8.5 70.000002Z" stroke-dasharray="none" class="fillAsStrokeColor-mk-v2zqrx4iqxoq" fill="#484848"></path><path d="M 8.5 34C 8.5 34.828428 9.171573 35.500001 10 35.500001C 10.828427 35.500001 11.5 34.828428 11.5 34.000001C 11.5 33.171574 10.828427 32.500001 10 32.500001C 9.171573 32.500001 8.5 33.171574 8.5 34.000001Z" stroke-dasharray="none" class="fillAsStrokeColor-mk-v2zqrx4iqxor" fill="#484848"></path></g></g></g><g id="g-root-he_1qd7iv15wge8b-stroke" data-item-order="-561949" transform="translate(380, 172.375)"><g id="he_1qd7iv15wge8b-stroke" fill="none" stroke-linecap="round" stroke-linejoin="round" stroke-miterlimit="4" stroke="#484848" stroke-width="2" stroke-opacity="1"><style>.fillAsHole-mk-qnspql4iqvb8 { fill:#FFFFFF; }</style><g><path d="M 34 133L 34 22C 34 15.37 28.63 10 22 10L 13 10"></path><path d="M 7 10C 7 11.656854 8.343146 13 10 13C 11.656854 13 13 11.656854 13 10C 13 8.343146 11.656854 7 10 7C 8.343146 7 7 8.343146 7 10Z" stroke-dasharray="none" class="fillAsHole-mk-qnspql4iqvb8" fill="#FFFFFF"></path></g></g></g><g id="g-root-he_1qd7iv15wge8d-stroke" data-item-order="-561947" transform="translate(356, 193.375)"><g id="he_1qd7iv15wge8d-stroke" fill="none" stroke-linecap="round" stroke-linejoin="round" stroke-miterlimit="4" stroke="#484848" stroke-width="2" stroke-opacity="1"><style>.fillAsStrokeColor-mk-hs5php4iqw3x { fill:#484848; }
.fillAsStrokeColor-mk-hs5php4iqw3y { fill:#484848; }</style><g><path d="M 22 10L 22 58C 22.000001 64.627419 16.627417 70.000002 10 70.000002L 10 70M 22 34L 10 34"></path><path d="M 8.5 70C 8.5 70.828429 9.171573 71.500002 10 71.500002C 10.828427 71.500002 11.5 70.828429 11.5 70.000002C 11.5 69.171575 10.828427 68.500002 10 68.500002C 9.171573 68.500002 8.5 69.171575 8.5 70.000002Z" stroke-dasharray="none" class="fillAsStrokeColor-mk-hs5php4iqw3x" fill="#484848"></path><path d="M 8.5 34C 8.5 34.828428 9.171573 35.500001 10 35.500001C 10.828427 35.500001 11.5 34.828428 11.5 34.000001C 11.5 33.171574 10.828427 32.500001 10 32.500001C 9.171573 32.500001 8.5 33.171574 8.5 34.000001Z" stroke-dasharray="none" class="fillAsStrokeColor-mk-hs5php4iqw3y" fill="#484848"></path></g></g></g><g id="g-root-ic_myth_1cy094t5wrnrj-stroke" data-item-order="-5184" transform="translate(416, 313.375)"></g><g id="g-root-ic_elec_hv9tfh5w9erz-stroke" data-item-order="-900" transform="translate(338, 538.375)"></g><g id="g-root-ic_1_1lymywt5wgh6o-stroke" data-item-order="-900" transform="translate(338, 154.375)"></g><g id="g-root-ic_3_13z8vgd5wqarq-stroke" data-item-order="-900" transform="translate(536, 142.375)"></g><g id="g-root-ic_circ_1ly0kzh5wrpjc-stroke" data-item-order="-900" transform="translate(626, 346.375)"></g><g id="g-root-ic_star_18lxlj15wq8ej-stroke" data-item-order="-900" transform="translate(248, 346.375)"></g><g id="g-root-tx_criterio_de7d4t5w9de4-stroke" data-item-order="0" transform="translate(662, 337.375)"></g><g id="g-root-tx_metafisi_1usen255wq96q-stroke" data-item-order="0" transform="translate(134, 349.375)"></g><g id="g-root-tx_insensat_1uneud95wrn5w-stroke" data-item-order="0" transform="translate(158, 397.375)"></g><g id="g-root-tx_falsific_dhy4hp5wqa6h-stroke" data-item-order="0" transform="translate(560, 241.375)"></g><g id="g-root-tx_veritipo_1lqivy55wq8el-stroke" data-item-order="0" transform="translate(200, 241.375)"></g><g id="g-root-tx_confront_4j6qt95wrnym-stroke" data-item-order="0" transform="translate(350, 397.375)"></g><g id="g-root-tx_verifica_1czvoe55wq9ds-stroke" data-item-order="0" transform="translate(560, 205.375)"></g><g id="g-root-tx_signific_1lseed95w9gct-stroke" data-item-order="0" transform="translate(650, 409.375)"></g><g id="g-root-tx_signific_v5hagt5wrnyl-stroke" data-item-order="0" transform="translate(134, 433.375)"></g><g id="g-root-tx_scientif_141quyl5w9fk6-stroke" data-item-order="0" transform="translate(650, 445.375)"></g><g id="g-root-tx_veritdef_mgpi655wowec-stroke" data-item-order="0" transform="translate(188, 205.375)"></g><g id="g-root-tx_deduttiv_zk1xkt5wauq5-stroke" data-item-order="0" transform="translate(362, 625.375)"></g><g id="g-root-tx_obiettiv_hzmypp5wgglj-stroke" data-item-order="0" transform="translate(140, 157.375)"></g><g id="g-root-tx_ruolodel_4goxml5watcb-stroke" data-item-order="0" transform="translate(374, 541.375)"></g><g id="g-root-tx_confront_1lxe0ql5wgf0m-stroke" data-item-order="0" transform="translate(194, 37.375)"></g><g id="g-root-tx_induttiv_1lr5g715wasck-stroke" data-item-order="0" transform="translate(362, 589.375)"></g><g id="g-root-tx_principi_58ny55wq9lb-stroke" data-item-order="0" transform="translate(572, 133.375)"></g></g></g></svg>