<?xml version="1.0" encoding="utf-8" standalone="yes"?>
<!DOCTYPE svg PUBLIC "-//W3C//DTD SVG 1.1//EN" "http://www.w3.org/Graphics/SVG/1.1/DTD/svg11.dtd">
<svg style="fill:none;stroke:none;fill-rule:evenodd;clip-rule:evenodd;stroke-linecap:round;stroke-linejoin:round;stroke-miterlimit:1.5;" version="1.1" xmlns="http://www.w3.org/2000/svg" xmlns:xlink="http://www.w3.org/1999/xlink" width="988" height="720" viewBox="0 0 988 720"><style class="text-font-style fontImports" data-font-family="Roboto">@import url(https://fonts.googleapis.com/css2?family=Roboto:wght@400;700&amp;amp;display=block);</style><rect id="" x="0" y="0" width="988" height="720" style="fill: #ffffff;"></rect><g id="items" style="isolation: isolate"><g id="blend" style="mix-blend-mode: normal"><g id="g-root-tf_zit9068oqe4h-fill" data-item-order="-1067040"><g id="tf_zit9068oqe4h-fill-merged" stroke="none" fill="#ffffff" fill-opacity="1"><g><path d="M0 0.001 H988 V720.001 H0 V0.001"></path></g></g></g><g id="g-root-cp_1-1_g-1-1_1hcl9068o6ps6-fill" data-item-order="-586542" transform="translate(74, 122)"><g id="cp_1-1_g-1-1_1hcl9068o6ps6-fill-merged" stroke="none" fill="#de8431" fill-opacity="1"><g><path d="M10 55C10 56.657 11.343 58 13 58 H103C104.657 58 106 56.657 106 55 V13C106 11.343 104.657 10 103 10 H13C11.343 10 10 11.343 10 13 V55"></path></g></g></g><g id="g-root-cp_1-2_g-1-2_qqapcm8o6ps7-fill" data-item-order="-586506" transform="translate(62, 182)"><g id="cp_1-2_g-1-2_qqapcm8o6ps7-fill-merged" stroke="none" fill="#de8431" fill-opacity="1"><g><path d="M10 55C10 56.657 11.343 58 13 58 H115C116.657 58 118 56.657 118 55 V13C118 11.343 116.657 10 115 10 H13C11.343 10 10 11.343 10 13 V55"></path></g></g></g><g id="g-root-cp_1-3_g-1-3_deu6za8o6rd4-fill" data-item-order="-586470" transform="translate(50, 242)"><g id="cp_1-3_g-1-3_deu6za8o6rd4-fill-merged" stroke="none" fill="#de8431" fill-opacity="1"><g><path d="M10 55C10 56.657 11.343 58 13 58 H127C128.657 58 130 56.657 130 55 V13C130 11.343 128.657 10 127 10 H13C11.343 10 10 11.343 10 13 V55"></path></g></g></g><g id="g-root-cp_1_g-1_405p28o6ps9-fill" data-item-order="-586432" transform="translate(206, 184)"><g id="cp_1_g-1_405p28o6ps9-fill-merged" stroke="none" fill="#de8431" fill-opacity="1"><g><path d="M10 51C10 52.657 11.343 54 13 54 H135C136.657 54 138 52.657 138 51 V13C138 11.343 136.657 10 135 10 H13C11.343 10 10 11.343 10 13 V51"></path></g></g></g><g id="g-root-cp_3-1_g-3-1_18i76xi8o6sqy-fill" data-item-order="-586386" transform="translate(86, 338)"><g id="cp_3-1_g-3-1_18i76xi8o6sqy-fill-merged" stroke="none" fill="#de58a9" fill-opacity="1"><g><path d="M10 55C10 56.657 11.343 58 13 58 H115C116.657 58 118 56.657 118 55 V13C118 11.343 116.657 10 115 10 H13C11.343 10 10 11.343 10 13 V55"></path></g></g></g><g id="g-root-cp_3-2_g-3-2_v7d5na8o6r63-fill" data-item-order="-586350" transform="translate(62, 398)"><g id="cp_3-2_g-3-2_v7d5na8o6r63-fill-merged" stroke="none" fill="#de58a9" fill-opacity="1"><g><path d="M10 55C10 56.657 11.343 58 13 58 H139C140.657 58 142 56.657 142 55 V13C142 11.343 140.657 10 139 10 H13C11.343 10 10 11.343 10 13 V55"></path></g></g></g><g id="g-root-cp_3-3_g-3-3_dgpm8m8o6qdg-fill" data-item-order="-586314" transform="translate(74, 458)"><g id="cp_3-3_g-3-3_dgpm8m8o6qdg-fill-merged" stroke="none" fill="#de58a9" fill-opacity="1"><g><path d="M10 55C10 56.657 11.343 58 13 58 H127C128.657 58 130 56.657 130 55 V13C130 11.343 128.657 10 127 10 H13C11.343 10 10 11.343 10 13 V55"></path></g></g></g><g id="g-root-cp_3-4_g-3-4_593va8o6ryd-fill" data-item-order="-586278" transform="translate(62, 518)"><g id="cp_3-4_g-3-4_593va8o6ryd-fill-merged" stroke="none" fill="#de58a9" fill-opacity="1"><g><path d="M10 55C10 56.657 11.343 58 13 58 H139C140.657 58 142 56.657 142 55 V13C142 11.343 140.657 10 139 10 H13C11.343 10 10 11.343 10 13 V55"></path></g></g></g><g id="g-root-cp_3-5_g-3-5_1qaq5li8o6sjy-fill" data-item-order="-586242" transform="translate(62, 578)"><g id="cp_3-5_g-3-5_1qaq5li8o6sjy-fill-merged" stroke="none" fill="#de58a9" fill-opacity="1"><g><path d="M10 55C10 56.657 11.343 58 13 58 H139C140.657 58 142 56.657 142 55 V13C142 11.343 140.657 10 139 10 H13C11.343 10 10 11.343 10 13 V55"></path></g></g></g><g id="g-root-cp_3_g-3_1czw4ba8o6qz3-fill" data-item-order="-586204" transform="translate(230, 454)"><g id="cp_3_g-3_1czw4ba8o6qz3-fill-merged" stroke="none" fill="#de58a9" fill-opacity="1"><g><path d="M10 63C10 64.657 11.343 66 13 66 H111C112.657 66 114 64.657 114 63 V13C114 11.343 112.657 10 111 10 H13C11.343 10 10 11.343 10 13 V63"></path></g></g></g><g id="g-root-cp_start_g-start_18k2m6u8o6rrc-fill" data-item-order="-586162" transform="translate(430, 350)"><g id="cp_start_g-start_18k2m6u8o6rrc-fill-merged" stroke="none" fill="#969696" fill-opacity="1"><g><path d="M10 55C10 56.657 11.343 58 13 58 H103C104.657 58 106 56.657 106 55 V13C106 11.343 104.657 10 103 10 H13C11.343 10 10 11.343 10 13 V55"></path></g></g></g><g id="g-root-cp_2_g-2_qtf2s68o6qyp-fill" data-item-order="-586116" transform="translate(622, 352)"><g id="cp_2_g-2_qtf2s68o6qyp-fill-merged" stroke="none" fill="#e55753" fill-opacity="1"><g><path d="M10 51C10 52.657 11.343 54 13 54 H147C148.657 54 150 52.657 150 51 V13C150 11.343 148.657 10 147 10 H13C11.343 10 10 11.343 10 13 V51"></path></g></g></g><g id="g-root-cp_2-1_g-2-1_dhykeu8o6sjm-fill" data-item-order="-586074" transform="translate(798, 254)"><g id="cp_2-1_g-2-1_dhykeu8o6sjm-fill-merged" stroke="none" fill="#e55753" fill-opacity="1"><g><path d="M10 43C10 44.657 11.343 46 13 46 H67C68.657 46 70 44.657 70 43 V13C70 11.343 68.657 10 67 10 H13C11.343 10 10 11.343 10 13 V43"></path></g></g></g><g id="g-root-cp_2-2_g-2-2_74j4m8o6qyr-fill" data-item-order="-586038" transform="translate(798, 302)"><g id="cp_2-2_g-2-2_74j4m8o6qyr-fill-merged" stroke="none" fill="#e55753" fill-opacity="1"><g><path d="M10 43C10 44.657 11.343 46 13 46 H67C68.657 46 70 44.657 70 43 V13C70 11.343 68.657 10 67 10 H13C11.343 10 10 11.343 10 13 V43"></path></g></g></g><g id="g-root-cp_2-3_g-2-3_1lws2qe8o6sck-fill" data-item-order="-586002" transform="translate(798, 350)"><g id="cp_2-3_g-2-3_1lws2qe8o6sck-fill-merged" stroke="none" fill="#e55753" fill-opacity="1"><g><path d="M10 43C10 44.657 11.343 46 13 46 H67C68.657 46 70 44.657 70 43 V13C70 11.343 68.657 10 67 10 H13C11.343 10 10 11.343 10 13 V43"></path></g></g></g><g id="g-root-cp_2-4_g-2-4_18ly1g68o6qrp-fill" data-item-order="-585966" transform="translate(798, 398)"><g id="cp_2-4_g-2-4_18ly1g68o6qrp-fill-merged" stroke="none" fill="#e55753" fill-opacity="1"><g><path d="M10 43C10 44.657 11.343 46 13 46 H55C56.657 46 58 44.657 58 43 V13C58 11.343 56.657 10 55 10 H13C11.343 10 10 11.343 10 13 V43"></path></g></g></g><g id="g-root-cp_2-5_g-2-5_vahj2u8o6scm-fill" data-item-order="-585930" transform="translate(798, 446)"><g id="cp_2-5_g-2-5_vahj2u8o6scm-fill-merged" stroke="none" fill="#e55753" fill-opacity="1"><g><path d="M10 55C10 56.657 11.343 58 13 58 H139C140.657 58 142 56.657 142 55 V13C142 11.343 140.657 10 139 10 H13C11.343 10 10 11.343 10 13 V55"></path></g></g></g><g id="g-root-he_hznhsm8o6qrs-fill" data-item-order="-585889" transform="translate(334, 206)"></g><g id="g-root-he_hznhsm8o6qru-fill" data-item-order="-585887" transform="translate(526, 374)"></g><g id="g-root-he_djtzo68o6rk4-fill" data-item-order="-585885" transform="translate(170, 146)"></g><g id="g-root-he_djtzo68o6rk6-fill" data-item-order="-585883" transform="translate(762, 272)"></g><g id="g-root-he_940hjq8o6scg-fill" data-item-order="-585881" transform="translate(194, 362)"></g><g id="g-root-tx_tematich_vvfa8o6rk3-fill" data-item-order="0" transform="translate(632, 362)"><g id="tx_tematich_vvfa8o6rk3-fill-merged" stroke="none" fill="#ffffff" fill-opacity="1"><g><text style="font: bold 11.7px Roboto, sans-serif; white-space: pre;" font-weight="bold" font-size="11.7px" font-family="Roboto, sans-serif"><tspan x="12" y="28.85" dominant-baseline="ideographic">Tematiche Principali</tspan></text></g></g></g><g id="g-root-tx_decamero_vbqh928oqdqi-fill" data-item-order="0" transform="translate(442, 362)"><g id="tx_decamero_vbqh928oqdqi-fill-merged" stroke="none" fill="#ffffff" fill-opacity="1"><g><text style="font: 11.7px Roboto, sans-serif; white-space: pre;" font-size="11.7px" font-family="Roboto, sans-serif"><tspan x="16.11" y="28.85" dominant-baseline="ideographic">Decameron</tspan></text></g></g></g><g id="g-root-tx_amore_dfgr868o84jm-fill" data-item-order="0" transform="translate(804, 356)"><g id="tx_amore_dfgr868o84jm-fill-merged" stroke="none" fill="#ffffff" fill-opacity="1"><g><text style="font: 11.7px Roboto, sans-serif; white-space: pre;" font-size="11.7px" font-family="Roboto, sans-serif"><tspan x="12" y="28.85" dominant-baseline="ideographic">Amore</tspan></text></g></g></g><g id="g-root-tx_giornata_hteqxi8op1xe-fill" data-item-order="0" transform="translate(92, 344)"><g id="tx_giornata_hteqxi8op1xe-fill-merged" stroke="none" fill="#ffffff" fill-opacity="1"><g><text style="font: 11.7px Roboto, sans-serif; white-space: pre;" font-size="11.7px" font-family="Roboto, sans-serif"><tspan x="17.34" y="27.84" dominant-baseline="ideographic">Giornata I (Tema </tspan><tspan x="67.5" y="41.85" dominant-baseline="ideographic">Libero)</tspan></text></g></g></g><g id="g-root-tx_struttur_5vkye8om8el-fill" data-item-order="0" transform="translate(310, 38)"><g id="tx_struttur_5vkye8om8el-fill-merged" stroke="none" fill="#484848" fill-opacity="1"><g><text style="font: bold 20px Roboto, sans-serif; white-space: pre;" font-weight="bold" font-size="20px" font-family="Roboto, sans-serif"><tspan x="16.53" y="33.85" dominant-baseline="ideographic">Struttura e Tematiche del Decameron</tspan></text></g></g></g><g id="g-root-tx_giornata_1qa3oie8op0qr-fill" data-item-order="0" transform="translate(68, 404)"><g id="tx_giornata_1qa3oie8op0qr-fill-merged" stroke="none" fill="#ffffff" fill-opacity="1"><g><text style="font: 11.7px Roboto, sans-serif; white-space: pre;" font-size="11.7px" font-family="Roboto, sans-serif"><tspan x="17.94" y="27.84" dominant-baseline="ideographic">Giornata II (Fortuna e </tspan><tspan x="73.34" y="41.85" dominant-baseline="ideographic">Lieto Fine)</tspan></text></g></g></g><g id="g-root-tx_pesteafi_qn6bx28onn5u-fill" data-item-order="0" transform="translate(80, 128)"><g id="tx_pesteafi_qn6bx28onn5u-fill-merged" stroke="none" fill="#ffffff" fill-opacity="1"><g><text style="font: 11.7px Roboto, sans-serif; white-space: pre;" font-size="11.7px" font-family="Roboto, sans-serif"><tspan x="12.54" y="27.84" dominant-baseline="ideographic">Peste a Firenze </tspan><tspan x="57.64" y="41.85" dominant-baseline="ideographic">(1348)</tspan></text></g></g></g><g id="g-root-tx_beffa_v7zpw68o84cn-fill" data-item-order="0" transform="translate(804, 404)"><g id="tx_beffa_v7zpw68o84cn-fill-merged" stroke="none" fill="#ffffff" fill-opacity="1"><g><text style="font: 11.7px Roboto, sans-serif; white-space: pre;" font-size="11.7px" font-family="Roboto, sans-serif"><tspan x="12" y="28.85" dominant-baseline="ideographic">Beffa</tspan></text></g></g></g><g id="g-root-tx_giornata_1uo1rdi8oqfwi-fill" data-item-order="0" transform="translate(68, 584)"><g id="tx_giornata_1uo1rdi8oqfwi-fill-merged" stroke="none" fill="#ffffff" fill-opacity="1"><g><text style="font: 11.7px Roboto, sans-serif; white-space: pre;" font-size="11.7px" font-family="Roboto, sans-serif"><tspan x="18.55" y="27.84" dominant-baseline="ideographic">Giornata X (Liberalità </tspan><tspan x="44.97" y="41.85" dominant-baseline="ideographic">e Magnificenza)</tspan></text></g></g></g><g id="g-root-tx_giornata_zpok468oozr8-fill" data-item-order="0" transform="translate(80, 464)"><g id="tx_giornata_zpok468oozr8-fill-merged" stroke="none" fill="#ffffff" fill-opacity="1"><g><text style="font: 11.7px Roboto, sans-serif; white-space: pre;" font-size="11.7px" font-family="Roboto, sans-serif"><tspan x="19.77" y="27.84" dominant-baseline="ideographic">Giornata IV (Amori </tspan><tspan x="77.51" y="41.85" dominant-baseline="ideographic">Infelici)</tspan></text></g></g></g><g id="g-root-tx_ingegno_1lseuae8o85c5-fill" data-item-order="0" transform="translate(804, 308)"><g id="tx_ingegno_1lseuae8o85c5-fill-merged" stroke="none" fill="#ffffff" fill-opacity="1"><g><text style="font: 11.7px Roboto, sans-serif; white-space: pre;" font-size="11.7px" font-family="Roboto, sans-serif"><tspan x="12" y="28.85" dominant-baseline="ideographic">Ingegno</tspan></text></g></g></g><g id="g-root-tx_suddivis_hx5lg68oqe4t-fill" data-item-order="0" transform="translate(240, 464)"><g id="tx_suddivis_hx5lg68oqe4t-fill-merged" stroke="none" fill="#ffffff" fill-opacity="1"><g><text style="font: bold 11.7px Roboto, sans-serif; white-space: pre;" font-weight="bold" font-size="11.7px" font-family="Roboto, sans-serif"><tspan x="11.84" y="27.84" dominant-baseline="ideographic">Suddivisione in </tspan><tspan x="46.96" y="41.85" dominant-baseline="ideographic">Giornate</tspan></text></g></g></g><g id="g-root-tx_criticaa_1lvj7py8o86is-fill" data-item-order="0" transform="translate(804, 452)"><g id="tx_criticaa_1lvj7py8o86is-fill-merged" stroke="none" fill="#ffffff" fill-opacity="1"><g><text style="font: 11.7px Roboto, sans-serif; white-space: pre;" font-size="11.7px" font-family="Roboto, sans-serif"><tspan x="12" y="27.84" dominant-baseline="ideographic">Critica alla Società e </tspan><tspan x="12" y="41.85" dominant-baseline="ideographic">al Clero</tspan></text></g></g></g><g id="g-root-tx_vitaordi_5vkye8onncw-fill" data-item-order="0" transform="translate(56, 248)"><g id="tx_vitaordi_5vkye8onncw-fill-merged" stroke="none" fill="#ffffff" fill-opacity="1"><g><text style="font: 11.7px Roboto, sans-serif; white-space: pre;" font-size="11.7px" font-family="Roboto, sans-serif"><tspan x="20.68" y="27.84" dominant-baseline="ideographic">Vita Ordinata nella </tspan><tspan x="93.66" y="41.85" dominant-baseline="ideographic">Villa</tspan></text></g></g></g><g id="g-root-tx_giornata_m7zavq8oqdxc-fill" data-item-order="0" transform="translate(68, 524)"><g id="tx_giornata_m7zavq8oqdxc-fill-merged" stroke="none" fill="#ffffff" fill-opacity="1"><g><text style="font: 11.7px Roboto, sans-serif; white-space: pre;" font-size="11.7px" font-family="Roboto, sans-serif"><tspan x="23.42" y="27.84" dominant-baseline="ideographic">Giornata VI (Motti di </tspan><tspan x="90.39" y="41.85" dominant-baseline="ideographic">Spirito)</tspan></text></g></g></g><g id="g-root-tx_struttur_4pfxli8onklh-fill" data-item-order="0" transform="translate(216, 194)"><g id="tx_struttur_4pfxli8onklh-fill-merged" stroke="none" fill="#ffffff" fill-opacity="1"><g><text style="font: bold 11.7px Roboto, sans-serif; white-space: pre;" font-weight="bold" font-size="11.7px" font-family="Roboto, sans-serif"><tspan x="16.54" y="28.85" dominant-baseline="ideographic">Struttura a Cornice</tspan></text></g></g></g><g id="g-root-tx_brigatad_18hkpue8onlzb-fill" data-item-order="0" transform="translate(68, 188)"><g id="tx_brigatad_18hkpue8onlzb-fill-merged" stroke="none" fill="#ffffff" fill-opacity="1"><g><text style="font: 11.7px Roboto, sans-serif; white-space: pre;" font-size="11.7px" font-family="Roboto, sans-serif"><tspan x="19.67" y="27.84" dominant-baseline="ideographic">Brigata dei Dieci </tspan><tspan x="65.37" y="41.85" dominant-baseline="ideographic">Giovani</tspan></text></g></g></g><g id="g-root-tx_fortuna_13zvvme8o85j4-fill" data-item-order="0" transform="translate(804, 260)"><g id="tx_fortuna_13zvvme8o85j4-fill-merged" stroke="none" fill="#ffffff" fill-opacity="1"><g><text style="font: 11.7px Roboto, sans-serif; white-space: pre;" font-size="11.7px" font-family="Roboto, sans-serif"><tspan x="12" y="28.85" dominant-baseline="ideographic">Fortuna</tspan></text></g></g></g><g id="g-root-tf_zit9068oqe4h-stroke" data-item-order="-1067040"></g><g id="g-root-cp_1-1_g-1-1_1hcl9068o6ps6-stroke" data-item-order="-586542" transform="translate(74, 122)"><g id="cp_1-1_g-1-1_1hcl9068o6ps6-stroke" fill="none" stroke-linecap="round" stroke-linejoin="round" stroke-miterlimit="4" stroke="#ffffff" stroke-width="2" stroke-opacity="1"><g><path d="M 13 10C 11.3431 10 10 11.3431 10 13M 103 10L 13 10M 106 55C 106 56.6569 104.6569 58 103 58M 103 10C 104.6569 10 106 11.3431 106 13M 10 55L 10 13M 106 55L 106 13M 13 58L 103 58M 13 58C 11.3431 58 10 56.6569 10 55"></path></g></g></g><g id="g-root-cp_1-2_g-1-2_qqapcm8o6ps7-stroke" data-item-order="-586506" transform="translate(62, 182)"><g id="cp_1-2_g-1-2_qqapcm8o6ps7-stroke" fill="none" stroke-linecap="round" stroke-linejoin="round" stroke-miterlimit="4" stroke="#ffffff" stroke-width="2" stroke-opacity="1"><g><path d="M 13 10C 11.3431 10 10 11.3431 10 13M 115 10L 13 10M 118 55C 118 56.6569 116.6569 58 115 58M 115 10C 116.6569 10 118 11.3431 118 13M 10 55L 10 13M 118 55L 118 13M 13 58L 115 58M 13 58C 11.3431 58 10 56.6569 10 55"></path></g></g></g><g id="g-root-cp_1-3_g-1-3_deu6za8o6rd4-stroke" data-item-order="-586470" transform="translate(50, 242)"><g id="cp_1-3_g-1-3_deu6za8o6rd4-stroke" fill="none" stroke-linecap="round" stroke-linejoin="round" stroke-miterlimit="4" stroke="#ffffff" stroke-width="2" stroke-opacity="1"><g><path d="M 13 10C 11.3431 10 10 11.3431 10 13M 127 10L 13 10M 130 55C 130 56.6569 128.6569 58 127 58M 127 10C 128.6569 10 130 11.3431 130 13M 10 55L 10 13M 130 55L 130 13M 13 58L 127 58M 13 58C 11.3431 58 10 56.6569 10 55"></path></g></g></g><g id="g-root-cp_1_g-1_405p28o6ps9-stroke" data-item-order="-586432" transform="translate(206, 184)"><g id="cp_1_g-1_405p28o6ps9-stroke" fill="none" stroke-linecap="round" stroke-linejoin="round" stroke-miterlimit="4" stroke="#ffffff" stroke-width="2" stroke-opacity="1"><g><path d="M 13 10C 11.3431 10 10 11.3431 10 13M 135 10L 13 10M 138 51C 138 52.6569 136.6569 54 135 54M 135 10C 136.6569 10 138 11.3431 138 13M 10 51L 10 13M 138 51L 138 13M 13 54L 135 54M 13 54C 11.3431 54 10 52.6569 10 51"></path></g></g></g><g id="g-root-cp_3-1_g-3-1_18i76xi8o6sqy-stroke" data-item-order="-586386" transform="translate(86, 338)"><g id="cp_3-1_g-3-1_18i76xi8o6sqy-stroke" fill="none" stroke-linecap="round" stroke-linejoin="round" stroke-miterlimit="4" stroke="#ffffff" stroke-width="2" stroke-opacity="1"><g><path d="M 13 10C 11.3431 10 10 11.3431 10 13M 115 10L 13 10M 118 55C 118 56.6569 116.6569 58 115 58M 115 10C 116.6569 10 118 11.3431 118 13M 10 55L 10 13M 118 55L 118 13M 13 58L 115 58M 13 58C 11.3431 58 10 56.6569 10 55"></path></g></g></g><g id="g-root-cp_3-2_g-3-2_v7d5na8o6r63-stroke" data-item-order="-586350" transform="translate(62, 398)"><g id="cp_3-2_g-3-2_v7d5na8o6r63-stroke" fill="none" stroke-linecap="round" stroke-linejoin="round" stroke-miterlimit="4" stroke="#ffffff" stroke-width="2" stroke-opacity="1"><g><path d="M 13 10C 11.3431 10 10 11.3431 10 13M 139 10L 13 10M 142 55C 142 56.6569 140.6569 58 139 58M 139 10C 140.6569 10 142 11.3431 142 13M 10 55L 10 13M 142 55L 142 13M 13 58L 139 58M 13 58C 11.3431 58 10 56.6569 10 55"></path></g></g></g><g id="g-root-cp_3-3_g-3-3_dgpm8m8o6qdg-stroke" data-item-order="-586314" transform="translate(74, 458)"><g id="cp_3-3_g-3-3_dgpm8m8o6qdg-stroke" fill="none" stroke-linecap="round" stroke-linejoin="round" stroke-miterlimit="4" stroke="#ffffff" stroke-width="2" stroke-opacity="1"><g><path d="M 13 10C 11.3431 10 10 11.3431 10 13M 127 10L 13 10M 130 55C 130 56.6569 128.6569 58 127 58M 127 10C 128.6569 10 130 11.3431 130 13M 10 55L 10 13M 130 55L 130 13M 13 58L 127 58M 13 58C 11.3431 58 10 56.6569 10 55"></path></g></g></g><g id="g-root-cp_3-4_g-3-4_593va8o6ryd-stroke" data-item-order="-586278" transform="translate(62, 518)"><g id="cp_3-4_g-3-4_593va8o6ryd-stroke" fill="none" stroke-linecap="round" stroke-linejoin="round" stroke-miterlimit="4" stroke="#ffffff" stroke-width="2" stroke-opacity="1"><g><path d="M 13 10C 11.3431 10 10 11.3431 10 13M 139 10L 13 10M 142 55C 142 56.6569 140.6569 58 139 58M 139 10C 140.6569 10 142 11.3431 142 13M 10 55L 10 13M 142 55L 142 13M 13 58L 139 58M 13 58C 11.3431 58 10 56.6569 10 55"></path></g></g></g><g id="g-root-cp_3-5_g-3-5_1qaq5li8o6sjy-stroke" data-item-order="-586242" transform="translate(62, 578)"><g id="cp_3-5_g-3-5_1qaq5li8o6sjy-stroke" fill="none" stroke-linecap="round" stroke-linejoin="round" stroke-miterlimit="4" stroke="#ffffff" stroke-width="2" stroke-opacity="1"><g><path d="M 13 10C 11.3431 10 10 11.3431 10 13M 139 10L 13 10M 142 55C 142 56.6569 140.6569 58 139 58M 139 10C 140.6569 10 142 11.3431 142 13M 10 55L 10 13M 142 55L 142 13M 13 58L 139 58M 13 58C 11.3431 58 10 56.6569 10 55"></path></g></g></g><g id="g-root-cp_3_g-3_1czw4ba8o6qz3-stroke" data-item-order="-586204" transform="translate(230, 454)"><g id="cp_3_g-3_1czw4ba8o6qz3-stroke" fill="none" stroke-linecap="round" stroke-linejoin="round" stroke-miterlimit="4" stroke="#ffffff" stroke-width="2" stroke-opacity="1"><g><path d="M 13 10C 11.3431 10 10 11.3431 10 13M 111 10L 13 10M 114 63C 114 64.6569 112.6569 66 111 66M 111 10C 112.6569 10 114 11.3431 114 13M 10 63L 10 13M 114 63L 114 13M 13 66L 111 66M 13 66C 11.3431 66 10 64.6569 10 63"></path></g></g></g><g id="g-root-cp_start_g-start_18k2m6u8o6rrc-stroke" data-item-order="-586162" transform="translate(430, 350)"><g id="cp_start_g-start_18k2m6u8o6rrc-stroke" fill="none" stroke-linecap="round" stroke-linejoin="round" stroke-miterlimit="4" stroke="#ffffff" stroke-width="2" stroke-opacity="1"><g><path d="M 13 10C 11.3431 10 10 11.3431 10 13M 103 10L 13 10M 106 55C 106 56.6569 104.6569 58 103 58M 103 10C 104.6569 10 106 11.3431 106 13M 10 55L 10 13M 106 55L 106 13M 13 58L 103 58M 13 58C 11.3431 58 10 56.6569 10 55"></path></g></g></g><g id="g-root-cp_2_g-2_qtf2s68o6qyp-stroke" data-item-order="-586116" transform="translate(622, 352)"><g id="cp_2_g-2_qtf2s68o6qyp-stroke" fill="none" stroke-linecap="round" stroke-linejoin="round" stroke-miterlimit="4" stroke="#ffffff" stroke-width="2" stroke-opacity="1"><g><path d="M 13 10C 11.3431 10 10 11.3431 10 13M 147 10L 13 10M 150 51C 150 52.6569 148.6569 54 147 54M 147 10C 148.6569 10 150 11.3431 150 13M 10 51L 10 13M 150 51L 150 13M 13 54L 147 54M 13 54C 11.3431 54 10 52.6569 10 51"></path></g></g></g><g id="g-root-cp_2-1_g-2-1_dhykeu8o6sjm-stroke" data-item-order="-586074" transform="translate(798, 254)"><g id="cp_2-1_g-2-1_dhykeu8o6sjm-stroke" fill="none" stroke-linecap="round" stroke-linejoin="round" stroke-miterlimit="4" stroke="#ffffff" stroke-width="2" stroke-opacity="1"><g><path d="M 13 10C 11.3431 10 10 11.3431 10 13M 67 10L 13 10M 70 43C 70 44.6569 68.6569 46 67 46M 67 10C 68.6569 10 70 11.3431 70 13M 10 43L 10 13M 70 43L 70 13M 13 46L 67 46M 13 46C 11.3431 46 10 44.6569 10 43"></path></g></g></g><g id="g-root-cp_2-2_g-2-2_74j4m8o6qyr-stroke" data-item-order="-586038" transform="translate(798, 302)"><g id="cp_2-2_g-2-2_74j4m8o6qyr-stroke" fill="none" stroke-linecap="round" stroke-linejoin="round" stroke-miterlimit="4" stroke="#ffffff" stroke-width="2" stroke-opacity="1"><g><path d="M 13 10C 11.3431 10 10 11.3431 10 13M 67 10L 13 10M 70 43C 70 44.6569 68.6569 46 67 46M 67 10C 68.6569 10 70 11.3431 70 13M 10 43L 10 13M 70 43L 70 13M 13 46L 67 46M 13 46C 11.3431 46 10 44.6569 10 43"></path></g></g></g><g id="g-root-cp_2-3_g-2-3_1lws2qe8o6sck-stroke" data-item-order="-586002" transform="translate(798, 350)"><g id="cp_2-3_g-2-3_1lws2qe8o6sck-stroke" fill="none" stroke-linecap="round" stroke-linejoin="round" stroke-miterlimit="4" stroke="#ffffff" stroke-width="2" stroke-opacity="1"><g><path d="M 13 10C 11.3431 10 10 11.3431 10 13M 67 10L 13 10M 70 43C 70 44.6569 68.6569 46 67 46M 67 10C 68.6569 10 70 11.3431 70 13M 10 43L 10 13M 70 43L 70 13M 13 46L 67 46M 13 46C 11.3431 46 10 44.6569 10 43"></path></g></g></g><g id="g-root-cp_2-4_g-2-4_18ly1g68o6qrp-stroke" data-item-order="-585966" transform="translate(798, 398)"><g id="cp_2-4_g-2-4_18ly1g68o6qrp-stroke" fill="none" stroke-linecap="round" stroke-linejoin="round" stroke-miterlimit="4" stroke="#ffffff" stroke-width="2" stroke-opacity="1"><g><path d="M 13 10C 11.3431 10 10 11.3431 10 13M 55 10L 13 10M 58 43C 58 44.6569 56.6569 46 55 46M 55 10C 56.6569 10 58 11.3431 58 13M 10 43L 10 13M 58 43L 58 13M 13 46L 55 46M 13 46C 11.3431 46 10 44.6569 10 43"></path></g></g></g><g id="g-root-cp_2-5_g-2-5_vahj2u8o6scm-stroke" data-item-order="-585930" transform="translate(798, 446)"><g id="cp_2-5_g-2-5_vahj2u8o6scm-stroke" fill="none" stroke-linecap="round" stroke-linejoin="round" stroke-miterlimit="4" stroke="#ffffff" stroke-width="2" stroke-opacity="1"><g><path d="M 13 10C 11.3431 10 10 11.3431 10 13M 139 10L 13 10M 142 55C 142 56.6569 140.6569 58 139 58M 139 10C 140.6569 10 142 11.3431 142 13M 10 55L 10 13M 142 55L 142 13M 13 58L 139 58M 13 58C 11.3431 58 10 56.6569 10 55"></path></g></g></g><g id="g-root-he_hznhsm8o6qrs-stroke" data-item-order="-585889" transform="translate(334, 206)"><g id="he_hznhsm8o6qrs-stroke" fill="none" stroke-linecap="round" stroke-linejoin="round" stroke-miterlimit="4" stroke="#484848" stroke-width="2" stroke-opacity="1"><g><path d="M 100 178L 58 178M 16 286L 58 286L 58 10L 16 10"></path></g></g></g><g id="g-root-he_hznhsm8o6qru-stroke" data-item-order="-585887" transform="translate(526, 374)"><g id="he_hznhsm8o6qru-stroke" fill="none" stroke-linecap="round" stroke-linejoin="round" stroke-miterlimit="4" stroke="#484848" stroke-width="2" stroke-opacity="1"><g><path d="M 16 10L 58 10L 58 10L 100 10"></path></g></g></g><g id="g-root-he_djtzo68o6rk4-stroke" data-item-order="-585885" transform="translate(170, 146)"><g id="he_djtzo68o6rk4-stroke" fill="none" stroke-linecap="round" stroke-linejoin="round" stroke-miterlimit="4" stroke="#de8431" stroke-width="2" stroke-opacity="1"><g><path d="M 40 70L 28 70M 16 130L 28 130L 28 10L 16 10M 28 70L 16 70"></path></g></g></g><g id="g-root-he_djtzo68o6rk6-stroke" data-item-order="-585883" transform="translate(762, 272)"><g id="he_djtzo68o6rk6-stroke" fill="none" stroke-linecap="round" stroke-linejoin="round" stroke-miterlimit="4" stroke="#e55753" stroke-width="2" stroke-opacity="1"><g><path d="M 16 112L 28 112M 40 10L 28 10L 28 208L 40 208M 28 58L 40 58M 28 106L 40 106M 28 154L 40 154"></path></g></g></g><g id="g-root-he_940hjq8o6scg-stroke" data-item-order="-585881" transform="translate(194, 362)"><g id="he_940hjq8o6scg-stroke" fill="none" stroke-linecap="round" stroke-linejoin="round" stroke-miterlimit="4" stroke="#de58a9" stroke-width="2" stroke-opacity="1"><g><path d="M 40 130L 28 130M 16 250L 28 250L 28 10L 16 10M 28 70L 16 70M 28 130L 16 130M 28 190L 16 190"></path></g></g></g><g id="g-root-tx_tematich_vvfa8o6rk3-stroke" data-item-order="0" transform="translate(632, 362)"></g><g id="g-root-tx_decamero_vbqh928oqdqi-stroke" data-item-order="0" transform="translate(442, 362)"></g><g id="g-root-tx_amore_dfgr868o84jm-stroke" data-item-order="0" transform="translate(804, 356)"></g><g id="g-root-tx_giornata_hteqxi8op1xe-stroke" data-item-order="0" transform="translate(92, 344)"></g><g id="g-root-tx_struttur_5vkye8om8el-stroke" data-item-order="0" transform="translate(310, 38)"></g><g id="g-root-tx_giornata_1qa3oie8op0qr-stroke" data-item-order="0" transform="translate(68, 404)"></g><g id="g-root-tx_pesteafi_qn6bx28onn5u-stroke" data-item-order="0" transform="translate(80, 128)"></g><g id="g-root-tx_beffa_v7zpw68o84cn-stroke" data-item-order="0" transform="translate(804, 404)"></g><g id="g-root-tx_giornata_1uo1rdi8oqfwi-stroke" data-item-order="0" transform="translate(68, 584)"></g><g id="g-root-tx_giornata_zpok468oozr8-stroke" data-item-order="0" transform="translate(80, 464)"></g><g id="g-root-tx_ingegno_1lseuae8o85c5-stroke" data-item-order="0" transform="translate(804, 308)"></g><g id="g-root-tx_suddivis_hx5lg68oqe4t-stroke" data-item-order="0" transform="translate(240, 464)"></g><g id="g-root-tx_criticaa_1lvj7py8o86is-stroke" data-item-order="0" transform="translate(804, 452)"></g><g id="g-root-tx_vitaordi_5vkye8onncw-stroke" data-item-order="0" transform="translate(56, 248)"></g><g id="g-root-tx_giornata_m7zavq8oqdxc-stroke" data-item-order="0" transform="translate(68, 524)"></g><g id="g-root-tx_struttur_4pfxli8onklh-stroke" data-item-order="0" transform="translate(216, 194)"></g><g id="g-root-tx_brigatad_18hkpue8onlzb-stroke" data-item-order="0" transform="translate(68, 188)"></g><g id="g-root-tx_fortuna_13zvvme8o85j4-stroke" data-item-order="0" transform="translate(804, 260)"></g></g></g></svg>