<?xml version="1.0" encoding="utf-8" standalone="yes"?>
<!DOCTYPE svg PUBLIC "-//W3C//DTD SVG 1.1//EN" "http://www.w3.org/Graphics/SVG/1.1/DTD/svg11.dtd">
<svg style="fill:none;stroke:none;fill-rule:evenodd;clip-rule:evenodd;stroke-linecap:round;stroke-linejoin:round;stroke-miterlimit:1.5;" version="1.1" xmlns="http://www.w3.org/2000/svg" xmlns:xlink="http://www.w3.org/1999/xlink" width="1044" height="792" viewBox="0 0 1044 792"><style class="text-font-style fontImports" data-font-family="Roboto">@import url(https://fonts.googleapis.com/css2?family=Roboto:wght@400;700&amp;amp;display=block);</style><rect id="" x="0" y="0" width="1044" height="792" style="fill: #ffffff;"></rect><g id="items" style="isolation: isolate"><g id="blend" style="mix-blend-mode: normal"><g id="g-root-tf_6i5317unf29-fill" data-item-order="-1240272"><g id="tf_6i5317unf29-fill-merged" stroke="none" fill="#ffffff" fill-opacity="1"><g><path d="M0 0 H1044 V792 H0 V0"></path></g></g></g><g id="g-root-cp_5_g-5_mfh64d7uc64l-fill" data-item-order="-693206" transform="translate(512, 200)"><g id="cp_5_g-5_mfh64d7uc64l-fill-merged" stroke="none" fill="#ba5de5" fill-opacity="1"><g><path d="M15.369 45.96C11.977 44.662 10.193 42.982 10.015 41.282C10.005 41.188 10 41.094 10 41C10 39.205 11.79 37.409 15.369 36.04L78.039 12.055C85.197 9.315 96.803 9.315 103.961 12.055L166.631 36.04C170.206 37.408 171.996 39.2 172 40.993C172 40.998 172 41.002 172 41.007C171.996 42.8 170.206 44.592 166.631 45.96L103.961 69.945C96.803 72.685 85.197 72.685 78.039 69.945L66 65.338L23.251 48.977L15.369 45.96 M166.631 45.96L103.961 69.945C96.803 72.685 85.197 72.685 78.039 69.945L66 65.338 V85.838L78.039 90.445C85.197 93.185 96.803 93.185 103.961 90.445L166.631 66.46C170.206 65.092 171.996 63.3 172 61.507 V41.007C171.996 42.8 170.206 44.592 166.631 45.96 M10.013 41.282 V55.617L23.251 48.977L15.369 45.96C11.977 44.662 10.193 42.982 10.015 41.282"></path></g></g></g><g id="g-root-cp_4_g-4_dju5vh7uc6xa-fill" data-item-order="-693202" transform="translate(350.4410095214844, 239)"><g id="cp_4_g-4_dju5vh7uc6xa-fill-merged" stroke="none" fill="#de58a9" fill-opacity="1"><g><path d="M213.138 41.013L170.306 24.752 V17.229L213.138 33.49L227.559 26.286 V46.809L171.987 103.763 V116.115L158.749 109.475L166.631 106.458C170.023 105.16 171.807 103.48 171.985 101.78C171.995 101.686 172 101.592 172 101.498C172 99.703 170.21 97.908 166.631 96.538L155.686 92.349L170.306 85.012L127.475 68.75 V61.227L170.306 77.488L184.579 70.345L141.76 54.084 V46.561L184.579 62.822L198.853 55.679L156.021 39.417 V31.895L198.865 48.156L202.645 46.254L213.138 41.013 M141.76 54.084L184.579 70.345L170.306 77.488L127.487 61.227L141.76 54.084 M156.021 39.417L198.853 55.679L184.579 62.822L141.76 46.561L156.021 39.417 M213.138 41.013L202.645 46.254L198.865 48.156L156.021 31.895L170.306 24.752L213.138 41.013 M227.559 26.286L213.138 33.49L170.306 17.229L184.764 10L227.559 26.286 M166.631 106.458C170.023 105.16 171.807 103.48 171.985 101.78C171.995 101.686 172 101.592 172 101.498C172 99.703 170.21 97.908 166.631 96.538L155.686 92.349L112.985 76.007L103.961 72.553C96.803 69.813 85.197 69.813 78.039 72.553L15.369 96.538C11.794 97.906 10.004 99.698 10 101.491C10 101.496 10 101.5 10 101.505C10.004 103.298 11.794 105.09 15.369 106.458L78.039 130.443C85.197 133.183 96.803 133.183 103.961 130.443L116 125.836L158.749 109.475L166.631 106.458 M127.475 68.75L170.306 85.012L155.686 92.349L112.985 76.007L127.475 68.75 M15.369 106.458L78.039 130.443C85.197 133.183 96.803 133.183 103.961 130.443L116 125.836 V146.336L103.961 150.943C96.803 153.683 85.197 153.683 78.039 150.943L15.369 126.958C11.794 125.59 10.004 123.798 10 122.005 V101.505C10.004 103.298 11.794 105.09 15.369 106.458"></path></g></g></g><g id="g-root-cp_3_g-3_904l97uc5cf-fill" data-item-order="-693198" transform="translate(456.4410095214844, 338.501953125)"><g id="cp_3_g-3_904l97uc5cf-fill-merged" stroke="none" fill="#e55753" fill-opacity="1"><g><path d="M24.42 41.013L67.252 24.752 V17.229L24.42 33.49L10 26.286 V46.809L65.572 103.763 V116.115L78.809 109.475L70.927 106.458C67.536 105.16 65.751 103.48 65.573 101.78C65.563 101.686 65.559 101.592 65.559 101.498C65.559 99.703 67.348 97.908 70.927 96.538L81.872 92.349L67.252 85.012L110.084 68.75 V61.227L67.252 77.488L52.979 70.345L95.799 54.084 V46.561L52.979 62.822L38.706 55.679L81.538 39.417 V31.895L38.694 48.156L34.914 46.254L24.42 41.013 M95.799 54.084L52.979 70.345L67.252 77.488L110.072 61.227L95.799 54.084 M81.538 39.417L38.706 55.679L52.979 62.822L95.799 46.561L81.538 39.417 M24.42 41.013L34.914 46.254L38.694 48.156L81.538 31.895L67.252 24.752L24.42 41.013 M10 26.286L24.42 33.49L67.252 17.229L52.795 10L10 26.286 M70.927 106.458C67.536 105.16 65.751 103.48 65.573 101.78C65.563 101.686 65.559 101.592 65.559 101.498C65.559 99.703 67.348 97.908 70.927 96.538L81.872 92.349L124.573 76.007L133.598 72.553C140.756 69.813 152.361 69.813 159.52 72.553L222.19 96.538C225.765 97.906 227.554 99.698 227.559 101.491C227.559 101.496 227.559 101.5 227.559 101.505C227.554 103.298 225.765 105.09 222.19 106.458L159.52 130.443C152.361 133.183 140.756 133.183 133.598 130.443L121.559 125.836L78.809 109.475L70.927 106.458 M110.084 68.75L67.252 85.012L81.872 92.349L124.573 76.007L110.084 68.75 M222.19 106.458L159.52 130.443C152.361 133.183 140.756 133.183 133.598 130.443L121.559 125.836 V146.336L133.598 150.943C140.756 153.683 152.361 153.683 159.52 150.943L222.19 126.958C225.765 125.59 227.554 123.798 227.559 122.005 V101.505C227.554 103.298 225.765 105.09 222.19 106.458"></path></g></g></g><g id="g-root-cp_2_g-2_1qeh6bh7uc6ps-fill" data-item-order="-693194" transform="translate(350.4410095214844, 438)"><g id="cp_2_g-2_1qeh6bh7uc6ps-fill-merged" stroke="none" fill="#de8431" fill-opacity="1"><g><path d="M213.138 41.013L170.306 24.752 V17.229L213.138 33.49L227.559 26.286 V46.809L171.987 103.763 V116.115L158.749 109.475L166.631 106.458C170.023 105.16 171.807 103.48 171.985 101.78C171.995 101.686 172 101.592 172 101.498C172 99.703 170.21 97.908 166.631 96.538L155.686 92.349L170.306 85.012L127.475 68.75 V61.227L170.306 77.488L184.579 70.345L141.76 54.084 V46.561L184.579 62.822L198.853 55.679L156.021 39.417 V31.895L198.865 48.156L202.645 46.254L213.138 41.013 M141.76 54.084L184.579 70.345L170.306 77.488L127.487 61.227L141.76 54.084 M156.021 39.417L198.853 55.679L184.579 62.822L141.76 46.561L156.021 39.417 M213.138 41.013L202.645 46.254L198.865 48.156L156.021 31.895L170.306 24.752L213.138 41.013 M227.559 26.286L213.138 33.49L170.306 17.229L184.764 10L227.559 26.286 M166.631 106.458C170.023 105.16 171.807 103.48 171.985 101.78C171.995 101.686 172 101.592 172 101.498C172 99.703 170.21 97.908 166.631 96.538L155.686 92.349L112.985 76.007L103.961 72.553C96.803 69.813 85.197 69.813 78.039 72.553L15.369 96.538C11.794 97.906 10.004 99.698 10 101.491C10 101.496 10 101.5 10 101.505C10.004 103.298 11.794 105.09 15.369 106.458L78.039 130.443C85.197 133.183 96.803 133.183 103.961 130.443L116 125.836L158.749 109.475L166.631 106.458 M127.475 68.75L170.306 85.012L155.686 92.349L112.985 76.007L127.475 68.75 M15.369 106.458L78.039 130.443C85.197 133.183 96.803 133.183 103.961 130.443L116 125.836 V146.336L103.961 150.943C96.803 153.683 85.197 153.683 78.039 150.943L15.369 126.958C11.794 125.59 10.004 123.798 10 122.005 V101.505C10.004 103.298 11.794 105.09 15.369 106.458"></path></g></g></g><g id="g-root-cp_1_g-1_1hiu62l7uc7ih-fill" data-item-order="-693190" transform="translate(456.22100830078125, 537.501953125)"><g id="cp_1_g-1_1hiu62l7uc7ih-fill-merged" stroke="none" fill="#e0cb15" fill-opacity="1"><g><path d="M24.42 41.013L67.252 24.752 V17.229L24.42 33.49L10 26.286 V46.809L65.572 103.763 V121.998C65.559 123.793 67.348 125.589 70.927 126.958L133.598 150.943C140.756 153.683 152.361 153.683 159.52 150.943L222.19 126.958C225.765 125.59 227.554 123.798 227.559 122.005 V101.505C227.554 103.298 225.765 105.09 222.19 106.458L159.52 130.443C152.361 133.183 140.756 133.183 133.598 130.443L70.927 106.458C67.536 105.16 65.751 103.48 65.573 101.78C65.563 101.686 65.559 101.592 65.559 101.498C65.559 99.703 67.348 97.908 70.927 96.538L81.872 92.349L67.252 85.012L110.084 68.75 V61.227L67.252 77.488L52.979 70.345L95.799 54.084 V46.561L52.979 62.822L38.706 55.679L81.538 39.417 V31.895L38.694 48.156L34.914 46.254L24.42 41.013 M222.19 96.538L159.52 72.553C152.361 69.813 140.756 69.813 133.598 72.553L124.573 76.007L81.872 92.349L70.927 96.538C67.348 97.908 65.559 99.703 65.559 101.498C65.559 101.592 65.563 101.686 65.573 101.78C65.751 103.48 67.536 105.16 70.927 106.458L133.598 130.443C140.756 133.183 152.361 133.183 159.52 130.443L222.19 106.458C225.765 105.09 227.554 103.298 227.559 101.505C227.554 99.698 225.765 97.906 222.19 96.538 M110.084 68.75L67.252 85.012L81.872 92.349L124.573 76.007L110.084 68.75 M95.799 54.084L52.979 70.345L67.252 77.488L110.072 61.227L95.799 54.084 M81.538 39.417L38.706 55.679L52.979 62.822L95.799 46.561L81.538 39.417 M24.42 41.013L34.914 46.254L38.694 48.156L81.538 31.895L67.252 24.752L24.42 41.013 M10 26.286L24.42 33.49L67.252 17.229L52.795 10L10 26.286 M227.559 101.491C227.559 101.496 227.559 101.5 227.559 101.505"></path></g></g></g><g id="g-root-cp_1_number_mgq4al7uc8aq-fill" data-item-order="-693176" transform="translate(698, 608)"><g id="cp_1_number_mgq4al7uc8aq-fill-merged" stroke="none" fill="#e0cb15" fill-opacity="1"><g><path d="M10 40C10 23.431 23.431 10 40 10C56.569 10 70 23.431 70 40C70 56.569 56.569 70 40 70C23.431 70 10 56.569 10 40"></path></g></g></g><g id="g-root-cp_2_number_1_8vwhml7udlab-fill" data-item-order="-693158" transform="translate(266, 512)"><g id="cp_2_number_1_8vwhml7udlab-fill-merged" stroke="none" fill="#de8431" fill-opacity="1"><g><path d="M10 40C10 23.431 23.431 10 40 10C56.569 10 70 23.431 70 40C70 56.569 56.569 70 40 70C23.431 70 10 56.569 10 40"></path></g></g></g><g id="g-root-cp_3_number_2_1ulk18d7udmo4-fill" data-item-order="-693140" transform="translate(698, 410)"><g id="cp_3_number_2_1ulk18d7udmo4-fill-merged" stroke="none" fill="#e55753" fill-opacity="1"><g><path d="M10 40C10 23.431 23.431 10 40 10C56.569 10 70 23.431 70 40C70 56.569 56.569 70 40 70C23.431 70 10 56.569 10 40"></path></g></g></g><g id="g-root-cp_4_number_3_1lqji2l7udkb1-fill" data-item-order="-693122" transform="translate(266, 314)"><g id="cp_4_number_3_1lqji2l7udkb1-fill-merged" stroke="none" fill="#de58a9" fill-opacity="1"><g><path d="M10 40C10 23.431 23.431 10 40 10C56.569 10 70 23.431 70 40C70 56.569 56.569 70 40 70C23.431 70 10 56.569 10 40"></path></g></g></g><g id="g-root-cp_5_number_4_1hapzy57udl3a-fill" data-item-order="-693104" transform="translate(698, 206)"><g id="cp_5_number_4_1hapzy57udl3a-fill-merged" stroke="none" fill="#ba5de5" fill-opacity="1"><g><path d="M10 40C10 23.431 23.431 10 40 10C56.569 10 70 23.431 70 40C70 56.569 56.569 70 40 70C23.431 70 10 56.569 10 40"></path></g></g></g><g id="g-root-tx_ruolodel_18jgbb17um0ox-fill" data-item-order="0" transform="translate(110, 314)"><g id="tx_ruolodel_18jgbb17um0ox-fill-merged" stroke="none" fill="#de58a9" fill-opacity="1"><g><text style="font: bold 20px Roboto, sans-serif; white-space: pre;" font-weight="bold" font-size="20px" font-family="Roboto, sans-serif"><tspan x="88.11" y="33.84" dominant-baseline="ideographic">Ruolo </tspan><tspan x="15.83" y="57.85" dominant-baseline="ideographic">dell'Induzione</tspan></text></g></g></g><g id="g-root-tx_4_zpoqbh7undvz-fill" data-item-order="0" transform="translate(284, 326)"><g id="tx_4_zpoqbh7undvz-fill-merged" stroke="none" fill="#ffffff" fill-opacity="1"><g><text style="font: bold 25px Roboto, sans-serif; white-space: pre;" font-weight="bold" font-size="25px" font-family="Roboto, sans-serif"><tspan x="14.82" y="43" dominant-baseline="ideographic">4</tspan></text></g></g></g><g id="g-root-ic_1_de7w3h7um0ap-fill" data-item-order="0" transform="translate(566, 326)"></g><g id="g-root-tx_conclude_1d2e6v17uneh5-fill" data-item-order="0" transform="translate(782, 242)"><g id="tx_conclude_1d2e6v17uneh5-fill-merged" stroke="none" fill="#484848" fill-opacity="1"><g><text style="font: 15px Roboto, sans-serif; white-space: pre;" font-size="15px" font-family="Roboto, sans-serif"><tspan x="12" y="30.68" dominant-baseline="ideographic">Concludere che le </tspan><tspan x="12" y="48.69" dominant-baseline="ideographic">proposizioni metafisiche </tspan><tspan x="12" y="66.69" dominant-baseline="ideographic">sono insensate a causa </tspan><tspan x="12" y="84.7" dominant-baseline="ideographic">della loro non </tspan><tspan x="12" y="102.7" dominant-baseline="ideographic">verificabilità.</tspan></text></g></g></g><g id="g-root-tx_esaminar_4lp9a57um29u-fill" data-item-order="0" transform="translate(62, 374)"><g id="tx_esaminar_4lp9a57um29u-fill-merged" stroke="none" fill="#484848" fill-opacity="1"><g><text style="font: 15px Roboto, sans-serif; white-space: pre;" font-size="15px" font-family="Roboto, sans-serif"><tspan x="13.17" y="30.69" dominant-baseline="ideographic">Esaminare il ruolo e i limiti </tspan><tspan x="73.52" y="48.69" dominant-baseline="ideographic">dell'induzione nel </tspan><tspan x="74.84" y="66.7" dominant-baseline="ideographic">verificazionismo.</tspan></text></g></g></g><g id="g-root-tx_5_1lvjarh7uq9dx-fill" data-item-order="0" transform="translate(716, 218)"><g id="tx_5_1lvjarh7uq9dx-fill-merged" stroke="none" fill="#ffffff" fill-opacity="1"><g><text style="font: bold 25px Roboto, sans-serif; white-space: pre;" font-weight="bold" font-size="25px" font-family="Roboto, sans-serif"><tspan x="14.82" y="43" dominant-baseline="ideographic">5</tspan></text></g></g></g><g id="g-root-tx_3_4kgb3x7um03s-fill" data-item-order="0" transform="translate(716, 422)"><g id="tx_3_4kgb3x7um03s-fill-merged" stroke="none" fill="#ffffff" fill-opacity="1"><g><text style="font: bold 25px Roboto, sans-serif; white-space: pre;" font-weight="bold" font-size="25px" font-family="Roboto, sans-serif"><tspan x="14.82" y="43" dominant-baseline="ideographic">3</tspan></text></g></g></g><g id="g-root-tx_criterio_4gpgl97um233-fill" data-item-order="0" transform="translate(782, 410)"><g id="tx_criterio_4gpgl97um233-fill-merged" stroke="none" fill="#e55753" fill-opacity="1"><g><text style="font: bold 20px Roboto, sans-serif; white-space: pre;" font-weight="bold" font-size="20px" font-family="Roboto, sans-serif"><tspan x="12" y="33.84" dominant-baseline="ideographic">Criterio di </tspan><tspan x="12" y="57.85" dominant-baseline="ideographic">Demarcazione</tspan></text></g></g></g><g id="g-root-ic_sear_me87y57um22r-fill" data-item-order="0" transform="translate(386, 230)"></g><g id="g-root-ic_man_1ly173x7uj7yd-fill" data-item-order="0" transform="translate(386, 428)"></g><g id="g-root-tx_utilizza_140ifr17um0ao-fill" data-item-order="0" transform="translate(782, 470)"><g id="tx_utilizza_140ifr17um0ao-fill-merged" stroke="none" fill="#484848" fill-opacity="1"><g><text style="font: 15px Roboto, sans-serif; white-space: pre;" font-size="15px" font-family="Roboto, sans-serif"><tspan x="12" y="30.68" dominant-baseline="ideographic">Utilizzare il principio di </tspan><tspan x="12" y="48.69" dominant-baseline="ideographic">verificazione per </tspan><tspan x="12" y="66.69" dominant-baseline="ideographic">distinguere tra </tspan><tspan x="12" y="84.7" dominant-baseline="ideographic">proposizioni sensate e </tspan><tspan x="12" y="102.7" dominant-baseline="ideographic">insensate.</tspan></text></g></g></g><g id="g-root-tx_principi_1urss3h7uj85f-fill" data-item-order="0" transform="translate(110, 512)"><g id="tx_principi_1urss3h7uj85f-fill-merged" stroke="none" fill="#de8431" fill-opacity="1"><g><text style="font: bold 20px Roboto, sans-serif; white-space: pre;" font-weight="bold" font-size="20px" font-family="Roboto, sans-serif"><tspan x="38.21" y="33.84" dominant-baseline="ideographic">Principio di </tspan><tspan x="21.85" y="57.85" dominant-baseline="ideographic">Verificazione</tspan></text></g></g></g><g id="g-root-tx_metafisi_7r6f17unfgg-fill" data-item-order="0" transform="translate(782, 206)"><g id="tx_metafisi_7r6f17unfgg-fill-merged" stroke="none" fill="#ba5de5" fill-opacity="1"><g><text style="font: bold 20px Roboto, sans-serif; white-space: pre;" font-weight="bold" font-size="20px" font-family="Roboto, sans-serif"><tspan x="12" y="33.85" dominant-baseline="ideographic">Metafisica</tspan></text></g></g></g><g id="g-root-tx_2_v3008t7um232-fill" data-item-order="0" transform="translate(284, 524)"><g id="tx_2_v3008t7um232-fill-merged" stroke="none" fill="#ffffff" fill-opacity="1"><g><text style="font: bold 25px Roboto, sans-serif; white-space: pre;" font-weight="bold" font-size="25px" font-family="Roboto, sans-serif"><tspan x="14.82" y="43" dominant-baseline="ideographic">2</tspan></text></g></g></g><g id="g-root-ic_2_1cy0v997udma2-fill" data-item-order="0" transform="translate(566, 524)"></g><g id="g-root-ic_ques_94n4u57ung22-fill" data-item-order="0" transform="translate(566, 122)"></g><g id="g-root-tx_introdur_quo75p7uj6kk-fill" data-item-order="0" transform="translate(62, 572)"><g id="tx_introdur_quo75p7uj6kk-fill-merged" stroke="none" fill="#484848" fill-opacity="1"><g><text style="font: 15px Roboto, sans-serif; white-space: pre;" font-size="15px" font-family="Roboto, sans-serif"><tspan x="49.07" y="27.69" dominant-baseline="ideographic">Introdurre il concetto </tspan><tspan x="15.69" y="45.69" dominant-baseline="ideographic">chiave di verifica empirica </tspan><tspan x="71.29" y="63.69" dominant-baseline="ideographic">per determinare il </tspan><tspan x="114.66" y="81.7" dominant-baseline="ideographic">significato.</tspan></text></g></g></g><g id="g-root-tx_passiver_18f2zp97udlvz-fill" data-item-order="0" transform="translate(332, 38)"><g id="tx_passiver_18f2zp97udlvz-fill-merged" stroke="none" fill="#484848" fill-opacity="1"><g><text style="font: bold 25px Roboto, sans-serif; white-space: pre;" font-weight="bold" font-size="25px" font-family="Roboto, sans-serif"><tspan x="17.48" y="43" dominant-baseline="ideographic">Passi verso il Verificazionismo</tspan></text></g></g></g><g id="g-root-tx_1_qssrwd7uj7ka-fill" data-item-order="0" transform="translate(716, 620)"><g id="tx_1_qssrwd7uj7ka-fill-merged" stroke="none" fill="#ffffff" fill-opacity="1"><g><text style="font: bold 25px Roboto, sans-serif; white-space: pre;" font-weight="bold" font-size="25px" font-family="Roboto, sans-serif"><tspan x="14.82" y="43" dominant-baseline="ideographic">1</tspan></text></g></g></g><g id="g-root-tx_contesto_dcyxx97udmo8-fill" data-item-order="0" transform="translate(782, 608)"><g id="tx_contesto_dcyxx97udmo8-fill-merged" stroke="none" fill="#e0cb15" fill-opacity="1"><g><text style="font: bold 20px Roboto, sans-serif; white-space: pre;" font-weight="bold" font-size="20px" font-family="Roboto, sans-serif"><tspan x="12" y="33.84" dominant-baseline="ideographic">Contesto e </tspan><tspan x="12" y="57.85" dominant-baseline="ideographic">Obiettivo</tspan></text></g></g></g><g id="g-root-tx_stabilir_v5hwl97udmh5-fill" data-item-order="0" transform="translate(782, 668)"><g id="tx_stabilir_v5hwl97udmh5-fill-merged" stroke="none" fill="#484848" fill-opacity="1"><g><text style="font: 15px Roboto, sans-serif; white-space: pre;" font-size="15px" font-family="Roboto, sans-serif"><tspan x="12" y="30.69" dominant-baseline="ideographic">Stabilire le basi filosofiche </tspan><tspan x="12" y="48.69" dominant-baseline="ideographic">e gli obiettivi del Circolo di </tspan><tspan x="12" y="66.7" dominant-baseline="ideographic">Vienna.</tspan></text></g></g></g><g id="g-root-tf_6i5317unf29-stroke" data-item-order="-1240272"></g><g id="g-root-cp_5_g-5_mfh64d7uc64l-stroke" data-item-order="-693206" transform="translate(512, 200)"><g id="cp_5_g-5_mfh64d7uc64l-stroke" fill="none" stroke-linecap="round" stroke-linejoin="round" stroke-miterlimit="4" stroke="#ffffff" stroke-width="2" stroke-opacity="1"><g><path d="M 15.3686 45.9603C 11.9771 44.6624 10.1925 42.9823 10.0148 41.2823C 10.0049 41.1882 10 41.0941 10 41C 10 39.2047 11.7895 37.4094 15.3686 36.0397L 78.0391 12.0546C 85.1972 9.3151 96.8028 9.3151 103.9609 12.0546L 166.6314 36.0397C 170.2061 37.4077 171.9956 39.2003 172 40.9933C 172 40.9978 172 41.0022 172 41.0067C 171.9956 42.7997 170.2061 44.5923 166.6314 45.9603L 103.9609 69.9454C 96.8028 72.6849 85.1972 72.6849 78.0391 69.9454L 66 65.3378L 23.2507 48.9769L 15.3686 45.9603ZM 166.6314 45.9603L 103.9609 69.9454C 96.8028 72.6849 85.1972 72.6849 78.0391 69.9454L 66 65.3378L 66 85.8378L 78.0391 90.4454C 85.1972 93.1849 96.8028 93.1849 103.9609 90.4454L 166.6314 66.4603C 170.2061 65.0923 171.9956 63.2997 172 61.5067L 172 41.0067C 171.9956 42.7997 170.2061 44.5923 166.6314 45.9603ZM 10.0148 41.2823L 10.0133 43.2651L 10.0043 55.6165L 23.2507 48.9769L 15.3686 45.9603C 11.9771 44.6624 10.1925 42.9823 10.0148 41.2823ZM 172 40.9933L 172 41.0067L 172 40.9933Z"></path></g></g></g><g id="g-root-cp_4_g-4_dju5vh7uc6xa-stroke" data-item-order="-693202" transform="translate(350.4410095214844, 239)"><g id="cp_4_g-4_dju5vh7uc6xa-stroke" fill="none" stroke-linecap="round" stroke-linejoin="round" stroke-miterlimit="4" stroke="#ffffff" stroke-width="2" stroke-opacity="1"><g><path d="M 170.3064 77.4884L 170.3064 85.0116L 127.4745 68.7503L 127.4868 61.2269L 170.3064 77.4884ZM 141.7599 54.0837L 184.5795 70.3453L 170.3064 77.4884L 127.4868 61.2269L 141.7599 54.0837ZM 184.5795 62.8221L 184.5795 70.3453L 141.7599 54.0837L 141.76 46.5607L 184.5795 62.8221ZM 156.0209 39.4174L 198.8527 55.6794L 184.5795 62.8221L 141.76 46.5607L 156.0209 39.4174ZM 198.865 48.1558L 198.8527 55.6794L 156.0209 39.4174L 156.0209 31.8946L 198.865 48.1558ZM 213.1382 41.0132L 202.645 46.2536L 198.865 48.1558L 156.0209 31.8946L 170.3064 24.7519L 213.1382 41.0132ZM 213.1382 33.49L 213.1382 41.0132L 170.3064 24.7519L 170.3063 17.2286L 213.1382 33.49ZM 227.5586 26.2859L 213.1382 33.49L 170.3063 17.2286L 184.7636 10L 227.5586 26.2859ZM 166.6314 106.4584C 170.0229 105.1604 171.8075 103.4804 171.9853 101.7803C 171.9951 101.6863 172 101.5922 172 101.498C 172 99.7028 170.2105 97.9075 166.6314 96.5377L 155.6863 92.3489L 112.9854 76.0065L 103.9609 72.5527C 96.8028 69.8132 85.1972 69.8132 78.0391 72.5527L 15.3686 96.5377C 11.794 97.9058 10.0044 99.6983 10 101.4914C 10 101.4958 10 101.5003 10 101.5047C 10.0044 103.2978 11.794 105.0903 15.3686 106.4584L 78.0391 130.4434C 85.1972 133.1829 96.8028 133.1829 103.9609 130.4434L 116 125.8358L 158.7494 109.475L 166.6314 106.4584ZM 213.1382 41.0132L 213.1382 33.49L 227.5586 26.2859L 227.5586 46.8091L 171.9867 103.7632L 171.9853 101.7803C 171.9951 101.6863 172 101.5922 172 101.498C 172 99.7028 170.2105 97.9075 166.6314 96.5377L 155.6863 92.3489L 170.3064 85.0116L 170.3064 77.4884L 184.5795 70.3453L 184.5795 62.8221L 198.8527 55.6794L 198.865 48.1558L 202.645 46.2536L 213.1382 41.0132ZM 127.4745 68.7503L 170.3064 85.0116L 155.6863 92.3489L 112.9854 76.0065L 127.4745 68.7503ZM 15.3686 106.4584L 78.0391 130.4434C 85.1972 133.1829 96.8028 133.1829 103.9609 130.4434L 116 125.8358L 116 146.3358L 103.9609 150.9434C 96.8028 153.6829 85.1972 153.6829 78.0391 150.9434L 15.3686 126.9584C 11.794 125.5903 10.0044 123.7978 10 122.0047L 10 101.5047C 10.0044 103.2978 11.794 105.0903 15.3686 106.4584ZM 171.9867 103.7632L 171.9853 101.7803C 171.8075 103.4804 170.0229 105.1604 166.6314 106.4584L 158.7494 109.475L 171.9957 116.1146L 171.9867 103.7632ZM 10 101.4914L 10 101.5047L 10 101.4914Z"></path></g></g></g><g id="g-root-cp_3_g-3_904l97uc5cf-stroke" data-item-order="-693198" transform="translate(456.4410095214844, 338.501953125)"><g id="cp_3_g-3_904l97uc5cf-stroke" fill="none" stroke-linecap="round" stroke-linejoin="round" stroke-miterlimit="4" stroke="#ffffff" stroke-width="2" stroke-opacity="1"><g><path d="M 67.2522 77.4884L 67.2522 85.0116L 110.0841 68.7503L 110.0718 61.2269L 67.2522 77.4884ZM 95.7987 54.0837L 52.9791 70.3453L 67.2522 77.4884L 110.0718 61.2269L 95.7987 54.0837ZM 52.9791 62.8221L 52.9791 70.3453L 95.7987 54.0837L 95.7986 46.5607L 52.9791 62.8221ZM 81.5377 39.4174L 38.7059 55.6794L 52.9791 62.8221L 95.7986 46.5607L 81.5377 39.4174ZM 38.6936 48.1558L 38.7059 55.6794L 81.5377 39.4174L 81.5377 31.8946L 38.6936 48.1558ZM 24.4205 41.0132L 34.9136 46.2536L 38.6936 48.1558L 81.5377 31.8946L 67.2523 24.7519L 24.4205 41.0132ZM 24.4205 33.49L 24.4205 41.0132L 67.2523 24.7519L 67.2523 17.2286L 24.4205 33.49ZM 10 26.2859L 24.4205 33.49L 67.2523 17.2286L 52.795 10L 10 26.2859ZM 70.9272 106.4584C 67.5357 105.1604 65.7511 103.4804 65.5733 101.7803C 65.5635 101.6863 65.5586 101.5922 65.5586 101.498C 65.5586 99.7028 67.3481 97.9075 70.9272 96.5377L 81.8723 92.3489L 124.5732 76.0065L 133.5977 72.5527C 140.7558 69.8132 152.3614 69.8132 159.5195 72.5527L 222.19 96.5377C 225.7646 97.9058 227.5542 99.6983 227.5586 101.4914C 227.5586 101.4958 227.5586 101.5003 227.5586 101.5047C 227.5542 103.2978 225.7646 105.0903 222.19 106.4584L 159.5195 130.4434C 152.3614 133.1829 140.7558 133.1829 133.5977 130.4434L 121.5586 125.8358L 78.8092 109.475L 70.9272 106.4584ZM 24.4205 41.0132L 24.4205 33.49L 10 26.2859L 10 46.8091L 65.5719 103.7632L 65.5733 101.7803C 65.5635 101.6863 65.5586 101.5922 65.5586 101.498C 65.5586 99.7028 67.3481 97.9075 70.9272 96.5377L 81.8723 92.3489L 67.2522 85.0116L 67.2522 77.4884L 52.9791 70.3453L 52.9791 62.8221L 38.7059 55.6794L 38.6936 48.1558L 34.9136 46.2536L 24.4205 41.0132ZM 110.0841 68.7503L 67.2522 85.0116L 81.8723 92.3489L 124.5732 76.0065L 110.0841 68.7503ZM 222.19 106.4584L 159.5195 130.4434C 152.3614 133.1829 140.7558 133.1829 133.5977 130.4434L 121.5586 125.8358L 121.5586 146.3358L 133.5977 150.9434C 140.7558 153.6829 152.3614 153.6829 159.5195 150.9434L 222.19 126.9584C 225.7646 125.5903 227.5542 123.7978 227.5586 122.0047L 227.5586 101.5047C 227.5542 103.2978 225.7646 105.0903 222.19 106.4584ZM 65.5733 101.7803L 65.5719 103.7632L 65.5629 116.1146L 78.8092 109.475L 70.9272 106.4584C 67.5357 105.1604 65.7511 103.4804 65.5733 101.7803ZM 227.5586 101.4914L 227.5586 101.5047L 227.5586 101.4914Z"></path></g></g></g><g id="g-root-cp_2_g-2_1qeh6bh7uc6ps-stroke" data-item-order="-693194" transform="translate(350.4410095214844, 438)"><g id="cp_2_g-2_1qeh6bh7uc6ps-stroke" fill="none" stroke-linecap="round" stroke-linejoin="round" stroke-miterlimit="4" stroke="#ffffff" stroke-width="2" stroke-opacity="1"><g><path d="M 170.3064 77.4884L 170.3064 85.0116L 127.4745 68.7503L 127.4868 61.2269L 170.3064 77.4884ZM 141.7599 54.0837L 184.5795 70.3453L 170.3064 77.4884L 127.4868 61.2269L 141.7599 54.0837ZM 184.5795 62.8221L 184.5795 70.3453L 141.7599 54.0837L 141.76 46.5607L 184.5795 62.8221ZM 156.0209 39.4174L 198.8527 55.6794L 184.5795 62.8221L 141.76 46.5607L 156.0209 39.4174ZM 198.865 48.1558L 198.8527 55.6794L 156.0209 39.4174L 156.0209 31.8946L 198.865 48.1558ZM 213.1382 41.0132L 202.645 46.2536L 198.865 48.1558L 156.0209 31.8946L 170.3064 24.7519L 213.1382 41.0132ZM 213.1382 33.49L 213.1382 41.0132L 170.3064 24.7519L 170.3063 17.2286L 213.1382 33.49ZM 227.5586 26.2859L 213.1382 33.49L 170.3063 17.2286L 184.7636 10L 227.5586 26.2859ZM 166.6314 106.4584C 170.0229 105.1604 171.8075 103.4804 171.9853 101.7803C 171.9951 101.6863 172 101.5922 172 101.498C 172 99.7028 170.2105 97.9075 166.6314 96.5377L 155.6863 92.3489L 112.9854 76.0065L 103.9609 72.5527C 96.8028 69.8132 85.1972 69.8132 78.0391 72.5527L 15.3686 96.5377C 11.794 97.9058 10.0044 99.6983 10 101.4914C 10 101.4958 10 101.5003 10 101.5047C 10.0044 103.2978 11.794 105.0903 15.3686 106.4584L 78.0391 130.4434C 85.1972 133.1829 96.8028 133.1829 103.9609 130.4434L 116 125.8358L 158.7494 109.475L 166.6314 106.4584ZM 213.1382 41.0132L 213.1382 33.49L 227.5586 26.2859L 227.5586 46.8091L 171.9867 103.7632L 171.9853 101.7803C 171.9951 101.6863 172 101.5922 172 101.498C 172 99.7028 170.2105 97.9075 166.6314 96.5377L 155.6863 92.3489L 170.3064 85.0116L 170.3064 77.4884L 184.5795 70.3453L 184.5795 62.8221L 198.8527 55.6794L 198.865 48.1558L 202.645 46.2536L 213.1382 41.0132ZM 127.4745 68.7503L 170.3064 85.0116L 155.6863 92.3489L 112.9854 76.0065L 127.4745 68.7503ZM 15.3686 106.4584L 78.0391 130.4434C 85.1972 133.1829 96.8028 133.1829 103.9609 130.4434L 116 125.8358L 116 146.3358L 103.9609 150.9434C 96.8028 153.6829 85.1972 153.6829 78.0391 150.9434L 15.3686 126.9584C 11.794 125.5903 10.0044 123.7978 10 122.0047L 10 101.5047C 10.0044 103.2978 11.794 105.0903 15.3686 106.4584ZM 171.9867 103.7632L 171.9853 101.7803C 171.8075 103.4804 170.0229 105.1604 166.6314 106.4584L 158.7494 109.475L 171.9957 116.1146L 171.9867 103.7632ZM 10 101.4914L 10 101.5047L 10 101.4914Z"></path></g></g></g><g id="g-root-cp_1_g-1_1hiu62l7uc7ih-stroke" data-item-order="-693190" transform="translate(456.22100830078125, 537.501953125)"><g id="cp_1_g-1_1hiu62l7uc7ih-stroke" fill="none" stroke-linecap="round" stroke-linejoin="round" stroke-miterlimit="4" stroke="#ffffff" stroke-width="2" stroke-opacity="1"><g><path d="M 222.19 106.4584L 159.5195 130.4434C 152.3614 133.1829 140.7558 133.1829 133.5977 130.4434L 70.9272 106.4584C 67.5357 105.1604 65.7511 103.4804 65.5733 101.7803L 65.5719 103.7632L 65.5586 121.998C 65.5586 123.7933 67.3481 125.5886 70.9272 126.9584L 133.5977 150.9434C 140.7558 153.6829 152.3614 153.6829 159.5195 150.9434L 222.19 126.9584C 225.7646 125.5903 227.5542 123.7978 227.5586 122.0047L 227.5586 101.5047C 227.5542 103.2978 225.7646 105.0903 222.19 106.4584ZM 222.19 96.5377L 159.5195 72.5527C 152.3614 69.8132 140.7558 69.8132 133.5977 72.5527L 124.5732 76.0065L 81.8723 92.3489L 70.9272 96.5377C 67.3481 97.9075 65.5586 99.7028 65.5586 101.498C 65.5586 101.5922 65.5635 101.6863 65.5733 101.7803C 65.7511 103.4804 67.5357 105.1604 70.9272 106.4584L 133.5977 130.4434C 140.7558 133.1829 152.3614 133.1829 159.5195 130.4434L 222.19 106.4584C 225.7646 105.0903 227.5542 103.2978 227.5586 101.5047L 227.5586 101.4914C 227.5542 99.6983 225.7646 97.9058 222.19 96.5377ZM 24.4205 41.0132L 24.4205 33.49L 10 26.2859L 10 46.8091L 65.5719 103.7632L 65.5733 101.7803C 65.5635 101.6863 65.5586 101.5922 65.5586 101.498C 65.5586 99.7028 67.3481 97.9075 70.9272 96.5377L 81.8723 92.3489L 67.2522 85.0116L 67.2522 77.4884L 52.9791 70.3453L 52.9791 62.8221L 38.7059 55.6794L 38.6936 48.1558L 34.9136 46.2536L 24.4205 41.0132ZM 110.0841 68.7503L 67.2522 85.0116L 81.8723 92.3489L 124.5732 76.0065L 110.0841 68.7503ZM 67.2522 77.4884L 67.2522 85.0116L 110.0841 68.7503L 110.0718 61.2269L 67.2522 77.4884ZM 95.7987 54.0837L 52.9791 70.3453L 67.2522 77.4884L 110.0718 61.2269L 95.7987 54.0837ZM 52.9791 62.8221L 52.9791 70.3453L 95.7987 54.0837L 95.7986 46.5607L 52.9791 62.8221ZM 81.5377 39.4174L 38.7059 55.6794L 52.9791 62.8221L 95.7986 46.5607L 81.5377 39.4174ZM 38.6936 48.1558L 38.7059 55.6794L 81.5377 39.4174L 81.5377 31.8946L 38.6936 48.1558ZM 24.4205 41.0132L 34.9136 46.2536L 38.6936 48.1558L 81.5377 31.8946L 67.2523 24.7519L 24.4205 41.0132ZM 24.4205 33.49L 24.4205 41.0132L 67.2523 24.7519L 67.2523 17.2286L 24.4205 33.49ZM 10 26.2859L 24.4205 33.49L 67.2523 17.2286L 52.795 10L 10 26.2859ZM 227.5586 101.4914C 227.5586 101.4958 227.5586 101.5003 227.5586 101.5047L 227.5586 101.4914Z"></path></g></g></g><g id="g-root-cp_1_number_mgq4al7uc8aq-stroke" data-item-order="-693176" transform="translate(698, 608)"><g id="cp_1_number_mgq4al7uc8aq-stroke" fill="none" stroke-linecap="round" stroke-linejoin="round" stroke-miterlimit="4" stroke="#ffffff" stroke-width="2" stroke-opacity="1"><g><path d="M 10 40C 10 23.4315 23.4315 10 40 10C 56.5685 10 70 23.4315 70 40C 70 56.5685 56.5685 70 40 70C 23.4315 70 10 56.5685 10 40Z"></path></g></g></g><g id="g-root-cp_2_number_1_8vwhml7udlab-stroke" data-item-order="-693158" transform="translate(266, 512)"><g id="cp_2_number_1_8vwhml7udlab-stroke" fill="none" stroke-linecap="round" stroke-linejoin="round" stroke-miterlimit="4" stroke="#ffffff" stroke-width="2" stroke-opacity="1"><g><path d="M 10 40C 10 23.4315 23.4315 10 40 10C 56.5685 10 70 23.4315 70 40C 70 56.5685 56.5685 70 40 70C 23.4315 70 10 56.5685 10 40Z"></path></g></g></g><g id="g-root-cp_3_number_2_1ulk18d7udmo4-stroke" data-item-order="-693140" transform="translate(698, 410)"><g id="cp_3_number_2_1ulk18d7udmo4-stroke" fill="none" stroke-linecap="round" stroke-linejoin="round" stroke-miterlimit="4" stroke="#ffffff" stroke-width="2" stroke-opacity="1"><g><path d="M 10 40C 10 23.4315 23.4315 10 40 10C 56.5685 10 70 23.4315 70 40C 70 56.5685 56.5685 70 40 70C 23.4315 70 10 56.5685 10 40Z"></path></g></g></g><g id="g-root-cp_4_number_3_1lqji2l7udkb1-stroke" data-item-order="-693122" transform="translate(266, 314)"><g id="cp_4_number_3_1lqji2l7udkb1-stroke" fill="none" stroke-linecap="round" stroke-linejoin="round" stroke-miterlimit="4" stroke="#ffffff" stroke-width="2" stroke-opacity="1"><g><path d="M 10 40C 10 23.4315 23.4315 10 40 10C 56.5685 10 70 23.4315 70 40C 70 56.5685 56.5685 70 40 70C 23.4315 70 10 56.5685 10 40Z"></path></g></g></g><g id="g-root-cp_5_number_4_1hapzy57udl3a-stroke" data-item-order="-693104" transform="translate(698, 206)"><g id="cp_5_number_4_1hapzy57udl3a-stroke" fill="none" stroke-linecap="round" stroke-linejoin="round" stroke-miterlimit="4" stroke="#ffffff" stroke-width="2" stroke-opacity="1"><g><path d="M 10 40C 10 23.4315 23.4315 10 40 10C 56.5685 10 70 23.4315 70 40C 70 56.5685 56.5685 70 40 70C 23.4315 70 10 56.5685 10 40Z"></path></g></g></g><g id="g-root-tx_ruolodel_18jgbb17um0ox-stroke" data-item-order="0" transform="translate(110, 314)"></g><g id="g-root-tx_4_zpoqbh7undvz-stroke" data-item-order="0" transform="translate(284, 326)"></g><g id="g-root-ic_1_de7w3h7um0ap-stroke" data-item-order="0" transform="translate(566, 326)"><g id="ic_1_de7w3h7um0ap-stroke" fill="none" stroke-linecap="round" stroke-linejoin="round" stroke-miterlimit="4" stroke="#484848" stroke-width="2" stroke-opacity="1"><g><path d="M 20 11.25L 20 68.75M 60 11.25L 60 68.75M 40 16.25L 40 23.75M 40 36.25L 40 43.75M 40 56.25L 40 63.75"></path></g></g></g><g id="g-root-tx_conclude_1d2e6v17uneh5-stroke" data-item-order="0" transform="translate(782, 242)"></g><g id="g-root-tx_esaminar_4lp9a57um29u-stroke" data-item-order="0" transform="translate(62, 374)"></g><g id="g-root-tx_5_1lvjarh7uq9dx-stroke" data-item-order="0" transform="translate(716, 218)"></g><g id="g-root-tx_3_4kgb3x7um03s-stroke" data-item-order="0" transform="translate(716, 422)"></g><g id="g-root-tx_criterio_4gpgl97um233-stroke" data-item-order="0" transform="translate(782, 410)"></g><g id="g-root-ic_sear_me87y57um22r-stroke" data-item-order="0" transform="translate(386, 230)"><g id="ic_sear_me87y57um22r-stroke" fill="none" stroke-linecap="round" stroke-linejoin="round" stroke-miterlimit="4" stroke="#484848" stroke-width="2" stroke-opacity="1"><g><path d="M 19.369999 28.789999C 21.865831 19.038147 31.220501 12.660886 41.209957 13.901271C 51.199413 15.141656 58.710327 23.613108 58.745377 33.679214C 58.780422 43.745327 51.328678 52.268871 41.348103 53.578789C 31.367527 54.888702 21.968678 48.576736 19.405001 38.842499M 51.585003 49.09L 68.75 66.25M 11.25 33.75L 25.529999 33.75C 25.975677 33.749096 26.387161 33.510967 26.610001 33.125L 29.815001 27.584999C 30.062351 27.153948 30.541561 26.910374 31.035572 26.964602C 31.529583 27.018829 31.944544 27.360556 32.092499 27.834999L 35.342499 38.364998C 35.493172 38.852955 35.925526 39.200184 36.434498 39.242004C 36.943474 39.283821 37.426704 39.011818 37.654999 38.555L 41.547501 30.772499C 41.746735 30.374157 42.142876 30.111916 42.587399 30.084103C 43.031918 30.056286 43.457661 30.267101 43.705002 30.637501L 46.547501 34.9025C 46.77018 35.23724 47.140274 35.444439 47.542042 35.459297C 47.943806 35.474163 48.328197 35.294872 48.575001 34.977501L 52.447502 30"></path></g></g></g><g id="g-root-ic_man_1ly173x7uj7yd-stroke" data-item-order="0" transform="translate(386, 428)"><g id="ic_man_1ly173x7uj7yd-stroke" fill="none" stroke-linecap="round" stroke-linejoin="round" stroke-miterlimit="4" stroke="#484848" stroke-width="2" stroke-opacity="1"><g><path d="M 38.735001 52.205002C 44.472439 55.26791 51.605015 53.236351 54.8675 47.610001L 54.8675 47.610001C 62.899761 51.585915 67.985199 59.770073 67.9925 68.732498M 54.8675 47.610001L 46.625 68.732498M 60.830002 51.827503L 58.829998 64.514999L 53.880001 64.514999L 53.860001 68.702499M 17.9275 42.737499L 34.349998 42.737499M 39.602501 63.584999L 30.895 54.43L 30.895 42.75L 21.380001 42.75L 21.380001 54.442501L 12.6775 63.584999C 11.933637 64.540367 11.798961 65.836021 12.330435 66.92395C 12.86191 68.011871 13.966693 68.702026 15.1775 68.702499L 37.095001 68.702499C 38.305809 68.702026 39.410591 68.011871 39.942062 66.92395C 40.473541 65.836021 40.338863 64.540367 39.595001 63.584999ZM 18.139999 57.84L 34.137501 57.84M 47.477501 32.614998C 45.669357 33.968338 43.185646 33.968338 41.377502 32.615002M 48.5 27.022499C 48.776142 27.022499 49 27.246359 49 27.522501C 49 27.798643 48.776142 28.022501 48.5 28.022501C 48.223858 28.022501 48 27.798643 48 27.522501C 48 27.246359 48.223858 27.022499 48.5 27.022499M 40.362503 27.022499C 40.638641 27.022499 40.862499 27.246359 40.862499 27.522501C 40.862499 27.798643 40.638641 28.022501 40.362503 28.022501C 40.086357 28.022501 39.862503 27.798643 39.862503 27.522501C 39.862503 27.246359 40.086357 27.022499 40.362503 27.022499M 56.627499 23.465C 56.532013 16.795921 51.098515 11.439662 44.428749 11.439662C 37.758987 11.439662 32.325485 16.795921 32.23 23.465L 32.23 27.532499C 32.325485 34.20158 37.758987 39.557838 44.428749 39.557838C 51.098515 39.557838 56.532013 34.20158 56.627499 27.532499ZM 56.627499 23.465L 52.560001 23.465C 49.862499 23.465 44.310001 24.15 40.362503 19.4C 38.330048 21.818193 35.380341 23.278095 32.225002 23.4275"></path></g></g></g><g id="g-root-tx_utilizza_140ifr17um0ao-stroke" data-item-order="0" transform="translate(782, 470)"></g><g id="g-root-tx_principi_1urss3h7uj85f-stroke" data-item-order="0" transform="translate(110, 512)"></g><g id="g-root-tx_metafisi_7r6f17unfgg-stroke" data-item-order="0" transform="translate(782, 206)"></g><g id="g-root-tx_2_v3008t7um232-stroke" data-item-order="0" transform="translate(284, 524)"></g><g id="g-root-ic_2_1cy0v997udma2-stroke" data-item-order="0" transform="translate(566, 524)"><g id="ic_2_1cy0v997udma2-stroke" fill="none" stroke-linecap="round" stroke-linejoin="round" stroke-miterlimit="4" stroke="#484848" stroke-width="2" stroke-opacity="1"><g><path d="M 10 10M 50 44.687752L 48.971249 42.630249C 48.092751 40.873001 48.437 38.750751 49.826248 37.3615C 51.538246 35.649498 52.5 33.327652 52.5 30.906551L 52.5 24.687801C 52.5 17.78425 46.9035 12.187805 40 12.187805C 33.096451 12.187805 27.5 17.78425 27.5 24.687801L 27.5 30.906551C 27.5 33.327652 28.461775 35.649498 30.17375 37.3615C 31.562975 38.750751 31.907375 40.873001 31.028749 42.630249L 30 44.687752M 27.7649 22.187801L 52.235252 22.187801M 52.44125 23.437801C 52.44125 27.57995 49.099251 30.937801 44.976498 30.937801L 35.023502 30.937801C 30.9007 30.937801 27.558599 27.57995 27.558599 23.437801M 18.4375 58.437748C 22.061874 58.437748 25 55.499748 25 51.875248C 25 48.250999 22.061874 45.312752 18.4375 45.312752C 14.813126 45.312752 11.875 48.250999 11.875 51.875248C 11.875 55.499748 14.813126 58.437748 18.4375 58.437748ZM 28.785 67.144753C 28.122025 65.595749 27.119576 64.2155 25.851675 63.105751C 24.58375 61.996002 23.082775 61.185249 21.459576 60.733498C 19.836349 60.281502 18.132376 60.200001 16.47345 60.494999C 14.814525 60.790001 13.243025 61.453747 11.875 62.437248M 61.5625 58.437748C 65.186752 58.437748 68.125 55.499748 68.125 51.875248C 68.125 48.250999 65.186752 45.312752 61.5625 45.312752C 57.938251 45.312752 55 48.250999 55 51.875248C 55 55.499748 57.938251 58.437748 61.5625 58.437748ZM 51.215248 67.144753C 51.87825 65.595749 52.880749 64.2155 54.148502 63.105751C 55.416496 61.996002 56.9175 61.185249 58.540749 60.733498C 60.16375 60.281502 61.867752 60.200001 63.526749 60.494999C 65.185753 60.790001 66.757248 61.453747 68.125244 62.437248M 40.557751 58.437748C 44.182251 58.437748 47.120251 55.499748 47.120251 51.875248C 47.120251 48.250999 44.182251 45.312752 40.557751 45.312752C 36.933502 45.312752 33.99535 48.250999 33.99535 51.875248C 33.99535 55.499748 36.933502 58.437748 40.557751 58.437748ZM 51.122498 67.8125C 50.358246 65.62075 48.931 63.721001 47.038502 62.376751C 45.146252 61.032501 42.8825 60.310249 40.561249 60.310249C 38.239998 60.310249 35.97625 61.032501 34.083973 62.376751C 32.191601 63.721001 30.764324 65.62075 30 67.8125"></path></g></g></g><g id="g-root-ic_ques_94n4u57ung22-stroke" data-item-order="0" transform="translate(566, 122)"><g id="ic_ques_94n4u57ung22-stroke" fill="none" stroke-linecap="round" stroke-linejoin="round" stroke-miterlimit="4" stroke="#484848" stroke-width="2" stroke-opacity="1"><g><path d="M 61.25 44.764999C 65.17556 42.950401 67.636276 38.965027 67.499992 34.642498C 67.452667 31.443859 66.106232 28.402082 63.770237 26.216515C 61.43425 24.030947 58.309711 22.889641 55.114998 23.055C 52.266483 17.321869 46.401669 13.711407 40 13.75C 31.276306 13.632963 23.966877 20.322598 23.3125 29.022499C 20.708099 28.44989 17.984163 29.074894 15.889901 30.725609C 13.79564 32.37632 12.551619 34.878891 12.5 37.544998C 12.292103 41.441761 14.938012 44.91531 18.75 45.750004M 25 51.25C 25.000002 59.534271 31.715729 66.25 40 66.25C 48.284271 66.25 55 59.534271 55 51.25C 55 42.965729 48.284271 36.250004 40 36.250004C 31.715729 36.250004 25.000002 42.965729 25.000002 51.25ZM 35.3125 47.605C 35.312504 45.016167 37.411167 42.917503 40.000004 42.917503C 42.588837 42.917503 44.687504 45.016167 44.687504 47.605003C 44.687504 50.19384 42.588837 52.292503 40.000004 52.292503L 40 54.7925M 40 59.7925C 39.654823 59.7925 39.375 60.072323 39.375 60.4175C 39.375 60.762676 39.654823 61.0425 40 61.0425C 40.345177 61.0425 40.625 60.762676 40.625 60.4175C 40.625 60.072323 40.345177 59.7925 40 59.7925L 40 59.7925"></path></g></g></g><g id="g-root-tx_introdur_quo75p7uj6kk-stroke" data-item-order="0" transform="translate(62, 572)"></g><g id="g-root-tx_passiver_18f2zp97udlvz-stroke" data-item-order="0" transform="translate(332, 38)"></g><g id="g-root-tx_1_qssrwd7uj7ka-stroke" data-item-order="0" transform="translate(716, 620)"></g><g id="g-root-tx_contesto_dcyxx97udmo8-stroke" data-item-order="0" transform="translate(782, 608)"></g><g id="g-root-tx_stabilir_v5hwl97udmh5-stroke" data-item-order="0" transform="translate(782, 668)"></g></g></g></svg>