<?xml version="1.0" encoding="utf-8" standalone="yes"?>
<!DOCTYPE svg PUBLIC "-//W3C//DTD SVG 1.1//EN" "http://www.w3.org/Graphics/SVG/1.1/DTD/svg11.dtd">
<svg style="fill:none;stroke:none;fill-rule:evenodd;clip-rule:evenodd;stroke-linecap:round;stroke-linejoin:round;stroke-miterlimit:1.5;" version="1.1" xmlns="http://www.w3.org/2000/svg" xmlns:xlink="http://www.w3.org/1999/xlink" width="696" height="517" viewBox="0 0 696 517"><style class="text-font-style fontImports" data-font-family="Roboto">@import url(https://fonts.googleapis.com/css2?family=Roboto:wght@400;700&amp;amp;display=block);</style><rect id="" x="0" y="0" width="696" height="517" style="fill: #ffffff;"></rect><g id="items" style="isolation: isolate"><g id="blend" style="mix-blend-mode: normal"><g id="g-root-tf_1luwh2v5w9eyy-fill" data-item-order="-539748"><g id="tf_1luwh2v5w9eyy-fill-merged" stroke="none" fill="#ffffff" fill-opacity="1"><g><path d="M0 0 H696 V517 H0 V0"></path></g></g></g><g id="g-root-cp_0_line-0_5vek75wggzk-fill" data-item-order="-272131" transform="translate(206, 219)"></g><g id="g-root-cp_0b_g-0b_1qbyxdj5wgefd-fill" data-item-order="-272126" transform="translate(470.1328125, 39)"><g id="cp_0b_g-0b_1qbyxdj5wgefd-fill-merged" stroke="none" fill="#666666" fill-opacity="1"><g><path d="M93.06 18.669L81.198 34.814C59.743 64.016 47.528 98.909 46.026 135 H10C11.52 91.238 26.191 48.882 52.186 13.499L54.757 10 H98.899C97.076 12.96 95.129 15.852 93.06 18.669 M155.09 58.34L152.442 60.673C145.019 67.212 138.666 74.724 133.507 82.932C132.961 83.801 131.397 86.381 130.776 87.547C120.673 71.144 104.673 70.01 99.334 70.01C106.888 56.46 116.751 44.138 128.645 33.66L131.292 31.327C138.434 25.036 144.585 17.846 149.635 10 H190.342C182.356 28.295 170.407 44.846 155.09 58.34"></path></g></g></g><g id="g-root-cp_0a_g-0a_1lw5f935wgf7m-fill" data-item-order="-272115" transform="translate(488.39453125, 39)"></g><g id="g-root-cp_2_g-2_1d0if075wgg0b-fill" data-item-order="-272110" transform="translate(524, 99)"><g id="cp_2_g-2_1d0if075wgg0b-fill-merged" stroke="none" fill="#3cc583" fill-opacity="1"><g><path d="M64 77.184C58.705 80.247 52.557 82 46 82C39.443 82 33.295 80.247 28 77.184 V370 H64 V77.184"></path></g></g><g id="cp_2_g-2_1d0if075wgg0b-fill-merged" stroke="none" fill="#3cc583" fill-opacity="1"><g><path d="M10 46C10 65.882 26.118 82 46 82C65.882 82 82 65.882 82 46C82 26.118 65.882 10 46 10C26.118 10 10 26.118 10 46"></path></g></g></g><g id="g-root-cp_1_g-1_1d0if075wgg0c-fill" data-item-order="-272100" transform="translate(452, 159)"><g id="cp_1_g-1_1d0if075wgg0c-fill-merged" stroke="none" fill="#4e88e7" fill-opacity="1"><g><path d="M64 77.184C58.705 80.247 52.557 82 46 82C39.443 82 33.295 80.247 28 77.184 V310 H64 V77.184"></path></g></g><g id="cp_1_g-1_1d0if075wgg0c-fill-merged" stroke="none" fill="#4e88e7" fill-opacity="1"><g><path d="M10 46C10 65.882 26.118 82 46 82C65.882 82 82 65.882 82 46C82 26.118 65.882 10 46 10C26.118 10 10 26.118 10 46"></path></g></g></g><g id="g-root-cp_2_dashed-2_18kowvr5wggsl-fill" data-item-order="-272089" transform="translate(560, 171)"></g><g id="g-root-cp_1_dashed-1_zpodpz5wgefi-fill" data-item-order="-272085" transform="translate(488, 231)"></g><g id="g-root-tx_comedovr_zpodpz5wgefj-fill" data-item-order="0" transform="translate(38, 123)"><g id="tx_comedovr_zpodpz5wgefj-fill-merged" stroke="none" fill="#484848" fill-opacity="1"><g><text style="font: bold 25px Roboto, sans-serif; white-space: pre;" font-weight="bold" font-size="25px" font-family="Roboto, sans-serif"><tspan x="12" y="40" dominant-baseline="ideographic">Come dovrei agire secondo </tspan><tspan x="12" y="70" dominant-baseline="ideographic">la filosofia morale di Kant?</tspan></text></g></g></g><g id="g-root-ic_2_146qu0n5whtzi-fill" data-item-order="0" transform="translate(539, 114)"></g><g id="g-root-ic_east_i09shj5wgft0-fill" data-item-order="0" transform="translate(467, 174)"></g><g id="g-root-tx_imperati_4nkbxz5wgf7s-fill" data-item-order="0" transform="translate(38, 219)"><g id="tx_imperati_4nkbxz5wgf7s-fill-merged" stroke="none" fill="#4e88e7" fill-opacity="1"><g><text style="font: bold 20px Roboto, sans-serif; white-space: pre;" font-weight="bold" font-size="20px" font-family="Roboto, sans-serif"><tspan x="12" y="33.84" dominant-baseline="ideographic">Imperativo </tspan><tspan x="12" y="57.85" dominant-baseline="ideographic">Categorico</tspan></text></g></g></g><g id="g-root-tx_postulat_18mkc535wgfsy-fill" data-item-order="0" transform="translate(230, 219)"><g id="tx_postulat_18mkc535wgfsy-fill-merged" stroke="none" fill="#3cc583" fill-opacity="1"><g><text style="font: bold 20px Roboto, sans-serif; white-space: pre;" font-weight="bold" font-size="20px" font-family="Roboto, sans-serif"><tspan x="12" y="33.84" dominant-baseline="ideographic">Postulati della </tspan><tspan x="12" y="57.85" dominant-baseline="ideographic">Ragion Pratica</tspan></text></g></g></g><g id="g-root-tx_agiresec_1ly0uif5wge81-fill" data-item-order="0" transform="translate(38, 279)"><g id="tx_agiresec_1ly0uif5wge81-fill-merged" stroke="none" fill="#484848" fill-opacity="1"><g><text style="font: 15px Roboto, sans-serif; white-space: pre;" font-size="15px" font-family="Roboto, sans-serif"><tspan x="12" y="30.68" dominant-baseline="ideographic">Agire secondo </tspan><tspan x="12" y="48.69" dominant-baseline="ideographic">principi morali </tspan><tspan x="12" y="66.69" dominant-baseline="ideographic">universali e </tspan><tspan x="12" y="84.7" dominant-baseline="ideographic">rispettare la dignità </tspan><tspan x="12" y="102.7" dominant-baseline="ideographic">umana.</tspan></text></g></g></g><g id="g-root-tx_crederei_vbqauv5wge83-fill" data-item-order="0" transform="translate(230, 279)"><g id="tx_crederei_vbqauv5wge83-fill-merged" stroke="none" fill="#484848" fill-opacity="1"><g><text style="font: 15px Roboto, sans-serif; white-space: pre;" font-size="15px" font-family="Roboto, sans-serif"><tspan x="12" y="30.68" dominant-baseline="ideographic">Credere in libertà, </tspan><tspan x="12" y="48.69" dominant-baseline="ideographic">immortalità e </tspan><tspan x="12" y="66.69" dominant-baseline="ideographic">esistenza di Dio per </tspan><tspan x="12" y="84.7" dominant-baseline="ideographic">rendere possibile la </tspan><tspan x="12" y="102.7" dominant-baseline="ideographic">vita morale.</tspan></text></g></g></g><g id="g-root-tf_1luwh2v5w9eyy-stroke" data-item-order="-539748"></g><g id="g-root-cp_0_line-0_5vek75wggzk-stroke" data-item-order="-272131" transform="translate(206, 219)"><g id="cp_0_line-0_5vek75wggzk-stroke" fill="none" stroke-linecap="round" stroke-linejoin="round" stroke-miterlimit="4" stroke="#484848" stroke-width="2" stroke-opacity="1"><g><path d="M 10 10L 10 166"></path></g></g></g><g id="g-root-cp_0b_g-0b_1qbyxdj5wgefd-stroke" data-item-order="-272126" transform="translate(470.1328125, 39)"><g id="cp_0b_g-0b_1qbyxdj5wgefd-stroke" fill="none" stroke-linecap="round" stroke-linejoin="round" stroke-miterlimit="4" stroke="#ffffff" stroke-width="2" stroke-opacity="1"><g><path d="M 10.000001 135C 11.520401 91.2383 26.191101 48.8817 52.186301 13.4994L 54.757201 10M 46.026001 135C 47.528401 98.909 59.743301 64.0164 81.198001 34.8141L 93.059601 18.6691C 95.129301 15.8521 97.076501 12.9597 98.898601 10M 99.000001 70.6134C 106.596101 56.8257 116.574801 44.2936 128.645701 33.6597L 131.2931 31.3275C 138.4347 25.036 144.585401 17.8457 149.635301 10M 131.066601 87.3571C 131.5945 85.9995 132.885601 83.8867 133.465101 83C 138.6314 74.7648 144.998901 67.2303 152.442801 60.6726L 155.090201 58.3404C 170.408101 44.846 182.356801 28.2948 190.343001 10"></path></g></g></g><g id="g-root-cp_0a_g-0a_1lw5f935wgf7m-stroke" data-item-order="-272115" transform="translate(488.39453125, 39)"><g id="cp_0a_g-0a_1lw5f935wgf7m-stroke" fill="none" stroke-linecap="round" stroke-linejoin="round" stroke-miterlimit="4" stroke="#ffffff" stroke-width="2" stroke-dasharray="5.0, 7.0" stroke-opacity="1"><g><path d="M 10 130C 12.402 91.8553 25.695 55.0991 48.4282 24.1567L 58.8291 10M 99.335938 74.6276C 105.814038 63.233 115.147838 53.4496 124.927838 44.8339C 136.207038 34.8975 145.385438 23.0551 152.149838 10"></path></g></g></g><g id="g-root-cp_2_g-2_1d0if075wgg0b-stroke" data-item-order="-272110" transform="translate(524, 99)"><g id="cp_2_g-2_1d0if075wgg0b-stroke" fill="none" stroke-linecap="round" stroke-linejoin="round" stroke-miterlimit="4" stroke="#ffffff" stroke-width="2" stroke-opacity="1"><g><path d="M 64 77.127258L 64 370.000061M 28 77.127258L 28 370.000061"></path></g></g><g id="cp_2_g-2_1d0if075wgg0b-stroke" fill="none" stroke-linecap="round" stroke-linejoin="round" stroke-miterlimit="4" stroke="#ffffff" stroke-width="2" stroke-opacity="1"><g><path d="M 10 46C 10 65.882251 26.117749 82 46 82C 65.882251 82 82 65.882251 82 46C 82 26.117749 65.882251 10 46 10C 26.117749 10 10 26.117749 10 46"></path></g></g></g><g id="g-root-cp_1_g-1_1d0if075wgg0c-stroke" data-item-order="-272100" transform="translate(452, 159)"><g id="cp_1_g-1_1d0if075wgg0c-stroke" fill="none" stroke-linecap="round" stroke-linejoin="round" stroke-miterlimit="4" stroke="#ffffff" stroke-width="2" stroke-opacity="1"><g><path d="M 64 77L 64 310M 28 77L 28 310"></path></g></g><g id="cp_1_g-1_1d0if075wgg0c-stroke" fill="none" stroke-linecap="round" stroke-linejoin="round" stroke-miterlimit="4" stroke="#ffffff" stroke-width="2" stroke-opacity="1"><g><path d="M 10 46C 10 65.882251 26.117749 82 46 82C 65.882251 82 82 65.882251 82 46C 82 26.117749 65.882251 10 46 10C 26.117749 10 10 26.117749 10 46"></path></g></g></g><g id="g-root-cp_2_dashed-2_18kowvr5wggsl-stroke" data-item-order="-272089" transform="translate(560, 171)"><g id="cp_2_dashed-2_18kowvr5wggsl-stroke" fill="none" stroke-linecap="round" stroke-linejoin="round" stroke-miterlimit="4" stroke="#ffffff" stroke-width="2" stroke-dasharray="5.0, 7.0" stroke-opacity="1"><g><path d="M 10 10L 10 298"></path></g></g></g><g id="g-root-cp_1_dashed-1_zpodpz5wgefi-stroke" data-item-order="-272085" transform="translate(488, 231)"><g id="cp_1_dashed-1_zpodpz5wgefi-stroke" fill="none" stroke-linecap="round" stroke-linejoin="round" stroke-miterlimit="4" stroke="#ffffff" stroke-width="2" stroke-dasharray="5.0, 7.0" stroke-opacity="1"><g><path d="M 10 10L 10 238"></path></g></g></g><g id="g-root-tx_comedovr_zpodpz5wgefj-stroke" data-item-order="0" transform="translate(38, 123)"></g><g id="g-root-ic_2_146qu0n5whtzi-stroke" data-item-order="0" transform="translate(539, 114)"><g id="ic_2_146qu0n5whtzi-stroke" fill="none" stroke-linecap="round" stroke-linejoin="round" stroke-miterlimit="4" stroke="#ffffff" stroke-width="2" stroke-opacity="1"><g><path d="M 12.625 19.625L 49.375 19.625M 31 23.125L 31 12.625M 13.5 40.625L 18.75 19.625L 24 40.625M 26.625 41.5C 26.625 45.849243 23.099243 49.375 18.75 49.375C 14.400758 49.375 10.875 45.849243 10.875 41.5C 10.875 41.01675 11.266751 40.625 11.75 40.625L 25.75 40.625C 26.23325 40.625 26.625 41.01675 26.625 41.5ZM 48.5 40.625L 43.25 19.625L 38 40.625M 35.375 41.5C 35.375 45.849243 38.900757 49.375 43.25 49.375C 47.599243 49.375 51.125 45.849243 51.125 41.5C 51.125 41.01675 50.73325 40.625 50.25 40.625L 36.25 40.625C 35.76675 40.625 35.375 41.01675 35.375 41.5Z"></path></g></g></g><g id="g-root-ic_east_i09shj5wgft0-stroke" data-item-order="0" transform="translate(467, 174)"><g id="ic_east_i09shj5wgft0-stroke" fill="none" stroke-linecap="round" stroke-linejoin="round" stroke-miterlimit="4" stroke="#ffffff" stroke-width="2" stroke-opacity="1"><g><path d="M 18.91625 23.179251C 18.91625 29.703114 24.204885 34.991749 30.72875 34.991749C 37.252613 34.991749 42.541248 29.703114 42.541248 23.179251C 42.541248 16.655386 37.252613 11.36675 30.72875 11.36675C 24.204885 11.36675 18.91625 16.655386 18.91625 23.179251M 10 10M 24.9723 23.205536L 35.730774 18.10033L 30.6255 28.8587L 29.298824 24.532314L 24.9723 23.205536ZM 30.6255 11.418884L 30.6255 13.486717M 30.6255 32.924301L 30.6255 34.992275M 10 10M 42.541428 23.205536L 40.473625 23.205536M 10 10M 20.984243 23.205536L 18.916407 23.205536M 21.510536 50.605427L 21.510536 40.105427L 28.51045 50.605427L 28.51045 40.105427M 10 10M 39.723923 40.105427L 32.723923 40.105427L 32.723923 50.605427L 39.723923 50.605427M 32.723923 44.917927L 38.848923 44.917927"></path></g></g></g><g id="g-root-tx_imperati_4nkbxz5wgf7s-stroke" data-item-order="0" transform="translate(38, 219)"></g><g id="g-root-tx_postulat_18mkc535wgfsy-stroke" data-item-order="0" transform="translate(230, 219)"></g><g id="g-root-tx_agiresec_1ly0uif5wge81-stroke" data-item-order="0" transform="translate(38, 279)"></g><g id="g-root-tx_crederei_vbqauv5wge83-stroke" data-item-order="0" transform="translate(230, 279)"></g></g></g></svg>