<?xml version="1.0" encoding="utf-8" standalone="yes"?>
<!DOCTYPE svg PUBLIC "-//W3C//DTD SVG 1.1//EN" "http://www.w3.org/Graphics/SVG/1.1/DTD/svg11.dtd">
<svg style="fill:none;stroke:none;fill-rule:evenodd;clip-rule:evenodd;stroke-linecap:round;stroke-linejoin:round;stroke-miterlimit:1.5;" version="1.1" xmlns="http://www.w3.org/2000/svg" xmlns:xlink="http://www.w3.org/1999/xlink" width="960" height="828" viewBox="0 0 960 828"><style class="text-font-style fontImports" data-font-family="Roboto">@import url(https://fonts.googleapis.com/css2?family=Roboto:wght@400;700&amp;amp;display=block);</style><rect id="" x="0" y="0" width="960" height="828" style="fill: #ffffff;"></rect><g id="items" style="isolation: isolate"><g id="blend" style="mix-blend-mode: normal"><g id="g-root-tf_qn6f0752kf7q-fill" data-item-order="-1192320"><g id="tf_qn6f0752kf7q-fill-merged" stroke="none" fill="#ffffff" fill-opacity="1"><g><path d="M0 0 H960 V828 H0 V0"></path></g></g></g><g id="g-root-cp_0_g-0_596yf52na4t-fill" data-item-order="-667574" transform="translate(386.1484375, 385.986328125)"><g id="cp_0_g-0_596yf52na4t-fill-merged" stroke="none" fill="#666666" fill-opacity="1"><g><path d="M21.108 52.014C27.683 40.625 36.523 31.358 46.73 24.454L54.45 26.58L56.484 18.774C79.159 7.538 106.507 6.727 130.59 18.469L132.729 26.68L140.91 24.427C162.693 39.125 175.589 62.579 177.593 87.302L171.789 93.026L177.731 98.886C177.004 111.563 173.382 124.267 166.6 136.014C159.939 147.55 150.956 156.909 140.582 163.84L132.67 161.662L130.614 169.553C107.995 180.535 80.828 181.199 56.911 169.458L54.854 161.564L46.989 163.73C24.619 148.724 11.57 124.503 10 99.122L15.755 93.446L10.062 87.832C10.957 75.591 14.559 63.356 21.108 52.014"></path></g></g></g><g id="g-root-cp_6_g-6_1uqjqt352napy-fill" data-item-order="-667570" transform="translate(262.23828125, 230)"><g id="cp_6_g-6_1uqjqt352napy-fill-merged" stroke="none" fill="#7f64ea" fill-opacity="1"><g><path d="M97.901 42.073C134.397 21.035 175.787 9.973 217.913 10 V94.033C198.375 94.02 179.133 97.658 161.106 104.686L180.892 138.956L191.285 132.956L178.357 182.566L128.931 168.956L139.323 162.956L119.601 128.796C104.836 140.754 92.325 155.354 82.744 171.921L10 129.853C31.089 93.386 61.404 63.112 97.901 42.073"></path></g></g></g><g id="g-root-cp_5_g-5_1uqjqt352napz-fill" data-item-order="-667564" transform="translate(230, 350)"><g id="cp_5_g-5_1uqjqt352napz-fill-merged" stroke="none" fill="#de8431" fill-opacity="1"><g><path d="M10 130.003C10 87.873 21.089 46.486 42.154 10L114.928 52.016C105.368 68.575 98.97 86.687 95.98 105.432 H135.402 V93.432L171.901 129.432L135.402 165.432 V153.432 H95.803C98.713 172.583 105.176 191.094 114.93 207.987L42.157 250.005C21.091 213.52 10 172.133 10 130.003"></path></g></g></g><g id="g-root-cp_4_g-4_1qbcprr52n8cg-fill" data-item-order="-667558" transform="translate(262.0625, 537.55078125)"><g id="cp_4_g-4_1qbcprr52n8cg-fill-merged" stroke="none" fill="#e0cb15" fill-opacity="1"><g><path d="M178.935 10L191.863 59.609L181.471 53.609L161.665 87.913C179.568 94.838 198.662 98.425 217.995 98.417 V182.45C175.852 182.466 134.418 171.368 97.898 150.274C61.377 129.18 31.06 98.835 10 62.295L82.806 20.333C92.469 37.1 105.132 51.86 120.096 63.913L139.901 29.609L129.509 23.609L178.935 10"></path></g></g></g><g id="g-root-cp_3_g-3_1hfppiv52n955-fill" data-item-order="-667552" transform="translate(470.0546875, 537.6484375)"><g id="cp_3_g-3_1hfppiv52n955-fill-merged" stroke="none" fill="#1eabda" fill-opacity="1"><g><path d="M130.023 150.153C93.545 171.232 52.16 182.337 10.029 182.352 V98.32C29.224 98.313 48.209 94.753 66.019 87.891L46.227 53.609L35.834 59.609L48.762 10L98.188 23.609L87.796 29.609L107.621 63.947C122.642 51.881 135.353 37.09 145.048 20.282L217.84 62.269C196.789 98.764 166.502 129.074 130.023 150.153"></path></g></g></g><g id="g-root-cp_2_g-2_1hfppiv52n956-fill" data-item-order="-667546" transform="translate(547.93359375, 350.052734375)"><g id="cp_2_g-2_1hfppiv52n956-fill-merged" stroke="none" fill="#92bd39" fill-opacity="1"><g><path d="M172.065 129.977C172.059 172.096 160.97 213.471 139.911 249.947L67.136 207.93C76.961 190.914 83.446 172.257 86.325 152.959 H46.499 V164.959L10 128.959L46.499 92.959 V104.959 H86.018C83.001 86.376 76.634 68.423 67.157 51.998L139.942 10C160.992 46.481 172.07 87.859 172.065 129.977"></path></g></g></g><g id="g-root-cp_1_g-1_1czw7ef52n9xf-fill" data-item-order="-667540" transform="translate(470.05859375, 230)"><g id="cp_1_g-1_1czw7ef52n9xf-fill-merged" stroke="none" fill="#3cc583" fill-opacity="1"><g><path d="M129.987 42.18C166.456 63.246 196.739 93.538 217.795 130.013L145.018 172.025C135.361 155.296 122.717 140.568 107.781 128.537L87.852 163.057L98.244 169.057L48.817 182.666L35.89 133.057L46.282 139.057L66.212 104.537C48.346 97.626 29.294 94.04 10 94.033 V10C52.147 10.016 93.518 21.114 129.987 42.18"></path></g></g></g><g id="g-root-ic_safa_mdlnqv52n9xh-fill" data-item-order="0" transform="translate(344, 284)"></g><g id="g-root-ic_uneq_4nkol352etj8-fill" data-item-order="0" transform="translate(548, 284)"></g><g id="g-root-tx_proposiz_dccgvr52g7pn-fill" data-item-order="0" transform="translate(602, 182)"><g id="tx_proposiz_dccgvr52g7pn-fill-merged" stroke="none" fill="#484848" fill-opacity="1"><g><text style="font: 15px Roboto, sans-serif; white-space: pre;" font-size="15px" font-family="Roboto, sans-serif"><tspan x="12" y="27.69" dominant-baseline="ideographic">Proposizioni che </tspan><tspan x="12" y="45.69" dominant-baseline="ideographic">aumentano la </tspan><tspan x="12" y="63.69" dominant-baseline="ideographic">conoscenza e sono </tspan><tspan x="12" y="81.7" dominant-baseline="ideographic">universali</tspan></text></g></g></g><g id="g-root-tx_ricercad_1lsexdj52g9oo-fill" data-item-order="0" transform="translate(206, 194)"><g id="tx_ricercad_1lsexdj52g9oo-fill-merged" stroke="none" fill="#484848" fill-opacity="1"><g><text style="font: 15px Roboto, sans-serif; white-space: pre;" font-size="15px" font-family="Roboto, sans-serif"><tspan x="15.03" y="30.69" dominant-baseline="ideographic">Ricerca dell'unità </tspan><tspan x="35.4" y="48.69" dominant-baseline="ideographic">assoluta nella </tspan><tspan x="47.31" y="66.7" dominant-baseline="ideographic">conoscenza</tspan></text></g></g></g><g id="g-root-tx_ragione_4ikvw752g7in-fill" data-item-order="0" transform="translate(242, 158)"><g id="tx_ragione_4ikvw752g7in-fill-merged" stroke="none" fill="#7f64ea" fill-opacity="1"><g><text style="font: bold 20px Roboto, sans-serif; white-space: pre;" font-weight="bold" font-size="20px" font-family="Roboto, sans-serif"><tspan x="18.45" y="33.85" dominant-baseline="ideographic">Ragione</tspan></text></g></g></g><g id="g-root-tx_intellet_v64dpz52g9op-fill" data-item-order="0" transform="translate(98, 422.02490234375)"><g id="tx_intellet_v64dpz52g9op-fill-merged" stroke="none" fill="#de8431" fill-opacity="1"><g><text style="font: bold 20px Roboto, sans-serif; white-space: pre;" font-weight="bold" font-size="20px" font-family="Roboto, sans-serif"><tspan x="23.41" y="33.85" dominant-baseline="ideographic">Intelletto</tspan></text></g></g></g><g id="g-root-tx_materia_zqxojb52eux4-fill" data-item-order="0" transform="translate(746, 422)"><g id="tx_materia_zqxojb52eux4-fill-merged" stroke="none" fill="#92bd39" fill-opacity="1"><g><text style="font: bold 20px Roboto, sans-serif; white-space: pre;" font-weight="bold" font-size="20px" font-family="Roboto, sans-serif"><tspan x="12" y="33.85" dominant-baseline="ideographic">Materia</tspan></text></g></g></g><g id="g-root-tx_struttur_v4vfjr52g7im-fill" data-item-order="0" transform="translate(602, 722)"><g id="tx_struttur_v4vfjr52g7im-fill-merged" stroke="none" fill="#484848" fill-opacity="1"><g><text style="font: 15px Roboto, sans-serif; white-space: pre;" font-size="15px" font-family="Roboto, sans-serif"><tspan x="12" y="27.69" dominant-baseline="ideographic">Strutture mentali che </tspan><tspan x="12" y="45.69" dominant-baseline="ideographic">organizzano i dati</tspan></text></g></g></g><g id="g-root-tx_conoscen_1um6id352g9vo-fill" data-item-order="0" transform="translate(410, 446)"><g id="tx_conoscen_1um6id352g9vo-fill-merged" stroke="none" fill="#ffffff" fill-opacity="1"><g><text style="font: bold 20px Roboto, sans-serif; white-space: pre;" font-weight="bold" font-size="20px" font-family="Roboto, sans-serif"><tspan x="12.28" y="33.84" dominant-baseline="ideographic">Conoscenza </tspan><tspan x="35.96" y="57.85" dominant-baseline="ideographic">Umana</tspan></text></g></g></g><g id="g-root-tx_organizz_dfgubb52g8w2-fill" data-item-order="0" transform="translate(62, 458.02490234375)"><g id="tx_organizz_dfgubb52g8w2-fill-merged" stroke="none" fill="#484848" fill-opacity="1"><g><text style="font: 15px Roboto, sans-serif; white-space: pre;" font-size="15px" font-family="Roboto, sans-serif"><tspan x="13.51" y="30.69" dominant-baseline="ideographic">Organizzazione dei </tspan><tspan x="56.37" y="48.69" dominant-baseline="ideographic">dati sensibili </tspan><tspan x="15" y="66.7" dominant-baseline="ideographic">attraverso concetti</tspan></text></g></g></g><g id="g-root-ic_day_1uux5kn52c1l5-fill" data-item-order="0" transform="translate(644, 446.02490234375)"></g><g id="g-root-tx_datigrez_4otmrb52evpd-fill" data-item-order="0" transform="translate(746, 458)"><g id="tx_datigrez_4otmrb52evpd-fill-merged" stroke="none" fill="#484848" fill-opacity="1"><g><text style="font: 15px Roboto, sans-serif; white-space: pre;" font-size="15px" font-family="Roboto, sans-serif"><tspan x="12" y="30.69" dominant-baseline="ideographic">Dati grezzi derivati </tspan><tspan x="12" y="48.69" dominant-baseline="ideographic">dall'esperienza </tspan><tspan x="12" y="66.7" dominant-baseline="ideographic">sensoriale</tspan></text></g></g></g><g id="g-root-tx_giudizis_13yn0jb52g7pm-fill" data-item-order="0" transform="translate(602, 122)"><g id="tx_giudizis_13yn0jb52g7pm-fill-merged" stroke="none" fill="#3cc583" fill-opacity="1"><g><text style="font: bold 20px Roboto, sans-serif; white-space: pre;" font-weight="bold" font-size="20px" font-family="Roboto, sans-serif"><tspan x="12" y="33.84" dominant-baseline="ideographic">Giudizi </tspan><tspan x="12" y="57.85" dominant-baseline="ideographic">Scientifici</tspan></text></g></g></g><g id="g-root-tx_comprens_144975j52naq4-fill" data-item-order="0" transform="translate(236, 38)"><g id="tx_comprens_144975j52naq4-fill-merged" stroke="none" fill="#484848" fill-opacity="1"><g><text style="font: bold 25px Roboto, sans-serif; white-space: pre;" font-weight="bold" font-size="25px" font-family="Roboto, sans-serif"><tspan x="14.62" y="40" dominant-baseline="ideographic">Comprensione della Conoscenza Umana </tspan><tspan x="164.56" y="70" dominant-baseline="ideographic">secondo Kant</tspan></text></g></g></g><g id="g-root-ic_stra_8vweif52vnr4-fill" data-item-order="0" transform="translate(344, 608)"></g><g id="g-root-ic_form_qvx5dj52anlw-fill" data-item-order="0" transform="translate(548, 608)"></g><g id="g-root-tx_sensibil_1qa3urb52g7wr-fill" data-item-order="0" transform="translate(218, 686)"><g id="tx_sensibil_1qa3urb52g7wr-fill-merged" stroke="none" fill="#e0cb15" fill-opacity="1"><g><text style="font: bold 20px Roboto, sans-serif; white-space: pre;" font-weight="bold" font-size="20px" font-family="Roboto, sans-serif"><tspan x="21.5" y="33.85" dominant-baseline="ideographic">Sensibilità</tspan></text></g></g></g><g id="g-root-tx_forma_18fpgtz52g93h-fill" data-item-order="0" transform="translate(602, 686)"><g id="tx_forma_18fpgtz52g93h-fill-merged" stroke="none" fill="#1eabda" fill-opacity="1"><g><text style="font: bold 20px Roboto, sans-serif; white-space: pre;" font-weight="bold" font-size="20px" font-family="Roboto, sans-serif"><tspan x="12" y="33.85" dominant-baseline="ideographic">Forma</tspan></text></g></g></g><g id="g-root-tx_ricezion_18itu9j52ga9w-fill" data-item-order="0" transform="translate(182, 722)"><g id="tx_ricezion_18itu9j52ga9w-fill-merged" stroke="none" fill="#484848" fill-opacity="1"><g><text style="font: 15px Roboto, sans-serif; white-space: pre;" font-size="15px" font-family="Roboto, sans-serif"><tspan x="34.74" y="27.69" dominant-baseline="ideographic">Ricezione dei dati </tspan><tspan x="20.63" y="45.69" dominant-baseline="ideographic">attraverso intuizioni</tspan></text></g></g></g><g id="g-root-ic_user_24tiv52rh1e-fill" data-item-order="0" transform="translate(248, 446)"></g><g id="g-root-tf_qn6f0752kf7q-stroke" data-item-order="-1192320"></g><g id="g-root-cp_0_g-0_596yf52na4t-stroke" data-item-order="-667574" transform="translate(386.1484375, 385.986328125)"><g id="cp_0_g-0_596yf52na4t-stroke" fill="none" stroke-linecap="round" stroke-linejoin="round" stroke-miterlimit="4" stroke="#ffffff" stroke-width="2" stroke-opacity="1"><g><path d="M 21.107601 52.014C 27.683101 40.625 36.522801 31.3583 46.730001 24.4542L 54.449901 26.5798L 56.483801 18.7744C 79.158601 7.5383 106.506901 6.7275 130.5897 18.4689L 132.729301 26.6798L 140.909901 24.4273C 162.692501 39.1247 175.589101 62.5794 177.592801 87.3017L 171.789001 93.0261L 177.730601 98.8864C 177.004201 111.5634 173.381901 124.2673 166.599901 136.014C 159.939501 147.5501 150.956001 156.9086 140.581601 163.84L 132.670301 161.6617L 130.614001 169.5527C 107.994601 180.5349 80.828501 181.1995 56.910701 169.4578L 54.853701 161.564L 46.989001 163.7295C 24.618701 148.724 11.569601 124.5033 10.000001 99.1219L 15.7545 93.4461L 10.062301 87.8317C 10.956501 75.5907 14.559201 63.3562 21.107601 52.014Z"></path></g></g></g><g id="g-root-cp_6_g-6_1uqjqt352napy-stroke" data-item-order="-667570" transform="translate(262.23828125, 230)"><g id="cp_6_g-6_1uqjqt352napy-stroke" fill="none" stroke-linecap="round" stroke-linejoin="round" stroke-miterlimit="4" stroke="#ffffff" stroke-width="2" stroke-opacity="1"><g><path d="M 97.9006 42.0733C 134.3967 21.035 175.7874 9.9733 217.9131 10L 217.8598 94.0326C 198.3752 94.0203 179.1325 97.6583 161.1064 104.6862L 180.8923 138.9564L 191.2846 132.9564L 178.3572 182.5656L 128.9308 168.9564L 139.3231 162.9564L 119.6006 128.7961C 104.8358 140.7538 92.325 155.3537 82.7445 171.9205L 10 129.8526C 31.0887 93.3856 61.4045 63.1117 97.9006 42.0733Z"></path></g></g></g><g id="g-root-cp_5_g-5_1uqjqt352napz-stroke" data-item-order="-667564" transform="translate(230, 350)"><g id="cp_5_g-5_1uqjqt352napz-stroke" fill="none" stroke-linecap="round" stroke-linejoin="round" stroke-miterlimit="4" stroke="#ffffff" stroke-width="2" stroke-opacity="1"><g><path d="M 10 130.0031C 9.9995 87.8732 21.089 46.4855 42.1539 10L 114.9283 52.0163C 105.3682 68.5748 98.9698 86.687 95.9797 105.4321L 135.4016 105.4321L 135.4016 93.4321L 171.9007 129.4321L 135.4016 165.4321L 135.4016 153.4321L 95.8028 153.4321C 98.713 172.5826 105.1761 191.0936 114.9303 207.9872L 42.157 250.0054C 21.0911 213.5204 10.0005 172.1329 10 130.0031Z"></path></g></g></g><g id="g-root-cp_4_g-4_1qbcprr52n8cg-stroke" data-item-order="-667558" transform="translate(262.0625, 537.55078125)"><g id="cp_4_g-4_1qbcprr52n8cg-stroke" fill="none" stroke-linecap="round" stroke-linejoin="round" stroke-miterlimit="4" stroke="#ffffff" stroke-width="2" stroke-opacity="1"><g><path d="M 178.9354 10L 191.8628 59.6092L 181.4705 53.6092L 161.6651 87.9131C 179.5677 94.8384 198.6617 98.4248 217.9951 98.4174L 218.0272 182.45C 175.8525 182.4661 134.4183 171.3683 97.8978 150.2744C 61.3772 129.1804 31.0601 98.8352 10 62.2952L 82.8056 20.3331C 92.4693 37.0999 105.1323 51.8597 120.0959 63.9131L 139.9013 29.6092L 129.5089 23.6092L 178.9354 10Z"></path></g></g></g><g id="g-root-cp_3_g-3_1hfppiv52n955-stroke" data-item-order="-667552" transform="translate(470.0546875, 537.6484375)"><g id="cp_3_g-3_1hfppiv52n955-stroke" fill="none" stroke-linecap="round" stroke-linejoin="round" stroke-miterlimit="4" stroke="#ffffff" stroke-width="2" stroke-opacity="1"><g><path d="M 130.023501 150.153101C 93.545001 171.232201 52.160301 182.337301 10.029401 182.352101L 10.000001 98.319501C 29.224101 98.312801 48.209201 94.752901 66.019301 87.891001L 46.226701 53.609201L 35.834401 59.609201L 48.761801 10.000001L 98.188301 23.609201L 87.796001 29.609201L 107.620901 63.947001C 122.642201 51.880601 135.352801 37.090501 145.048401 20.281601L 217.839701 62.268601C 196.788901 98.763501 166.502001 129.0739 130.023501 150.153101Z"></path></g></g></g><g id="g-root-cp_2_g-2_1hfppiv52n956-stroke" data-item-order="-667546" transform="translate(547.93359375, 350.052734375)"><g id="cp_2_g-2_1hfppiv52n956-stroke" fill="none" stroke-linecap="round" stroke-linejoin="round" stroke-miterlimit="4" stroke="#ffffff" stroke-width="2" stroke-opacity="1"><g><path d="M 172.0648 129.9775C 172.0593 172.0958 160.97 213.4711 139.9109 249.9467L 67.1365 207.9304C 76.9607 190.9143 83.4463 172.2574 86.3252 152.9589L 46.4991 152.9589L 46.4991 164.9589L 10 128.9589L 46.4991 92.9588L 46.4991 104.9588L 86.0175 104.9589C 83.0014 86.3764 76.6342 68.4232 67.1565 51.9976L 139.9416 10C 160.9915 46.481 172.0702 87.8591 172.0648 129.9775Z"></path></g></g></g><g id="g-root-cp_1_g-1_1czw7ef52n9xf-stroke" data-item-order="-667540" transform="translate(470.05859375, 230)"><g id="cp_1_g-1_1czw7ef52n9xf-stroke" fill="none" stroke-linecap="round" stroke-linejoin="round" stroke-miterlimit="4" stroke="#ffffff" stroke-width="2" stroke-opacity="1"><g><path d="M 129.9869 42.1799C 166.456 63.2459 196.7394 93.5378 217.7952 130.0126L 145.0183 172.0245C 135.3612 155.2956 122.7172 140.568 107.7814 128.5369L 87.8515 163.0565L 98.2438 169.0565L 48.8173 182.6657L 35.8899 133.0565L 46.2823 139.0565L 66.2121 104.5369C 48.3462 97.6258 29.2935 94.0398 10 94.0326L 10.0313 10C 52.1474 10.0157 93.5179 21.114 129.9869 42.1799Z"></path></g></g></g><g id="g-root-ic_safa_mdlnqv52n9xh-stroke" data-item-order="0" transform="translate(344, 284)"><g id="ic_safa_mdlnqv52n9xh-stroke" fill="none" stroke-linecap="round" stroke-linejoin="round" stroke-miterlimit="4" stroke="#ffffff" stroke-width="2" stroke-opacity="1"><g><path d="M 11 34C 11 46.702549 21.297451 57 34 57C 46.702549 57 57 46.702549 57 34C 57 21.297451 46.702549 11 34 11C 21.297451 11 11 21.297451 11 34M 50.264 17.736L 29.733999 30.268L 17.736 50.264L 38 38L 50.264 17.736ZM 34 11L 34 18.540001M 34 49.459999L 34 57M 57 34L 49.459999 34M 18.540001 34L 11 34M 50.264 50.264L 44.931999 44.931999M 23.068001 23.068001L 17.736 17.736"></path></g></g></g><g id="g-root-ic_uneq_4nkol352etj8-stroke" data-item-order="0" transform="translate(548, 284)"><g id="ic_uneq_4nkol352etj8-stroke" fill="none" stroke-linecap="round" stroke-linejoin="round" stroke-miterlimit="4" stroke="#ffffff" stroke-width="2" stroke-opacity="1"><g><path d="M 34 23.364L 34 54.363998M 29 54.363998L 39 54.363998M 12 42.363998L 19 27.436001L 26 42.363998M 31 20.364C 31 22.020855 32.343147 23.364 34 23.364C 35.656853 23.364 37 22.020855 37 20.364C 37 18.707146 35.656853 17.364 34 17.364C 32.343147 17.364 31 18.707146 31 20.364ZM 19 49.363998C 20.870407 49.410587 22.678082 48.688061 24.001072 47.36507C 25.32406 46.042084 26.046587 44.234409 26 42.363998L 12 42.363998C 11.953412 44.234409 12.67594 46.042084 13.998928 47.36507C 15.321917 48.688061 17.129591 49.410587 19 49.363998ZM 56 30.364L 49 15.298L 42 30.364M 49 37.363998C 47.129589 37.410587 45.321915 36.688061 43.998928 35.36507C 42.675938 34.042084 41.953411 32.234406 42 30.363998L 56 30.364C 56.046585 32.234406 55.324059 34.042084 54.001072 35.36507C 52.678082 36.688061 50.870407 37.410587 49 37.363998ZM 36.987999 20.156L 53.110001 13.636M 14.892 29.094L 31.73 22.282"></path></g></g></g><g id="g-root-tx_proposiz_dccgvr52g7pn-stroke" data-item-order="0" transform="translate(602, 182)"></g><g id="g-root-tx_ricercad_1lsexdj52g9oo-stroke" data-item-order="0" transform="translate(206, 194)"></g><g id="g-root-tx_ragione_4ikvw752g7in-stroke" data-item-order="0" transform="translate(242, 158)"></g><g id="g-root-tx_intellet_v64dpz52g9op-stroke" data-item-order="0" transform="translate(98, 422.02490234375)"></g><g id="g-root-tx_materia_zqxojb52eux4-stroke" data-item-order="0" transform="translate(746, 422)"></g><g id="g-root-tx_struttur_v4vfjr52g7im-stroke" data-item-order="0" transform="translate(602, 722)"></g><g id="g-root-tx_conoscen_1um6id352g9vo-stroke" data-item-order="0" transform="translate(410, 446)"></g><g id="g-root-tx_organizz_dfgubb52g8w2-stroke" data-item-order="0" transform="translate(62, 458.02490234375)"></g><g id="g-root-ic_day_1uux5kn52c1l5-stroke" data-item-order="0" transform="translate(644, 446.02490234375)"><g id="ic_day_1uux5kn52c1l5-stroke" fill="none" stroke-linecap="round" stroke-linejoin="round" stroke-miterlimit="4" stroke="#ffffff" stroke-width="2" stroke-opacity="1"><g><path d="M 24.29862 56.450001L 15.49862 56.450001C 13.29862 56.450001 11.498626 54.650002 11.498626 52.450001L 11.498626 30.450001C 11.498626 28.24996 13.29862 26.449961 15.49862 26.449961L 28.498619 26.449961C 30.698601 26.449961 32.4986 28.24996 32.4986 30.450001L 32.4986 39.450001M 11.598632 36.450001L 32.398598 36.450001M 11.598632 46.450001L 28.39864 46.450001M 16.398621 26.449961L 16.398621 20.449959L 27.598619 20.449959L 27.598619 26.449961M 33.57 56.049999C 32.970001 56.049999 32.169998 55.650002 31.969999 55.049999C 31.57 54.450001 31.57 53.849998 31.77 53.049999L 34.970001 46.049999C 35.370003 45.25 35.970001 44.849998 36.77 44.849998L 42.169998 44.849998C 42.970001 44.849998 43.57 45.25 43.970001 46.049999L 47.169998 53.049999C 47.369999 53.650002 47.369999 54.450001 46.970001 55.049999C 46.57 55.650002 45.970001 56.049999 45.369999 56.049999L 33.57 56.049999ZM 10 10M 43.369999 45.450001L 38.970001 56.049999M 49.57 45.25L 51.369999 45.25C 52.169998 45.25 52.77 45.650002 53.169998 46.450001L 56.369999 53.450001C 56.57 54.049999 56.57 54.849998 56.169998 55.450001C 55.77 56.049999 55.169998 56.450001 54.57 56.450001L 53.77 56.450001M 39.132999 26.099979C 36.733002 25.69998 34.733002 24.100079 34.132999 21.700081C 33.333 18.50008 37.733002 11.5 37.733002 11.5C 37.733002 11.5 43.932999 15.099979 45.533001 18.099979M 35.132999 17.300039C 35.132999 17.300039 38.132999 17.700001 41.333 19.5M 39.132999 26.099979C 40.733002 30.5 40.132999 36.900002 39.932999 38.099998M 44.947399 27.54998C 43.947399 30.75 45.747398 34.149799 48.947399 34.949799C 52.1474 35.749802 55.547401 34.149799 56.347401 30.9498C 57.347401 27.749901 53.1474 20.54998 53.1474 20.54998C 53.1474 20.54998 45.947399 24.349979 44.947399 27.54998ZM 55.747398 26.749941C 55.747398 26.749941 50.347401 27.14996 46.1474 31.15M 48.947399 34.931198C 48.947399 34.931198 48.347401 36.931198 48.1474 39.731201"></path></g></g></g><g id="g-root-tx_datigrez_4otmrb52evpd-stroke" data-item-order="0" transform="translate(746, 458)"></g><g id="g-root-tx_giudizis_13yn0jb52g7pm-stroke" data-item-order="0" transform="translate(602, 122)"></g><g id="g-root-tx_comprens_144975j52naq4-stroke" data-item-order="0" transform="translate(236, 38)"></g><g id="g-root-ic_stra_8vweif52vnr4-stroke" data-item-order="0" transform="translate(344, 608)"><g id="ic_stra_8vweif52vnr4-stroke" fill="none" stroke-linecap="round" stroke-linejoin="round" stroke-miterlimit="4" stroke="#ffffff" stroke-width="2" stroke-opacity="1"><g><path d="M 33.997002 20.552719C 25.965321 20.41922 17.658661 26.03006 12.436359 31.7784C 11.888186 32.387001 11.584838 33.177002 11.584838 33.996002C 11.584838 34.815002 11.888186 35.605 12.436359 36.2136C 17.543079 41.840401 25.827839 47.582802 33.997002 47.447201C 42.166199 47.582802 50.451 41.840401 55.563599 36.2136C 56.111801 35.605 56.415199 34.815002 56.415199 33.996002C 56.415199 33.177002 56.111801 32.387001 55.563599 31.7784C 50.3354 26.03006 42.028801 20.41922 33.997002 20.552719ZM 25.56904 33.999599C 25.56904 38.673798 29.358219 42.463001 34.032402 42.463001L 34.032402 25.53628C 29.358219 25.53628 25.56904 29.32548 25.56904 33.999599ZM 10 10M 34.032402 34.001801L 36.405197 34.001801M 38.085999 29.46706L 39.986401 29.46706M 10 10M 41.099998 34.001801L 43.1036 34.001801M 38.085999 38.5364L 39.986401 38.5364M 10 10M 34.032402 25.5382L 36.405197 25.5382M 10 10M 34.032402 42.456799L 36.405197 42.456799"></path></g></g></g><g id="g-root-ic_form_qvx5dj52anlw-stroke" data-item-order="0" transform="translate(548, 608)"><g id="ic_form_qvx5dj52anlw-stroke" fill="none" stroke-linecap="round" stroke-linejoin="round" stroke-miterlimit="4" stroke="#ffffff" stroke-width="2" stroke-opacity="1"><g><path d="M 13 14.139999L 44.540001 14.139999C 44.540001 14.139999 46.540001 14.139999 46.540001 16.139999L 46.540001 51.860001C 46.540001 51.860001 46.540001 53.860001 44.540001 53.860001L 13 53.860001C 13 53.860001 11 53.860001 11 51.860001L 11 16.139999C 11 16.139999 11 14.139999 13 14.139999M 51.779999 48.639999L 51.779999 34L 51.779999 19.360001M 57 45.5L 57 22.5M 19.360001 20.42L 19.360001 32.959999L 36.440002 20.42L 19.360001 20.42ZM 19.360001 37.700001L 24.58 34L 32.84 34.02L 19.360001 43.099998L 19.360001 37.700001ZM 19.360001 47.599998L 26.68 42.68L 26.68 47.599998L 19.360001 47.599998Z"></path></g></g></g><g id="g-root-tx_sensibil_1qa3urb52g7wr-stroke" data-item-order="0" transform="translate(218, 686)"></g><g id="g-root-tx_forma_18fpgtz52g93h-stroke" data-item-order="0" transform="translate(602, 686)"></g><g id="g-root-tx_ricezion_18itu9j52ga9w-stroke" data-item-order="0" transform="translate(182, 722)"></g><g id="g-root-ic_user_24tiv52rh1e-stroke" data-item-order="0" transform="translate(248, 446)"><g id="ic_user_24tiv52rh1e-stroke" fill="none" stroke-linecap="round" stroke-linejoin="round" stroke-miterlimit="4" stroke="#ffffff" stroke-width="2" stroke-opacity="1"><g><path d="M 32 35C 25.372583 35 20 29.627417 20 23C 20 16.372583 25.372583 11 32 11ZM 13 57C 13 46.506592 21.50659 38 32 38L 32 57ZM 36 35C 36.670525 34.995987 37.339535 34.935776 38 34.82L 38 31.76C 38.983719 31.534334 39.921806 31.142733 40.773998 30.601999L 42.945999 32.774002C 44.040051 31.99596 44.99596 31.040052 45.773998 29.945999L 43.599998 27.774C 44.141434 26.92194 44.533714 25.983845 44.759998 25L 47.82 25C 47.935772 24.339535 47.995983 23.670525 48 23C 47.995983 22.329475 47.935772 21.660467 47.82 21L 44.759998 21C 44.533714 20.016151 44.141434 19.07806 43.599998 18.226L 45.771999 16.054001C 44.993961 14.959948 44.038052 14.00404 42.944 13.226L 40.774002 15.4C 39.921936 14.858564 38.983845 14.466283 38 14.24L 38 11.18C 37.339535 11.064227 36.670525 11.004017 36 11M 36 19C 38.209137 19 40 20.790861 40 23C 40 25.209139 38.209137 27 36 27M 55 57C 54.992783 55.994694 54.905846 54.99155 54.739998 53.999996L 50.698002 54C 50.430782 52.702488 49.990864 51.446644 49.390003 50.266003L 52.332001 47.326C 50.955723 45.003922 49.102207 43.000431 46.894001 41.448002L 44.009998 44.334C 42.772068 43.546524 41.424023 42.947319 40.010002 42.556L 40.010002 38.43C 38.692268 38.145462 37.348099 38.001328 36 38M 36 49C 40.418278 49 44 52.581722 44 57"></path></g></g></g></g></g></svg>