<?xml version="1.0" encoding="utf-8" standalone="yes"?>
<!DOCTYPE svg PUBLIC "-//W3C//DTD SVG 1.1//EN" "http://www.w3.org/Graphics/SVG/1.1/DTD/svg11.dtd">
<svg style="fill:none;stroke:none;fill-rule:evenodd;clip-rule:evenodd;stroke-linecap:round;stroke-linejoin:round;stroke-miterlimit:1.5;" version="1.1" xmlns="http://www.w3.org/2000/svg" xmlns:xlink="http://www.w3.org/1999/xlink" width="596" height="516" viewBox="0 0 596 516"><style class="text-font-style fontImports" data-font-family="Roboto">@import url(https://fonts.googleapis.com/css2?family=Roboto:wght@400;700&amp;amp;display=block);</style><rect id="" x="0" y="0" width="596" height="516" style="fill: #ffffff;"></rect><g id="items" style="isolation: isolate"><g id="blend" style="mix-blend-mode: normal"><g id="g-root-tf_18gyoh37kqmtn-fill" data-item-order="999538696"><g id="tf_18gyoh37kqmtn-fill-merged" stroke="none" fill="#ffffff" fill-opacity="1"><g><path d="M0 0 H596 V516 H0 V0"></path></g></g></g><g id="g-root-cp_start_g-start_1q9gbqf7uj7db-fill" data-item-order="999769852" transform="translate(37.999969482421875, 248.125)"><g id="cp_start_g-start_1q9gbqf7uj7db-fill-merged" stroke="none" fill="#969696" fill-opacity="1"><g><path d="M10 41C10 50.389 17.611 58 27 58 H125C134.389 58 142 50.389 142 41 V27C142 17.611 134.389 10 125 10 H27C17.611 10 10 17.611 10 27 V41"></path></g></g></g><g id="g-root-cp_1_g-1_1hdtbhj7uj8xs-fill" data-item-order="999769896" transform="translate(265.9999694824219, 172.125)"><g id="cp_1_g-1_1hdtbhj7uj8xs-fill-merged" stroke="none" fill="#de8431" fill-opacity="1"><g><path d="M10 51C10 59.284 16.716 66 25 66 H87C95.284 66 102 59.284 102 51 V25C102 16.716 95.284 10 87 10 H25C16.716 10 10 16.716 10 25 V51"></path></g></g></g><g id="g-root-cp_1-1_g-1-1_142za7b7uj7cx-fill" data-item-order="999769936" transform="translate(393.9999694824219, 122.125)"><g id="cp_1-1_g-1-1_142za7b7uj7cx-fill-merged" stroke="none" fill="#de8431" fill-opacity="1"><g><path d="M10 35C10 41.075 14.925 46 21 46 H131C137.075 46 142 41.075 142 35 V21C142 14.925 137.075 10 131 10 H21C14.925 10 10 14.925 10 21 V35"></path></g></g></g><g id="g-root-cp_1-2_g-1-2_hwi8o77uj6kq-fill" data-item-order="999769972" transform="translate(393.9999694824219, 170.125)"><g id="cp_1-2_g-1-2_hwi8o77uj6kq-fill-merged" stroke="none" fill="#de8431" fill-opacity="1"><g><path d="M10 47C10 53.075 14.925 58 21 58 H95C101.075 58 106 53.075 106 47 V21C106 14.925 101.075 10 95 10 H21C14.925 10 10 14.925 10 21 V47"></path></g></g></g><g id="g-root-cp_1-3_g-1-3_4l1qav7uj85n-fill" data-item-order="999770008" transform="translate(393.9999694824219, 230.125)"><g id="cp_1-3_g-1-3_4l1qav7uj85n-fill-merged" stroke="none" fill="#de8431" fill-opacity="1"><g><path d="M10 47C10 53.075 14.925 58 21 58 H83C89.075 58 94 53.075 94 47 V21C94 14.925 89.075 10 83 10 H21C14.925 10 10 14.925 10 21 V47"></path></g></g></g><g id="g-root-cp_2_g-2_1qbbqzr7uj6do-fill" data-item-order="999770050" transform="translate(265.9999694824219, 352.125)"><g id="cp_2_g-2_1qbbqzr7uj6do-fill-merged" stroke="none" fill="#e55753" fill-opacity="1"><g><path d="M10 39C10 47.284 16.716 54 25 54 H99C107.284 54 114 47.284 114 39 V25C114 16.716 107.284 10 99 10 H25C16.716 10 10 16.716 10 25 V39"></path></g></g></g><g id="g-root-cp_2-1_g-2-1_1czv8mf7uj7yl-fill" data-item-order="999770090" transform="translate(405.9999694824219, 326.125)"><g id="cp_2-1_g-2-1_1czv8mf7uj7yl-fill-merged" stroke="none" fill="#e55753" fill-opacity="1"><g><path d="M10 35C10 41.075 14.925 46 21 46 H131C137.075 46 142 41.075 142 35 V21C142 14.925 137.075 10 131 10 H21C14.925 10 10 14.925 10 21 V35"></path></g></g></g><g id="g-root-cp_2-2_g-2-2_zp17c77uj6dq-fill" data-item-order="999770126" transform="translate(405.9999694824219, 374.125)"><g id="cp_2-2_g-2-2_zp17c77uj6dq-fill-merged" stroke="none" fill="#e55753" fill-opacity="1"><g><path d="M10 47C10 53.075 14.925 58 21 58 H131C137.075 58 142 53.075 142 47 V21C142 14.925 137.075 10 131 10 H21C14.925 10 10 14.925 10 21 V47"></path></g></g></g><g id="g-root-he_v97p7r7uj760-fill" data-item-order="999770167" transform="translate(169.99996948242188, 200.125)"></g><g id="g-root-he_qte73b7uj7ya-fill" data-item-order="999770169" transform="translate(357.9999694824219, 140.125)"></g><g id="g-root-he_qte73b7uj7yc-fill" data-item-order="999770171" transform="translate(369.9999694824219, 344.125)"></g><g id="g-root-tx_mappacon_dboxuv7ulzij-fill" data-item-order="1000000000" transform="translate(95.99996948242188, 38.125)"><g id="tx_mappacon_dboxuv7ulzij-fill-merged" stroke="none" fill="#484848" fill-opacity="1"><g><text style="font: bold 20px Roboto, sans-serif; white-space: pre;" font-weight="bold" font-size="20px" font-family="Roboto, sans-serif"><tspan x="13.83" y="33.85" dominant-baseline="ideographic">Mappa Concettuale del Pensiero Kantiano</tspan></text></g></g></g><g id="g-root-tx_giudizid_13z8fon7unfuw-fill" data-item-order="1000000000" transform="translate(399.9999694824219, 128.125)"><g id="tx_giudizid_13z8fon7unfuw-fill-merged" stroke="none" fill="#ffffff" fill-opacity="1"><g><text style="font: 11.7px Roboto, sans-serif; white-space: pre;" font-size="11.7px" font-family="Roboto, sans-serif"><tspan x="12" y="28.85" dominant-baseline="ideographic">Giudizi della Scienza</tspan></text></g></g></g><g id="g-root-tx_teoriade_mfg4877ulzbb-fill" data-item-order="1000000000" transform="translate(275.9999694824219, 182.125)"><g id="tx_teoriade_mfg4877ulzbb-fill-merged" stroke="none" fill="#ffffff" fill-opacity="1"><g><text style="font: bold 11.7px Roboto, sans-serif; white-space: pre;" font-weight="bold" font-size="11.7px" font-family="Roboto, sans-serif"><tspan x="12" y="27.84" dominant-baseline="ideographic">Teoria della </tspan><tspan x="12" y="41.85" dominant-baseline="ideographic">Conoscenza</tspan></text></g></g></g><g id="g-root-tx_facoltde_hvvrl37ung99-fill" data-item-order="1000000000" transform="translate(399.9999694824219, 176.125)"><g id="tx_facoltde_hvvrl37ung99-fill-merged" stroke="none" fill="#ffffff" fill-opacity="1"><g><text style="font: 11.7px Roboto, sans-serif; white-space: pre;" font-size="11.7px" font-family="Roboto, sans-serif"><tspan x="12" y="27.84" dominant-baseline="ideographic">Facoltà della </tspan><tspan x="12" y="41.85" dominant-baseline="ideographic">Conoscenza</tspan></text></g></g></g><g id="g-root-tx_limitide_hxr6uf7unf9n-fill" data-item-order="1000000000" transform="translate(399.9999694824219, 236.125)"><g id="tx_limitide_hxr6uf7unf9n-fill-merged" stroke="none" fill="#ffffff" fill-opacity="1"><g><text style="font: 11.7px Roboto, sans-serif; white-space: pre;" font-size="11.7px" font-family="Roboto, sans-serif"><tspan x="12" y="27.84" dominant-baseline="ideographic">Limiti della </tspan><tspan x="12" y="41.85" dominant-baseline="ideographic">Conoscenza</tspan></text></g></g></g><g id="g-root-tx_pensiero_qpnckn7um29t-fill" data-item-order="1000000000" transform="translate(49.999969482421875, 260.125)"><g id="tx_pensiero_qpnckn7um29t-fill-merged" stroke="none" fill="#ffffff" fill-opacity="1"><g><text style="font: 11.7px Roboto, sans-serif; white-space: pre;" font-size="11.7px" font-family="Roboto, sans-serif"><tspan x="16.61" y="28.85" dominant-baseline="ideographic">Pensiero Kantiano</tspan></text></g></g></g><g id="g-root-tx_imperati_1hit46f7uot1i-fill" data-item-order="1000000000" transform="translate(411.9999694824219, 332.125)"><g id="tx_imperati_1hit46f7uot1i-fill-merged" stroke="none" fill="#ffffff" fill-opacity="1"><g><text style="font: 11.7px Roboto, sans-serif; white-space: pre;" font-size="11.7px" font-family="Roboto, sans-serif"><tspan x="12" y="28.85" dominant-baseline="ideographic">Imperativo Categorico</tspan></text></g></g></g><g id="g-root-tx_leggemor_zlactj7uotts-fill" data-item-order="1000000000" transform="translate(275.9999694824219, 362.125)"><g id="tx_leggemor_zlactj7uotts-fill-merged" stroke="none" fill="#ffffff" fill-opacity="1"><g><text style="font: bold 11.7px Roboto, sans-serif; white-space: pre;" font-weight="bold" font-size="11.7px" font-family="Roboto, sans-serif"><tspan x="12" y="28.85" dominant-baseline="ideographic">Legge Morale</tspan></text></g></g></g><g id="g-root-tx_postulat_qwikiv7uot1k-fill" data-item-order="1000000000" transform="translate(411.9999694824219, 380.125)"><g id="tx_postulat_qwikiv7uot1k-fill-merged" stroke="none" fill="#ffffff" fill-opacity="1"><g><text style="font: 11.7px Roboto, sans-serif; white-space: pre;" font-size="11.7px" font-family="Roboto, sans-serif"><tspan x="12" y="27.84" dominant-baseline="ideographic">Postulati della Ragion </tspan><tspan x="12" y="41.85" dominant-baseline="ideographic">Pratica</tspan></text></g></g></g><g id="g-root-tf_18gyoh37kqmtn-stroke" data-item-order="999538696"></g><g id="g-root-cp_start_g-start_1q9gbqf7uj7db-stroke" data-item-order="999769852" transform="translate(37.999969482421875, 248.125)"><g id="cp_start_g-start_1q9gbqf7uj7db-stroke" fill="none" stroke-linecap="round" stroke-linejoin="round" stroke-miterlimit="4" stroke="#ffffff" stroke-width="2" stroke-opacity="1"><g><path d="M 27 10C 17.6112 10 10 17.6112 10 27M 125 10L 27 10M 142 41C 142 50.3888 134.3888 58 125 58M 125 10C 134.3888 10 142 17.6112 142 27M 10 41L 10 27M 142 41L 142 27M 27 58L 125 58M 27 58C 17.6112 58 10 50.3888 10 41"></path></g></g></g><g id="g-root-cp_1_g-1_1hdtbhj7uj8xs-stroke" data-item-order="999769896" transform="translate(265.9999694824219, 172.125)"><g id="cp_1_g-1_1hdtbhj7uj8xs-stroke" fill="none" stroke-linecap="round" stroke-linejoin="round" stroke-miterlimit="4" stroke="#ffffff" stroke-width="2" stroke-opacity="1"><g><path d="M 25 10C 16.7157 10 10 16.7157 10 25M 87 10L 25 10M 102 51C 102 59.2843 95.2843 66 87 66M 87 10C 95.2843 10 102 16.7157 102 25M 10 51L 10 25M 102 51L 102 25M 25 66L 87 66M 25 66C 16.7157 66 10 59.2843 10 51"></path></g></g></g><g id="g-root-cp_1-1_g-1-1_142za7b7uj7cx-stroke" data-item-order="999769936" transform="translate(393.9999694824219, 122.125)"><g id="cp_1-1_g-1-1_142za7b7uj7cx-stroke" fill="none" stroke-linecap="round" stroke-linejoin="round" stroke-miterlimit="4" stroke="#ffffff" stroke-width="2" stroke-opacity="1"><g><path d="M 21 10C 14.9249 10 10 14.9249 10 21M 131 10L 21 10M 142 35C 142 41.0751 137.0751 46 131 46M 131 10C 137.0751 10 142 14.9249 142 21M 10 35L 10 21M 142 35L 142 21M 21 46L 131 46M 21 46C 14.9249 46 10 41.0751 10 35"></path></g></g></g><g id="g-root-cp_1-2_g-1-2_hwi8o77uj6kq-stroke" data-item-order="999769972" transform="translate(393.9999694824219, 170.125)"><g id="cp_1-2_g-1-2_hwi8o77uj6kq-stroke" fill="none" stroke-linecap="round" stroke-linejoin="round" stroke-miterlimit="4" stroke="#ffffff" stroke-width="2" stroke-opacity="1"><g><path d="M 21 10C 14.9249 10 10 14.9249 10 21M 95 10L 21 10M 106 47C 106 53.0751 101.0751 58 95 58M 95 10C 101.0751 10 106 14.9249 106 21M 10 47L 10 21M 106 47L 106 21M 21 58L 95 58M 21 58C 14.9249 58 10 53.0751 10 47"></path></g></g></g><g id="g-root-cp_1-3_g-1-3_4l1qav7uj85n-stroke" data-item-order="999770008" transform="translate(393.9999694824219, 230.125)"><g id="cp_1-3_g-1-3_4l1qav7uj85n-stroke" fill="none" stroke-linecap="round" stroke-linejoin="round" stroke-miterlimit="4" stroke="#ffffff" stroke-width="2" stroke-opacity="1"><g><path d="M 21 10C 14.9249 10 10 14.9249 10 21M 83 10L 21 10M 94 47C 94 53.0751 89.0751 58 83 58M 83 10C 89.0751 10 94 14.9249 94 21M 10 47L 10 21M 94 47L 94 21M 21 58L 83 58M 21 58C 14.9249 58 10 53.0751 10 47"></path></g></g></g><g id="g-root-cp_2_g-2_1qbbqzr7uj6do-stroke" data-item-order="999770050" transform="translate(265.9999694824219, 352.125)"><g id="cp_2_g-2_1qbbqzr7uj6do-stroke" fill="none" stroke-linecap="round" stroke-linejoin="round" stroke-miterlimit="4" stroke="#ffffff" stroke-width="2" stroke-opacity="1"><g><path d="M 25 10C 16.7157 10 10 16.7157 10 25M 99 10L 25 10M 114 39C 114 47.2843 107.2843 54 99 54M 99 10C 107.2843 10 114 16.7157 114 25M 10 39L 10 25M 114 39L 114 25M 25 54L 99 54M 25 54C 16.7157 54 10 47.2843 10 39"></path></g></g></g><g id="g-root-cp_2-1_g-2-1_1czv8mf7uj7yl-stroke" data-item-order="999770090" transform="translate(405.9999694824219, 326.125)"><g id="cp_2-1_g-2-1_1czv8mf7uj7yl-stroke" fill="none" stroke-linecap="round" stroke-linejoin="round" stroke-miterlimit="4" stroke="#ffffff" stroke-width="2" stroke-opacity="1"><g><path d="M 21 10C 14.9249 10 10 14.9249 10 21M 131 10L 21 10M 142 35C 142 41.0751 137.0751 46 131 46M 131 10C 137.0751 10 142 14.9249 142 21M 10 35L 10 21M 142 35L 142 21M 21 46L 131 46M 21 46C 14.9249 46 10 41.0751 10 35"></path></g></g></g><g id="g-root-cp_2-2_g-2-2_zp17c77uj6dq-stroke" data-item-order="999770126" transform="translate(405.9999694824219, 374.125)"><g id="cp_2-2_g-2-2_zp17c77uj6dq-stroke" fill="none" stroke-linecap="round" stroke-linejoin="round" stroke-miterlimit="4" stroke="#ffffff" stroke-width="2" stroke-opacity="1"><g><path d="M 21 10C 14.9249 10 10 14.9249 10 21M 131 10L 21 10M 142 47C 142 53.0751 137.0751 58 131 58M 131 10C 137.0751 10 142 14.9249 142 21M 10 47L 10 21M 142 47L 142 21M 21 58L 131 58M 21 58C 14.9249 58 10 53.0751 10 47"></path></g></g></g><g id="g-root-he_v97p7r7uj760-stroke" data-item-order="999770167" transform="translate(169.99996948242188, 200.125)"><g id="he_v97p7r7uj760-stroke" fill="none" stroke-linecap="round" stroke-linejoin="round" stroke-miterlimit="4" stroke="#484848" stroke-width="2" stroke-opacity="1"><g><path d="M 16 77.5L 100 14.5M 16 88.375L 100 177.625"></path></g></g></g><g id="g-root-he_qte73b7uj7ya-stroke" data-item-order="999770169" transform="translate(357.9999694824219, 140.125)"><g id="he_qte73b7uj7ya-stroke" fill="none" stroke-linecap="round" stroke-linejoin="round" stroke-miterlimit="4" stroke="#de8431" stroke-width="2" stroke-opacity="1"><g><path d="M 16 60L 40 20M 16 69L 40 65M 16 79L 40 115"></path></g></g></g><g id="g-root-he_qte73b7uj7yc-stroke" data-item-order="999770171" transform="translate(369.9999694824219, 344.125)"><g id="he_qte73b7uj7yc-stroke" fill="none" stroke-linecap="round" stroke-linejoin="round" stroke-miterlimit="4" stroke="#e55753" stroke-width="2" stroke-opacity="1"><g><path d="M 16 35L 40 15M 16 44L 40 60"></path></g></g></g><g id="g-root-tx_mappacon_dboxuv7ulzij-stroke" data-item-order="1000000000" transform="translate(95.99996948242188, 38.125)"></g><g id="g-root-tx_giudizid_13z8fon7unfuw-stroke" data-item-order="1000000000" transform="translate(399.9999694824219, 128.125)"></g><g id="g-root-tx_teoriade_mfg4877ulzbb-stroke" data-item-order="1000000000" transform="translate(275.9999694824219, 182.125)"></g><g id="g-root-tx_facoltde_hvvrl37ung99-stroke" data-item-order="1000000000" transform="translate(399.9999694824219, 176.125)"></g><g id="g-root-tx_limitide_hxr6uf7unf9n-stroke" data-item-order="1000000000" transform="translate(399.9999694824219, 236.125)"></g><g id="g-root-tx_pensiero_qpnckn7um29t-stroke" data-item-order="1000000000" transform="translate(49.999969482421875, 260.125)"></g><g id="g-root-tx_imperati_1hit46f7uot1i-stroke" data-item-order="1000000000" transform="translate(411.9999694824219, 332.125)"></g><g id="g-root-tx_leggemor_zlactj7uotts-stroke" data-item-order="1000000000" transform="translate(275.9999694824219, 362.125)"></g><g id="g-root-tx_postulat_qwikiv7uot1k-stroke" data-item-order="1000000000" transform="translate(411.9999694824219, 380.125)"></g></g></g></svg>