<?xml version="1.0" encoding="utf-8" standalone="yes"?>
<!DOCTYPE svg PUBLIC "-//W3C//DTD SVG 1.1//EN" "http://www.w3.org/Graphics/SVG/1.1/DTD/svg11.dtd">
<svg style="fill:none;stroke:none;fill-rule:evenodd;clip-rule:evenodd;stroke-linecap:round;stroke-linejoin:round;stroke-miterlimit:1.5;" version="1.1" xmlns="http://www.w3.org/2000/svg" xmlns:xlink="http://www.w3.org/1999/xlink" width="596" height="720" viewBox="0 0 596 720"><style class="text-font-style fontImports" data-font-family="Roboto">@import url(https://fonts.googleapis.com/css2?family=Roboto:wght@400;700&amp;amp;display=block);</style><rect id="" x="0" y="0" width="596" height="720" style="fill: #ffffff;"></rect><g id="items" style="isolation: isolate"><g id="blend" style="mix-blend-mode: normal"><g id="g-root-tf_1cw4ke55cmwav-fill" data-item-order="-643680"><g id="tf_1cw4ke55cmwav-fill-merged" stroke="none" fill="#ffffff" fill-opacity="1"><g><path d="M0 0 H596 V720 H0 V0"></path></g></g></g><g id="g-root-cp_1-1_g-1-1_i099h95ctwqo-fill" data-item-order="-341934" transform="translate(86, 122.001220703125)"><g id="cp_1-1_g-1-1_i099h95ctwqo-fill-merged" stroke="none" fill="#de8431" fill-opacity="1"><g><path d="M10 35C10 41.075 14.925 46 21 46 H119C125.075 46 130 41.075 130 35 V21C130 14.925 125.075 10 119 10 H21C14.925 10 10 14.925 10 21 V35"></path></g></g></g><g id="g-root-cp_1-2_g-1-2_4pf8715ctv5t-fill" data-item-order="-341898" transform="translate(74, 170.001220703125)"><g id="cp_1-2_g-1-2_4pf8715ctv5t-fill-merged" stroke="none" fill="#de8431" fill-opacity="1"><g><path d="M10 35C10 41.075 14.925 46 21 46 H131C137.075 46 142 41.075 142 35 V21C142 14.925 137.075 10 131 10 H21C14.925 10 10 14.925 10 21 V35"></path></g></g></g><g id="g-root-cp_1_g-1_1uuw9x95ctvre-fill" data-item-order="-341860" transform="translate(242, 136.001220703125)"><g id="cp_1_g-1_1uuw9x95ctvre-fill-merged" stroke="none" fill="#de8431" fill-opacity="1"><g><path d="M10 51C10 59.284 16.716 66 25 66 H99C107.284 66 114 59.284 114 51 V25C114 16.716 107.284 10 99 10 H25C16.716 10 10 16.716 10 25 V51"></path></g></g></g><g id="g-root-cp_2-1_g-2-1_1hjfrjx5ctxcb-fill" data-item-order="-341814" transform="translate(122, 254.001220703125)"><g id="cp_2-1_g-2-1_1hjfrjx5ctxcb-fill-merged" stroke="none" fill="#e55753" fill-opacity="1"><g><path d="M10 47C10 53.075 14.925 58 21 58 H83C89.075 58 94 53.075 94 47 V21C94 14.925 89.075 10 83 10 H21C14.925 10 10 14.925 10 21 V47"></path></g></g></g><g id="g-root-cp_2-2_g-2-2_1cu954t5cv9j8-fill" data-item-order="-341778" transform="translate(86, 314.001220703125)"><g id="cp_2-2_g-2-2_1cu954t5cv9j8-fill-merged" stroke="none" fill="#e55753" fill-opacity="1"><g><path d="M10 35C10 41.075 14.925 46 21 46 H119C125.075 46 130 41.075 130 35 V21C130 14.925 125.075 10 119 10 H21C14.925 10 10 14.925 10 21 V35"></path></g></g></g><g id="g-root-cp_2_g-2_13ym4vx5cvabx-fill" data-item-order="-341740" transform="translate(242, 274.001220703125)"><g id="cp_2_g-2_13ym4vx5cvabx-fill-merged" stroke="none" fill="#e55753" fill-opacity="1"><g><path d="M10 51C10 59.284 16.716 66 25 66 H99C107.284 66 114 59.284 114 51 V25C114 16.716 107.284 10 99 10 H25C16.716 10 10 16.716 10 25 V51"></path></g></g></g><g id="g-root-cp_3-1_g-3-1_qn5mil5cvbwu-fill" data-item-order="-341694" transform="translate(74, 398.001220703125)"><g id="cp_3-1_g-3-1_qn5mil5cvbwu-fill-merged" stroke="none" fill="#de58a9" fill-opacity="1"><g><path d="M10 35C10 41.075 14.925 46 21 46 H95C101.075 46 106 41.075 106 35 V21C106 14.925 101.075 10 95 10 H21C14.925 10 10 14.925 10 21 V35"></path></g></g></g><g id="g-root-cp_3-2_g-3-2_m7ylh95cv9jb-fill" data-item-order="-341658" transform="translate(50, 446.001220703125)"><g id="cp_3-2_g-3-2_m7ylh95cv9jb-fill-merged" stroke="none" fill="#de58a9" fill-opacity="1"><g><path d="M10 35C10 41.075 14.925 46 21 46 H119C125.075 46 130 41.075 130 35 V21C130 14.925 125.075 10 119 10 H21C14.925 10 10 14.925 10 21 V35"></path></g></g></g><g id="g-root-cp_3_g-3_hs53ct5cvabk-fill" data-item-order="-341620" transform="translate(206, 418.001220703125)"><g id="cp_3_g-3_hs53ct5cvabk-fill-merged" stroke="none" fill="#de58a9" fill-opacity="1"><g><path d="M10 39C10 47.284 16.716 54 25 54 H135C143.284 54 150 47.284 150 39 V25C150 16.716 143.284 10 135 10 H25C16.716 10 10 16.716 10 25 V39"></path></g></g></g><g id="g-root-cp_4-1_g-4-1_4gokzh5cvbwh-fill" data-item-order="-341574" transform="translate(110, 530.001220703125)"><g id="cp_4-1_g-4-1_4gokzh5cvbwh-fill-merged" stroke="none" fill="#ba5de5" fill-opacity="1"><g><path d="M10 35C10 41.075 14.925 46 21 46 H119C125.075 46 130 41.075 130 35 V21C130 14.925 125.075 10 119 10 H21C14.925 10 10 14.925 10 21 V35"></path></g></g></g><g id="g-root-cp_4-2_g-4-2_1ums3st5cv9ca-fill" data-item-order="-341538" transform="translate(98, 578.001220703125)"><g id="cp_4-2_g-4-2_1ums3st5cv9ca-fill-merged" stroke="none" fill="#ba5de5" fill-opacity="1"><g><path d="M10 47C10 53.075 14.925 58 21 58 H131C137.075 58 142 53.075 142 47 V21C142 14.925 137.075 10 131 10 H21C14.925 10 10 14.925 10 21 V47"></path></g></g></g><g id="g-root-cp_4_g-4_1q6ylod5cva4j-fill" data-item-order="-341500" transform="translate(266, 556.001220703125)"><g id="cp_4_g-4_1q6ylod5cva4j-fill-merged" stroke="none" fill="#ba5de5" fill-opacity="1"><g><path d="M10 39C10 47.284 16.716 54 25 54 H75C83.284 54 90 47.284 90 39 V25C90 16.716 83.284 10 75 10 H25C16.716 10 10 16.716 10 25 V39"></path></g></g></g><g id="g-root-cp_start_g-start_1hbblfh5cvax8-fill" data-item-order="-341458" transform="translate(442, 350.001220703125)"><g id="cp_start_g-start_1hbblfh5cvax8-fill-merged" stroke="none" fill="#969696" fill-opacity="1"><g><path d="M10 41C10 50.389 17.611 58 27 58 H89C98.389 58 106 50.389 106 41 V27C106 17.611 98.389 10 89 10 H27C17.611 10 10 17.611 10 27 V41"></path></g></g></g><g id="g-root-he_140hk595cv9ce-fill" data-item-order="-341417" transform="translate(346, 164.001220703125)"></g><g id="g-root-he_18gb29p5cv9c0-fill" data-item-order="-341415" transform="translate(206, 140.001220703125)"></g><g id="g-root-he_18gb29p5cv9c2-fill" data-item-order="-341413" transform="translate(206, 278.001220703125)"></g><g id="g-root-he_zko20t5cva4s-fill" data-item-order="-341411" transform="translate(170, 416.001220703125)"></g><g id="g-root-he_zko20t5cva4u-fill" data-item-order="-341409" transform="translate(230, 548.001220703125)"></g><g id="g-root-tx_karlpopp_1lt0lz15cbl6u-fill" data-item-order="0" transform="translate(454, 362.001220703125)"><g id="tx_karlpopp_1lt0lz15cbl6u-fill-merged" stroke="none" fill="#ffffff" fill-opacity="1"><g><text style="font: 11.7px Roboto, sans-serif; white-space: pre;" font-size="11.7px" font-family="Roboto, sans-serif"><tspan x="15.66" y="28.85" dominant-baseline="ideographic">Karl Popper</tspan></text></g></g></g><g id="g-root-tx_criticad_zko56l5ca801-fill" data-item-order="0" transform="translate(80, 404.001220703125)"><g id="tx_criticad_zko56l5ca801-fill-merged" stroke="none" fill="#ffffff" fill-opacity="1"><g><text style="font: 11.7px Roboto, sans-serif; white-space: pre;" font-size="11.7px" font-family="Roboto, sans-serif"><tspan x="11.95" y="28.85" dominant-baseline="ideographic">Critica di Hume</tspan></text></g></g></g><g id="g-root-tx_teoriesc_1uuw9x95cvaq0-fill" data-item-order="0" transform="translate(92, 320.001220703125)"><g id="tx_teoriesc_1uuw9x95cvaq0-fill-merged" stroke="none" fill="#ffffff" fill-opacity="1"><g><text style="font: 11.7px Roboto, sans-serif; white-space: pre;" font-size="11.7px" font-family="Roboto, sans-serif"><tspan x="20.34" y="28.85" dominant-baseline="ideographic">Teorie Scientifiche</tspan></text></g></g></g><g id="g-root-tx_criterio_8wi69p5ca8zp-fill" data-item-order="0" transform="translate(252, 284.001220703125)"><g id="tx_criterio_8wi69p5ca8zp-fill-merged" stroke="none" fill="#ffffff" fill-opacity="1"><g><text style="font: bold 11.7px Roboto, sans-serif; white-space: pre;" font-weight="bold" font-size="11.7px" font-family="Roboto, sans-serif"><tspan x="40.14" y="27.84" dominant-baseline="ideographic">Criterio di </tspan><tspan x="16.66" y="41.85" dominant-baseline="ideographic">Demarcazione</tspan></text></g></g></g><g id="g-root-tx_ruolodel_1upwke55ca8ea-fill" data-item-order="0" transform="translate(216, 428.001220703125)"><g id="tx_ruolodel_1upwke55ca8ea-fill-merged" stroke="none" fill="#ffffff" fill-opacity="1"><g><text style="font: bold 11.7px Roboto, sans-serif; white-space: pre;" font-weight="bold" font-size="11.7px" font-family="Roboto, sans-serif"><tspan x="22.17" y="28.85" dominant-baseline="ideographic">Ruolo dell'Induzione</tspan></text></g></g></g><g id="g-root-tx_teorieno_146qb0d5cvbpo-fill" data-item-order="0" transform="translate(128, 260.001220703125)"><g id="tx_teorieno_146qb0d5cvbpo-fill-merged" stroke="none" fill="#ffffff" fill-opacity="1"><g><text style="font: 11.7px Roboto, sans-serif; white-space: pre;" font-size="11.7px" font-family="Roboto, sans-serif"><tspan x="23.34" y="27.84" dominant-baseline="ideographic">Teorie Non </tspan><tspan x="19.52" y="41.85" dominant-baseline="ideographic">Scientifiche</tspan></text></g></g></g><g id="g-root-tx_metodode_18hk3lp5ca8lq-fill" data-item-order="0" transform="translate(56, 452.001220703125)"><g id="tx_metodode_18hk3lp5ca8lq-fill-merged" stroke="none" fill="#ffffff" fill-opacity="1"><g><text style="font: 11.7px Roboto, sans-serif; white-space: pre;" font-size="11.7px" font-family="Roboto, sans-serif"><tspan x="23.39" y="28.85" dominant-baseline="ideographic">Metodo Deduttivo</tspan></text></g></g></g><g id="g-root-tx_falsific_hx4w1p5cvair-fill" data-item-order="0" transform="translate(80, 176.001220703125)"><g id="tx_falsific_hx4w1p5cvair-fill-merged" stroke="none" fill="#ffffff" fill-opacity="1"><g><text style="font: 11.7px Roboto, sans-serif; white-space: pre;" font-size="11.7px" font-family="Roboto, sans-serif"><tspan x="13.46" y="28.85" dominant-baseline="ideographic">Falsificatori Potenziali</tspan></text></g></g></g><g id="g-root-tx_programm_v60t5cbnyg-fill" data-item-order="0" transform="translate(104, 584.001220703125)"><g id="tx_programm_v60t5cbnyg-fill-merged" stroke="none" fill="#ffffff" fill-opacity="1"><g><text style="font: 11.7px Roboto, sans-serif; white-space: pre;" font-size="11.7px" font-family="Roboto, sans-serif"><tspan x="16.15" y="27.84" dominant-baseline="ideographic">Programmi di Ricerca </tspan><tspan x="77.07" y="41.85" dominant-baseline="ideographic">Metafisici</tspan></text></g></g></g><g id="g-root-tx_principi_qu0ugt5cvb4f-fill" data-item-order="0" transform="translate(252, 146.001220703125)"><g id="tx_principi_qu0ugt5cvb4f-fill-merged" stroke="none" fill="#ffffff" fill-opacity="1"><g><text style="font: bold 11.7px Roboto, sans-serif; white-space: pre;" font-weight="bold" font-size="11.7px" font-family="Roboto, sans-serif"><tspan x="32.49" y="27.84" dominant-baseline="ideographic">Principio di </tspan><tspan x="19.33" y="41.85" dominant-baseline="ideographic">Falsificazione</tspan></text></g></g></g><g id="g-root-tx_asimmetr_4kffi55cv9xi-fill" data-item-order="0" transform="translate(92, 128.001220703125)"><g id="tx_asimmetr_4kffi55cv9xi-fill-merged" stroke="none" fill="#ffffff" fill-opacity="1"><g><text style="font: 11.7px Roboto, sans-serif; white-space: pre;" font-size="11.7px" font-family="Roboto, sans-serif"><tspan x="18.03" y="28.85" dominant-baseline="ideographic">Asimmetria Logica</tspan></text></g></g></g><g id="g-root-tx_metafisi_140hnb15cbldv-fill" data-item-order="0" transform="translate(276, 566.001220703125)"><g id="tx_metafisi_140hnb15cbldv-fill-merged" stroke="none" fill="#ffffff" fill-opacity="1"><g><text style="font: bold 11.7px Roboto, sans-serif; white-space: pre;" font-weight="bold" font-size="11.7px" font-family="Roboto, sans-serif"><tspan x="12.65" y="28.85" dominant-baseline="ideographic">Metafisica</tspan></text></g></g></g><g id="g-root-tx_razional_1q8u0xp5cv956-fill" data-item-order="0" transform="translate(126, 38.001220703125)"><g id="tx_razional_1q8u0xp5cv956-fill-merged" stroke="none" fill="#484848" fill-opacity="1"><g><text style="font: bold 20px Roboto, sans-serif; white-space: pre;" font-weight="bold" font-size="20px" font-family="Roboto, sans-serif"><tspan x="12.86" y="33.85" dominant-baseline="ideographic">Razionalismo Critico di Karl Popper</tspan></text></g></g></g><g id="g-root-tx_funzione_qsrzgd5ca6th-fill" data-item-order="0" transform="translate(116, 536.001220703125)"><g id="tx_funzione_qsrzgd5ca6th-fill-merged" stroke="none" fill="#ffffff" fill-opacity="1"><g><text style="font: 11.7px Roboto, sans-serif; white-space: pre;" font-size="11.7px" font-family="Roboto, sans-serif"><tspan x="20.9" y="28.85" dominant-baseline="ideographic">Funzione Euristica</tspan></text></g></g></g><g id="g-root-tf_1cw4ke55cmwav-stroke" data-item-order="-643680"></g><g id="g-root-cp_1-1_g-1-1_i099h95ctwqo-stroke" data-item-order="-341934" transform="translate(86, 122.001220703125)"><g id="cp_1-1_g-1-1_i099h95ctwqo-stroke" fill="none" stroke-linecap="round" stroke-linejoin="round" stroke-miterlimit="4" stroke="#ffffff" stroke-width="2" stroke-opacity="1"><g><path d="M 21 10C 14.9249 10 10 14.9249 10 21M 119 10L 21 10M 130 35C 130 41.0751 125.0751 46 119 46M 119 10C 125.0751 10 130 14.9249 130 21M 10 35L 10 21M 130 35L 130 21M 21 46L 119 46M 21 46C 14.9249 46 10 41.0751 10 35"></path></g></g></g><g id="g-root-cp_1-2_g-1-2_4pf8715ctv5t-stroke" data-item-order="-341898" transform="translate(74, 170.001220703125)"><g id="cp_1-2_g-1-2_4pf8715ctv5t-stroke" fill="none" stroke-linecap="round" stroke-linejoin="round" stroke-miterlimit="4" stroke="#ffffff" stroke-width="2" stroke-opacity="1"><g><path d="M 21 10C 14.9249 10 10 14.9249 10 21M 131 10L 21 10M 142 35C 142 41.0751 137.0751 46 131 46M 131 10C 137.0751 10 142 14.9249 142 21M 10 35L 10 21M 142 35L 142 21M 21 46L 131 46M 21 46C 14.9249 46 10 41.0751 10 35"></path></g></g></g><g id="g-root-cp_1_g-1_1uuw9x95ctvre-stroke" data-item-order="-341860" transform="translate(242, 136.001220703125)"><g id="cp_1_g-1_1uuw9x95ctvre-stroke" fill="none" stroke-linecap="round" stroke-linejoin="round" stroke-miterlimit="4" stroke="#ffffff" stroke-width="2" stroke-opacity="1"><g><path d="M 25 10C 16.7157 10 10 16.7157 10 25M 99 10L 25 10M 114 51C 114 59.2843 107.2843 66 99 66M 99 10C 107.2843 10 114 16.7157 114 25M 10 51L 10 25M 114 51L 114 25M 25 66L 99 66M 25 66C 16.7157 66 10 59.2843 10 51"></path></g></g></g><g id="g-root-cp_2-1_g-2-1_1hjfrjx5ctxcb-stroke" data-item-order="-341814" transform="translate(122, 254.001220703125)"><g id="cp_2-1_g-2-1_1hjfrjx5ctxcb-stroke" fill="none" stroke-linecap="round" stroke-linejoin="round" stroke-miterlimit="4" stroke="#ffffff" stroke-width="2" stroke-opacity="1"><g><path d="M 21 10C 14.9249 10 10 14.9249 10 21M 83 10L 21 10M 94 47C 94 53.0751 89.0751 58 83 58M 83 10C 89.0751 10 94 14.9249 94 21M 10 47L 10 21M 94 47L 94 21M 21 58L 83 58M 21 58C 14.9249 58 10 53.0751 10 47"></path></g></g></g><g id="g-root-cp_2-2_g-2-2_1cu954t5cv9j8-stroke" data-item-order="-341778" transform="translate(86, 314.001220703125)"><g id="cp_2-2_g-2-2_1cu954t5cv9j8-stroke" fill="none" stroke-linecap="round" stroke-linejoin="round" stroke-miterlimit="4" stroke="#ffffff" stroke-width="2" stroke-opacity="1"><g><path d="M 21 10C 14.9249 10 10 14.9249 10 21M 119 10L 21 10M 130 35C 130 41.0751 125.0751 46 119 46M 119 10C 125.0751 10 130 14.9249 130 21M 10 35L 10 21M 130 35L 130 21M 21 46L 119 46M 21 46C 14.9249 46 10 41.0751 10 35"></path></g></g></g><g id="g-root-cp_2_g-2_13ym4vx5cvabx-stroke" data-item-order="-341740" transform="translate(242, 274.001220703125)"><g id="cp_2_g-2_13ym4vx5cvabx-stroke" fill="none" stroke-linecap="round" stroke-linejoin="round" stroke-miterlimit="4" stroke="#ffffff" stroke-width="2" stroke-opacity="1"><g><path d="M 25 10C 16.7157 10 10 16.7157 10 25M 99 10L 25 10M 114 51C 114 59.2843 107.2843 66 99 66M 99 10C 107.2843 10 114 16.7157 114 25M 10 51L 10 25M 114 51L 114 25M 25 66L 99 66M 25 66C 16.7157 66 10 59.2843 10 51"></path></g></g></g><g id="g-root-cp_3-1_g-3-1_qn5mil5cvbwu-stroke" data-item-order="-341694" transform="translate(74, 398.001220703125)"><g id="cp_3-1_g-3-1_qn5mil5cvbwu-stroke" fill="none" stroke-linecap="round" stroke-linejoin="round" stroke-miterlimit="4" stroke="#ffffff" stroke-width="2" stroke-opacity="1"><g><path d="M 21 10C 14.9249 10 10 14.9249 10 21M 95 10L 21 10M 106 35C 106 41.0751 101.0751 46 95 46M 95 10C 101.0751 10 106 14.9249 106 21M 10 35L 10 21M 106 35L 106 21M 21 46L 95 46M 21 46C 14.9249 46 10 41.0751 10 35"></path></g></g></g><g id="g-root-cp_3-2_g-3-2_m7ylh95cv9jb-stroke" data-item-order="-341658" transform="translate(50, 446.001220703125)"><g id="cp_3-2_g-3-2_m7ylh95cv9jb-stroke" fill="none" stroke-linecap="round" stroke-linejoin="round" stroke-miterlimit="4" stroke="#ffffff" stroke-width="2" stroke-opacity="1"><g><path d="M 21 10C 14.9249 10 10 14.9249 10 21M 119 10L 21 10M 130 35C 130 41.0751 125.0751 46 119 46M 119 10C 125.0751 10 130 14.9249 130 21M 10 35L 10 21M 130 35L 130 21M 21 46L 119 46M 21 46C 14.9249 46 10 41.0751 10 35"></path></g></g></g><g id="g-root-cp_3_g-3_hs53ct5cvabk-stroke" data-item-order="-341620" transform="translate(206, 418.001220703125)"><g id="cp_3_g-3_hs53ct5cvabk-stroke" fill="none" stroke-linecap="round" stroke-linejoin="round" stroke-miterlimit="4" stroke="#ffffff" stroke-width="2" stroke-opacity="1"><g><path d="M 25 10C 16.7157 10 10 16.7157 10 25M 135 10L 25 10M 150 39C 150 47.2843 143.2843 54 135 54M 135 10C 143.2843 10 150 16.7157 150 25M 10 39L 10 25M 150 39L 150 25M 25 54L 135 54M 25 54C 16.7157 54 10 47.2843 10 39"></path></g></g></g><g id="g-root-cp_4-1_g-4-1_4gokzh5cvbwh-stroke" data-item-order="-341574" transform="translate(110, 530.001220703125)"><g id="cp_4-1_g-4-1_4gokzh5cvbwh-stroke" fill="none" stroke-linecap="round" stroke-linejoin="round" stroke-miterlimit="4" stroke="#ffffff" stroke-width="2" stroke-opacity="1"><g><path d="M 21 10C 14.9249 10 10 14.9249 10 21M 119 10L 21 10M 130 35C 130 41.0751 125.0751 46 119 46M 119 10C 125.0751 10 130 14.9249 130 21M 10 35L 10 21M 130 35L 130 21M 21 46L 119 46M 21 46C 14.9249 46 10 41.0751 10 35"></path></g></g></g><g id="g-root-cp_4-2_g-4-2_1ums3st5cv9ca-stroke" data-item-order="-341538" transform="translate(98, 578.001220703125)"><g id="cp_4-2_g-4-2_1ums3st5cv9ca-stroke" fill="none" stroke-linecap="round" stroke-linejoin="round" stroke-miterlimit="4" stroke="#ffffff" stroke-width="2" stroke-opacity="1"><g><path d="M 21 10C 14.9249 10 10 14.9249 10 21M 131 10L 21 10M 142 47C 142 53.0751 137.0751 58 131 58M 131 10C 137.0751 10 142 14.9249 142 21M 10 47L 10 21M 142 47L 142 21M 21 58L 131 58M 21 58C 14.9249 58 10 53.0751 10 47"></path></g></g></g><g id="g-root-cp_4_g-4_1q6ylod5cva4j-stroke" data-item-order="-341500" transform="translate(266, 556.001220703125)"><g id="cp_4_g-4_1q6ylod5cva4j-stroke" fill="none" stroke-linecap="round" stroke-linejoin="round" stroke-miterlimit="4" stroke="#ffffff" stroke-width="2" stroke-opacity="1"><g><path d="M 25 10C 16.7157 10 10 16.7157 10 25M 75 10L 25 10M 90 39C 90 47.2843 83.2843 54 75 54M 75 10C 83.2843 10 90 16.7157 90 25M 10 39L 10 25M 90 39L 90 25M 25 54L 75 54M 25 54C 16.7157 54 10 47.2843 10 39"></path></g></g></g><g id="g-root-cp_start_g-start_1hbblfh5cvax8-stroke" data-item-order="-341458" transform="translate(442, 350.001220703125)"><g id="cp_start_g-start_1hbblfh5cvax8-stroke" fill="none" stroke-linecap="round" stroke-linejoin="round" stroke-miterlimit="4" stroke="#ffffff" stroke-width="2" stroke-opacity="1"><g><path d="M 27 10C 17.6112 10 10 17.6112 10 27M 89 10L 27 10M 106 41C 106 50.3888 98.3888 58 89 58M 89 10C 98.3888 10 106 17.6112 106 27M 10 41L 10 27M 106 41L 106 27M 27 58L 89 58M 27 58C 17.6112 58 10 50.3888 10 41"></path></g></g></g><g id="g-root-he_140hk595cv9ce-stroke" data-item-order="-341417" transform="translate(346, 164.001220703125)"><g id="he_140hk595cv9ce-stroke" fill="none" stroke-linecap="round" stroke-linejoin="round" stroke-miterlimit="4" stroke="#484848" stroke-width="2" stroke-opacity="1"><g><path d="M 100 206.875L 16 23.125M 100 215.5L 16 152.5M 100 224.125L 16 281.875M 100 232.75L 16 411.25"></path></g></g></g><g id="g-root-he_18gb29p5cv9c0-stroke" data-item-order="-341415" transform="translate(206, 140.001220703125)"><g id="he_18gb29p5cv9c0-stroke" fill="none" stroke-linecap="round" stroke-linejoin="round" stroke-miterlimit="4" stroke="#de8431" stroke-width="2" stroke-opacity="1"><g><path d="M 40 30L 16 14M 40 38L 16 54"></path></g></g></g><g id="g-root-he_18gb29p5cv9c2-stroke" data-item-order="-341413" transform="translate(206, 278.001220703125)"><g id="he_18gb29p5cv9c2-stroke" fill="none" stroke-linecap="round" stroke-linejoin="round" stroke-miterlimit="4" stroke="#e55753" stroke-width="2" stroke-opacity="1"><g><path d="M 40 30L 16 14M 40 39L 16 59"></path></g></g></g><g id="g-root-he_zko20t5cva4s-stroke" data-item-order="-341411" transform="translate(170, 416.001220703125)"><g id="he_zko20t5cva4s-stroke" fill="none" stroke-linecap="round" stroke-linejoin="round" stroke-miterlimit="4" stroke="#de58a9" stroke-width="2" stroke-opacity="1"><g><path d="M 40 30L 16 14M 40 38L 16 54"></path></g></g></g><g id="g-root-he_zko20t5cva4u-stroke" data-item-order="-341409" transform="translate(230, 548.001220703125)"><g id="he_zko20t5cva4u-stroke" fill="none" stroke-linecap="round" stroke-linejoin="round" stroke-miterlimit="4" stroke="#ba5de5" stroke-width="2" stroke-opacity="1"><g><path d="M 40 35L 16 15M 40 44L 16 60"></path></g></g></g><g id="g-root-tx_karlpopp_1lt0lz15cbl6u-stroke" data-item-order="0" transform="translate(454, 362.001220703125)"></g><g id="g-root-tx_criticad_zko56l5ca801-stroke" data-item-order="0" transform="translate(80, 404.001220703125)"></g><g id="g-root-tx_teoriesc_1uuw9x95cvaq0-stroke" data-item-order="0" transform="translate(92, 320.001220703125)"></g><g id="g-root-tx_criterio_8wi69p5ca8zp-stroke" data-item-order="0" transform="translate(252, 284.001220703125)"></g><g id="g-root-tx_ruolodel_1upwke55ca8ea-stroke" data-item-order="0" transform="translate(216, 428.001220703125)"></g><g id="g-root-tx_teorieno_146qb0d5cvbpo-stroke" data-item-order="0" transform="translate(128, 260.001220703125)"></g><g id="g-root-tx_metodode_18hk3lp5ca8lq-stroke" data-item-order="0" transform="translate(56, 452.001220703125)"></g><g id="g-root-tx_falsific_hx4w1p5cvair-stroke" data-item-order="0" transform="translate(80, 176.001220703125)"></g><g id="g-root-tx_programm_v60t5cbnyg-stroke" data-item-order="0" transform="translate(104, 584.001220703125)"></g><g id="g-root-tx_principi_qu0ugt5cvb4f-stroke" data-item-order="0" transform="translate(252, 146.001220703125)"></g><g id="g-root-tx_asimmetr_4kffi55cv9xi-stroke" data-item-order="0" transform="translate(92, 128.001220703125)"></g><g id="g-root-tx_metafisi_140hnb15cbldv-stroke" data-item-order="0" transform="translate(276, 566.001220703125)"></g><g id="g-root-tx_razional_1q8u0xp5cv956-stroke" data-item-order="0" transform="translate(126, 38.001220703125)"></g><g id="g-root-tx_funzione_qsrzgd5ca6th-stroke" data-item-order="0" transform="translate(116, 536.001220703125)"></g></g></g></svg>