<?xml version="1.0" encoding="utf-8" standalone="yes"?>
<!DOCTYPE svg PUBLIC "-//W3C//DTD SVG 1.1//EN" "http://www.w3.org/Graphics/SVG/1.1/DTD/svg11.dtd">
<svg style="fill:none;stroke:none;fill-rule:evenodd;clip-rule:evenodd;stroke-linecap:round;stroke-linejoin:round;stroke-miterlimit:1.5;" version="1.1" xmlns="http://www.w3.org/2000/svg" xmlns:xlink="http://www.w3.org/1999/xlink" width="840" height="720" viewBox="0 0 840 720"><style class="text-font-style fontImports" data-font-family="Roboto">@import url(https://fonts.googleapis.com/css2?family=Roboto:wght@400;700&amp;amp;display=block);</style><rect id="" x="0" y="0" width="840" height="720" style="fill: #2c2c2c;"></rect><g id="items" style="isolation: isolate"><g id="blend" style="mix-blend-mode: normal"><g id="g-root-tf_1hgyapdgfsjr4-fill" data-item-order="-907200"><g id="tf_1hgyapdgfsjr4-fill-merged" stroke="none" fill="#2c2c2c"><g><path d="M0 0 H840 V720 H0 V0"></path></g></g></g><g id="g-root-cp_1_g-1_mcywttgf8wst-fill" data-item-order="-494196" transform="translate(38, 170)"><g id="cp_1_g-1_mcywttgf8wst-fill-merged" stroke="none" fill="#fb6762"><g><path d="M10 10 H178 V274 H10 V10"></path></g></g></g><g id="g-root-cp_0_g-0_hx5epdgf8xl2-fill" data-item-order="-494182" transform="translate(64.25, 457.248046875)"><g id="cp_0_g-0_hx5epdgf8xl2-fill-merged" stroke="none" fill="#e8e8e8"><g><path d="M72.788 78.167C72.97 79.673 72.97 81.143 72.716 82.529C71.804 87.351 76.118 94.426 81.234 98.205C80.803 93.358 81.451 88.768 79.665 85.723C78.237 83.286 74.485 79.67 72.788 78.167 M57.78 143.748C84.977 130 77.788 123.001 109.266 106.554C116.786 102.626 105.058 88.349 89.396 100.532C88.321 99.966 86.506 100.653 84.977 100.15C83.599 99.697 82.35 99.029 81.234 98.205C76.118 94.426 71.804 87.351 72.716 82.529C72.97 81.143 72.97 79.673 72.788 78.167C71.81 70.043 70.567 59.893 70.635 57.477C73.389 32.967 74.78 26.266 71.732 16.522C68.683 6.778 62.722 9.864 62.104 13.555C60.945 20.484 60.314 35.534 54.715 54.918C54.473 56.528 53.132 61.366 52.894 62.78C48.492 63.876 47.265 63.493 43.256 67.397C37.855 68.861 31.383 76.937 30.602 79.282C23.676 83.136 21.084 90.682 20.677 95.278C21.104 98.782 20.164 109.557 20.164 109.557C20.164 137.8 10 143.748 10 163.669 H52.375C52.375 153.448 56.73 144.231 57.78 143.748 M57.78 143.748C59.252 142.033 63.003 136.705 63.003 130 M30.602 79.282L28.902 82.529 M52.894 62.78C50.096 65.219 50.182 68.936 47.959 72.356 M43.256 67.397C42.355 68.895 40.381 72.418 39.687 74.529 M96.698 105.187C96.44 104.308 92.649 102.244 89.396 100.532"></path></g></g></g><g id="g-root-cp_2_g-2_hx5epdgf8xl3-fill" data-item-order="-494178" transform="translate(230, 122)"><g id="cp_2_g-2_hx5epdgf8xl3-fill-merged" stroke="none" fill="#f79438"><g><path d="M10 10 H178 V274 H10 V10"></path></g></g></g><g id="g-root-cp_0_g-0_1_dhbwkxgf8ydc-fill" data-item-order="-494164" transform="translate(280.07000732421875, 408.23583984375)"><g id="cp_0_g-0_1_dhbwkxgf8ydc-fill-merged" stroke="none" fill="#e8e8e8"><g><path d="M40.099 60.654C40.28 63.405 40.404 65.872 40.486 68.125C40.651 72.662 40.645 76.328 40.59 79.681C40.567 81.097 40.535 82.457 40.504 83.803C40.544 82.569 40.574 81.174 40.59 79.681C40.631 76.105 40.602 71.966 40.486 68.125C40.403 65.378 40.277 62.783 40.099 60.654 M15.071 87.668L14.768 88.363L14.426 88.967L14.228 89.229L14.031 89.43C14.29 89.207 14.534 88.842 14.768 88.363C15.057 87.771 15.331 87.004 15.596 86.121L15.341 86.923L15.071 87.668 M16.282 83.546L17.035 80.339C16.971 80.616 16.907 80.892 16.844 81.167C16.655 81.982 16.469 82.782 16.282 83.546 M64.923 137.234C68.366 132.807 79.864 119.767 83.785 103.313C86.834 90.521 86.051 80.268 88.2 72.441C90.873 62.703 76.654 66.789 74.749 80.109C72.845 93.428 68.401 94.116 66.239 94.984L62.956 93.732C61.621 87.525 61.116 78.31 59.801 69.481C52.687 36.478 53.501 18.524 48.875 13.011C44.249 7.498 38.446 10.515 38.639 14.43C39 21.779 41.499 39.569 40.099 60.654C40.277 62.783 40.403 65.378 40.486 68.125C40.651 72.662 40.645 76.328 40.59 79.681C40.573 81.212 40.543 82.639 40.501 83.896 V83.803C40.535 82.457 40.567 81.097 40.59 79.681C40.631 76.105 40.602 71.966 40.486 68.125C40.404 65.872 40.28 63.405 40.099 60.654C39.842 57.562 39.614 56.356 38.87 55.41C37.384 53.519 33.288 52.028 29.409 56.342C28.063 57.839 26.912 61.163 26.606 65.674L26.415 69.456 V70.471C26.312 72.312 26.255 74.081 26.152 75.599 V75.669C25.992 77.912 25.736 79.57 25.201 80.105L25.33 79.947L25.496 79.638L25.708 79.006L25.899 78.058L26.145 75.702 V75.599L26.278 73.178L26.378 70.471C26.389 70.156 26.401 69.84 26.413 69.522C26.464 68.194 26.521 66.915 26.606 65.674C22.741 65.764 22.165 67.444 20.049 70.83C19.212 72.169 18.525 74.331 17.906 76.722L17.488 78.406L17.035 80.339C17.183 79.696 17.334 79.048 17.488 78.406C17.624 77.838 17.763 77.274 17.906 76.722C17.447 76.689 17.68 77.029 15.561 78.727C13.101 80.698 10.797 86.859 10.161 89.362L10 89.87L10.884 99.683C13.567 122.361 20.19 132.457 21.604 140.376L26.034 164.742 H66.033C64.202 153.872 64.179 138.189 64.923 137.234 M14.768 88.363L15.071 87.668L15.341 86.923L15.596 86.121C15.331 87.004 15.057 87.771 14.768 88.363C14.534 88.842 14.29 89.207 14.031 89.43L14.228 89.229L14.426 88.967L14.768 88.363 M66.433 100.831C64.782 99.915 63.729 97.329 62.956 93.732 M40.501 83.896C40.502 83.865 40.503 83.834 40.504 83.803 M20.049 70.83C18.801 72.826 17.886 76.653 17.035 80.339 M14.031 89.43C15.127 88.489 15.962 84.985 16.844 81.167C16.428 82.966 16.023 84.696 15.596 86.121 M15.596 86.121L15.837 85.277L16.282 83.546C16.057 84.47 15.829 85.341 15.596 86.121 M26.415 69.456C26.414 69.478 26.414 69.5 26.413 69.522 M26.152 75.599C26.15 75.633 26.148 75.668 26.145 75.702"></path></g></g></g><g id="g-root-cp_3_g-3_4mbdf5gf8w09-fill" data-item-order="-494160" transform="translate(422, 188)"><g id="cp_3_g-3_4mbdf5gf8w09-fill-merged" stroke="none" fill="#ffe711"><g><path d="M10 10 H178 V298 H10 V10"></path></g></g></g><g id="g-root-cp_0_g-0_2_6hvapgf8wsi-fill" data-item-order="-494146" transform="translate(469.2269287109375, 499.864990234375)"><g id="cp_0_g-0_2_6hvapgf8wsi-fill-merged" stroke="none" fill="#e8e8e8"><g><path d="M27.242 158.898C27.011 154.179 29.2 142.192 20.924 132.984C12.649 123.775 9.882 104.089 10.004 90.369C10.029 87.571 11.623 86.265 15.496 83.5C23.764 77.596 29.914 73.995 29.914 73.995C37.197 49.137 35.947 41.461 39.578 24.214C41.832 4.69 53.321 9.147 53.321 14.973C53.321 20.799 52.015 24.295 52.015 32.35C51.387 42.375 50.793 56.405 50.792 66.846C55.798 60.708 63.549 66.217 63.456 71.235C70.64 69.435 73.83 75.202 75.067 81.245C75.555 81.294 77.802 81.991 79.889 83.809C82.312 85.92 82.74 92.23 83.191 94.492L83.316 94.957C83.316 94.957 86.365 98.037 87.357 103.658C88.348 109.279 68.765 140.18 68.774 146.406C68.78 149.917 67.657 152.163 68.218 158.898 H27.242 M25.182 99.684C25.182 97.338 25.223 93.208 25.339 91.322 M50.792 66.846 V71.232 M29.914 73.995C27.367 82.686 25.681 85.805 25.339 91.322 M25.339 91.322C23.869 91.789 20.929 93.341 20.929 95.818"></path></g></g></g><g id="g-root-cp_4_g-4_1qbyx0xgf8xe3-fill" data-item-order="-494142" transform="translate(614, 158)"><g id="cp_4_g-4_1qbyx0xgf8xe3-fill-merged" stroke="none" fill="#43dd93"><g><path d="M10 10 H178 V238 H10 V10"></path></g></g></g><g id="g-root-cp_0_g-0_3_1lw5ewhgf8y6c-fill" data-item-order="-494128" transform="translate(645.5780029296875, 408.462890625)"><g id="cp_0_g-0_3_1lw5ewhgf8y6c-fill-merged" stroke="none" fill="#e8e8e8"><g><path d="M54.467 145.426C50.675 141.646 33.642 130.52 29.111 115.018C25.048 101.122 14.98 89.31 10.836 81.661C6.243 73.184 21.651 68.071 30.969 85.117C36.353 91.596 42.36 96.941 45.647 97.541C46.937 97.777 50.808 95.08 52.288 92.558C54.578 88.656 54.294 84.208 54.294 84.208C54.653 80.048 54.522 78.14 54.467 74.571C54.442 72.958 54.433 71.006 54.492 68.354C54.765 65.207 54.984 62.206 55.159 59.347C56.771 33.034 54.724 18.766 58.082 13.556C61.804 7.78 67.661 9.943 67.947 13.675C68.485 20.68 68.248 37.829 72.097 57.635C72.195 59.26 72.3 60.78 72.412 62.21C72.481 63.092 72.552 63.94 72.625 64.758C73.012 69.075 73.456 72.547 73.91 75.716C74.109 77.164 74.309 78.513 74.499 79.699 V79.611C74.295 78.34 74.101 77.055 73.91 75.716C73.443 72.334 72.976 68.411 72.625 64.758C72.552 63.94 72.481 63.092 72.412 62.21C76.699 63.694 81.612 70.325 85.257 74.571C90.506 76.51 92.956 81.803 93.525 84.208C96.092 85.781 99.121 90.615 99.116 95.229C102.634 98.023 101.787 102.638 101.787 102.638C101.96 124.44 96.927 131.891 102.638 144.435C108.348 156.979 108.348 168.007 108.348 168.007 H68.231C62.287 151.433 55.285 146.242 54.467 145.426 M55.159 59.347C54.984 62.206 54.765 65.207 54.492 68.354C54.433 71.006 54.442 72.958 54.467 74.571L50.027 73.571C43.466 78.674 38.391 81.504 33.044 76.958C27.698 72.412 34.353 68.354 40.55 64.122C45.507 60.735 52.355 59.528 55.159 59.347 M74.499 79.699C74.494 79.67 74.49 79.641 74.486 79.611C74.3 78.447 74.105 77.129 73.91 75.716 M50.027 73.571C52.457 73.571 54 74.571 54.467 74.571 M52.288 92.558C50.922 96.277 49.598 101.307 45.01 102.638"></path></g></g></g><g id="g-root-tx_comeclas_1d14vqpgf8vt9-fill" data-item-order="0" transform="translate(122, 38)"><g id="tx_comeclas_1d14vqpgf8vt9-fill-merged" stroke="none" fill="#f4f4f4"><g><text style="font: bold 25px Roboto, sans-serif; white-space: pre;" font-weight="bold" font-size="25px" font-family="Roboto, sans-serif"><tspan x="13.84" y="43" dominant-baseline="ideographic">Come classificare i sistemi di IA in base al rischio?</tspan></text></g></g></g><g id="g-root-ic_malf_4ikiwhgfhddu-fill" data-item-order="0" transform="translate(278, 146)"></g><g id="g-root-ic_sign_zpodddgf8xe6-fill" data-item-order="0" transform="translate(86, 194)"></g><g id="g-root-ic_airb_1qd7v75gfiscr-fill" data-item-order="0" transform="translate(662, 182)"></g><g id="g-root-ic_eye_1q6z4c1gfiqrq-fill" data-item-order="0" transform="translate(470, 212)"></g><g id="g-root-tx_sistemia_1cu9nshgfiq6i-fill" data-item-order="0" transform="translate(242, 242)"><g id="tx_sistemia_1cu9nshgfiq6i-fill-merged" stroke="none" fill="#2c2c2c"><g><text style="font: bold 20px Roboto, sans-serif; white-space: pre;" font-weight="bold" font-size="20px" font-family="Roboto, sans-serif"><tspan x="13.56" y="33.84" dominant-baseline="ideographic">Sistemi ad alto </tspan><tspan x="49.89" y="57.85" dominant-baseline="ideographic">rischio</tspan></text></g></g></g><g id="g-root-tx_pratiche_1umsmghgfhbtb-fill" data-item-order="0" transform="translate(80, 290)"><g id="tx_pratiche_1umsmghgfhbtb-fill-merged" stroke="none" fill="#2c2c2c"><g><text style="font: bold 20px Roboto, sans-serif; white-space: pre;" font-weight="bold" font-size="20px" font-family="Roboto, sans-serif"><tspan x="11.97" y="33.84" dominant-baseline="ideographic">Pratiche </tspan><tspan x="18.88" y="57.85" dominant-baseline="ideographic">vietate</tspan></text></g></g></g><g id="g-root-tx_rischiom_1ly0u5tgfmxa9-fill" data-item-order="0" transform="translate(620, 278)"><g id="tx_rischiom_1ly0u5tgfmxa9-fill-merged" stroke="none" fill="#2c2c2c"><g><text style="font: bold 20px Roboto, sans-serif; white-space: pre;" font-weight="bold" font-size="20px" font-family="Roboto, sans-serif"><tspan x="16.92" y="33.84" dominant-baseline="ideographic">Rischio minimo </tspan><tspan x="56.3" y="57.85" dominant-baseline="ideographic">o nullo</tspan></text></g></g></g><g id="g-root-tx_incidono_v3m4dtgfipdv-fill" data-item-order="0" transform="translate(242, 302)"><g id="tx_incidono_v3m4dtgfipdv-fill-merged" stroke="none" fill="#2c2c2c"><g><text style="font: 15px Roboto, sans-serif; white-space: pre;" font-size="15px" font-family="Roboto, sans-serif"><tspan x="51.99" y="27.69" dominant-baseline="ideographic">Incidono </tspan><tspan x="19.76" y="45.69" dominant-baseline="ideographic">significativamente </tspan><tspan x="12.64" y="63.69" dominant-baseline="ideographic">su diritti, sicurezza o </tspan><tspan x="40.08" y="81.7" dominant-baseline="ideographic">opportunità.</tspan></text></g></g></g><g id="g-root-tx_rischiol_v9uv8xgfiqyu-fill" data-item-order="0" transform="translate(464, 308)"><g id="tx_rischiol_v9uv8xgfiqyu-fill-merged" stroke="none" fill="#2c2c2c"><g><text style="font: bold 20px Roboto, sans-serif; white-space: pre;" font-weight="bold" font-size="20px" font-family="Roboto, sans-serif"><tspan x="16.69" y="33.84" dominant-baseline="ideographic">Rischio </tspan><tspan x="15.74" y="57.85" dominant-baseline="ideographic">limitato</tspan></text></g></g></g><g id="g-root-tx_comporta_zkokohgfhclk-fill" data-item-order="0" transform="translate(56, 350)"><g id="tx_comporta_zkokohgfhclk-fill-merged" stroke="none" fill="#2c2c2c"><g><text style="font: 15px Roboto, sans-serif; white-space: pre;" font-size="15px" font-family="Roboto, sans-serif"><tspan x="12.26" y="27.69" dominant-baseline="ideographic">Comportano rischi </tspan><tspan x="22.76" y="45.69" dominant-baseline="ideographic">gravi per i diritti </tspan><tspan x="16.02" y="63.69" dominant-baseline="ideographic">fondamentali o la </tspan><tspan x="40.43" y="81.7" dominant-baseline="ideographic">sicurezza.</tspan></text></g></g></g><g id="g-root-tx_utilizzo_1lr5m7lgfoc97-fill" data-item-order="0" transform="translate(626, 338)"><g id="tx_utilizzo_1lr5m7lgfoc97-fill-merged" stroke="none" fill="#2c2c2c"><g><text style="font: 15px Roboto, sans-serif; white-space: pre;" font-size="15px" font-family="Roboto, sans-serif"><tspan x="13.72" y="27.69" dominant-baseline="ideographic">Utilizzo libero senza </tspan><tspan x="20.55" y="45.69" dominant-baseline="ideographic">rischi significativi.</tspan></text></g></g></g><g id="g-root-tx_mancanza_hz0typgfipe0-fill" data-item-order="0" transform="translate(446, 368)"><g id="tx_mancanza_hz0typgfipe0-fill-merged" stroke="none" fill="#2c2c2c"><g><text style="font: 15px Roboto, sans-serif; white-space: pre;" font-size="15px" font-family="Roboto, sans-serif"><tspan x="25.5" y="30.68" dominant-baseline="ideographic">Mancanza di </tspan><tspan x="14.76" y="48.69" dominant-baseline="ideographic">trasparenza che </tspan><tspan x="41.71" y="66.69" dominant-baseline="ideographic">richiede </tspan><tspan x="24.15" y="84.7" dominant-baseline="ideographic">informazione </tspan><tspan x="35.97" y="102.7" dominant-baseline="ideographic">all'utente.</tspan></text></g></g></g><g id="g-root-tf_1hgyapdgfsjr4-stroke" data-item-order="-907200"></g><g id="g-root-cp_1_g-1_mcywttgf8wst-stroke" data-item-order="-494196" transform="translate(38, 170)"><g id="cp_1_g-1_mcywttgf8wst-stroke" fill="none" stroke-linecap="round" stroke-linejoin="round" stroke-miterlimit="4" stroke="#2c2c2c" stroke-width="2"><g><path d="M 10 10L 178 10L 178 274L 10 274Z"></path></g></g></g><g id="g-root-cp_0_g-0_hx5epdgf8xl2-stroke" data-item-order="-494182" transform="translate(64.25, 457.248046875)"><g id="cp_0_g-0_hx5epdgf8xl2-stroke" fill="none" stroke-linecap="round" stroke-linejoin="round" stroke-miterlimit="4" stroke="#2c2c2c" stroke-width="2"><g><path d="M 72.7884 78.1666C 72.9699 79.6726 72.9705 81.1432 72.7164 82.5292C 71.8039 87.3509 76.1184 94.4256 81.2342 98.2049C 80.8031 93.3577 81.4507 88.7684 79.6652 85.7226C 78.2369 83.2859 74.4855 79.67 72.7884 78.1666ZM 57.7796 143.7479C 84.9765 130.0002 77.7884 123.0008 109.2661 106.5545C 116.7859 102.6256 105.0579 88.349 89.3964 100.5319C 88.321 99.966 86.506 100.6529 84.9765 100.1498C 83.5988 99.6966 82.3499 99.0291 81.2342 98.2049C 76.1184 94.4256 71.8039 87.3509 72.7164 82.5292C 72.9705 81.1432 72.9699 79.6726 72.7884 78.1666C 71.8096 70.0428 70.5671 59.8926 70.6347 57.4772C 73.3887 32.9666 74.7801 26.2659 71.7316 16.5218C 68.6831 6.7777 62.7219 9.8636 62.1042 13.5553C 60.9449 20.4838 60.314 35.5344 54.7155 54.9185C 54.4734 56.5281 53.1325 61.3655 52.8939 62.7801C 48.4915 63.8761 47.2649 63.4928 43.2561 67.3972C 37.8553 68.8606 31.3831 76.9374 30.602 79.2817C 23.6756 83.1363 21.0837 90.6819 20.6773 95.2783C 21.1037 98.7821 20.1645 109.557 20.1645 109.557C 20.1645 137.8004 10 143.7479 10 163.6688L 52.3748 163.6688C 52.3748 153.448 56.7298 144.2311 57.7796 143.7479ZM 57.7796 143.7479C 59.2523 142.0335 63.0028 136.7049 63.0028 130.0002M 30.602 79.2817L 28.9023 82.5292M 52.8939 62.7801C 50.0961 65.2189 50.1816 68.9362 47.9586 72.3562M 43.2561 67.3972C 42.3554 68.895 40.3805 72.4181 39.6865 74.5286M 96.6975 105.1865C 96.4405 104.3083 92.6493 102.2436 89.3964 100.5319"></path></g></g></g><g id="g-root-cp_2_g-2_hx5epdgf8xl3-stroke" data-item-order="-494178" transform="translate(230, 122)"><g id="cp_2_g-2_hx5epdgf8xl3-stroke" fill="none" stroke-linecap="round" stroke-linejoin="round" stroke-miterlimit="4" stroke="#2c2c2c" stroke-width="2"><g><path d="M 10 10L 178 10L 178 274L 10 274Z"></path></g></g></g><g id="g-root-cp_0_g-0_1_dhbwkxgf8ydc-stroke" data-item-order="-494164" transform="translate(280.07000732421875, 408.23583984375)"><g id="cp_0_g-0_1_dhbwkxgf8ydc-stroke" fill="none" stroke-linecap="round" stroke-linejoin="round" stroke-miterlimit="4" stroke="#2c2c2c" stroke-width="2"><g><path d="M 40.0995 60.6544C 40.2803 63.4046 40.4042 65.872 40.4861 68.1247C 40.651 72.6616 40.6454 76.3278 40.5905 79.6807C 40.5673 81.0968 40.5353 82.4571 40.5036 83.8034C 40.5437 82.5691 40.5736 81.174 40.5905 79.6807C 40.631 76.105 40.6017 71.9664 40.4861 68.1247C 40.4034 65.3781 40.2765 62.7832 40.0995 60.6544ZM 15.0709 87.6678L 14.768 88.363L 14.426 88.967L 14.2283 89.2293L 14.0305 89.4297C 14.2895 89.2073 14.534 88.8419 14.768 88.363C 15.0574 87.7705 15.3308 87.0042 15.5957 86.1206L 15.3411 86.9232L 15.0709 87.6678ZM 16.2825 83.5462L 17.0346 80.3391C 16.9706 80.6161 16.907 80.8922 16.8436 81.1668C 16.6554 81.9816 16.4694 82.782 16.2825 83.5462ZM 64.9226 137.2336C 68.3662 132.8074 79.8638 119.767 83.7854 103.3127C 86.8339 90.5215 86.0511 80.2677 88.1997 72.4411C 90.8731 62.7032 76.6539 66.7893 74.7493 80.1088C 72.8447 93.4283 68.4012 94.1162 66.2393 94.9845L 62.9556 93.7317C 61.6207 87.5251 61.1162 78.3104 59.8008 69.4808C 52.6867 36.4779 53.5006 18.524 48.8747 13.0108C 44.2488 7.4977 38.4465 10.5146 38.6391 14.4303C 39.0004 21.779 41.4985 39.5686 40.0995 60.6544C 40.2765 62.7832 40.4034 65.3781 40.4861 68.1247C 40.651 72.6616 40.6454 76.3278 40.5905 79.6807C 40.5731 81.2116 40.543 82.6393 40.5015 83.8964L 40.5036 83.8034C 40.5353 82.4571 40.5673 81.0968 40.5905 79.6807C 40.631 76.105 40.6017 71.9664 40.4861 68.1247C 40.4042 65.872 40.2803 63.4046 40.0995 60.6544C 39.8422 57.5616 39.6136 56.3563 38.8697 55.4099C 37.3837 53.5192 33.288 52.0276 29.4085 56.3424C 28.0633 57.8386 26.9117 61.1627 26.6057 65.6738L 26.4153 69.4557L 26.4128 69.522L 26.3777 70.4708C 26.3115 72.3121 26.255 74.0814 26.1524 75.5986L 26.1487 75.6689L 26.1453 75.702C 25.9915 77.9122 25.7355 79.57 25.2006 80.1053L 25.3297 79.9468L 25.4962 79.6385L 25.7081 79.0058L 25.8993 78.0582L 26.1453 75.702L 26.1524 75.5986L 26.2777 73.1777L 26.3777 70.4708C 26.389 70.1564 26.4006 69.8398 26.4128 69.522L 26.4149 69.4627L 26.4153 69.4557C 26.4638 68.1944 26.5215 66.915 26.6057 65.6738L 26.6059 65.6706C 22.7409 65.7637 22.165 67.4437 20.0488 70.8299C 19.212 72.169 18.5249 74.3313 17.9061 76.7224L 17.4879 78.4061L 17.0346 80.3391C 17.1833 79.6956 17.3339 79.0477 17.4879 78.4061C 17.6243 77.8376 17.7634 77.2739 17.9061 76.7224C 17.4465 76.6893 17.6795 77.0292 15.5609 78.7269C 13.1008 80.6983 10.7969 86.8591 10.1612 89.3619L 10 89.8699L 10.8835 99.683C 13.5672 122.3607 20.1895 132.4568 21.604 140.3763L 26.0337 164.7415L 66.0334 164.7415C 64.2017 153.8724 64.1794 138.189 64.9226 137.2336ZM 14.768 88.363L 15.0709 87.6678L 15.3411 86.9232L 15.5957 86.1206C 15.3308 87.0042 15.0574 87.7705 14.768 88.363C 14.534 88.8419 14.2895 89.2073 14.0305 89.4297L 14.2283 89.2293L 14.426 88.967L 14.768 88.363ZM 66.4327 100.8314C 64.7818 99.9154 63.7292 97.3287 62.9556 93.7317M 40.5015 83.8964C 40.5022 83.8654 40.5029 83.8344 40.5036 83.8034M 20.0488 70.8299C 18.8011 72.8264 17.8864 76.6528 17.0346 80.3391M 14.0305 89.4297C 15.1268 88.4887 15.9618 84.9851 16.8436 81.1668C 16.428 82.9664 16.0228 84.6962 15.5957 86.1206M 15.5957 86.1206L 15.8372 85.2766L 16.2825 83.5462C 16.0566 84.47 15.8294 85.3412 15.5957 86.1206ZM 26.4153 69.4557C 26.4145 69.4778 26.4136 69.4999 26.4128 69.522M 26.1524 75.5986C 26.15 75.6332 26.1477 75.6676 26.1453 75.702"></path></g></g></g><g id="g-root-cp_3_g-3_4mbdf5gf8w09-stroke" data-item-order="-494160" transform="translate(422, 188)"><g id="cp_3_g-3_4mbdf5gf8w09-stroke" fill="none" stroke-linecap="round" stroke-linejoin="round" stroke-miterlimit="4" stroke="#2c2c2c" stroke-width="2"><g><path d="M 10 10L 178 10L 178 298L 10 298Z"></path></g></g></g><g id="g-root-cp_0_g-0_2_6hvapgf8wsi-stroke" data-item-order="-494146" transform="translate(469.2269287109375, 499.864990234375)"><g id="cp_0_g-0_2_6hvapgf8wsi-stroke" fill="none" stroke-linecap="round" stroke-linejoin="round" stroke-miterlimit="4" stroke="#2c2c2c" stroke-width="2"><g><path d="M 27.241861 158.8985C 27.011061 154.1789 29.199661 142.1922 20.924361 132.9837C 12.649161 123.7752 9.881761 104.0888 10.003861 90.3689C 10.028761 87.5711 11.622561 86.2651 15.495661 83.4998C 23.763861 77.5964 29.913961 73.9947 29.913961 73.9947C 37.197261 49.1373 35.947061 41.4614 39.578461 24.2141C 41.832161 4.6901 53.321161 9.1467 53.321161 14.973C 53.321161 20.7994 52.015461 24.2949 52.015461 32.3502C 51.387261 42.3745 50.792561 56.4052 50.792361 66.8456C 55.797861 60.7075 63.549061 66.2168 63.455561 71.2353L 63.455661 71.2325C 70.640061 69.4345 73.829661 75.2025 75.066961 81.2454C 75.554961 81.294 77.801861 81.9907 79.888761 83.8087C 82.312161 85.9197 82.739561 92.2299 83.190661 94.4923L 83.316161 94.957C 83.316161 94.957 86.364661 98.0372 87.356561 103.6579C 88.348461 109.2785 68.765261 140.1801 68.774461 146.4055C 68.779561 149.9173 67.656961 152.1626 68.218261 158.8985L 27.241861 158.8985ZM 25.182061 99.6842C 25.182061 97.3382 25.222561 93.2084 25.339361 91.3224M 50.792361 66.8456L 50.792361 71.2325M 29.913961 73.9947C 27.367461 82.6859 25.680961 85.8049 25.339361 91.3224M 25.339361 91.3224C 23.869161 91.7886 20.928861 93.3406 20.928861 95.8185"></path></g></g></g><g id="g-root-cp_4_g-4_1qbyx0xgf8xe3-stroke" data-item-order="-494142" transform="translate(614, 158)"><g id="cp_4_g-4_1qbyx0xgf8xe3-stroke" fill="none" stroke-linecap="round" stroke-linejoin="round" stroke-miterlimit="4" stroke="#2c2c2c" stroke-width="2"><g><path d="M 10 10L 178 10L 178 238L 10 238Z"></path></g></g></g><g id="g-root-cp_0_g-0_3_1lw5ewhgf8y6c-stroke" data-item-order="-494128" transform="translate(645.5780029296875, 408.462890625)"><g id="cp_0_g-0_3_1lw5ewhgf8y6c-stroke" fill="none" stroke-linecap="round" stroke-linejoin="round" stroke-miterlimit="4" stroke="#2c2c2c" stroke-width="2"><g><path d="M 54.4671 145.4262C 50.6754 141.6458 33.6424 130.5195 29.1105 115.0183C 25.0477 101.1216 14.9798 89.3104 10.8357 81.6611C 6.243 73.1838 21.6512 68.0709 30.9688 85.1167C 36.3531 91.5965 42.3599 96.9406 45.6467 97.5415C 46.9371 97.7774 50.8085 95.0803 52.2883 92.5581C 54.5777 88.6561 54.294 84.2078 54.294 84.2078C 54.6532 80.0482 54.5218 78.1402 54.4671 74.5708C 54.4424 72.9581 54.4333 71.0063 54.4921 68.3545C 54.7653 65.2074 54.9837 62.2063 55.1589 59.3475C 56.7714 33.034 54.7245 18.766 58.0816 13.556C 61.8035 7.78 67.6608 9.9431 67.9471 13.6752C 68.4846 20.6795 68.2478 37.8294 72.0973 57.6352C 72.195 59.26 72.3004 60.7796 72.412 62.2099C 72.4809 63.0919 72.5521 63.94 72.6254 64.7577C 73.0123 69.0749 73.4565 72.547 73.9098 75.7165C 74.1095 77.1645 74.309 78.5133 74.4988 79.699L 74.4856 79.6113C 74.2945 78.3397 74.1013 77.0551 73.9098 75.7165C 73.4435 72.3343 72.9757 68.4106 72.6254 64.7577C 72.5521 63.94 72.4809 63.0919 72.412 62.2099C 76.6993 63.6936 81.6116 70.3248 85.2567 74.5708C 90.5056 76.5096 92.9562 81.8035 93.5254 84.2082C 96.0917 85.781 99.1212 90.615 99.1164 95.2294C 102.6336 98.023 101.7872 102.638 101.7872 102.638C 101.9598 124.4405 96.9271 131.8909 102.6378 144.4351C 108.3484 156.9792 108.3484 168.0066 108.3484 168.0066L 68.2311 168.0066C 62.2873 151.4328 55.2855 146.2422 54.4671 145.4262ZM 55.1589 59.3475C 54.9837 62.2063 54.7653 65.2074 54.4921 68.3545C 54.4333 71.0063 54.4424 72.9581 54.4671 74.5708L 50.027 73.5708C 43.4658 78.6739 38.3906 81.504 33.0445 76.958C 27.6984 72.4121 34.3531 68.3545 40.5497 64.1216C 45.5071 60.7352 52.3547 59.5279 55.1589 59.3475ZM 74.4988 79.699C 74.4944 79.6698 74.49 79.6405 74.4856 79.6113C 74.3 78.4469 74.1046 77.129 73.9098 75.7165M 50.027 73.5708C 52.457 73.5708 53.9996 74.5708 54.4671 74.5708M 52.2883 92.5581C 50.9217 96.2773 49.5982 101.3065 45.0102 102.638"></path></g></g></g><g id="g-root-tx_comeclas_1d14vqpgf8vt9-stroke" data-item-order="0" transform="translate(122, 38)"></g><g id="g-root-ic_malf_4ikiwhgfhddu-stroke" data-item-order="0" transform="translate(278, 146)"><g id="ic_malf_4ikiwhgfhddu-stroke" fill="none" stroke-linecap="round" stroke-linejoin="round" stroke-miterlimit="4" stroke="#2c2c2c" stroke-width="2"><g><path d="M 54.175003 56.949997C 56.275002 59.949997 57.474998 63.550003 57.474998 67.75L 57.474998 70.75M 42.175003 55.449997L 42.175003 70.75M 33.174938 70.75L 33.174938 46.75C 33.174938 44.949997 34.374939 43.75 36.174942 43.75M 63.175003 76.75C 63.175003 78.550003 61.975002 79.75 60.175003 79.75L 15.17494 79.75C 13.37494 79.75 12.174928 78.550003 12.174928 76.75L 12.174928 73.75C 12.174928 71.949997 13.37494 70.75 15.17494 70.75L 60.175003 70.75C 61.975002 70.75 63.175003 71.949997 63.175003 73.75L 63.175003 76.75ZM 33.174938 48.849998C 24.474939 50.949997 18.17494 58.75 18.17494 67.75L 18.17494 70.75M 61.824997 39.849937C 61.1623 39.849937 60.625 39.312698 60.625 38.649971C 60.625 37.987209 61.1623 37.44997 61.824997 37.44997M 61.824997 39.849937C 62.487698 39.849937 63.024998 39.312698 63.024998 38.649971C 63.024998 37.987209 62.487698 37.44997 61.824997 37.44997M 61.824997 29.649971L 61.824997 25.149971M 64.225006 13.75C 63.625 12.85 62.725002 12.25 61.824997 12.25C 60.625 12.25 59.725002 12.85 59.425003 13.75L 44.125 42.550003C 43.525002 43.449997 43.824997 44.349998 44.125 45.25C 44.724998 46.150002 45.625 46.449997 46.525002 46.449997L 76.824997 46.449997C 77.725006 46.449997 78.625 45.849998 79.225006 45.25C 79.824997 44.349998 79.824997 43.449997 79.225006 42.550003L 64.225006 13.75Z"></path></g></g></g><g id="g-root-ic_sign_zpodddgf8xe6-stroke" data-item-order="0" transform="translate(86, 194)"><g id="ic_sign_zpodddgf8xe6-stroke" fill="none" stroke-linecap="round" stroke-linejoin="round" stroke-miterlimit="4" stroke="#2c2c2c" stroke-width="2"><g><path d="M 60.343002 55.869999C 60.341518 54.051361 60.788731 52.260445 61.644997 50.655998L 66.033997 42.415001C 66.920868 40.968594 66.467453 39.077118 65.021202 38.189987C 63.574959 37.30286 61.683403 37.75592 60.796005 39.202L 55.222 47.98L 58.521999 29.908001C 58.831741 28.806978 58.504791 27.625019 57.673264 26.839689C 56.841732 26.054359 55.643032 25.795441 54.561493 26.167545C 53.479958 26.539654 52.694313 27.481293 52.521999 28.612L 49.071999 43.882L 49.071999 24.418001C 49.071999 22.721382 47.696621 21.346001 46.000004 21.346001C 44.303383 21.346001 42.928001 22.721382 42.928001 24.418001L 42.928001 43.900002L 39.480999 27.870998C 39.292946 26.75613 38.507698 25.834667 37.436768 25.472157C 36.365837 25.109648 35.182343 25.364691 34.355774 26.13611C 33.529205 26.90753 33.19318 28.070629 33.480999 29.164001L 36.796001 52.081001L 30.676001 46.737999C 29.419754 45.621445 27.499765 45.720383 26.364946 46.960159C 25.230127 48.199932 25.300964 50.121162 26.524 51.274002L 37.300003 65.616997C 39.041702 67.438324 41.451931 68.468948 43.972 68.470001L 51.141998 68.470001C 58.410995 68.467003 60.343002 62.781998 60.343002 55.869999ZM 34.732002 80.5C 32.83437 80.401375 31.02656 79.660904 29.605 78.399994L 13.627 62.470001C 12.357205 61.062267 11.606722 59.262798 11.5 57.369999L 11.5 34.995998C 11.60037 33.096077 12.340483 31.285973 13.599999 29.860001L 29.622999 13.636C 31.030252 12.358544 32.83427 11.60431 34.731998 11.5L 57.099998 11.5C 58.998325 11.603518 60.804203 12.352967 62.218002 13.624001L 78.388 29.866001C 79.653885 31.286697 80.398705 33.09584 80.499992 34.995998L 80.5 57.355C 80.395836 59.250092 79.641449 61.051308 78.363998 62.455002L 62.23 78.399994C 60.804024 79.659515 58.993927 80.399628 57.094002 80.5Z"></path></g></g></g><g id="g-root-ic_airb_1qd7v75gfiscr-stroke" data-item-order="0" transform="translate(662, 182)"><g id="ic_airb_1qd7v75gfiscr-stroke" fill="none" stroke-linecap="round" stroke-linejoin="round" stroke-miterlimit="4" stroke="#2c2c2c" stroke-width="2"><g><path d="M 32.349937 73.149994C 32.349937 76.75 29.349998 79.75 25.75 79.75C 22.150002 79.75 19.149969 76.75 19.149969 73.149994L 19.149969 63.550003C 19.149969 59.949997 22.150002 56.949997 25.75 56.949997C 29.349998 56.949997 32.349937 59.949997 32.349937 63.550003L 32.349937 73.149994ZM 45.849998 73.149994C 45.849998 76.75 42.849998 79.75 39.25 79.75C 35.650002 79.75 32.649971 76.75 32.649971 73.149994L 32.649971 63.550003C 32.649971 59.949997 35.650002 56.949997 39.25 56.949997C 42.849998 56.949997 45.849998 59.949997 45.849998 63.550003L 45.849998 73.149994ZM 18.850031 63.550003L 18.850031 45.550003C 18.850031 38.049942 24.850029 32.049938 32.350029 32.049938C 39.850029 32.049938 45.849998 38.049942 45.849998 45.550003L 45.849998 63.550003M 18.849939 63.25L 12.25 63.25M 45.849998 63.25L 72.25 63.25M 22.449881 57.25L 42.849998 36.850029M 32.349937 31.749939C 37.651871 31.749939 41.949997 27.45187 41.949997 22.14994C 41.949997 16.84798 37.651871 12.549928 32.349937 12.549928C 27.04801 12.549928 22.75 16.84798 22.75 22.14994C 22.75 27.45187 27.04801 31.749939 32.349937 31.749939ZM 66.25 45.25C 72.877304 45.25 78.25 37.862709 78.25 28.75C 78.25 19.637291 72.877304 12.25 66.25 12.25C 59.622696 12.25 54.25 19.637291 54.25 28.75C 54.25 37.862709 59.622696 45.25 66.25 45.25ZM 10 10M 52.75 15.25L 79.75 42.25M 10 10M 79.75 15.25L 52.75 42.25"></path></g></g></g><g id="g-root-ic_eye_1q6z4c1gfiqrq-stroke" data-item-order="0" transform="translate(470, 212)"><g id="ic_eye_1q6z4c1gfiqrq-stroke" fill="none" stroke-linecap="round" stroke-linejoin="round" stroke-miterlimit="4" stroke="#2c2c2c" stroke-width="2"><g><path d="M 62.5 13L 59.818001 24.681999M 29.5 13L 32.181999 24.681999M 62.413002 79L 59.826996 67.365997M 29.587 79L 32.173 67.365997M 46 16L 46 19M 46 25L 46 28M 46 34L 46 37M 45.25 46C 45.25 46.414215 45.585785 46.75 46 46.75C 46.414215 46.75 46.75 46.414215 46.75 46C 46.75 45.585785 46.414215 45.25 46 45.25C 45.585785 45.25 45.25 45.585785 45.25 46ZM 37 23.107C 25.819916 26.261465 16.594351 34.175835 11.776 44.745998C 11.405603 45.542023 11.405603 46.460976 11.776 47.257C 14.068 52.192001 23.866001 70 46 70C 68.134003 70 77.931999 52.188999 80.223999 47.254002C 80.594398 46.457977 80.594398 45.539021 80.223999 44.742996C 75.405952 34.173225 66.180084 26.259693 55 23.107M 34 32.611C 28.437344 37.586391 26.521904 45.478394 29.184898 52.450203C 31.847895 59.42202 38.536911 64.027405 46 64.027405C 53.463089 64.027405 60.152107 59.42202 62.815102 52.450203C 65.478096 45.478394 63.56266 37.586391 58 32.611M 39.133003 43C 37.7523 46.143997 38.683098 49.824093 41.392555 51.933571C 44.102009 54.043049 47.897995 54.043049 50.607445 51.933571C 53.316902 49.824093 54.247704 46.143997 52.867001 43"></path></g></g></g><g id="g-root-tx_sistemia_1cu9nshgfiq6i-stroke" data-item-order="0" transform="translate(242, 242)"></g><g id="g-root-tx_pratiche_1umsmghgfhbtb-stroke" data-item-order="0" transform="translate(80, 290)"></g><g id="g-root-tx_rischiom_1ly0u5tgfmxa9-stroke" data-item-order="0" transform="translate(620, 278)"></g><g id="g-root-tx_incidono_v3m4dtgfipdv-stroke" data-item-order="0" transform="translate(242, 302)"></g><g id="g-root-tx_rischiol_v9uv8xgfiqyu-stroke" data-item-order="0" transform="translate(464, 308)"></g><g id="g-root-tx_comporta_zkokohgfhclk-stroke" data-item-order="0" transform="translate(56, 350)"></g><g id="g-root-tx_utilizzo_1lr5m7lgfoc97-stroke" data-item-order="0" transform="translate(626, 338)"></g><g id="g-root-tx_mancanza_hz0typgfipe0-stroke" data-item-order="0" transform="translate(446, 368)"></g></g></g><path id="w5ve81f19iiy" d="M65.283 12.757a.35.35 0 0 0 .584.157l5.203-5.141-6.183 3.523.396 1.461zm-2.216-11.7a.35.35 0 0 0-.522.305v3.111l3.276-1.868-2.754-1.548zm3.728 2.105l-4.25 2.421v2.445l6.391-3.644-2.141-1.222zm4.708 3.303a.35.35 0 0 0 0-.609l-1.592-.9-7.365 4.199v1.782a.35.35 0 0 0 .523.305l8.435-4.777z M44.542 2.513c0-.433.355-.783.792-.783s.792.35.792.783-.355.783-.792.783-.792-.35-.792-.783zm59.171 0c0-.433.355-.783.792-.783s.792.35.792.783-.355.783-.792.783-.792-.35-.792-.783zm-85.951 7.636h-1.27v-.487c-.276.201-.864.609-1.881.609-1.202 0-2.274-.794-2.137-2.078.118-1.106 1.153-1.584 1.848-1.727l2.17-.345c0-.539-.29-.956-1.064-1.006s-1.21.305-1.571 1.017l-1.124-.605c1.218-2.631 5.029-1.764 5.029.414v4.207zm-1.27-2.86c.006.396-.062 1.112-.819 1.59-.587.37-1.841.299-1.903-.395-.049-.555.461-.791.906-.898l1.816-.297zm72.662 2.86h-1.27v-.487c-.276.201-.864.609-1.881.609-1.202 0-2.274-.794-2.137-2.078.118-1.106 1.153-1.584 1.848-1.727l2.17-.345c0-.539-.29-.956-1.064-1.006s-1.21.305-1.571 1.017l-1.124-.605c1.218-2.631 5.029-1.764 5.029.414v4.207zm-1.27-2.86c.006.396-.062 1.112-.82 1.59-.587.37-1.841.299-1.903-.395-.049-.555.461-.791.906-.898l1.816-.297zM99.096 10.149H97.85v-8.45h1.246v4.895l2.68-2.559h1.738l-2.633 2.535 2.715 3.578h-1.556l-2.077-2.707-.867.844v1.863zm6.053-6.114h-1.255v6.113h1.255V4.035zm-59.2 0h-1.255v6.113h1.255V4.035zm5.584 6.113V1.697h1.255v2.695c.361-.346 1-.485 1.47-.485 1.452 0 2.477 1.082 2.457 2.448v3.792h-1.27v-3.68c0-.408-.214-1.339-1.315-1.339-.968 0-1.342.756-1.342 1.339v3.681h-1.255zm-4.76-4.894V4.039h.621a.45.45 0 0 0 .45-.45v-.855h1.251v1.305h1.309v1.215h-1.309v3.109c0 .293.105.664.648.664.365 0 .531-.035.736-.07v1.137s-.361.113-.857.113c-1.398 0-1.777-1.051-1.777-1.788V5.254h-1.071zM36.528 4.039h-1.394l2.191 6.106h1.125l1.234-3.918 1.238 3.918h1.129l2.188-6.106h-1.383l-1.359 3.93-1.256-3.93h-1.124l-1.242 3.957-1.348-3.957zM26.212 7.141c-.02 1.566 1.187 3.129 3.223 3.129 1.566 0 2.383-.918 2.734-1.719L31.172 8c-.315.399-.801 1.094-1.738 1.094-1.145 0-1.825-.781-1.891-1.52h4.625c.074-.284.148-.995-.03-1.559-.336-1.064-1.221-2.102-2.839-2.102s-3.088 1.152-3.088 3.227zm1.363-.75h3.348c-.055-.43-.566-1.301-1.623-1.301a1.79 1.79 0 0 0-1.725 1.301zm-8.758.75c.038 1.758 1.277 3.133 3.145 3.133 1.074 0 1.723-.477 1.961-.672v.547h1.242V1.703h-1.258v2.888c-.414-.36-1.062-.68-1.93-.68-1.91 0-3.198 1.473-3.16 3.23zm1.309-.08c0 1.119.723 1.978 1.836 1.978a1.88 1.88 0 0 0 1.94-1.904c0-1.371-1.011-1.99-1.972-1.99s-1.805.798-1.805 1.916zm76.683-.028C96.771 5.275 95.532 3.9 93.664 3.9c-1.074 0-1.723.477-1.961.672v-.547h-1.242v8.22h1.258V9.583c.414.36 1.063.68 1.93.68 1.91 0 3.198-1.473 3.16-3.23zm-1.309.08c0-1.119-.723-1.978-1.836-1.978a1.88 1.88 0 0 0-1.94 1.904c0 1.371 1.011 1.99 1.972 1.99S95.5 8.231 95.5 7.113zM106.441 10.173V4.036h1.254v.382c.361-.346 1-.485 1.47-.485 1.452 0 2.477 1.082 2.457 2.448v3.792h-1.27V6.492c0-.408-.214-1.339-1.315-1.339-.969 0-1.342.756-1.342 1.339v3.681h-1.254zm-30.383-.021V1.824h1.084l4.215 5.777V1.824h1.32v8.328h-1.094l-4.207-5.796v5.796h-1.319zM5.24 10.149H4V2.377h1.014l2.664 3.597 2.654-3.592h1.03v7.766h-1.256V4.762L7.678 8.068 5.24 4.742v5.407z" transform="translate(704, 686)" fill="#acacac88" stroke="none"></path></svg>