<?xml version="1.0" encoding="utf-8" standalone="yes"?>
<!DOCTYPE svg PUBLIC "-//W3C//DTD SVG 1.1//EN" "http://www.w3.org/Graphics/SVG/1.1/DTD/svg11.dtd">
<svg style="fill:none;stroke:none;fill-rule:evenodd;clip-rule:evenodd;stroke-linecap:round;stroke-linejoin:round;stroke-miterlimit:1.5;" version="1.1" xmlns="http://www.w3.org/2000/svg" xmlns:xlink="http://www.w3.org/1999/xlink" width="840" height="663" viewBox="0 0 840 663"><style class="text-font-style fontImports" data-font-family="Roboto">@import url(https://fonts.googleapis.com/css2?family=Roboto:wght@400;700&amp;amp;display=block);</style><rect id="" x="0" y="0" width="840" height="663" style="fill: #2c2c2c;"></rect><g id="items" style="isolation: isolate"><g id="blend" style="mix-blend-mode: normal"><g id="g-root-tf_142e41x1kdnu2v-fill" data-item-order="-835380"><g id="tf_142e41x1kdnu2v-fill-merged" stroke="none" fill="#2c2c2c" fill-opacity="1"><g><path d="M0 0 H840 V663 H0 V0"></path></g></g></g><g id="g-root-cp_4_g-4_hyeyv91kdqoej-fill" data-item-order="-449054" transform="translate(212.52700805664062, 134)"><g id="cp_4_g-4_hyeyv91kdqoej-fill-merged" stroke="none" fill="#f79438" fill-opacity="1"><g><path d="M15.471 98C15.471 134.451 45.02 164 81.471 164C117.922 164 147.471 134.451 147.471 98C147.471 61.549 117.922 32 81.471 32C45.02 32 15.471 61.549 15.471 98"></path></g></g><g id="cp_4_g-4_hyeyv91kdqoej-fill-merged" stroke="none" fill="#f79438" fill-opacity="1"><g><path d="M233.472 51L189.472 10 V35.905C168.403 37.273 147.672 42.09 128.114 50.191C127.848 50.301 127.583 50.412 127.318 50.523C136.769 59.65 143.501 71.574 146.184 84.96C160.071 79.563 174.653 76.215 189.472 75.008 V92L233.472 51 M63.323 161.473C50.282 157.752 38.89 150.12 30.497 139.926C28.018 144.726 25.737 149.635 23.663 154.642C16.512 171.907 11.919 195.086 10 213.604L25.472 197L48.429 221.637C49.678 205.476 53.472 184.588 59.694 169.567C60.827 166.831 62.038 164.133 63.323 161.473"></path></g></g></g><g id="g-root-cp_3_g-3_dilgqt1kdqp6s-fill" data-item-order="-449048" transform="translate(187, 321)"><g id="cp_3_g-3_dilgqt1kdqp6s-fill-merged" stroke="none" fill="#ffe711" fill-opacity="1"><g><path d="M41 163C41 199.451 70.549 229 107 229C143.451 229 173 199.451 173 163C173 126.549 143.451 97 107 97C70.549 97 41 126.549 41 163"></path></g></g><g id="cp_3_g-3_dilgqt1kdqp6s-fill-merged" stroke="none" fill="#ffe711" fill-opacity="1"><g><path d="M51 10L92 54 H74.008C75.306 69.941 79.082 85.609 85.223 100.433C85.252 100.504 85.282 100.575 85.311 100.646C72.318 105.165 61.173 113.631 53.31 124.607C51.858 121.564 50.484 118.48 49.191 115.358C41.09 95.8 36.273 75.069 34.905 54 H10L51 10 M145.835 216.371C148.409 217.573 151.012 218.719 153.642 219.809C171.626 227.258 195.601 231.931 214.919 233.698L197 217L220.57 195.037C204.775 193.81 184.452 190.151 169.531 184.171C165.118 197.21 156.742 208.421 145.835 216.371"></path></g></g></g><g id="g-root-cp_2_g-2_4nkxl11kdqmtp-fill" data-item-order="-449042" transform="translate(374, 358.435546875)"><g id="cp_2_g-2_4nkxl11kdqmtp-fill-merged" stroke="none" fill="#a6da37" fill-opacity="1"><g><path d="M106 125.564C106 162.014 135.549 191.564 172 191.564C208.451 191.564 238 162.014 238 125.564C238 89.113 208.451 59.564 172 59.564C135.549 59.564 106 89.113 106 125.564"></path></g></g><g id="cp_2_g-2_4nkxl11kdqmtp-fill-merged" stroke="none" fill="#a6da37" fill-opacity="1"><g><path d="M217 34.564L232.585 17.839C230.737 36.744 226.104 60.308 218.809 77.921C218.7 78.184 218.591 78.446 218.481 78.707C209.187 69.487 197.164 63.013 183.731 60.603C189.502 45.532 192.998 25.637 194.111 10L217 34.564 M108.167 142.401C105.301 143.803 102.388 145.117 99.433 146.341C84.92 152.353 69.596 156.098 54 157.471 V138.564L10 179.564L54 220.564 V196.591C74.725 195.138 95.109 190.345 114.358 182.372C119.325 180.315 124.195 178.055 128.958 175.599C118.989 167.016 111.614 155.505 108.167 142.401"></path></g></g></g><g id="g-root-cp_1_g-1_7rfgl1kdqnly-fill" data-item-order="-449036" transform="translate(410.3690185546875, 156)"><g id="cp_1_g-1_7rfgl1kdqnly-fill-merged" stroke="none" fill="#43dd93" fill-opacity="1"><g><path d="M69.631 76C69.631 112.451 99.18 142 135.631 142C172.082 142 201.631 112.451 201.631 76C201.631 39.549 172.082 10 135.631 10C99.18 10 69.631 39.549 69.631 76"></path></g></g><g id="cp_1_g-1_7rfgl1kdqnly-fill-merged" stroke="none" fill="#43dd93" fill-opacity="1"><g><path d="M179.305 125.485C169.577 134.077 157.295 139.846 143.745 141.507C144.675 143.505 145.564 145.526 146.409 147.567C152.421 162.081 156.166 177.404 157.539 193 H139.632L180.632 237L221.632 193 H196.659C195.206 172.276 190.413 151.891 182.44 132.642C181.443 130.234 180.397 127.847 179.305 125.485 M86.481 31.951C83.684 30.631 80.853 29.377 77.99 28.191C61.102 21.196 38.339 16.649 20.24 14.658L35.632 29L10 52.884C26.504 54.052 47.736 57.873 63.065 64.223C65.468 65.218 67.844 66.273 70.188 67.387C71.952 53.859 77.811 41.618 86.481 31.951"></path></g></g></g><g id="g-root-tx_ciclodia_1lxez2d1kdqozr-fill" data-item-order="0" transform="translate(188, 38)"><g id="tx_ciclodia_1lxez2d1kdqozr-fill-merged" stroke="none" fill="#f4f4f4" fill-opacity="1"><g><text style="font: bold 25px Roboto, sans-serif; white-space: pre;" font-weight="bold" font-size="25px" font-family="Roboto, sans-serif"><tspan x="13.03" y="43" dominant-baseline="ideographic">Ciclo di Apprendimento Supervisionato</tspan></text></g></g></g><g id="g-root-tx_iteraree_1q7m7et1kduww2-fill" data-item-order="0" transform="translate(26, 156)"><g id="tx_iteraree_1q7m7et1kduww2-fill-merged" stroke="none" fill="#f79438" fill-opacity="1"><g><text style="font: bold 20px Roboto, sans-serif; white-space: pre;" font-weight="bold" font-size="20px" font-family="Roboto, sans-serif"><tspan x="14.23" y="33.85" dominant-baseline="ideographic">Iterare e Raffinare</tspan></text></g></g></g><g id="g-root-tx_raccogli_1hhlgxx1kdtgjq-fill" data-item-order="0" transform="translate(626, 156)"><g id="tx_raccogli_1hhlgxx1kdtgjq-fill-merged" stroke="none" fill="#43dd93" fill-opacity="1"><g><text style="font: bold 20px Roboto, sans-serif; white-space: pre;" font-weight="bold" font-size="20px" font-family="Roboto, sans-serif"><tspan x="12" y="33.84" dominant-baseline="ideographic">Raccogliere Dati </tspan><tspan x="12" y="57.85" dominant-baseline="ideographic">Etichettati</tspan></text></g></g></g><g id="g-root-tx_migliora_qqb4lh1kduuiz-fill" data-item-order="0" transform="translate(26, 192)"><g id="tx_migliora_qqb4lh1kduuiz-fill-merged" stroke="none" fill="#f4f4f4" fill-opacity="1"><g><text style="font: 15px Roboto, sans-serif; white-space: pre;" font-size="15px" font-family="Roboto, sans-serif"><tspan x="40.42" y="30.69" dominant-baseline="ideographic">Migliorare il modello </tspan><tspan x="17.5" y="48.69" dominant-baseline="ideographic">basato sui risultati della </tspan><tspan x="95.86" y="66.7" dominant-baseline="ideographic">valutazione.</tspan></text></g></g></g><g id="g-root-ic_2_m98oat1kdtfr7-fill" data-item-order="0" transform="translate(254, 192)"></g><g id="g-root-ic_redi_dkgw051kdqo74-fill" data-item-order="0" transform="translate(506, 192)"></g><g id="g-root-tx_raccogli_4otvr91kdtfrj-fill" data-item-order="0" transform="translate(626, 216)"><g id="tx_raccogli_4otvr91kdtfrj-fill-merged" stroke="none" fill="#f4f4f4" fill-opacity="1"><g><text style="font: 15px Roboto, sans-serif; white-space: pre;" font-size="15px" font-family="Roboto, sans-serif"><tspan x="12" y="27.69" dominant-baseline="ideographic">Raccogliere dati con </tspan><tspan x="12" y="45.69" dominant-baseline="ideographic">etichette predefinite.</tspan></text></g></g></g><g id="g-root-tx_valutare_vcddl11kdthxk-fill" data-item-order="0" transform="translate(86, 446)"><g id="tx_valutare_vcddl11kdthxk-fill-merged" stroke="none" fill="#ffe711" fill-opacity="1"><g><text style="font: bold 20px Roboto, sans-serif; white-space: pre;" font-weight="bold" font-size="20px" font-family="Roboto, sans-serif"><tspan x="19.7" y="33.84" dominant-baseline="ideographic">Valutare le </tspan><tspan x="14.16" y="57.85" dominant-baseline="ideographic">Prestazioni</tspan></text></g></g></g><g id="g-root-ic_cont_1ut1zb91kds1ky-fill" data-item-order="0" transform="translate(254, 444)"></g><g id="g-root-ic_shar_40kxx1kds3r5-fill" data-item-order="0" transform="translate(506, 444)"></g><g id="g-root-tx_addestra_1qbd1xh1kdtgqs-fill" data-item-order="0" transform="translate(626, 446)"><g id="tx_addestra_1qbd1xh1kdtgqs-fill-merged" stroke="none" fill="#a6da37" fill-opacity="1"><g><text style="font: bold 20px Roboto, sans-serif; white-space: pre;" font-weight="bold" font-size="20px" font-family="Roboto, sans-serif"><tspan x="12" y="33.84" dominant-baseline="ideographic">Addestrare il </tspan><tspan x="12" y="57.85" dominant-baseline="ideographic">Modello</tspan></text></g></g></g><g id="g-root-tx_valutare_18fpptx1kdutxd-fill" data-item-order="0" transform="translate(26, 506)"><g id="tx_valutare_18fpptx1kdutxd-fill-merged" stroke="none" fill="#f4f4f4" fill-opacity="1"><g><text style="font: 15px Roboto, sans-serif; white-space: pre;" font-size="15px" font-family="Roboto, sans-serif"><tspan x="18.45" y="27.69" dominant-baseline="ideographic">Valutare l'accuratezza e </tspan><tspan x="20.63" y="45.69" dominant-baseline="ideographic">l'efficienza del modello.</tspan></text></g></g></g><g id="g-root-tx_utilizza_mdlzwl1kdtibp-fill" data-item-order="0" transform="translate(626, 506)"><g id="tx_utilizza_mdlzwl1kdtibp-fill-merged" stroke="none" fill="#f4f4f4" fill-opacity="1"><g><text style="font: 15px Roboto, sans-serif; white-space: pre;" font-size="15px" font-family="Roboto, sans-serif"><tspan x="12" y="27.69" dominant-baseline="ideographic">Utilizzare i dati etichettati </tspan><tspan x="12" y="45.69" dominant-baseline="ideographic">per addestrare il modello.</tspan></text></g></g></g><g id="g-root-tf_142e41x1kdnu2v-stroke" data-item-order="-835380"></g><g id="g-root-cp_4_g-4_hyeyv91kdqoej-stroke" data-item-order="-449054" transform="translate(212.52700805664062, 134)"><g id="cp_4_g-4_hyeyv91kdqoej-stroke" fill="none" stroke-linecap="round" stroke-linejoin="round" stroke-miterlimit="4" stroke="#2c2c2c" stroke-width="2" stroke-opacity="1"><g><path d="M 15.470703 98C 15.470705 134.450795 45.019912 164.000002 81.470705 164.000002C 117.921499 164.000002 147.470705 134.450795 147.470705 98.000002C 147.470705 61.549208 117.921499 32.000002 81.470705 32.000002C 45.019912 32.000002 15.470705 61.549208 15.470705 98.000002"></path></g></g><g id="cp_4_g-4_hyeyv91kdqoej-stroke" fill="none" stroke-linecap="round" stroke-linejoin="round" stroke-miterlimit="4" stroke="#2c2c2c" stroke-width="2" stroke-opacity="1"><g><path d="M 233.4716 51L 189.4716 10L 189.4716 35.9052C 168.4028 37.2726 147.672 42.09 128.1139 50.1913C 127.8484 50.3012 127.5833 50.4117 127.3185 50.5228C 136.7686 59.6504 143.5011 71.5735 146.1838 84.9601C 160.0711 79.5626 174.6533 76.2149 189.4716 75.0081L 189.4716 92L 233.4716 51ZM 63.3232 161.4734C 50.2822 157.7517 38.8904 150.1196 30.4968 139.9261C 28.0176 144.7257 25.737 149.635 23.663 154.6421C 16.5117 171.9069 11.9193 195.0856 10 213.6038L 25.4717 197L 48.4293 221.6374C 49.6779 205.4763 53.4723 184.588 59.6943 169.5668C 60.8274 166.8314 62.0376 164.1326 63.3232 161.4734Z"></path></g></g></g><g id="g-root-cp_3_g-3_dilgqt1kdqp6s-stroke" data-item-order="-449048" transform="translate(187, 321)"><g id="cp_3_g-3_dilgqt1kdqp6s-stroke" fill="none" stroke-linecap="round" stroke-linejoin="round" stroke-miterlimit="4" stroke="#2c2c2c" stroke-width="2" stroke-opacity="1"><g><path d="M 41 163C 41.000002 199.450795 70.549208 229.000002 107.000002 229.000002C 143.450795 229.000002 173.000002 199.450795 173.000002 163.000002C 173.000002 126.549208 143.450795 97.000002 107.000002 97.000002C 70.549208 97.000002 41.000002 126.549208 41.000002 163.000002"></path></g></g><g id="cp_3_g-3_dilgqt1kdqp6s-stroke" fill="none" stroke-linecap="round" stroke-linejoin="round" stroke-miterlimit="4" stroke="#2c2c2c" stroke-width="2" stroke-opacity="1"><g><path d="M 51 10L 92 54L 74.0081 54C 75.3064 69.9414 79.0824 85.6095 85.2225 100.4333C 85.252 100.5043 85.2815 100.5754 85.3111 100.6465C 72.3183 105.1653 61.1728 113.6305 53.3098 124.6069C 51.8579 121.5639 50.4844 118.4799 49.1912 115.3579C 41.09 95.7998 36.2726 75.0688 34.9052 54L 10 54L 51 10ZM 145.835 216.3709C 148.4092 217.5731 151.0122 218.7194 153.6421 219.8088C 171.626 227.2579 195.6015 231.9306 214.9194 233.6976L 197 217L 220.5698 195.0372C 204.7751 193.8099 184.4522 190.1509 169.5314 184.1705C 165.1184 197.2096 156.7415 208.4212 145.835 216.3709Z"></path></g></g></g><g id="g-root-cp_2_g-2_4nkxl11kdqmtp-stroke" data-item-order="-449042" transform="translate(374, 358.435546875)"><g id="cp_2_g-2_4nkxl11kdqmtp-stroke" fill="none" stroke-linecap="round" stroke-linejoin="round" stroke-miterlimit="4" stroke="#2c2c2c" stroke-width="2" stroke-opacity="1"><g><path d="M 106 125.563629C 106.000002 162.014425 135.549208 191.563631 172.000002 191.563631C 208.450795 191.563631 238.000002 162.014425 238.000002 125.563631C 238.000002 89.112838 208.450795 59.563631 172.000002 59.563631C 135.549208 59.563631 106.000002 89.112838 106.000002 125.563631"></path></g></g><g id="cp_2_g-2_4nkxl11kdqmtp-stroke" fill="none" stroke-linecap="round" stroke-linejoin="round" stroke-miterlimit="4" stroke="#2c2c2c" stroke-width="2" stroke-opacity="1"><g><path d="M 217 34.5636L 232.5846 17.8386C 230.7367 36.7442 226.1043 60.3084 218.8088 77.9214C 218.7001 78.1837 218.5909 78.4457 218.4812 78.7074C 209.1867 69.4869 197.1638 63.0126 183.7306 60.6029C 189.5021 45.5315 192.9979 25.6372 194.1112 10L 217 34.5636ZM 108.167 142.4008C 105.301 143.8027 102.3885 145.117 99.4333 146.3411C 84.9196 152.3528 69.5965 156.0983 54 157.4708L 54 138.5636L 10 179.5636L 54 220.5636L 54 196.5909C 74.7246 195.1377 95.1093 190.3454 114.3579 182.3724C 119.3246 180.3151 124.1951 178.0546 128.9576 175.5986C 118.9894 167.0157 111.6142 155.5047 108.167 142.4008Z"></path></g></g></g><g id="g-root-cp_1_g-1_7rfgl1kdqnly-stroke" data-item-order="-449036" transform="translate(410.3690185546875, 156)"><g id="cp_1_g-1_7rfgl1kdqnly-stroke" fill="none" stroke-linecap="round" stroke-linejoin="round" stroke-miterlimit="4" stroke="#2c2c2c" stroke-width="2" stroke-opacity="1"><g><path d="M 69.630859 76C 69.630861 112.450795 99.180068 142.000002 135.630861 142.000002C 172.081655 142.000002 201.630861 112.450795 201.630861 76.000002C 201.630861 39.549208 172.081655 10.000002 135.630861 10.000002C 99.180068 10.000002 69.630861 39.549208 69.630861 76.000002"></path></g></g><g id="cp_1_g-1_7rfgl1kdqnly-stroke" fill="none" stroke-linecap="round" stroke-linejoin="round" stroke-miterlimit="4" stroke="#2c2c2c" stroke-width="2" stroke-opacity="1"><g><path d="M 179.3046 125.485066C 169.5765 134.077166 157.2955 139.845266 143.7447 141.506266C 144.6752 143.505266 145.5636 145.525866 146.409 147.566866C 152.4208 162.080466 156.1662 177.403566 157.5387 193.000066L 139.6316 193.000066L 180.6316 237.000066L 221.6316 193.000066L 196.6589 193.000066C 195.2057 172.275366 190.4134 151.890766 182.4404 132.642066C 181.4426 130.233366 180.3971 127.847166 179.3046 125.485066ZM 86.4815 31.950566C 83.6843 30.630966 80.8529 29.377366 77.9895 28.191266C 61.1015 21.196066 38.3392 16.649266 20.2399 14.657766L 35.6316 28.999966L 10 52.883966C 26.5036 54.051566 47.7357 57.872966 63.0648 64.222566C 65.4683 65.218066 67.8436 66.273266 70.1885 67.386766C 71.9516 53.858966 77.8111 41.618466 86.4815 31.950566Z"></path></g></g></g><g id="g-root-tx_ciclodia_1lxez2d1kdqozr-stroke" data-item-order="0" transform="translate(188, 38)"></g><g id="g-root-tx_iteraree_1q7m7et1kduww2-stroke" data-item-order="0" transform="translate(26, 156)"></g><g id="g-root-tx_raccogli_1hhlgxx1kdtgjq-stroke" data-item-order="0" transform="translate(626, 156)"></g><g id="g-root-tx_migliora_qqb4lh1kduuiz-stroke" data-item-order="0" transform="translate(26, 192)"></g><g id="g-root-ic_2_m98oat1kdtfr7-stroke" data-item-order="0" transform="translate(254, 192)"><g id="ic_2_m98oat1kdtfr7-stroke" fill="none" stroke-linecap="round" stroke-linejoin="round" stroke-miterlimit="4" stroke="#2c2c2c" stroke-width="2" stroke-opacity="1"><g><path d="M 21.875 36.250252C 27.39785 36.250252 31.875 34.45945 31.875 32.250298C 31.875 30.041176 27.39785 28.250299 21.875 28.250299C 16.35215 28.250299 11.875 30.041176 11.875 32.250298C 11.875 34.45945 16.35215 36.250252 21.875 36.250252ZM 11.875 32.249924L 11.875 48.25C 11.875 50.5 16.375 52.25 21.875 52.25C 27.375 52.25 31.875 50.5 31.875 48.25L 31.875 32.249924M 61.503502 18.43325C 65.038254 18.43325 67.903503 16.881176 67.903503 14.9666C 67.903503 13.052 65.038254 11.49992 61.503502 11.49992C 57.968998 11.49992 55.1035 13.052 55.1035 14.9666C 55.1035 16.881176 57.968998 18.43325 61.503502 18.43325ZM 55.1035 14.966725L 55.1035 24.033375C 55.1035 25.900051 58.036999 27.50005 61.503502 27.50005C 64.970253 27.50005 67.903503 25.900051 67.903503 24.033375L 67.903503 14.966725M 61.503502 39.200253C 65.038254 39.200253 67.903503 37.648003 67.903503 35.733498C 67.903503 33.818924 65.038254 32.26685 61.503502 32.26685C 57.968998 32.26685 55.1035 33.818924 55.1035 35.733498C 55.1035 37.648003 57.968998 39.200253 61.503502 39.200253ZM 55.1035 35.733749L 55.1035 44.800251C 55.1035 46.667 58.036999 48.266998 61.503502 48.266998C 64.970253 48.266998 67.903503 46.667 67.903503 44.800251L 67.903503 35.733749M 61.503502 59.43325C 65.038254 59.43325 67.903503 57.881248 67.903503 55.966499C 67.903503 54.052002 65.038254 52.5 61.503502 52.5C 57.968998 52.5 55.1035 54.052002 55.1035 55.966499C 55.1035 57.881248 57.968998 59.43325 61.503502 59.43325ZM 55.1035 55.966751L 55.1035 65.033501C 55.1035 66.900002 58.036999 68.5 61.503502 68.5C 64.970253 68.5 67.903503 66.900002 67.903503 65.033501L 67.903503 55.966751M 49.114498 19.25L 44.114498 19.25L 44.114498 60.75L 49.114498 60.75M 49.114498 40L 37.864498 40M 11.875 40.327751C 11.875 42.442249 16.199326 44.172001 21.87505 44.172001C 27.550751 44.172001 31.875074 42.442249 31.875074 40.327751"></path></g></g></g><g id="g-root-ic_redi_dkgw051kdqo74-stroke" data-item-order="0" transform="translate(506, 192)"><g id="ic_redi_dkgw051kdqo74-stroke" fill="none" stroke-linecap="round" stroke-linejoin="round" stroke-miterlimit="4" stroke="#2c2c2c" stroke-width="2" stroke-opacity="1"><g><path d="M 31.374973 41.875C 42.144501 41.875 50.875 38.069252 50.875 33.374874C 50.875 28.68045 42.144501 24.874876 31.374973 24.874876C 20.605425 24.874876 11.875 28.68045 11.875 33.374874C 11.875 38.069252 20.605425 41.875 31.374973 41.875ZM 11.875 34.124752L 11.875 59.624748C 11.875 64.374756 20.624975 68.124756 31.374973 68.124756C 42.125 68.124756 50.875 64.374756 50.875 59.624748L 50.875 34.124752M 58.125 34.375L 68.125 34.375L 68.125 24.375C 66.125 24.375 64.375 22.625 64.375 20.625C 64.375 18.625 66.125 16.875 68.125 16.875L 68.125 11.875L 30.625 11.875L 30.625 16.875C 31.875 16.875 32.875027 17.375 33.375023 18.125M 41.875 18.125L 41.875 19.375M 49.375 18.125L 49.375 21.875M 56.875 18.125L 56.875 24.375M 10 10M 26.8834 61.10725L 26.8834 55.82325M 26.8834 55.82325L 26.8834 48.425251L 31.639149 48.425251C 33.682026 48.425251 35.337997 50.081249 35.337997 52.124252L 35.337997 52.124252C 35.337997 54.167 33.682026 55.82325 31.639149 55.82325L 26.8834 55.82325ZM 10 10M 32.167675 55.823002L 35.866501 61.10725"></path></g></g></g><g id="g-root-tx_raccogli_4otvr91kdtfrj-stroke" data-item-order="0" transform="translate(626, 216)"></g><g id="g-root-tx_valutare_vcddl11kdthxk-stroke" data-item-order="0" transform="translate(86, 446)"></g><g id="g-root-ic_cont_1ut1zb91kds1ky-stroke" data-item-order="0" transform="translate(254, 444)"><g id="ic_cont_1ut1zb91kds1ky-stroke" fill="none" stroke-linecap="round" stroke-linejoin="round" stroke-miterlimit="4" stroke="#2c2c2c" stroke-width="2" stroke-opacity="1"><g><path d="M 11.875 62.625C 11.875 47.125 24.43075 34.62495 40 34.62495C 55.569248 34.62495 68.125 47.125 68.125 62.625M 40 67.125C 42.070999 67.125 43.75 65.445999 43.75 63.375C 43.75 61.303749 42.070999 59.625 40 59.625C 37.929001 59.625 36.25 61.303749 36.25 63.375C 36.25 65.445999 37.929001 67.125 40 67.125ZM 10 10M 32.87505 43.875L 38.625 59.875M 10 10M 47.125 43.875L 45.875 47.375M 10 10M 58 53.125L 54.25 55.375M 10 10M 21.999975 53.125L 25.749975 55.375M 10 10M 60.5 66.875L 56.75 66.375M 10 10M 19.499975 66.875L 23.249975 66.375M 10 10M 21.999975 12.87505L 27.654949 27.161375M 10 10M 20 24.87505L 27.5 27.37505L 31.500025 20.37505"></path></g></g></g><g id="g-root-ic_shar_40kxx1kds3r5-stroke" data-item-order="0" transform="translate(506, 444)"><g id="ic_shar_40kxx1kds3r5-stroke" fill="none" stroke-linecap="round" stroke-linejoin="round" stroke-miterlimit="4" stroke="#2c2c2c" stroke-width="2" stroke-opacity="1"><g><path d="M 44.4725 11.25L 66.195 11.25C 66.195 11.25 68.75 11.25 68.75 13.805L 68.75 34.25C 68.75 34.25 68.75 36.805 66.195 36.805L 44.4725 36.805C 44.4725 36.805 41.9175 36.805 41.9175 34.25L 41.9175 13.805C 41.9175 13.805 41.9175 11.25 44.4725 11.25M 41.9175 19.952499L 68.75 19.952499M 41.9175 28.380001L 68.75 28.380001M 54.052502 19.952499L 54.052502 36.805M 61.247501 19.952499L 61.247501 36.805M 22.75 27L 17 32.5L 17 27C 17.082024 22.847841 20.515373 19.548824 24.6675 19.6325L 34.25 19.6325M 11.25 27L 17 32.512501M 28.5 14.1125L 34.25 19.6325L 28.5 25.1525M 13.805 39.360001L 27.862499 39.360001C 27.862499 39.360001 30.4175 39.360001 30.4175 41.915001L 30.4175 66.195C 30.4175 66.195 30.4175 68.75 27.862499 68.75L 13.805 68.75C 13.805 68.75 11.25 68.75 11.25 66.195L 11.25 41.915001C 11.25 41.915001 11.25 39.360001 13.805 39.360001M 11.25 61.0825L 30.4175 61.0825"></path></g></g></g><g id="g-root-tx_addestra_1qbd1xh1kdtgqs-stroke" data-item-order="0" transform="translate(626, 446)"></g><g id="g-root-tx_valutare_18fpptx1kdutxd-stroke" data-item-order="0" transform="translate(26, 506)"></g><g id="g-root-tx_utilizza_mdlzwl1kdtibp-stroke" data-item-order="0" transform="translate(626, 506)"></g></g></g></svg>