<?xml version="1.0" encoding="utf-8" standalone="yes"?>
<!DOCTYPE svg PUBLIC "-//W3C//DTD SVG 1.1//EN" "http://www.w3.org/Graphics/SVG/1.1/DTD/svg11.dtd">
<svg style="fill:none;stroke:none;fill-rule:evenodd;clip-rule:evenodd;stroke-linecap:round;stroke-linejoin:round;stroke-miterlimit:1.5;" version="1.1" xmlns="http://www.w3.org/2000/svg" xmlns:xlink="http://www.w3.org/1999/xlink" width="888" height="840" viewBox="0 0 888 840"><style class="text-font-style fontImports" data-font-family="Roboto">@import url(https://fonts.googleapis.com/css2?family=Roboto:wght@400;700&amp;amp;display=block);</style><rect id="" x="0" y="0" width="888" height="840" style="fill: #2c2c2c;"></rect><g id="items" style="isolation: isolate"><g id="blend" style="mix-blend-mode: normal"><g id="g-root-tf_qns36d1jjp1ja-fill" data-item-order="-1118880"><g id="tf_qns36d1jjp1ja-fill-merged" stroke="none" fill="#2c2c2c" fill-opacity="1"><g><path d="M0 0 H888 V840 H0 V0"></path></g></g></g><g id="g-root-cp_6_g-6_1hbbl051jjqh34-fill" data-item-order="-624918" transform="translate(242.4530029296875, 220)"><g id="cp_6_g-6_1hbbl051jjqh34-fill-merged" stroke="none" fill="#f79438" fill-opacity="1"><g><path d="M222.548 75.674L142.905 10L149.089 33.155C115.57 42.073 83.878 59.669 57.572 85.944C35.742 107.749 19.884 133.269 10 160.473L78.242 134.964L105.215 181.762C110.275 171.699 117.008 162.262 125.414 153.866C139.341 139.956 156.119 130.641 173.864 125.919L180.062 149.124L222.548 75.674"></path></g></g></g><g id="g-root-cp_5_g-5_18fokr91jjqhvt-fill" data-item-order="-624914" transform="translate(214, 344.962890625)"><g id="cp_5_g-5_18fokr91jjqhvt-fill-merged" stroke="none" fill="#fb6762" fill-opacity="1"><g><path d="M85.903 164.627 H139.928C122.712 138.533 118.028 106.579 125.871 77.282L149.066 83.516L106.693 10L10 46.144L33.145 52.364C16.364 115.045 29.941 184.166 73.892 236.435L85.903 164.627"></path></g></g></g><g id="g-root-cp_4_g-4_18fokr91jjqhvu-fill" data-item-order="-624910" transform="translate(272.875, 499.58984375)"><g id="cp_4_g-4_18fokr91jjqhvu-fill-merged" stroke="none" fill="#1ac3fb" fill-opacity="1"><g><path d="M26.981 94.853C75.847 143.777 143.376 162.703 206.681 151.617L150.504 105.294L177.566 58.508C147.861 60.22 117.585 49.719 94.903 27.011L111.884 10.05 H27.031L10 111.813L26.981 94.853"></path></g></g></g><g id="g-root-cp_3_g-3_140hjpx1jjqfib-fill" data-item-order="-624906" transform="translate(413.375, 488.796875)"><g id="cp_3_g-3_140hjpx1jjqfib-fill-merged" stroke="none" fill="#a6da37" fill-opacity="1"><g><path d="M127.333 10C122.273 20.063 115.54 29.499 107.134 37.895C93.207 51.805 76.429 61.121 58.684 65.842L52.486 42.638L10 116.088L89.643 181.761L83.459 158.607C116.978 149.688 148.67 132.093 174.976 105.817C196.807 84.013 212.664 58.492 222.548 31.289L154.306 56.798L127.333 10"></path></g></g></g><g id="g-root-cp_2_g-2_140hjpx1jjqfic-fill" data-item-order="-624902" transform="translate(515.31201171875, 309.16015625)"><g id="cp_2_g-2_140hjpx1jjqfic-fill-merged" stroke="none" fill="#43dd93" fill-opacity="1"><g><path d="M73.163 81.808 H19.139C36.355 107.902 41.039 139.856 33.195 169.153L10 162.919L52.373 236.435L149.066 200.291L125.921 194.071C142.703 131.39 129.125 62.269 85.175 10L73.163 81.808"></path></g></g></g><g id="g-root-cp_1_g-1_v4ujh11jjqgb1-fill" data-item-order="-624898" transform="translate(398.82000732421875, 236.279296875)"><g id="cp_1_g-1_v4ujh11jjqgb1-fill-merged" stroke="none" fill="#b7b7b7" fill-opacity="1"><g><path d="M66.177 59.394L39.114 106.18C68.82 104.468 99.096 114.969 121.778 137.678L104.797 154.638 H189.65L206.681 52.875L189.7 69.836C140.834 20.912 73.305 1.986 10 13.071L66.177 59.394"></path></g></g></g><g id="g-root-tx_raccogli_8zmg451jjt98g-fill" data-item-order="0" transform="translate(698, 182)"><g id="tx_raccogli_8zmg451jjt98g-fill-merged" stroke="none" fill="#b7b7b7" fill-opacity="1"><g><text style="font: bold 20px Roboto, sans-serif; white-space: pre;" font-weight="bold" font-size="20px" font-family="Roboto, sans-serif"><tspan x="14.31" y="33.84" dominant-baseline="ideographic">Raccogliere </tspan><tspan x="28.84" y="57.85" dominant-baseline="ideographic">Dati Non </tspan><tspan x="21.5" y="81.85" dominant-baseline="ideographic">Etichettati</tspan></text></g></g></g><g id="g-root-tx_utilizza_4lwyd1jjqg3k-fill" data-item-order="0" transform="translate(38, 254)"><g id="tx_utilizza_4lwyd1jjqg3k-fill-merged" stroke="none" fill="#f4f4f4" fill-opacity="1"><g><text style="font: 15px Roboto, sans-serif; white-space: pre;" font-size="15px" font-family="Roboto, sans-serif"><tspan x="21.83" y="30.69" dominant-baseline="ideographic">Utilizzare i pattern </tspan><tspan x="42.14" y="48.69" dominant-baseline="ideographic">scoperti per </tspan><tspan x="15.79" y="66.7" dominant-baseline="ideographic">decisioni informate.</tspan></text></g></g></g><g id="g-root-tx_raccogli_qs5es51jjt91d-fill" data-item-order="0" transform="translate(698, 266)"><g id="tx_raccogli_qs5es51jjt91d-fill-merged" stroke="none" fill="#f4f4f4" fill-opacity="1"><g><text style="font: 15px Roboto, sans-serif; white-space: pre;" font-size="15px" font-family="Roboto, sans-serif"><tspan x="14.57" y="30.69" dominant-baseline="ideographic">Raccogliere dati </tspan><tspan x="17.31" y="48.69" dominant-baseline="ideographic">senza etichette </tspan><tspan x="30.74" y="66.7" dominant-baseline="ideographic">predefinite.</tspan></text></g></g></g><g id="g-root-tx_applicar_18hk00l1jjqgw7-fill" data-item-order="0" transform="translate(62, 194)"><g id="tx_applicar_18hk00l1jjqgw7-fill-merged" stroke="none" fill="#f79438" fill-opacity="1"><g><text style="font: bold 20px Roboto, sans-serif; white-space: pre;" font-weight="bold" font-size="20px" font-family="Roboto, sans-serif"><tspan x="12.87" y="33.84" dominant-baseline="ideographic">Applicare </tspan><tspan x="24.5" y="57.85" dominant-baseline="ideographic">Insight</tspan></text></g></g></g><g id="g-root-ic_dete_1hckj6d1jjrwn8-fill" data-item-order="0" transform="translate(86, 350)"></g><g id="g-root-tx_organizz_18n69sl1jjupsf-fill" data-item-order="0" transform="translate(686, 698)"><g id="tx_organizz_18n69sl1jjupsf-fill-merged" stroke="none" fill="#f4f4f4" fill-opacity="1"><g><text style="font: 15px Roboto, sans-serif; white-space: pre;" font-size="15px" font-family="Roboto, sans-serif"><tspan x="14.32" y="30.69" dominant-baseline="ideographic">Organizzare i dati in </tspan><tspan x="26.75" y="48.69" dominant-baseline="ideographic">gruppi basati su </tspan><tspan x="37.89" y="66.7" dominant-baseline="ideographic">somiglianze.</tspan></text></g></g></g><g id="g-root-ic_patr_deth5h1jjuozx-fill" data-item-order="0" transform="translate(734, 362)"></g><g id="g-root-tx_rilevare_4gokk51jjrvgi-fill" data-item-order="0" transform="translate(62, 410)"><g id="tx_rilevare_4gokk51jjrvgi-fill-merged" stroke="none" fill="#fb6762" fill-opacity="1"><g><text style="font: bold 20px Roboto, sans-serif; white-space: pre;" font-weight="bold" font-size="20px" font-family="Roboto, sans-serif"><tspan x="21.65" y="33.84" dominant-baseline="ideographic">Rilevare </tspan><tspan x="15.48" y="57.85" dominant-baseline="ideographic">Anomalie</tspan></text></g></g></g><g id="g-root-tx_identifi_zk1kid1jjunm3-fill" data-item-order="0" transform="translate(698, 422)"><g id="tx_identifi_zk1kid1jjunm3-fill-merged" stroke="none" fill="#43dd93" fill-opacity="1"><g><text style="font: bold 20px Roboto, sans-serif; white-space: pre;" font-weight="bold" font-size="20px" font-family="Roboto, sans-serif"><tspan x="16.29" y="33.84" dominant-baseline="ideographic">Identificare </tspan><tspan x="27.37" y="57.85" dominant-baseline="ideographic">Strutture</tspan></text></g></g></g><g id="g-root-tx_identifi_qp11cl1jjruh7-fill" data-item-order="0" transform="translate(50, 470)"><g id="tx_identifi_qp11cl1jjruh7-fill-merged" stroke="none" fill="#f4f4f4" fill-opacity="1"><g><text style="font: 15px Roboto, sans-serif; white-space: pre;" font-size="15px" font-family="Roboto, sans-serif"><tspan x="12.23" y="30.69" dominant-baseline="ideographic">Identificare punti </tspan><tspan x="25.51" y="48.69" dominant-baseline="ideographic">dati insoliti o </tspan><tspan x="39.36" y="66.7" dominant-baseline="ideographic">anomali.</tspan></text></g></g></g><g id="g-root-tx_trovarep_1q7l2c51jjups4-fill" data-item-order="0" transform="translate(686, 482)"><g id="tx_trovarep_1q7l2c51jjups4-fill-merged" stroke="none" fill="#f4f4f4" fill-opacity="1"><g><text style="font: 15px Roboto, sans-serif; white-space: pre;" font-size="15px" font-family="Roboto, sans-serif"><tspan x="23.58" y="30.69" dominant-baseline="ideographic">Trovare pattern e </tspan><tspan x="17.74" y="48.69" dominant-baseline="ideographic">relazioni all'interno </tspan><tspan x="53.68" y="66.7" dominant-baseline="ideographic">dei dati.</tspan></text></g></g></g><g id="g-root-ic_2_hx4vmd1jjqfwh-fill" data-item-order="0" transform="translate(86, 134)"></g><g id="g-root-tx_ciclodia_qp11cl1jjqh3a-fill" data-item-order="0" transform="translate(182, 38)"><g id="tx_ciclodia_qp11cl1jjqh3a-fill-merged" stroke="none" fill="#f4f4f4" fill-opacity="1"><g><text style="font: bold 25px Roboto, sans-serif; white-space: pre;" font-weight="bold" font-size="25px" font-family="Roboto, sans-serif"><tspan x="17.04" y="43" dominant-baseline="ideographic">Ciclo di Apprendimento Non Supervisionato</tspan></text></g></g></g><g id="g-root-ic_exce_4osqol1jjrv9r-fill" data-item-order="0" transform="translate(86, 566)"></g><g id="g-root-ic_2_8vvllh1jjw2rk-fill" data-item-order="0" transform="translate(734, 578)"></g><g id="g-root-tx_ridurred_me7bx11jjruo5-fill" data-item-order="0" transform="translate(56, 626)"><g id="tx_ridurred_me7bx11jjruo5-fill-merged" stroke="none" fill="#1ac3fb" fill-opacity="1"><g><text style="font: bold 20px Roboto, sans-serif; white-space: pre;" font-weight="bold" font-size="20px" font-family="Roboto, sans-serif"><tspan x="31.09" y="33.84" dominant-baseline="ideographic">Ridurre </tspan><tspan x="13.5" y="57.85" dominant-baseline="ideographic">Dimensioni</tspan></text></g></g></g><g id="g-root-tx_raggrupp_qunb4l1jjupzi-fill" data-item-order="0" transform="translate(692, 638)"><g id="tx_raggrupp_qunb4l1jjupzi-fill-merged" stroke="none" fill="#a6da37" fill-opacity="1"><g><text style="font: bold 20px Roboto, sans-serif; white-space: pre;" font-weight="bold" font-size="20px" font-family="Roboto, sans-serif"><tspan x="15.49" y="33.84" dominant-baseline="ideographic">Raggruppare </tspan><tspan x="55.63" y="57.85" dominant-baseline="ideographic">Dati</tspan></text></g></g></g><g id="g-root-tx_semplifi_18lxbmd1jjrwum-fill" data-item-order="0" transform="translate(44, 686)"><g id="tx_semplifi_18lxbmd1jjrwum-fill-merged" stroke="none" fill="#f4f4f4" fill-opacity="1"><g><text style="font: 15px Roboto, sans-serif; white-space: pre;" font-size="15px" font-family="Roboto, sans-serif"><tspan x="14.53" y="30.69" dominant-baseline="ideographic">Semplificare i dati </tspan><tspan x="20.34" y="48.69" dominant-baseline="ideographic">per una migliore </tspan><tspan x="50.51" y="66.7" dominant-baseline="ideographic">analisi.</tspan></text></g></g></g><g id="g-root-ic_redi_1czvehh1jjtb7u-fill" data-item-order="0" transform="translate(734, 122)"></g><g id="g-root-tf_qns36d1jjp1ja-stroke" data-item-order="-1118880"></g><g id="g-root-cp_6_g-6_1hbbl051jjqh34-stroke" data-item-order="-624918" transform="translate(242.4530029296875, 220)"><g id="cp_6_g-6_1hbbl051jjqh34-stroke" fill="none" stroke-linecap="round" stroke-linejoin="round" stroke-miterlimit="4" stroke="#2c2c2c" stroke-width="2" stroke-opacity="1"><g><path d="M 222.5478 75.6735L 142.9049 10L 149.089 33.1546C 115.5697 42.0732 83.8781 59.669 57.572 85.9441C 35.7415 107.7488 19.8837 133.2694 10 160.4726L 78.2416 134.9636L 105.2151 181.7617C 110.2753 171.6988 117.0084 162.2623 125.4142 153.8664C 139.3409 139.9562 156.1187 130.6408 173.8642 125.9191L 180.0616 149.1236L 222.5478 75.6735Z"></path></g></g></g><g id="g-root-cp_5_g-5_18fokr91jjqhvt-stroke" data-item-order="-624914" transform="translate(214, 344.962890625)"><g id="cp_5_g-5_18fokr91jjqhvt-stroke" fill="none" stroke-linecap="round" stroke-linejoin="round" stroke-miterlimit="4" stroke="#2c2c2c" stroke-width="2" stroke-opacity="1"><g><path d="M 85.9033 164.6271L 139.9276 164.659C 122.7115 138.5328 118.0278 106.5788 125.8712 77.2824L 149.0661 83.5156L 106.6933 10L 10 46.1443L 33.145 52.3641C 16.3636 115.0446 29.9413 184.1658 73.8917 236.435L 85.9033 164.6271Z"></path></g></g></g><g id="g-root-cp_4_g-4_18fokr91jjqhvu-stroke" data-item-order="-624910" transform="translate(272.875, 499.58984375)"><g id="cp_4_g-4_18fokr91jjqhvu-stroke" fill="none" stroke-linecap="round" stroke-linejoin="round" stroke-miterlimit="4" stroke="#2c2c2c" stroke-width="2" stroke-opacity="1"><g><path d="M 26.9806 94.8528C 75.8467 143.7767 143.3756 162.7027 206.6808 151.6173L 150.504 105.2939L 177.5664 58.5085C 147.8609 60.22 117.5846 49.7191 94.903 27.0107L 111.8836 10.0502L 27.0308 10L 10 111.8133L 26.9806 94.8528Z"></path></g></g></g><g id="g-root-cp_3_g-3_140hjpx1jjqfib-stroke" data-item-order="-624906" transform="translate(413.375, 488.796875)"><g id="cp_3_g-3_140hjpx1jjqfib-stroke" fill="none" stroke-linecap="round" stroke-linejoin="round" stroke-miterlimit="4" stroke="#2c2c2c" stroke-width="2" stroke-opacity="1"><g><path d="M 127.333 10C 122.2728 20.0629 115.5397 29.4993 107.134 37.8951C 93.2072 51.8054 76.4292 61.1209 58.6837 65.8425L 52.4862 42.6378L 10 116.0879L 89.6429 181.7614L 83.4589 158.607C 116.9782 149.6884 148.6699 132.0926 174.9761 105.8174C 196.8067 84.0127 212.6644 58.492 222.5482 31.2888L 154.3063 56.7978L 127.333 10Z"></path></g></g></g><g id="g-root-cp_2_g-2_140hjpx1jjqfic-stroke" data-item-order="-624902" transform="translate(515.31201171875, 309.16015625)"><g id="cp_2_g-2_140hjpx1jjqfic-stroke" fill="none" stroke-linecap="round" stroke-linejoin="round" stroke-miterlimit="4" stroke="#2c2c2c" stroke-width="2" stroke-opacity="1"><g><path d="M 73.1631 81.8078L 19.1387 81.7758C 36.3549 107.902 41.0387 139.8562 33.1952 169.1526L 10 162.9193L 52.3729 236.4349L 149.0661 200.2906L 125.9214 194.0709C 142.7027 131.3903 129.1251 62.2691 85.1747 10L 73.1631 81.8078Z"></path></g></g></g><g id="g-root-cp_1_g-1_v4ujh11jjqgb1-stroke" data-item-order="-624898" transform="translate(398.82000732421875, 236.279296875)"><g id="cp_1_g-1_v4ujh11jjqgb1-stroke" fill="none" stroke-linecap="round" stroke-linejoin="round" stroke-miterlimit="4" stroke="#2c2c2c" stroke-width="2" stroke-opacity="1"><g><path d="M 66.1767 59.3944L 39.1142 106.1799C 68.8199 104.4683 99.0964 114.9691 121.7781 137.6777L 104.7974 154.6381L 189.6503 154.6883L 206.681 52.875L 189.7004 69.8355C 140.8343 20.9116 73.3053 1.9856 10 13.0711L 66.1767 59.3944Z"></path></g></g></g><g id="g-root-tx_raccogli_8zmg451jjt98g-stroke" data-item-order="0" transform="translate(698, 182)"></g><g id="g-root-tx_utilizza_4lwyd1jjqg3k-stroke" data-item-order="0" transform="translate(38, 254)"></g><g id="g-root-tx_raccogli_qs5es51jjt91d-stroke" data-item-order="0" transform="translate(698, 266)"></g><g id="g-root-tx_applicar_18hk00l1jjqgw7-stroke" data-item-order="0" transform="translate(62, 194)"></g><g id="g-root-ic_dete_1hckj6d1jjrwn8-stroke" data-item-order="0" transform="translate(86, 350)"><g id="ic_dete_1hckj6d1jjrwn8-stroke" fill="none" stroke-linecap="round" stroke-linejoin="round" stroke-miterlimit="4" stroke="#f4f4f4" stroke-width="2" stroke-opacity="1"><g><path d="M 11.5 27.9L 11.5 21.5C 11.5 20.299999 12.3 19.5 13.5 19.5L 19.900021 19.5M 11.5 38.9002L 11.5 45.300201C 11.5 46.500198 12.3 47.300201 13.5 47.300201L 19.900021 47.300201M 48.5 38.9002L 48.5 45.300201C 48.5 46.500198 47.700001 47.300201 46.5 47.300201L 39.900002 47.300201M 39.5 38.9002C 37.700001 42.300201 34.299999 44.700199 30.1 44.700199C 24.3001 44.700199 19.700081 39.9002 19.700081 34.300201C 19.700081 28.70014 24.500099 23.900139 30.1 23.900139L 30.296801 23.900139M 43.900002 56.500198C 40.299999 52.9002 35.5 50.700199 30.1 50.700199C 24.700039 50.700199 19.90004 52.9002 16.300039 56.500198M 30.299999 23.900139L 30.299999 44.700199M 19.700081 34.099998L 32.900002 34.099998M 46.621399 22.14996L 46.621399 18.949959M 10 10M 56.2216 28.549999L 48.2216 12.55C 47.4216 11.15 45.4216 11.15 44.621601 12.55L 36.621597 28.549999C 35.821602 29.950001 36.821602 31.549999 38.4216 31.549999L 54.4216 31.549999C 56.021599 31.549999 57.021599 29.950001 56.2216 28.549999ZM 46.621601 26.549959L 46.621601 26.549959"></path></g></g></g><g id="g-root-tx_organizz_18n69sl1jjupsf-stroke" data-item-order="0" transform="translate(686, 698)"></g><g id="g-root-ic_patr_deth5h1jjuozx-stroke" data-item-order="0" transform="translate(734, 362)"><g id="ic_patr_deth5h1jjuozx-stroke" fill="none" stroke-linecap="round" stroke-linejoin="round" stroke-miterlimit="4" stroke="#f4f4f4" stroke-width="2" stroke-opacity="1"><g><path d="M 11 11L 21.35 11L 21.35 57L 11 57ZM 25.424 26.788C 25.424002 35.507473 32.492531 42.576 41.212002 42.576C 49.931473 42.576 57.000004 35.507473 57.000004 26.788C 57.000004 18.068529 49.931473 11.000001 41.212002 11.000001C 32.492531 11.000001 25.424002 18.068529 25.424002 26.788"></path></g></g></g><g id="g-root-tx_rilevare_4gokk51jjrvgi-stroke" data-item-order="0" transform="translate(62, 410)"></g><g id="g-root-tx_identifi_zk1kid1jjunm3-stroke" data-item-order="0" transform="translate(698, 422)"></g><g id="g-root-tx_identifi_qp11cl1jjruh7-stroke" data-item-order="0" transform="translate(50, 470)"></g><g id="g-root-tx_trovarep_1q7l2c51jjups4-stroke" data-item-order="0" transform="translate(686, 482)"></g><g id="g-root-ic_2_hx4vmd1jjqfwh-stroke" data-item-order="0" transform="translate(86, 134)"><g id="ic_2_hx4vmd1jjqfwh-stroke" fill="none" stroke-linecap="round" stroke-linejoin="round" stroke-miterlimit="4" stroke="#f4f4f4" stroke-width="2" stroke-opacity="1"><g><path d="M 25.56348 56.1236L 25.56348 45.555801M 43.274799 56.1236L 43.274799 51.063202L 45.805 51.063202C 47.147202 51.063202 48.4342 50.529999 49.383202 49.581001C 50.332199 48.632 50.865398 47.344799 50.865398 46.0028L 50.865398 40.942398L 54.0704 40.942398C 54.2756 40.942001 54.477798 40.8918 54.659401 40.795998C 54.841 40.700199 54.996601 40.561798 55.112801 40.392403C 55.229 40.223198 55.302399 40.028198 55.326401 39.8242C 55.350399 39.620201 55.3246 39.413601 55.250999 39.221802C 51.689201 29.981899 49.293201 21.58268 41.702 18.990181M 12.666019 38.595802L 12.666019 32.127998L 19.22216 32.127998L 19.22216 38.595802L 12.666019 38.595802ZM 10 10M 13.3955 14.18476L 15.75684 16.546501L 20.42688 11.876464M 10 10M 13.3955 24.310261L 15.75684 26.67202L 20.42688 22.00198M 26.84082 14.21148L 36.334 14.21148M 26.84082 24.89072L 36.334 24.89072M 26.84082 35.362L 36.334 35.362"></path></g></g></g><g id="g-root-tx_ciclodia_qp11cl1jjqh3a-stroke" data-item-order="0" transform="translate(182, 38)"></g><g id="g-root-ic_exce_4osqol1jjrv9r-stroke" data-item-order="0" transform="translate(86, 566)"><g id="ic_exce_4osqol1jjrv9r-stroke" fill="none" stroke-linecap="round" stroke-linejoin="round" stroke-miterlimit="4" stroke="#f4f4f4" stroke-width="2" stroke-opacity="1"><g><path d="M 44.490002 51.226002L 49.292 56.986L 56.973999 56.986L 49.292 47.383999L 56.973999 37.781998L 49.292 37.781998L 44.490002 43.543999L 39.690002 37.781998L 32.007999 37.781998L 39.690002 47.383999L 32.007999 56.986L 39.690002 56.986L 44.490002 51.226002ZM 24.307999 54.674C 19.793949 54.675106 16.133999 51.016052 16.133999 46.501999L 16.133999 41.400002M 21.242001 46.501999L 16.133999 41.393997L 11.026 46.501999M 43.717999 13.414C 48.232052 13.412895 51.891998 17.071949 51.891998 21.586L 51.891998 27.716M 46.784 22.608L 51.891998 27.716L 57 22.608M 13.044 11.014L 35.517998 11.014C 35.517998 11.014 37.562 11.014 37.562 13.058001L 37.562 31.445999C 37.562 31.445999 37.562 33.489998 35.517998 33.489998L 13.044 33.489998C 13.044 33.489998 11 33.489998 11 31.445999L 11 13.058001C 11 13.058001 11 11.014 13.044 11.014M 11 17.216L 37.562 17.216M 11 22.608L 37.562 22.608M 11 28.152L 37.562 28.152M 23.144001 17.216L 23.144001 33.489998M 30.271999 17.216L 30.271999 33.489998"></path></g></g></g><g id="g-root-ic_2_8vvllh1jjw2rk-stroke" data-item-order="0" transform="translate(734, 578)"><g id="ic_2_8vvllh1jjw2rk-stroke" fill="none" stroke-linecap="round" stroke-linejoin="round" stroke-miterlimit="4" stroke="#f4f4f4" stroke-width="2" stroke-opacity="1"><g><path d="M 19.5 31.0002C 23.91828 31.0002 27.5 29.56756 27.5 27.80024C 27.5 26.03294 23.91828 24.600239 19.5 24.600239C 15.08172 24.600239 11.5 26.03294 11.5 27.80024C 11.5 29.56756 15.08172 31.0002 19.5 31.0002ZM 11.5 27.79994L 11.5 40.599998C 11.5 42.400002 15.1 43.799999 19.5 43.799999C 23.9 43.799999 27.5 42.400002 27.5 40.599998L 27.5 27.79994M 51.202801 16.746601C 54.030602 16.746601 56.3228 15.50494 56.3228 13.97328C 56.3228 12.4416 54.030602 11.199936 51.202801 11.199936C 48.375198 11.199936 46.082802 12.4416 46.082802 13.97328C 46.082802 15.50494 48.375198 16.746601 51.202801 16.746601ZM 46.082802 13.97338L 46.082802 21.2267C 46.082802 22.720039 48.4296 24.00004 51.202801 24.00004C 53.9762 24.00004 56.3228 22.720039 56.3228 21.2267L 56.3228 13.97338M 51.202801 33.360199C 54.030602 33.360199 56.3228 32.118401 56.3228 30.5868C 56.3228 29.05514 54.030602 27.81348 51.202801 27.81348C 48.375198 27.81348 46.082802 29.05514 46.082802 30.5868C 46.082802 32.118401 48.375198 33.360199 51.202801 33.360199ZM 46.082802 30.587L 46.082802 37.840202C 46.082802 39.333599 48.4296 40.613602 51.202801 40.613602C 53.9762 40.613602 56.3228 39.333599 56.3228 37.840202L 56.3228 30.587M 51.202801 49.5466C 54.030602 49.5466 56.3228 48.305 56.3228 46.773201C 56.3228 45.2416 54.030602 44 51.202801 44C 48.375198 44 46.082802 45.2416 46.082802 46.773201C 46.082802 48.305 48.375198 49.5466 51.202801 49.5466ZM 46.082802 46.773399L 46.082802 54.026798C 46.082802 55.52 48.4296 56.799999 51.202801 56.799999C 53.9762 56.799999 56.3228 55.52 56.3228 54.026798L 56.3228 46.773399M 41.291599 17.4L 37.291599 17.4L 37.291599 50.599998L 41.291599 50.599998M 41.291599 34L 32.291599 34M 11.5 34.262199C 11.5 35.9538 14.959459 37.337601 19.50004 37.337601C 24.0406 37.337601 27.500059 35.9538 27.500059 34.262199"></path></g></g></g><g id="g-root-tx_ridurred_me7bx11jjruo5-stroke" data-item-order="0" transform="translate(56, 626)"></g><g id="g-root-tx_raggrupp_qunb4l1jjupzi-stroke" data-item-order="0" transform="translate(692, 638)"></g><g id="g-root-tx_semplifi_18lxbmd1jjrwum-stroke" data-item-order="0" transform="translate(44, 686)"></g><g id="g-root-ic_redi_1czvehh1jjtb7u-stroke" data-item-order="0" transform="translate(734, 122)"><g id="ic_redi_1czvehh1jjtb7u-stroke" fill="none" stroke-linecap="round" stroke-linejoin="round" stroke-miterlimit="4" stroke="#f4f4f4" stroke-width="2" stroke-opacity="1"><g><path d="M 27.099979 35.5C 35.715599 35.5 42.700001 32.455399 42.700001 28.6999C 42.700001 24.944359 35.715599 21.8999 27.099979 21.8999C 18.484341 21.8999 11.5 24.944359 11.5 28.6999C 11.5 32.455399 18.484341 35.5 27.099979 35.5ZM 11.5 29.299801L 11.5 49.699799C 11.5 53.499802 18.499981 56.499802 27.099979 56.499802C 35.700001 56.499802 42.700001 53.499802 42.700001 49.699799L 42.700001 29.299801M 48.5 29.5L 56.5 29.5L 56.5 21.5C 54.900002 21.5 53.5 20.1 53.5 18.5C 53.5 16.9 54.900002 15.5 56.5 15.5L 56.5 11.5L 26.5 11.5L 26.5 15.5C 27.5 15.5 28.30002 15.9 28.70002 16.5M 35.5 16.5L 35.5 17.5M 41.5 16.5L 41.5 19.5M 47.5 16.5L 47.5 21.5M 10 10M 23.50672 50.885799L 23.50672 46.6586M 23.50672 46.6586L 23.50672 40.7402L 27.311319 40.7402C 28.94562 40.7402 30.270399 42.064999 30.270399 43.699402L 30.270399 43.699402C 30.270399 45.333599 28.94562 46.6586 27.311319 46.6586L 23.50672 46.6586ZM 10 10M 27.73414 46.658401L 30.693199 50.885799"></path></g></g></g></g></g></svg>