<?xml version="1.0" encoding="utf-8" standalone="yes"?>
<!DOCTYPE svg PUBLIC "-//W3C//DTD SVG 1.1//EN" "http://www.w3.org/Graphics/SVG/1.1/DTD/svg11.dtd">
<svg width="912" height="624" viewBox="0 0 912 624" style="fill:none;stroke:none;fill-rule:evenodd;clip-rule:evenodd;stroke-linecap:round;stroke-linejoin:round;stroke-miterlimit:1.5;" version="1.1" xmlns="http://www.w3.org/2000/svg" xmlns:xlink="http://www.w3.org/1999/xlink"><style class="text-font-style fontImports" data-font-family="Roboto">@import url(https://fonts.googleapis.com/css2?family=Roboto:wght@400;700&amp;amp;display=block);</style><rect id="" x="0" y="0" width="912" height="624" style="fill: #2c2c2c;"></rect><g id="items" style="isolation: isolate"><g id="blend" style="mix-blend-mode: normal"><g id="g-root-tf_hxs51p1jtlvr4-fill" data-item-order="-853632"><g id="tf_hxs51p1jtlvr4-fill-merged" stroke="none" fill="#2c2c2c"><g><path d="M0 0 H912 V624 H0 V0"></path></g></g></g><g id="g-root-cp_5_g-5_1hi7rm51jtq2gw-fill" data-item-order="-456183" transform="translate(744, 182.4610595703125)"></g><g id="g-root-cp_4_g-4_147dqbx1jtq0w1-fill" data-item-order="-456173" transform="translate(576, 198.9610595703125)"></g><g id="g-root-cp_3_g-3_qvx7yl1jtq2gy-fill" data-item-order="-456163" transform="translate(408, 246.6561279296875)"></g><g id="g-root-cp_2_g-2_i0a7pp1jtq39n-fill" data-item-order="-456153" transform="translate(240, 278.3590087890625)"></g><g id="g-root-cp_1_g-1_dl36od1jtq0w4-fill" data-item-order="-456143" transform="translate(27, 214.5)"></g><g id="g-root-cp_0_g-0_9mob11jtq2h1-fill" data-item-order="-456133" transform="translate(258.0000305175781, 124)"></g><g id="g-root-cp_0_g-0_1_9mob11jtq2h2-fill" data-item-order="-456127" transform="translate(142, 278)"></g><g id="g-root-tx_comefunz_1lza7wt1jtq3uv-fill" data-item-order="0" transform="translate(200, 38)"><g id="tx_comefunz_1lza7wt1jtq3uv-fill-merged" stroke="none" fill="#f4f4f4"><g><text style="font: bold 25px Roboto, sans-serif; white-space: pre;" font-weight="bold" font-size="25px" font-family="Roboto, sans-serif"><tspan x="15.1" y="43" dominant-baseline="ideographic">Come funzionano i modelli di AI generativa</tspan></text></g></g></g><g id="g-root-tx_ignoranz_18egl8t1jtrgug-fill" data-item-order="0" transform="translate(62, 446)"><g id="tx_ignoranz_18egl8t1jtrgug-fill-merged" stroke="none" fill="#ffe711"><g><text style="font: 20px Roboto, sans-serif; white-space: pre;" font-size="20px" font-family="Roboto, sans-serif"><tspan x="13.88" y="33.85" dominant-baseline="ideographic">Ignoranza</tspan></text></g></g></g><g id="g-root-tx_acquisiz_hs61l91jtrgui-fill" data-item-order="0" transform="translate(212, 446)"><g id="tx_acquisiz_hs61l91jtrgui-fill-merged" stroke="none" fill="#f79438"><g><text style="font: 20px Roboto, sans-serif; white-space: pre;" font-size="20px" font-family="Roboto, sans-serif"><tspan x="16.61" y="33.84" dominant-baseline="ideographic">Acquisizione </tspan><tspan x="56.73" y="57.85" dominant-baseline="ideographic">dati</tspan></text></g></g></g><g id="g-root-tx_apprendi_1ii6l1jtrg1w-fill" data-item-order="0" transform="translate(368, 446)"><g id="tx_apprendi_1ii6l1jtrg1w-fill-merged" stroke="none" fill="#fb6762"><g><text style="font: 20px Roboto, sans-serif; white-space: pre;" font-size="20px" font-family="Roboto, sans-serif"><tspan x="17.1" y="33.84" dominant-baseline="ideographic">Apprendimento </tspan><tspan x="44.14" y="57.85" dominant-baseline="ideographic">statistico</tspan></text></g></g></g><g id="g-root-tx_previsio_1cvj1jh1jtri8e-fill" data-item-order="0" transform="translate(566, 446)"><g id="tx_previsio_1cvj1jh1jtri8e-fill-merged" stroke="none" fill="#f366bb"><g><text style="font: 20px Roboto, sans-serif; white-space: pre;" font-size="20px" font-family="Roboto, sans-serif"><tspan x="11.76" y="33.85" dominant-baseline="ideographic">Previsione</tspan></text></g></g></g><g id="g-root-tx_generazi_140iidp1jtrgn4-fill" data-item-order="0" transform="translate(722, 446)"><g id="tx_generazi_140iidp1jtrgn4-fill-merged" stroke="none" fill="#cb68f9"><g><text style="font: 20px Roboto, sans-serif; white-space: pre;" font-size="20px" font-family="Roboto, sans-serif"><tspan x="14.5" y="33.85" dominant-baseline="ideographic">Generazione</tspan></text></g></g></g><g id="g-root-tx_modellos_v302vh1jtrifd-fill" data-item-order="0" transform="translate(44, 482)"><g id="tx_modellos_v302vh1jtrifd-fill-merged" stroke="none" fill="#f4f4f4"><g><text style="font: 15px Roboto, sans-serif; white-space: pre;" font-size="15px" font-family="Roboto, sans-serif"><tspan x="27.38" y="27.69" dominant-baseline="ideographic">Modello senza </tspan><tspan x="13.08" y="45.69" dominant-baseline="ideographic">conoscenza innata</tspan></text></g></g></g><g id="g-root-tx_prevedel_18gc0i51jtrfuv-fill" data-item-order="0" transform="translate(548, 482)"><g id="tx_prevedel_18gc0i51jtrfuv-fill-merged" stroke="none" fill="#f4f4f4"><g><text style="font: 15px Roboto, sans-serif; white-space: pre;" font-size="15px" font-family="Roboto, sans-serif"><tspan x="16.67" y="30.69" dominant-baseline="ideographic">Prevede la parola </tspan><tspan x="25.04" y="48.69" dominant-baseline="ideographic">successiva più </tspan><tspan x="43.05" y="66.7" dominant-baseline="ideographic">probabile</tspan></text></g></g></g><g id="g-root-tx_producet_v4vi4t1jtrhft-fill" data-item-order="0" transform="translate(728, 482)"><g id="tx_producet_v4vi4t1jtrhft-fill-merged" stroke="none" fill="#f4f4f4"><g><text style="font: 15px Roboto, sans-serif; white-space: pre;" font-size="15px" font-family="Roboto, sans-serif"><tspan x="15.57" y="30.69" dominant-baseline="ideographic">Produce testo </tspan><tspan x="27.09" y="48.69" dominant-baseline="ideographic">coerente e </tspan><tspan x="28.26" y="66.7" dominant-baseline="ideographic">pertinente</tspan></text></g></g></g><g id="g-root-tx_alimenta_4gpj7x1jtriff-fill" data-item-order="0" transform="translate(212, 506)"><g id="tx_alimenta_4gpj7x1jtriff-fill-merged" stroke="none" fill="#f4f4f4"><g><text style="font: 15px Roboto, sans-serif; white-space: pre;" font-size="15px" font-family="Roboto, sans-serif"><tspan x="23.51" y="30.69" dominant-baseline="ideographic">Alimentato con </tspan><tspan x="13.59" y="48.69" dominant-baseline="ideographic">enormi quantità di </tspan><tspan x="61.55" y="66.7" dominant-baseline="ideographic">dati</tspan></text></g></g></g><g id="g-root-tx_rilevasc_1lr61sd1jtrhfp-fill" data-item-order="0" transform="translate(386, 506)"><g id="tx_rilevasc_1lr61sd1jtrhfp-fill-merged" stroke="none" fill="#f4f4f4"><g><text style="font: 15px Roboto, sans-serif; white-space: pre;" font-size="15px" font-family="Roboto, sans-serif"><tspan x="16.27" y="27.69" dominant-baseline="ideographic">Rileva schemi e </tspan><tspan x="29.24" y="45.69" dominant-baseline="ideographic">correlazioni</tspan></text></g></g></g><g id="g-root-tf_hxs51p1jtlvr4-stroke" data-item-order="-853632"></g><g id="g-root-cp_5_g-5_1hi7rm51jtq2gw-stroke" data-item-order="-456183" transform="translate(744, 182.4610595703125)"><g id="cp_5_g-5_1hi7rm51jtq2gw-stroke" fill="none" stroke-linecap="round" stroke-linejoin="round" stroke-miterlimit="4" stroke="#cb68f9" stroke-width="2"><g><path d="M 65.5 144.802C 63.1674 144.0946 60.8148 143.2976 59 143.0384C 56.8834 142.736 52.5724 142.4336 48.5 142.5736M 65.5 144.802C 67.666 145.4588 69.8148 146.0384 71.5 146.0384C 75 146.0384 83 147.5384 83.5 151.0384L 13.5 151.0384C 15 149.5384 19.4 146.5384 25 146.5384C 32 146.5384 37 145.0384 41.5 143.5384C 43.2786 142.9455 45.8384 142.6651 48.5 142.5736M 65.5 144.802C 66.1682 140.4148 63.1986 138.2517 65.6164 131.0386M 99.5 77.0386C 99.3333 78.5386 100 83.0386 98 90.0386C 97.3064 92.4663 95.6504 94.4731 93.3451 96.5386M 99.5 77.0386C 100.6667 78.5386 103.7 81.4386 106.5 81.0386C 108.1 80.6386 106.5 75.5386 105.5 73.0386M 99.5 77.0386C 98.8333 80.7054 96.9 87.7391 94.5 86.5391C 92.1 85.3391 92.1667 78.3724 92.5 75.0391M 99.5 77.0386C 99.6667 75.2054 99.7 70.9391 98.5 68.5391M 65.6164 131.0386C 66.4109 127.0386 67.3 118.4386 64.5 116.0386C 61 113.0386 56.5 108.0386 51.5 112.0386C 47.5 115.2386 49.1667 122.3719 50.5 125.5386C 52.0776 127.3719 57.3095 131.0386 65.6164 131.0386ZM 65.6164 131.0386C 64.598 130.0382 63.0669 128.3839 61.6348 126.5386M 65.6164 131.0386C 67.6224 125.0537 70.2394 119.0346 73.4817 114.5386M 58 120.0386C 58.3006 121.3911 59.139 122.9742 60.1858 124.5386M 61.6348 126.5386C 62.2116 125.0386 63.1922 121.6386 62.5 120.0386M 61.6348 126.5386C 61.1306 125.8889 60.6387 125.2155 60.1858 124.5386M 60.1858 124.5386C 59.2905 124.8719 57.2 125.3386 56 124.5386M 73.4817 114.5386C 74.1295 113.6403 74.8022 112.8028 75.5 112.0386C 78.0664 109.2278 80.6029 106.8949 83 104.872M 73.4817 114.5386C 74.4878 118.0386 78 125.8386 84 129.0386C 90 132.2386 96.1667 128.7052 98.5 126.5386C 99.6667 123.5386 100.5 116.7386 94.5 113.5386C 88.5 110.3386 77.9878 112.8719 73.4817 114.5386ZM 73.4817 114.5386C 75.0995 115.5474 78.1728 117.2034 81.5 118.4423M 88 120.0386C 86.1046 119.8928 84.0171 119.344 82 118.6246M 81.5 118.4423C 82.8333 117.3077 85.8 115.0386 87 115.0386M 81.5 118.4423C 81.6661 118.5042 81.8328 118.565 82 118.6246M 82 118.6246C 82.3333 120.2626 83.4 123.7386 85 124.5386M 93.3451 96.5386C 95.5634 93.8719 101.3 88.6386 106.5 89.0386C 111.7 89.4386 115.3333 92.2052 116.5 93.5386C 118 96.5386 119.3 103.0386 112.5 105.0386C 105.7 107.0386 100.3333 104.2052 98.5 102.5386L 93.3451 96.5386ZM 93.3451 96.5386C 95.0769 96.4573 97.8195 96.3602 100.5 96.3284M 93.3451 96.5386C 90.8559 98.7688 87.6096 101.0676 84 104.0388M 107.5 96.5386C 106.1503 96.3458 103.6381 96.3001 101 96.3232M 101 96.3232L 105 92.5386M 101 96.3232C 100.8337 96.3247 100.667 96.3264 100.5 96.3284M 100.5 96.3284C 100.8333 97.7318 102.2 100.7386 105 101.5386M 84 104.0388C 85.6667 101.5387 89.2 95.2386 90 90.0386C 90.8 84.8386 85.3333 81.8719 82.5 81.0386C 79.8333 80.5386 74.2963 81.4386 73.4817 89.0386C 72.6671 96.6386 79.4878 103.1302 82.5 105.2968L 83 104.872M 84 104.0388C 83.6696 104.3108 83.3362 104.5883 83 104.872M 83 104.872C 82.6389 103.3672 82.1408 100.7538 81.8873 98.0386M 82 91.5386C 81.6599 93.2389 81.6692 95.4011 81.8435 97.5386M 81.8435 97.5386C 83.229 97.0386 86 95.5386 86 93.5386M 81.8435 97.5386C 81.8571 97.7055 81.8717 97.8722 81.8873 98.0386M 81.8873 98.0386C 80.2582 96.5386 77.1 93.4386 77.5 93.0386M 105.5 73.0386C 107.8333 73.7052 113.3 74.6386 116.5 73.0386C 117.5 71.0386 111 67.5386 106.5 67.0386M 105.5 73.0386C 103.6667 71.5749 99.7 68.6258 98.5 68.5391M 106.5 67.0386C 108.3333 65.8719 111.9 62.6386 111.5 59.0386C 111.5 58.0386 106.5 57.5386 103 61.5386M 106.5 67.0386C 104.5 67.0386 100.3333 68.0389 98.5 68.5391M 103 61.5386C 103.5 58.2054 104 50.9391 102 48.5391C 99.5 48.5391 96.5 52.5391 96.5 58.0391M 103 61.5386C 102.7692 63.5386 99.9038 67.0389 98.5 68.5391M 96.5 58.0391C 95 56.5391 91.4 53.6391 89 54.0391C 87.8 54.8391 89.1667 59.3721 90 61.5386M 96.5 58.0391C 96.3292 60.0391 97.7622 65.8724 98.5 68.5391M 90 61.5386C 86.5 61.0387 79.4 60.5391 79 62.5391C 78.5 65.0391 85 68.5391 88.5 68.5391M 90 61.5386C 91.2 62.3382 96.1667 66.5387 98.5 68.5391M 88.5 68.5391C 86.6667 70.5391 83.3 74.9391 84.5 76.5391C 85.7 78.1391 90.3333 76.2057 92.5 75.0391M 88.5 68.5391C 92.1 68.1391 96.6667 68.3724 98.5 68.5391M 92.5 75.0391C 94.5 71.4391 97.3333 69.2057 98.5 68.5391M 48.5 142.5736C 48.0157 133.1216 43.2601 119.3234 44.8432 102.5386M 47.5 39.0391C 49.3333 40.3724 53.3 42.9391 54.5 42.5391C 55.7 42.1391 53.6667 37.0391 52.5 34.5391M 47.5 39.0391C 46.1667 42.8724 43.1 50.0391 41.5 48.0391C 39.9 46.0391 40.5 38.5391 41 35.0391M 47.5 39.0391C 48.5346 43.2716 49.8029 51.3898 49.9206 61.0391M 47.5 39.0391C 47.5 35.8391 45.8333 31.0391 45 29.0391M 52.5 34.5391C 55.8333 35.0391 62.8 35.7391 64 34.5391C 65.5 33.0391 58 28.5391 54.5 27.5391M 52.5 34.5391C 51.968 33.3391 47.2783 30.3724 45 29.0391M 54.5 27.5391C 56.3333 25.8724 59.8 21.9391 59 19.5391C 58.2 18.3391 52.6667 20.3724 50 21.5391M 54.5 27.5391C 53.3116 28.7391 47.6715 29.0391 45 29.0391M 50 21.5391C 50.5 18.0387 51.1 10.8379 49.5 10.0379C 48 9.5379 44 14.0379 43 20.0379M 50 21.5391C 49.8028 23.1391 46.5845 27.2057 45 29.0391M 43 20.0379C 41.5 18.205 38 14.6391 36 15.0391C 34 15.4391 35.8333 20.5391 37 23.0391M 43 20.0379C 43 21.2371 44.3333 26.5383 45 29.0391M 37 23.0391C 33.8333 22.7057 27.3 22.5391 26.5 24.5391C 25.5 27.0391 34 29.5391 36 30.0391M 37 23.0391C 38.6 23.0391 43 27.0391 45 29.0391M 36 30.0391C 34.3333 31.8724 31.1 36.1391 31.5 38.5391C 32.3 39.7391 38.1667 36.7057 41 35.0391M 36 30.0391C 38.4 28.8391 43 28.8724 45 29.0391M 41 35.0391C 42.1667 33.8724 44.6 31.0391 45 29.0391M 49.3877 73.5391C 49.0045 77.3358 48.3971 81.2061 47.5 85.0391C 47.0692 86.8797 46.6829 88.8346 46.337 90.8759M 49.3877 73.5391C 51.0918 69.2057 56.3 60.4391 63.5 60.0391C 72.5 59.5391 75.5 62.539 76.5 65.5391C 77.5 68.5391 75 77.0391 67.5 77.5391C 61.5 77.9391 52.9251 75.0391 49.3877 73.5391ZM 49.3877 73.5391C 51.1941 72.5178 54.1316 70.9488 57 69.6046M 49.3877 73.5391C 49.7688 69.7632 49.9279 66.0601 49.9295 62.5391M 64 67.0391C 62.819 67.1867 61.0014 67.8382 59 68.7022M 57 69.6046C 58.5 70.5828 62 72.5391 64 72.5391M 57 69.6046C 57.6757 69.288 58.3476 68.9838 59 68.7022M 59 68.7022C 59.8333 67.3145 61.6 64.4391 62 64.0391M 49.9206 61.0391C 47.7804 57.0391 41.8 49.0391 35 49.0391C 28.2 49.0391 24.5 54.7057 23.5 57.5391C 23 60.8505 24.1 67.6866 32.5 68.5391C 40.9 69.3915 47.6196 64.8943 49.9295 62.5391M 49.9206 61.0391C 49.9267 61.5351 49.9297 62.0352 49.9295 62.5391M 49.9295 62.5391C 48.309 61.7701 45.4215 60.5577 42.5 59.6691M 36.5 58.5391C 38.1932 58.5391 40.3557 59.0169 42.5 59.6691M 42.5 59.6691C 42.1667 58.1258 41 54.9391 39 54.5391M 42.5 59.6691C 42 60.9591 40.4 63.6391 38 64.0391M 46.337 90.8759C 44.8913 85.597 40.3 75.0391 33.5 75.0391C 25 75.0391 22 76.0396 20 82.5391C 18 89.0386 26.5 93.5386 29 93.5386C 31.5 93.5386 36.674 95.2128 46.337 90.8759ZM 46.337 90.8759C 44.5787 89.9136 41.3434 88.3055 38 86.9953M 46.337 90.8759C 45.7164 94.5386 45.226 98.4797 44.8432 102.5386M 31.5 85.0391C 33.4349 85.3616 35.7421 86.1105 38 86.9953M 38 86.9953C 38 85.1762 37.4 81.4382 35 81.0386M 38 86.9953C 37.1667 88.2889 35.1 90.8759 33.5 90.8759M 44.8432 102.5386C 47.0621 98.0386 53 89.0386 59 89.0386C 66.5 89.0386 70.5183 92.5386 72 97.5386C 73.4817 102.5386 67.2696 108.0391 61.6348 108.0391C 57.127 108.0391 48.5621 104.3721 44.8432 102.5386ZM 44.8432 102.5386C 46.6976 101.8951 49.6246 100.9179 52.5 100.034M 60.1858 98.0386C 58.8891 98.2086 56.6178 98.8059 54.1394 99.5391M 54.1394 99.5391C 54.4263 98.0392 55.3 94.8395 56.5 94.0391M 54.1394 99.5391C 53.6001 99.6986 53.051 99.8646 52.5 100.034M 52.5 100.034C 54.4572 101.3689 58.7344 104.0388 60.1858 104.0388"></path></g></g><g id="cp_5_g-5_1hi7rm51jtq2gw-stroke" fill="none" stroke-linecap="round" stroke-linejoin="round" stroke-miterlimit="4" stroke="#cb68f9" stroke-width="2"><g><path d="M 21 213.539063L 18 213.539063C 17.8333 216.372363 18.2 222.739063 21 225.539063L 75 225.539063C 78 223.039063 78 217.139063 78 213.539063L 75 213.539063M 21 213.539063L 75 213.539063M 21 213.539063L 17 185.789063M 13 158.039063L 11 158.039063L 10 151.039063L 86 151.039063L 85 158.039063L 83 158.039063M 13 158.039063L 83 158.039063M 13 158.039063L 16.3874 181.539063M 75 213.539063L 79 185.789063M 83 158.039063L 79.6126 181.539063M 17 185.789063L 79 185.789063M 17 185.789063L 16.3874 181.539063M 79 185.789063L 79.6126 181.539063M 79.6126 181.539063L 16.3874 181.539063"></path></g></g></g><g id="g-root-cp_4_g-4_147dqbx1jtq0w1-stroke" data-item-order="-456173" transform="translate(576, 198.9610595703125)"><g id="cp_4_g-4_147dqbx1jtq0w1-stroke" fill="none" stroke-linecap="round" stroke-linejoin="round" stroke-miterlimit="4" stroke="#f366bb" stroke-width="2"><g><path d="M 48.5 126.0736C 45.8384 126.1651 43.2786 126.4455 41.5 127.0384C 37 128.5384 32 130.0384 25 130.0384C 19.4 130.0384 15 133.0384 13.5 134.5384L 83.5 134.5384C 83 131.0384 75 129.5384 71.5 129.5384C 69.8148 129.5384 67.666 128.9588 65.5 128.302C 63.1674 127.5947 60.8148 126.7977 59 126.5384C 56.8834 126.236 52.5724 125.9337 48.5 126.0736ZM 48.5 126.0736C 48.0157 116.6217 48.5 108.0391 49.8432 102.5386M 52.5 39.0391C 54.3333 40.3724 58.3 42.9391 59.5 42.5391C 60.7 42.1391 58.6667 37.0391 57.5 34.5391M 52.5 39.0391C 51.1667 42.8724 48.1 50.0391 46.5 48.0391C 44.9 46.0391 45.5 38.5391 46 35.0391M 52.5 39.0391C 53.5346 43.2716 54.8029 51.3898 54.9206 61.0391M 52.5 39.0391C 52.5 35.8391 50.8333 31.0391 50 29.0391M 57.5 34.5391C 60.8333 35.0391 67.8 35.7391 69 34.5391C 70.5 33.0391 63 28.5391 59.5 27.5391M 57.5 34.5391C 56.968 33.3391 52.2783 30.3724 50 29.0391M 59.5 27.5391C 61.3333 25.8724 64.8 21.9391 64 19.5391C 63.2 18.3391 57.6667 20.3724 55 21.5391M 59.5 27.5391C 58.3116 28.7391 52.6715 29.0391 50 29.0391M 55 21.5391C 55.5 18.0387 56.1 10.8379 54.5 10.0379C 53 9.5379 49 14.0379 48 20.0379M 55 21.5391C 54.8028 23.1391 51.5845 27.2057 50 29.0391M 48 20.0379C 46.5 18.205 43 14.6391 41 15.0391C 39 15.4391 40.8333 20.5391 42 23.0391M 48 20.0379C 48 21.2371 49.3333 26.5383 50 29.0391M 42 23.0391C 38.8333 22.7057 32.3 22.5391 31.5 24.5391C 30.5 27.0391 39 29.5391 41 30.0391M 42 23.0391C 43.6 23.0391 48 27.0391 50 29.0391M 41 30.0391C 39.3333 31.8724 36.1 36.1391 36.5 38.5391C 37.3 39.7391 43.1667 36.7057 46 35.0391M 41 30.0391C 43.4 28.8391 48 28.8724 50 29.0391M 46 35.0391C 47.1667 33.8724 49.6 31.0391 50 29.0391M 54.3877 73.5391C 54.0045 77.3358 53.3971 81.2061 52.5 85.0391C 52.0692 86.8797 51.6829 88.8346 51.337 90.8759M 54.3877 73.5391C 56.0918 69.2057 61.3 60.4391 68.5 60.0391C 77.5 59.5391 80.5 62.539 81.5 65.5391C 82.5 68.5391 80 77.0391 72.5 77.5391C 66.5 77.9391 57.9251 75.0391 54.3877 73.5391ZM 54.3877 73.5391C 56.1941 72.5178 59.1316 70.9488 62 69.6046M 54.3877 73.5391C 54.7688 69.7632 54.9279 66.0601 54.9295 62.5391M 69 67.0391C 67.819 67.1867 66.0014 67.8382 64 68.7022M 62 69.6046C 63.5 70.5828 67 72.5391 69 72.5391M 62 69.6046C 62.6757 69.288 63.3476 68.9838 64 68.7022M 64 68.7022C 64.8333 67.3145 66.6 64.4391 67 64.0391M 54.9206 61.0391C 52.7804 57.0391 46.8 49.0391 40 49.0391C 33.2 49.0391 29.5 54.7057 28.5 57.5391C 28 60.8505 29.1 67.6866 37.5 68.5391C 45.9 69.3915 52.6196 64.8943 54.9295 62.5391M 54.9206 61.0391C 54.9267 61.5351 54.9297 62.0352 54.9295 62.5391M 54.9295 62.5391C 53.309 61.7701 50.4215 60.5577 47.5 59.6691M 41.5 58.5391C 43.1932 58.5391 45.3557 59.0169 47.5 59.6691M 47.5 59.6691C 47.1667 58.1258 46 54.9391 44 54.5391M 47.5 59.6691C 47 60.9591 45.4 63.6391 43 64.0391M 51.337 90.8759C 49.8913 85.597 45.3 75.0391 38.5 75.0391C 30 75.0391 27 76.0396 25 82.5391C 23 89.0386 31.5 93.5386 34 93.5386C 36.5 93.5386 41.674 95.2128 51.337 90.8759ZM 51.337 90.8759C 49.5787 89.9136 46.3434 88.3055 43 86.9953M 51.337 90.8759C 50.7164 94.5386 50.226 98.4797 49.8432 102.5386M 36.5 85.0391C 38.4349 85.3616 40.7421 86.1105 43 86.9953M 43 86.9953C 43 85.1762 42.4 81.4382 40 81.0386M 43 86.9953C 42.1667 88.2889 40.1 90.8759 38.5 90.8759M 49.8432 102.5386C 52.0621 98.0386 58 89.0386 64 89.0386C 71.5 89.0386 75.5183 92.5386 77 97.5386C 78.4817 102.5386 72.2696 108.0391 66.6348 108.0391C 62.127 108.0391 53.5621 104.3721 49.8432 102.5386ZM 49.8432 102.5386C 51.6976 101.8951 54.6246 100.9179 57.5 100.034M 65.1858 98.0386C 63.8891 98.2086 61.6178 98.8059 59.1394 99.5391M 59.1394 99.5391C 59.4263 98.0392 60.3 94.8395 61.5 94.0391M 59.1394 99.5391C 58.6001 99.6986 58.051 99.8646 57.5 100.034M 57.5 100.034C 59.4572 101.3689 63.7344 104.0388 65.1858 104.0388"></path></g></g><g id="cp_4_g-4_147dqbx1jtq0w1-stroke" fill="none" stroke-linecap="round" stroke-linejoin="round" stroke-miterlimit="4" stroke="#f366bb" stroke-width="2"><g><path d="M 21 197.039063L 18 197.039063C 17.8333 199.872363 18.2 206.239063 21 209.039063L 75 209.039063C 78 206.539063 78 200.639063 78 197.039063L 75 197.039063M 21 197.039063L 75 197.039063M 21 197.039063L 17 169.289063M 13 141.539063L 11 141.539063L 10 134.539063L 86 134.539063L 85 141.539063L 83 141.539063M 13 141.539063L 83 141.539063M 13 141.539063L 16.3874 165.039063M 75 197.039063L 79 169.289063M 83 141.539063L 79.6126 165.039063M 17 169.289063L 79 169.289063M 17 169.289063L 16.3874 165.039063M 79 169.289063L 79.6126 165.039063M 79.6126 165.039063L 16.3874 165.039063"></path></g></g></g><g id="g-root-cp_3_g-3_qvx7yl1jtq2gy-stroke" data-item-order="-456163" transform="translate(408, 246.6561279296875)"><g id="cp_3_g-3_qvx7yl1jtq2gy-stroke" fill="none" stroke-linecap="round" stroke-linejoin="round" stroke-miterlimit="4" stroke="#fb6762" stroke-width="2"><g><path d="M 49.499984 77.892878C 48.043284 77.840978 46.683984 77.840978 45.499984 77.840978C 41.499984 77.840978 43.999984 81.340978 30.999984 81.840978C 20.599984 82.240978 14.999984 85.340978 13.499984 86.840978L 83.999984 86.840978C 82.833284 85.340978 79.499984 82.240978 75.499984 81.840978C 70.499984 81.340978 65.499984 81.840978 60.499984 79.840978C 56.979984 78.432978 52.964484 78.016278 49.499984 77.892878ZM 49.499984 77.892878C 49.412884 76.407978 49.303084 74.384978 49.188284 72.049478M 48.499984 36.840978C 48.499984 37.507678 48.499984 41.040978 48.499984 49.840978C 48.499984 56.341978 48.863784 65.445178 49.188284 72.049478M 48.499984 36.840978C 51.166684 35.507678 57.299984 31.640978 60.499984 26.840978C 64.499984 20.840978 62.499984 11.840978 55.999984 10.340978C 49.499984 8.840978 44.212484 12.490878 42.999984 17.341678C 41.499984 23.342478 40.999984 32.341078 48.499984 36.840978ZM 48.499984 36.840978C 48.406484 35.251378 48.512284 32.392378 49.188284 29.340978M 51.999984 22.340978C 50.841784 24.078278 50.041584 26.086278 49.499984 28.075878M 49.188284 29.340978C 51.458884 28.674278 55.999984 27.040978 55.999984 25.840978M 49.188284 29.340978C 49.281084 28.921978 49.384684 28.499378 49.499984 28.075878M 49.499984 28.075878C 48.666684 26.997578 46.999984 24.340978 46.999984 22.340978M 49.188284 72.049478C 49.292184 69.646578 50.599984 63.640978 54.999984 58.840978C 59.399984 54.040978 61.833284 51.174278 62.499984 50.340978M 49.188284 72.049478C 48.458884 69.646578 45.899984 63.440978 41.499984 57.840978C 39.099984 54.640978 37.499984 52.930978 36.999984 52.476078M 62.499984 50.340978C 61.666684 48.007678 61.199984 42.041078 65.999984 36.840978C 70.799984 31.640978 76.999984 32.007578 79.499984 32.840978C 81.999984 34.507578 86.299984 39.140978 83.499984 44.340978C 79.999984 50.840978 75.499984 51.840978 71.499984 51.840978C 68.299984 51.840978 64.166684 50.840978 62.499984 50.340978ZM 62.499984 50.340978C 63.171684 49.266178 64.244084 47.758278 65.494584 46.340978M 71.499984 42.340978C 70.237184 42.340978 68.829084 43.171478 67.484484 44.340978M 65.494584 46.340978C 66.662984 46.674278 69.499984 47.140978 71.499984 46.340978M 65.494584 46.340978C 66.122384 45.629378 66.795084 44.940578 67.484484 44.340978M 67.484484 44.340978C 67.156284 43.007578 66.799984 39.940978 67.999984 38.340978M 36.999984 52.476078C 34.166684 51.930978 27.299984 50.840978 22.499984 50.840978C 16.499984 50.840978 12.499984 45.340978 11.999984 40.840978C 11.499984 36.340978 11.999984 31.340978 19.499984 28.840978C 26.999984 26.340978 33.499984 33.840978 35.999984 39.340978C 37.849284 43.409378 37.561084 49.008278 37.111984 51.840978M 36.999984 52.476078C 37.037684 52.284278 37.075284 52.071778 37.111984 51.840978M 37.111984 51.840978C 36.044584 50.181878 34.143484 47.571278 31.999984 45.288978M 25.999984 40.840978C 27.269584 41.221778 28.647384 42.149978 30.001884 43.340978M 31.999984 45.288978C 31.166684 45.604978 28.799984 46.047378 25.999984 45.288978M 31.999984 45.288978C 31.350684 44.597578 30.679184 43.936378 30.001884 43.340978M 30.001884 43.340978C 30.334584 41.674278 30.599984 38.041078 28.999984 36.840978"></path></g></g><g id="cp_3_g-3_qvx7yl1jtq2gy-stroke" fill="none" stroke-linecap="round" stroke-linejoin="round" stroke-miterlimit="4" stroke="#fb6762" stroke-width="2"><g><path d="M 18 149.343628C 17.8333 152.176928 18.2 158.543628 21 161.343628L 75 161.343628C 78 158.843628 78 152.943628 78 149.343628L 75 149.343628L 79 121.593628L 79.6126 117.343628L 83 93.843628L 85 93.843628L 86 86.843628L 10 86.843628L 11 93.843628L 13 93.843628L 16.3874 117.343628L 17 121.593628L 21 149.343628L 18 149.343628ZM 21 149.343628L 18 149.343628C 17.8333 152.176928 18.2 158.543628 21 161.343628L 75 161.343628C 78 158.843628 78 152.943628 78 149.343628L 75 149.343628M 21 149.343628L 75 149.343628M 21 149.343628L 17 121.593628M 13 93.843628L 11 93.843628L 10 86.843628L 86 86.843628L 85 93.843628L 83 93.843628M 13 93.843628L 83 93.843628M 13 93.843628L 16.3874 117.343628M 75 149.343628L 79 121.593628M 83 93.843628L 79.6126 117.343628M 17 121.593628L 79 121.593628M 17 121.593628L 16.3874 117.343628M 79 121.593628L 79.6126 117.343628M 79.6126 117.343628L 16.3874 117.343628"></path></g></g></g><g id="g-root-cp_2_g-2_i0a7pp1jtq39n-stroke" data-item-order="-456153" transform="translate(240, 278.3590087890625)"><g id="cp_2_g-2_i0a7pp1jtq39n-stroke" fill="none" stroke-linecap="round" stroke-linejoin="round" stroke-miterlimit="4" stroke="#f79438" stroke-width="2"><g><path d="M 52.5 46.2212C 48.573 46.2974 44.4154 46.8205 42.5 47.1398C 39.5 47.6398 41 50.6398 29 50.6398C 19.4 50.6398 14.6667 53.6398 13.5 55.1398L 83 54.6396C 81 53.3063 76 50.6398 72 50.6398C 67 50.6398 63 47.6398 58.5 46.6398C 56.8732 46.2782 54.7235 46.1781 52.5 46.2212ZM 52.5 46.2212C 52.5 43.8607 52.8 38.4396 54 35.6396M 54 35.6396C 55.5 32.1396 64.5 30.1396 66 23.1396C 67.5 16.1396 65 11.1396 60 10.1396C 55 9.1396 48.9617 13.6365 48.5 19.6396C 48 26.1406 49.5 31.6385 54 35.6396ZM 54 35.6396C 53.8149 33.9738 53.7429 31.0747 54.1949 28.1406M 56.5 21.6406C 55.7 22.7835 55.1258 24.1713 54.7215 25.6406M 54.1949 28.1406C 55.7966 27.6406 59 26.2406 59 24.6406M 54.1949 28.1406C 54.3243 27.3008 54.4966 26.4581 54.7215 25.6406M 54.7215 25.6406C 54.1477 24.9743 53 23.2414 53 21.6406"></path></g></g><g id="cp_2_g-2_i0a7pp1jtq39n-stroke" fill="none" stroke-linecap="round" stroke-linejoin="round" stroke-miterlimit="4" stroke="#f79438" stroke-width="2"><g><path d="M 21 117.640625L 18 117.640625C 17.8333 120.473925 18.2 126.840625 21 129.640625L 75 129.640625C 78 127.140625 78 121.240625 78 117.640625L 75 117.640625M 21 117.640625L 75 117.640625M 21 117.640625L 17 89.890625M 13 62.140625L 11 62.140625L 10 55.140625L 86 55.140625L 85 62.140625L 83 62.140625M 13 62.140625L 83 62.140625M 13 62.140625L 16.3874 85.640625M 75 117.640625L 79 89.890625M 83 62.140625L 79.6126 85.640625M 17 89.890625L 79 89.890625M 17 89.890625L 16.3874 85.640625M 79 89.890625L 79.6126 85.640625M 79.6126 85.640625L 16.3874 85.640625"></path></g></g></g><g id="g-root-cp_1_g-1_dl36od1jtq0w4-stroke" data-item-order="-456143" transform="translate(27, 214.5)"><g id="cp_1_g-1_dl36od1jtq0w4-stroke" fill="none" stroke-linecap="round" stroke-linejoin="round" stroke-miterlimit="4" stroke="#ffe711" stroke-width="2"><g><path d="M 97 104.6283C 96.223 104.5464 95.386 104.6457 94.5 105.0001C 90.5 106.6001 90.8333 114.9999 91.5 118.9998C 89.3333 117.4998 82.7 114.3998 73.5 113.9998C 64.3 113.5998 59 117.1665 57.5 118.9998L 130.5 118.9998C 130.3333 117.6665 128 114.7998 120 113.9998C 112 113.1999 107.6667 116.9999 106.5 118.9998C 105.7 115.7999 103.5 111 102.5 109.0001C 101.7215 107.4431 99.7309 104.9164 97 104.6283ZM 97 104.6283C 96.6667 106.7522 96.5 111.5999 98.5 113.9998M 95.125 78.9998C 97.6514 79.8185 98.5 81.8713 98.5 83.4998C 98.5 85.9998 97 86.9998 96.5 93.9998C 96.1 99.5998 91.6667 100.9998 89.5 100.9998C 83.9 100.1996 82.5 95.9997 82.5 93.9998C 82.5 89.4998 83.9 80.1998 89.5 78.9998C 91.9403 78.4769 93.7729 78.5616 95.125 78.9998ZM 95.125 78.9998C 93.5833 79.9999 90.4 83.7 90 90.5M 75 31C 71 32.5 70.5 37.5 73.5 40.5C 76.5 43.5 77.5 42.5 82.5 45.5C 84.8515 46.9109 86.5394 47.8794 88.5 48.7176M 95.125 71C 95.5833 72.1667 97.5 74.5 101.5 74.5C 104.5925 74.5 105.8918 71.5114 106.3222 69M 95.125 71C 94.25 71.3333 92 71.5 90 69.5C 87.5 67 86 65.0135 82.5 56.7567M 95.125 71C 94.9167 70.5 94.4 69 94 67C 93.8502 66.4942 93.7508 65.9923 93.6928 65.5M 82.5 56.7567C 81.751 56.6552 81.0753 56.569 80.5 56.5C 71 56 60.5 58 51 51C 41.5 44 17.5 39.3333 10 38.5L 10 10C 18 13 39.3 18.6 54.5 17C 73.5 15 77.5 12 83.5 16C 88.3 19.2 97.5 29 101.5 33.5C 103.1667 34.8333 106.5 39.1 106.5 45.5C 106.5 51.9 106.5 62.5 106.5 67C 106.5 67.5672 106.4485 68.263 106.3222 69M 82.5 56.7567C 84.7502 57.0617 87.6619 57.5049 90.5 58.0364M 81 30L 92 39C 93.5 40.1667 96.5 43.4 96.5 47C 96.5 48.6 96.5 50.4981 96.5 51.2472M 96.5 51.2472C 96.8227 51.3297 97.1558 51.4139 97.5 51.5C 105.5 53.5 106.5 55.5 106.5 57.5C 106.5 58.7396 105.5397 60.1712 103.5 60.6045M 96.5 51.2472C 92.8497 50.313 90.5289 49.5851 88.5 48.7176M 80 38.5L 85.5 43C 86.3333 43.8118 88.1 46.0918 88.5 48.7176M 95.125 59.017C 96.4105 59.3313 97.5681 59.6611 98.5 60C 99.0274 60.1918 99.5273 60.3422 100 60.4556M 95.125 59.017C 93.6965 58.6678 92.1101 58.3379 90.5 58.0364M 95.125 59.017C 94.4381 60.0533 93.3521 62.6095 93.6928 65.5M 90.5 58.0364C 90.9619 59.8576 92.247 63.9 93.6928 65.5M 100 60.4556C 99.6667 61.4704 99.2 64.2 100 67M 100 60.4556C 101.4015 60.792 102.5643 60.8033 103.5 60.6045M 106.3222 69C 105.0482 67.2363 102.7 63.0881 103.5 60.6045"></path></g></g><g id="cp_1_g-1_dl36od1jtq0w4-stroke" fill="none" stroke-linecap="round" stroke-linejoin="round" stroke-miterlimit="4" stroke="#ffe711" stroke-width="2"><g><path d="M 66 181.5L 63 181.5C 62.8333 184.3333 63.2 190.7 66 193.5L 120 193.5C 123 191 123 185.1 123 181.5L 120 181.5M 66 181.5L 120 181.5M 66 181.5L 62 153.75M 58 126L 56 126L 55 119L 131 119L 130 126L 128 126M 58 126L 128 126M 58 126L 61.3874 149.5M 120 181.5L 124 153.75M 128 126L 124.6126 149.5M 62 153.75L 124 153.75M 62 153.75L 61.3874 149.5M 124 153.75L 124.6126 149.5M 124.6126 149.5L 61.3874 149.5"></path></g></g></g><g id="g-root-cp_0_g-0_9mob11jtq2h1-stroke" data-item-order="-456133" transform="translate(258.0000305175781, 124)"><g id="cp_0_g-0_9mob11jtq2h1-stroke" fill="none" stroke-linecap="round" stroke-linejoin="round" stroke-miterlimit="4" stroke="#f4f4f4" stroke-width="2"><g><path d="M 10.726369 168.442C 8.689969 165.7266 11.392969 159.1086 13.226369 155.942C 17.226369 160.742 17.726269 166.442 16.226269 168.442C 15.226269 169.942 12.226269 170.442 10.726369 168.442ZM 10.726369 195.442C 8.689969 192.7266 11.392969 186.1086 13.226369 182.942C 17.226369 187.742 17.726269 193.442 16.226269 195.442C 15.226269 196.942 12.226269 197.442 10.726369 195.442ZM 19.226269 146.942C 17.189869 144.2266 19.892969 137.6086 21.726269 134.442C 25.726269 139.242 26.226269 144.942 24.726269 146.942C 23.726269 148.442 20.726169 148.942 19.226269 146.942ZM 146.226469 64.442L 123.726469 126.442L 117.726469 123.9424L 20.726469 125.9424L 22.726469 119.9424L 85.226469 108.9424L 59.226469 97.0979L 55.226469 95.2757L 47.726469 91.8591L 40.226469 88.4424C 35.726469 85.9424 35.726469 76.4424 42.726469 71.9424C 49.726469 67.4424 51.226469 62.942 56.226469 51.942C 60.226469 43.142 64.559769 42.6086 66.226469 43.442L 70.226469 44.492C 65.893169 39.1421 60.726469 22.7002 74.226469 13.4424C 78.893169 10.2757 90.826469 6.4424 101.226469 16.4424C 114.226469 28.9424 113.726469 38.4434 119.726469 46.4424C 125.726469 54.4414 127.226469 58.4045 134.726469 61.4232L 146.226469 64.442ZM 66.226469 43.442L 47.726469 91.8591M 85.226469 108.9424L 117.726469 123.9424M 59.226469 97.0979L 77.656569 46.4424M 77.656569 46.4424L 74.226469 45.542M 77.656569 46.4424L 134.726469 61.4232M 74.226469 45.542L 55.226469 95.2757M 74.226469 45.542L 70.226469 44.492M 84.226469 57.9424L 97.726469 60.9424"></path></g></g></g><g id="g-root-cp_0_g-0_1_9mob11jtq2h2-stroke" data-item-order="-456127" transform="translate(142, 278)"><g id="cp_0_g-0_1_9mob11jtq2h2-stroke" fill="none" stroke-linecap="round" stroke-linejoin="round" stroke-miterlimit="4" stroke="#b7b7b7" stroke-width="2" stroke-dasharray="5.0, 7.0"><g><path d="M 10 43.3351C 12.7138 36.7835 16.6914 30.8306 21.7057 25.8162C 26.7201 20.8019 32.673 16.8242 39.2246 14.1105C 45.7762 11.3967 52.7981 10 59.8895 10C 66.9809 10 74.0028 11.3968 80.5544 14.1105C 87.106 16.8243 93.0589 20.8019 98.0733 25.8163C 103.0876 30.8306 107.0653 36.7836 109.779 43.3351M 178 43.3351C 180.7138 36.7835 184.6914 30.8306 189.7057 25.8162C 194.7201 20.8019 200.673 16.8242 207.2246 14.1105C 213.7762 11.3967 220.7981 10 227.8895 10C 234.9809 10 242.0028 11.3968 248.5544 14.1105C 255.106 16.8243 261.0589 20.8019 266.0733 25.8163C 271.0876 30.8306 275.0653 36.7836 277.779 43.3351M 346 43.3351C 348.7138 36.7835 352.6914 30.8306 357.7057 25.8162C 362.7201 20.8019 368.673 16.8242 375.2246 14.1105C 381.7762 11.3967 388.7981 10 395.8895 10C 402.9809 10 410.0028 11.3968 416.5544 14.1105C 423.106 16.8243 429.0589 20.8019 434.0733 25.8163C 439.0876 30.8306 443.0653 36.7836 445.779 43.3351M 514 43.3351C 516.7138 36.7835 520.6914 30.8306 525.7057 25.8162C 530.7201 20.8019 536.673 16.8242 543.2246 14.1105C 549.7762 11.3967 556.7981 10 563.8895 10C 570.9809 10 578.0028 11.3968 584.5544 14.1105C 591.106 16.8243 597.0589 20.8019 602.0733 25.8163C 607.0876 30.8306 611.0653 36.7836 613.779 43.3351"></path></g></g></g><g id="g-root-tx_comefunz_1lza7wt1jtq3uv-stroke" data-item-order="0" transform="translate(200, 38)"></g><g id="g-root-tx_ignoranz_18egl8t1jtrgug-stroke" data-item-order="0" transform="translate(62, 446)"></g><g id="g-root-tx_acquisiz_hs61l91jtrgui-stroke" data-item-order="0" transform="translate(212, 446)"></g><g id="g-root-tx_apprendi_1ii6l1jtrg1w-stroke" data-item-order="0" transform="translate(368, 446)"></g><g id="g-root-tx_previsio_1cvj1jh1jtri8e-stroke" data-item-order="0" transform="translate(566, 446)"></g><g id="g-root-tx_generazi_140iidp1jtrgn4-stroke" data-item-order="0" transform="translate(722, 446)"></g><g id="g-root-tx_modellos_v302vh1jtrifd-stroke" data-item-order="0" transform="translate(44, 482)"></g><g id="g-root-tx_prevedel_18gc0i51jtrfuv-stroke" data-item-order="0" transform="translate(548, 482)"></g><g id="g-root-tx_producet_v4vi4t1jtrhft-stroke" data-item-order="0" transform="translate(728, 482)"></g><g id="g-root-tx_alimenta_4gpj7x1jtriff-stroke" data-item-order="0" transform="translate(212, 506)"></g><g id="g-root-tx_rilevasc_1lr61sd1jtrhfp-stroke" data-item-order="0" transform="translate(386, 506)"></g></g></g></svg>