<?xml version="1.0" encoding="utf-8" standalone="yes"?>
<!DOCTYPE svg PUBLIC "-//W3C//DTD SVG 1.1//EN" "http://www.w3.org/Graphics/SVG/1.1/DTD/svg11.dtd">
<svg width="624" height="600" viewBox="0 0 624 600" style="fill:none;stroke:none;fill-rule:evenodd;clip-rule:evenodd;stroke-linecap:round;stroke-linejoin:round;stroke-miterlimit:1.5;" version="1.1" xmlns="http://www.w3.org/2000/svg" xmlns:xlink="http://www.w3.org/1999/xlink"><style class="text-font-style fontImports" data-font-family="Roboto">@import url(https://fonts.googleapis.com/css2?family=Roboto:wght@400;700&amp;amp;display=block);</style><rect id="" x="0" y="0" width="624" height="600" style="fill: #2c2c2c;"></rect><g id="items" style="isolation: isolate"><g id="blend" style="mix-blend-mode: normal"><g id="g-root-tf_143lx311jtoo3p-fill" data-item-order="-561600"><g id="tf_143lx311jtoo3p-fill-merged" stroke="none" fill="#2c2c2c"><g><path d="M0 0 H624 V600 H0 V0"></path></g></g></g><g id="g-root-cp_4_g-4_18efmil1jtx1q9-fill" data-item-order="-290293" transform="translate(133.95700073242188, 399.75)"></g><g id="g-root-cp_3_g-3_zism9p1jtx2iy-fill" data-item-order="-290289" transform="translate(255.05599975585938, 413)"></g><g id="g-root-cp_right-line_g-right-line_v2z4591jtx3b7-fill" data-item-order="-290285" transform="translate(350, 363)"></g><g id="g-root-cp_left-line_g-left-line_m7c3wd1jtx43w-fill" data-item-order="-290281" transform="translate(26, 363)"></g><g id="g-root-tx_bilancia_hs52v11jtx1qd-fill" data-item-order="0" transform="translate(32, 38)"><g id="tx_bilancia_hs52v11jtx1qd-fill-merged" stroke="none" fill="#f4f4f4"><g><text style="font: bold 25px Roboto, sans-serif; white-space: pre;" font-weight="bold" font-size="25px" font-family="Roboto, sans-serif"><tspan x="15.23" y="40" dominant-baseline="ideographic">Bilanciare Prevedibilità e Creatività nei Modelli </tspan><tspan x="218.58" y="70" dominant-baseline="ideographic">Linguistici</tspan></text></g></g></g><g id="g-root-ic_draw_znsi4d1jtnaj3-fill" data-item-order="0" transform="translate(356, 177)"></g><g id="g-root-tx_creativi_qqwjp91jtn9xf-fill" data-item-order="0" transform="translate(416, 177)"><g id="tx_creativi_qqwjp91jtn9xf-fill-merged" stroke="none" fill="#f4f4f4"><g><text style="font: 20px Roboto, sans-serif; white-space: pre;" font-size="20px" font-family="Roboto, sans-serif"><tspan x="12" y="33.84" dominant-baseline="ideographic">Creatività e </tspan><tspan x="12" y="57.85" dominant-baseline="ideographic">Rischio</tspan></text></g></g></g><g id="g-root-ic_sun_1um5m7x1jtx3wv-fill" data-item-order="0" transform="translate(32, 201)"></g><g id="g-root-tx_prevedib_4gokhp1jtx3ba-fill" data-item-order="0" transform="translate(92, 201)"><g id="tx_prevedib_4gokhp1jtx3ba-fill-merged" stroke="none" fill="#f4f4f4"><g><text style="font: 20px Roboto, sans-serif; white-space: pre;" font-size="20px" font-family="Roboto, sans-serif"><tspan x="12" y="33.84" dominant-baseline="ideographic">Prevedibilità e </tspan><tspan x="12" y="57.85" dominant-baseline="ideographic">Coerenza</tspan></text></g></g></g><g id="g-root-tx_utileper_1heg1j11jtq3np-fill" data-item-order="0" transform="translate(416, 261)"><g id="tx_utileper_1heg1j11jtq3np-fill-merged" stroke="none" fill="#f4f4f4"><g><text style="font: 20px Roboto, sans-serif; white-space: pre;" font-size="20px" font-family="Roboto, sans-serif"><tspan x="12" y="33.84" dominant-baseline="ideographic">Utile per la </tspan><tspan x="12" y="57.85" dominant-baseline="ideographic">Scrittura </tspan><tspan x="12" y="81.85" dominant-baseline="ideographic">Creativa</tspan></text></g></g></g><g id="g-root-ic_2_1448e651ju5ji8-fill" data-item-order="0" transform="translate(32, 285)"></g><g id="g-root-tx_utileper_hvvxdp1ju5jpo-fill" data-item-order="0" transform="translate(92, 285)"><g id="tx_utileper_hvvxdp1ju5jpo-fill-merged" stroke="none" fill="#f4f4f4"><g><text style="font: 20px Roboto, sans-serif; white-space: pre;" font-size="20px" font-family="Roboto, sans-serif"><tspan x="12" y="33.84" dominant-baseline="ideographic">Utile per </tspan><tspan x="12" y="57.85" dominant-baseline="ideographic">Riassunti</tspan></text></g></g></g><g id="g-root-ic_quil_91hygt1jtq2v5-fill" data-item-order="0" transform="translate(356, 273)"></g><g id="g-root-tx_temperat_dbp9z11jtlts3-fill" data-item-order="0" transform="translate(50, 458)"><g id="tx_temperat_dbp9z11jtlts3-fill-merged" stroke="none" fill="#f4f4f4"><g><text style="font: 20px Roboto, sans-serif; white-space: pre;" font-size="20px" font-family="Roboto, sans-serif"><tspan x="13.56" y="33.85" dominant-baseline="ideographic">Temperatura Bassa</tspan></text></g></g></g><g id="g-root-tx_temperat_zjf9od1jtlvyn-fill" data-item-order="0" transform="translate(380, 458)"><g id="tx_temperat_zjf9od1jtlvyn-fill-merged" stroke="none" fill="#f4f4f4"><g><text style="font: 20px Roboto, sans-serif; white-space: pre;" font-size="20px" font-family="Roboto, sans-serif"><tspan x="17.33" y="33.85" dominant-baseline="ideographic">Temperatura Alta</tspan></text></g></g></g><g id="g-root-tf_143lx311jtoo3p-stroke" data-item-order="-561600"></g><g id="g-root-cp_4_g-4_18efmil1jtx1q9-stroke" data-item-order="-290293" transform="translate(133.95700073242188, 399.75)"><g id="cp_4_g-4_18efmil1jtx1q9-stroke" fill="none" stroke-linecap="round" stroke-linejoin="round" stroke-miterlimit="4" stroke="#f4f4f4" stroke-width="2"><g><path d="M 346.042969 39.249565C 346.042969 42.563265 343.356669 45.249565 340.042969 45.249565C 336.729269 45.249565 334.042969 42.563265 334.042969 39.249565C 334.042969 35.935865 336.729269 33.249565 340.042969 33.249565C 343.356669 33.249565 346.042969 35.935865 346.042969 39.249565ZM 22.0432 39.249565C 22.0432 42.563265 19.3473 45.249565 16.0216 45.249565C 12.696 45.249565 10 42.563265 10 39.249565C 10 35.935865 12.696 33.249565 16.0216 33.249565C 19.3473 33.249565 22.0432 35.935865 22.0432 39.249565ZM 340.042969 33.249553L 340.042969 10.000053M 16.042969 10.249565L 16.042969 33.249565M 334.057869 39.274956L 195.042969 39.274956M 161.042969 39.275056L 22.042969 39.274956"></path></g></g></g><g id="g-root-cp_3_g-3_zism9p1jtx2iy-stroke" data-item-order="-290289" transform="translate(255.05599975585938, 413)"><g id="cp_3_g-3_zism9p1jtx2iy-stroke" fill="none" stroke-linecap="round" stroke-linejoin="round" stroke-miterlimit="4" stroke="#f4f4f4" stroke-width="2"><g><path d="M 56.9441 10C 49.4718 10 43.1958 15.1224 41.4361 22.0473L 10.1339 124.1204C 9.5424 126.049 10.9848 128 13.002 128L 100.8862 128C 102.9035 128 104.3458 126.049 103.7544 124.1204L 72.454 22.0543C 70.6968 15.1259 64.4191 10 56.9441 10ZM 56.9443 33C 60.8103 33 63.9443 29.866 63.9443 26C 63.9443 22.134 60.8103 19 56.9443 19C 53.0783 19 49.9443 22.134 49.9443 26C 49.9443 29.866 53.0783 33 56.9443 33Z"></path></g></g></g><g id="g-root-cp_right-line_g-right-line_v2z4591jtx3b7-stroke" data-item-order="-290285" transform="translate(350, 363)"><g id="cp_right-line_g-right-line_v2z4591jtx3b7-stroke" fill="none" stroke-linecap="round" stroke-linejoin="round" stroke-miterlimit="4" stroke="#f79438" stroke-width="2"><g><path d="M 11.0812 15.7294C 10.3384 14.9043 10 13.8259 10 12.7157C 10 11.2158 11.2158 10 12.7157 10L 235.2843 10C 236.7842 10 238 11.2158 238 12.7157C 238 13.8259 237.6617 14.9043 236.9188 15.7294C 231.5512 21.6916 204.7174 46 124 46C 43.2826 46 16.4488 21.6916 11.0812 15.7294Z"></path></g></g></g><g id="g-root-cp_left-line_g-left-line_m7c3wd1jtx43w-stroke" data-item-order="-290281" transform="translate(26, 363)"><g id="cp_left-line_g-left-line_m7c3wd1jtx43w-stroke" fill="none" stroke-linecap="round" stroke-linejoin="round" stroke-miterlimit="4" stroke="#1ac3fb" stroke-width="2"><g><path d="M 11.0812 15.7294C 10.3384 14.9043 10 13.8259 10 12.7157C 10 11.2158 11.2158 10 12.7157 10L 235.2843 10C 236.7842 10 238 11.2158 238 12.7157C 238 13.8259 237.6617 14.9043 236.9188 15.7294C 231.5512 21.6916 204.7174 46 124 46C 43.2826 46 16.4488 21.6916 11.0812 15.7294Z"></path></g></g></g><g id="g-root-tx_bilancia_hs52v11jtx1qd-stroke" data-item-order="0" transform="translate(32, 38)"></g><g id="g-root-ic_draw_znsi4d1jtnaj3-stroke" data-item-order="0" transform="translate(356, 177)"><g id="ic_draw_znsi4d1jtnaj3-stroke" fill="none" stroke-linecap="round" stroke-linejoin="round" stroke-miterlimit="4" stroke="#f79438" stroke-width="2"><g><path d="M 43.380001 52.34C 45.728004 53.1922 48.227676 53.546375 50.720001 53.380001C 52.720001 53.380001 57 42.900002 57 40.799999C 57 38.700001 54.900002 34.52 51.759998 34.52C 48.619999 34.52 43.380001 37.66 43.380001 37.66M 20.68 29.799999C 14.219999 32.580002 10.92 36.959999 11 42C 11.1 47.720001 16 53.040001 25.700001 53.060001M 46.560001 36C 44.071365 34.607094 41.141472 34.227425 38.379997 34.939999C 33.34 35.779999 31.379999 40.940002 28.379999 42.939999C 25.380001 44.939999 20.380001 45.939999 18.380001 41.940002C 16.380001 37.940002 22.6 33.799999 22.6 33.799999M 30 48C 30 48 25 56.360001 19.4 55.360001C 26.639999 60.139999 33.639999 53.360001 33.639999 53.360001C 33.578529 51.015476 32.156631 48.921692 30 48ZM 36.879997 42C 37.156143 42 37.379997 42.223858 37.379997 42.5M 36.379997 42.439999C 36.379997 42.163857 36.603859 41.940002 36.879997 41.940002M 36.879997 42.939999C 36.603859 42.939999 36.379997 42.716141 36.379997 42.439999M 37.379997 42.439999C 37.379997 42.716141 37.156143 42.939999 36.879997 42.939999M 18.42 25.119999L 24.42 37.34C 24.697124 38.181915 25.440819 38.784119 26.321959 38.880104C 27.2031 38.976089 28.05901 38.548134 28.510908 37.785629C 28.962805 37.023125 28.927259 36.066849 28.42 35.34L 22.779999 23.74M 23.6 22.639999C 25.279999 20 23.08 15.02 19.299999 13.7C 17.48819 13.058041 15.792756 12.12589 14.28 10.94C 13.439516 12.776661 12.97052 14.761395 12.9 16.779999C 12.9 19.939999 14 25.18 18.5 25.1C 20.547024 25.426243 22.581047 24.445126 23.6 22.639999ZM 13.16 19.619999C 14.32 19.779999 19.619999 20.26 22.139999 15.62M 34 30L 34 14C 34 13.447716 34.447716 13 35 13L 54 13C 54.552284 13 55 13.447716 55 14L 55 30M 38 28L 41.48 22.779999C 41.859978 22.335667 42.415352 22.079845 43 22.079845C 43.584648 22.079845 44.140022 22.335667 44.52 22.779999L 48 28M 48.880001 18C 49.156143 18 49.380001 18.223858 49.380001 18.5M 48.380001 18.439999C 48.410511 18.187517 48.625687 17.998163 48.880001 18M 48.880001 18.939999C 48.603859 18.939999 48.380001 18.716143 48.380001 18.439999M 49.380001 18.439999C 49.380001 18.716143 49.156143 18.939999 48.880001 18.939999"></path></g></g></g><g id="g-root-tx_creativi_qqwjp91jtn9xf-stroke" data-item-order="0" transform="translate(416, 177)"></g><g id="g-root-ic_sun_1um5m7x1jtx3wv-stroke" data-item-order="0" transform="translate(32, 201)"><g id="ic_sun_1um5m7x1jtx3wv-stroke" fill="none" stroke-linecap="round" stroke-linejoin="round" stroke-miterlimit="4" stroke="#1ac3fb" stroke-width="2"><g><path d="M 11.91626 42.645599C 12.43158 42.645599 12.94062 42.7122 13.40734 42.840801C 13.87406 42.9692 14.287041 43.156601 14.617081 43.3894L 18.007179 45.783199C 18.337219 46.015999 18.750221 46.2034 19.21694 46.332001C 19.68364 46.4604 20.19268 46.527 20.708 46.527C 21.223339 46.527 21.73238 46.4604 22.199081 46.332001C 22.6658 46.2034 23.0788 46.015999 23.40884 45.783199L 26.798941 43.3894C 27.128981 43.156601 27.54196 42.9692 28.00868 42.840801C 28.475401 42.7122 28.984421 42.645599 29.49976 42.645599C 30.014999 42.645599 30.5242 42.7122 30.990801 42.840801C 31.4576 42.9692 31.8706 43.156601 32.2006 43.3894L 35.590599 45.783199C 35.920799 46.015999 36.333801 46.2034 36.8004 46.332001C 37.2672 46.4604 37.776199 46.527 38.291599 46.527C 38.806801 46.527 39.3158 46.4604 39.7826 46.332001C 40.249397 46.2034 40.662201 46.015999 40.992401 45.783199L 44.382401 43.3894C 44.712399 43.156601 45.125401 42.9692 45.592201 42.840801C 46.0588 42.7122 46.568001 42.645599 47.083199 42.645599C 47.598598 42.645599 48.107601 42.7122 48.574402 42.840801C 49.041 42.9692 49.453999 43.156601 49.784 43.3894L 53.174198 45.783199C 53.5042 46.015999 53.917198 46.2034 54.383999 46.332001C 54.850601 46.4604 55.3596 46.527 55.875 46.527M 11.91626 50.302601C 12.43158 50.302601 12.94062 50.369202 13.40734 50.497799C 13.87406 50.6264 14.287041 50.813599 14.617081 51.0466L 18.007179 53.440399C 18.337219 53.673199 18.750221 53.860401 19.21694 53.988998C 19.68364 54.117599 20.19268 54.1842 20.708 54.1842C 21.223339 54.1842 21.73238 54.117599 22.199081 53.988998C 22.6658 53.860401 23.0788 53.673199 23.40884 53.440399L 26.798941 51.0466C 27.128981 50.813599 27.54196 50.6264 28.00868 50.497799C 28.475401 50.369202 28.984421 50.302601 29.49976 50.302601C 30.014999 50.302601 30.5242 50.369202 30.990801 50.497799C 31.4576 50.6264 31.8706 50.813599 32.2006 51.0466L 35.590599 53.440399C 35.920799 53.673199 36.333801 53.860401 36.8004 53.988998C 37.2672 54.117599 37.776199 54.1842 38.291599 54.1842C 38.806801 54.1842 39.3158 54.117599 39.7826 53.988998C 40.249397 53.860401 40.662201 53.673199 40.992401 53.440399L 44.382401 51.0466C 44.712399 50.813599 45.125401 50.6264 45.592201 50.497799C 46.0588 50.369202 46.568001 50.302601 47.083199 50.302601C 47.598598 50.302601 48.107601 50.369202 48.574402 50.497799C 49.041 50.6264 49.453999 50.813599 49.784 51.0466L 53.174198 53.440399C 53.5042 53.673199 53.917198 53.860401 54.383999 53.988998C 54.850601 54.117599 55.3596 54.1842 55.875 54.1842M 10 10M 26.519819 11.836608L 26.519819 14.17914M 10 10M 19.565479 13.82354L 21.841881 16.099939M 17.578541 20.77784L 19.764141 20.77784M 20.686081 24.39064C 20.082481 23.359421 19.764259 22.1861 19.764141 20.99122C 19.764221 19.49086 20.2596 18.03248 21.173401 16.84248C 22.0872 15.65248 23.368301 14.79744 24.817799 14.4101C 26.2673 14.022739 27.80414 14.124741 29.189739 14.70026C 29.92186 15.00434 30.5902 15.431641 31.167999 15.95886M 49.970402 37.025398C 50.315201 35.901398 50.292 34.696602 49.903999 33.5868C 49.515999 32.476997 48.7836 31.52 47.813599 30.855801C 48.100399 30.190201 48.2066 29.46052 48.121201 28.7407C 48.035801 28.02088 47.761799 27.336361 47.327 26.75634C 46.8922 26.17634 46.312199 25.72138 45.645199 25.43746C 44.978199 25.15354 44.248199 25.05072 43.528599 25.13942C 42.912201 23.55196 41.777 22.219601 40.307602 21.358799C 38.8382 20.498001 37.121002 20.15934 35.434799 20.397839C 33.7486 20.63632 32.1926 21.437981 31.0196 22.67252C 29.846661 23.90708 29.125561 25.50198 28.97352 27.198139C 27.231039 27.388121 25.62668 28.23572 24.48772 29.568041C 23.348759 30.9004 22.761 32.617001 22.844341 34.367798C 22.88862 35.298203 23.1206 36.200798 23.517361 37.025398"></path></g></g></g><g id="g-root-tx_prevedib_4gokhp1jtx3ba-stroke" data-item-order="0" transform="translate(92, 201)"></g><g id="g-root-tx_utileper_1heg1j11jtq3np-stroke" data-item-order="0" transform="translate(416, 261)"></g><g id="g-root-ic_2_1448e651ju5ji8-stroke" data-item-order="0" transform="translate(32, 285)"><g id="ic_2_1448e651ju5ji8-stroke" fill="none" stroke-linecap="round" stroke-linejoin="round" stroke-miterlimit="4" stroke="#1ac3fb" stroke-width="2"><g><path d="M 56.5 21.70002L 56.5 52.099998C 56.5 54.5 54.5 56.5 52.099998 56.5M 52.099998 56.5C 49.700001 56.5 47.700001 54.5 47.700001 52.099998L 47.700001 14.5C 47.700001 12.9 46.299999 11.5 44.700001 11.5L 14.5 11.5C 12.9 11.5 11.5 12.9 11.5 14.5L 11.5 52.099998C 11.5 54.5 13.50002 56.5 15.900021 56.5L 52.099998 56.5ZM 20.1 39.700001L 39.099998 39.700001M 20.1 47.700001L 32.099998 47.700001M 10 10M 38.5 21.70002L 29.5 29.70002L 25.5 26.1L 20.5 30.5M 38.5 27.1L 38.5 21.70002L 32.5 21.70002"></path></g></g></g><g id="g-root-tx_utileper_hvvxdp1ju5jpo-stroke" data-item-order="0" transform="translate(92, 285)"></g><g id="g-root-ic_quil_91hygt1jtq2v5-stroke" data-item-order="0" transform="translate(356, 273)"><g id="ic_quil_91hygt1jtq2v5-stroke" fill="none" stroke-linecap="round" stroke-linejoin="round" stroke-miterlimit="4" stroke="#f79438" stroke-width="2"><g><path d="M 27.18 51L 13.18 51C 12.07543 51 11.18 50.104568 11.18 49L 11.18 17C 11.18 15.895431 12.07543 15 13.18 15L 41.18 15C 42.284569 15 43.18 15.895431 43.18 17L 43.18 29M 19.18 19L 19.18 11M 27.18 19L 27.18 11M 35.18 19L 35.18 11M 31.18 57L 45.998001 42.181999M 42.18 37.799999C 42.179855 37.412094 41.955391 37.059265 41.604095 36.894756C 41.2528 36.730247 40.838058 36.783737 40.540001 37.031998C 37.540001 39.526001 32.512001 46.147999 37.216 50.848C 39.251999 52.886002 43.801998 52.566002 49.285999 47.084C 53.486 42.874001 55.886002 35.646 56.782001 32.514C 56.873272 32.180706 56.785995 31.823908 56.551186 31.570377C 56.316372 31.316845 55.967304 31.202511 55.627998 31.268C 52.626179 31.844418 49.692883 32.733253 46.875999 33.919998C 46.875999 33.919998 45.498001 40 42.18 40Z"></path></g></g></g><g id="g-root-tx_temperat_dbp9z11jtlts3-stroke" data-item-order="0" transform="translate(50, 458)"></g><g id="g-root-tx_temperat_zjf9od1jtlvyn-stroke" data-item-order="0" transform="translate(380, 458)"></g></g></g></svg>