<?xml version="1.0" encoding="utf-8" standalone="yes"?>
<!DOCTYPE svg PUBLIC "-//W3C//DTD SVG 1.1//EN" "http://www.w3.org/Graphics/SVG/1.1/DTD/svg11.dtd">
<svg width="714" height="384" viewBox="0 0 714 384" style="fill:none;stroke:none;fill-rule:evenodd;clip-rule:evenodd;stroke-linecap:round;stroke-linejoin:round;stroke-miterlimit:1.5;" version="1.1" xmlns="http://www.w3.org/2000/svg" xmlns:xlink="http://www.w3.org/1999/xlink"><style class="text-font-style fontImports" data-font-family="Roboto">@import url(https://fonts.googleapis.com/css2?family=Roboto:wght@400;700&amp;amp;display=block);</style><rect id="" x="0" y="0" width="714" height="384" style="fill: #2c2c2c;"></rect><g id="items" style="isolation: isolate"><g id="blend" style="mix-blend-mode: normal"><g id="g-root-tf_5vttp1ipqadq-fill" data-item-order="-411264"><g id="tf_5vttp1ipqadq-fill-merged" stroke="none" fill="#2c2c2c"><g><path d="M0 0 H714 V384 H0 V0"></path></g></g></g><g id="g-root-sy_3_Vector_1lsezzx1ipt4hy-fill" data-item-order="-76854" transform="translate(158, 218)"><g id="sy_3_Vector_1lsezzx1ipt4hy-fill-merged" stroke="none" fill="#344e57"><g><path d="M107.735 58.892L121.7 46L107.735 33.107 V40.284 H81.548C78.81 23.118 63.937 10 46 10C26.118 10 10 26.118 10 46C10 65.882 26.118 82 46 82C63.912 82 78.769 68.918 81.537 51.787 H107.735 V58.892"></path></g></g></g><g id="g-root-sy_2_Vector_18hkypp1ipt2x3-fill" data-item-order="-76850" transform="translate(428.1209716796875, 116)"><g id="sy_2_Vector_18hkypp1ipt2x3-fill-merged" stroke="none" fill="#4b533a"><g><path d="M28.926 94.115L10 92.435L13.168 73.69L17.554 79.375L38.171 63.451L38.311 63.336C36.237 59.562 34.811 55.349 34.199 50.825C31.537 31.122 45.351 12.991 65.054 10.328C84.757 7.666 102.888 21.48 105.551 41.183C108.213 60.886 94.399 79.017 74.696 81.68C63.604 83.179 53.01 79.456 45.394 72.4L45.209 72.557L24.584 88.487L28.926 94.115"></path></g></g></g><g id="g-root-sy_1_Vector_141rgl91ipt3pc-fill" data-item-order="-76846" transform="translate(188.0001220703125, 115.9990234375)"><g id="sy_1_Vector_141rgl91ipt3pc-fill-merged" stroke="none" fill="#3b5649"><g><path d="M86.975 94.102L105.903 92.444L102.756 73.695L98.364 79.375L77.738 63.405L77.595 63.288C79.654 59.526 81.071 55.331 81.679 50.828C84.343 31.125 70.53 12.993 50.828 10.329C31.125 7.665 12.993 21.478 10.329 41.181C7.665 60.884 21.478 79.016 41.18 81.68C52.289 83.182 62.898 79.446 70.517 72.37L70.696 72.509L91.324 88.479L86.975 94.102"></path></g></g></g><g id="g-root-cr_0_cr-big_v64gcd1ipt4i1-fill" data-item-order="-76842" transform="translate(284, 182)"><g id="cr_0_cr-big_v64gcd1ipt4i1-fill-merged" stroke="none" fill="#545454"><g><path d="M10 82C10 121.765 42.236 154 82 154C121.765 154 154 121.765 154 82C154 42.236 121.765 10 82 10C42.236 10 10 42.236 10 82"></path></g></g></g><g id="g-root-tx_comprens_1uo0ybh1izpvk5-fill" data-item-order="0" transform="translate(86, 38)"><g id="tx_comprens_1uo0ybh1izpvk5-fill-merged" stroke="none" fill="#f4f4f4"><g><text style="font: bold 25px Roboto, sans-serif; white-space: pre;" font-weight="bold" font-size="25px" font-family="Roboto, sans-serif"><tspan x="14.5" y="43" dominant-baseline="ideographic">Comprensione del linguaggio attraverso i token</tspan></text></g></g></g><g id="g-root-tx_parolein_qp0y4d1izpuyz-fill" data-item-order="0" transform="translate(56, 140)"><g id="tx_parolein_qp0y4d1izpuyz-fill-merged" stroke="none" fill="#f4f4f4"><g><text style="font: 20px Roboto, sans-serif; white-space: pre;" font-size="20px" font-family="Roboto, sans-serif"><tspan x="15.93" y="33.85" dominant-baseline="ideographic">Parole intere</tspan></text></g></g></g><g id="g-root-ic_word_dilgot1ipyolj-fill" data-item-order="0" transform="translate(200, 128)"></g><g id="g-root-ic_2_zqxxh91ipt2xa-fill" data-item-order="0" transform="translate(463.9840087890625, 128)"></g><g id="g-root-tx_pezzidip_13zuzel1izpwju-fill" data-item-order="0" transform="translate(536, 140)"><g id="tx_pezzidip_13zuzel1izpwju-fill-merged" stroke="none" fill="#f4f4f4"><g><text style="font: 20px Roboto, sans-serif; white-space: pre;" font-size="20px" font-family="Roboto, sans-serif"><tspan x="12" y="33.85" dominant-baseline="ideographic">Pezzi di parole</tspan></text></g></g></g><g id="g-root-tx_punteggi_1hbbhrx1izpuyx-fill" data-item-order="0" transform="translate(14, 242)"><g id="tx_punteggi_1hbbhrx1izpuyx-fill-merged" stroke="none" fill="#f4f4f4"><g><text style="font: 20px Roboto, sans-serif; white-space: pre;" font-size="20px" font-family="Roboto, sans-serif"><tspan x="15.12" y="33.85" dominant-baseline="ideographic">Punteggiatura</tspan></text></g></g></g><g id="g-root-ic_para_hvaf251ipt2x6-fill" data-item-order="0" transform="translate(170, 230)"></g><g id="g-root-ic_1_hvx5ml1ipuhhg-fill" data-item-order="0" transform="translate(320, 218)"></g><g id="g-root-tf_5vttp1ipqadq-stroke" data-item-order="-411264"></g><g id="g-root-sy_3_Vector_1lsezzx1ipt4hy-stroke" data-item-order="-76854" transform="translate(158, 218)"><g id="sy_3_Vector_1lsezzx1ipt4hy-stroke" fill="none" stroke-linecap="round" stroke-linejoin="round" stroke-miterlimit="4" stroke="#1ac3fb" stroke-width="2"><g><path d="M 107.735 58.892L 121.7 46L 107.735 33.107L 107.735 40.284L 81.548 40.284C 78.81 23.118 63.937 10 46 10C 26.118 10 10 26.118 10 46C 10 65.882 26.118 82 46 82C 63.912 82 78.769 68.918 81.537 51.787L 107.735 51.787L 107.735 58.892Z"></path></g></g></g><g id="g-root-sy_2_Vector_18hkypp1ipt2x3-stroke" data-item-order="-76850" transform="translate(428.1209716796875, 116)"><g id="sy_2_Vector_18hkypp1ipt2x3-stroke" fill="none" stroke-linecap="round" stroke-linejoin="round" stroke-miterlimit="4" stroke="#a6da37" stroke-width="2"><g><path d="M 28.925998 94.115L 9.999998 92.435L 13.167998 73.69L 17.553998 79.375L 38.170998 63.451L 38.310998 63.336C 36.236998 59.562 34.810998 55.349 34.198998 50.825C 31.536998 31.122 45.350998 12.991 65.053998 10.3285C 84.756998 7.666 102.887998 21.48 105.550998 41.183C 108.212998 60.886 94.398998 79.017 74.695998 81.68C 63.603998 83.179 53.009998 79.456 45.393998 72.4L 45.208998 72.557L 24.583998 88.487L 28.925998 94.115Z"></path></g></g></g><g id="g-root-sy_1_Vector_141rgl91ipt3pc-stroke" data-item-order="-76846" transform="translate(188.0001220703125, 115.9990234375)"><g id="sy_1_Vector_141rgl91ipt3pc-stroke" fill="none" stroke-linecap="round" stroke-linejoin="round" stroke-miterlimit="4" stroke="#43dd93" stroke-width="2"><g><path d="M 86.974863 94.102038L 105.902863 92.444038L 102.755863 73.695038L 98.363863 79.375038L 77.737863 63.405038L 77.594863 63.288038C 79.653863 59.526038 81.070863 55.331038 81.678863 50.828038C 84.342863 31.125038 70.529863 12.992838 50.827863 10.328838C 31.124863 7.664938 12.992863 21.478038 10.328863 41.181038C 7.664863 60.884038 21.477863 79.016038 41.179863 81.680038C 52.288863 83.182038 62.897863 79.446038 70.516863 72.370038L 70.695863 72.509038L 91.323863 88.479038L 86.974863 94.102038Z"></path></g></g></g><g id="g-root-cr_0_cr-big_v64gcd1ipt4i1-stroke" data-item-order="-76842" transform="translate(284, 182)"><g id="cr_0_cr-big_v64gcd1ipt4i1-stroke" fill="none" stroke-linecap="round" stroke-linejoin="round" stroke-miterlimit="4" stroke="#ababab" stroke-width="2"><g><path d="M 10 82C 10.000001 121.764503 42.235499 154.000001 82.000001 154.000001C 121.764503 154.000001 154.000001 121.764503 154.000001 82.000001C 154.000001 42.235499 121.764503 10.000001 82.000001 10.000001C 42.235499 10.000001 10.000001 42.235499 10.000001 82.000001"></path></g></g></g><g id="g-root-tx_comprens_1uo0ybh1izpvk5-stroke" data-item-order="0" transform="translate(86, 38)"></g><g id="g-root-tx_parolein_qp0y4d1izpuyz-stroke" data-item-order="0" transform="translate(56, 140)"></g><g id="g-root-ic_word_dilgot1ipyolj-stroke" data-item-order="0" transform="translate(200, 128)"><g id="ic_word_dilgot1ipyolj-stroke" fill="none" stroke-linecap="round" stroke-linejoin="round" stroke-miterlimit="4" stroke="#43dd93" stroke-width="2"><g><path d="M 23 46L 23 52C 23 53.104568 23.895432 54 25 54L 55 54C 56.104568 54 57 53.104568 57 52L 57 16C 57 14.895431 56.104568 14 55 14L 25 14C 23.895432 14 23 14.895431 23 16L 23 22M 35 34L 57 34M 35 24L 57 24M 35 44L 57 44M 13 22L 33 22C 33 22 35 22 35 24L 35 44C 35 44 35 46 33 46L 13 46C 13 46 11 46 11 44L 11 24C 11 24 11 22 13 22M 16 28L 19 40L 23 28L 27 40L 30 28"></path></g></g></g><g id="g-root-ic_2_zqxxh91ipt2xa-stroke" data-item-order="0" transform="translate(463.9840087890625, 128)"><g id="ic_2_zqxxh91ipt2xa-stroke" fill="none" stroke-linecap="round" stroke-linejoin="round" stroke-miterlimit="4" stroke="#a6da37" stroke-width="2"><g><path d="M 10 10M 49.000198 41.5L 55.6222 34.877998C 56.184601 34.315399 56.500401 33.552399 56.500401 32.757C 56.500401 31.961399 56.184601 31.198601 55.6222 30.636L 51.4002 26.424C 50.9226 27.556959 50.174 28.55518 49.220001 29.330759C 48.265999 30.1064 47.136002 30.635599 45.929401 30.871599C 44.722801 31.1078 43.476601 31.0438 42.300598 30.684999C 41.124599 30.3262 40.054802 29.683981 39.185402 28.8146C 38.3162 27.94524 37.673798 26.87546 37.315201 25.69948C 36.956398 24.523479 36.8922 23.27734 37.128403 22.070759C 37.364601 20.864159 37.893799 19.73414 38.669399 18.780159C 39.445 17.82616 40.443199 17.07748 41.576202 16.6L 37.364201 12.378C 36.801598 11.81558 36.038601 11.499634 35.243202 11.499634C 34.447601 11.499634 33.684601 11.81558 33.1222 12.378L 26.50012 19C 26.50012 17.51664 26.06024 16.06658 25.236141 14.83322C 24.41202 13.59984 23.240681 12.63856 21.870239 12.0709C 20.4998 11.50324 18.9918 11.354714 17.53694 11.644104C 16.082081 11.933492 14.7457 12.6478 13.69682 13.6967C 12.64792 14.745581 11.933614 16.081961 11.644226 17.536819C 11.354836 18.99168 11.503362 20.49968 12.07102 21.870121C 12.63868 23.240559 13.59998 24.4119 14.83334 25.236019C 16.0667 26.06012 17.51676 26.5 19.00012 26.5L 12.37812 33.122002C 11.815702 33.684601 11.499756 34.447399 11.499756 35.243C 11.499756 36.038399 11.815702 36.801399 12.37812 37.363998L 16.600121 41.576C 17.0776 40.443001 17.826281 39.444801 18.780281 38.669201C 19.734261 37.8936 20.8643 37.364403 22.070881 37.128403C 23.27746 36.8922 24.5236 36.9562 25.6996 37.315002C 26.87558 37.673599 27.94536 38.316002 28.81472 39.185402C 29.684099 40.054802 30.326401 41.124599 30.6852 42.300598C 31.0438 43.476398 31.108 44.722599 30.871799 45.929199C 30.635599 47.135799 30.1064 48.2658 29.3309 49.219799C 28.5553 50.173801 27.5571 50.9226 26.42412 51.400002L 30.6362 55.613998C 31.198601 56.176399 31.961599 56.492401 32.757202 56.492401C 33.552601 56.492401 34.315598 56.176399 34.878201 55.613998L 41.500198 49C 41.500198 50.483398 41.940002 51.933399 42.764 53.166801C 43.5882 54.4002 44.759602 55.361401 46.130001 55.929001C 47.500401 56.496799 49.0084 56.645199 50.4632 56.355801C 51.918201 56.066399 53.254601 55.3522 54.303398 54.3032C 55.352402 53.254398 56.066601 51.917999 56.355999 50.4632C 56.645401 49.0084 56.496799 47.500401 55.929199 46.129799C 55.361599 44.759399 54.4002 43.588001 53.166801 42.764C 51.933601 41.9398 50.483398 41.5 49.000198 41.5Z"></path></g></g></g><g id="g-root-tx_pezzidip_13zuzel1izpwju-stroke" data-item-order="0" transform="translate(536, 140)"></g><g id="g-root-tx_punteggi_1hbbhrx1izpuyx-stroke" data-item-order="0" transform="translate(14, 242)"></g><g id="g-root-ic_para_hvaf251ipt2x6-stroke" data-item-order="0" transform="translate(170, 230)"><g id="ic_para_hvaf251ipt2x6-stroke" fill="none" stroke-linecap="round" stroke-linejoin="round" stroke-miterlimit="4" stroke="#1ac3fb" stroke-width="2"><g><path d="M 34.199799 15.2002L 56.399601 15.2002M 34.199799 24.799801L 56.399601 24.799801M 15.199961 34.200199L 56.400002 34.200199M 15.199961 43.799801L 56.400002 43.799801M 15.199961 53.200199L 56.400002 53.200199M 13.6001 23.200199C 13.6001 24.0002 14.400101 24.800301 15.2001 24.800301M 15.2001 21.60058C 14.400101 21.60058 13.6001 22.400681 13.6001 23.20068M 16.799961 23.20068C 16.799961 22.400681 15.99996 21.60058 15.199961 21.60058M 15.199961 24.800301C 15.99996 24.800301 16.799961 24.0002 16.799961 23.200199M 15.00012 14.7998C 13.20012 15.7998 11.600098 17.5998 11.600098 19.799801C 11.600098 21.9998 12.6001 24.5998 15.2001 24.799801M 24.799801 23.200199C 24.799801 24.0002 25.599819 24.800301 26.39982 24.800301M 26.39982 21.60058C 25.599819 21.60058 24.799801 22.400681 24.799801 23.20068M 27.999901 23.20068C 27.999901 22.400681 27.1999 21.60058 26.3999 21.60058M 26.3999 24.800301C 27.1999 24.800301 27.999901 24.0002 27.999901 23.200199M 26.00012 14.7998C 24.200119 15.7998 22.6001 17.5998 22.6001 19.799801C 22.6001 21.9998 23.6001 24.5998 26.2001 24.799801"></path></g></g></g><g id="g-root-ic_1_hvx5ml1ipuhhg-stroke" data-item-order="0" transform="translate(320, 218)"><g id="ic_1_hvx5ml1ipuhhg-stroke" fill="none" stroke-linecap="round" stroke-linejoin="round" stroke-miterlimit="4" stroke="#ababab" stroke-width="2"><g><path d="M 24.026081 79.75L 24.026081 60.955002C 19.88077 57.1147 16.98982 52.113701 15.730721 46.605103C 14.47165 41.0965 14.90293 35.336021 16.968311 30.076241C 19.033661 24.81646 22.637079 20.301701 27.30802 17.12155C 31.97896 13.9414 37.500309 12.243652 43.151199 12.250018C 64.568199 12.250018 69.1912 29.884029 76.826202 49.689999C 76.957001 50.031101 77.002899 50.398598 76.959999 50.761299C 76.917099 51.124001 76.786903 51.470798 76.5802 51.771999C 76.373505 52.072899 76.096901 52.319199 75.773804 52.489601C 75.450699 52.66 75.091301 52.749397 74.726196 52.75L 69.026199 52.75L 69.026199 61.75C 69.026199 64.1371 68.077904 66.426102 66.390099 68.113899C 64.702301 69.801704 62.413002 70.75 60.026199 70.75L 55.526199 70.75L 55.526199 79.75M 56.879799 32.70697C 56.426498 33.16024 55.914398 33.518829 55.368698 33.782681L 60.462997 38.877159L 55.261299 44.0788C 53.271999 42.0895 50.049702 42.086201 48.064598 44.071598C 46.079201 46.056999 46.0825 49.278999 48.0718 51.268299L 42.669399 56.671001L 37.48114 51.4828C 37.280022 51.808601 37.038521 52.1161 36.756523 52.398102C 34.751892 54.402702 31.46035 54.361298 29.404631 52.305702C 27.348909 50.249802 27.30748 46.958199 29.312109 44.953602C 29.59411 44.6716 29.901581 44.430099 30.22747 44.229103L 25.039539 39.041199L 30.23527 33.84547C 32.314117 35.924229 35.656387 35.95237 37.70047 33.908291C 39.744553 31.86421 39.716408 28.521969 37.63765 26.44309L 42.833199 21.24745L 48.0079 26.421909C 48.271599 25.875938 48.6301 25.363989 49.083397 24.910721C 51.2458 22.748411 54.743801 22.740761 56.8969 24.89365C 59.049698 27.046539 59.041901 30.544689 56.879799 32.70697Z"></path></g></g></g></g></g></svg>