<?xml version="1.0" encoding="utf-8" standalone="yes"?>
<!DOCTYPE svg PUBLIC "-//W3C//DTD SVG 1.1//EN" "http://www.w3.org/Graphics/SVG/1.1/DTD/svg11.dtd">
<svg style="fill:none;stroke:none;fill-rule:evenodd;clip-rule:evenodd;stroke-linecap:round;stroke-linejoin:round;stroke-miterlimit:1.5;" version="1.1" xmlns="http://www.w3.org/2000/svg" xmlns:xlink="http://www.w3.org/1999/xlink" width="912" height="576" viewBox="0 0 912 576"><style class="text-font-style fontImports" data-font-family="Roboto">@import url(https://fonts.googleapis.com/css2?family=Roboto:wght@400;700&amp;amp;display=block);</style><rect id="" x="0" y="0" width="912" height="576" style="fill: #2c2c2c;"></rect><g id="items" style="isolation: isolate"><g id="blend" style="mix-blend-mode: normal"><g id="g-root-tf_zqakvo1jjxiir-fill" data-item-order="-787968"><g id="tf_zqakvo1jjxiir-fill-merged" stroke="none" fill="#2c2c2c" fill-opacity="1"><g><path d="M0 0.003 H912 V576.003 H0 V0.003"></path></g></g></g><g id="g-root-cp_1_g-1_1_14643041jjyv4d-fill" data-item-order="-456138" transform="translate(194, 96.0732421875)"><g id="cp_1_g-1_1_14643041jjyv4d-fill-merged" stroke="none" fill="#ffe711" fill-opacity="1"><g><path d="M214 22 V154 H10 V22C10 15.396 15.396 10 22 10 H202C208.616 10 214 15.384 214 22"></path></g></g></g><g id="g-root-cp_0_g-0_1_qunkms1jjywpa-fill" data-item-order="-456110" transform="translate(194, 240.0732421875)"><g id="cp_0_g-0_1_qunkms1jjywpa-fill-merged" stroke="none" fill="#e8e8e8" fill-opacity="1"><g><path d="M10 310 V10 H214 V310C214 316.627 208.627 322 202 322 H22C15.373 322 10 316.627 10 310"></path></g></g></g><g id="g-root-cp_1-1_cell-1-1_djtjck1jjyv4f-fill" data-item-order="-456089" transform="translate(206, 252.0732421875)"></g><g id="g-root-cp_2-1_cell-2-1_9401841jjyvwo-fill" data-item-order="-456071" transform="translate(206, 348.0732421875)"></g><g id="g-root-cp_3-1_cell-3-1_4o6j3o1jjywox-fill" data-item-order="-456053" transform="translate(206, 456.0732421875)"></g><g id="g-root-cp_1_g-1_2_1utnktw1jjyxai-fill" data-item-order="-456034" transform="translate(422, 96.0732421875)"><g id="cp_1_g-1_2_1utnktw1jjyxai-fill-merged" stroke="none" fill="#f79438" fill-opacity="1"><g><path d="M214 22 V154 H10 V22C10 15.396 15.396 10 22 10 H202C208.616 10 214 15.384 214 22"></path></g></g></g><g id="g-root-cp_0_g-0_2_1qegjsk1jjyuwz-fill" data-item-order="-456006" transform="translate(422, 240.0732421875)"><g id="cp_0_g-0_2_1qegjsk1jjyuwz-fill-merged" stroke="none" fill="#e8e8e8" fill-opacity="1"><g><path d="M10 310 V10 H214 V310C214 316.627 208.627 322 202 322 H22C15.373 322 10 316.627 10 310"></path></g></g></g><g id="g-root-cp_1-2_cell-1-2_1hitjjo1jjyvpo-fill" data-item-order="-455985" transform="translate(434, 252.0732421875)"></g><g id="g-root-cp_2-2_cell-2-2_1d301f81jjywhx-fill" data-item-order="-455967" transform="translate(434, 348.0732421875)"></g><g id="g-root-cp_3-2_cell-3-2_147d16c1jjyxam-fill" data-item-order="-455949" transform="translate(434, 456.0732421875)"></g><g id="g-root-cp_1_g-1_3_qwizw41jjyvpr-fill" data-item-order="-455930" transform="translate(650, 96.0732421875)"><g id="cp_1_g-1_3_qwizw41jjyvpr-fill-merged" stroke="none" fill="#fb6762" fill-opacity="1"><g><path d="M214 22 V154 H10 V22C10 15.396 15.396 10 22 10 H202C208.616 10 214 15.384 214 22"></path></g></g></g><g id="g-root-cp_0_g-0_3_i0vzn81jjyxa8-fill" data-item-order="-455900" transform="translate(650, 240.0732421875)"><g id="cp_0_g-0_3_i0vzn81jjyxa8-fill-merged" stroke="none" fill="#e8e8e8" fill-opacity="1"><g><path d="M10 310 V10 H214 V310C214 316.627 208.627 322 202 322 H22C15.373 322 10 316.627 10 310"></path></g></g></g><g id="g-root-cp_1-3_cell-1-3_8vvv3o1jk09hl-fill" data-item-order="-455879" transform="translate(662, 252.0732421875)"></g><g id="g-root-cp_2-3_cell-2-3_1uljepg1jk0ave-fill" data-item-order="-455861" transform="translate(662, 348.0732421875)"></g><g id="g-root-cp_3-3_cell-3-3_1ha2wc41jk0cgb-fill" data-item-order="-455843" transform="translate(662, 456.0732421875)"></g><g id="g-root-tx_apprendi_zisvuc1jk35lb-fill" data-item-order="0" transform="translate(446, 264.0732421875)"><g id="tx_apprendi_zisvuc1jk35lb-fill-merged" stroke="none" fill="#2c2c2c" fill-opacity="1"><g><text style="font: 15px Roboto, sans-serif; white-space: pre;" font-size="15px" font-family="Roboto, sans-serif"><tspan x="29.69" y="30.69" dominant-baseline="ideographic">Apprendimento e </tspan><tspan x="17.16" y="48.69" dominant-baseline="ideographic">adattamento a livello </tspan><tspan x="63.62" y="66.7" dominant-baseline="ideographic">umano</tspan></text></g></g></g><g id="g-root-tx_eccellei_1cu9e7o1jk1qmi-fill" data-item-order="0" transform="translate(230, 276.0732421875)"><g id="tx_eccellei_1cu9e7o1jk1qmi-fill-merged" stroke="none" fill="#2c2c2c" fill-opacity="1"><g><text style="font: 15px Roboto, sans-serif; white-space: pre;" font-size="15px" font-family="Roboto, sans-serif"><tspan x="15.71" y="27.69" dominant-baseline="ideographic">Eccelle in compiti </tspan><tspan x="46.42" y="45.69" dominant-baseline="ideographic">specifici</tspan></text></g></g></g><g id="g-root-tx_superint_4m6gk1jk4hsb-fill" data-item-order="0" transform="translate(668, 180.0732421875)"><g id="tx_superint_4m6gk1jk4hsb-fill-merged" stroke="none" fill="#2c2c2c" fill-opacity="1"><g><text style="font: bold 20px Roboto, sans-serif; white-space: pre;" font-weight="bold" font-size="20px" font-family="Roboto, sans-serif"><tspan x="15.42" y="33.85" dominant-baseline="ideographic">Superintelligenza</tspan></text></g></g></g><g id="g-root-tx_definizi_13z8v1w1jk0avg-fill" data-item-order="0" transform="translate(50, 282.0732421875)"><g id="tx_definizi_13z8v1w1jk0avg-fill-merged" stroke="none" fill="#f4f4f4" fill-opacity="1"><g><text style="font: bold 20px Roboto, sans-serif; white-space: pre;" font-weight="bold" font-size="20px" font-family="Roboto, sans-serif"><tspan x="14.73" y="33.85" dominant-baseline="ideographic">Definizione</tspan></text></g></g></g><g id="g-root-tx_superale_v7z6es1jk4j64-fill" data-item-order="0" transform="translate(686, 276.0732421875)"><g id="tx_superale_v7z6es1jk4j64-fill-merged" stroke="none" fill="#2c2c2c" fill-opacity="1"><g><text style="font: 15px Roboto, sans-serif; white-space: pre;" font-size="15px" font-family="Roboto, sans-serif"><tspan x="12.78" y="27.69" dominant-baseline="ideographic">Supera le capacità </tspan><tspan x="19.14" y="45.69" dominant-baseline="ideographic">cognitive umane</tspan></text></g></g></g><g id="g-root-tx_intellig_qvwit01jk1qfa-fill" data-item-order="0" transform="translate(464, 180.0732421875)"><g id="tx_intellig_qvwit01jk1qfa-fill-merged" stroke="none" fill="#2c2c2c" fill-opacity="1"><g><text style="font: bold 20px Roboto, sans-serif; white-space: pre;" font-weight="bold" font-size="20px" font-family="Roboto, sans-serif"><tspan x="15.1" y="33.84" dominant-baseline="ideographic">Intelligenza </tspan><tspan x="27.38" y="57.85" dominant-baseline="ideographic">Generale</tspan></text></g></g></g><g id="g-root-tx_specific_hsrtis1jk1o8z-fill" data-item-order="0" transform="translate(236, 360.0732421875)"><g id="tx_specific_hsrtis1jk1o8z-fill-merged" stroke="none" fill="#2c2c2c" fill-opacity="1"><g><text style="font: 15px Roboto, sans-serif; white-space: pre;" font-size="15px" font-family="Roboto, sans-serif"><tspan x="24.8" y="27.69" dominant-baseline="ideographic">Specifico per </tspan><tspan x="13.16" y="45.69" dominant-baseline="ideographic">compiti; richiede </tspan><tspan x="12.81" y="63.69" dominant-baseline="ideographic">adattamento per </tspan><tspan x="25.44" y="81.7" dominant-baseline="ideographic">nuovi domini</tspan></text></g></g></g><g id="g-root-tx_intellig_dl2his1jk0bgh-fill" data-item-order="0" transform="translate(236, 180.0732421875)"><g id="tx_intellig_dl2his1jk0bgh-fill-merged" stroke="none" fill="#2c2c2c" fill-opacity="1"><g><text style="font: bold 20px Roboto, sans-serif; white-space: pre;" font-weight="bold" font-size="20px" font-family="Roboto, sans-serif"><tspan x="15.1" y="33.84" dominant-baseline="ideographic">Intelligenza </tspan><tspan x="28.85" y="57.85" dominant-baseline="ideographic">Ristretta</tspan></text></g></g></g><g id="g-root-tx_apprende_1cw4th01jk330o-fill" data-item-order="0" transform="translate(452, 366.0732421875)"><g id="tx_apprende_1cw4th01jk330o-fill-merged" stroke="none" fill="#2c2c2c" fill-opacity="1"><g><text style="font: 15px Roboto, sans-serif; white-space: pre;" font-size="15px" font-family="Roboto, sans-serif"><tspan x="13.85" y="30.69" dominant-baseline="ideographic">Apprende, ragiona e </tspan><tspan x="20.87" y="48.69" dominant-baseline="ideographic">si adatta come gli </tspan><tspan x="37.47" y="66.7" dominant-baseline="ideographic">esseri umani</tspan></text></g></g></g><g id="g-root-ic_head_9096pg1jk33lu-fill" data-item-order="0" transform="translate(728, 120.0732421875)"></g><g id="g-root-tx_abilit_1unetys1jk09vp-fill" data-item-order="0" transform="translate(86, 384.0732421875)"><g id="tx_abilit_1unetys1jk09vp-fill-merged" stroke="none" fill="#f4f4f4" fill-opacity="1"><g><text style="font: bold 20px Roboto, sans-serif; white-space: pre;" font-weight="bold" font-size="20px" font-family="Roboto, sans-serif"><tspan x="21.96" y="33.85" dominant-baseline="ideographic">Abilità</tspan></text></g></g></g><g id="g-root-tx_superior_1qbyng41jk4he5-fill" data-item-order="0" transform="translate(680, 378.0732421875)"><g id="tx_superior_1qbyng41jk4he5-fill-merged" stroke="none" fill="#2c2c2c" fill-opacity="1"><g><text style="font: 15px Roboto, sans-serif; white-space: pre;" font-size="15px" font-family="Roboto, sans-serif"><tspan x="17.32" y="27.69" dominant-baseline="ideographic">Superiore in tutte le </tspan><tspan x="13.23" y="45.69" dominant-baseline="ideographic">dimensioni cognitive</tspan></text></g></g></g><g id="g-root-ic_1_zlas6s1jk1o1x-fill" data-item-order="0" transform="translate(500, 120.0732421875)"></g><g id="g-root-tx_statoatt_qpnrxw1jk0bgm-fill" data-item-order="0" transform="translate(38, 486.0732421875)"><g id="tx_statoatt_qpnrxw1jk0bgm-fill-merged" stroke="none" fill="#f4f4f4" fill-opacity="1"><g><text style="font: bold 20px Roboto, sans-serif; white-space: pre;" font-weight="bold" font-size="20px" font-family="Roboto, sans-serif"><tspan x="13.2" y="33.85" dominant-baseline="ideographic">Stato attuale</tspan></text></g></g></g><g id="g-root-ic_side_qrj7781jk0agw-fill" data-item-order="0" transform="translate(272, 120.0732421875)"></g><g id="g-root-tx_ipotetic_1q8ua0k1jk33lt-fill" data-item-order="0" transform="translate(458, 468.0732421875)"><g id="tx_ipotetic_1q8ua0k1jk33lt-fill-merged" stroke="none" fill="#2c2c2c" fill-opacity="1"><g><text style="font: 15px Roboto, sans-serif; white-space: pre;" font-size="15px" font-family="Roboto, sans-serif"><tspan x="17.11" y="30.69" dominant-baseline="ideographic">Ipotetico; nessun </tspan><tspan x="16.35" y="48.69" dominant-baseline="ideographic">modello attuale a </tspan><tspan x="30.23" y="66.7" dominant-baseline="ideographic">questo livello</tspan></text></g></g></g><g id="g-root-tx_confront_1ltn8z81jk09on-fill" data-item-order="0" transform="translate(272, 36.0732421875)"><g id="tx_confront_1ltn8z81jk09on-fill-merged" stroke="none" fill="#f4f4f4" fill-opacity="1"><g><text style="font: bold 25px Roboto, sans-serif; white-space: pre;" font-weight="bold" font-size="25px" font-family="Roboto, sans-serif"><tspan x="16.24" y="43" dominant-baseline="ideographic">Confronto dei livelli di AI</tspan></text></g></g></g><g id="g-root-tx_speculat_v9ulo41jk4i6e-fill" data-item-order="0" transform="translate(680, 468.0732421875)"><g id="tx_speculat_v9ulo41jk4i6e-fill-merged" stroke="none" fill="#2c2c2c" fill-opacity="1"><g><text style="font: 15px Roboto, sans-serif; white-space: pre;" font-size="15px" font-family="Roboto, sans-serif"><tspan x="13.72" y="30.69" dominant-baseline="ideographic">Speculativo; scenari </tspan><tspan x="26.15" y="48.69" dominant-baseline="ideographic">futuri guidano le </tspan><tspan x="42.47" y="66.7" dominant-baseline="ideographic">discussioni</tspan></text></g></g></g><g id="g-root-tx_aigenera_1q7lbuc1jk1o1w-fill" data-item-order="0" transform="translate(218, 468.0732421875)"><g id="tx_aigenera_1q7lbuc1jk1o1w-fill-merged" stroke="none" fill="#2c2c2c" fill-opacity="1"><g><text style="font: 15px Roboto, sans-serif; white-space: pre;" font-size="15px" font-family="Roboto, sans-serif"><tspan x="17.02" y="30.69" dominant-baseline="ideographic">AI generativa attuale; </tspan><tspan x="41.89" y="48.69" dominant-baseline="ideographic">appare di uso </tspan><tspan x="58.39" y="66.7" dominant-baseline="ideographic">generale</tspan></text></g></g></g><g id="g-root-tf_zqakvo1jjxiir-stroke" data-item-order="-787968"></g><g id="g-root-cp_1_g-1_1_14643041jjyv4d-stroke" data-item-order="-456138" transform="translate(194, 96.0732421875)"><g id="cp_1_g-1_1_14643041jjyv4d-stroke" fill="none" stroke-linecap="round" stroke-linejoin="round" stroke-miterlimit="4" stroke="#2c2c2c" stroke-width="2" stroke-opacity="1"><g><path d="M 22 10C 15.373 10 10 15.373 10 22M 214 154L 214 22M 10 22L 10 154M 22 10L 202 10M 214 22C 214 15.3826 208.6174 10 202 10"></path></g></g></g><g id="g-root-cp_0_g-0_1_qunkms1jjywpa-stroke" data-item-order="-456110" transform="translate(194, 240.0732421875)"><g id="cp_0_g-0_1_qunkms1jjywpa-stroke" fill="none" stroke-linecap="round" stroke-linejoin="round" stroke-miterlimit="4" stroke="#2c2c2c" stroke-width="2" stroke-opacity="1"><g><path d="M 10 310C 10 316.6274 15.3726 322 22 322M 202 322L 22 322M 202 322C 208.6274 322 214 316.6274 214 310M 214 10L 214 310M 10 310L 10 10M 214 10L 10 10"></path></g></g></g><g id="g-root-cp_1-1_cell-1-1_djtjck1jjyv4f-stroke" data-item-order="-456089" transform="translate(206, 252.0732421875)"><g id="cp_1-1_cell-1-1_djtjck1jjyv4f-stroke" fill="none" stroke-linecap="round" stroke-linejoin="round" stroke-miterlimit="4" stroke="#f4f4f4" stroke-width="2" stroke-opacity="1"><g><path d="M 10 22L 10 16C 10 12.6863 12.6863 10 16 10L 22 10M 190 22L 190 82M 10 82L 10 22M 22 10L 178 10M 10 82L 10 88C 10 91.3137 12.6863 94 16 94L 22 94M 190 22L 190 16C 190 12.6863 187.3137 10 184 10L 178 10M 178 94L 22 94M 190 82L 190 88C 190 91.3137 187.3137 94 184 94L 178 94"></path></g></g></g><g id="g-root-cp_2-1_cell-2-1_9401841jjyvwo-stroke" data-item-order="-456071" transform="translate(206, 348.0732421875)"><g id="cp_2-1_cell-2-1_9401841jjyvwo-stroke" fill="none" stroke-linecap="round" stroke-linejoin="round" stroke-miterlimit="4" stroke="#f4f4f4" stroke-width="2" stroke-opacity="1"><g><path d="M 10 22L 10 16C 10 12.6863 12.6863 10 16 10L 22 10M 190 22L 190 94M 10 94L 10 22M 22 10L 178 10M 10 94L 10 100C 10 103.3137 12.6863 106 16 106L 22 106M 190 22L 190 16C 190 12.6863 187.3137 10 184 10L 178 10M 178 106L 22 106M 190 94L 190 100C 190 103.3137 187.3137 106 184 106L 178 106"></path></g></g></g><g id="g-root-cp_3-1_cell-3-1_4o6j3o1jjywox-stroke" data-item-order="-456053" transform="translate(206, 456.0732421875)"><g id="cp_3-1_cell-3-1_4o6j3o1jjywox-stroke" fill="none" stroke-linecap="round" stroke-linejoin="round" stroke-miterlimit="4" stroke="#f4f4f4" stroke-width="2" stroke-opacity="1"><g><path d="M 10 22L 10 16C 10 12.6863 12.6863 10 16 10L 22 10M 190 22L 190 82M 10 82L 10 22M 22 10L 178 10M 10 82L 10 88C 10 91.3137 12.6863 94 16 94L 22 94M 190 22L 190 16C 190 12.6863 187.3137 10 184 10L 178 10M 178 94L 22 94M 190 82L 190 88C 190 91.3137 187.3137 94 184 94L 178 94"></path></g></g></g><g id="g-root-cp_1_g-1_2_1utnktw1jjyxai-stroke" data-item-order="-456034" transform="translate(422, 96.0732421875)"><g id="cp_1_g-1_2_1utnktw1jjyxai-stroke" fill="none" stroke-linecap="round" stroke-linejoin="round" stroke-miterlimit="4" stroke="#2c2c2c" stroke-width="2" stroke-opacity="1"><g><path d="M 22 10C 15.373 10 10 15.373 10 22M 214 154L 214 22M 10 22L 10 154M 22 10L 202 10M 214 22C 214 15.3826 208.6174 10 202 10"></path></g></g></g><g id="g-root-cp_0_g-0_2_1qegjsk1jjyuwz-stroke" data-item-order="-456006" transform="translate(422, 240.0732421875)"><g id="cp_0_g-0_2_1qegjsk1jjyuwz-stroke" fill="none" stroke-linecap="round" stroke-linejoin="round" stroke-miterlimit="4" stroke="#2c2c2c" stroke-width="2" stroke-opacity="1"><g><path d="M 10 310C 10 316.6274 15.3726 322 22 322M 202 322L 22 322M 202 322C 208.6274 322 214 316.6274 214 310M 214 10L 214 310M 10 310L 10 10M 214 10L 10 10"></path></g></g></g><g id="g-root-cp_1-2_cell-1-2_1hitjjo1jjyvpo-stroke" data-item-order="-455985" transform="translate(434, 252.0732421875)"><g id="cp_1-2_cell-1-2_1hitjjo1jjyvpo-stroke" fill="none" stroke-linecap="round" stroke-linejoin="round" stroke-miterlimit="4" stroke="#f4f4f4" stroke-width="2" stroke-opacity="1"><g><path d="M 10 22L 10 16C 10 12.6863 12.6863 10 16 10L 22 10M 190 22L 190 82M 10 82L 10 22M 22 10L 178 10M 10 82L 10 88C 10 91.3137 12.6863 94 16 94L 22 94M 190 22L 190 16C 190 12.6863 187.3137 10 184 10L 178 10M 178 94L 22 94M 190 82L 190 88C 190 91.3137 187.3137 94 184 94L 178 94"></path></g></g></g><g id="g-root-cp_2-2_cell-2-2_1d301f81jjywhx-stroke" data-item-order="-455967" transform="translate(434, 348.0732421875)"><g id="cp_2-2_cell-2-2_1d301f81jjywhx-stroke" fill="none" stroke-linecap="round" stroke-linejoin="round" stroke-miterlimit="4" stroke="#f4f4f4" stroke-width="2" stroke-opacity="1"><g><path d="M 10 22L 10 16C 10 12.6863 12.6863 10 16 10L 22 10M 190 22L 190 94M 10 94L 10 22M 22 10L 178 10M 10 94L 10 100C 10 103.3137 12.6863 106 16 106L 22 106M 190 22L 190 16C 190 12.6863 187.3137 10 184 10L 178 10M 178 106L 22 106M 190 94L 190 100C 190 103.3137 187.3137 106 184 106L 178 106"></path></g></g></g><g id="g-root-cp_3-2_cell-3-2_147d16c1jjyxam-stroke" data-item-order="-455949" transform="translate(434, 456.0732421875)"><g id="cp_3-2_cell-3-2_147d16c1jjyxam-stroke" fill="none" stroke-linecap="round" stroke-linejoin="round" stroke-miterlimit="4" stroke="#f4f4f4" stroke-width="2" stroke-opacity="1"><g><path d="M 10 22L 10 16C 10 12.6863 12.6863 10 16 10L 22 10M 190 22L 190 82M 10 82L 10 22M 22 10L 178 10M 10 82L 10 88C 10 91.3137 12.6863 94 16 94L 22 94M 190 22L 190 16C 190 12.6863 187.3137 10 184 10L 178 10M 178 94L 22 94M 190 82L 190 88C 190 91.3137 187.3137 94 184 94L 178 94"></path></g></g></g><g id="g-root-cp_1_g-1_3_qwizw41jjyvpr-stroke" data-item-order="-455930" transform="translate(650, 96.0732421875)"><g id="cp_1_g-1_3_qwizw41jjyvpr-stroke" fill="none" stroke-linecap="round" stroke-linejoin="round" stroke-miterlimit="4" stroke="#2c2c2c" stroke-width="2" stroke-opacity="1"><g><path d="M 22 10C 15.373 10 10 15.373 10 22M 214 154L 214 22M 10 22L 10 154M 22 10L 202 10M 214 22C 214 15.3826 208.6174 10 202 10"></path></g></g></g><g id="g-root-cp_0_g-0_3_i0vzn81jjyxa8-stroke" data-item-order="-455900" transform="translate(650, 240.0732421875)"><g id="cp_0_g-0_3_i0vzn81jjyxa8-stroke" fill="none" stroke-linecap="round" stroke-linejoin="round" stroke-miterlimit="4" stroke="#2c2c2c" stroke-width="2" stroke-opacity="1"><g><path d="M 10 310C 10 316.6274 15.3726 322 22 322M 202 322L 22 322M 202 322C 208.6274 322 214 316.6274 214 310M 214 10L 214 310M 10 310L 10 10M 214 10L 10 10"></path></g></g></g><g id="g-root-cp_1-3_cell-1-3_8vvv3o1jk09hl-stroke" data-item-order="-455879" transform="translate(662, 252.0732421875)"><g id="cp_1-3_cell-1-3_8vvv3o1jk09hl-stroke" fill="none" stroke-linecap="round" stroke-linejoin="round" stroke-miterlimit="4" stroke="#f4f4f4" stroke-width="2" stroke-opacity="1"><g><path d="M 10 22L 10 16C 10 12.6863 12.6863 10 16 10L 22 10M 190 22L 190 82M 10 82L 10 22M 22 10L 178 10M 10 82L 10 88C 10 91.3137 12.6863 94 16 94L 22 94M 190 22L 190 16C 190 12.6863 187.3137 10 184 10L 178 10M 178 94L 22 94M 190 82L 190 88C 190 91.3137 187.3137 94 184 94L 178 94"></path></g></g></g><g id="g-root-cp_2-3_cell-2-3_1uljepg1jk0ave-stroke" data-item-order="-455861" transform="translate(662, 348.0732421875)"><g id="cp_2-3_cell-2-3_1uljepg1jk0ave-stroke" fill="none" stroke-linecap="round" stroke-linejoin="round" stroke-miterlimit="4" stroke="#f4f4f4" stroke-width="2" stroke-opacity="1"><g><path d="M 10 22L 10 16C 10 12.6863 12.6863 10 16 10L 22 10M 190 22L 190 94M 10 94L 10 22M 22 10L 178 10M 10 94L 10 100C 10 103.3137 12.6863 106 16 106L 22 106M 190 22L 190 16C 190 12.6863 187.3137 10 184 10L 178 10M 178 106L 22 106M 190 94L 190 100C 190 103.3137 187.3137 106 184 106L 178 106"></path></g></g></g><g id="g-root-cp_3-3_cell-3-3_1ha2wc41jk0cgb-stroke" data-item-order="-455843" transform="translate(662, 456.0732421875)"><g id="cp_3-3_cell-3-3_1ha2wc41jk0cgb-stroke" fill="none" stroke-linecap="round" stroke-linejoin="round" stroke-miterlimit="4" stroke="#f4f4f4" stroke-width="2" stroke-opacity="1"><g><path d="M 10 22L 10 16C 10 12.6863 12.6863 10 16 10L 22 10M 190 22L 190 82M 10 82L 10 22M 22 10L 178 10M 10 82L 10 88C 10 91.3137 12.6863 94 16 94L 22 94M 190 22L 190 16C 190 12.6863 187.3137 10 184 10L 178 10M 178 94L 22 94M 190 82L 190 88C 190 91.3137 187.3137 94 184 94L 178 94"></path></g></g></g><g id="g-root-tx_apprendi_zisvuc1jk35lb-stroke" data-item-order="0" transform="translate(446, 264.0732421875)"></g><g id="g-root-tx_eccellei_1cu9e7o1jk1qmi-stroke" data-item-order="0" transform="translate(230, 276.0732421875)"></g><g id="g-root-tx_superint_4m6gk1jk4hsb-stroke" data-item-order="0" transform="translate(668, 180.0732421875)"></g><g id="g-root-tx_definizi_13z8v1w1jk0avg-stroke" data-item-order="0" transform="translate(50, 282.0732421875)"></g><g id="g-root-tx_superale_v7z6es1jk4j64-stroke" data-item-order="0" transform="translate(686, 276.0732421875)"></g><g id="g-root-tx_intellig_qvwit01jk1qfa-stroke" data-item-order="0" transform="translate(464, 180.0732421875)"></g><g id="g-root-tx_specific_hsrtis1jk1o8z-stroke" data-item-order="0" transform="translate(236, 360.0732421875)"></g><g id="g-root-tx_intellig_dl2his1jk0bgh-stroke" data-item-order="0" transform="translate(236, 180.0732421875)"></g><g id="g-root-tx_apprende_1cw4th01jk330o-stroke" data-item-order="0" transform="translate(452, 366.0732421875)"></g><g id="g-root-ic_head_9096pg1jk33lu-stroke" data-item-order="0" transform="translate(728, 120.0732421875)"><g id="ic_head_9096pg1jk33lu-stroke" fill="none" stroke-linecap="round" stroke-linejoin="round" stroke-miterlimit="4" stroke="#2c2c2c" stroke-width="2" stroke-opacity="1"><g><path d="M 33 51L 35 51M 46 39C 46 32.372581 40.627419 27 34 27C 27.372583 27 22 32.372581 22 39L 22 43C 22 49.627419 27.372583 55 34 55C 40.627419 55 46 49.627419 46 43ZM 22 38.961998C 24.576 38.739998 29 36 29 32C 32 37 36 39 42 39L 46 39M 22 43.571999C 22 45.464001 25.532 47 27.834 47C 29.92462 47.182953 31.776991 45.65873 32 43.572002C 32 41.678001 30.134001 41 27.834 41C 25.534 41 22 41.678001 22 43.571999ZM 46 43.571999C 46 45.464001 42.467999 47 40.166 47C 38.075382 47.182953 36.223011 45.65873 36 43.572002C 36 41.678001 37.865997 41 40.166 41C 42.466 41 46 41.678001 46 43.571999ZM 36 43L 32 43M 51 13L 52 13C 52.552284 13 53 13.447716 53 14L 53 21M 51 21L 55 21M 51 27L 52 27C 52.552284 27 53 27.447716 53 28L 53 35M 51 35L 55 35M 13 13L 14 13C 14.552284 13 15 13.447716 15 14L 15 21M 13 21L 17 21M 13 43L 14 43C 14.552284 43 15 43.447716 15 44L 15 51M 13 51L 17 51M 43 19C 43 20.104568 42.104568 21 41 21C 39.895432 21 39 20.104568 39 19L 39 15C 39 13.895431 39.895432 13 41 13C 42.104568 13 43 13.895431 43 15ZM 55 49C 55 50.104568 54.104568 51 53 51C 51.895432 51 51 50.104568 51 49L 51 45C 51 43.895432 51.895432 43 53 43C 54.104568 43 55 43.895432 55 45ZM 29 19C 29 20.104568 28.10457 21 27 21C 25.895432 21 25 20.104568 25 19L 25 15C 25 13.895431 25.895432 13 27 13C 28.10457 13 29 13.895431 29 15ZM 17 33C 17 34.104568 16.104568 35 15 35C 13.895431 35 13 34.104568 13 33L 13 29C 13 27.89543 13.895431 27 15 27C 16.104568 27 17 27.89543 17 29Z"></path></g></g></g><g id="g-root-tx_abilit_1unetys1jk09vp-stroke" data-item-order="0" transform="translate(86, 384.0732421875)"></g><g id="g-root-tx_superior_1qbyng41jk4he5-stroke" data-item-order="0" transform="translate(680, 378.0732421875)"></g><g id="g-root-ic_1_zlas6s1jk1o1x-stroke" data-item-order="0" transform="translate(500, 120.0732421875)"><g id="ic_1_zlas6s1jk1o1x-stroke" fill="none" stroke-linecap="round" stroke-linejoin="round" stroke-miterlimit="4" stroke="#2c2c2c" stroke-width="2" stroke-opacity="1"><g><path d="M 34 11L 34 16M 11 34L 16 34M 34 57L 34 52M 57 34L 52 34M 14 34C 14 45.045696 22.954306 54 34 54C 45.045696 54 54 45.045696 54 34C 54 22.954306 45.045696 14 34 14C 22.954306 14 14 22.954306 14 34M 37 42C 35.222221 40.666668 32.777779 40.666668 31 42M 46 32C 46 25.372583 40.627419 20 34 20C 27.372583 20 22 25.372583 22 32L 22 36C 22 42.627419 27.372583 48 34 48C 40.627419 48 46 42.627419 46 36ZM 45.618 39C 43.018002 39.043999 38.358002 39.400002 34.734001 35.799999C 34.540939 35.602329 34.27631 35.490883 34 35.490883C 33.72369 35.490883 33.459061 35.602329 33.265999 35.799999C 29.642 39.400002 24.973999 39.045998 22.382 39M 22.167999 30L 45.832001 30M 27 34L 29 34M 41 34L 39 34"></path></g></g></g><g id="g-root-tx_statoatt_qpnrxw1jk0bgm-stroke" data-item-order="0" transform="translate(38, 486.0732421875)"></g><g id="g-root-ic_side_qrj7781jk0agw-stroke" data-item-order="0" transform="translate(272, 120.0732421875)"><g id="ic_side_qrj7781jk0agw-stroke" fill="none" stroke-linecap="round" stroke-linejoin="round" stroke-miterlimit="4" stroke="#2c2c2c" stroke-width="2" stroke-opacity="1"><g><path d="M 17.248039 21.900021C 18.9049 21.900021 20.248039 20.556881 20.248039 18.900021C 20.248039 17.243179 18.9049 15.900021 17.248039 15.900021C 15.5912 15.900021 14.24804 17.243179 14.24804 18.900021C 14.24804 20.556881 15.5912 21.900021 17.248039 21.900021ZM 10 10M 20.248039 18.900021L 30.996 18.900021M 14.5 36.900002C 16.15686 36.900002 17.5 35.556801 17.5 33.900002C 17.5 32.243202 16.15686 30.9 14.5 30.9C 12.84314 30.9 11.5 32.243202 11.5 33.900002C 11.5 35.556801 12.84314 36.900002 14.5 36.900002ZM 10 10M 17.5 33.900002L 30.996 33.900002M 17.248039 51.900002C 18.9049 51.900002 20.248039 50.556801 20.248039 48.900002C 20.248039 47.243198 18.9049 45.900002 17.248039 45.900002C 15.5912 45.900002 14.24804 47.243198 14.24804 48.900002C 14.24804 50.556801 15.5912 51.900002 17.248039 51.900002ZM 10 10M 20.25 48.900002L 30.996 48.900002M 21.248039 41.900002L 25.248039 41.900002L 25.248039 48.888802M 24.12208 26.900021L 30.996 26.900021M 30.996 11.900024C 47.195999 11.900024 50.596001 25.100021 56.396 40.099998C 56.796001 41.299999 55.995998 42.5 54.796001 42.5L 50.596001 42.5L 50.596001 49.299999C 50.596001 53.099998 47.596001 56.099998 43.796001 56.099998L 30.996 56.099998L 30.996 11.900024ZM 44.593601 44.900002C 45.593601 46.900002 48.593601 46.900002 50.593601 46.900002M 43.596001 32.299801C 43.375198 32.299801 43.195999 32.1208 43.195999 31.899799C 43.195999 31.679001 43.375198 31.4998 43.596001 31.4998M 43.596001 32.299801C 43.816799 32.299801 43.995998 32.1208 43.995998 31.899799C 43.995998 31.679001 43.816799 31.4998 43.596001 31.4998"></path></g></g></g><g id="g-root-tx_ipotetic_1q8ua0k1jk33lt-stroke" data-item-order="0" transform="translate(458, 468.0732421875)"></g><g id="g-root-tx_confront_1ltn8z81jk09on-stroke" data-item-order="0" transform="translate(272, 36.0732421875)"></g><g id="g-root-tx_speculat_v9ulo41jk4i6e-stroke" data-item-order="0" transform="translate(680, 468.0732421875)"></g><g id="g-root-tx_aigenera_1q7lbuc1jk1o1w-stroke" data-item-order="0" transform="translate(218, 468.0732421875)"></g></g></g></svg>