<?xml version="1.0" encoding="utf-8" standalone="yes"?>
<!DOCTYPE svg PUBLIC "-//W3C//DTD SVG 1.1//EN" "http://www.w3.org/Graphics/SVG/1.1/DTD/svg11.dtd">
<svg style="fill:none;stroke:none;fill-rule:evenodd;clip-rule:evenodd;stroke-linecap:round;stroke-linejoin:round;stroke-miterlimit:1.5;" version="1.1" xmlns="http://www.w3.org/2000/svg" xmlns:xlink="http://www.w3.org/1999/xlink" width="780" height="643" viewBox="0 0 780 643"><style class="text-font-style fontImports" data-font-family="Roboto">@import url(https://fonts.googleapis.com/css2?family=Roboto:wght@400;700&amp;amp;display=block);</style><rect id="" x="0" y="0" width="780" height="642.308" style="fill: #2c2c2c;"></rect><g id="items" style="isolation: isolate"><g id="blend" style="mix-blend-mode: normal"><g id="g-root-tf_1q6zk0k1jtswsm-fill" data-item-order="-751500"><g id="tf_1q6zk0k1jtswsm-fill-merged" stroke="none" fill="#2c2c2c" fill-opacity="1"><g><path d="M0 -0.003 H780 V642.307 H0 V-0.003"></path></g></g></g><g id="g-root-sy_5_cu_Vector_1qbzcpg1jtuadk-fill" data-item-order="-242054" transform="translate(254, 92.307373046875)"><g id="sy_5_cu_Vector_1qbzcpg1jtuadk-fill-merged" stroke="none" fill="#ffe711" fill-opacity="1"><g><path d="M256 502C391.862 502 502 391.862 502 256C502 120.138 391.862 10 256 10C120.138 10 10 120.138 10 256C10 391.729 120.322 501.784 256 502C143.518 501.784 52 410.533 52 298C52 185.334 143.334 94 256 94C368.666 94 460 185.334 460 298C460 410.666 368.666 502 256 502 M256 502C255.867 502 256.133 502.001 256 502"></path></g></g></g><g id="g-root-sy_4_cu_Vector_1lw5ul01jtub5t-fill" data-item-order="-242050" transform="translate(296, 176.307373046875)"><g id="sy_4_cu_Vector_1lw5ul01jtub5t-fill-merged" stroke="none" fill="#4f91fc" fill-opacity="1"><g><path d="M214 418C326.666 418 418 326.666 418 214C418 101.334 326.666 10 214 10C101.334 10 10 101.334 10 214C10 326.533 101.518 417.784 214 418C124.714 417.784 52 345.337 52 256C52 166.53 124.53 94 214 94C303.47 94 376 166.53 376 256C376 345.47 303.47 418 214 418 M214 418C213.867 418 214.133 418.001 214 418"></path></g></g></g><g id="g-root-sy_3_cu_Vector_1d15bf81jtu8sq-fill" data-item-order="-242046" transform="translate(338, 260.307373046875)"><g id="sy_3_cu_Vector_1d15bf81jtu8sq-fill-merged" stroke="none" fill="#1ac3fb" fill-opacity="1"><g><path d="M172 334C261.47 334 334 261.47 334 172C334 82.53 261.47 10 172 10C82.53 10 10 82.53 10 172C10 261.337 82.714 333.784 172 334C105.91 333.784 52 280.141 52 214C52 147.726 105.726 94 172 94C238.274 94 292 147.726 292 214C292 280.274 238.274 334 172 334 M172 334C171.867 334 172.133 334.001 172 334"></path></g></g></g><g id="g-root-sy_2_cu_Vector_18lbtas1jtu9kz-fill" data-item-order="-242042" transform="translate(380, 344.307373046875)"><g id="sy_2_cu_Vector_18lbtas1jtu9kz-fill-merged" stroke="none" fill="#43dd93" fill-opacity="1"><g><path d="M130 250C196.274 250 250 196.274 250 130C250 63.726 196.274 10 130 10C63.726 10 10 63.726 10 130C10 196.141 63.91 249.784 130 250C87.106 249.785 52 214.945 52 172C52 128.922 86.922 94 130 94C173.078 94 208 128.922 208 172C208 215.078 173.078 250 130 250 M130 250C129.867 250 130.133 250.001 130 250"></path></g></g></g><g id="g-root-sy_1_cu_Vector_zpot1w1jtuado-fill" data-item-order="-242038" transform="translate(422, 428.307373046875)"><g id="sy_1_cu_Vector_zpot1w1jtuado-fill-merged" stroke="none" fill="#a6da37" fill-opacity="1"><g><path d="M166 88C166 131.078 131.078 166 88 166C45.106 165.785 10 130.945 10 88C10 44.922 44.922 10 88 10C131.078 10 166 44.922 166 88 M88 166C87.867 166 88.133 166.001 88 166"></path></g></g></g><g id="g-root-tx_intellig_v4vi8k1jtvp5b-fill" data-item-order="0" transform="translate(398, 128.307373046875)"><g id="tx_intellig_v4vi8k1jtvp5b-fill-merged" stroke="none" fill="#2c2c2c" fill-opacity="1"><g><text style="font: 20px Roboto, sans-serif; white-space: pre;" font-size="20px" font-family="Roboto, sans-serif"><tspan x="16.32" y="33.85" dominant-baseline="ideographic">Intelligenza Artificiale</tspan></text></g></g></g><g id="g-root-cn_1hgy7fo1kds2z3-fill" data-item-order="0" transform="translate(224, 140.307373046875)"></g><g id="g-root-tx_apprendi_i0wowk1jtu8ld-fill" data-item-order="0" transform="translate(38, 200.307373046875)"><g id="tx_apprendi_i0wowk1jtu8ld-fill-merged" stroke="none" fill="#f4f4f4" fill-opacity="1"><g><text style="font: 20px Roboto, sans-serif; white-space: pre;" font-size="20px" font-family="Roboto, sans-serif"><tspan x="19.18" y="33.84" dominant-baseline="ideographic">Apprendimento dai </tspan><tspan x="30.55" y="57.85" dominant-baseline="ideographic">dati per previsioni</tspan></text></g></g></g><g id="g-root-cn_24mqs1ke3bic-fill" data-item-order="0" transform="translate(224, 224.307373046875)"></g><g id="g-root-tx_machinel_1lr61w41jtvp5a-fill" data-item-order="0" transform="translate(416, 212.307373046875)"><g id="tx_machinel_1lr61w41jtvp5a-fill-merged" stroke="none" fill="#2c2c2c" fill-opacity="1"><g><text style="font: 20px Roboto, sans-serif; white-space: pre;" font-size="20px" font-family="Roboto, sans-serif"><tspan x="14.74" y="33.85" dominant-baseline="ideographic">Machine Learning</tspan></text></g></g></g><g id="g-root-tx_retineur_zrk8b81jtu9e0-fill" data-item-order="0" transform="translate(14, 284.307373046875)"><g id="tx_retineur_zrk8b81jtu9e0-fill-merged" stroke="none" fill="#f4f4f4" fill-opacity="1"><g><text style="font: 20px Roboto, sans-serif; white-space: pre;" font-size="20px" font-family="Roboto, sans-serif"><tspan x="27.56" y="33.84" dominant-baseline="ideographic">Reti neurali profonde </tspan><tspan x="14.92" y="57.85" dominant-baseline="ideographic">per compiti complessi</tspan></text></g></g></g><g id="g-root-cn_40bhg1kduvii-fill" data-item-order="0" transform="translate(224, 308.307373046875)"></g><g id="g-root-tx_deeplear_8wj1g41jtvq4l-fill" data-item-order="0" transform="translate(434, 296.307373046875)"><g id="tx_deeplear_8wj1g41jtvq4l-fill-merged" stroke="none" fill="#2c2c2c" fill-opacity="1"><g><text style="font: 20px Roboto, sans-serif; white-space: pre;" font-size="20px" font-family="Roboto, sans-serif"><tspan x="12.12" y="33.85" dominant-baseline="ideographic">Deep Learning</tspan></text></g></g></g><g id="g-root-tx_architet_1hi7rpw1jtua6n-fill" data-item-order="0" transform="translate(38, 368.307373046875)"><g id="tx_architet_1hi7rpw1jtua6n-fill-merged" stroke="none" fill="#f4f4f4" fill-opacity="1"><g><text style="font: 20px Roboto, sans-serif; white-space: pre;" font-size="20px" font-family="Roboto, sans-serif"><tspan x="23.14" y="33.84" dominant-baseline="ideographic">Architetture di rete </tspan><tspan x="107.84" y="57.85" dominant-baseline="ideographic">avanzate</tspan></text></g></g></g><g id="g-root-tx_architet_qnt1xw1jtvnrg-fill" data-item-order="0" transform="translate(440, 368.307373046875)"><g id="tx_architet_qnt1xw1jtvnrg-fill-merged" stroke="none" fill="#2c2c2c" fill-opacity="1"><g><text style="font: 20px Roboto, sans-serif; white-space: pre;" font-size="20px" font-family="Roboto, sans-serif"><tspan x="16.85" y="33.84" dominant-baseline="ideographic">Architetture </tspan><tspan x="14.12" y="57.85" dominant-baseline="ideographic">Transformer</tspan></text></g></g></g><g id="g-root-cn_1hbcq3o1kdmf49-fill" data-item-order="0" transform="translate(224, 392.307373046875)"></g><g id="g-root-tx_campogen_1uux89g1jtuaru-fill" data-item-order="0" transform="translate(62, 104.307373046875)"><g id="tx_campogen_1uux89g1jtuaru-fill-merged" stroke="none" fill="#f4f4f4" fill-opacity="1"><g><text style="font: 20px Roboto, sans-serif; white-space: pre;" font-size="20px" font-family="Roboto, sans-serif"><tspan x="18.74" y="33.84" dominant-baseline="ideographic">Campo generale </tspan><tspan x="27.56" y="57.85" dominant-baseline="ideographic">dell'intelligenza </tspan><tspan x="81.68" y="81.85" dominant-baseline="ideographic">artificiale</tspan></text></g></g></g><g id="g-root-tx_modellia_93e9ec1jtuadq-fill" data-item-order="0" transform="translate(14, 482.3076171875)"><g id="tx_modellia_93e9ec1jtuadq-fill-merged" stroke="none" fill="#f4f4f4" fill-opacity="1"><g><text style="font: 20px Roboto, sans-serif; white-space: pre;" font-size="20px" font-family="Roboto, sans-serif"><tspan x="13.01" y="33.84" dominant-baseline="ideographic">Modelli avanzati per la </tspan><tspan x="16" y="57.85" dominant-baseline="ideographic">creazione di contenuti</tspan></text></g></g></g><g id="g-root-tx_modellig_1cua3h01jtvojn-fill" data-item-order="0" transform="translate(452, 470.3076171875)"><g id="tx_modellig_1cua3h01jtvojn-fill-merged" stroke="none" fill="#2c2c2c" fill-opacity="1"><g><text style="font: 20px Roboto, sans-serif; white-space: pre;" font-size="20px" font-family="Roboto, sans-serif"><tspan x="23.86" y="33.84" dominant-baseline="ideographic">Modelli </tspan><tspan x="11.97" y="57.85" dominant-baseline="ideographic">Generativi </tspan><tspan x="37.02" y="81.85" dominant-baseline="ideographic">LLM</tspan></text></g></g></g><g id="g-root-cn_v7cco41knvu9v-fill" data-item-order="0" transform="translate(224, 506.3076171875)"></g><g id="g-root-tx_gerarchi_zpot1w1jtuadp-fill" data-item-order="0" transform="translate(242, 38)"><g id="tx_gerarchi_zpot1w1jtuadp-fill-merged" stroke="none" fill="#f4f4f4" fill-opacity="1"><g><text style="font: bold 20px Roboto, sans-serif; white-space: pre;" font-weight="bold" font-size="20px" font-family="Roboto, sans-serif"><tspan x="16.33" y="33.85" dominant-baseline="ideographic">Gerarchia delle Tecnologie AI</tspan></text></g></g></g><g id="g-root-tf_1q6zk0k1jtswsm-stroke" data-item-order="-751500"></g><g id="g-root-sy_5_cu_Vector_1qbzcpg1jtuadk-stroke" data-item-order="-242054" transform="translate(254, 92.307373046875)"><g id="sy_5_cu_Vector_1qbzcpg1jtuadk-stroke" fill="none" stroke-linecap="round" stroke-linejoin="round" stroke-miterlimit="4" stroke="#2c2c2c" stroke-width="2" stroke-opacity="1"><g><path d="M 256 502C 391.862 502 502 391.862 502 256C 502 120.138 391.862 10 256 10C 120.138 10 10 120.138 10 256C 10 391.7287 120.3218 501.7842 256 502C 143.5177 501.7842 52 410.5328 52 298C 52 185.3339 143.3339 94 256 94C 368.6661 94 460 185.3339 460 298C 460 410.6661 368.6661 502 256 502ZM 256 502C 255.8666 502 256.1332 502.0007 256 502Z"></path></g></g></g><g id="g-root-sy_4_cu_Vector_1lw5ul01jtub5t-stroke" data-item-order="-242050" transform="translate(296, 176.307373046875)"><g id="sy_4_cu_Vector_1lw5ul01jtub5t-stroke" fill="none" stroke-linecap="round" stroke-linejoin="round" stroke-miterlimit="4" stroke="#2c2c2c" stroke-width="2" stroke-opacity="1"><g><path d="M 214 418C 326.6661 418 418 326.6661 418 214C 418 101.3339 326.6661 10 214 10C 101.3339 10 10 101.3339 10 214C 10 326.5328 101.5177 417.7842 214 418C 124.7137 417.7843 52 345.3368 52 256C 52 166.5299 124.5299 94 214 94C 303.4701 94 376 166.5299 376 256C 376 345.4701 303.4701 418 214 418ZM 214 418C 213.8666 418 214.1332 418.0007 214 418Z"></path></g></g></g><g id="g-root-sy_3_cu_Vector_1d15bf81jtu8sq-stroke" data-item-order="-242046" transform="translate(338, 260.307373046875)"><g id="sy_3_cu_Vector_1d15bf81jtu8sq-stroke" fill="none" stroke-linecap="round" stroke-linejoin="round" stroke-miterlimit="4" stroke="#2c2c2c" stroke-width="2" stroke-opacity="1"><g><path d="M 172 334C 261.4701 334 334 261.4701 334 172C 334 82.5299 261.4701 10 172 10C 82.5299 10 10 82.5299 10 172C 10 261.3368 82.7137 333.7843 172 334C 105.9097 333.7844 52 280.1408 52 214C 52 147.7258 105.7258 94 172 94C 238.2742 94 292 147.7258 292 214C 292 280.2742 238.2742 334 172 334ZM 172 334C 171.8666 334 172.1332 334.0007 172 334Z"></path></g></g></g><g id="g-root-sy_2_cu_Vector_18lbtas1jtu9kz-stroke" data-item-order="-242042" transform="translate(380, 344.307373046875)"><g id="sy_2_cu_Vector_18lbtas1jtu9kz-stroke" fill="none" stroke-linecap="round" stroke-linejoin="round" stroke-miterlimit="4" stroke="#2c2c2c" stroke-width="2" stroke-opacity="1"><g><path d="M 130 250C 196.2742 250 250 196.2742 250 130C 250 63.7258 196.2742 10 130 10C 63.7258 10 10 63.7258 10 130C 10 196.1408 63.9097 249.7844 130 250C 87.1057 249.7847 52 214.9449 52 172C 52 128.9218 86.9218 94 130 94C 173.0782 94 208 128.9218 208 172C 208 215.0782 173.0782 250 130 250ZM 130 250C 129.8666 250 130.1332 250.0007 130 250Z"></path></g></g></g><g id="g-root-sy_1_cu_Vector_zpot1w1jtuado-stroke" data-item-order="-242038" transform="translate(422, 428.307373046875)"><g id="sy_1_cu_Vector_zpot1w1jtuado-stroke" fill="none" stroke-linecap="round" stroke-linejoin="round" stroke-miterlimit="4" stroke="#2c2c2c" stroke-width="2" stroke-opacity="1"><g><path d="M 166 88C 166 131.0782 131.0782 166 88 166C 45.1057 165.7847 10 130.9449 10 88C 10 44.9218 44.9218 10 88 10C 131.0782 10 166 44.9218 166 88ZM 88 166C 87.8666 166 88.1332 166.0007 88 166Z"></path></g></g></g><g id="g-root-tx_intellig_v4vi8k1jtvp5b-stroke" data-item-order="0" transform="translate(398, 128.307373046875)"></g><g id="g-root-cn_1hgy7fo1kds2z3-stroke" data-item-order="0" transform="translate(224, 140.307373046875)"><g id="cn_1hgy7fo1kds2z3-stroke" fill="none" stroke-linecap="round" stroke-linejoin="round" stroke-miterlimit="4" stroke="#f4f4f4" stroke-width="2" stroke-opacity="1"><g><path d="M 10 10L 94 10L 178 10"></path></g></g></g><g id="g-root-tx_apprendi_i0wowk1jtu8ld-stroke" data-item-order="0" transform="translate(38, 200.307373046875)"></g><g id="g-root-cn_24mqs1ke3bic-stroke" data-item-order="0" transform="translate(224, 224.307373046875)"><g id="cn_24mqs1ke3bic-stroke" fill="none" stroke-linecap="round" stroke-linejoin="round" stroke-miterlimit="4" stroke="#f4f4f4" stroke-width="2" stroke-opacity="1"><g><path d="M 10 10L 103 10L 196 10"></path></g></g></g><g id="g-root-tx_machinel_1lr61w41jtvp5a-stroke" data-item-order="0" transform="translate(416, 212.307373046875)"></g><g id="g-root-tx_retineur_zrk8b81jtu9e0-stroke" data-item-order="0" transform="translate(14, 284.307373046875)"></g><g id="g-root-cn_40bhg1kduvii-stroke" data-item-order="0" transform="translate(224, 308.307373046875)"><g id="cn_40bhg1kduvii-stroke" fill="none" stroke-linecap="round" stroke-linejoin="round" stroke-miterlimit="4" stroke="#f4f4f4" stroke-width="2" stroke-opacity="1"><g><path d="M 10 10L 112 10L 214 10"></path></g></g></g><g id="g-root-tx_deeplear_8wj1g41jtvq4l-stroke" data-item-order="0" transform="translate(434, 296.307373046875)"></g><g id="g-root-tx_architet_1hi7rpw1jtua6n-stroke" data-item-order="0" transform="translate(38, 368.307373046875)"></g><g id="g-root-tx_architet_qnt1xw1jtvnrg-stroke" data-item-order="0" transform="translate(440, 368.307373046875)"></g><g id="g-root-cn_1hbcq3o1kdmf49-stroke" data-item-order="0" transform="translate(224, 392.307373046875)"><g id="cn_1hbcq3o1kdmf49-stroke" fill="none" stroke-linecap="round" stroke-linejoin="round" stroke-miterlimit="4" stroke="#f4f4f4" stroke-width="2" stroke-opacity="1"><g><path d="M 10 10L 115 10L 220 10"></path></g></g></g><g id="g-root-tx_campogen_1uux89g1jtuaru-stroke" data-item-order="0" transform="translate(62, 104.307373046875)"></g><g id="g-root-tx_modellia_93e9ec1jtuadq-stroke" data-item-order="0" transform="translate(14, 482.3076171875)"></g><g id="g-root-tx_modellig_1cua3h01jtvojn-stroke" data-item-order="0" transform="translate(452, 470.3076171875)"></g><g id="g-root-cn_v7cco41knvu9v-stroke" data-item-order="0" transform="translate(224, 506.3076171875)"><g id="cn_v7cco41knvu9v-stroke" fill="none" stroke-linecap="round" stroke-linejoin="round" stroke-miterlimit="4" stroke="#f4f4f4" stroke-width="2" stroke-opacity="1"><g><path d="M 10 10L 121 10L 232 10"></path></g></g></g><g id="g-root-tx_gerarchi_zpot1w1jtuadp-stroke" data-item-order="0" transform="translate(242, 38)"></g></g></g></svg>