<?xml version="1.0" encoding="utf-8" standalone="yes"?>
<!DOCTYPE svg PUBLIC "-//W3C//DTD SVG 1.1//EN" "http://www.w3.org/Graphics/SVG/1.1/DTD/svg11.dtd">
<svg width="744" height="576" viewBox="0 0 744 576" style="fill:none;stroke:none;fill-rule:evenodd;clip-rule:evenodd;stroke-linecap:round;stroke-linejoin:round;stroke-miterlimit:1.5;" version="1.1" xmlns="http://www.w3.org/2000/svg" xmlns:xlink="http://www.w3.org/1999/xlink"><style class="text-font-style fontImports" data-font-family="Roboto">@import url(https://fonts.googleapis.com/css2?family=Roboto:wght@400;700&amp;amp;display=block);</style><rect id="" x="0" y="0" width="744" height="576" style="fill: #2c2c2c;"></rect><g id="items" style="isolation: isolate"><g id="blend" style="mix-blend-mode: normal"><g id="g-root-tf_detk4m1bij56v-fill" data-item-order="-642816"><g id="tf_detk4m1bij56v-fill-merged" stroke="none" fill="#2c2c2c"><g><path d="M0 0 H744 V576 H0 V0"></path></g></g></g><g id="g-root-cp_1_g-1_147zew61bhy0p4-fill" data-item-order="-334069" transform="translate(38, 170)"></g><g id="g-root-cp_1_date_qwiwiu1bhy2a1-fill" data-item-order="-334062" transform="translate(38, 122)"><g id="cp_1_date_qwiwiu1bhy2a1-fill-merged" stroke="none" fill="#3e4e69"><g><path d="M10 10 H154 V58 H10 V10"></path></g></g></g><g id="g-root-cp_2_g-2_dbp9uu1bhzf9m-fill" data-item-order="-334049" transform="translate(206, 170)"></g><g id="g-root-cp_2_date_1_8vvrqe1bhzg1v-fill" data-item-order="-334042" transform="translate(206, 122)"><g id="cp_2_date_1_8vvrqe1bhzg1v-fill-merged" stroke="none" fill="#3b5649"><g><path d="M10 10 H154 V58 H10 V10"></path></g></g></g><g id="g-root-cp_3_g-3_8rhi1bhzguk-fill" data-item-order="-334029" transform="translate(374, 170)"></g><g id="g-root-cp_3_date_2_1um5sfa1bhze9x-fill" data-item-order="-334022" transform="translate(374, 122)"><g id="cp_3_date_2_1um5sfa1bhze9x-fill-merged" stroke="none" fill="#54502f"><g><path d="M10 10 H154 V58 H10 V10"></path></g></g></g><g id="g-root-cp_4_g-4_1lqis6e1bhzf2m-fill" data-item-order="-334009" transform="translate(542, 170)"></g><g id="g-root-cp_4_date_3_18f29t21bhzgnj-fill" data-item-order="-334002" transform="translate(542, 98)"><g id="cp_4_date_3_18f29t21bhzgnj-fill-merged" stroke="none" fill="#5c4938"><g><path d="M10 10 H154 V82 H10 V10"></path></g></g></g><g id="g-root-tx_2016_m9u6g61big9oo-fill" data-item-order="0" transform="translate(218, 134)"><g id="tx_2016_m9u6g61big9oo-fill-merged" stroke="none" fill="#43dd93"><g><text style="font: 20px Roboto, sans-serif; white-space: pre;" font-size="20px" font-family="Roboto, sans-serif"><tspan x="17.52" y="33.85" dominant-baseline="ideographic">2016</tspan></text></g></g></g><g id="g-root-tx_2012_8ydo2u1biex3c-fill" data-item-order="0" transform="translate(50, 134)"><g id="tx_2012_8ydo2u1biex3c-fill-merged" stroke="none" fill="#4f91fc"><g><text style="font: 20px Roboto, sans-serif; white-space: pre;" font-size="20px" font-family="Roboto, sans-serif"><tspan x="17.52" y="33.85" dominant-baseline="ideographic">2012</tspan></text></g></g></g><g id="g-root-tx_2017_zissh21bihqfg-fill" data-item-order="0" transform="translate(386, 134)"><g id="tx_2017_zissh21bihqfg-fill-merged" stroke="none" fill="#ffe711"><g><text style="font: 20px Roboto, sans-serif; white-space: pre;" font-size="20px" font-family="Roboto, sans-serif"><tspan x="17.52" y="33.85" dominant-baseline="ideographic">2017</tspan></text></g></g></g><g id="g-root-tx_pietremi_13zv8rq1bhzea0-fill" data-item-order="0" transform="translate(80, 38)"><g id="tx_pietremi_13zv8rq1bhzea0-fill-merged" stroke="none" fill="#439c72"><g><text style="font: bold 25px Roboto, sans-serif; white-space: pre;" font-weight="bold" font-size="25px" font-family="Roboto, sans-serif"><tspan x="17.56" y="43" dominant-baseline="ideographic">Pietre Miliari dell'Intelligenza Artificiale Moderna</tspan></text></g></g></g><g id="g-root-tx_november_4njyna1bihpn0-fill" data-item-order="0" transform="translate(554, 110)"><g id="tx_november_4njyna1bihpn0-fill-merged" stroke="none" fill="#f79438"><g><text style="font: 20px Roboto, sans-serif; white-space: pre;" font-size="20px" font-family="Roboto, sans-serif"><tspan x="15.59" y="33.84" dominant-baseline="ideographic">November </tspan><tspan x="23.34" y="57.85" dominant-baseline="ideographic">30, 2022</tspan></text></g></g></g><g id="g-root-ic_1_ddkp461bhzea1-fill" data-item-order="0" transform="translate(74, 182)"></g><g id="g-root-ic_1_zmjmzq1biew3p-fill" data-item-order="0" transform="translate(242, 182)"></g><g id="g-root-ic_1_1cxdo9y1bigbus-fill" data-item-order="0" transform="translate(410, 182)"></g><g id="g-root-ic_spee_1q6yrdy1bihpfu-fill" data-item-order="0" transform="translate(578, 182)"></g><g id="g-root-tx_alphagos_zmjmzq1bij2m8-fill" data-item-order="0" transform="translate(206, 410)"><g id="tx_alphagos_zmjmzq1bij2m8-fill-merged" stroke="none" fill="#f4f4f4"><g><text style="font: 15px Roboto, sans-serif; white-space: pre;" font-size="15px" font-family="Roboto, sans-serif"><tspan x="12.17" y="27.69" dominant-baseline="ideographic">AlphaGo sconfigge il </tspan><tspan x="27.18" y="45.69" dominant-baseline="ideographic">campione di Go, </tspan><tspan x="36.76" y="63.69" dominant-baseline="ideographic">mostrando la </tspan><tspan x="28.59" y="81.7" dominant-baseline="ideographic">creatività dell'AI</tspan></text></g></g></g><g id="g-root-tx_alphagos_18hk65i1bij47i-fill" data-item-order="0" transform="translate(206, 326)"><g id="tx_alphagos_18hk65i1bij47i-fill-merged" stroke="none" fill="#43dd93"><g><text style="font: 20px Roboto, sans-serif; white-space: pre;" font-size="20px" font-family="Roboto, sans-serif"><tspan x="41.48" y="33.84" dominant-baseline="ideographic">AlphaGo </tspan><tspan x="16.57" y="57.85" dominant-baseline="ideographic">Sconfigge Lee </tspan><tspan x="54.49" y="81.85" dominant-baseline="ideographic">Sedol</tspan></text></g></g></g><g id="g-root-tx_transfor_93dgrq1bij30s-fill" data-item-order="0" transform="translate(386, 326)"><g id="tx_transfor_93dgrq1bij30s-fill-merged" stroke="none" fill="#ffe711"><g><text style="font: 20px Roboto, sans-serif; white-space: pre;" font-size="20px" font-family="Roboto, sans-serif"><tspan x="16.8" y="33.84" dominant-baseline="ideographic">Architettura </tspan><tspan x="14.1" y="57.85" dominant-baseline="ideographic">Transformer</tspan></text></g></g></g><g id="g-root-tx_chatgptl_1qf2xie1bij474-fill" data-item-order="0" transform="translate(566, 326)"><g id="tx_chatgptl_1qf2xie1bij474-fill-merged" stroke="none" fill="#f79438"><g><text style="font: 20px Roboto, sans-serif; white-space: pre;" font-size="20px" font-family="Roboto, sans-serif"><tspan x="15.7" y="33.84" dominant-baseline="ideographic">ChatGPT </tspan><tspan x="17.18" y="57.85" dominant-baseline="ideographic">Lanciato</tspan></text></g></g></g><g id="g-root-tx_alexnetd_qp17hi1bij4eh-fill" data-item-order="0" transform="translate(32, 386)"><g id="tx_alexnetd_qp17hi1bij4eh-fill-merged" stroke="none" fill="#f4f4f4"><g><text style="font: 15px Roboto, sans-serif; white-space: pre;" font-size="15px" font-family="Roboto, sans-serif"><tspan x="20.61" y="27.68" dominant-baseline="ideographic">AlexNet dimostra la </tspan><tspan x="50.4" y="45.69" dominant-baseline="ideographic">superiorità </tspan><tspan x="22.66" y="63.69" dominant-baseline="ideographic">dell'apprendimento </tspan><tspan x="43.85" y="81.69" dominant-baseline="ideographic">profondo nel </tspan><tspan x="16.48" y="99.7" dominant-baseline="ideographic">riconoscimento delle </tspan><tspan x="55.07" y="117.7" dominant-baseline="ideographic">immagini</tspan></text></g></g></g><g id="g-root-tx_ilpapera_dkfx2e1bij4el-fill" data-item-order="0" transform="translate(374, 386)"><g id="tx_ilpapera_dkfx2e1bij4el-fill-merged" stroke="none" fill="#f4f4f4"><g><text style="font: 15px Roboto, sans-serif; white-space: pre;" font-size="15px" font-family="Roboto, sans-serif"><tspan x="13.24" y="27.68" dominant-baseline="ideographic">Il paper "Attention Is </tspan><tspan x="35.26" y="45.69" dominant-baseline="ideographic">All You Need" </tspan><tspan x="45.02" y="63.69" dominant-baseline="ideographic">introduce i </tspan><tspan x="26.33" y="81.69" dominant-baseline="ideographic">Transformer per </tspan><tspan x="22.55" y="99.7" dominant-baseline="ideographic">l'elaborazione del </tspan><tspan x="45.4" y="117.7" dominant-baseline="ideographic">linguaggio</tspan></text></g></g></g><g id="g-root-tx_openairi_1hjfx9i1bij4zt-fill" data-item-order="0" transform="translate(530, 386)"><g id="tx_openairi_1hjfx9i1bij4zt-fill-merged" stroke="none" fill="#f4f4f4"><g><text style="font: 15px Roboto, sans-serif; white-space: pre;" font-size="15px" font-family="Roboto, sans-serif"><tspan x="42.67" y="27.69" dominant-baseline="ideographic">OpenAI rilascia </tspan><tspan x="17.58" y="45.69" dominant-baseline="ideographic">ChatGPT, rendendo l'AI </tspan><tspan x="19.02" y="63.69" dominant-baseline="ideographic">generativa accessibile </tspan><tspan x="56.52" y="81.7" dominant-baseline="ideographic">al pubblico</tspan></text></g></g></g><g id="g-root-tx_alexnetv_hs592e1bij3sw-fill" data-item-order="0" transform="translate(38, 326)"><g id="tx_alexnetv_hs592e1bij3sw-fill-merged" stroke="none" fill="#4f91fc"><g><text style="font: 20px Roboto, sans-serif; white-space: pre;" font-size="20px" font-family="Roboto, sans-serif"><tspan x="17.25" y="33.84" dominant-baseline="ideographic">AlexNet Vince </tspan><tspan x="35.97" y="57.85" dominant-baseline="ideographic">ImageNet</tspan></text></g></g></g><g id="g-root-tf_detk4m1bij56v-stroke" data-item-order="-642816"></g><g id="g-root-cp_1_g-1_147zew61bhy0p4-stroke" data-item-order="-334069" transform="translate(38, 170)"><g id="cp_1_g-1_147zew61bhy0p4-stroke" fill="none" stroke-linecap="round" stroke-linejoin="round" stroke-miterlimit="4" stroke="#4f91fc" stroke-width="2"><g><path d="M 10 10L 154 10L 154 105L 10 105L 10 10ZM 82 106L 82 154"></path></g></g></g><g id="g-root-cp_1_date_qwiwiu1bhy2a1-stroke" data-item-order="-334062" transform="translate(38, 122)"><g id="cp_1_date_qwiwiu1bhy2a1-stroke" fill="none" stroke-linecap="round" stroke-linejoin="round" stroke-miterlimit="4" stroke="#4f91fc" stroke-width="2"><g><path d="M 10 10L 154 10M 154 58L 10 58M 10 10L 10 58M 154 10L 154 58"></path></g></g></g><g id="g-root-cp_2_g-2_dbp9uu1bhzf9m-stroke" data-item-order="-334049" transform="translate(206, 170)"><g id="cp_2_g-2_dbp9uu1bhzf9m-stroke" fill="none" stroke-linecap="round" stroke-linejoin="round" stroke-miterlimit="4" stroke="#43dd93" stroke-width="2"><g><path d="M 10 10L 154 10L 154 105L 10 105L 10 10ZM 82 106L 82 154"></path></g></g></g><g id="g-root-cp_2_date_1_8vvrqe1bhzg1v-stroke" data-item-order="-334042" transform="translate(206, 122)"><g id="cp_2_date_1_8vvrqe1bhzg1v-stroke" fill="none" stroke-linecap="round" stroke-linejoin="round" stroke-miterlimit="4" stroke="#43dd93" stroke-width="2"><g><path d="M 10 10L 154 10M 154 58L 10 58M 10 10L 10 58M 154 10L 154 58"></path></g></g></g><g id="g-root-cp_3_g-3_8rhi1bhzguk-stroke" data-item-order="-334029" transform="translate(374, 170)"><g id="cp_3_g-3_8rhi1bhzguk-stroke" fill="none" stroke-linecap="round" stroke-linejoin="round" stroke-miterlimit="4" stroke="#ffe711" stroke-width="2"><g><path d="M 10 10L 154 10L 154 105L 10 105L 10 10ZM 82 106L 82 154"></path></g></g></g><g id="g-root-cp_3_date_2_1um5sfa1bhze9x-stroke" data-item-order="-334022" transform="translate(374, 122)"><g id="cp_3_date_2_1um5sfa1bhze9x-stroke" fill="none" stroke-linecap="round" stroke-linejoin="round" stroke-miterlimit="4" stroke="#ffe711" stroke-width="2"><g><path d="M 10 10L 154 10M 154 58L 10 58M 10 10L 10 58M 154 10L 154 58"></path></g></g></g><g id="g-root-cp_4_g-4_1lqis6e1bhzf2m-stroke" data-item-order="-334009" transform="translate(542, 170)"><g id="cp_4_g-4_1lqis6e1bhzf2m-stroke" fill="none" stroke-linecap="round" stroke-linejoin="round" stroke-miterlimit="4" stroke="#f79438" stroke-width="2"><g><path d="M 10 10L 154 10L 154 105L 10 105L 10 10ZM 82 106L 82 154"></path></g></g></g><g id="g-root-cp_4_date_3_18f29t21bhzgnj-stroke" data-item-order="-334002" transform="translate(542, 98)"><g id="cp_4_date_3_18f29t21bhzgnj-stroke" fill="none" stroke-linecap="round" stroke-linejoin="round" stroke-miterlimit="4" stroke="#f79438" stroke-width="2"><g><path d="M 10 10L 154 10M 154 82L 10 82M 10 10L 10 82M 154 10L 154 82"></path></g></g></g><g id="g-root-tx_2016_m9u6g61big9oo-stroke" data-item-order="0" transform="translate(218, 134)"></g><g id="g-root-tx_2012_8ydo2u1biex3c-stroke" data-item-order="0" transform="translate(50, 134)"></g><g id="g-root-tx_2017_zissh21bihqfg-stroke" data-item-order="0" transform="translate(386, 134)"></g><g id="g-root-tx_pietremi_13zv8rq1bhzea0-stroke" data-item-order="0" transform="translate(80, 38)"></g><g id="g-root-tx_november_4njyna1bihpn0-stroke" data-item-order="0" transform="translate(554, 110)"></g><g id="g-root-ic_1_ddkp461bhzea1-stroke" data-item-order="0" transform="translate(74, 182)"><g id="ic_1_ddkp461bhzea1-stroke" fill="none" stroke-linecap="round" stroke-linejoin="round" stroke-miterlimit="4" stroke="#4f91fc" stroke-width="2"><g><path d="M 71.502998 19L 71.502998 11.5L 55.003002 11.5L 47.503002 23.5L 23.503 23.5L 23.503 41.5L 38.503002 41.5L 23.503 71.5L 23.503 80.5L 40.003002 80.5L 46.003002 68.5L 71.502998 68.5L 71.502998 50.5L 55.003002 50.5L 71.502998 19Z"></path></g></g></g><g id="g-root-ic_1_zmjmzq1biew3p-stroke" data-item-order="0" transform="translate(242, 182)"><g id="ic_1_zmjmzq1biew3p-stroke" fill="none" stroke-linecap="round" stroke-linejoin="round" stroke-miterlimit="4" stroke="#43dd93" stroke-width="2"><g><path d="M 19.75 39.813972C 23.89213 39.813972 27.25 36.4561 27.25 32.313972C 27.25 28.171841 23.89213 24.813971 19.75 24.813971C 15.60787 24.813971 12.25 28.171841 12.25 32.313972C 12.25 36.4561 15.60787 39.813972 19.75 39.813972ZM 32.950062 54.5905L 32.950062 56.990501C 32.950062 59.390495 30.85006 61.490501 28.45006 61.490501C 26.05006 61.490501 23.95006 59.390495 23.95006 56.990501L 23.95006 41.390499C 23.95006 40.190502 24.55006 38.090469 26.95006 37.190468C 29.95006 36.29047 32.05006 38.690529 32.35006 39.59053L 39.55006 54.290501C 39.85006 54.890499 40.150002 55.790501 40.150002 56.390499L 40.150002 65.990501L 45.25 72.5905C 46.75 74.690498 46.449997 77.390495 44.349998 78.890495C 42.550003 80.0905 40.150002 80.0905 38.650063 78.5905L 38.05006 77.990501L 32.05006 70.190498C 31.45006 69.5905 31.150061 68.990501 31.150061 68.0905L 31.149851 67.714005L 28.749849 69.214005L 25.44985 77.014C 24.54985 79.414001 21.84985 80.313995 19.44985 79.414001C 17.34985 78.514 16.44985 76.414001 16.749849 74.313995C 16.822599 73.804596 17.04985 73.414001 17.04985 73.414001L 20.94985 64.414001C 21.249849 63.514 22.063301 62.667397 22.749849 62.313999L 26.05246 60.760899M 79.75 48.094002L 72.25 48.094002C 67.75 48.094002 63.550003 45.094002 62.350002 40.594002C 61.149998 36.094147 56.949997 33.094151 52.449997 33.094151L 47.349998 33.094151C 44.949997 33.094151 42.849998 30.99415 42.849998 28.594151C 42.849998 26.194149 44.949997 24.094151 47.349998 24.094151L 62.350002 24.094151C 63.25 24.094151 64.149994 23.49415 64.75 22.594151C 65.050003 21.694151 65.049698 20.49415 64.149704 19.89415C 62.349701 18.094151 62.349701 15.39415 64.149704 13.594151C 65.949699 11.794141 68.649994 11.794141 70.449997 13.594151L 79.75 22.89415"></path></g></g></g><g id="g-root-ic_1_1cxdo9y1bigbus-stroke" data-item-order="0" transform="translate(410, 182)"><g id="ic_1_1cxdo9y1bigbus-stroke" fill="none" stroke-linecap="round" stroke-linejoin="round" stroke-miterlimit="4" stroke="#ffe711" stroke-width="2"><g><path d="M 19.521999 63.897999L 13 80.5M 22 80.5L 24.679001 65.5M 72.477997 63.897999L 79 80.5M 70 80.5L 67.320999 65.5M 52.995998 47.098L 63.82 55.756001M 28.18 55.756001L 39.000999 47.098M 22.932999 53.554001L 21.49 38.406998M 40.293999 67.335999L 28.921001 62.028999M 63.075996 62.031998L 51.706001 67.335999M 70.500999 38.5L 69.067001 53.538998M 51.547001 19.785999L 66.121002 25.785999M 25.875999 25.785999L 40.456001 19.782999M 17.5 59.5C 17.5 62.813713 20.186291 65.5 23.5 65.5C 26.813709 65.5 29.5 62.813713 29.5 59.5C 29.5 56.186291 26.813709 53.5 23.5 53.5C 20.186291 53.5 17.5 56.186291 17.5 59.5ZM 40 17.5C 40 20.813709 42.686291 23.5 46 23.5C 49.313709 23.5 52 20.813709 52 17.5C 52 14.186292 49.313709 11.5 46 11.5C 42.686291 11.5 40 14.186292 40 17.5ZM 13 31C 13 35.142136 16.357864 38.5 20.5 38.5C 24.642136 38.5 28 35.142136 28 31C 28 26.857864 24.642136 23.5 20.5 23.5C 16.357864 23.5 13 26.857864 13 31ZM 62.5 59.5C 62.5 62.813713 65.186287 65.5 68.5 65.5C 71.813713 65.5 74.5 62.813713 74.5 59.5C 74.5 56.186291 71.813713 53.5 68.5 53.5C 65.186287 53.5 62.5 56.186291 62.5 59.5ZM 64 31C 64 35.142136 67.357864 38.5 71.5 38.5C 75.642136 38.5 79 35.142136 79 31C 79 26.857864 75.642136 23.5 71.5 23.5C 67.357864 23.5 64 26.857864 64 31ZM 37.645 38.157997L 23.5 32.5M 68.5 32.5L 54.348999 38.160999M 46 23.5L 46 32.5M 49.320999 49.863998L 53.5 80.5M 38.5 80.5L 42.679001 49.863998M 37 41.5C 37 46.470566 41.029438 50.5 46 50.5C 50.970566 50.5 55 46.470566 55 41.5C 55 36.529438 50.970566 32.5 46 32.5C 41.029438 32.5 37 36.529438 37 41.5Z"></path></g></g></g><g id="g-root-ic_spee_1q6yrdy1bihpfu-stroke" data-item-order="0" transform="translate(578, 182)"><g id="ic_spee_1q6yrdy1bihpfu-stroke" fill="none" stroke-linecap="round" stroke-linejoin="round" stroke-miterlimit="4" stroke="#f79438" stroke-width="2"><g><path d="M 35.244999 29.5L 35.244999 14.962C 35.244999 13.049991 36.794991 11.5 38.707001 11.5L 76.782997 11.5C 78.695007 11.5 80.245003 13.049991 80.245003 14.962L 80.245003 41.037998C 80.245003 42.950008 78.695007 44.5 76.782997 44.5L 60.340004 44.5L 47.359001 53.5L 47.359001 44.5L 41.707001 44.5M 44.359001 20.5L 71.127998 20.5M 44.359001 28L 71.127998 28M 44.359001 35.5L 61.207001 35.5M 47.112999 77.287003C 47.111347 79.060806 45.673805 80.498344 43.900002 80.5L 14.971 80.5C 13.196023 80.5 11.756656 79.061974 11.755 77.287003L 11.755 69.25C 11.755 59.48616 19.670158 51.570999 29.434 51.570999C 39.197845 51.570999 47.112999 59.48616 47.112999 69.25ZM 22.684 62.5C 22.684 62.914215 23.019787 63.25 23.434 63.25C 23.848213 63.25 24.184 62.914215 24.184 62.5C 24.184 62.085785 23.848213 61.75 23.434 61.75C 23.019787 61.75 22.684 62.085785 22.684 62.5M 34.683998 62.481998C 34.683998 62.89621 35.019787 63.231998 35.433998 63.231998C 35.848213 63.231998 36.183998 62.89621 36.183998 62.481998C 36.183998 62.067787 35.848213 61.731998 35.433998 61.731998C 35.019787 61.731998 34.683998 62.067787 34.683998 62.481998M 29.434 51.570999L 29.434 45.141998M 24.612999 40.320999C 24.613001 42.983566 26.771435 45.142002 29.434 45.142002C 32.096565 45.142002 34.255001 42.983566 34.255001 40.320999C 34.255001 37.658436 32.096565 35.5 29.434 35.5C 26.771435 35.5 24.613001 37.658436 24.613001 40.320999M 11.755 72.445L 47.112999 72.445"></path></g></g></g><g id="g-root-tx_alphagos_zmjmzq1bij2m8-stroke" data-item-order="0" transform="translate(206, 410)"></g><g id="g-root-tx_alphagos_18hk65i1bij47i-stroke" data-item-order="0" transform="translate(206, 326)"></g><g id="g-root-tx_transfor_93dgrq1bij30s-stroke" data-item-order="0" transform="translate(386, 326)"></g><g id="g-root-tx_chatgptl_1qf2xie1bij474-stroke" data-item-order="0" transform="translate(566, 326)"></g><g id="g-root-tx_alexnetd_qp17hi1bij4eh-stroke" data-item-order="0" transform="translate(32, 386)"></g><g id="g-root-tx_ilpapera_dkfx2e1bij4el-stroke" data-item-order="0" transform="translate(374, 386)"></g><g id="g-root-tx_openairi_1hjfx9i1bij4zt-stroke" data-item-order="0" transform="translate(530, 386)"></g><g id="g-root-tx_alexnetv_hs592e1bij3sw-stroke" data-item-order="0" transform="translate(38, 326)"></g></g></g></svg>