<?xml version="1.0" encoding="utf-8" standalone="yes"?>
<!DOCTYPE svg PUBLIC "-//W3C//DTD SVG 1.1//EN" "http://www.w3.org/Graphics/SVG/1.1/DTD/svg11.dtd">
<svg style="fill:none;stroke:none;fill-rule:evenodd;clip-rule:evenodd;stroke-linecap:round;stroke-linejoin:round;stroke-miterlimit:1.5;" version="1.1" xmlns="http://www.w3.org/2000/svg" xmlns:xlink="http://www.w3.org/1999/xlink" width="840" height="663" viewBox="0 0 840 663"><style class="text-font-style fontImports" data-font-family="Roboto">@import url(https://fonts.googleapis.com/css2?family=Roboto:wght@400;700&amp;amp;display=block);</style><rect id="" x="0" y="0" width="840" height="663" style="fill: #2c2c2c;"></rect><g id="items" style="isolation: isolate"><g id="blend" style="mix-blend-mode: normal"><g id="g-root-tf_v8latx1ko1i4j-fill" data-item-order="-835380"><g id="tf_v8latx1ko1i4j-fill-merged" stroke="none" fill="#2c2c2c" fill-opacity="1"><g><path d="M0 0 H840 V663 H0 V0"></path></g></g></g><g id="g-root-cp_4_g-4_metpud1ko2vbj-fill" data-item-order="-449054" transform="translate(212.52700805664062, 134)"><g id="cp_4_g-4_metpud1ko2vbj-fill-merged" stroke="none" fill="#ffe711" fill-opacity="1"><g><path d="M15.471 98C15.471 134.451 45.02 164 81.471 164C117.922 164 147.471 134.451 147.471 98C147.471 61.549 117.922 32 81.471 32C45.02 32 15.471 61.549 15.471 98"></path></g></g><g id="cp_4_g-4_metpud1ko2vbj-fill-merged" stroke="none" fill="#ffe711" fill-opacity="1"><g><path d="M233.472 51L189.472 10 V35.905C168.403 37.273 147.672 42.09 128.114 50.191C127.848 50.301 127.583 50.412 127.318 50.523C136.769 59.65 143.501 71.574 146.184 84.96C160.071 79.563 174.653 76.215 189.472 75.008 V92L233.472 51 M63.323 161.473C50.282 157.752 38.89 150.12 30.497 139.926C28.018 144.726 25.737 149.635 23.663 154.642C16.512 171.907 11.919 195.086 10 213.604L25.472 197L48.429 221.637C49.678 205.476 53.472 184.588 59.694 169.567C60.827 166.831 62.038 164.133 63.323 161.473"></path></g></g></g><g id="g-root-cp_3_g-3_hz07px1ko2w3s-fill" data-item-order="-449048" transform="translate(187, 321)"><g id="cp_3_g-3_hz07px1ko2w3s-fill-merged" stroke="none" fill="#a6da37" fill-opacity="1"><g><path d="M41 163C41 199.451 70.549 229 107 229C143.451 229 173 199.451 173 163C173 126.549 143.451 97 107 97C70.549 97 41 126.549 41 163"></path></g></g><g id="cp_3_g-3_hz07px1ko2w3s-fill-merged" stroke="none" fill="#a6da37" fill-opacity="1"><g><path d="M51 10L92 54 H74.008C75.306 69.941 79.082 85.609 85.223 100.433C85.252 100.504 85.282 100.575 85.311 100.646C72.318 105.165 61.173 113.631 53.31 124.607C51.858 121.564 50.484 118.48 49.191 115.358C41.09 95.8 36.273 75.069 34.905 54 H10L51 10 M145.835 216.371C148.409 217.573 151.012 218.719 153.642 219.809C171.626 227.258 195.601 231.931 214.919 233.698L197 217L220.57 195.037C204.775 193.81 184.452 190.151 169.531 184.171C165.118 197.21 156.742 208.421 145.835 216.371"></path></g></g></g><g id="g-root-cp_2_g-2_hz07px1ko2w3t-fill" data-item-order="-449042" transform="translate(374, 358.435546875)"><g id="cp_2_g-2_hz07px1ko2w3t-fill-merged" stroke="none" fill="#43dd93" fill-opacity="1"><g><path d="M106 125.564C106 162.014 135.549 191.564 172 191.564C208.451 191.564 238 162.014 238 125.564C238 89.113 208.451 59.564 172 59.564C135.549 59.564 106 89.113 106 125.564"></path></g></g><g id="cp_2_g-2_hz07px1ko2w3t-fill-merged" stroke="none" fill="#43dd93" fill-opacity="1"><g><path d="M217 34.564L232.585 17.839C230.737 36.744 226.104 60.308 218.809 77.921C218.7 78.184 218.591 78.446 218.481 78.707C209.187 69.487 197.164 63.013 183.731 60.603C189.502 45.532 192.998 25.637 194.111 10L217 34.564 M108.167 142.401C105.301 143.803 102.388 145.117 99.433 146.341C84.92 152.353 69.596 156.098 54 157.471 V138.564L10 179.564L54 220.564 V196.591C74.725 195.138 95.109 190.345 114.358 182.372C119.325 180.315 124.195 178.055 128.958 175.599C118.989 167.016 111.614 155.505 108.167 142.401"></path></g></g></g><g id="g-root-cp_1_g-1_dj6plh1ko2ww2-fill" data-item-order="-449036" transform="translate(410.3690185546875, 156)"><g id="cp_1_g-1_dj6plh1ko2ww2-fill-merged" stroke="none" fill="#1ac3fb" fill-opacity="1"><g><path d="M69.631 76C69.631 112.451 99.18 142 135.631 142C172.082 142 201.631 112.451 201.631 76C201.631 39.549 172.082 10 135.631 10C99.18 10 69.631 39.549 69.631 76"></path></g></g><g id="cp_1_g-1_dj6plh1ko2ww2-fill-merged" stroke="none" fill="#1ac3fb" fill-opacity="1"><g><path d="M179.305 125.485C169.577 134.077 157.295 139.846 143.745 141.507C144.675 143.505 145.564 145.526 146.409 147.567C152.421 162.081 156.166 177.404 157.539 193 H139.632L180.632 237L221.632 193 H196.659C195.206 172.276 190.413 151.891 182.44 132.642C181.443 130.234 180.397 127.847 179.305 125.485 M86.481 31.951C83.684 30.631 80.853 29.377 77.99 28.191C61.102 21.196 38.339 16.649 20.24 14.658L35.632 29L10 52.884C26.504 54.052 47.736 57.873 63.065 64.223C65.468 65.218 67.844 66.273 70.188 67.387C71.952 53.859 77.811 41.618 86.481 31.951"></path></g></g></g><g id="g-root-tx_ciclodir_8cob91ko2vb7-fill" data-item-order="0" transform="translate(224, 38)"><g id="tx_ciclodir_8cob91ko2vb7-fill-merged" stroke="none" fill="#f4f4f4" fill-opacity="1"><g><text style="font: bold 25px Roboto, sans-serif; white-space: pre;" font-weight="bold" font-size="25px" font-family="Roboto, sans-serif"><tspan x="15.59" y="43" dominant-baseline="ideographic">Ciclo di Reinforcement Learning</tspan></text></g></g></g><g id="g-root-tx_aggiorna_91hvdh1knklqm-fill" data-item-order="0" transform="translate(14, 156)"><g id="tx_aggiorna_91hvdh1knklqm-fill-merged" stroke="none" fill="#ffe711" fill-opacity="1"><g><text style="font: bold 20px Roboto, sans-serif; white-space: pre;" font-weight="bold" font-size="20px" font-family="Roboto, sans-serif"><tspan x="12.12" y="33.85" dominant-baseline="ideographic">Aggiorna la Politica</tspan></text></g></g></g><g id="g-root-tx_lagentea_zp1d791knknwn-fill" data-item-order="0" transform="translate(14, 192)"><g id="tx_lagentea_zp1d791knknwn-fill-merged" stroke="none" fill="#f4f4f4" fill-opacity="1"><g><text style="font: 15px Roboto, sans-serif; white-space: pre;" font-size="15px" font-family="Roboto, sans-serif"><tspan x="69.98" y="30.69" dominant-baseline="ideographic">L'agente adatta la </tspan><tspan x="21.76" y="48.69" dominant-baseline="ideographic">strategia per ricompense </tspan><tspan x="144.48" y="66.7" dominant-baseline="ideographic">future.</tspan></text></g></g></g><g id="g-root-ic_2_v6pvkl1ko5o1z-fill" data-item-order="0" transform="translate(254, 192)"></g><g id="g-root-ic_eye_4pf4lx1ko2wp0-fill" data-item-order="0" transform="translate(506, 192)"></g><g id="g-root-tx_osserval_hs52xh1knklj6-fill" data-item-order="0" transform="translate(626, 180)"><g id="tx_osserval_hs52xh1knklj6-fill-merged" stroke="none" fill="#1ac3fb" fill-opacity="1"><g><text style="font: bold 20px Roboto, sans-serif; white-space: pre;" font-weight="bold" font-size="20px" font-family="Roboto, sans-serif"><tspan x="12" y="33.85" dominant-baseline="ideographic">Osserva lo Stato</tspan></text></g></g></g><g id="g-root-tx_lagentep_ddkiz91knknpn-fill" data-item-order="0" transform="translate(626, 216)"><g id="tx_lagentep_ddkiz91knknpn-fill-merged" stroke="none" fill="#f4f4f4" fill-opacity="1"><g><text style="font: 15px Roboto, sans-serif; white-space: pre;" font-size="15px" font-family="Roboto, sans-serif"><tspan x="12" y="27.69" dominant-baseline="ideographic">L'agente percepisce </tspan><tspan x="12" y="45.69" dominant-baseline="ideographic">l'ambiente.</tspan></text></g></g></g><g id="g-root-tx_riceviri_v63hn91knknik-fill" data-item-order="0" transform="translate(14, 446)"><g id="tx_riceviri_v63hn91knknik-fill-merged" stroke="none" fill="#a6da37" fill-opacity="1"><g><text style="font: bold 20px Roboto, sans-serif; white-space: pre;" font-weight="bold" font-size="20px" font-family="Roboto, sans-serif"><tspan x="17.03" y="33.85" dominant-baseline="ideographic">Ricevi Ricompensa</tspan></text></g></g></g><g id="g-root-ic_star_1uuw6c51ko4aoe-fill" data-item-order="0" transform="translate(254, 444)"></g><g id="g-root-ic_hand_91hs7p1ko4c1x-fill" data-item-order="0" transform="translate(506, 444)"></g><g id="g-root-tx_prendiun_18mjpjp1ko5p1k-fill" data-item-order="0" transform="translate(626, 446)"><g id="tx_prendiun_18mjpjp1ko5p1k-fill-merged" stroke="none" fill="#43dd93" fill-opacity="1"><g><text style="font: bold 20px Roboto, sans-serif; white-space: pre;" font-weight="bold" font-size="20px" font-family="Roboto, sans-serif"><tspan x="12" y="33.85" dominant-baseline="ideographic">Prendi un'Azione</tspan></text></g></g></g><g id="g-root-tx_lagenteo_18isy6t1knko3p-fill" data-item-order="0" transform="translate(14, 482)"><g id="tx_lagenteo_18isy6t1knko3p-fill-merged" stroke="none" fill="#f4f4f4" fill-opacity="1"><g><text style="font: 15px Roboto, sans-serif; white-space: pre;" font-size="15px" font-family="Roboto, sans-serif"><tspan x="16.88" y="27.69" dominant-baseline="ideographic">L'agente ottiene feedback </tspan><tspan x="108.91" y="45.69" dominant-baseline="ideographic">per l'azione.</tspan></text></g></g></g><g id="g-root-tx_lagented_9lmhh1ko5o8x-fill" data-item-order="0" transform="translate(626, 482)"><g id="tx_lagented_9lmhh1ko5o8x-fill-merged" stroke="none" fill="#f4f4f4" fill-opacity="1"><g><text style="font: 15px Roboto, sans-serif; white-space: pre;" font-size="15px" font-family="Roboto, sans-serif"><tspan x="12" y="27.69" dominant-baseline="ideographic">L'agente decide un'azione </tspan><tspan x="12" y="45.69" dominant-baseline="ideographic">basata sulla politica.</tspan></text></g></g></g><g id="g-root-tf_v8latx1ko1i4j-stroke" data-item-order="-835380"></g><g id="g-root-cp_4_g-4_metpud1ko2vbj-stroke" data-item-order="-449054" transform="translate(212.52700805664062, 134)"><g id="cp_4_g-4_metpud1ko2vbj-stroke" fill="none" stroke-linecap="round" stroke-linejoin="round" stroke-miterlimit="4" stroke="#2c2c2c" stroke-width="2" stroke-opacity="1"><g><path d="M 15.470703 98C 15.470705 134.450795 45.019912 164.000002 81.470705 164.000002C 117.921499 164.000002 147.470705 134.450795 147.470705 98.000002C 147.470705 61.549208 117.921499 32.000002 81.470705 32.000002C 45.019912 32.000002 15.470705 61.549208 15.470705 98.000002"></path></g></g><g id="cp_4_g-4_metpud1ko2vbj-stroke" fill="none" stroke-linecap="round" stroke-linejoin="round" stroke-miterlimit="4" stroke="#2c2c2c" stroke-width="2" stroke-opacity="1"><g><path d="M 233.4716 51L 189.4716 10L 189.4716 35.9052C 168.4028 37.2726 147.672 42.09 128.1139 50.1913C 127.8484 50.3012 127.5833 50.4117 127.3185 50.5228C 136.7686 59.6504 143.5011 71.5735 146.1838 84.9601C 160.0711 79.5626 174.6533 76.2149 189.4716 75.0081L 189.4716 92L 233.4716 51ZM 63.3232 161.4734C 50.2822 157.7517 38.8904 150.1196 30.4968 139.9261C 28.0176 144.7257 25.737 149.635 23.663 154.6421C 16.5117 171.9069 11.9193 195.0856 10 213.6038L 25.4717 197L 48.4293 221.6374C 49.6779 205.4763 53.4723 184.588 59.6943 169.5668C 60.8274 166.8314 62.0376 164.1326 63.3232 161.4734Z"></path></g></g></g><g id="g-root-cp_3_g-3_hz07px1ko2w3s-stroke" data-item-order="-449048" transform="translate(187, 321)"><g id="cp_3_g-3_hz07px1ko2w3s-stroke" fill="none" stroke-linecap="round" stroke-linejoin="round" stroke-miterlimit="4" stroke="#2c2c2c" stroke-width="2" stroke-opacity="1"><g><path d="M 41 163C 41.000002 199.450795 70.549208 229.000002 107.000002 229.000002C 143.450795 229.000002 173.000002 199.450795 173.000002 163.000002C 173.000002 126.549208 143.450795 97.000002 107.000002 97.000002C 70.549208 97.000002 41.000002 126.549208 41.000002 163.000002"></path></g></g><g id="cp_3_g-3_hz07px1ko2w3s-stroke" fill="none" stroke-linecap="round" stroke-linejoin="round" stroke-miterlimit="4" stroke="#2c2c2c" stroke-width="2" stroke-opacity="1"><g><path d="M 51 10L 92 54L 74.0081 54C 75.3064 69.9414 79.0824 85.6095 85.2225 100.4333C 85.252 100.5043 85.2815 100.5754 85.3111 100.6465C 72.3183 105.1653 61.1728 113.6305 53.3098 124.6069C 51.8579 121.5639 50.4844 118.4799 49.1912 115.3579C 41.09 95.7998 36.2726 75.0688 34.9052 54L 10 54L 51 10ZM 145.835 216.3709C 148.4092 217.5731 151.0122 218.7194 153.6421 219.8088C 171.626 227.2579 195.6015 231.9306 214.9194 233.6976L 197 217L 220.5698 195.0372C 204.7751 193.8099 184.4522 190.1509 169.5314 184.1705C 165.1184 197.2096 156.7415 208.4212 145.835 216.3709Z"></path></g></g></g><g id="g-root-cp_2_g-2_hz07px1ko2w3t-stroke" data-item-order="-449042" transform="translate(374, 358.435546875)"><g id="cp_2_g-2_hz07px1ko2w3t-stroke" fill="none" stroke-linecap="round" stroke-linejoin="round" stroke-miterlimit="4" stroke="#2c2c2c" stroke-width="2" stroke-opacity="1"><g><path d="M 106 125.563629C 106.000002 162.014425 135.549208 191.563631 172.000002 191.563631C 208.450795 191.563631 238.000002 162.014425 238.000002 125.563631C 238.000002 89.112838 208.450795 59.563631 172.000002 59.563631C 135.549208 59.563631 106.000002 89.112838 106.000002 125.563631"></path></g></g><g id="cp_2_g-2_hz07px1ko2w3t-stroke" fill="none" stroke-linecap="round" stroke-linejoin="round" stroke-miterlimit="4" stroke="#2c2c2c" stroke-width="2" stroke-opacity="1"><g><path d="M 217 34.5636L 232.5846 17.8386C 230.7367 36.7442 226.1043 60.3084 218.8088 77.9214C 218.7001 78.1837 218.5909 78.4457 218.4812 78.7074C 209.1867 69.4869 197.1638 63.0126 183.7306 60.6029C 189.5021 45.5315 192.9979 25.6372 194.1112 10L 217 34.5636ZM 108.167 142.4008C 105.301 143.8027 102.3885 145.117 99.4333 146.3411C 84.9196 152.3528 69.5965 156.0983 54 157.4708L 54 138.5636L 10 179.5636L 54 220.5636L 54 196.5909C 74.7246 195.1377 95.1093 190.3454 114.3579 182.3724C 119.3246 180.3151 124.1951 178.0546 128.9576 175.5986C 118.9894 167.0157 111.6142 155.5047 108.167 142.4008Z"></path></g></g></g><g id="g-root-cp_1_g-1_dj6plh1ko2ww2-stroke" data-item-order="-449036" transform="translate(410.3690185546875, 156)"><g id="cp_1_g-1_dj6plh1ko2ww2-stroke" fill="none" stroke-linecap="round" stroke-linejoin="round" stroke-miterlimit="4" stroke="#2c2c2c" stroke-width="2" stroke-opacity="1"><g><path d="M 69.630859 76C 69.630861 112.450795 99.180068 142.000002 135.630861 142.000002C 172.081655 142.000002 201.630861 112.450795 201.630861 76.000002C 201.630861 39.549208 172.081655 10.000002 135.630861 10.000002C 99.180068 10.000002 69.630861 39.549208 69.630861 76.000002"></path></g></g><g id="cp_1_g-1_dj6plh1ko2ww2-stroke" fill="none" stroke-linecap="round" stroke-linejoin="round" stroke-miterlimit="4" stroke="#2c2c2c" stroke-width="2" stroke-opacity="1"><g><path d="M 179.3046 125.485066C 169.5765 134.077166 157.2955 139.845266 143.7447 141.506266C 144.6752 143.505266 145.5636 145.525866 146.409 147.566866C 152.4208 162.080466 156.1662 177.403566 157.5387 193.000066L 139.6316 193.000066L 180.6316 237.000066L 221.6316 193.000066L 196.6589 193.000066C 195.2057 172.275366 190.4134 151.890766 182.4404 132.642066C 181.4426 130.233366 180.3971 127.847166 179.3046 125.485066ZM 86.4815 31.950566C 83.6843 30.630966 80.8529 29.377366 77.9895 28.191266C 61.1015 21.196066 38.3392 16.649266 20.2399 14.657766L 35.6316 28.999966L 10 52.883966C 26.5036 54.051566 47.7357 57.872966 63.0648 64.222566C 65.4683 65.218066 67.8436 66.273266 70.1885 67.386766C 71.9516 53.858966 77.8111 41.618466 86.4815 31.950566Z"></path></g></g></g><g id="g-root-tx_ciclodir_8cob91ko2vb7-stroke" data-item-order="0" transform="translate(224, 38)"></g><g id="g-root-tx_aggiorna_91hvdh1knklqm-stroke" data-item-order="0" transform="translate(14, 156)"></g><g id="g-root-tx_lagentea_zp1d791knknwn-stroke" data-item-order="0" transform="translate(14, 192)"></g><g id="g-root-ic_2_v6pvkl1ko5o1z-stroke" data-item-order="0" transform="translate(254, 192)"><g id="ic_2_v6pvkl1ko5o1z-stroke" fill="none" stroke-linecap="round" stroke-linejoin="round" stroke-miterlimit="4" stroke="#2c2c2c" stroke-width="2" stroke-opacity="1"><g><path d="M 23.125 45.625L 23.125 56.875L 11.875 56.875M 56.875 34.375L 56.875 23.125L 68.125 23.125M 57.625 23.125C 61.875 27.625 64.375 33.375 64.375 40.125C 64.375 53.625 53.375 64.625 39.875 64.625C 36.625 64.625 33.37505 63.875 30.37505 62.875M 22.375 56.875C 18.125 52.375 15.625 46.625 15.625 39.875C 15.625 26.37505 26.625 15.37505 40.125 15.37505C 43.375 15.37505 46.625 16.12505 49.625 17.12505M 39.875 41.375C 39.18475 41.375 38.625 40.815498 38.625 40.125C 38.625 39.43475 39.18475 38.875 39.875 38.875M 39.874748 41.375C 40.564999 41.375 41.124748 40.815498 41.124748 40.125C 41.124748 39.43475 40.564999 38.875 39.874748 38.875M 10 10M 42.125 29.625126L 42.875 32.125126C 43.125 33.125122 44.125 33.625126 44.875 33.375126L 47.375 32.875126C 49.625 32.375126 51.125 35.125 49.625 36.875L 47.875 38.875C 47.125 39.625 47.125 40.625 47.875 41.375L 49.625 43.375C 51.125 45.125 49.625 47.875 47.375 47.375L 44.875 46.875C 43.875 46.625 43.125 47.125 42.875 48.125L 42.125 50.625C 41.375 52.875 38.375 52.875 37.625 50.625L 36.875 48.125C 36.625 47.125 35.625 46.625 34.874977 46.875L 32.374977 47.375C 30.124973 47.875 28.624975 45.125 30.124973 43.375L 31.874977 41.375C 32.624973 40.625 32.624973 39.625 31.874977 38.875L 30.124973 36.875C 28.624975 35.125 30.124973 32.375126 32.374977 32.875126L 34.874977 33.375126C 35.875 33.625126 36.625 33.125122 36.875 32.125126L 37.625 29.625126C 38.375 27.375124 41.625 27.375124 42.125 29.625126Z"></path></g></g></g><g id="g-root-ic_eye_4pf4lx1ko2wp0-stroke" data-item-order="0" transform="translate(506, 192)"><g id="ic_eye_4pf4lx1ko2wp0-stroke" fill="none" stroke-linecap="round" stroke-linejoin="round" stroke-miterlimit="4" stroke="#2c2c2c" stroke-width="2" stroke-opacity="1"><g><path d="M 39.999001 12.088107C 32.327827 11.960603 24.394051 17.319574 19.406151 22.809851C 18.882601 23.3911 18.592875 24.145676 18.592875 24.92795C 18.592875 25.710224 18.882601 26.4648 19.406151 27.046024C 24.283674 32.420227 32.196526 37.904747 39.999001 37.775501C 47.801498 37.904747 55.714249 32.420227 60.5975 27.046024C 61.121002 26.4648 61.410751 25.710224 61.410751 24.92795C 61.410751 24.145676 61.121002 23.3911 60.5975 22.809851C 55.604 17.319574 47.67025 11.960603 39.999001 12.088107ZM 45.98925 24.933025C 45.98925 26.117626 45.638 27.27565 44.979752 28.260624C 44.321499 29.2456 43.38625 30.013298 42.291752 30.466625C 41.19725 30.91995 39.993 31.038574 38.831001 30.807476C 37.66925 30.576351 36.602001 30.005901 35.7645 29.168251C 34.926723 28.330601 34.356274 27.263376 34.125175 26.101524C 33.894073 24.939674 34.012676 23.735374 34.466026 22.640924C 34.91935 21.546474 35.687 20.61105 36.672001 19.9529C 37.657001 19.29475 38.814999 18.943476 39.9995 18.943476C 41.588249 18.943476 43.1115 19.574524 44.234749 20.697775C 45.358002 21.821024 45.98925 23.3445 45.98925 24.933025ZM 50.51125 61.171997C 55.529999 60.175499 59.819752 58.488251 62.838001 56.32325C 65.856003 54.158249 67.466995 51.613003 67.466995 49.009251C 67.466995 45.517498 64.572998 42.169003 59.422001 39.700249M 20.57795 39.700249C 18.039675 40.916752 16.010925 42.366249 14.623875 43.971249C 12.544975 46.376751 12.001038 49.02375 13.06085 51.577499C 14.120675 54.131248 16.73665 56.476997 20.577976 58.318249C 24.419275 60.159248 29.313425 61.41325 34.641499 61.921001C 36.414749 62.090248 38.209499 62.174 40 62.174L 42.415501 62.174M 10 10M 37.130001 56.434002L 42.869999 62.174L 37.130001 67.914001"></path></g></g></g><g id="g-root-tx_osserval_hs52xh1knklj6-stroke" data-item-order="0" transform="translate(626, 180)"></g><g id="g-root-tx_lagentep_ddkiz91knknpn-stroke" data-item-order="0" transform="translate(626, 216)"></g><g id="g-root-tx_riceviri_v63hn91knknik-stroke" data-item-order="0" transform="translate(14, 446)"></g><g id="g-root-ic_star_1uuw6c51ko4aoe-stroke" data-item-order="0" transform="translate(254, 444)"><g id="ic_star_1uuw6c51ko4aoe-stroke" fill="none" stroke-linecap="round" stroke-linejoin="round" stroke-miterlimit="4" stroke="#2c2c2c" stroke-width="2" stroke-opacity="1"><g><path d="M 55.709999 63.832504C 55.709999 62.451786 54.590714 61.332504 53.209999 61.332504L 28.209999 61.332504C 26.829288 61.332504 25.709999 62.451786 25.709999 63.832504L 25.709999 68.832504L 55.709999 68.832504ZM 50.709999 61.332504L 50.709999 51.332504C 50.652309 49.88414 49.676239 48.634361 48.285 48.227497L 40.709999 46.3325L 33.134998 48.227501C 31.743307 48.63369 30.766926 49.883858 30.710001 51.332497L 30.710001 61.332504M 29.0825 14.71L 38.112499 18.299999L 43.407501 13C 43.934177 12.431516 44.760899 12.254571 45.474121 12.557677C 46.187347 12.860784 46.633736 13.578775 46.59 14.3525L 46.09 23.0425L 54.5 26.360001C 55.280262 26.680162 55.768227 27.463573 55.711521 28.305061C 55.654823 29.146549 55.066162 29.85741 54.249996 30.07L 44.6325 32.75L 41.947502 42.375C 41.734913 43.191162 41.024048 43.779823 40.182564 43.836525C 39.341072 43.893227 38.557663 43.405262 38.237499 42.625L 34.924999 34.212502L 26.24 34.712502C 25.465588 34.759579 24.745052 34.315193 24.439501 33.602051C 24.133949 32.888912 24.309231 32.060703 24.877501 31.532499L 30.172501 26.25L 26.584999 17.2075C 26.368679 16.500229 26.560347 15.731316 27.083332 15.208331C 27.606316 14.685347 28.375229 14.49368 29.0825 14.71Z"></path></g></g></g><g id="g-root-ic_hand_91hs7p1ko4c1x-stroke" data-item-order="0" transform="translate(506, 444)"><g id="ic_hand_91hs7p1ko4c1x-stroke" fill="none" stroke-linecap="round" stroke-linejoin="round" stroke-miterlimit="4" stroke="#2c2c2c" stroke-width="2" stroke-opacity="1"><g><path d="M 47.904999 43.7075L 47.904999 41.275002C 50.790215 39.111824 52.488091 35.71608 52.487495 32.110001L 52.487503 18.455M 30.7225 39.764999L 30.7225 36.75C 28.745001 35.739998 24.995001 33.68 24.995001 30.25L 24.995001 26.467499C 24.995001 24.57 29.969999 22.050001 31.8675 22.050001M 31.8675 27.24L 31.8675 15.49C 31.83379 14.240248 32.481262 13.070728 33.558308 12.435918C 34.635357 11.801107 35.972145 11.801107 37.049191 12.435918C 38.12624 13.070728 38.773712 14.240248 38.740002 15.49L 38.740002 19.497499M 38.740002 17.217501C 38.740002 15.319021 40.279022 13.78 42.177502 13.780001L 42.177502 13.78C 44.075005 13.78138 45.612503 15.319997 45.612503 17.217501L 45.612499 21.227501M 45.615002 18.934999C 45.616379 17.038473 47.153477 15.501379 49.050003 15.5L 49.049999 15.5C 50.947502 15.5 52.486118 17.037498 52.487503 18.934999L 52.487503 24.665001M 18.195 55.412502L 18.195 47.950001C 18.18343 47.154839 18.494204 46.388851 19.056526 45.826527C 19.618851 45.264202 20.384838 44.95343 21.18 44.965L 31.059999 46.115002C 32.675224 46.191895 33.966957 47.484711 34.0425 49.099998L 34.0425 55.59C 34.040264 57.441566 33.607178 59.267216 32.777496 60.922493L 31.052498 64.360001L 31.057501 67.949997M 10 10M 18.205 50.324997L 16.797501 50.32C 15.572089 50.32061 14.397743 50.810928 13.535719 51.68187C 12.673695 52.552814 12.195493 53.732147 12.2075 54.9575L 12.235 57.77L 15.2125 64.362503L 15.2125 67.949997M 51.945 55.412502L 51.945 47.950001C 51.934128 47.155045 52.245125 46.389465 52.807293 45.827297C 53.369465 45.265125 54.135048 44.954124 54.93 44.965L 64.809998 46.115002C 66.425735 46.190742 67.718117 47.484203 67.792503 49.100002L 67.792503 55.59C 67.790268 57.441566 67.35717 59.267216 66.527496 60.922493L 64.802498 64.360001L 64.807503 67.949997M 10 10M 51.954998 50.324997L 50.547501 50.32C 49.32188 50.319935 48.147141 50.810036 47.284969 51.681129C 46.422798 52.552223 45.944817 53.731949 45.957497 54.9575L 45.987503 57.77L 48.962502 64.362503L 48.962502 67.949997"></path></g></g></g><g id="g-root-tx_prendiun_18mjpjp1ko5p1k-stroke" data-item-order="0" transform="translate(626, 446)"></g><g id="g-root-tx_lagenteo_18isy6t1knko3p-stroke" data-item-order="0" transform="translate(14, 482)"></g><g id="g-root-tx_lagented_9lmhh1ko5o8x-stroke" data-item-order="0" transform="translate(626, 482)"></g></g></g></svg>