<?xml version="1.0" encoding="utf-8" standalone="yes"?>
<!DOCTYPE svg PUBLIC "-//W3C//DTD SVG 1.1//EN" "http://www.w3.org/Graphics/SVG/1.1/DTD/svg11.dtd">
<svg width="1092" height="601" viewBox="0 0 1092 601" style="fill:none;stroke:none;fill-rule:evenodd;clip-rule:evenodd;stroke-linecap:round;stroke-linejoin:round;stroke-miterlimit:1.5;" version="1.1" xmlns="http://www.w3.org/2000/svg" xmlns:xlink="http://www.w3.org/1999/xlink"><style class="text-font-style fontImports" data-font-family="Roboto">@import url(https://fonts.googleapis.com/css2?family=Roboto:wght@400;700&amp;amp;display=block);</style><rect id="" x="0" y="0" width="1092" height="600" style="fill: #2c2c2c;"></rect><g id="items" style="isolation: isolate"><g id="blend" style="mix-blend-mode: normal"><g id="g-root-tf_4g2cvx1hbtr0m-fill" data-item-order="-982800"><g id="tf_4g2cvx1hbtr0m-fill-merged" stroke="none" fill="#2c2c2c"><g><path d="M0 0 H1092 V600 H0 V0"></path></g></g></g><g id="g-root-cp_start_g-start_1lvio591hbtpfl-fill" data-item-order="-526165" transform="translate(62, 122)"></g><g id="g-root-cp_1_g-1_18k25rx1hbtr0i-fill" data-item-order="-526141" transform="translate(254, 122)"></g><g id="g-root-cp_2_g-2_zp1mm51hbtonf-fill" data-item-order="-526115" transform="translate(446, 122)"></g><g id="g-root-cp_3_g-3_v984hp1hbtpfo-fill" data-item-order="-526089" transform="translate(638, 122)"></g><g id="g-root-cp_end_g-end_mdl48t1hbtq8d-fill" data-item-order="-526063" transform="translate(830, 122)"></g><g id="g-root-cp_0_g-0_92r2yl1hbtoni-fill" data-item-order="-526039" transform="translate(26, 326.00006103515625)"></g><g id="g-root-cp_0_g-0_1_4mxku51hbtpfr-fill" data-item-order="-526031" transform="translate(268.669921875, 407.02935791015625)"></g><g id="g-root-tx_evoluzio_742pp1hbtq80-fill" data-item-order="0" transform="translate(308, 38)"><g id="tx_evoluzio_742pp1hbtq80-fill-merged" stroke="none" fill="#f4f4f4"><g><text style="font: bold 25px Roboto, sans-serif; white-space: pre;" font-weight="bold" font-size="25px" font-family="Roboto, sans-serif"><tspan x="17.75" y="43" dominant-baseline="ideographic">Evoluzione della traduzione automatica</tspan></text></g></g></g><g id="g-root-tx_traduzio_1lxe3el1hbtog1-fill" data-item-order="0" transform="translate(74, 170)"><g id="tx_traduzio_1lxe3el1hbtog1-fill-merged" stroke="none" fill="#f4f4f4"><g><text style="font: bold 20px Roboto, sans-serif; white-space: pre;" font-weight="bold" font-size="20px" font-family="Roboto, sans-serif"><tspan x="37.66" y="33.84" dominant-baseline="ideographic">Traduzione </tspan><tspan x="12.07" y="57.85" dominant-baseline="ideographic">parola per parola</tspan></text></g></g></g><g id="g-root-tx_architet_vb3jr11hbtog3-fill" data-item-order="0" transform="translate(284, 170)"><g id="tx_architet_vb3jr11hbtog3-fill-merged" stroke="none" fill="#f79438"><g><text style="font: bold 20px Roboto, sans-serif; white-space: pre;" font-weight="bold" font-size="20px" font-family="Roboto, sans-serif"><tspan x="15.18" y="33.84" dominant-baseline="ideographic">Architettura </tspan><tspan x="12.86" y="57.85" dominant-baseline="ideographic">Transformer</tspan></text></g></g></g><g id="g-root-tx_meccanis_hzn1dp1hbtq11-fill" data-item-order="0" transform="translate(458, 170)"><g id="tx_meccanis_hzn1dp1hbtq11-fill-merged" stroke="none" fill="#ffe711"><g><text style="font: bold 20px Roboto, sans-serif; white-space: pre;" font-weight="bold" font-size="20px" font-family="Roboto, sans-serif"><tspan x="17.12" y="33.84" dominant-baseline="ideographic">Meccanismo di </tspan><tspan x="38" y="57.85" dominant-baseline="ideographic">attenzione</tspan></text></g></g></g><g id="g-root-tx_comprens_4ot03h1hbtog7-fill" data-item-order="0" transform="translate(656, 170)"><g id="tx_comprens_4ot03h1hbtog7-fill-merged" stroke="none" fill="#43dd93"><g><text style="font: bold 20px Roboto, sans-serif; white-space: pre;" font-weight="bold" font-size="20px" font-family="Roboto, sans-serif"><tspan x="14.03" y="33.84" dominant-baseline="ideographic">Comprensione </tspan><tspan x="24.07" y="57.85" dominant-baseline="ideographic">del contesto</tspan></text></g></g></g><g id="g-root-tx_traduzio_1lyn1kt1hbtqm9-fill" data-item-order="0" transform="translate(860, 170)"><g id="tx_traduzio_1lyn1kt1hbtqm9-fill-merged" stroke="none" fill="#f4f4f4"><g><text style="font: bold 20px Roboto, sans-serif; white-space: pre;" font-weight="bold" font-size="20px" font-family="Roboto, sans-serif"><tspan x="18.4" y="33.84" dominant-baseline="ideographic">Traduzione </tspan><tspan x="15.97" y="57.85" dominant-baseline="ideographic">contestuale</tspan></text></g></g></g><g id="g-root-tx_traduzio_18lxl191hbtq0y-fill" data-item-order="0" transform="translate(98, 230)"><g id="tx_traduzio_18lxl191hbtq0y-fill-merged" stroke="none" fill="#f4f4f4"><g><text style="font: 20px Roboto, sans-serif; white-space: pre;" font-size="20px" font-family="Roboto, sans-serif"><tspan x="12.21" y="33.84" dominant-baseline="ideographic">Traduzione </tspan><tspan x="17.79" y="57.85" dominant-baseline="ideographic">letterale e </tspan><tspan x="17.83" y="81.85" dominant-baseline="ideographic">imprecisa</tspan></text></g></g></g><g id="g-root-tx_introduz_mfgji51hbtp8s-fill" data-item-order="0" transform="translate(260, 230)"><g id="tx_introduz_mfgji51hbtp8s-fill-merged" stroke="none" fill="#f79438"><g><text style="font: 15px Roboto, sans-serif; white-space: pre;" font-size="15px" font-family="Roboto, sans-serif"><tspan x="17" y="27.69" dominant-baseline="ideographic">Introduzione di modelli </tspan><tspan x="51.78" y="45.69" dominant-baseline="ideographic">Transformer</tspan></text></g></g></g><g id="g-root-tx_ponderaz_94014t1hbtqtq-fill" data-item-order="0" transform="translate(464, 230)"><g id="tx_ponderaz_94014t1hbtqtq-fill-merged" stroke="none" fill="#ffe711"><g><text style="font: 15px Roboto, sans-serif; white-space: pre;" font-size="15px" font-family="Roboto, sans-serif"><tspan x="24.38" y="27.69" dominant-baseline="ideographic">Ponderazione del </tspan><tspan x="12.3" y="45.69" dominant-baseline="ideographic">contesto delle parole</tspan></text></g></g></g><g id="g-root-tx_analisid_8zhz11hbtp8g-fill" data-item-order="0" transform="translate(650, 230)"><g id="tx_analisid_8zhz11hbtp8g-fill-merged" stroke="none" fill="#43dd93"><g><text style="font: 15px Roboto, sans-serif; white-space: pre;" font-size="15px" font-family="Roboto, sans-serif"><tspan x="12.86" y="30.69" dominant-baseline="ideographic">Analisi dell'intera frase</tspan></text></g></g></g><g id="g-root-tx_traduzio_1d301bx1hbtrey-fill" data-item-order="0" transform="translate(866, 230)"><g id="tx_traduzio_1d301bx1hbtrey-fill-merged" stroke="none" fill="#f4f4f4"><g><text style="font: 20px Roboto, sans-serif; white-space: pre;" font-size="20px" font-family="Roboto, sans-serif"><tspan x="12.21" y="33.84" dominant-baseline="ideographic">Traduzione </tspan><tspan x="14.97" y="57.85" dominant-baseline="ideographic">accurata e </tspan><tspan x="30.92" y="81.85" dominant-baseline="ideographic">fluente</tspan></text></g></g></g><g id="g-root-tf_4g2cvx1hbtr0m-stroke" data-item-order="-982800"></g><g id="g-root-cp_start_g-start_1lvio591hbtpfl-stroke" data-item-order="-526165" transform="translate(62, 122)"><g id="cp_start_g-start_1lvio591hbtpfl-stroke" fill="none" stroke-linecap="round" stroke-linejoin="round" stroke-miterlimit="4" stroke="#fb6762" stroke-width="2"><g><path d="M 190 46L 190 34C 190 27.6348 187.4714 21.5303 182.9706 17.0294C 178.4697 12.5286 172.3652 10 166 10L 34 10C 27.6348 10 21.5303 12.5286 17.0294 17.0294C 12.5286 21.5303 10 27.6348 10 34L 10 46M 190 250L 190 46M 10 46L 10 250M 190 250L 190 383.7143C 190 389.6248 187.4714 395.2933 182.9706 399.4727C 178.4697 403.652 172.3652 406 166 406L 34 406C 27.6348 406 21.5303 403.652 17.0294 399.4727C 12.5286 395.2933 10 389.6248 10 383.7143L 10 250"></path></g></g></g><g id="g-root-cp_1_g-1_18k25rx1hbtr0i-stroke" data-item-order="-526141" transform="translate(254, 122)"><g id="cp_1_g-1_18k25rx1hbtr0i-stroke" fill="none" stroke-linecap="round" stroke-linejoin="round" stroke-miterlimit="4" stroke="#f79438" stroke-width="2"><g><path d="M 190 250L 190 46M 10 46L 10 250M 190 250L 190 383.7143C 190 389.6248 187.4714 395.2933 182.9706 399.4727C 178.4697 403.652 172.3652 406 166 406L 34 406C 27.6348 406 21.5303 403.652 17.0294 399.4727C 12.5286 395.2933 10 389.6248 10 383.7143L 10 250M 190 46L 190 34C 190 27.6348 187.4714 21.5303 182.9706 17.0294C 178.4697 12.5286 172.3652 10 166 10L 34 10C 27.6348 10 21.5303 12.5286 17.0294 17.0294C 12.5286 21.5303 10 27.6348 10 34L 10 46"></path></g></g></g><g id="g-root-cp_2_g-2_zp1mm51hbtonf-stroke" data-item-order="-526115" transform="translate(446, 122)"><g id="cp_2_g-2_zp1mm51hbtonf-stroke" fill="none" stroke-linecap="round" stroke-linejoin="round" stroke-miterlimit="4" stroke="#ffe711" stroke-width="2"><g><path d="M 190 46L 190 34C 190 27.6348 187.4714 21.5303 182.9706 17.0294C 178.4697 12.5286 172.3652 10 166 10L 34 10C 27.6348 10 21.5303 12.5286 17.0294 17.0294C 12.5286 21.5303 10 27.6348 10 34L 10 46M 190 250L 190 46M 10 46L 10 250M 190 250L 190 383.7143C 190 389.6248 187.4714 395.2933 182.9706 399.4727C 178.4697 403.652 172.3652 406 166 406L 34 406C 27.6348 406 21.5303 403.652 17.0294 399.4727C 12.5286 395.2933 10 389.6248 10 383.7143L 10 250"></path></g></g></g><g id="g-root-cp_3_g-3_v984hp1hbtpfo-stroke" data-item-order="-526089" transform="translate(638, 122)"><g id="cp_3_g-3_v984hp1hbtpfo-stroke" fill="none" stroke-linecap="round" stroke-linejoin="round" stroke-miterlimit="4" stroke="#43dd93" stroke-width="2"><g><path d="M 190 46L 190 34C 190 27.6348 187.4714 21.5303 182.9706 17.0294C 178.4697 12.5286 172.3652 10 166 10L 34 10C 27.6348 10 21.5303 12.5286 17.0294 17.0294C 12.5286 21.5303 10 27.6348 10 34L 10 46M 190 250L 190 46M 10 46L 10 250M 190 250L 190 383.7143C 190 389.6248 187.4714 395.2933 182.9706 399.4727C 178.4697 403.652 172.3652 406 166 406L 34 406C 27.6348 406 21.5303 403.652 17.0294 399.4727C 12.5286 395.2933 10 389.6248 10 383.7143L 10 250"></path></g></g></g><g id="g-root-cp_end_g-end_mdl48t1hbtq8d-stroke" data-item-order="-526063" transform="translate(830, 122)"><g id="cp_end_g-end_mdl48t1hbtq8d-stroke" fill="none" stroke-linecap="round" stroke-linejoin="round" stroke-miterlimit="4" stroke="#4f91fc" stroke-width="2"><g><path d="M 190 46L 190 34C 190 27.6348 187.4714 21.5303 182.9706 17.0294C 178.4697 12.5286 172.3652 10 166 10L 34 10C 27.6348 10 21.5303 12.5286 17.0294 17.0294C 12.5286 21.5303 10 27.6348 10 34L 10 46M 190 250L 190 46M 10 46L 10 250M 190 250L 190 383.7143C 190 389.6248 187.4714 395.2933 182.9706 399.4727C 178.4697 403.652 172.3652 406 166 406L 34 406C 27.6348 406 21.5303 403.652 17.0294 399.4727C 12.5286 395.2933 10 389.6248 10 383.7143L 10 250"></path></g></g></g><g id="g-root-cp_0_g-0_92r2yl1hbtoni-stroke" data-item-order="-526039" transform="translate(26, 326.00006103515625)"><g id="cp_0_g-0_92r2yl1hbtoni-stroke" fill="none" stroke-linecap="round" stroke-linejoin="round" stroke-miterlimit="4" stroke="#b7b7b7" stroke-width="2"><g><path d="M 1011 138.999997L 1018 146.999997L 1025 138.999997M 1011 138.999997L 1018 146.999997L 1025 138.999997M 989 116.999997L 982 108.999997L 975 116.999997M 989 116.999997L 982 108.999997L 975 116.999997M 989 128.999997L 982 120.999997L 975 128.999997M 989 128.999997L 982 120.999997L 975 128.999997M 989 140.999997L 982 132.999997L 975 140.999997M 989 140.999997L 982 132.999997L 975 140.999997M 962 94.230597L 946 81.310597L 930 94.230597M 962 94.230597L 946 81.310597L 930 94.230597M 962 113.619397L 946 100.689497L 930 113.619397M 962 113.619397L 946 100.689497L 930 113.619397M 962 133.000097L 946 120.080097L 930 133.000097M 962 133.000097L 946 120.080097L 930 133.000097M 170 94.230597L 154 81.310597L 138 94.230597M 170 94.230597L 154 81.310597L 138 94.230597M 170 113.619397L 154 100.689497L 138 113.619397M 170 113.619397L 154 100.689497L 138 113.619397M 170 133.000097L 154 120.080097L 138 133.000097M 170 133.000097L 154 120.080097L 138 133.000097M 110 94.230597L 94 81.310597L 78 94.230597M 110 94.230597L 94 81.310597L 78 94.230597M 110 113.619397L 94 100.689497L 78 113.619397M 110 113.619397L 94 100.689497L 78 113.619397M 110 133.000097L 94 120.080097L 78 133.000097M 110 133.000097L 94 120.080097L 78 133.000097M 67 119.850997L 57.86 112.460897L 48.71 119.850997M 67 119.850997L 57.86 112.460897L 48.71 119.850997M 67 130.919097L 57.86 123.539097L 48.71 130.919097M 67 130.919097L 57.86 123.539097L 48.71 130.919097M 67 141.999097L 57.86 134.619097L 48.71 141.999097M 67 141.999097L 57.86 134.619097L 48.71 141.999097M 915 138.999997L 922 146.999997L 929 138.999997M 915 138.999997L 922 146.999997L 929 138.999997M 327 138.999997L 334 146.999997L 341 138.999997M 327 138.999997L 334 146.999997L 341 138.999997M 303 138.999997L 310 146.999997L 317 138.999997M 303 138.999997L 310 146.999997L 317 138.999997M 279 138.999997L 286 146.999997L 293 138.999997M 279 138.999997L 286 146.999997L 293 138.999997M 111 138.999997L 118 146.999997L 125 138.999997M 111 138.999997L 118 146.999997L 125 138.999997M 15 138.999997L 22 146.999997L 29 138.999997M 15 138.999997L 22 146.999997L 29 138.999997M 297.0002 134.999997L 276.7603 123.139997C 270.268 119.338997 264.4411 114.501797 259.5102 108.819997L 238.7602 84.889997C 237.5642 83.507397 235.9142 82.596697 234.1069 82.321697C 232.2995 82.046797 230.4533 82.425597 228.9002 83.389997L 220.4202 88.650097C 218.7571 89.680297 216.8931 90.343497 214.953 90.595297C 213.0128 90.847097 211.0413 90.681597 209.1702 90.109997C 207.1875 89.502797 205.0929 89.352897 203.0439 89.671597C 200.9949 89.990297 199.0449 90.769297 197.3402 91.949997L 186.0902 99.720097C 183.9942 101.168697 181.6232 102.171697 179.1239 102.667097C 176.6247 103.162497 174.0503 103.139697 171.5602 102.600097L 169.4902 102.139997M 231.8198 102.819797L 239.3398 98.439797C 240.2838 97.887997 241.338 97.551697 242.4272 97.454897C 243.5163 97.358097 244.6133 97.503197 245.6398 97.879797C 248.4919 98.880797 251.1859 100.284997 253.6398 102.049797M 244.4199 90.999997L 247.4199 91.469997M 781 90.489997L 784 89.999997M 244 81.999997L 244 90.919997L 244.4199 90.999997M 250.2298 144.240897L 239.2298 128.530997C 238.6986 127.775197 237.9026 127.246897 236.9998 127.050897C 234.5282 126.529797 232.1059 125.797097 229.7598 124.860897C 229.0318 124.555697 228.2247 124.493897 227.4587 124.684997C 226.6928 124.875997 226.0092 125.309497 225.5098 125.920897L 218.8198 134.160997M 223.4101 128.489197L 215.9001 124.369197C 214.9274 123.831297 213.812 123.607897 212.7072 123.729697C 211.6023 123.851397 210.5623 124.312397 209.7301 125.049197L 200.6401 133.049197M 808.94 154.000797L 798.94 135.330897C 797.1119 131.901397 794.2006 129.172997 790.66 127.570797L 783.85 124.480797C 780.45 122.948197 777.592 120.424697 775.65 117.240797L 769.65 107.450897C 769.3858 107.016597 769.0245 106.649497 768.5945 106.378297C 768.1645 106.107097 767.6775 105.939297 767.1718 105.887897C 766.666 105.836597 766.1553 105.903097 765.6796 106.082297C 765.2039 106.261497 764.7761 106.548497 764.43 106.920797L 758.65 113.140897C 755.5021 116.531197 752.5981 120.140197 749.96 123.940797C 747.0301 128.169897 744.4387 132.623797 742.21 137.260897L 740 142.000797M 785.4502 138.210897C 785.4502 138.210897 791.3302 132.450897 795.9502 131.210897M 836.3198 116.630297L 848.5998 106.280297C 850.024 105.077497 851.776 104.328797 853.6296 104.130997C 855.4833 103.933097 857.3538 104.295097 858.9998 105.170297L 866.5698 109.170297C 869.8852 110.940597 873.688 111.579597 877.3998 110.990297L 879.7698 110.620297C 884.9374 109.820897 889.9438 108.200397 894.5998 105.820297L 910.6898 97.560297C 911.409 97.189097 912.2275 97.055897 913.0273 97.179897C 913.8271 97.303897 914.5668 97.678697 915.1398 98.250297L 919.8098 102.920297M 770.48 108.699297L 784 90.219297L 797 72.399297C 798.1307 70.853997 799.6543 69.639297 801.4127 68.881497C 803.1711 68.123597 805.1002 67.850097 807 68.089297L 820 69.719297C 821.7403 69.936797 823.5072 69.770097 825.1761 69.231097C 826.8451 68.691997 828.3756 67.793697 829.66 66.599297L 835.66 61.029297C 839.4723 57.476897 843.7276 54.431697 848.32 51.969297L 848.92 51.649297C 850.5719 50.765997 852.4144 50.298897 854.2876 50.288497C 856.1608 50.277997 858.0083 50.724497 859.67 51.589297L 863.32 53.489297C 865.173 54.450897 867.2524 54.890997 869.3361 54.762397C 871.4197 54.633797 873.4294 53.941397 875.15 52.759297L 887.52 44.259297C 889.6295 42.807997 892.1295 42.030497 894.69 42.029297L 909.9 42.029297C 912.8149 42.032297 915.6398 43.038697 917.9 44.879297L 934 57.999297M 898.8599 67.450897L 901.7099 60.800797C 903.0094 57.752297 905.0515 55.077697 907.6499 53.020897L 917.9099 44.880897M 872.3801 94.310697L 864.0001 87.090697C 862.499 85.800797 860.6903 84.920497 858.7491 84.534997C 856.8079 84.149597 854.8 84.272097 852.92 84.890697L 844.6401 87.600697C 842.4701 88.311197 840.1377 88.359697 837.9401 87.739897C 835.7424 87.120197 833.7791 85.860297 832.3 84.120697L 820.0601 69.720697M 10 153.999997L 1030 153.999997M 1018 153.999997L 1018 135.999997M 982 101.999997L 982 153.999997M 946 69.999997L 946 153.999997M 154 69.999997L 154 153.999997M 94 69.999997L 94 153.999997M 57.8599 105.999997L 57.8599 153.999997M 922 153.999997L 922 135.999997M 334 153.999997L 334 135.999997M 310 153.999997L 310 135.999997M 286 153.999997L 286 135.999997M 118 153.999997L 118 135.999997M 22 153.999997L 22 135.999997M 784 81.999997L 784 90.229997M 868.05 27.97L 850 27.97L 850 16L 868.05 16L 865.05 21.99L 868.05 27.97ZM 850 10L 850 51.15M 294.999987 61C 297.209187 61 298.999987 59.2091 298.999987 57C 298.999987 54.7909 297.209187 53 294.999987 53C 292.790887 53 290.999987 54.7909 290.999987 57C 290.999987 59.2091 292.790887 61 294.999987 61ZM 292.939987 64.3594L 292.939987 71.2394C 292.937987 71.4036 292.983487 71.5649 293.071187 71.7038C 293.158887 71.8427 293.284887 71.9532 293.434087 72.0219C 293.583287 72.0907 293.749087 72.1148 293.911687 72.0912C 294.074187 72.0677 294.226487 71.9976 294.349987 71.8894L 299.259987 67.7094M 289.520087 75.2109L 289.520087 77.8209C 289.517387 78.1643 289.609287 78.5017 289.785687 78.7963C 289.962087 79.0908 290.216187 79.3312 290.520087 79.4909C 293.010087 80.7709 299.310087 85.1209 300.520087 96.7909M 288.909887 63.5593C 286.739587 67.0653 285.487687 71.0617 285.269887 75.1793C 285.259187 75.4653 285.181487 75.7449 285.043187 75.9954C 284.904887 76.246 284.709687 76.4606 284.473387 76.622C 284.237087 76.7834 283.966187 76.8872 283.682487 76.9249C 283.398787 76.9627 283.110187 76.9334 282.839887 76.8394C 281.834387 76.5017 280.898987 75.9831 280.079887 75.3093C 279.394687 74.7146 278.916787 73.9171 278.715387 73.0325C 278.513987 72.1478 278.599587 71.222 278.959887 70.3893C 280.119887 67.6693 282.359887 63.1993 285.469887 60.6193C 285.707887 60.4235 286.006587 60.3164 286.314887 60.3164C 286.623087 60.3164 286.921787 60.4235 287.159887 60.6193L 288.639887 61.8693C 288.880087 62.0718 289.039387 62.3539 289.088987 62.6641C 289.138587 62.9743 289.074987 63.2921 288.909887 63.5593ZM 289.520187 83.9297L 282.240187 94.7097"></path></g></g></g><g id="g-root-cp_0_g-0_1_4mxku51hbtpfr-stroke" data-item-order="-526031" transform="translate(268.669921875, 407.02935791015625)"><g id="cp_0_g-0_1_4mxku51hbtpfr-stroke" fill="none" stroke-linecap="round" stroke-linejoin="round" stroke-miterlimit="4" stroke="#b7b7b7" stroke-width="2" stroke-dasharray="5.0, 7.0"><g><path d="M 10 11.4442C 68.7751 17.0252 295.1817 35.1712 535 10"></path></g></g></g><g id="g-root-tx_evoluzio_742pp1hbtq80-stroke" data-item-order="0" transform="translate(308, 38)"></g><g id="g-root-tx_traduzio_1lxe3el1hbtog1-stroke" data-item-order="0" transform="translate(74, 170)"></g><g id="g-root-tx_architet_vb3jr11hbtog3-stroke" data-item-order="0" transform="translate(284, 170)"></g><g id="g-root-tx_meccanis_hzn1dp1hbtq11-stroke" data-item-order="0" transform="translate(458, 170)"></g><g id="g-root-tx_comprens_4ot03h1hbtog7-stroke" data-item-order="0" transform="translate(656, 170)"></g><g id="g-root-tx_traduzio_1lyn1kt1hbtqm9-stroke" data-item-order="0" transform="translate(860, 170)"></g><g id="g-root-tx_traduzio_18lxl191hbtq0y-stroke" data-item-order="0" transform="translate(98, 230)"></g><g id="g-root-tx_introduz_mfgji51hbtp8s-stroke" data-item-order="0" transform="translate(260, 230)"></g><g id="g-root-tx_ponderaz_94014t1hbtqtq-stroke" data-item-order="0" transform="translate(464, 230)"></g><g id="g-root-tx_analisid_8zhz11hbtp8g-stroke" data-item-order="0" transform="translate(650, 230)"></g><g id="g-root-tx_traduzio_1d301bx1hbtrey-stroke" data-item-order="0" transform="translate(866, 230)"></g></g></g></svg>