<?xml version="1.0" encoding="utf-8" standalone="yes"?>
<!DOCTYPE svg PUBLIC "-//W3C//DTD SVG 1.1//EN" "http://www.w3.org/Graphics/SVG/1.1/DTD/svg11.dtd">
<svg style="fill:none;stroke:none;fill-rule:evenodd;clip-rule:evenodd;stroke-linecap:round;stroke-linejoin:round;stroke-miterlimit:1.5;" version="1.1" xmlns="http://www.w3.org/2000/svg" xmlns:xlink="http://www.w3.org/1999/xlink" width="910" height="611" viewBox="0 0 910 611"><style class="text-font-style fontImports" data-font-family="Roboto">@import url(https://fonts.googleapis.com/css2?family=Roboto:wght@400;700&amp;amp;display=block);</style><rect id="" x="0" y="0" width="909.21" height="610.563" style="fill: #2c2c2c;"></rect><g id="items" style="isolation: isolate"><g id="blend" style="mix-blend-mode: normal"><g id="g-root-tf_24mw7zuf284-fill" data-item-order="-832695"><g id="tf_24mw7zuf284-fill-merged" stroke="none" fill="#2c2c2c" fill-opacity="1"><g><path d="M0 0 H909.21 V610.56 H0 V0"></path></g></g></g><g id="g-root-sy_0d_vector-fill_hvwjqfzughl6-fill" data-item-order="-218043" transform="translate(14.481719970703125, 353.2558898925781)"><g id="sy_0d_vector-fill_hvwjqfzughl6-fill-merged" stroke="none" fill="#545454" fill-opacity="1"><g><path d="M19.312 169.973 H42.464C43.597 169.973 44.634 169.335 45.143 168.322L112.528 34.51C106.811 29.803 101.341 24.655 96.164 19.097L19.312 169.973 M11.933 167.162L19.312 169.973L96.164 19.097C93.443 16.176 90.803 13.142 88.252 10L10.328 162.997C9.518 164.587 10.266 166.527 11.933 167.162 M98.138 206.901L105.312 208.714C105.312 208.714 107.4 209.14 108.374 209.223L142.927 54.199C138.742 52.146 134.628 49.88 130.598 47.411L95.944 203.342C95.592 204.926 96.564 206.503 98.138 206.901 M108.374 209.223C109.348 209.307 111.551 209.068 111.551 209.068L132.5 206.449C133.758 206.292 134.782 205.36 135.057 204.123L144.646 160.973L151.091 131.973L166.368 63.231C158.373 60.959 150.533 57.929 142.927 54.199L108.374 209.223 M287.784 142.229L280.141 123.503C279.647 122.294 278.428 121.543 277.126 121.646L271.615 122.082L151.091 131.973L144.646 160.973L281.792 146.677L285.286 146.35C287.29 146.162 288.545 144.093 287.784 142.229 M299.102 183.168L309.925 184.271L257.406 57.354L246.097 60.417L271.615 122.082L277.126 121.646C278.428 121.543 279.647 122.294 280.141 123.503L287.784 142.229C288.545 144.093 287.29 146.162 285.286 146.35L281.792 146.677L295.813 180.756C296.236 181.778 297.422 182.938 299.102 183.168 M309.925 184.271L328.403 181.961C330.37 181.715 331.562 179.664 330.802 177.834L278.161 51.018C274.074 52.611 269.871 53.992 265.557 55.147L257.406 57.354L309.925 184.271"></path></g></g></g><g id="g-root-sy_0d_vector-stroke_dg31lzzugidf-fill" data-item-order="-218040" transform="translate(14.481719970703125, 353.2558898925781)"></g><g id="g-root-sy_0c_cu_Subtract_590brzuggsk-fill" data-item-order="-218037" transform="translate(103.87718200683594, 93.76370239257812)"><g id="sy_0c_cu_Subtract_590brzuggsk-fill-merged" stroke="none" fill="#545454" fill-opacity="1"><g><path d="M250.836 206.142C239.314 247.937 210.373 281.028 170.439 291.728C105.623 309.096 36.392 260.9 15.809 184.081C-4.775 107.262 31.083 30.909 95.899 13.541C154.323 -2.113 216.334 35.501 243.071 99.332L224.36 106.665C201.725 54.382 150.462 23.768 102.112 36.724C47.965 51.232 17.975 114.889 35.128 178.905C52.281 242.921 110.081 283.054 164.228 268.546C197.038 259.754 220.978 232.917 230.935 198.889L250.836 206.142 M252.32 200.297C255.606 186.167 256.939 171.148 256.086 155.741 H235.866C236.52 168.659 235.326 181.243 232.484 193.068L252.32 200.297 M211.877 185.558C214.176 176.118 215.163 166.066 214.677 155.741 H194.463C194.762 163.587 193.931 171.212 192.094 178.348L211.877 185.558 M172.212 171.103C173.612 166.279 174.31 161.094 174.216 155.741 H153.899C153.768 158.59 153.183 161.32 152.2 163.81L172.212 171.103 M149.225 169.112L170.183 176.749C165.458 187.656 156.831 195.989 145.591 199C123.986 204.789 100.909 188.724 94.048 163.118C87.187 137.512 99.139 112.061 120.745 106.271C138.4 101.541 157.038 111.403 167.007 129.141L147.504 136.784C142.216 130.547 134.421 127.454 126.957 129.454C116.021 132.384 109.936 145.138 113.367 157.942C116.797 170.745 128.444 178.748 139.38 175.818C143.391 174.743 146.749 172.347 149.225 169.112 M150.895 141.9C151.752 143.587 152.454 145.404 152.97 147.33C153.185 148.135 153.363 148.939 153.505 149.741 H173.782C173.463 147.226 172.968 144.691 172.288 142.154C171.58 139.511 170.699 136.97 169.665 134.543L150.895 141.9 M188.359 127.217C189.616 130.353 190.704 133.61 191.607 136.977C192.751 141.248 193.548 145.516 194.016 149.741 H214.23C213.626 143.807 212.534 137.805 210.925 131.8C209.828 127.707 208.525 123.736 207.032 119.9L188.359 127.217 M204.707 114.366C186.258 73.558 145.906 49.835 107.838 60.035C64.628 71.614 40.723 122.516 54.445 173.729C68.168 224.941 114.321 257.071 157.532 245.493C183.216 238.611 202.079 217.836 210.274 191.36L190.359 184.102C183.877 202.763 170.184 217.257 151.803 222.182C119.528 230.83 85.021 206.704 74.73 168.294C64.438 129.885 82.258 91.737 114.533 83.089C142.286 75.653 171.69 92.451 185.928 121.726L204.707 114.366 M226.625 112.221C228.375 116.789 229.91 121.508 231.211 126.365C233.309 134.192 234.701 142.014 235.431 149.741 H255.645C254.779 140.306 253.091 130.751 250.529 121.188C249.033 115.605 247.28 110.173 245.29 104.906L226.625 112.221"></path></g></g></g><g id="g-root-sy_0b_cu_1qaq21zzughe5-fill" data-item-order="-218033" transform="translate(49.84889221191406, 70.00582885742188)"><g id="sy_0b_cu_1qaq21zzughe5-fill-merged" stroke="none" fill="#68403f" fill-opacity="1"><g><path d="M197.409 347.28C121.657 367.577 40.78 311.379 16.766 221.756C-7.249 132.134 34.693 43.026 110.446 22.729L143.227 13.852C136.599 15.628 130.23 17.935 124.144 20.726C60.921 49.722 28.125 130.998 50.03 212.75C71.935 294.501 140.973 348.489 210.222 341.991C216.889 341.366 223.558 340.18 230.186 338.404L197.409 347.28 M324.743 237.144C311.672 286.708 277.735 326.06 230.68 338.669C155.194 358.895 74.534 302.638 50.52 213.016C26.505 123.394 68.231 34.344 143.717 14.117C212.211 -4.236 284.967 40.384 315.796 115.762L297.1 123.09C270.362 59.259 208.352 21.644 149.928 37.299C85.111 54.666 49.254 131.02 69.838 207.839C90.421 284.658 159.651 332.853 224.467 315.486C264.401 304.785 293.343 271.695 304.864 229.9L324.743 237.144 M326.181 231.282C329.911 214.849 331.386 197.396 330.334 179.499 H310.115C310.968 194.906 309.634 209.925 306.349 224.055L326.181 231.282 M286.513 216.826C289.355 205.001 290.549 192.417 289.895 179.499 H268.705C269.191 189.824 268.205 199.876 265.905 209.316L286.513 216.826 M246.122 202.106C247.959 194.97 248.79 187.345 248.491 179.499 H228.245C228.338 184.852 227.64 190.037 226.24 194.861L246.122 202.106 M224.211 200.507L244.387 207.86C237.906 226.521 224.213 241.015 205.832 245.94C173.557 254.588 139.05 230.462 128.758 192.052C118.466 153.642 136.287 115.495 168.562 106.847C196.315 99.41 225.719 116.208 239.957 145.484L221.036 152.899C211.067 135.161 192.429 125.298 174.774 130.029C153.168 135.818 141.216 161.269 148.077 186.876C154.938 212.482 178.015 228.547 199.62 222.758C210.859 219.746 219.486 211.414 224.211 200.507 M206.229 187.568L197.429 184.361C195.872 183.794 194.15 184.596 193.583 186.153C193.016 187.709 193.818 189.431 195.375 189.998L203.253 192.87C200.778 196.105 197.419 198.501 193.409 199.576C182.473 202.506 170.826 194.502 167.395 181.699C163.965 168.896 170.049 156.142 180.985 153.211C188.45 151.211 196.245 154.305 201.533 160.542L196.034 162.697C194.491 163.301 193.731 165.042 194.336 166.584C194.94 168.127 196.681 168.888 198.223 168.283L204.923 165.657C205.781 167.345 206.482 169.162 206.998 171.088C207.214 171.892 207.392 172.697 207.534 173.499 H189.124C187.467 173.499 186.124 174.842 186.124 176.499C186.124 178.156 187.467 179.499 189.124 179.499 H207.928C207.797 182.348 207.211 185.078 206.229 187.568 M227.811 173.499 H248.045C247.577 169.274 246.78 165.006 245.635 160.735C244.733 157.368 243.645 154.11 242.388 150.975L223.694 158.301C224.728 160.727 225.609 163.268 226.317 165.911C226.997 168.448 227.492 170.984 227.811 173.499 M261.061 143.657C262.553 147.494 263.857 151.465 264.954 155.557C266.563 161.563 267.655 167.565 268.259 173.499 H289.46C288.73 165.771 287.337 157.949 285.24 150.122C283.939 145.266 282.404 140.547 280.654 135.979L261.061 143.657 M278.388 130.422C255.754 78.14 204.491 47.526 156.14 60.481C101.994 74.99 72.004 138.647 89.157 202.662C106.31 266.678 164.11 306.812 218.257 292.303C251.067 283.512 275.007 256.675 284.963 222.647L264.303 215.118C256.108 241.593 237.245 262.369 211.56 269.251C168.35 280.829 122.196 248.699 108.474 197.486C94.751 146.273 118.656 95.371 161.867 83.793C199.935 73.593 240.287 97.316 258.736 138.124L278.388 130.422 M299.319 128.664C301.309 133.931 303.062 139.363 304.558 144.946C307.12 154.508 308.807 164.064 309.674 173.499 H329.888C328.886 162.356 326.904 151.068 323.877 139.77C322.186 133.46 320.214 127.314 317.983 121.35L299.319 128.664"></path></g></g></g><g id="g-root-sy_0a_cu_Vector_1luwjxjzugi6e-fill" data-item-order="-218029" transform="translate(225.97291564941406, 146.95120239257812)"><g id="sy_0a_cu_Vector_1luwjxjzugi6e-fill-merged" stroke="none" fill="#545454" fill-opacity="1"><g><path d="M17.459 109.203C18.026 107.647 19.748 106.844 21.305 107.412L227.346 182.499C228.903 183.066 229.705 184.788 229.138 186.345C228.57 187.902 226.849 188.704 225.292 188.137L19.251 113.049C17.694 112.482 16.892 110.76 17.459 109.203 M216.553 11.906C217.157 13.449 216.397 15.189 214.854 15.794L22.099 91.334C20.557 91.938 18.816 91.178 18.212 89.635C17.607 88.093 18.367 86.352 19.91 85.747L212.665 10.208C214.208 9.603 215.948 10.363 216.553 11.906 M232.999 102.549 H13C11.343 102.549 10 101.206 10 99.549C10 97.893 11.343 96.549 13 96.549 H232.999C234.656 96.549 235.999 97.893 235.999 99.549C235.999 101.206 234.656 102.549 232.999 102.549"></path></g></g></g><g id="g-root-sy_2_cu_Vector_1cz9jonzugiz3-fill" data-item-order="-218025" transform="translate(412.472900390625, 218.49807739257812)"><g id="sy_2_cu_Vector_1cz9jonzugiz3-fill-merged" stroke="none" fill="#5c4938" fill-opacity="1"><g><path d="M20.198 12.252L10 25 H40L49.4 13.249C50.448 11.94 49.515 10 47.838 10 H24.883C23.061 10 21.337 10.829 20.198 12.252 M20.198 43.748L10 31 H40L49.4 42.751C50.448 44.06 49.515 46 47.838 46 H24.883C23.061 46 21.337 45.171 20.198 43.748"></path></g></g></g><g id="g-root-sy_3_cu_Vector_18k2inbzugglk-fill" data-item-order="-218021" transform="translate(405.465087890625, 297.0605773925781)"><g id="sy_3_cu_Vector_18k2inbzugglk-fill-merged" stroke="none" fill="#54502f" fill-opacity="1"><g><path d="M25.997 10.875L12.052 19.364L40.241 29.629L53.095 21.804C54.527 20.932 54.315 18.791 52.739 18.217L31.17 10.362C29.457 9.738 27.554 9.927 25.997 10.875 M15.22 40.467L10 24.999L38.189 35.264L43.001 49.522C43.537 51.111 41.997 52.615 40.422 52.041L18.852 44.186C17.14 43.563 15.803 42.194 15.22 40.467"></path></g></g></g><g id="g-root-sy_1_cu_Vector_14490ivzughdt-fill" data-item-order="-218017" transform="translate(393.373291015625, 133.09182739257812)"><g id="sy_1_cu_Vector_14490ivzughdt-fill-merged" stroke="none" fill="#68403f" fill-opacity="1"><g><path d="M14.838 22.333L10 37.925L37.928 26.969L42.387 12.597C42.884 10.995 41.308 9.53 39.747 10.142L18.377 18.525C16.681 19.191 15.378 20.592 14.838 22.333 M26.342 51.654L12.192 43.511L40.12 32.555L53.162 40.061C54.616 40.897 54.456 43.044 52.895 43.656L31.526 52.039C29.829 52.705 27.921 52.563 26.342 51.654"></path></g></g></g><g id="g-root-tx_efficaci_14490ivzughdu-fill" data-item-order="0" transform="translate(204.60511779785156, 8.994781494140625)"><g id="tx_efficaci_14490ivzughdu-fill-merged" stroke="none" fill="#f4f4f4" fill-opacity="1"><g><text style="font: bold 25px Roboto, sans-serif; white-space: pre;" font-weight="bold" font-size="25px" font-family="Roboto, sans-serif"><tspan x="14.96" y="43" dominant-baseline="ideographic">Efficacia del Compito nell'Interazione AI</tspan></text></g></g></g><g id="g-root-ic_targ_1ursicnzuhwxw-fill" data-item-order="0" transform="translate(469.78851318359375, 93.00003051757812)"></g><g id="g-root-tx_compito_hxryzrzugglo-fill" data-item-order="0" transform="translate(550.971923828125, 99.00003051757812)"><g id="tx_compito_hxryzrzugglo-fill-merged" stroke="none" fill="#fb6762" fill-opacity="1"><g><text style="font: 25px Roboto, sans-serif; white-space: pre;" font-size="25px" font-family="Roboto, sans-serif"><tspan x="12" y="43" dominant-baseline="ideographic">Compito</tspan></text></g></g></g><g id="g-root-tx_istruzio_qssi5jzugiyr-fill" data-item-order="0" transform="translate(551.210205078125, 141.32034301757812)"><g id="tx_istruzio_qssi5jzugiyr-fill-merged" stroke="none" fill="#f4f4f4" fill-opacity="1"><g><text style="font: 20px Roboto, sans-serif; white-space: pre;" font-size="20px" font-family="Roboto, sans-serif"><tspan x="12" y="33.85" dominant-baseline="ideographic">Istruzione centrale per l'azione AI</tspan></text></g></g></g><g id="g-root-ic_1_140i607zuhxj6-fill" data-item-order="0" transform="translate(476.30548095703125, 212.99221801757812)"></g><g id="g-root-tx_chiarezz_6hyhzzugiyu-fill" data-item-order="0" transform="translate(550.971923828125, 219.00003051757812)"><g id="tx_chiarezz_6hyhzzugiyu-fill-merged" stroke="none" fill="#f79438" fill-opacity="1"><g><text style="font: 25px Roboto, sans-serif; white-space: pre;" font-size="25px" font-family="Roboto, sans-serif"><tspan x="12" y="43" dominant-baseline="ideographic">Chiarezza</tspan></text></g></g></g><g id="g-root-tx_compitof_dhygvbzughdx-fill" data-item-order="0" transform="translate(551.210205078125, 261.3203430175781)"><g id="tx_compitof_dhygvbzughdx-fill-merged" stroke="none" fill="#f4f4f4" fill-opacity="1"><g><text style="font: 20px Roboto, sans-serif; white-space: pre;" font-size="20px" font-family="Roboto, sans-serif"><tspan x="12" y="33.84" dominant-baseline="ideographic">Deve essere formulato in modo </tspan><tspan x="12" y="57.85" dominant-baseline="ideographic">chiaro e diretto</tspan></text></g></g></g><g id="g-root-ic_1_18lbgtjzugirt-fill" data-item-order="0" transform="translate(473.6220703125, 332.9922180175781)"></g><g id="g-root-tx_verbidaz_1lwrz6vzugh6w-fill" data-item-order="0" transform="translate(550.971923828125, 339.0000305175781)"><g id="tx_verbidaz_1lwrz6vzugh6w-fill-merged" stroke="none" fill="#ffe711" fill-opacity="1"><g><text style="font: 25px Roboto, sans-serif; white-space: pre;" font-size="25px" font-family="Roboto, sans-serif"><tspan x="12" y="43" dominant-baseline="ideographic">Verbi d'Azione</tspan></text></g></g></g><g id="g-root-tx_verbispe_1qclhbbzuggen-fill" data-item-order="0" transform="translate(551.210205078125, 381.3203430175781)"><g id="tx_verbispe_1qclhbbzuggen-fill-merged" stroke="none" fill="#f4f4f4" fill-opacity="1"><g><text style="font: 20px Roboto, sans-serif; white-space: pre;" font-size="20px" font-family="Roboto, sans-serif"><tspan x="12" y="33.84" dominant-baseline="ideographic">Andrebbe specificato con verbi </tspan><tspan x="12" y="57.85" dominant-baseline="ideographic">d'azione diretti che guidano </tspan><tspan x="12" y="81.85" dominant-baseline="ideographic">l'operazione AI</tspan></text></g></g></g><g id="g-root-tf_24mw7zuf284-stroke" data-item-order="-832695"></g><g id="g-root-sy_0d_vector-fill_hvwjqfzughl6-stroke" data-item-order="-218043" transform="translate(14.481719970703125, 353.2558898925781)"></g><g id="g-root-sy_0d_vector-stroke_dg31lzzugidf-stroke" data-item-order="-218040" transform="translate(14.481719970703125, 353.2558898925781)"><g id="sy_0d_vector-stroke_dg31lzzugidf-stroke" fill="none" stroke-linecap="round" stroke-linejoin="round" stroke-miterlimit="4" stroke="#ababab" stroke-width="2" stroke-opacity="1"><g><path d="M 19.312079 169.9731L 42.463879 169.9731C 43.597079 169.9731 44.633579 169.3345 45.143279 168.3223L 112.527579 34.5096C 106.811179 29.8033 101.340779 24.6548 96.164279 19.0975L 19.312079 169.9731ZM 11.933079 167.162L 19.312079 169.9731L 96.164279 19.0975C 93.443279 16.1764 90.803479 13.1423 88.251779 10L 10.327779 162.997C 9.518279 164.5865 10.266179 166.527 11.933079 167.162ZM 98.137779 206.9008L 105.312479 208.7141C 105.312479 208.7141 107.399979 209.1396 108.373779 209.2233L 142.927379 54.1986C 138.741979 52.1455 134.627779 49.8799 130.597879 47.4112L 95.944379 203.3415C 95.592179 204.9259 96.564179 206.5031 98.137779 206.9008ZM 108.373779 209.2233C 109.347579 209.3069 111.550779 209.0675 111.550779 209.0675L 132.500379 206.4488C 133.758379 206.2915 134.781779 205.3604 135.056779 204.1228L 144.646279 160.9731L 151.091179 131.9731L 166.368279 63.2307C 158.373179 60.9587 150.532879 57.9294 142.927379 54.1986L 108.373779 209.2233ZM 287.783979 142.2293L 280.140579 123.503C 279.647079 122.2939 278.428179 121.543 277.126379 121.646L 271.615079 122.0822L 151.091179 131.9731L 144.646279 160.9731L 281.792479 146.677L 285.286079 146.3499C 287.290279 146.1623 288.544679 144.093 287.783979 142.2293ZM 299.102479 183.1681L 309.925079 184.2707L 257.406479 57.3543L 246.097479 60.4166L 271.615079 122.0822L 277.126379 121.646C 278.428179 121.543 279.647079 122.2939 280.140579 123.503L 287.783979 142.2293C 288.544679 144.093 287.290279 146.1623 285.286079 146.3499L 281.792479 146.677L 295.812779 180.7556C 296.235979 181.7784 297.421579 182.9379 299.102479 183.1681ZM 309.925079 184.2707L 328.403279 181.9609C 330.369679 181.7151 331.561679 179.6642 330.801979 177.834L 278.161479 51.0183C 274.074279 52.6109 269.870879 53.9915 265.557279 55.1473L 265.552979 55.1485L 265.499479 55.1628L 257.406479 57.3543L 309.925079 184.2707ZM 265.499479 55.1628C 265.517279 55.158 265.535079 55.1532 265.552979 55.1485"></path></g></g></g><g id="g-root-sy_0c_cu_Subtract_590brzuggsk-stroke" data-item-order="-218037" transform="translate(103.87718200683594, 93.76370239257812)"><g id="sy_0c_cu_Subtract_590brzuggsk-stroke" fill="none" stroke-linecap="round" stroke-linejoin="round" stroke-miterlimit="4" stroke="#ababab" stroke-width="2" stroke-opacity="1"><g><path d="M 250.835723 206.14167C 239.314123 247.93697 210.372723 281.02787 170.438823 291.72807C 105.622623 309.09557 36.392423 260.90037 15.808823 184.08127C -4.774777 107.26217 31.082723 30.90887 95.898923 13.54147C 154.323023 -2.11323 216.333623 35.50107 243.070723 99.33187L 224.359623 106.66467C 201.725223 54.38227 150.462023 23.76827 102.111623 36.72367C 47.964823 51.23227 17.975423 114.88897 35.128423 178.90497C 52.281423 242.92087 110.081423 283.05447 164.228223 268.54587C 197.038223 259.75447 220.978423 232.91727 230.934823 198.88917L 250.835723 206.14167ZM 252.320023 200.29657C 255.605523 186.16717 256.939323 171.14847 256.086323 155.74087L 235.866123 155.74087C 236.520023 168.65887 235.325923 181.24307 232.484423 193.06787L 252.320023 200.29657ZM 211.876623 185.55777C 214.176123 176.11847 215.162723 166.06597 214.676523 155.74087L 194.462623 155.74087C 194.761723 163.58687 193.930523 171.21167 192.093723 178.34827L 211.876623 185.55777ZM 172.211923 171.10277C 173.611523 166.27857 174.309823 161.09357 174.216123 155.74087L 153.898823 155.74087C 153.768323 158.59007 153.182823 161.32027 152.200223 163.80997L 172.211923 171.10277ZM 149.224823 169.11167L 170.182923 176.74937C 165.457723 187.65647 156.830723 195.98877 145.591423 199.00027C 123.986123 204.78947 100.909323 188.72437 94.048123 163.11807C 87.186923 137.51167 99.139423 112.06057 120.744823 106.27137C 138.400123 101.54067 157.037923 111.40347 167.006823 129.14087L 147.504023 136.78397C 142.216123 130.54717 134.420923 127.45367 126.956623 129.45367C 116.020523 132.38397 109.936123 145.13847 113.366823 157.94167C 116.797423 170.74487 128.443823 178.74837 139.379923 175.81807C 143.390923 174.74337 146.749223 172.34717 149.224823 169.11167ZM 150.894523 141.89957C 151.751823 143.58727 152.453723 145.40437 152.969723 147.33007C 153.185323 148.13467 153.363323 148.93907 153.504923 149.74087L 173.782323 149.74087C 173.463023 147.22597 172.967923 144.69057 172.288123 142.15367C 171.580023 139.51077 170.699123 136.96957 169.664923 134.54347L 150.894523 141.89957ZM 188.359323 127.21727C 189.615923 130.35257 190.704323 133.61007 191.606623 136.97727C 192.751023 141.24847 193.547823 145.51637 194.015823 149.74087L 214.229923 149.74087C 213.626023 143.80677 212.534323 137.80547 210.925123 131.79987C 209.828423 127.70707 208.524623 123.73617 207.031723 119.89967L 188.359323 127.21727ZM 204.706823 114.36647C 186.258123 73.55807 145.906323 49.83507 107.838423 60.03537C 64.627723 71.61367 40.722723 122.51577 54.445123 173.72857C 68.167523 224.94127 114.321023 257.07137 157.531723 245.49307C 183.215923 238.61107 202.079323 217.83567 210.274423 191.35987L 190.358923 184.10207C 183.877423 202.76337 170.184423 217.25727 151.803023 222.18247C 119.528323 230.83047 85.021323 206.70397 74.729523 168.29437C 64.437723 129.88487 82.258423 91.73717 114.533123 83.08917C 142.286123 75.65277 171.689823 92.45087 185.927923 121.72587L 204.706823 114.36647ZM 226.625123 112.22107C 228.374923 116.78927 229.910123 121.50827 231.211423 126.36467C 233.308723 134.19187 234.701223 142.01367 235.430923 149.74087L 255.644823 149.74087C 254.778723 140.30577 253.091023 130.75067 250.528823 121.18827C 249.032823 115.60507 247.279823 110.17297 245.290223 104.90637L 226.625123 112.22107Z"></path></g></g></g><g id="g-root-sy_0b_cu_1qaq21zzughe5-stroke" data-item-order="-218033" transform="translate(49.84889221191406, 70.00582885742188)"><g id="sy_0b_cu_1qaq21zzughe5-stroke" fill="none" stroke-linecap="round" stroke-linejoin="round" stroke-miterlimit="4" stroke="#fb6762" stroke-width="2" stroke-opacity="1"><g><path d="M 197.408793 347.279586C 121.656593 367.577386 40.779893 311.378686 16.765693 221.756386C -7.248507 132.134086 34.693393 43.026286 110.445593 22.728586L 143.227293 13.851586C 136.598593 15.627786 130.230193 17.934586 124.143793 20.725986C 60.920593 49.721986 28.124993 130.997886 50.030393 212.749986C 71.935393 294.500586 140.972893 348.489186 210.222393 341.991386C 216.889092 341.365786 223.557793 340.179686 230.186493 338.403786L 197.408793 347.279586ZM 230.190493 338.402686L 230.186493 338.403786M 324.742938 237.144023C 311.671638 286.707723 277.735038 326.060123 230.679838 338.668523C 155.194338 358.894723 74.533938 302.638223 50.519738 213.015823C 26.505438 123.393523 68.231138 34.343723 143.716638 14.117423C 212.211138 -4.235677 284.966538 40.383623 315.796138 115.762423L 297.099538 123.089523C 270.362438 59.258623 208.351838 21.644223 149.927638 37.299023C 85.111438 54.666423 49.253938 131.019723 69.837538 207.838823C 90.421138 284.657923 159.651338 332.853023 224.467438 315.485623C 264.401238 304.785423 293.342638 271.694723 304.864338 229.899623L 324.742938 237.144023ZM 326.180538 231.281923C 329.911138 214.848523 331.385538 197.395723 330.334338 179.498723L 310.115038 179.498723C 310.968038 194.906323 309.634138 209.925123 306.348538 224.054523L 326.180538 231.281923ZM 286.513038 216.825823C 289.354638 205.001023 290.548738 192.416723 289.894938 179.498723L 268.705238 179.498723C 269.191438 189.823923 268.204838 199.876423 265.905238 209.315823L 286.513038 216.825823ZM 246.122238 202.106323C 247.959138 194.969623 248.790438 187.344723 248.491338 179.498723L 228.244838 179.498723C 228.338438 184.851523 227.640138 190.036523 226.240438 194.860723L 246.122238 202.106323ZM 224.211438 200.507323L 244.387438 207.860023C 237.905838 226.521123 224.212938 241.014823 205.831738 245.940023C 173.557038 254.588023 139.050038 230.461523 128.758238 192.051923C 118.466438 153.642323 136.287038 115.494723 168.561738 106.846723C 196.314938 99.410223 225.718638 116.208423 239.956638 145.483523L 221.035638 152.898623C 211.066738 135.161023 192.428838 125.298223 174.773538 130.028923C 153.168138 135.818123 141.215638 161.269223 148.076838 186.875523C 154.938038 212.481923 178.014838 228.546923 199.620138 222.757823C 210.859238 219.746323 219.486138 211.414223 224.211438 200.507323ZM 206.228738 187.567923L 197.428738 184.360923C 195.871938 183.793723 194.150238 184.595923 193.583038 186.152723C 193.015838 187.709423 193.818038 189.431223 195.374838 189.998423L 203.253238 192.869523C 200.777638 196.104823 197.419438 198.500923 193.408638 199.575623C 182.472538 202.505923 170.826038 194.502423 167.395438 181.699223C 163.964838 168.896023 170.049238 156.141523 180.985338 153.211223C 188.449638 151.211123 196.244938 154.304723 201.532838 160.541623L 196.033938 162.696623C 194.491338 163.301223 193.730938 165.041823 194.335538 166.584423C 194.940038 168.127023 196.680738 168.887523 198.223338 168.282923L 204.923238 165.657223C 205.780638 167.344823 206.482438 169.161923 206.998438 171.087623C 207.214038 171.892323 207.392138 172.696823 207.533738 173.498723L 189.124038 173.498723C 187.467138 173.498723 186.124038 174.841923 186.124038 176.498723C 186.124038 178.155623 187.467138 179.498723 189.124038 179.498723L 207.927538 179.498723C 207.797038 182.348023 207.211438 185.078223 206.228738 187.567923ZM 227.811138 173.498723L 248.044538 173.498723C 247.576638 169.274123 246.779738 165.006123 245.635238 160.734823C 244.733038 157.367623 243.644738 154.110223 242.388038 150.974923L 223.693638 158.301223C 224.727838 160.727223 225.608738 163.268423 226.316838 165.911223C 226.996638 168.448223 227.491738 170.983723 227.811138 173.498723ZM 261.060538 143.657323C 262.553338 147.493723 263.857138 151.464623 264.953838 155.557423C 266.563038 161.563123 267.654738 167.564523 268.258638 173.498723L 289.459738 173.498723C 288.729938 165.771423 287.337438 157.949423 285.240138 150.122223C 283.938838 145.265823 282.403638 140.546823 280.653838 135.978823L 261.060538 143.657323ZM 278.388338 130.422323C 255.754038 78.139823 204.490738 47.525723 156.140338 60.481223C 101.993538 74.989823 72.004138 138.646523 89.157138 202.662423C 106.310138 266.678423 164.110138 306.812023 218.256938 292.303423C 251.066838 283.512023 275.006938 256.675023 284.963438 222.647123L 264.302938 215.117823C 256.107838 241.593423 237.244538 262.368623 211.560438 269.250623C 168.349638 280.828923 122.196238 248.698823 108.473838 197.486123C 94.751438 146.273323 118.656438 95.371123 161.867138 83.792823C 199.935038 73.592623 240.286938 97.315723 258.735638 138.124123L 278.388338 130.422323ZM 299.318938 128.664023C 301.308538 133.930623 303.061538 139.362623 304.557538 144.945823C 307.119738 154.508323 308.807438 164.063523 309.673538 173.498723L 329.888338 173.498723C 328.886438 162.356123 326.903838 151.067623 323.876738 139.770123C 322.185738 133.459523 320.214038 127.314323 317.983038 121.349723L 299.318938 128.664023Z"></path></g></g></g><g id="g-root-sy_0a_cu_Vector_1luwjxjzugi6e-stroke" data-item-order="-218029" transform="translate(225.97291564941406, 146.95120239257812)"><g id="sy_0a_cu_Vector_1luwjxjzugi6e-stroke" fill="none" stroke-linecap="round" stroke-linejoin="round" stroke-miterlimit="4" stroke="#ababab" stroke-width="2" stroke-opacity="1"><g><path d="M 17.459 109.20347C 18.0262 107.64667 19.748 106.84447 21.3047 107.41167L 227.3459 182.49917C 228.9026 183.06627 229.7049 184.78807 229.1377 186.34487C 228.5705 187.90157 226.8487 188.70387 225.292 188.13667L 19.2508 113.04917C 17.694 112.48197 16.8918 110.76017 17.459 109.20347ZM 216.5528 11.90607C 217.1574 13.44867 216.3969 15.18937 214.8543 15.79397L 22.0993 91.33367C 20.5567 91.93817 18.8161 91.17777 18.2115 89.63517C 17.6069 88.09257 18.3673 86.35187 19.9099 85.74737L 212.665 10.20767C 214.2076 9.60307 215.9482 10.36347 216.5528 11.90607ZM 232.999 102.54947L 13 102.54947C 11.3431 102.54947 10 101.20637 10 99.54947C 10 97.89267 11.3431 96.54947 13 96.54947L 232.999 96.54947C 234.6559 96.54947 235.999 97.89257 235.999 99.54947C 235.999 101.20637 234.6559 102.54947 232.999 102.54947Z"></path></g></g></g><g id="g-root-sy_2_cu_Vector_1cz9jonzugiz3-stroke" data-item-order="-218025" transform="translate(412.472900390625, 218.49807739257812)"><g id="sy_2_cu_Vector_1cz9jonzugiz3-stroke" fill="none" stroke-linecap="round" stroke-linejoin="round" stroke-miterlimit="4" stroke="#f79438" stroke-width="2" stroke-opacity="1"><g><path d="M 20.1981 12.2519L 10 25L 39.9996 25L 49.4001 13.2494C 50.4477 11.9399 49.5153 10 47.8383 10L 24.8834 10C 23.0606 10 21.3367 10.8286 20.1981 12.2519ZM 20.1981 43.7481L 10 31L 39.9996 31L 49.4001 42.7506C 50.4477 44.0601 49.5153 46 47.8383 46L 24.8834 46C 23.0606 46 21.3367 45.1714 20.1981 43.7481Z"></path></g></g></g><g id="g-root-sy_3_cu_Vector_18k2inbzugglk-stroke" data-item-order="-218021" transform="translate(405.465087890625, 297.0605773925781)"><g id="sy_3_cu_Vector_18k2inbzugglk-stroke" fill="none" stroke-linecap="round" stroke-linejoin="round" stroke-miterlimit="4" stroke="#ffe711" stroke-width="2" stroke-opacity="1"><g><path d="M 25.9967 10.875L 12.0521 19.364L 40.2408 29.6291L 53.0946 21.8044C 54.5271 20.9324 54.3148 18.7906 52.739 18.2168L 31.1697 10.3622C 29.457 9.7385 27.5536 9.9272 25.9967 10.875ZM 15.2204 40.4673L 10 24.9992L 38.1887 35.2643L 43.0009 49.5222C 43.5372 51.1111 41.9974 52.6149 40.4216 52.041L 18.8523 44.1864C 17.1396 43.5627 15.8033 42.1943 15.2204 40.4673Z"></path></g></g></g><g id="g-root-sy_1_cu_Vector_14490ivzughdt-stroke" data-item-order="-218017" transform="translate(393.373291015625, 133.09182739257812)"><g id="sy_1_cu_Vector_14490ivzughdt-stroke" fill="none" stroke-linecap="round" stroke-linejoin="round" stroke-miterlimit="4" stroke="#fb6762" stroke-width="2" stroke-opacity="1"><g><path d="M 14.8381 22.33287L 10 37.92477L 37.9275 26.96897L 42.3873 12.59697C 42.8843 10.99527 41.308 9.52987 39.7468 10.14237L 18.3774 18.52547C 16.6805 19.19117 15.3783 20.59207 14.8381 22.33287ZM 26.3417 51.65387L 12.1924 43.51067L 40.1199 32.55477L 53.1624 40.06067C 54.6159 40.89717 54.4564 43.04357 52.8952 43.65597L 31.5258 52.03917C 29.829 52.70477 27.9215 52.56307 26.3417 51.65387Z"></path></g></g></g><g id="g-root-tx_efficaci_14490ivzughdu-stroke" data-item-order="0" transform="translate(204.60511779785156, 8.994781494140625)"></g><g id="g-root-ic_targ_1ursicnzuhwxw-stroke" data-item-order="0" transform="translate(469.78851318359375, 93.00003051757812)"><g id="ic_targ_1ursicnzuhwxw-stroke" fill="none" stroke-linecap="round" stroke-linejoin="round" stroke-miterlimit="4" stroke="#fb6762" stroke-width="2" stroke-opacity="1"><g><path d="M 44.589294 11.654521C 50.82745 11.64536 56.938877 13.415195 62.206776 16.756441C 75.898369 25.435472 76.907227 43.361378 65.997185 56.467838C 59.771526 63.945198 52.919125 70.877632 45.514561 77.189705C 44.979172 77.638016 44.199421 77.638016 43.664032 77.189705C 36.259274 70.878891 29.406845 63.947392 23.181404 56.470718C 12.274246 43.361378 13.280218 25.435472 26.971815 16.756443C 32.239708 13.415195 38.351139 11.64536 44.589294 11.654521ZM 30.17709 37.593609C 30.17709 45.553253 36.629654 52.005817 44.589294 52.005817C 52.548939 52.005817 59.001503 45.553253 59.001503 37.593609C 59.001503 29.633968 52.548939 23.181404 44.589294 23.181404C 36.629654 23.181404 30.17709 29.633968 30.17709 37.593609ZM 44.589294 20.298962L 44.589294 28.946287M 44.589294 46.240932L 44.589294 54.888256M 35.941971 37.593609L 27.294647 37.593609M 53.236618 37.593609L 61.883942 37.593609"></path></g></g></g><g id="g-root-tx_compito_hxryzrzugglo-stroke" data-item-order="0" transform="translate(550.971923828125, 99.00003051757812)"></g><g id="g-root-tx_istruzio_qssi5jzugiyr-stroke" data-item-order="0" transform="translate(551.210205078125, 141.32034301757812)"></g><g id="g-root-ic_1_140i607zuhxj6-stroke" data-item-order="0" transform="translate(476.30548095703125, 212.99221801757812)"><g id="ic_1_140i607zuhxj6-stroke" fill="none" stroke-linecap="round" stroke-linejoin="round" stroke-miterlimit="4" stroke="#f79438" stroke-width="2" stroke-opacity="1"><g><path d="M 11.30545 37.411846C 11.30545 51.831455 22.994852 63.520859 37.414459 63.520859C 51.834068 63.520859 63.523468 51.831455 63.523468 37.41185C 63.523468 22.992241 51.834068 11.30284 37.414459 11.30284C 22.994852 11.30284 11.30545 22.992241 11.30545 37.41185ZM 71.356171 71.353561L 55.876137 55.873528M 24.359955 37.411846L 50.468964 37.411846M 37.414459 24.357344L 37.414459 50.466351"></path></g></g></g><g id="g-root-tx_chiarezz_6hyhzzugiyu-stroke" data-item-order="0" transform="translate(550.971923828125, 219.00003051757812)"></g><g id="g-root-tx_compitof_dhygvbzughdx-stroke" data-item-order="0" transform="translate(551.210205078125, 261.3203430175781)"></g><g id="g-root-ic_1_18lbgtjzugirt-stroke" data-item-order="0" transform="translate(473.6220703125, 332.9922180175781)"><g id="ic_1_18lbgtjzugirt-stroke" fill="none" stroke-linecap="round" stroke-linejoin="round" stroke-miterlimit="4" stroke="#ffe711" stroke-width="2" stroke-opacity="1"><g><path d="M 37.227123 17.487459C 37.227123 20.870811 34.484371 23.613562 31.101021 23.613562L 18.848814 23.613562C 15.465462 23.613562 12.722713 20.870811 12.722713 17.487459C 12.722713 14.104106 15.465462 11.361356 18.848814 11.361356L 31.101021 11.361356C 34.484371 11.361356 37.227123 14.104106 37.227123 17.487459ZM 24.974918 48.117973L 11.361356 40.584225L 24.974918 31.781698L 38.588478 39.949837L 24.974918 48.117973ZM 24.974918 31.781698L 24.974918 23.613562M 24.974918 48.117973L 24.974918 57.315296M 54.924751 33.143055L 73.983742 33.143055L 73.983742 46.756615L 54.924751 46.756615ZM 37.831566 39.949837L 54.532684 39.949837M 64.454247 46.756615L 64.454247 53.503494C 64.452744 55.039673 63.207809 56.284607 61.671635 56.28611L 45.39526 56.28611M 16.80678 65.815605C 16.806782 70.326736 20.463779 73.983742 24.974918 73.983742C 29.486055 73.983742 33.143055 70.326736 33.143055 65.815605C 33.143055 61.30447 29.486055 57.647465 24.974918 57.647465C 20.463779 57.647465 16.806782 61.30447 16.806782 65.815605"></path></g></g></g><g id="g-root-tx_verbidaz_1lwrz6vzugh6w-stroke" data-item-order="0" transform="translate(550.971923828125, 339.0000305175781)"></g><g id="g-root-tx_verbispe_1qclhbbzuggen-stroke" data-item-order="0" transform="translate(551.210205078125, 381.3203430175781)"></g></g></g></svg>