<?xml version="1.0" encoding="utf-8" standalone="yes"?>
<!DOCTYPE svg PUBLIC "-//W3C//DTD SVG 1.1//EN" "http://www.w3.org/Graphics/SVG/1.1/DTD/svg11.dtd">
<svg style="fill:none;stroke:none;fill-rule:evenodd;clip-rule:evenodd;stroke-linecap:round;stroke-linejoin:round;stroke-miterlimit:1.5;" version="1.1" xmlns="http://www.w3.org/2000/svg" xmlns:xlink="http://www.w3.org/1999/xlink" width="960" height="354" viewBox="0 0 960 354"><style class="text-font-style fontImports" data-font-family="Roboto">@import url(https://fonts.googleapis.com/css2?family=Roboto:wght@400;700&amp;amp;display=block);</style><rect id="" x="0" y="0" width="960" height="354" style="fill: #2c2c2c;"></rect><g id="items" style="isolation: isolate"><g id="blend" style="mix-blend-mode: normal"><g id="g-root-tf_dcyucpygjwuj-fill" data-item-order="-509760"><g id="tf_dcyucpygjwuj-fill-merged" stroke="none" fill="#2c2c2c"><g><path d="M0 0 H960 V354 H0 V0"></path></g></g></g><g id="g-root-sy_2_cu_18hksh5ygqxop-fill" data-item-order="-20154" transform="translate(522, 188)"><g id="sy_2_cu_18hksh5ygqxop-fill-merged" stroke="none" fill="url(#gradient-8a8a8a-330675446)"><g><path d="M83 70C87.95 70 92.519 68.402 96.194 65.706C97.782 66.533 99.586 67 101.5 67C107.851 67 113 61.851 113 55.5C113 52.514 111.862 49.794 109.996 47.75C112.435 45.827 114 42.846 114 39.5C114 37.08 113.182 34.852 111.806 33.076C111.934 32.237 112 31.376 112 30.5C112 21.387 104.837 14 96 14C95.009 14 94.04 14.093 93.099 14.271C90.011 11.613 85.95 10 81.5 10C76.933 10 72.774 11.7 69.658 14.483C68.661 14.169 67.6 14 66.5 14C60.701 14 56 18.701 56 24.5C56 27.072 56.925 29.428 58.46 31.254C56.915 33.417 56 36.098 56 39C56 41.302 56.575 43.464 57.584 45.339C55.359 47.746 54 50.964 54 54.5C54 61.956 60.044 68 67.5 68C69.122 68 70.677 67.714 72.118 67.19C75.327 68.978 79.041 70 83 70 M18 40C18 37.791 16.209 36 14 36C11.791 36 10 37.791 10 40C10 42.209 11.791 44 14 44C16.209 44 18 42.209 18 40"></path></g></g><g id="sy_2_cu_18hksh5ygqxop-fill-merged" stroke="none" fill="url(#gradient-8a8a8a-330675446)"><g><path d="M28 40C28 44.418 31.582 48 36 48C40.418 48 44 44.418 44 40C44 35.582 40.418 32 36 32C31.582 32 28 35.582 28 40"></path></g></g></g><g id="g-root-sy_1_cu_141racpygqygy-fill" data-item-order="-20150" transform="translate(290, 188)"><defs><linearGradient id="gradient-8a8a8a-330675446" x2="0" y2="1"><stop offset="0" stop-color="#959595"></stop><stop offset="1" stop-color="#7f7f7f"></stop></linearGradient></defs><g id="sy_1_cu_141racpygqygy-fill-merged" stroke="none" fill="url(#gradient-8a8a8a-330675446)"><g><path d="M20.598 19C20.565 19 20.533 19 20.5 19C14.701 19 10 23.701 10 29.5C10 32.574 11.321 35.339 13.426 37.259C13.148 38.459 13 39.712 13 41C13 41.745 13.049 42.478 13.145 43.196C11.788 45.301 11 47.809 11 50.5C11 57.956 17.044 64 24.5 64C24.847 64 25.19 63.987 25.53 63.961C29.172 67.682 34.308 70 40 70C45.641 70 50.737 67.723 54.373 64.059C55.621 64.662 57.021 65 58.5 65C63.747 65 68 60.747 68 55.5C68 52.629 66.726 50.055 64.712 48.313C67.948 45.469 70 41.232 70 36.5C70 32.425 68.478 28.717 65.99 25.95C65.996 25.801 66 25.651 66 25.5C66 20.253 61.747 16 56.5 16C55.921 16 55.353 16.052 54.802 16.151C50.681 12.338 45.12 10 39 10C31.475 10 24.794 13.535 20.598 19 M114 40C114 37.791 112.209 36 110 36C107.791 36 106 37.791 106 40C106 42.209 107.791 44 110 44C112.209 44 114 42.209 114 40"></path></g></g><g id="sy_1_cu_141racpygqygy-fill-merged" stroke="none" fill="url(#gradient-8a8a8a-330675446)"><g><path d="M80 40C80 44.418 83.582 48 88 48C92.418 48 96 44.418 96 40C96 35.582 92.418 32 88 32C83.582 32 80 35.582 80 40"></path></g></g></g><g id="g-root-tx_qualecon_1hclespygmqyx-fill" data-item-order="0" transform="translate(128, 38)"><g id="tx_qualecon_1hclespygmqyx-fill-merged" stroke="none" fill="#f4f4f4"><g><text style="font: bold 25px Roboto, sans-serif; white-space: pre;" font-weight="bold" font-size="25px" font-family="Roboto, sans-serif"><tspan x="63.48" y="69.81" dominant-baseline="ideographic">Quale contesto dovrebbe essere fornito all'IA per </tspan><tspan x="143.03" y="99.81" dominant-baseline="ideographic">comprendere appieno la richiesta?</tspan></text></g></g></g><g id="g-root-tx_contesto_4nko4pygh4ar-fill" data-item-order="0" transform="translate(14, 160.9312744140625)"><g id="tx_contesto_4nko4pygh4ar-fill-merged" stroke="none" fill="#e45752"><g><text style="font: bold 30px Roboto, sans-serif; white-space: pre;" font-weight="bold" font-size="30px" font-family="Roboto, sans-serif"><tspan x="21.55" y="45.58" dominant-baseline="ideographic">Contesto Generico</tspan></text></g></g></g><g id="g-root-tx_contesto_1ha3fahyh26f8-fill" data-item-order="0" transform="translate(638, 166.9312744140625)"><g id="tx_contesto_1ha3fahyh26f8-fill-merged" stroke="none" fill="#3bc482"><g><text style="font: bold 30px Roboto, sans-serif; white-space: pre;" font-weight="bold" font-size="30px" font-family="Roboto, sans-serif"><tspan x="12" y="45.58" dominant-baseline="ideographic">Contesto Dettagliato</tspan></text></g></g></g><g id="g-root-ic_face_v64a3tygqz9n-fill" data-item-order="0" transform="translate(422, 182)"></g><g id="g-root-ic_worl_qvx4x5ygh3bg-fill" data-item-order="0" transform="translate(302, 200)"></g><g id="g-root-ic_pins_hs5ve1yh277x-fill" data-item-order="0" transform="translate(578, 200)"></g><g id="g-root-tx_fornisce_1lw5rftygh4aq-fill" data-item-order="0" transform="translate(50, 224)"><g id="tx_fornisce_1lw5rftygh4aq-fill-merged" stroke="none" fill="#f4f4f4"><g><text style="font: 20px Roboto, sans-serif; white-space: pre;" font-size="20px" font-family="Roboto, sans-serif"><tspan x="22.03" y="33.08" dominant-baseline="ideographic">Fornisce informazioni di </tspan><tspan x="35.62" y="57.08" dominant-baseline="ideographic">base ma può portare a </tspan><tspan x="66.47" y="81.07" dominant-baseline="ideographic">risposte generiche.</tspan></text></g></g></g><g id="g-root-tx_offreinf_1d2e3ahyh0tmr-fill" data-item-order="0" transform="translate(638, 236)"><g id="tx_offreinf_1d2e3ahyh0tmr-fill-merged" stroke="none" fill="#f4f4f4"><g><text style="font: 20px Roboto, sans-serif; white-space: pre;" font-size="20px" font-family="Roboto, sans-serif"><tspan x="12" y="33.08" dominant-baseline="ideographic">Offre informazioni specifiche </tspan><tspan x="12" y="57.07" dominant-baseline="ideographic">per risposte mirate e precise.</tspan></text></g></g></g><g id="g-root-tf_dcyucpygjwuj-stroke" data-item-order="-509760"></g><g id="g-root-sy_2_cu_18hksh5ygqxop-stroke" data-item-order="-20154" transform="translate(522, 188)"><g id="sy_2_cu_18hksh5ygqxop-stroke" fill="none" stroke-linecap="round" stroke-linejoin="round" stroke-miterlimit="4" stroke="#f4f4f4" stroke-width="2"><g><path d="M 83 70C 87.9502 70 92.5185 68.4023 96.1944 65.7057C 97.7818 66.5326 99.5863 67 101.5 67C 107.8513 67 113 61.8513 113 55.5C 113 52.5141 111.8621 49.794 109.9962 47.7498C 112.4346 45.827 114 42.8463 114 39.5C 114 37.0802 113.1815 34.8516 111.8062 33.076C 111.9338 32.2366 112 31.3763 112 30.5C 112 21.3873 104.8366 14 96 14C 95.0095 14 94.04 14.0928 93.0993 14.2705C 90.0114 11.6132 85.9496 10 81.5 10C 76.9328 10 72.7743 11.6996 69.658 14.4832C 68.6613 14.1693 67.6004 14 66.5 14C 60.701 14 56 18.701 56 24.5C 56 27.0722 56.9249 29.4283 58.4602 31.2541C 56.9145 33.4174 56 36.0976 56 39C 56 41.3016 56.5751 43.4636 57.5841 45.3388C 55.3594 47.7456 54 50.9641 54 54.5C 54 61.9558 60.0442 68 67.5 68C 69.1219 68 70.677 67.714 72.1175 67.1897C 75.3267 68.9782 79.0413 70 83 70ZM 18 40C 18 37.7909 16.2091 36 14 36C 11.7909 36 10 37.7909 10 40C 10 42.2091 11.7909 44 14 44C 16.2091 44 18 42.2091 18 40Z"></path></g></g><g id="sy_2_cu_18hksh5ygqxop-stroke" fill="none" stroke-linecap="round" stroke-linejoin="round" stroke-miterlimit="4" stroke="#f4f4f4" stroke-width="2"><g><path d="M 28 40C 28 44.418278 31.581722 48 36 48C 40.418278 48 44 44.418278 44 40C 44 35.581722 40.418278 32 36 32C 31.581722 32 28 35.581722 28 40"></path></g></g></g><g id="g-root-sy_1_cu_141racpygqygy-stroke" data-item-order="-20150" transform="translate(290, 188)"><g id="sy_1_cu_141racpygqygy-stroke" fill="none" stroke-linecap="round" stroke-linejoin="round" stroke-miterlimit="4" stroke="#f4f4f4" stroke-width="2"><g><path d="M 20.598 19.0005C 20.5653 19.0002 20.5327 19 20.5 19C 14.701 19 10 23.701 10 29.5C 10 32.5738 11.3208 35.3392 13.4259 37.2594C 13.1475 38.4594 13 39.7119 13 41C 13 41.7449 13.0493 42.4779 13.1448 43.1957C 11.7875 45.3013 11 47.8087 11 50.5C 11 57.9558 17.0442 64 24.5 64C 24.8465 64 25.19 63.9869 25.5299 63.9613C 29.172 67.6819 34.3084 70 40 70C 45.6415 70 50.7374 67.7226 54.3734 64.0594C 55.6214 64.6621 57.0212 65 58.5 65C 63.7467 65 68 60.7467 68 55.5C 68 52.6285 66.726 50.0545 64.7124 48.3125C 67.9476 45.4694 70 41.2324 70 36.5C 70 32.4248 68.4781 28.717 65.9895 25.9503C 65.9965 25.801 66 25.6509 66 25.5C 66 20.2533 61.7467 16 56.5 16C 55.9205 16 55.3531 16.0519 54.8022 16.1513C 50.6815 12.3382 45.1199 10 39 10C 31.475 10 24.7941 13.5352 20.598 19.0005ZM 114 40C 114 37.7909 112.2091 36 110 36C 107.7909 36 106 37.7909 106 40C 106 42.2091 107.7909 44 110 44C 112.2091 44 114 42.2091 114 40Z"></path></g></g><g id="sy_1_cu_141racpygqygy-stroke" fill="none" stroke-linecap="round" stroke-linejoin="round" stroke-miterlimit="4" stroke="#f4f4f4" stroke-width="2"><g><path d="M 80 40C 80 44.418278 83.581722 48 88 48C 92.418278 48 96 44.418278 96 40C 96 35.581722 92.418278 32 88 32C 83.581722 32 80 35.581722 80 40"></path></g></g></g><g id="g-root-tx_qualecon_1hclespygmqyx-stroke" data-item-order="0" transform="translate(128, 38)"></g><g id="g-root-tx_contesto_4nko4pygh4ar-stroke" data-item-order="0" transform="translate(14, 160.9312744140625)"></g><g id="g-root-tx_contesto_1ha3fahyh26f8-stroke" data-item-order="0" transform="translate(638, 166.9312744140625)"></g><g id="g-root-ic_face_v64a3tygqz9n-stroke" data-item-order="0" transform="translate(422, 182)"><g id="ic_face_v64a3tygqz9n-stroke" fill="none" stroke-linecap="round" stroke-linejoin="round" stroke-miterlimit="4" stroke="#f4f4f4" stroke-width="2"><g><path d="M 46.599998 39.681999C 43.599998 36.681999 37.599998 35.181999 34.599998 38.181999M 16.9 45.681999C 16.6 44.482002 16.6 43.281998 16.6 41.781998C 16.6 25.581999 29.799999 12.382 46 12.382C 62.199997 12.382 75.399994 25.581999 75.399994 41.781998C 75.399994 52.582001 69.699997 61.882004 61 66.981995M 40.449997 77.800003C 46.449997 75.399994 45.324997 70.111 44.125 65.311005L 53.677002 61.612C 55.891281 60.755096 57.049278 58.316589 56.314003 56.059002L 56.313999 56.058998C 55.93375 54.891376 55.08989 53.931606 53.980541 53.405022C 52.871193 52.878433 51.594067 52.831413 50.449001 53.275002L 32.875 60.084999C 31.375 60.685001 29.575001 59.485001 29.575001 57.985001L 29.458 55.144001C 29.410076 53.986492 28.88414 52.900726 28.005583 52.145561C 27.127028 51.390404 25.974579 51.03352 24.823002 51.160004L 24.823 51.16C 22.704519 51.393932 21.100885 53.183647 21.1 55.315002L 21.1 67.584999C 21.1 75.385002 28.299999 81.084999 35.800003 79.284996C 35.800003 79.284996 38.949997 78.399994 40.449997 77.800003ZM 31.825001 27.681999C 31.20368 27.681999 30.700001 27.178322 30.700001 26.556999C 30.700001 25.93568 31.20368 25.431999 31.825001 25.431999M 31.825001 27.681999C 32.44632 27.681999 32.950001 27.178322 32.950001 26.556999C 32.950001 25.93568 32.44632 25.431999 31.825001 25.431999M 47.800003 27.681999C 47.17868 27.681999 46.675003 27.178322 46.675003 26.556999C 46.675003 25.93568 47.17868 25.431999 47.800003 25.431999M 47.800003 27.681999C 48.421322 27.681999 48.925003 27.178322 48.925003 26.556999C 48.925003 25.93568 48.421322 25.431999 47.800003 25.431999"></path></g></g></g><g id="g-root-ic_worl_qvx4x5ygh3bg-stroke" data-item-order="0" transform="translate(302, 200)"><g id="ic_worl_qvx4x5ygh3bg-stroke" fill="none" stroke-linecap="round" stroke-linejoin="round" stroke-miterlimit="4" stroke="#f4f4f4" stroke-width="2"><g><path d="M 41.5 25.0945C 41.5 34.435001 30.817001 43.182999 28.4575 44.9995C 28.187826 45.2071 27.812174 45.2071 27.5425 44.9995C 25.181499 43.181499 14.5 34.435001 14.5 25.0945C 14.5 17.2255 20.129499 10.8445 28 10.8445C 35.870499 10.8445 41.5 17.2255 41.5 25.0945ZM 19 24.3445C 19 29.315063 23.029438 33.344501 28 33.344501C 32.970566 33.344501 37 29.315063 37 24.344501C 37 19.373938 32.970566 15.344501 28 15.344501C 23.029438 15.344501 19 19.373938 19 24.344501ZM 19.513 21.3445L 36.487 21.3445M 19.816 28.0945L 36.183998 28.0945M 26.7265 33.25C 23.424559 27.768333 23.424559 20.910166 26.726498 15.428499M 29.2735 33.25C 32.575439 27.768333 32.575439 20.910166 29.273499 15.428499"></path></g></g></g><g id="g-root-ic_pins_hs5ve1yh277x-stroke" data-item-order="0" transform="translate(578, 200)"><g id="ic_pins_hs5ve1yh277x-stroke" fill="none" stroke-linecap="round" stroke-linejoin="round" stroke-miterlimit="4" stroke="#f4f4f4" stroke-width="2"><g><path d="M 24.818501 17.318501C 24.818501 20.276501 20.448999 26.056 18.838001 28.087C 18.695745 28.266663 18.47916 28.371429 18.25 28.371429C 18.02084 28.371429 17.804255 28.266663 17.661999 28.087C 16.051001 26.049999 11.6815 20.276501 11.6815 17.318501C 11.682266 13.69136 14.62286 10.751388 18.25 10.751388C 21.877142 10.751388 24.817734 13.69136 24.818501 17.318501ZM 20.7145 17.318501C 20.715328 18.6798 19.612301 19.783947 18.250999 19.7845C 16.8897 19.785051 15.785776 18.681801 15.785501 17.320499C 15.785224 15.959199 16.888699 14.8555 18.25 14.855499C 19.610863 14.854671 20.7145 15.957637 20.7145 17.318501ZM 37.75 27.25C 41.378021 27.24917 44.319328 30.190474 44.318501 33.818501C 44.318501 36.776501 39.948997 42.554497 38.338001 44.585499C 38.195747 44.765163 37.97916 44.86993 37.75 44.86993C 37.52084 44.86993 37.304253 44.765163 37.161999 44.585499C 35.551003 42.554497 31.181499 36.775002 31.181499 33.817001C 31.181499 30.18956 34.122559 27.24917 37.75 27.25ZM 40.2145 33.818501C 40.215324 35.179802 39.112297 36.283947 37.750999 36.2845C 36.389698 36.285049 35.285774 35.181801 35.2855 33.820499C 35.285225 32.459198 36.388695 31.355499 37.75 31.355499C 39.110863 31.35467 40.2145 32.457634 40.2145 33.818497ZM 19.75 45.25L 18.25 45.25L 18.25 43.75M 31.75 45.25L 33.25 45.25M 27.25 45.25L 28.75 45.25M 22.75 45.25L 24.25 45.25M 18.25 30.25L 18.25 31.75M 18.25 34.75L 18.25 36.25M 18.25 39.25L 18.25 40.75"></path></g></g></g><g id="g-root-tx_fornisce_1lw5rftygh4aq-stroke" data-item-order="0" transform="translate(50, 224)"></g><g id="g-root-tx_offreinf_1d2e3ahyh0tmr-stroke" data-item-order="0" transform="translate(638, 236)"></g></g></g><path id="w142zvw9wsxl3i" d="M65.283 12.757a.35.35 0 0 0 .584.157l5.203-5.141-6.183 3.523.396 1.461zm-2.216-11.7a.35.35 0 0 0-.522.305v3.111l3.276-1.868-2.754-1.548zm3.728 2.105l-4.25 2.421v2.445l6.391-3.644-2.141-1.222zm4.708 3.303a.35.35 0 0 0 0-.609l-1.592-.9-7.365 4.199v1.782a.35.35 0 0 0 .523.305l8.435-4.777z M44.542 2.513c0-.433.355-.783.792-.783s.792.35.792.783-.355.783-.792.783-.792-.35-.792-.783zm59.171 0c0-.433.355-.783.792-.783s.792.35.792.783-.355.783-.792.783-.792-.35-.792-.783zm-85.951 7.636h-1.27v-.487c-.276.201-.864.609-1.881.609-1.202 0-2.274-.794-2.137-2.078.118-1.106 1.153-1.584 1.848-1.727l2.17-.345c0-.539-.29-.956-1.064-1.006s-1.21.305-1.571 1.017l-1.124-.605c1.218-2.631 5.029-1.764 5.029.414v4.207zm-1.27-2.86c.006.396-.062 1.112-.819 1.59-.587.37-1.841.299-1.903-.395-.049-.555.461-.791.906-.898l1.816-.297zm72.662 2.86h-1.27v-.487c-.276.201-.864.609-1.881.609-1.202 0-2.274-.794-2.137-2.078.118-1.106 1.153-1.584 1.848-1.727l2.17-.345c0-.539-.29-.956-1.064-1.006s-1.21.305-1.571 1.017l-1.124-.605c1.218-2.631 5.029-1.764 5.029.414v4.207zm-1.27-2.86c.006.396-.062 1.112-.82 1.59-.587.37-1.841.299-1.903-.395-.049-.555.461-.791.906-.898l1.816-.297zM99.096 10.149H97.85v-8.45h1.246v4.895l2.68-2.559h1.738l-2.633 2.535 2.715 3.578h-1.556l-2.077-2.707-.867.844v1.863zm6.053-6.114h-1.255v6.113h1.255V4.035zm-59.2 0h-1.255v6.113h1.255V4.035zm5.584 6.113V1.697h1.255v2.695c.361-.346 1-.485 1.47-.485 1.452 0 2.477 1.082 2.457 2.448v3.792h-1.27v-3.68c0-.408-.214-1.339-1.315-1.339-.968 0-1.342.756-1.342 1.339v3.681h-1.255zm-4.76-4.894V4.039h.621a.45.45 0 0 0 .45-.45v-.855h1.251v1.305h1.309v1.215h-1.309v3.109c0 .293.105.664.648.664.365 0 .531-.035.736-.07v1.137s-.361.113-.857.113c-1.398 0-1.777-1.051-1.777-1.788V5.254h-1.071zM36.528 4.039h-1.394l2.191 6.106h1.125l1.234-3.918 1.238 3.918h1.129l2.188-6.106h-1.383l-1.359 3.93-1.256-3.93h-1.124l-1.242 3.957-1.348-3.957zM26.212 7.141c-.02 1.566 1.187 3.129 3.223 3.129 1.566 0 2.383-.918 2.734-1.719L31.172 8c-.315.399-.801 1.094-1.738 1.094-1.145 0-1.825-.781-1.891-1.52h4.625c.074-.284.148-.995-.03-1.559-.336-1.064-1.221-2.102-2.839-2.102s-3.088 1.152-3.088 3.227zm1.363-.75h3.348c-.055-.43-.566-1.301-1.623-1.301a1.79 1.79 0 0 0-1.725 1.301zm-8.758.75c.038 1.758 1.277 3.133 3.145 3.133 1.074 0 1.723-.477 1.961-.672v.547h1.242V1.703h-1.258v2.888c-.414-.36-1.062-.68-1.93-.68-1.91 0-3.198 1.473-3.16 3.23zm1.309-.08c0 1.119.723 1.978 1.836 1.978a1.88 1.88 0 0 0 1.94-1.904c0-1.371-1.011-1.99-1.972-1.99s-1.805.798-1.805 1.916zm76.683-.028C96.771 5.275 95.532 3.9 93.664 3.9c-1.074 0-1.723.477-1.961.672v-.547h-1.242v8.22h1.258V9.583c.414.36 1.063.68 1.93.68 1.91 0 3.198-1.473 3.16-3.23zm-1.309.08c0-1.119-.723-1.978-1.836-1.978a1.88 1.88 0 0 0-1.94 1.904c0 1.371 1.011 1.99 1.972 1.99S95.5 8.231 95.5 7.113zM106.441 10.173V4.036h1.254v.382c.361-.346 1-.485 1.47-.485 1.452 0 2.477 1.082 2.457 2.448v3.792h-1.27V6.492c0-.408-.214-1.339-1.315-1.339-.969 0-1.342.756-1.342 1.339v3.681h-1.254zm-30.383-.021V1.824h1.084l4.215 5.777V1.824h1.32v8.328h-1.094l-4.207-5.796v5.796h-1.319zM5.24 10.149H4V2.377h1.014l2.664 3.597 2.654-3.592h1.03v7.766h-1.256V4.762L7.678 8.068 5.24 4.742v5.407z" transform="translate(833, 329)" fill="#acacac88" stroke="none"></path></svg>