<?xml version="1.0" encoding="utf-8" standalone="yes"?>
<!DOCTYPE svg PUBLIC "-//W3C//DTD SVG 1.1//EN" "http://www.w3.org/Graphics/SVG/1.1/DTD/svg11.dtd">
<svg style="fill:none;stroke:none;fill-rule:evenodd;clip-rule:evenodd;stroke-linecap:round;stroke-linejoin:round;stroke-miterlimit:1.5;" version="1.1" xmlns="http://www.w3.org/2000/svg" xmlns:xlink="http://www.w3.org/1999/xlink" width="756" height="522" viewBox="0 0 756 522"><style class="text-font-style fontImports" data-font-family="Roboto">@import url(https://fonts.googleapis.com/css2?family=Roboto:wght@400;700&amp;amp;display=block);</style><rect id="" x="0" y="0" width="756" height="522" style="fill: #2c2c2c;"></rect><g id="items" style="isolation: isolate"><g id="blend" style="mix-blend-mode: normal"><g id="g-root-tf_dccggo10yhp8k-fill" data-item-order="-591948"><g id="tf_dccggo10yhp8k-fill-merged" stroke="none" fill="#2c2c2c" fill-opacity="1"><g><path d="M0 0 H756 V522 H0 V0"></path></g></g></g><g id="g-root-cp_0_g-0_1uux55k10yho26-fill" data-item-order="-301598" transform="translate(356, 170)"><g id="cp_0_g-0_1uux55k10yho26-fill-merged" stroke="none" fill="url(#gradient-8a8a8a-330675446)" fill-opacity="1"><g><path d="M370 10L280 64 V118L190 172 V226L100 280L10 226 V241.609L100 295.609L202 234.109 V180.009L292 126 V72.009L370 25.185 V10"></path></g></g><g id="cp_0_g-0_1uux55k10yho26-fill-merged" stroke="none" fill="url(#gradient-8a8a8a-330675446)" fill-opacity="1"><g><path d="M280 64L190 10 V64L280 118 V64"></path></g></g><g id="cp_0_g-0_1uux55k10yho26-fill-merged" stroke="none" fill="url(#gradient-8a8a8a-330675446)" fill-opacity="1"><g><path d="M190 172L100 118 V173L190 226 V172"></path></g></g></g><g id="g-root-cp_1_g-1_1qf3n1410yhouf-fill" data-item-order="-301590" transform="translate(356, 332)"><g id="cp_1_g-1_1qf3n1410yhouf-fill-merged" stroke="none" fill="url(#gradient-4f83d8-135982273)" fill-opacity="1"><g><path d="M100 10L10 64L100 118L190 64L100 10 M29 64L100 22L171 64L100 106L29 64"></path></g></g></g><g id="g-root-cp_2_g-2_1lza4wo10yhpmo-fill" data-item-order="-301586" transform="translate(446, 224)"><g id="cp_2_g-2_1lza4wo10yhpmo-fill-merged" stroke="none" fill="url(#gradient-40ae79-389135447)" fill-opacity="1"><g><path d="M100 10L10 64L100 118L190 64L100 10 M29 64L100 22L171 64L100 106L29 64"></path></g></g></g><g id="g-root-cp_3_g-3_1cua0d410yj1u1-fill" data-item-order="-301582" transform="translate(536, 116)"><g id="cp_3_g-3_1cua0d410yj1u1-fill-merged" stroke="none" fill="url(#gradient-87aa3f-469929121)" fill-opacity="1"><g><path d="M100 10L10 64L100 118L190 64L100 10 M29 64L100 22L171 64L100 106L29 64"></path></g></g></g><g id="g-root-cp_2_text-2_1cua0d410yj1u2-fill" data-item-order="-301572" transform="translate(170, 230)"><g id="cp_2_text-2_1cua0d410yj1u2-fill-merged" stroke="none" fill="url(#gradient-40ae79-389135447)" fill-opacity="1"><g><path d="M10 10 H16 V106 H10 V10"></path></g></g></g><g id="g-root-cp_3_text-3_zithzs10yj3ez-fill" data-item-order="-301558" transform="translate(260, 122)"><g id="cp_3_text-3_zithzs10yj3ez-fill-merged" stroke="none" fill="url(#gradient-87aa3f-469929121)" fill-opacity="1"><g><path d="M10 10 H16 V106 H10 V10"></path></g></g></g><g id="g-root-cp_1_text-1_v2zzvc10yj478-fill" data-item-order="-301544" transform="translate(80, 356)"><defs><linearGradient id="gradient-8a8a8a-330675446" x2="0" y2="1"><stop offset="0" stop-color="#959595"></stop><stop offset="1" stop-color="#7f7f7f"></stop></linearGradient><linearGradient id="gradient-4f83d8-135982273" x2="0" y2="1"><stop offset="0" stop-color="#4e88e6"></stop><stop offset="1" stop-color="#4f7eca"></stop></linearGradient><linearGradient id="gradient-40ae79-389135447" x2="0" y2="1"><stop offset="0" stop-color="#3bc482"></stop><stop offset="1" stop-color="#449870"></stop></linearGradient><linearGradient id="gradient-87aa3f-469929121" x2="0" y2="1"><stop offset="0" stop-color="#91bb39"></stop><stop offset="1" stop-color="#7d9844"></stop></linearGradient></defs><g id="cp_1_text-1_v2zzvc10yj478-fill-merged" stroke="none" fill="url(#gradient-4f83d8-135982273)" fill-opacity="1"><g><path d="M10 10 H16 V106 H10 V10"></path></g></g></g><g id="g-root-tx_padronan_m7zgpk10yj1u5-fill" data-item-order="0" transform="translate(218, 38)"><g id="tx_padronan_m7zgpk10yj1u5-fill-merged" stroke="none" fill="#f4f4f4" fill-opacity="1"><g><text style="font: bold 25px Roboto, sans-serif; white-space: pre;" font-weight="bold" font-size="25px" font-family="Roboto, sans-serif"><tspan x="13.02" y="43" dominant-baseline="ideographic">Padronanza dei Prompt AI</tspan></text></g></g></g><g id="g-root-tx_3_1q88f2w10ykhza-fill" data-item-order="0" transform="translate(206, 122)"><g id="tx_3_1q88f2w10ykhza-fill-merged" stroke="none" fill="#a6da37" fill-opacity="1"><g><text style="font: bold 25px Roboto, sans-serif; white-space: pre;" font-weight="bold" font-size="25px" font-family="Roboto, sans-serif"><tspan x="14.82" y="43" dominant-baseline="ideographic">3</tspan></text></g></g></g><g id="g-root-tx_chainoft_8xrwig10ykiz0-fill" data-item-order="0" transform="translate(278, 122)"><g id="tx_chainoft_8xrwig10ykiz0-fill-merged" stroke="none" fill="#a6da37" fill-opacity="1"><g><text style="font: bold 20px Roboto, sans-serif; white-space: pre;" font-weight="bold" font-size="20px" font-family="Roboto, sans-serif"><tspan x="12" y="33.85" dominant-baseline="ideographic">Chain-of-Thought Prompt</tspan></text></g></g></g><g id="g-root-tx_richiede_1uo1x7c10ykh71-fill" data-item-order="0" transform="translate(278, 158)"><g id="tx_richiede_1uo1x7c10ykh71-fill-merged" stroke="none" fill="#f4f4f4" fill-opacity="1"><g><text style="font: 15px Roboto, sans-serif; white-space: pre;" font-size="15px" font-family="Roboto, sans-serif"><tspan x="12" y="30.69" dominant-baseline="ideographic">Richiedere all'IA di spiegare il suo </tspan><tspan x="12" y="48.69" dominant-baseline="ideographic">processo di ragionamento per una </tspan><tspan x="12" y="66.7" dominant-baseline="ideographic">comprensione più profonda.</tspan></text></g></g></g><g id="g-root-ic_circ_1hjgms810yj3sw-fill" data-item-order="0" transform="translate(602, 146)"></g><g id="g-root-tx_2_htewrc10yki6b-fill" data-item-order="0" transform="translate(116, 230)"><g id="tx_2_htewrc10yki6b-fill-merged" stroke="none" fill="#43dd93" fill-opacity="1"><g><text style="font: bold 25px Roboto, sans-serif; white-space: pre;" font-weight="bold" font-size="25px" font-family="Roboto, sans-serif"><tspan x="14.82" y="43" dominant-baseline="ideographic">2</tspan></text></g></g></g><g id="g-root-tx_fewshotp_18fpgew10yki69-fill" data-item-order="0" transform="translate(188, 230)"><g id="tx_fewshotp_18fpgew10yki69-fill-merged" stroke="none" fill="#43dd93" fill-opacity="1"><g><text style="font: bold 20px Roboto, sans-serif; white-space: pre;" font-weight="bold" font-size="20px" font-family="Roboto, sans-serif"><tspan x="12" y="33.85" dominant-baseline="ideographic">Few-Shot Prompt</tspan></text></g></g></g><g id="g-root-tx_fornirea_v4vf4o10ykgle-fill" data-item-order="0" transform="translate(188, 266)"><g id="tx_fornirea_v4vf4o10ykgle-fill-merged" stroke="none" fill="#f4f4f4" fill-opacity="1"><g><text style="font: 15px Roboto, sans-serif; white-space: pre;" font-size="15px" font-family="Roboto, sans-serif"><tspan x="12" y="30.69" dominant-baseline="ideographic">Fornire alcuni esempi per guidare </tspan><tspan x="12" y="48.69" dominant-baseline="ideographic">l'IA verso una risposta più </tspan><tspan x="12" y="66.7" dominant-baseline="ideographic">accurata.</tspan></text></g></g></g><g id="g-root-ic_idea_1luac7s10yj3lz-fill" data-item-order="0" transform="translate(512, 254)"></g><g id="g-root-tx_1_zlxvfc10ykhzd-fill" data-item-order="0" transform="translate(26, 356)"><g id="tx_1_zlxvfc10ykhzd-fill-merged" stroke="none" fill="#4f91fc" fill-opacity="1"><g><text style="font: bold 25px Roboto, sans-serif; white-space: pre;" font-weight="bold" font-size="25px" font-family="Roboto, sans-serif"><tspan x="14.82" y="43" dominant-baseline="ideographic">1</tspan></text></g></g></g><g id="g-root-tx_zeroshot_1hcleu010ykirz-fill" data-item-order="0" transform="translate(98, 356)"><g id="tx_zeroshot_1hcleu010ykirz-fill-merged" stroke="none" fill="#4f91fc" fill-opacity="1"><g><text style="font: bold 20px Roboto, sans-serif; white-space: pre;" font-weight="bold" font-size="20px" font-family="Roboto, sans-serif"><tspan x="12" y="33.85" dominant-baseline="ideographic">Zero-Shot Prompt</tspan></text></g></g></g><g id="g-root-ic_info_8wiyc810yj3f2-fill" data-item-order="0" transform="translate(422, 362)"></g><g id="g-root-tx_unprompt_18hkvo810ykh6o-fill" data-item-order="0" transform="translate(98, 392)"><g id="tx_unprompt_18hkvo810ykh6o-fill-merged" stroke="none" fill="#f4f4f4" fill-opacity="1"><g><text style="font: 15px Roboto, sans-serif; white-space: pre;" font-size="15px" font-family="Roboto, sans-serif"><tspan x="12" y="30.69" dominant-baseline="ideographic">Un prompt diretto senza esempi </tspan><tspan x="12" y="48.69" dominant-baseline="ideographic">per testare la comprensione di </tspan><tspan x="12" y="66.7" dominant-baseline="ideographic">base dell'IA.</tspan></text></g></g></g><g id="g-root-tf_dccggo10yhp8k-stroke" data-item-order="-591948"></g><g id="g-root-cp_0_g-0_1uux55k10yho26-stroke" data-item-order="-301598" transform="translate(356, 170)"><g id="cp_0_g-0_1uux55k10yho26-stroke" fill="none" stroke-linecap="round" stroke-linejoin="round" stroke-miterlimit="4" stroke="#f4f4f4" stroke-width="2" stroke-opacity="1"><g><path d="M 370 10L 280 64L 280 118L 190 172L 190 226L 100 280L 10 226L 10 241.6089L 100 295.6089L 202 234.1089L 202 180.009L 292 126L 292 72.009L 370 25.1852L 370 10Z"></path></g></g><g id="cp_0_g-0_1uux55k10yho26-stroke" fill="none" stroke-linecap="round" stroke-linejoin="round" stroke-miterlimit="4" stroke="#f4f4f4" stroke-width="2" stroke-opacity="1"><g><path d="M 280 64L 190 10L 190 64L 280 118L 280 64Z"></path></g></g><g id="cp_0_g-0_1uux55k10yho26-stroke" fill="none" stroke-linecap="round" stroke-linejoin="round" stroke-miterlimit="4" stroke="#f4f4f4" stroke-width="2" stroke-opacity="1"><g><path d="M 190 172L 100 118L 100 173L 190 226L 190 172Z"></path></g></g></g><g id="g-root-cp_1_g-1_1qf3n1410yhouf-stroke" data-item-order="-301590" transform="translate(356, 332)"><g id="cp_1_g-1_1qf3n1410yhouf-stroke" fill="none" stroke-linecap="round" stroke-linejoin="round" stroke-miterlimit="4" stroke="#f4f4f4" stroke-width="2" stroke-opacity="1"><g><path d="M 100 10L 10 64L 100 118L 190 64L 100 10ZM 29 64L 100 22L 171 64L 100 106L 29 64Z"></path></g></g></g><g id="g-root-cp_2_g-2_1lza4wo10yhpmo-stroke" data-item-order="-301586" transform="translate(446, 224)"><g id="cp_2_g-2_1lza4wo10yhpmo-stroke" fill="none" stroke-linecap="round" stroke-linejoin="round" stroke-miterlimit="4" stroke="#f4f4f4" stroke-width="2" stroke-opacity="1"><g><path d="M 100 10L 10 64L 100 118L 190 64L 100 10ZM 29 64L 100 22L 171 64L 100 106L 29 64Z"></path></g></g></g><g id="g-root-cp_3_g-3_1cua0d410yj1u1-stroke" data-item-order="-301582" transform="translate(536, 116)"><g id="cp_3_g-3_1cua0d410yj1u1-stroke" fill="none" stroke-linecap="round" stroke-linejoin="round" stroke-miterlimit="4" stroke="#f4f4f4" stroke-width="2" stroke-opacity="1"><g><path d="M 100 10L 10 64L 100 118L 190 64L 100 10ZM 29 64L 100 22L 171 64L 100 106L 29 64Z"></path></g></g></g><g id="g-root-cp_2_text-2_1cua0d410yj1u2-stroke" data-item-order="-301572" transform="translate(170, 230)"><g id="cp_2_text-2_1cua0d410yj1u2-stroke" fill="none" stroke-linecap="round" stroke-linejoin="round" stroke-miterlimit="4" stroke="#f4f4f4" stroke-width="2" stroke-opacity="1"><g><path d="M 10 10L 16 10L 16 106L 10 106Z"></path></g></g></g><g id="g-root-cp_3_text-3_zithzs10yj3ez-stroke" data-item-order="-301558" transform="translate(260, 122)"><g id="cp_3_text-3_zithzs10yj3ez-stroke" fill="none" stroke-linecap="round" stroke-linejoin="round" stroke-miterlimit="4" stroke="#f4f4f4" stroke-width="2" stroke-opacity="1"><g><path d="M 10 10L 16 10L 16 106L 10 106Z"></path></g></g></g><g id="g-root-cp_1_text-1_v2zzvc10yj478-stroke" data-item-order="-301544" transform="translate(80, 356)"><g id="cp_1_text-1_v2zzvc10yj478-stroke" fill="none" stroke-linecap="round" stroke-linejoin="round" stroke-miterlimit="4" stroke="#f4f4f4" stroke-width="2" stroke-opacity="1"><g><path d="M 10 10L 16 10L 16 106L 10 106Z"></path></g></g></g><g id="g-root-tx_padronan_m7zgpk10yj1u5-stroke" data-item-order="0" transform="translate(218, 38)"></g><g id="g-root-tx_3_1q88f2w10ykhza-stroke" data-item-order="0" transform="translate(206, 122)"></g><g id="g-root-tx_chainoft_8xrwig10ykiz0-stroke" data-item-order="0" transform="translate(278, 122)"></g><g id="g-root-tx_richiede_1uo1x7c10ykh71-stroke" data-item-order="0" transform="translate(278, 158)"></g><g id="g-root-ic_circ_1hjgms810yj3sw-stroke" data-item-order="0" transform="translate(602, 146)"><g id="ic_circ_1hjgms810yj3sw-stroke" fill="none" stroke-linecap="round" stroke-linejoin="round" stroke-miterlimit="4" stroke="#f4f4f4" stroke-width="2" stroke-opacity="1"><g><path d="M 11.684 41.108002L 16.316 34L 23.425999 38.632M 36.279999 14C 37.640717 13.995972 38.998337 14.129991 40.332001 14.4M 44.076 15.559999C 45.3298 16.089424 46.526604 16.744785 47.647999 17.516001M 50.639999 20.040001C 51.590492 21.017902 52.438873 22.090105 53.172001 23.24M 54.950001 26.716C 55.445034 27.983488 55.808933 29.298351 56.036003 30.640001M 56.310001 34.549999C 56.273365 35.910217 56.098465 37.263184 55.788002 38.588001M 54.52 42.296001C 53.954975 43.534523 53.264713 44.711987 52.459999 45.810001M 49.849998 48.726002C 48.848454 49.647541 47.755455 50.464439 46.588001 51.164001M 43.048 52.84C 41.766502 53.296806 40.441589 53.621166 39.094002 53.808002M 35.174 53.967999C 33.815704 53.892097 32.468716 53.67765 31.154001 53.328003M 27.476 51.945999C 26.256275 51.342636 25.101009 50.616913 24.028 49.779999M 21.200001 47.084C 20.308701 46.055096 19.524647 44.937984 18.860001 43.75M 17.284 40.162003C 16.641888 38.17112 16.315929 36.091866 16.318001 34"></path></g></g></g><g id="g-root-tx_2_htewrc10yki6b-stroke" data-item-order="0" transform="translate(116, 230)"></g><g id="g-root-tx_fewshotp_18fpgew10yki69-stroke" data-item-order="0" transform="translate(188, 230)"></g><g id="g-root-tx_fornirea_v4vf4o10ykgle-stroke" data-item-order="0" transform="translate(188, 266)"></g><g id="g-root-ic_idea_1luac7s10yj3lz-stroke" data-item-order="0" transform="translate(512, 254)"><g id="ic_idea_1luac7s10yj3lz-stroke" fill="none" stroke-linecap="round" stroke-linejoin="round" stroke-miterlimit="4" stroke="#f4f4f4" stroke-width="2" stroke-opacity="1"><g><path d="M 40 44.66L 40 49C 40 52.313709 37.313709 55 34 55C 30.686293 55 28 52.313709 28 49L 28 44.66M 34 55L 34 57M 36 45.860001L 36 34C 36 32.343147 37.343147 31 39 31C 40.656853 31 42 32.343147 42 34C 42 35.656853 40.656853 37 39 37L 29 37C 27.343147 37 26 35.656853 26 34C 26 32.343147 27.343147 31 29 31C 30.656855 31 32 32.343147 32 34L 32 45.860001M 28.08 50L 39.919998 50M 20 32C 20 39.731987 26.268015 46 34 46C 41.731987 46 48 39.731987 48 32C 48 24.268015 41.731987 18 34 18C 26.268015 18 20 24.268015 20 32M 34 11L 34 13M 19.16 17.16L 20.560001 18.560001M 13 32L 15 32M 19.16 46.860001L 20.560001 45.439999M 48.84 46.860001L 47.439999 45.439999M 55 32L 53 32M 48.84 17.16L 47.439999 18.560001"></path></g></g></g><g id="g-root-tx_1_zlxvfc10ykhzd-stroke" data-item-order="0" transform="translate(26, 356)"></g><g id="g-root-tx_zeroshot_1hcleu010ykirz-stroke" data-item-order="0" transform="translate(98, 356)"></g><g id="g-root-ic_info_8wiyc810yj3f2-stroke" data-item-order="0" transform="translate(422, 362)"><g id="ic_info_8wiyc810yj3f2-stroke" fill="none" stroke-linecap="round" stroke-linejoin="round" stroke-miterlimit="4" stroke="#f4f4f4" stroke-width="2" stroke-opacity="1"><g><path d="M 15 37.996002C 15 47.384842 22.61116 54.995998 32 54.995998C 41.38884 54.995998 49 47.384842 49 37.996002C 49 28.607159 41.38884 20.996 32 20.996C 22.61116 20.996 15 28.607159 15 37.996002ZM 40.809998 16.484001C 40.433075 16.271118 40.23592 15.839883 40.321518 15.415542C 40.407112 14.991201 40.756023 14.670116 41.186001 14.62L 53.742001 13.142C 54.045952 13.106237 54.349548 13.211633 54.565956 13.428042C 54.782368 13.644453 54.887764 13.948047 54.852001 14.252L 53.400002 26.68C 53.349415 27.111343 53.026203 27.460724 52.600094 27.544668C 52.173985 27.628614 51.742405 27.427927 51.532001 27.048C 49.099545 22.530146 45.363464 18.849119 40.809998 16.483999ZM 33 47L 33 35C 33 33.895432 32.104568 33 31 33L 29 33M 29 46.995998L 37 46.995998M 33 27.996L 33 27.996M 33 28C 32.723858 28 32.5 28.223858 32.5 28.5C 32.5 28.776142 32.723858 29 33 29C 33.276142 29 33.5 28.776142 33.5 28.5C 33.5 28.223858 33.276142 28 33 28"></path></g></g></g><g id="g-root-tx_unprompt_18hkvo810ykh6o-stroke" data-item-order="0" transform="translate(98, 392)"></g></g></g></svg>