<?xml version="1.0" encoding="utf-8" standalone="yes"?>
<!DOCTYPE svg PUBLIC "-//W3C//DTD SVG 1.1//EN" "http://www.w3.org/Graphics/SVG/1.1/DTD/svg11.dtd">
<svg style="fill:none;stroke:none;fill-rule:evenodd;clip-rule:evenodd;stroke-linecap:round;stroke-linejoin:round;stroke-miterlimit:1.5;" version="1.1" xmlns="http://www.w3.org/2000/svg" xmlns:xlink="http://www.w3.org/1999/xlink" width="1034" height="705" viewBox="0 0 1034 705"><style class="text-font-style fontImports" data-font-family="Roboto">@import url(https://fonts.googleapis.com/css2?family=Roboto:wght@400;700&amp;amp;display=block);</style><rect id="" x="0" y="0" width="1034" height="704" style="fill: #2c2c2c;"></rect><g id="items" style="isolation: isolate"><g id="blend" style="mix-blend-mode: normal"><g id="g-root-tf_1hdu9yv13qj8cu-fill" data-item-order="-1091904"><g id="tf_1hdu9yv13qj8cu-fill-merged" stroke="none" fill="#2c2c2c" fill-opacity="1"><g><path d="M0 0 H1034 V704 H0 V0"></path></g></g></g><g id="g-root-cp_4_Frame_6_hsscmv13qm0aw-fill" data-item-order="-599468" transform="translate(477, 219)"><g id="cp_4_Frame_6_hsscmv13qm0aw-fill-merged" stroke="none" fill="#f79438" fill-opacity="1"><g><path d="M69.667 39.5C69.667 55.792 56.31 69 39.833 69C23.357 69 10 55.792 10 39.5C10 23.208 23.357 10 39.833 10C56.31 10 69.667 23.208 69.667 39.5 M69.149 45C69.54 43.094 69.667 41.521 69.667 39.5C69.667 37.479 69.331 34.906 68.94 33"></path></g></g></g><g id="g-root-cp_3_g-3_4hbu9j13qm1vt-fill" data-item-order="-599446" transform="translate(309, 303.0001220703125)"><g id="cp_3_g-3_4hbu9j13qm1vt-fill-merged" stroke="none" fill="#ffe711" fill-opacity="1"><g><path d="M70 40C70 56.569 56.569 70 40 70C23.431 70 10 56.569 10 40C10 23.431 23.431 10 40 10C56.569 10 70 23.431 70 40 M69.479 45.593C69.873 43.655 70 42.055 70 40C70 37.945 69.663 35.328 69.269 33.39 M69.597 39C69.597 41.055 69.392 43.061 69 45 H153.179C166.368 45 177.06 55.745 177.06 69 H189C189 49.118 172.962 33 153.179 33 H69C69.392 34.939 69.597 36.945 69.597 39"></path></g></g></g><g id="g-root-cp_2_g-2_1ic5313qm2o2-fill" data-item-order="-599422" transform="translate(308, 410.0001220703125)"><g id="cp_2_g-2_1ic5313qm2o2-fill-merged" stroke="none" fill="#43dd93" fill-opacity="1"><g><path d="M70 40C70 56.569 56.569 70 40 70C23.431 70 10 56.569 10 40C10 23.431 23.431 10 40 10C56.569 10 70 23.431 70 40 M69.479 45.593C69.873 43.655 70 42.055 70 40C70 37.945 69.663 35.328 69.269 33.39 M70.597 39.167C70.597 41.278 70.392 43.341 70 45.333 H130.179C143.368 45.333 154.06 56.377 154.06 70 H166C166 49.565 149.962 33 130.179 33 H70C70.392 34.993 70.597 37.055 70.597 39.167"></path></g></g></g><g id="g-root-cp_1_g-1_1q7luyf13qm03v-fill" data-item-order="-599396" transform="translate(309, 519.0001220703125)"><g id="cp_1_g-1_1q7luyf13qm03v-fill-merged" stroke="none" fill="#4f91fc" fill-opacity="1"><g><path d="M70 40C70 56.569 56.569 70 40 70C23.431 70 10 56.569 10 40C10 23.431 23.431 10 40 10C56.569 10 70 23.431 70 40 M69.479 45.593C69.873 43.655 70 42.055 70 40C70 37.945 69.663 35.328 69.269 33.39 M69.597 39C69.597 41.055 69.392 43.061 69 45 H105.179C118.368 45 129.06 55.745 129.06 69 H141C141 49.118 124.963 33 105.179 33 H69C69.392 34.939 69.597 36.945 69.597 39"></path></g></g></g><g id="g-root-cp_1_lines_1q7luyf13qm03w-fill" data-item-order="-599384" transform="translate(428, 578.0001220703125)"><g id="cp_1_lines_1q7luyf13qm03w-fill-merged" stroke="none" fill="#4f91fc" fill-opacity="1"><g><path d="M10 10 H22 V44 H10 V10"></path></g></g></g><g id="g-root-cp_2_line_2_1lrsctz13qm0w5-fill" data-item-order="-599376" transform="translate(452, 470.0001220703125)"><g id="cp_2_line_2_1lrsctz13qm0w5-fill-merged" stroke="none" fill="#43dd93" fill-opacity="1"><g><path d="M10 10 H22 V152 H10 V10"></path></g></g></g><g id="g-root-cp_3_line_5_1cw5cl313qm1ou-fill" data-item-order="-599368" transform="translate(476, 362.0001220703125)"><g id="cp_3_line_5_1cw5cl313qm1ou-fill-merged" stroke="none" fill="#ffe711" fill-opacity="1"><g><path d="M10 10 H22 V260 H10 V10"></path></g></g></g><g id="g-root-cp_5_g-5_18gbugn13qm2h3-fill" data-item-order="-599358" transform="translate(526, 314.0001220703125)"><g id="cp_5_g-5_18gbugn13qm2h3-fill-merged" stroke="none" fill="#cb68f9" fill-opacity="1"><g><path d="M189 40C189 56.569 175.568 70 159 70C142.432 70 129 56.569 129 40C129 23.431 142.432 10 159 10C175.568 10 189 23.431 189 40 M188.48 45.593C188.873 43.655 189 42.055 189 40C189 37.945 188.663 35.328 188.269 33.39 M129.403 39C129.403 41.055 129.608 43.061 130 45 H45.821C32.632 45 21.94 56.745 21.94 70 H10C10 50.118 26.037 33 45.821 33 H130C129.608 34.939 129.403 36.945 129.403 39"></path></g></g></g><g id="g-root-cp_6_g-6_1414tfb13qm03k-fill" data-item-order="-599336" transform="translate(550, 422.0001220703125)"><g id="cp_6_g-6_1414tfb13qm03k-fill-merged" stroke="none" fill="#fb6762" fill-opacity="1"><g><path d="M165 40C165 56.569 151.568 70 135 70C118.432 70 105 56.569 105 40C105 23.431 118.432 10 135 10C151.568 10 165 23.431 165 40 M164.48 45.593C164.873 43.655 165 42.055 165 40C165 37.945 164.663 35.328 164.269 33.39 M105.403 39.5C105.403 41.555 105.608 43.561 106 45.5 H45.821C32.632 45.5 21.94 56.745 21.94 70 H10C10 50.118 26.038 33.5 45.821 33.5 H106C105.608 35.439 105.403 37.445 105.403 39.5"></path></g></g></g><g id="g-root-cp_6_line_8_qpob1z13qm1oh-fill" data-item-order="-599312" transform="translate(550, 482.0001220703125)"><g id="cp_6_line_8_qpob1z13qm1oh-fill-merged" stroke="none" fill="#fb6762" fill-opacity="1"><g><path d="M10 10 H22 V140 H10 V10"></path></g></g></g><g id="g-root-cp_5_line_11_hu1at313qm2h6-fill" data-item-order="-599304" transform="translate(526, 373.0001220703125)"><g id="cp_5_line_11_hu1at313qm2h6-fill-merged" stroke="none" fill="#cb68f9" fill-opacity="1"><g><path d="M10 11 H22 V249 H10 V11"></path></g></g></g><g id="g-root-sy_4_line-4_deu9rr13qm03n-fill" data-item-order="-599296" transform="translate(501, 278.0001220703125)"><g id="sy_4_line-4_deu9rr13qm03n-fill-merged" stroke="none" fill="#f79438" fill-opacity="1"><g><path d="M10 10 H22 V344 H10 V10"></path></g></g></g><g id="g-root-tx_creaunte_147dkaf13qm1oh-fill" data-item-order="0" transform="translate(92, 338.0001220703125)"><g id="tx_creaunte_147dkaf13qm1oh-fill-merged" stroke="none" fill="#f4f4f4" fill-opacity="1"><g><text style="font: 15px Roboto, sans-serif; white-space: pre;" font-size="15px" font-family="Roboto, sans-serif"><tspan x="20.63" y="27.69" dominant-baseline="ideographic">Crea un test interattivo con </tspan><tspan x="19.58" y="45.69" dominant-baseline="ideographic">domande a scelta multipla.</tspan></text></g></g></g><g id="g-root-ic_xml_1hjgjqv13qqadn-fill" data-item-order="0" transform="translate(658, 326.0001220703125)"></g><g id="g-root-tx_jsonmark_1cxearb13qrmz0-fill" data-item-order="0" transform="translate(730, 314.0001220703125)"><g id="tx_jsonmark_1cxearb13qrmz0-fill-merged" stroke="none" fill="#cb68f9" fill-opacity="1"><g><text style="font: bold 20px Roboto, sans-serif; white-space: pre;" font-weight="bold" font-size="20px" font-family="Roboto, sans-serif"><tspan x="12" y="33.85" dominant-baseline="ideographic">JSON/Markdown</tspan></text></g></g></g><g id="g-root-tx_fornisce_v64a9j13qrpc5-fill" data-item-order="0" transform="translate(730, 350.0001220703125)"><g id="tx_fornisce_v64a9j13qrpc5-fill-merged" stroke="none" fill="#f4f4f4" fill-opacity="1"><g><text style="font: 15px Roboto, sans-serif; white-space: pre;" font-size="15px" font-family="Roboto, sans-serif"><tspan x="12" y="27.69" dominant-baseline="ideographic">Fornisce formati strutturati per </tspan><tspan x="12" y="45.69" dominant-baseline="ideographic">l'uso tecnico.</tspan></text></g></g></g><g id="g-root-ic_1_i0wirb13qm0wa-fill" data-item-order="0" transform="translate(320, 314.0001220703125)"></g><g id="g-root-tx_liste_m9usxj13qnfur-fill" data-item-order="0" transform="translate(236, 410.0001220703125)"><g id="tx_liste_m9usxj13qnfur-fill-merged" stroke="none" fill="#43dd93" fill-opacity="1"><g><text style="font: bold 20px Roboto, sans-serif; white-space: pre;" font-weight="bold" font-size="20px" font-family="Roboto, sans-serif"><tspan x="12.03" y="33.85" dominant-baseline="ideographic">Liste</tspan></text></g></g></g><g id="g-root-tx_quiz_1ly13p313qm2h4-fill" data-item-order="0" transform="translate(236, 302.0001220703125)"><g id="tx_quiz_1ly13p313qm2h4-fill-merged" stroke="none" fill="#ffe711" fill-opacity="1"><g><text style="font: bold 20px Roboto, sans-serif; white-space: pre;" font-weight="bold" font-size="20px" font-family="Roboto, sans-serif"><tspan x="15.53" y="33.85" dominant-baseline="ideographic">Quiz</tspan></text></g></g></g><g id="g-root-ic_numb_1lt1b0713qnggd-fill" data-item-order="0" transform="translate(320, 422.0001220703125)"></g><g id="g-root-ic_hier_v6qrcn13qm32f-fill" data-item-order="0" transform="translate(489, 231.0001220703125)"></g><g id="g-root-tx_dialogos_1qd84qf13qrnyn-fill" data-item-order="0" transform="translate(730, 422.0001220703125)"><g id="tx_dialogos_1qd84qf13qrnyn-fill-merged" stroke="none" fill="#fb6762" fill-opacity="1"><g><text style="font: bold 20px Roboto, sans-serif; white-space: pre;" font-weight="bold" font-size="20px" font-family="Roboto, sans-serif"><tspan x="12" y="33.85" dominant-baseline="ideographic">Dialogo/Sceneggiatura</tspan></text></g></g></g><g id="g-root-tx_presenta_3dref13qnf2k-fill" data-item-order="0" transform="translate(68, 446.0001220703125)"><g id="tx_presenta_3dref13qnf2k-fill-merged" stroke="none" fill="#f4f4f4" fill-opacity="1"><g><text style="font: 15px Roboto, sans-serif; white-space: pre;" font-size="15px" font-family="Roboto, sans-serif"><tspan x="25.95" y="27.69" dominant-baseline="ideographic">Presenta le informazioni in un </tspan><tspan x="15.91" y="45.69" dominant-baseline="ideographic">formato sequenziale o puntato.</tspan></text></g></g></g><g id="g-root-ic_1_8zn8qf13qrojy-fill" data-item-order="0" transform="translate(658, 434.0001220703125)"></g><g id="g-root-tx_visualiz_18i79pz13qm1hi-fill" data-item-order="0" transform="translate(387, 178)"><g id="tx_visualiz_18i79pz13qm1hi-fill-merged" stroke="none" fill="#f4f4f4" fill-opacity="1"><g><text style="font: 15px Roboto, sans-serif; white-space: pre;" font-size="15px" font-family="Roboto, sans-serif"><tspan x="12" y="30.69" dominant-baseline="ideographic">Visualizza le relazioni tra i concetti.</tspan></text></g></g></g><g id="g-root-tx_presenta_146r37b13qrny8-fill" data-item-order="0" transform="translate(730, 458.0001220703125)"><g id="tx_presenta_146r37b13qrny8-fill-merged" stroke="none" fill="#f4f4f4" fill-opacity="1"><g><text style="font: 15px Roboto, sans-serif; white-space: pre;" font-size="15px" font-family="Roboto, sans-serif"><tspan x="12" y="27.69" dominant-baseline="ideographic">Presenta le informazioni attraverso </tspan><tspan x="12" y="45.69" dominant-baseline="ideographic">una conversazione.</tspan></text></g></g></g><g id="g-root-tx_mappecon_1lt1b0713qm32d-fill" data-item-order="0" transform="translate(417, 142)"><g id="tx_mappecon_1lt1b0713qm32d-fill-merged" stroke="none" fill="#f79438" fill-opacity="1"><g><text style="font: bold 20px Roboto, sans-serif; white-space: pre;" font-weight="bold" font-size="20px" font-family="Roboto, sans-serif"><tspan x="12" y="33.85" dominant-baseline="ideographic">Mappe concettuali</tspan></text></g></g></g><g id="g-root-tx_tabelle_1hf385313qq7t4-fill" data-item-order="0" transform="translate(212, 518.0001220703125)"><g id="tx_tabelle_1hf385313qq7t4-fill-merged" stroke="none" fill="#4f91fc" fill-opacity="1"><g><text style="font: bold 20px Roboto, sans-serif; white-space: pre;" font-weight="bold" font-size="20px" font-family="Roboto, sans-serif"><tspan x="14.93" y="33.85" dominant-baseline="ideographic">Tabelle</tspan></text></g></g></g><g id="g-root-tx_qualefor_4j79iv13qm0wc-fill" data-item-order="0" transform="translate(159, 82.3018798828125)"><g id="tx_qualefor_4j79iv13qm0wc-fill-merged" stroke="none" fill="#f4f4f4" fill-opacity="1"><g><text style="font: bold 25px Roboto, sans-serif; white-space: pre;" font-weight="bold" font-size="25px" font-family="Roboto, sans-serif"><tspan x="15.64" y="43" dominant-baseline="ideographic">Quale formato di output dovrebbe essere specificato per l'IA?</tspan></text></g></g></g><g id="g-root-ic_filt_mcz6d313qq8le-fill" data-item-order="0" transform="translate(320, 530.0001220703125)"></g><g id="g-root-tx_organizz_143mprr13qq9e1-fill" data-item-order="0" transform="translate(56, 554.0001220703125)"><g id="tx_organizz_143mprr13qq9e1-fill-merged" stroke="none" fill="#f4f4f4" fill-opacity="1"><g><text style="font: 15px Roboto, sans-serif; white-space: pre;" font-size="15px" font-family="Roboto, sans-serif"><tspan x="11.65" y="27.69" dominant-baseline="ideographic">Organizza i dati in righe e colonne </tspan><tspan x="76.46" y="45.69" dominant-baseline="ideographic">per un confronto chiaro.</tspan></text></g></g></g><g id="g-root-tf_1hdu9yv13qj8cu-stroke" data-item-order="-1091904"></g><g id="g-root-cp_4_Frame_6_hsscmv13qm0aw-stroke" data-item-order="-599468" transform="translate(477, 219)"><g id="cp_4_Frame_6_hsscmv13qm0aw-stroke" fill="none" stroke-linecap="round" stroke-linejoin="round" stroke-miterlimit="4" stroke="#2c2c2c" stroke-width="2" stroke-opacity="1"><g><path d="M 69.6667 39.5C 69.6667 55.7924 56.3098 69 39.8333 69C 23.3568 69 10 55.7924 10 39.5C 10 23.2076 23.3568 10 39.8333 10C 56.3098 10 69.6667 23.2076 69.6667 39.5ZM 69.1491 45C 69.5404 43.0937 69.6667 41.5205 69.6667 39.5C 69.6667 37.4795 69.3314 34.9063 68.9401 33"></path></g></g></g><g id="g-root-cp_3_g-3_4hbu9j13qm1vt-stroke" data-item-order="-599446" transform="translate(309, 303.0001220703125)"><g id="cp_3_g-3_4hbu9j13qm1vt-stroke" fill="none" stroke-linecap="round" stroke-linejoin="round" stroke-miterlimit="4" stroke="#2c2c2c" stroke-width="2" stroke-opacity="1"><g><path d="M 69.6667 39.5C 69.6667 55.7924 56.3098 69 39.8333 69C 23.3568 69 10 55.7924 10 39.5C 10 23.2076 23.3568 10 39.8333 10C 56.3098 10 69.6667 23.2076 69.6667 39.5ZM 177 69C 177 55.9661 166.1812 45 153 45L 69.1491 45C 69.5404 43.0937 69.6667 41.5205 69.6667 39.5C 69.6667 37.4795 69.3314 34.9063 68.9401 33L 153 33C 172.7718 33 189 49.4491 189 69"></path></g></g></g><g id="g-root-cp_2_g-2_1ic5313qm2o2-stroke" data-item-order="-599422" transform="translate(308, 410.0001220703125)"><g id="cp_2_g-2_1ic5313qm2o2-stroke" fill="none" stroke-linecap="round" stroke-linejoin="round" stroke-miterlimit="4" stroke="#2c2c2c" stroke-width="2" stroke-opacity="1"><g><path d="M 70.0516 39.5C 70.0516 55.7924 56.6086 69 40.0258 69C 23.443 69 10 55.7924 10 39.5C 10 23.2076 23.443 10 40.0258 10C 56.6086 10 70.0516 23.2076 70.0516 39.5ZM 153.9226 70C 153.9226 56.9661 143.034 45 129.7677 45L 69.5307 45C 69.9246 43.0937 70.0516 41.5205 70.0516 39.5C 70.0516 37.4795 69.7142 34.9063 69.3204 33L 129.7677 33C 149.6671 33 166 50.4491 166 70"></path></g></g></g><g id="g-root-cp_1_g-1_1q7luyf13qm03v-stroke" data-item-order="-599396" transform="translate(309, 519.0001220703125)"><g id="cp_1_g-1_1q7luyf13qm03v-stroke" fill="none" stroke-linecap="round" stroke-linejoin="round" stroke-miterlimit="4" stroke="#2c2c2c" stroke-width="2" stroke-opacity="1"><g><path d="M 69.6667 39.5C 69.6667 55.7924 56.3098 69 39.8333 69C 23.3568 69 10 55.7924 10 39.5C 10 23.2076 23.3568 10 39.8333 10C 56.3098 10 69.6667 23.2076 69.6667 39.5ZM 129 69C 129 55.9661 118.1812 45 105 45L 69.1491 45C 69.5404 43.0937 69.6667 41.5205 69.6667 39.5C 69.6667 37.4795 69.3314 34.9063 68.9401 33L 105 33C 124.7718 33 141 49.4491 141 69"></path></g></g></g><g id="g-root-cp_1_lines_1q7luyf13qm03w-stroke" data-item-order="-599384" transform="translate(428, 578.0001220703125)"><g id="cp_1_lines_1q7luyf13qm03w-stroke" fill="none" stroke-linecap="round" stroke-linejoin="round" stroke-miterlimit="4" stroke="#2c2c2c" stroke-width="2" stroke-opacity="1"><g><path d="M 10 10L 10 44L 22 44L 22 10"></path></g></g></g><g id="g-root-cp_2_line_2_1lrsctz13qm0w5-stroke" data-item-order="-599376" transform="translate(452, 470.0001220703125)"><g id="cp_2_line_2_1lrsctz13qm0w5-stroke" fill="none" stroke-linecap="round" stroke-linejoin="round" stroke-miterlimit="4" stroke="#2c2c2c" stroke-width="2" stroke-opacity="1"><g><path d="M 10 10L 10 152L 22 152L 22 10"></path></g></g></g><g id="g-root-cp_3_line_5_1cw5cl313qm1ou-stroke" data-item-order="-599368" transform="translate(476, 362.0001220703125)"><g id="cp_3_line_5_1cw5cl313qm1ou-stroke" fill="none" stroke-linecap="round" stroke-linejoin="round" stroke-miterlimit="4" stroke="#2c2c2c" stroke-width="2" stroke-opacity="1"><g><path d="M 10 10L 10 260C 14.6863 260 17.3137 260 22 260L 22 10"></path></g></g></g><g id="g-root-cp_5_g-5_18gbugn13qm2h3-stroke" data-item-order="-599358" transform="translate(526, 314.0001220703125)"><g id="cp_5_g-5_18gbugn13qm2h3-stroke" fill="none" stroke-linecap="round" stroke-linejoin="round" stroke-miterlimit="4" stroke="#2c2c2c" stroke-width="2" stroke-opacity="1"><g><path d="M 129.3333 39.5C 129.3333 55.7924 142.6902 69 159.1667 69C 175.6432 69 189 55.7924 189 39.5C 189 23.2076 175.6432 10 159.1667 10C 142.6902 10 129.3333 23.2076 129.3333 39.5ZM 22 69C 22 55.9661 32.8188 45 46 45L 129.8509 45C 129.4596 43.0937 129.3333 41.5205 129.3333 39.5C 129.3333 37.4795 129.6686 34.9063 130.0599 33L 46 33C 26.2282 33 10 49.4491 10 69"></path></g></g></g><g id="g-root-cp_6_g-6_1414tfb13qm03k-stroke" data-item-order="-599336" transform="translate(550, 422.0001220703125)"><g id="cp_6_g-6_1414tfb13qm03k-stroke" fill="none" stroke-linecap="round" stroke-linejoin="round" stroke-miterlimit="4" stroke="#2c2c2c" stroke-width="2" stroke-opacity="1"><g><path d="M 105.3333 40C 105.3333 56.5685 118.6902 70 135.1667 70C 151.6432 70 165 56.5685 165 40C 165 23.4315 151.6432 10 135.1667 10C 118.6902 10 105.3333 23.4315 105.3333 40ZM 22 70C 22 56.7452 32.8188 45.5932 46 45.5932L 105.8509 45.5932C 105.4596 43.6546 105.3333 42.0548 105.3333 40C 105.3333 37.9452 105.6686 35.3285 106.0599 33.3898L 46 33.3898C 26.2282 33.3898 10 50.1178 10 70"></path></g></g></g><g id="g-root-cp_6_line_8_qpob1z13qm1oh-stroke" data-item-order="-599312" transform="translate(550, 482.0001220703125)"><g id="cp_6_line_8_qpob1z13qm1oh-stroke" fill="none" stroke-linecap="round" stroke-linejoin="round" stroke-miterlimit="4" stroke="#2c2c2c" stroke-width="2" stroke-opacity="1"><g><path d="M 10 10L 10 140L 22 140L 22 10"></path></g></g></g><g id="g-root-cp_5_line_11_hu1at313qm2h6-stroke" data-item-order="-599304" transform="translate(526, 373.0001220703125)"><g id="cp_5_line_11_hu1at313qm2h6-stroke" fill="none" stroke-linecap="round" stroke-linejoin="round" stroke-miterlimit="4" stroke="#2c2c2c" stroke-width="2" stroke-opacity="1"><g><path d="M 10 10L 10 249L 22 249L 22 10"></path></g></g></g><g id="g-root-sy_4_line-4_deu9rr13qm03n-stroke" data-item-order="-599296" transform="translate(501, 278.0001220703125)"><g id="sy_4_line-4_deu9rr13qm03n-stroke" fill="none" stroke-linecap="round" stroke-linejoin="round" stroke-miterlimit="4" stroke="#2c2c2c" stroke-width="2" stroke-opacity="1"><g><path d="M 10 10L 22 10L 22 344L 10 344Z"></path></g></g></g><g id="g-root-tx_creaunte_147dkaf13qm1oh-stroke" data-item-order="0" transform="translate(92, 338.0001220703125)"></g><g id="g-root-ic_xml_1hjgjqv13qqadn-stroke" data-item-order="0" transform="translate(658, 326.0001220703125)"><g id="ic_xml_1hjgjqv13qqadn-stroke" fill="none" stroke-linecap="round" stroke-linejoin="round" stroke-miterlimit="4" stroke="#2c2c2c" stroke-width="2" stroke-opacity="1"><g><path d="M 12.25 17.506001L 43.75 17.506001C 43.75 17.506001 45.25 17.506001 45.25 19.006001L 45.25 37.006001C 45.25 37.006001 45.25 38.506001 43.75 38.506001L 12.25 38.506001C 12.25 38.506001 10.75 38.506001 10.75 37.006001L 10.75 19.006001C 10.75 19.006001 10.75 17.506001 12.25 17.506001M 18.25 32.506001L 22.75 23.506001M 22.75 32.506001L 18.25 23.506001M 25.75 32.506001L 25.75 23.506001L 28 28.006001L 30.25 23.506001L 30.25 32.506001M 33.25 23.5L 33.25 31C 33.25 31.828428 33.921574 32.5 34.75 32.5L 37.75 32.5"></path></g></g></g><g id="g-root-tx_jsonmark_1cxearb13qrmz0-stroke" data-item-order="0" transform="translate(730, 314.0001220703125)"></g><g id="g-root-tx_fornisce_v64a9j13qrpc5-stroke" data-item-order="0" transform="translate(730, 350.0001220703125)"></g><g id="g-root-ic_1_i0wirb13qm0wa-stroke" data-item-order="0" transform="translate(320, 314.0001220703125)"><g id="ic_1_i0wirb13qm0wa-stroke" fill="none" stroke-linecap="round" stroke-linejoin="round" stroke-miterlimit="4" stroke="#2c2c2c" stroke-width="2" stroke-opacity="1"><g><path d="M 23.8435 44.875L 15.6565 44.875C 13.171219 44.875 11.1565 42.860283 11.1565 40.375L 11.1565 15.625C 11.1565 13.139719 13.171219 11.125 15.6565 11.125L 28.3435 11.125C 30.828781 11.125 32.843498 13.139719 32.843498 15.625L 32.843498 29.875M 11.1565 38.875L 23.8435 38.875M 15.5935 17.125L 20.0935 17.125L 20.0935 21.625L 15.5935 21.625ZM 15.5935 26.875L 20.0935 26.875L 20.0935 31.375L 15.5935 31.375ZM 24.6565 19.375L 27.6565 19.375M 24.6565 29.125L 27.6565 29.125M 33.143501 43.024002L 26.8435 44.823997L 28.643499 38.524002L 39.411999 27.755501C 40.65464 26.512859 42.669357 26.512859 43.911999 27.755501C 45.15464 28.998138 45.15464 31.012859 43.911999 32.255497ZM 38.062 29.105501L 42.562 33.605499M 28.643499 38.524002L 33.143501 43.024002"></path></g></g></g><g id="g-root-tx_liste_m9usxj13qnfur-stroke" data-item-order="0" transform="translate(236, 410.0001220703125)"></g><g id="g-root-tx_quiz_1ly13p313qm2h4-stroke" data-item-order="0" transform="translate(236, 302.0001220703125)"></g><g id="g-root-ic_numb_1lt1b0713qnggd-stroke" data-item-order="0" transform="translate(320, 422.0001220703125)"><g id="ic_numb_1lt1b0713qnggd-stroke" fill="none" stroke-linecap="round" stroke-linejoin="round" stroke-miterlimit="4" stroke="#2c2c2c" stroke-width="2" stroke-opacity="1"><g><path d="M 19.75 16.747L 45.25 16.747M 19.75 28.747L 45.25 28.747M 19.75 40.746998L 45.25 40.746998M 10.75 38.858501C 10.952848 38.108238 11.695164 37.63718 12.460379 37.773125C 13.225595 37.909065 13.760239 38.606983 13.692259 39.381203C 13.624281 40.155418 12.976197 40.749485 12.199 40.75C 12.974687 40.751789 13.621062 41.344685 13.689666 42.117332C 13.758269 42.889984 13.226468 43.587486 12.463231 43.725914C 11.699995 43.864346 10.957111 43.398029 10.75 42.650501M 10.75 27.25C 10.75 26.421572 11.421573 25.75 12.25 25.75L 12.25 25.75C 13.078427 25.75 13.75 26.421572 13.75 27.25L 13.75 27.25C 13.75003 27.735674 13.585007 28.20694 13.282 28.5865L 10.75 31.75L 13.75 31.75M 10.75 13.75L 11.5 13.75C 11.914213 13.75 12.25 14.085787 12.25 14.5L 12.25 19.75M 10.75 19.747L 13.75 19.747"></path></g></g></g><g id="g-root-ic_hier_v6qrcn13qm32f-stroke" data-item-order="0" transform="translate(489, 231.0001220703125)"><g id="ic_hier_v6qrcn13qm32f-stroke" fill="none" stroke-linecap="round" stroke-linejoin="round" stroke-miterlimit="4" stroke="#2c2c2c" stroke-width="2" stroke-opacity="1"><g><path d="M 34.225151 19.600031L 21.92515 19.600031C 19.52515 19.600031 17.725136 17.649969 17.725136 15.39997C 17.725136 12.999969 19.67515 11.200073 21.92515 11.200073L 34.225151 11.200073C 36.625149 11.200073 38.425148 13.14997 38.425148 15.39997C 38.425148 17.649969 36.475151 19.600031 34.225151 19.600031ZM 41.425003 33.849998L 14.574985 33.849998C 14.124985 33.849998 13.824985 33.549999 13.824985 33.099998L 13.824985 26.049999C 13.824985 25.599998 14.124985 25.299999 14.574985 25.299999L 41.425003 25.299999C 41.875 25.299999 42.175003 25.599998 42.175003 26.049999L 42.175003 33.099998C 42.175003 33.549999 41.875 33.849998 41.425003 33.849998ZM 28.075001 19.600225L 28.075001 25.30015M 28.075001 33.850151L 28.075001 44.800148M 10 10M 32.724998 40L 28.075001 44.800003L 23.275061 40"></path></g></g></g><g id="g-root-tx_dialogos_1qd84qf13qrnyn-stroke" data-item-order="0" transform="translate(730, 422.0001220703125)"></g><g id="g-root-tx_presenta_3dref13qnf2k-stroke" data-item-order="0" transform="translate(68, 446.0001220703125)"></g><g id="g-root-ic_1_8zn8qf13qrojy-stroke" data-item-order="0" transform="translate(658, 434.0001220703125)"><g id="ic_1_8zn8qf13qrojy-stroke" fill="none" stroke-linecap="round" stroke-linejoin="round" stroke-miterlimit="4" stroke="#2c2c2c" stroke-width="2" stroke-opacity="1"><g><path d="M 14.878 26.125C 14.878 29.645815 17.732185 32.5 21.253 32.5C 24.773815 32.5 27.628 29.645815 27.628 26.125C 27.628 22.604185 24.773815 19.75 21.253 19.75C 17.732185 19.75 14.878 22.604185 14.878 26.125M 10.75 45.25C 10.750001 39.451012 15.451011 34.750004 21.25 34.750004C 27.04899 34.750004 31.75 39.451012 31.75 45.250004ZM 30.25 24.25L 33.25 24.25L 33.25 27.25L 37 24.25L 38.5 24.25C 42.227921 24.25 45.25 21.227922 45.25 17.5C 45.25 13.772079 42.227921 10.75 38.5 10.75L 29.5 10.75C 26.061811 10.74934 23.172522 13.3331 22.790501 16.75M 38.5 17.125C 38.707108 17.125 38.875 17.292892 38.875 17.5L 38.875 17.5C 38.875 17.707108 38.707108 17.875 38.5 17.875L 38.5 17.875C 38.292892 17.875 38.125 17.707108 38.125 17.5L 38.125 17.5C 38.125 17.292892 38.292892 17.125 38.5 17.125M 38.496998 17.125L 38.496998 17.125M 34 17.125C 34.207108 17.125 34.375 17.292892 34.375 17.5L 34.375 17.5C 34.375 17.707108 34.207108 17.875 34 17.875L 34 17.875C 33.792892 17.875 33.625 17.707108 33.625 17.5L 33.625 17.5C 33.625 17.292892 33.792892 17.125 34 17.125M 33.997002 17.125L 33.997002 17.125M 29.5 17.125C 29.707108 17.125 29.875 17.292892 29.875 17.5L 29.875 17.5C 29.875 17.707108 29.707108 17.875 29.5 17.875L 29.5 17.875C 29.292892 17.875 29.125 17.707108 29.125 17.5L 29.125 17.5C 29.125 17.292892 29.292892 17.125 29.5 17.125M 29.497 17.125L 29.497 17.125"></path></g></g></g><g id="g-root-tx_visualiz_18i79pz13qm1hi-stroke" data-item-order="0" transform="translate(387, 178)"></g><g id="g-root-tx_presenta_146r37b13qrny8-stroke" data-item-order="0" transform="translate(730, 458.0001220703125)"></g><g id="g-root-tx_mappecon_1lt1b0713qm32d-stroke" data-item-order="0" transform="translate(417, 142)"></g><g id="g-root-tx_tabelle_1hf385313qq7t4-stroke" data-item-order="0" transform="translate(212, 518.0001220703125)"></g><g id="g-root-tx_qualefor_4j79iv13qm0wc-stroke" data-item-order="0" transform="translate(159, 82.3018798828125)"></g><g id="g-root-ic_filt_mcz6d313qq8le-stroke" data-item-order="0" transform="translate(320, 530.0001220703125)"><g id="ic_filt_mcz6d313qq8le-stroke" fill="none" stroke-linecap="round" stroke-linejoin="round" stroke-miterlimit="4" stroke="#2c2c2c" stroke-width="2" stroke-opacity="1"><g><path d="M 10 10M 31.7272 29.875L 44.1772 14.574985C 44.627201 14.124985 44.627201 13.375015 44.327202 12.775015C 44.027199 12.175014 43.4272 11.875 42.827202 11.875L 13.127215 11.875C 12.527215 11.875 11.927215 12.175014 11.627215 12.775015C 11.327223 13.375015 11.477232 13.974985 11.77723 14.574985L 24.227245 29.875M 31.7272 29.875L 31.7272 40.375L 24.227245 44.125L 24.227245 29.875M 38.40625 21.625L 17.477245 21.625"></path></g></g></g><g id="g-root-tx_organizz_143mprr13qq9e1-stroke" data-item-order="0" transform="translate(56, 554.0001220703125)"></g></g></g></svg>