<?xml version="1.0" encoding="utf-8" standalone="yes"?>
<!DOCTYPE svg PUBLIC "-//W3C//DTD SVG 1.1//EN" "http://www.w3.org/Graphics/SVG/1.1/DTD/svg11.dtd">
<svg style="fill:none;stroke:none;fill-rule:evenodd;clip-rule:evenodd;stroke-linecap:round;stroke-linejoin:round;stroke-miterlimit:1.5;" version="1.1" xmlns="http://www.w3.org/2000/svg" xmlns:xlink="http://www.w3.org/1999/xlink" width="840" height="757" viewBox="0 0 840 757"><style class="text-font-style fontImports" data-font-family="Roboto">@import url(https://fonts.googleapis.com/css2?family=Roboto:wght@400;700&amp;amp;display=block);</style><rect id="" x="0" y="0" width="840" height="757" style="fill: #2c2c2c;"></rect><g id="items" style="isolation: isolate"><g id="blend" style="mix-blend-mode: normal"><g id="g-root-tf_18mjz4oygxyis-fill" data-item-order="-952560" transform="translate(0, 0.999969482421875)"><g id="tf_18mjz4oygxyis-fill-merged" stroke="none" fill="#2c2c2c"><g><path d="M0 0 H840 V756 H0 V0"></path></g></g></g><g id="g-root-cp_4_g-4_v63r88ygtrt5-fill" data-item-order="-560724" transform="translate(624, 170.99996948242188)"><g id="cp_4_g-4_v63r88ygtrt5-fill-merged" stroke="none" fill="url(#gradient-2898bd-56937253)"><g><path d="M48.648 216.551C48.648 194.48 35.104 179.85 15.697 185.663L31.274 156.132L10.588 153.312C9.976 153.228 9.784 152.438 10.29 152.083L103.293 93.123C103.619 92.895 104.07 92.994 104.27 93.338L148.696 170.882C148.98 171.371 148.577 171.973 148.017 171.896L122.241 168.352C119.752 175.254 114.909 187.835 111.379 196.525C101.865 219.945 100.272 223.516 86.601 242.008C72.929 260.5 48.648 257.5 48.648 216.551"></path></g></g></g><g id="g-root-cp_2_g-2_qqa93sygtsle-fill" data-item-order="-560718" transform="translate(290.5, 338.9999694824219)"><g id="cp_2_g-2_qqa93sygtsle-fill-merged" stroke="none" fill="url(#gradient-40ae79-389135447)"><g><path d="M181.499 108.5C176.394 117.009 166.401 137.64 161.251 148.084C160.953 148.689 161.334 149.399 162 149.5L240.727 161.279C241.8 161.441 242.477 159.794 241.695 159.042C236.618 154.161 234.64 147.744 232.999 142C230.999 135 230.499 122.515 230.499 114C230.499 103 230.499 93 222.999 85C217.499 77.5 207.499 78.5 200.499 84C195.373 88.028 187.499 98.5 181.499 108.5"></path></g></g><g id="cp_2_g-2_qqa93sygtsle-fill-merged" stroke="none" fill="url(#gradient-40ae79-389135447)"><g><path d="M48.5 75.001C39 86.501 10 131.501 10 131.501L21 133.001C21 133.001 31.5 131.801 39.5 135.001C49.5 139 54.325 146.146 58.5 157C63.5 170 65 208 67 220C69 232 77 243.5 90 240C100.4 237.2 112.333 217.5 117 208C131.333 178.667 162.379 114.706 175 95.5C186.5 78 194 71.001 198.5 69.001L166 64.001C138.667 60.501 83 52.001 71.5 56.001C61.787 59.379 58 63.501 48.5 75.001"></path></g></g></g><g id="g-root-cp_3_g-3_hv9py0ygtq8b-fill" data-item-order="-560712" transform="translate(480.5, 254.99996948242188)"><g id="cp_3_g-3_hv9py0ygtq8b-fill-merged" stroke="none" fill="url(#gradient-87aa3f-469929121)"><g><path d="M143.281 135.837C139.299 142.474 131.503 158.567 127.486 166.715C127.254 167.186 127.551 167.741 128.07 167.819L189.482 177.007C190.319 177.134 190.848 175.849 190.237 175.262C186.277 171.455 184.734 166.449 183.454 161.969C181.894 156.508 181.504 146.769 181.504 140.127C181.504 131.546 181.504 123.746 175.654 117.505C171.363 111.655 163.563 112.435 158.102 116.725C154.104 119.867 147.962 128.036 143.281 135.837"></path></g></g><g id="cp_3_g-3_hv9py0ygtq8b-fill-merged" stroke="none" fill="url(#gradient-87aa3f-469929121)"><g><path d="M39.532 107.705C32.122 116.675 10 152.501 10 152.501C10 152.501 21 147.378 32 151.778C39.801 154.898 46.243 162.033 49.5 170.501C53.4 180.641 52.403 211.452 53.963 220.813C55.523 230.174 61.764 239.144 71.905 236.414C80.017 234.23 89.326 218.863 92.966 211.452C104.147 188.571 128.365 138.678 138.21 123.696C147.18 110.045 153.031 104.584 156.541 103.024L131.189 99.124C109.868 96.394 66.444 89.763 57.474 92.884C49.897 95.519 46.943 98.734 39.532 107.705"></path></g></g></g><g id="g-root-cp_1_g-1_dfg7tkygtr0k-fill" data-item-order="-560706" transform="translate(56.766021728515625, 422.9999694824219)"><defs><linearGradient id="gradient-2898bd-56937253" x2="0" y2="1"><stop offset="0" stop-color="#1fa9d7"></stop><stop offset="1" stop-color="#3187a3"></stop></linearGradient><linearGradient id="gradient-40ae79-389135447" x2="0" y2="1"><stop offset="0" stop-color="#3bc482"></stop><stop offset="1" stop-color="#449870"></stop></linearGradient><linearGradient id="gradient-87aa3f-469929121" x2="0" y2="1"><stop offset="0" stop-color="#91bb39"></stop><stop offset="1" stop-color="#7d9844"></stop></linearGradient><linearGradient id="gradient-4f83d8-135982273" x2="0" y2="1"><stop offset="0" stop-color="#4e88e6"></stop><stop offset="1" stop-color="#4f7eca"></stop></linearGradient></defs><g id="cp_1_g-1_dfg7tkygtr0k-fill-merged" stroke="none" fill="url(#gradient-4f83d8-135982273)"><g><path d="M56.233 114.998C37.686 149.725 17.939 204.501 10.049 228.533C9.872 229.072 10.188 229.627 10.734 229.782L125.276 262.227C125.806 262.377 126.355 262.077 126.509 261.549C128.841 253.545 134.125 236.171 138.733 223.499C144.733 206.999 171.733 146.999 178.733 133.499C185.733 119.999 201.233 92.499 219.233 71.999C233.633 55.599 248.233 50.165 254.733 48.998L147.233 34.499C147.233 34.499 131.233 32.498 121.733 35.999C112.233 39.499 102.233 47.795 95.733 54.498C90.4 59.998 75.033 79.798 56.233 114.998"></path></g></g><g id="cp_1_g-1_dfg7tkygtr0k-fill-merged" stroke="none" fill="url(#gradient-4f83d8-135982273)"><g><path d="M222.233 93C213.013 105.131 197.458 131.435 189.733 145C189.396 145.592 189.738 146.339 190.406 146.473L298.28 168.101C299.459 168.338 300.782 165.288 299.95 164.42C295.865 160.158 292.22 153.892 289.733 145.5C285.733 132 286.233 117 284.233 99C282.852 86.569 279.233 75.5 273.733 70C267.65 63.917 258.616 63.669 249.733 67C241.733 70 232.538 79.442 222.233 93"></path></g></g></g><g id="g-root-tx_padroneg_4jt7koygtrt9-fill" data-item-order="0" transform="translate(236, 8.992156982421875)"><g id="tx_padroneg_4jt7koygtrt9-fill-merged" stroke="none" fill="#f4f4f4"><g><text style="font: bold 25px Roboto, sans-serif; white-space: pre;" font-weight="bold" font-size="25px" font-family="Roboto, sans-serif"><tspan x="17.69" y="43" dominant-baseline="ideographic">Padroneggiare i Prompt Efficaci</tspan></text></g></g></g><g id="g-root-tx_specific_3zpg8ygtsli-fill" data-item-order="0" transform="translate(614, 38.999969482421875)"><g id="tx_specific_3zpg8ygtsli-fill-merged" stroke="none" fill="#1ac3fb"><g><text style="font: bold 20px Roboto, sans-serif; white-space: pre;" font-weight="bold" font-size="20px" font-family="Roboto, sans-serif"><tspan x="35.56" y="33.84" dominant-baseline="ideographic">Specificare il </tspan><tspan x="12.66" y="57.85" dominant-baseline="ideographic">Formato di Output</tspan></text></g></g></g><g id="g-root-tx_indicare_1lu9q54ygtqtj-fill" data-item-order="0" transform="translate(614, 98.99996948242188)"><g id="tx_indicare_1lu9q54ygtqtj-fill-merged" stroke="none" fill="#f4f4f4"><g><text style="font: 15px Roboto, sans-serif; white-space: pre;" font-size="15px" font-family="Roboto, sans-serif"><tspan x="13.54" y="30.69" dominant-baseline="ideographic">Indicare la struttura o lo </tspan><tspan x="21.06" y="48.69" dominant-baseline="ideographic">stile desiderato per la </tspan><tspan x="22.62" y="66.7" dominant-baseline="ideographic">risposta del modello.</tspan></text></g></g></g><g id="g-root-tx_articola_18it7rsygtseg-fill" data-item-order="0" transform="translate(446, 122.99996948242188)"><g id="tx_articola_18it7rsygtseg-fill-merged" stroke="none" fill="#a6da37"><g><text style="font: bold 20px Roboto, sans-serif; white-space: pre;" font-weight="bold" font-size="20px" font-family="Roboto, sans-serif"><tspan x="15.25" y="33.84" dominant-baseline="ideographic">Articolare il </tspan><tspan x="29.48" y="57.85" dominant-baseline="ideographic">Compito</tspan></text></g></g></g><g id="g-root-tx_delinear_143m6qgygtq0x-fill" data-item-order="0" transform="translate(422, 182.99996948242188)"><g id="tx_delinear_143m6qgygtq0x-fill-merged" stroke="none" fill="#f4f4f4"><g><text style="font: 15px Roboto, sans-serif; white-space: pre;" font-size="15px" font-family="Roboto, sans-serif"><tspan x="18.39" y="30.69" dominant-baseline="ideographic">Delineare chiaramente </tspan><tspan x="12.98" y="48.69" dominant-baseline="ideographic">l'obiettivo che il modello </tspan><tspan x="33.83" y="66.7" dominant-baseline="ideographic">deve raggiungere.</tspan></text></g></g></g><g id="g-root-tx_fornirec_qs5od4ygtrlu-fill" data-item-order="0" transform="translate(236, 218.99996948242188)"><g id="tx_fornirec_qs5od4ygtrlu-fill-merged" stroke="none" fill="#43dd93"><g><text style="font: bold 20px Roboto, sans-serif; white-space: pre;" font-weight="bold" font-size="20px" font-family="Roboto, sans-serif"><tspan x="12.99" y="33.85" dominant-baseline="ideographic">Fornire Contesto</tspan></text></g></g></g><g id="g-root-tx_offrirei_dhbn2wygtq0z-fill" data-item-order="0" transform="translate(230, 254.99996948242188)"><g id="tx_offrirei_dhbn2wygtq0z-fill-merged" stroke="none" fill="#f4f4f4"><g><text style="font: 15px Roboto, sans-serif; white-space: pre;" font-size="15px" font-family="Roboto, sans-serif"><tspan x="19.72" y="27.69" dominant-baseline="ideographic">Offrire informazioni di </tspan><tspan x="26.12" y="45.69" dominant-baseline="ideographic">sfondo per aiutare il </tspan><tspan x="13.49" y="63.69" dominant-baseline="ideographic">modello a comprendere </tspan><tspan x="53.93" y="81.7" dominant-baseline="ideographic">lo scenario.</tspan></text></g></g></g><g id="g-root-tx_definire_5v4pkygtrlw-fill" data-item-order="0" transform="translate(44, 314.9999694824219)"><g id="tx_definire_5v4pkygtrlw-fill-merged" stroke="none" fill="#4f91fc"><g><text style="font: bold 20px Roboto, sans-serif; white-space: pre;" font-weight="bold" font-size="20px" font-family="Roboto, sans-serif"><tspan x="16.57" y="33.85" dominant-baseline="ideographic">Definire il Ruolo</tspan></text></g></g></g><g id="g-root-tx_stabilir_1qbc6fsygts7h-fill" data-item-order="0" transform="translate(38, 350.9999694824219)"><g id="tx_stabilir_1qbc6fsygts7h-fill-merged" stroke="none" fill="#f4f4f4"><g><text style="font: 15px Roboto, sans-serif; white-space: pre;" font-size="15px" font-family="Roboto, sans-serif"><tspan x="12.61" y="30.69" dominant-baseline="ideographic">Stabilire la prospettiva o </tspan><tspan x="16.52" y="48.69" dominant-baseline="ideographic">l'identità che il modello </tspan><tspan x="30.11" y="66.7" dominant-baseline="ideographic">dovrebbe adottare.</tspan></text></g></g></g><g id="g-root-tf_18mjz4oygxyis-stroke" data-item-order="-952560" transform="translate(0, 0.999969482421875)"></g><g id="g-root-cp_4_g-4_v63r88ygtrt5-stroke" data-item-order="-560724" transform="translate(624, 170.99996948242188)"><g id="cp_4_g-4_v63r88ygtrt5-stroke" fill="none" stroke-linecap="round" stroke-linejoin="round" stroke-miterlimit="4" stroke="#f4f4f4" stroke-width="2"><g><path d="M 48.6477 216.5509C 48.6477 194.48 35.1039 179.8498 15.6966 185.6627L 31.2738 156.1324L 10.5878 153.3116C 9.976 153.2281 9.7842 152.4375 10.2898 152.0831L 103.2932 93.1231C 103.6188 92.8948 104.0699 92.994 104.2698 93.3378L 148.696 170.8823C 148.9802 171.3713 148.5769 171.973 148.0166 171.896L 122.241 168.3518C 119.7519 175.2536 114.9093 187.8351 111.3793 196.5245C 101.8646 219.9452 100.2722 223.5162 86.6009 242.0081C 72.9295 260.5 48.6477 257.5 48.6477 216.5509ZM 84 10L 84 105"></path></g></g></g><g id="g-root-cp_2_g-2_qqa93sygtsle-stroke" data-item-order="-560718" transform="translate(290.5, 338.9999694824219)"><g id="cp_2_g-2_qqa93sygtsle-stroke" fill="none" stroke-linecap="round" stroke-linejoin="round" stroke-miterlimit="4" stroke="#f4f4f4" stroke-width="2"><g><path d="M 181.499338 108.5001C 176.394038 117.009 166.400538 137.6396 161.251138 148.0844C 160.953238 148.6885 161.333938 149.3993 161.999838 149.5L 240.726738 161.2786C 241.800038 161.4409 242.477438 159.7938 241.694937 159.0415C 236.618238 154.161 234.640438 147.7439 232.999338 142C 230.999338 135 230.499338 122.5147 230.499338 114C 230.499338 103 230.499338 93 222.999338 85.0001C 217.499338 77.5001 207.499338 78.4999 200.499338 84C 195.373238 88.0278 187.499338 98.5 181.499338 108.5001Z"></path></g></g><g id="cp_2_g-2_qqa93sygtsle-stroke" fill="none" stroke-linecap="round" stroke-linejoin="round" stroke-miterlimit="4" stroke="#f4f4f4" stroke-width="2"><g><path d="M 48.5 75.000625C 39 86.500725 10 131.500525 10 131.500525L 21 133.000525C 21 133.000525 31.5 131.800625 39.5 135.000525C 49.5 139.000325 54.3252 146.145925 58.5 157.000425C 63.5 170.000425 65 208.000425 67 220.000425C 69 232.000425 77 243.500425 90 240.000425C 100.4 237.200425 112.3333 217.500425 117 208.000425C 131.3333 178.667125 162.3789 114.706425 175 95.500425C 186.5 78.000425 194 71.000525 198.5 69.000525L 166 64.000525C 138.6667 60.500525 83 52.000525 71.5 56.000625C 61.7869 59.379125 58 63.500525 48.5 75.000625ZM 33.5 10L 33.5 96"></path></g></g></g><g id="g-root-cp_3_g-3_hv9py0ygtq8b-stroke" data-item-order="-560712" transform="translate(480.5, 254.99996948242188)"><g id="cp_3_g-3_hv9py0ygtq8b-stroke" fill="none" stroke-linecap="round" stroke-linejoin="round" stroke-miterlimit="4" stroke="#f4f4f4" stroke-width="2"><g><path d="M 143.28115 135.8368C 139.29875 142.4742 131.50325 158.5673 127.48635 166.7149C 127.25405 167.1861 127.55095 167.7406 128.07045 167.8191L 189.48205 177.0071C 190.31925 177.1337 190.84765 175.8489 190.23725 175.2621C 186.27715 171.455 184.73435 166.4493 183.45425 161.9687C 181.89405 156.5083 181.50405 146.769 181.50405 140.1271C 181.50405 131.5464 181.50405 123.7458 175.65365 117.5054C 171.36325 111.655 163.56275 112.4348 158.10225 116.7253C 154.10365 119.8671 147.96155 128.0361 143.28115 135.8368Z"></path></g></g><g id="cp_3_g-3_hv9py0ygtq8b-stroke" fill="none" stroke-linecap="round" stroke-linejoin="round" stroke-miterlimit="4" stroke="#f4f4f4" stroke-width="2"><g><path d="M 39.5322 107.704606C 32.1217 116.675406 10 152.500506 10 152.500506C 10 152.500506 21 147.378006 32 151.777906C 39.8006 154.898006 46.2434 162.033306 49.5 170.500506C 53.4003 180.641206 52.4032 211.452406 53.9633 220.813106C 55.5234 230.173806 61.7639 239.144406 71.9047 236.414206C 80.0173 234.230106 89.326 218.862906 92.9663 211.452306C 104.1471 188.570606 128.3645 138.677506 138.2097 123.695706C 147.1804 110.044706 153.0308 104.584306 156.5411 103.024206L 131.1892 99.123906C 109.8675 96.393706 66.4443 89.763206 57.4736 92.883506C 49.8968 95.519006 46.9428 98.733806 39.5322 107.704606ZM 35.5 10L 35.5 113"></path></g></g></g><g id="g-root-cp_1_g-1_dfg7tkygtr0k-stroke" data-item-order="-560706" transform="translate(56.766021728515625, 422.9999694824219)"><g id="cp_1_g-1_dfg7tkygtr0k-stroke" fill="none" stroke-linecap="round" stroke-linejoin="round" stroke-miterlimit="4" stroke="#f4f4f4" stroke-width="2"><g><path d="M 56.233385 114.998488C 37.686185 149.725188 17.938685 204.501388 10.049385 228.532988C 9.872285 229.072388 10.187885 229.627288 10.734085 229.781988L 125.276185 262.227488C 125.805685 262.377388 126.354985 262.077388 126.508885 261.549088C 128.840885 253.544788 134.125085 236.171288 138.733385 223.498588C 144.733385 206.998588 171.733385 146.998587 178.733385 133.498588C 185.733385 119.998588 201.233385 92.498588 219.233385 71.998588C 233.633385 55.598588 248.233385 50.165188 254.733385 48.998487L 147.233385 34.498688C 147.233385 34.498688 131.233385 32.498488 121.733385 35.998688C 112.233385 39.498788 102.233385 47.795388 95.733385 54.498487C 90.399985 59.998487 75.033385 79.798488 56.233385 114.998488Z"></path></g></g><g id="cp_1_g-1_dfg7tkygtr0k-stroke" fill="none" stroke-linecap="round" stroke-linejoin="round" stroke-miterlimit="4" stroke="#f4f4f4" stroke-width="2"><g><path d="M 222.233348 92.999981C 213.013448 105.131381 197.458048 131.435281 189.733148 144.999981C 189.395748 145.592281 189.738148 146.339081 190.406448 146.473281L 298.280148 168.101281C 299.458848 168.337981 300.781548 165.287681 299.949648 164.419681C 295.865248 160.158281 292.219548 153.891681 289.733048 145.499981C 285.733048 132.000181 286.233048 116.999981 284.233048 98.999781C 282.851848 86.568881 279.233048 75.499981 273.733048 69.999981C 267.650248 63.917281 258.615948 63.669081 249.733148 66.999981C 241.733148 69.999881 232.537648 79.441881 222.233348 92.999981ZM 75.23436 10L 75.23436 82"></path></g></g></g><g id="g-root-tx_padroneg_4jt7koygtrt9-stroke" data-item-order="0" transform="translate(236, 8.992156982421875)"></g><g id="g-root-tx_specific_3zpg8ygtsli-stroke" data-item-order="0" transform="translate(614, 38.999969482421875)"></g><g id="g-root-tx_indicare_1lu9q54ygtqtj-stroke" data-item-order="0" transform="translate(614, 98.99996948242188)"></g><g id="g-root-tx_articola_18it7rsygtseg-stroke" data-item-order="0" transform="translate(446, 122.99996948242188)"></g><g id="g-root-tx_delinear_143m6qgygtq0x-stroke" data-item-order="0" transform="translate(422, 182.99996948242188)"></g><g id="g-root-tx_fornirec_qs5od4ygtrlu-stroke" data-item-order="0" transform="translate(236, 218.99996948242188)"></g><g id="g-root-tx_offrirei_dhbn2wygtq0z-stroke" data-item-order="0" transform="translate(230, 254.99996948242188)"></g><g id="g-root-tx_definire_5v4pkygtrlw-stroke" data-item-order="0" transform="translate(44, 314.9999694824219)"></g><g id="g-root-tx_stabilir_1qbc6fsygts7h-stroke" data-item-order="0" transform="translate(38, 350.9999694824219)"></g></g></g><path id="wvbqdnsx2rls1" d="M65.283 12.757a.35.35 0 0 0 .584.157l5.203-5.141-6.183 3.523.396 1.461zm-2.216-11.7a.35.35 0 0 0-.522.305v3.111l3.276-1.868-2.754-1.548zm3.728 2.105l-4.25 2.421v2.445l6.391-3.644-2.141-1.222zm4.708 3.303a.35.35 0 0 0 0-.609l-1.592-.9-7.365 4.199v1.782a.35.35 0 0 0 .523.305l8.435-4.777z M44.542 2.513c0-.433.355-.783.792-.783s.792.35.792.783-.355.783-.792.783-.792-.35-.792-.783zm59.171 0c0-.433.355-.783.792-.783s.792.35.792.783-.355.783-.792.783-.792-.35-.792-.783zm-85.951 7.636h-1.27v-.487c-.276.201-.864.609-1.881.609-1.202 0-2.274-.794-2.137-2.078.118-1.106 1.153-1.584 1.848-1.727l2.17-.345c0-.539-.29-.956-1.064-1.006s-1.21.305-1.571 1.017l-1.124-.605c1.218-2.631 5.029-1.764 5.029.414v4.207zm-1.27-2.86c.006.396-.062 1.112-.819 1.59-.587.37-1.841.299-1.903-.395-.049-.555.461-.791.906-.898l1.816-.297zm72.662 2.86h-1.27v-.487c-.276.201-.864.609-1.881.609-1.202 0-2.274-.794-2.137-2.078.118-1.106 1.153-1.584 1.848-1.727l2.17-.345c0-.539-.29-.956-1.064-1.006s-1.21.305-1.571 1.017l-1.124-.605c1.218-2.631 5.029-1.764 5.029.414v4.207zm-1.27-2.86c.006.396-.062 1.112-.82 1.59-.587.37-1.841.299-1.903-.395-.049-.555.461-.791.906-.898l1.816-.297zM99.096 10.149H97.85v-8.45h1.246v4.895l2.68-2.559h1.738l-2.633 2.535 2.715 3.578h-1.556l-2.077-2.707-.867.844v1.863zm6.053-6.114h-1.255v6.113h1.255V4.035zm-59.2 0h-1.255v6.113h1.255V4.035zm5.584 6.113V1.697h1.255v2.695c.361-.346 1-.485 1.47-.485 1.452 0 2.477 1.082 2.457 2.448v3.792h-1.27v-3.68c0-.408-.214-1.339-1.315-1.339-.968 0-1.342.756-1.342 1.339v3.681h-1.255zm-4.76-4.894V4.039h.621a.45.45 0 0 0 .45-.45v-.855h1.251v1.305h1.309v1.215h-1.309v3.109c0 .293.105.664.648.664.365 0 .531-.035.736-.07v1.137s-.361.113-.857.113c-1.398 0-1.777-1.051-1.777-1.788V5.254h-1.071zM36.528 4.039h-1.394l2.191 6.106h1.125l1.234-3.918 1.238 3.918h1.129l2.188-6.106h-1.383l-1.359 3.93-1.256-3.93h-1.124l-1.242 3.957-1.348-3.957zM26.212 7.141c-.02 1.566 1.187 3.129 3.223 3.129 1.566 0 2.383-.918 2.734-1.719L31.172 8c-.315.399-.801 1.094-1.738 1.094-1.145 0-1.825-.781-1.891-1.52h4.625c.074-.284.148-.995-.03-1.559-.336-1.064-1.221-2.102-2.839-2.102s-3.088 1.152-3.088 3.227zm1.363-.75h3.348c-.055-.43-.566-1.301-1.623-1.301a1.79 1.79 0 0 0-1.725 1.301zm-8.758.75c.038 1.758 1.277 3.133 3.145 3.133 1.074 0 1.723-.477 1.961-.672v.547h1.242V1.703h-1.258v2.888c-.414-.36-1.062-.68-1.93-.68-1.91 0-3.198 1.473-3.16 3.23zm1.309-.08c0 1.119.723 1.978 1.836 1.978a1.88 1.88 0 0 0 1.94-1.904c0-1.371-1.011-1.99-1.972-1.99s-1.805.798-1.805 1.916zm76.683-.028C96.771 5.275 95.532 3.9 93.664 3.9c-1.074 0-1.723.477-1.961.672v-.547h-1.242v8.22h1.258V9.583c.414.36 1.063.68 1.93.68 1.91 0 3.198-1.473 3.16-3.23zm-1.309.08c0-1.119-.723-1.978-1.836-1.978a1.88 1.88 0 0 0-1.94 1.904c0 1.371 1.011 1.99 1.972 1.99S95.5 8.231 95.5 7.113zM106.441 10.173V4.036h1.254v.382c.361-.346 1-.485 1.47-.485 1.452 0 2.477 1.082 2.457 2.448v3.792h-1.27V6.492c0-.408-.214-1.339-1.315-1.339-.969 0-1.342.756-1.342 1.339v3.681h-1.254zm-30.383-.021V1.824h1.084l4.215 5.777V1.824h1.32v8.328h-1.094l-4.207-5.796v5.796h-1.319zM5.24 10.149H4V2.377h1.014l2.664 3.597 2.654-3.592h1.03v7.766h-1.256V4.762L7.678 8.068 5.24 4.742v5.407z" transform="translate(704, 723)" fill="#acacac88" stroke="none"></path></svg>