<?xml version="1.0" encoding="utf-8" standalone="yes"?>
<!DOCTYPE svg PUBLIC "-//W3C//DTD SVG 1.1//EN" "http://www.w3.org/Graphics/SVG/1.1/DTD/svg11.dtd">
<svg style="fill:none;stroke:none;fill-rule:evenodd;clip-rule:evenodd;stroke-linecap:round;stroke-linejoin:round;stroke-miterlimit:1.5;" version="1.1" xmlns="http://www.w3.org/2000/svg" xmlns:xlink="http://www.w3.org/1999/xlink" width="696" height="636" viewBox="0 0 696 636"><style class="text-font-style fontImports" data-font-family="Roboto">@import url(https://fonts.googleapis.com/css2?family=Roboto:wght@400;700&amp;amp;display=block);</style><rect id="" x="0" y="0" width="696" height="636" style="fill: #2c2c2c;"></rect><g id="items" style="isolation: isolate"><g id="blend" style="mix-blend-mode: normal"><g id="g-root-tf_1qcltx4vf58ue-fill" data-item-order="-663984"><g id="tf_1qcltx4vf58ue-fill-merged" stroke="none" fill="#2c2c2c"><g><path d="M0 0 H696 V636 H0 V0"></path></g></g></g><g id="g-root-cp_1_g-1_mahjg8vf6new-fill" data-item-order="-349910" transform="translate(119, 170)"><g id="cp_1_g-1_mahjg8vf6new-fill-merged" stroke="none" fill="#1ac3fb"><g><path d="M10 130C10 196.274 28.804 250 52 250C55.089 250 58.101 249.047 61 247.238C42.129 235.467 28 187.448 28 130C28 72.552 42.129 24.533 61 12.762C58.101 10.953 55.089 10 52 10C28.804 10 10 63.726 10 130"></path></g></g><g id="cp_1_g-1_mahjg8vf6new-fill-merged" stroke="none" fill="#1ac3fb"><g><path d="M112 130C112 196.274 93.196 250 70 250 H52C55.089 250 58.101 249.047 61 247.238C79.871 235.467 94 187.448 94 130C94 72.552 79.871 24.533 61 12.762C58.101 10.953 55.089 10 52 10 H70C93.196 10 112 63.726 112 130"></path></g></g></g><g id="g-root-cp_2_g-2_8z112wvf6ozt-fill" data-item-order="-349904" transform="translate(287, 170)"><g id="cp_2_g-2_8z112wvf6ozt-fill-merged" stroke="none" fill="#43dd93"><g><path d="M10 130C10 196.274 28.804 250 52 250C55.089 250 58.101 249.047 61 247.238C42.129 235.467 28 187.448 28 130C28 72.552 42.129 24.533 61 12.762C58.101 10.953 55.089 10 52 10C28.804 10 10 63.726 10 130"></path></g></g><g id="cp_2_g-2_8z112wvf6ozt-fill-merged" stroke="none" fill="#43dd93"><g><path d="M112 130C112 196.274 93.196 250 70 250 H52C55.089 250 58.101 249.047 61 247.238C79.871 235.467 94 187.448 94 130C94 72.552 79.871 24.533 61 12.762C58.101 10.953 55.089 10 52 10 H70C93.196 10 112 63.726 112 130"></path></g></g></g><g id="g-root-cp_3_g-3_4ju01kvf6mma-fill" data-item-order="-349898" transform="translate(455, 170)"><g id="cp_3_g-3_4ju01kvf6mma-fill-merged" stroke="none" fill="#a6da37"><g><path d="M10 130C10 196.274 28.804 250 52 250C55.089 250 58.101 249.047 61 247.238C42.129 235.467 28 187.448 28 130C28 72.552 42.129 24.533 61 12.762C58.101 10.953 55.089 10 52 10C28.804 10 10 63.726 10 130"></path></g></g><g id="cp_3_g-3_4ju01kvf6mma-fill-merged" stroke="none" fill="#a6da37"><g><path d="M112 130C112 196.274 93.196 250 70 250 H52C55.089 250 58.101 249.047 61 247.238C79.871 235.467 94 187.448 94 130C94 72.552 79.871 24.533 61 12.762C58.101 10.953 55.089 10 52 10 H70C93.196 10 112 63.726 112 130"></path></g></g></g><g id="g-root-cp_0_g-0_1upb1rsvf6n7v-fill" data-item-order="-349892" transform="translate(38, 146)"><g id="cp_0_g-0_1upb1rsvf6n7v-fill-merged" stroke="none" fill="#e8e8e8"><g><path d="M10 34 V22 H34 V34C34 47.255 44.745 58 58 58 V46L82 70L58 94 V82C31.49 82 10 60.51 10 34"></path></g></g><g id="cp_0_g-0_1upb1rsvf6n7v-fill-merged" stroke="none" fill="#e8e8e8"><g><path d="M550 82 H538 V58 H550C563.255 58 574 47.255 574 34 H562L586 10L610 34 H598C598 60.51 576.51 82 550 82"></path></g></g><g id="cp_0_g-0_1upb1rsvf6n7v-fill-merged" stroke="none" fill="#e8e8e8"><g><path d="M10 274 V286 H34 V274C34 260.745 44.745 250 58 250 V262L82 238L58 214 V226C31.49 226 10 247.49 10 274"></path></g></g><g id="cp_0_g-0_1upb1rsvf6n7v-fill-merged" stroke="none" fill="#e8e8e8"><g><path d="M550 226 H538 V250 H550C563.255 250 574 260.745 574 274 H562L586 298L610 274 H598C598 247.49 576.51 226 550 226"></path></g></g><g id="cp_0_g-0_1upb1rsvf6n7v-fill-merged" stroke="none" fill="#e8e8e8"><g><path d="M202 250 H226 V262L250 238L226 214 V226 H202 V250"></path></g></g><g id="cp_0_g-0_1upb1rsvf6n7v-fill-merged" stroke="none" fill="#e8e8e8"><g><path d="M370 250 H394 V262L418 238L394 214 V226 H370 V250"></path></g></g><g id="cp_0_g-0_1upb1rsvf6n7v-fill-merged" stroke="none" fill="#e8e8e8"><g><path d="M202 82 H226 V94L250 70L226 46 V58 H202 V82"></path></g></g><g id="cp_0_g-0_1upb1rsvf6n7v-fill-merged" stroke="none" fill="#e8e8e8"><g><path d="M370 82 H394 V94L418 70L394 46 V58 H370 V82"></path></g></g><g id="cp_0_g-0_1upb1rsvf6n7v-fill-merged" stroke="none" fill="#e8e8e8"><g><path d="M174.884 145.001C169.967 145.063 166 149.068 166 154C166 158.932 169.967 162.937 174.884 162.999C174.961 160.028 175 157.027 175 154C175 150.973 174.961 147.972 174.884 145.001 M103 91C107.971 91 112 86.971 112 82C112 77.029 107.971 73 103 73C98.029 73 94 77.029 94 82C94 86.971 98.029 91 103 91 M76 154C76 158.971 71.971 163 67 163C62.029 163 58 158.971 58 154C58 149.029 62.029 145 67 145C71.971 145 76 149.029 76 154 M103 163C107.971 163 112 158.971 112 154C112 149.029 107.971 145 103 145C98.029 145 94 149.029 94 154C94 158.971 98.029 163 103 163 M85 199C89.971 199 94 194.971 94 190C94 185.029 89.971 181 85 181C80.029 181 76 185.029 76 190C76 194.971 80.029 199 85 199 M121 199C125.971 199 130 194.971 130 190C130 185.029 125.971 181 121 181C116.029 181 112 185.029 112 190C112 194.971 116.029 199 121 199 M166 190C166 194.971 161.971 199 157 199C152.029 199 148 194.971 148 190C148 185.029 152.029 181 157 181C161.971 181 166 185.029 166 190 M139 91C143.971 91 148 86.971 148 82C148 77.029 143.971 73 139 73C134.029 73 130 77.029 130 82C130 86.971 134.029 91 139 91 M112 226C112 230.971 107.971 235 103 235C98.029 235 94 230.971 94 226C94 221.029 98.029 217 103 217C107.971 217 112 221.029 112 226 M148 226C148 230.971 143.971 235 139 235C134.029 235 130 230.971 130 226C130 221.029 134.029 217 139 217C143.971 217 148 221.029 148 226 M139 163C143.971 163 148 158.971 148 154C148 149.029 143.971 145 139 145C134.029 145 130 149.029 130 154C130 158.971 134.029 163 139 163 M85 127C89.971 127 94 122.971 94 118C94 113.029 89.971 109 85 109C80.029 109 76 113.029 76 118C76 122.971 80.029 127 85 127 M130 118C130 122.971 125.971 127 121 127C116.029 127 112 122.971 112 118C112 113.029 116.029 109 121 109C125.971 109 130 113.029 130 118 M157 127C161.971 127 166 122.971 166 118C166 113.029 161.971 109 157 109C152.029 109 148 113.029 148 118C148 122.971 152.029 127 157 127"></path></g></g><g id="cp_0_g-0_1upb1rsvf6n7v-fill-merged" stroke="none" fill="#e8e8e8"><g><path d="M40 154C40 158.971 35.971 163 31 163C26.029 163 22 158.971 22 154C22 149.029 26.029 145 31 145C35.971 145 40 149.029 40 154 M49 199C53.971 199 58 194.971 58 190C58 185.029 53.971 181 49 181C44.029 181 40 185.029 40 190C40 194.971 44.029 199 49 199 M49 127C53.971 127 58 122.971 58 118C58 113.029 53.971 109 49 109C44.029 109 40 113.029 40 118C40 122.971 44.029 127 49 127"></path></g></g><g id="cp_0_g-0_1upb1rsvf6n7v-fill-merged" stroke="none" fill="#e8e8e8"><g><path d="M508.018 109.506C504.513 110.736 502 114.075 502 118C502 122.608 505.462 126.407 509.927 126.937C509.444 120.942 508.803 115.12 508.018 109.506 M509.927 181.063C505.462 181.593 502 185.392 502 190C502 193.926 504.513 197.264 508.018 198.494C508.803 192.881 509.444 187.058 509.927 181.063 M478 91C482.971 91 487 86.971 487 82C487 77.029 482.971 73 478 73C473.029 73 469 77.029 469 82C469 86.971 473.029 91 478 91 M379 199C383.971 199 388 194.971 388 190C388 185.029 383.971 181 379 181C374.029 181 370 185.029 370 190C370 194.971 374.029 199 379 199 M445 199C449.971 199 454 194.971 454 190C454 185.029 449.971 181 445 181C440.029 181 436 185.029 436 190C436 194.971 440.029 199 445 199 M487 226C487 230.971 482.971 235 478 235C473.029 235 469 230.971 469 226C469 221.029 473.029 217 478 217C482.971 217 487 221.029 487 226 M478 163C482.971 163 487 158.971 487 154C487 149.029 482.971 145 478 145C473.029 145 469 149.029 469 154C469 158.971 473.029 163 478 163 M403 154C403 158.971 407.029 163 412 163C416.971 163 421 158.971 421 154C421 149.029 416.971 145 412 145C407.029 145 403 149.029 403 154 M445 127C449.971 127 454 122.971 454 118C454 113.029 449.971 109 445 109C440.029 109 436 113.029 436 118C436 122.971 440.029 127 445 127 M388 118C388 122.971 383.971 127 379 127C374.029 127 370 122.971 370 118C370 113.029 374.029 109 379 109C383.971 109 388 113.029 388 118"></path></g></g><g id="cp_0_g-0_1upb1rsvf6n7v-fill-merged" stroke="none" fill="#e8e8e8"><g><path d="M340.145 110.421C337.652 112.021 336 114.818 336 118C336 121.877 338.451 125.181 341.888 126.447C341.436 120.95 340.851 115.598 340.145 110.421 M341.888 181.553C338.451 182.819 336 186.124 336 190C336 193.182 337.652 195.979 340.145 197.579C340.851 192.402 341.436 187.05 341.888 181.553 M277 91C281.971 91 286 86.971 286 82C286 77.029 281.971 73 277 73C272.029 73 268 77.029 268 82C268 86.971 272.029 91 277 91 M211 199C215.971 199 220 194.971 220 190C220 185.029 215.971 181 211 181C206.029 181 202 185.029 202 190C202 194.971 206.029 199 211 199 M262 190C262 194.971 257.971 199 253 199C248.029 199 244 194.971 244 190C244 185.029 248.029 181 253 181C257.971 181 262 185.029 262 190 M308 190C308 194.971 303.971 199 299 199C294.029 199 290 194.971 290 190C290 185.029 294.029 181 299 181C303.971 181 308 185.029 308 190 M332 82C332 86.971 327.971 91 323 91C318.029 91 314 86.971 314 82C314 77.029 318.029 73 323 73C327.971 73 332 77.029 332 82 M277 235C281.971 235 286 230.971 286 226C286 221.029 281.971 217 277 217C272.029 217 268 221.029 268 226C268 230.971 272.029 235 277 235 M332 226C332 230.971 327.971 235 323 235C318.029 235 314 230.971 314 226C314 221.029 318.029 217 323 217C327.971 217 332 221.029 332 226 M277 163C281.971 163 286 158.971 286 154C286 149.029 281.971 145 277 145C272.029 145 268 149.029 268 154C268 158.971 272.029 163 277 163 M332 154C332 158.971 327.971 163 323 163C318.029 163 314 158.971 314 154C314 149.029 318.029 145 323 145C327.971 145 332 149.029 332 154 M231 163C226.029 163 222 158.971 222 154C222 149.029 226.029 145 231 145C235.971 145 240 149.029 240 154C240 158.971 235.971 163 231 163 M262 118C262 122.971 257.971 127 253 127C248.029 127 244 122.971 244 118C244 113.029 248.029 109 253 109C257.971 109 262 113.029 262 118 M211 127C215.971 127 220 122.971 220 118C220 113.029 215.971 109 211 109C206.029 109 202 113.029 202 118C202 122.971 206.029 127 211 127 M308 118C308 122.971 303.971 127 299 127C294.029 127 290 122.971 290 118C290 113.029 294.029 109 299 109C303.971 109 308 113.029 308 118"></path></g></g><g id="cp_0_g-0_1upb1rsvf6n7v-fill-merged" stroke="none" fill="#e8e8e8"><g><path d="M589 199C593.971 199 598 194.971 598 190C598 185.029 593.971 181 589 181C584.029 181 580 185.029 580 190C580 194.971 584.029 199 589 199 M538 154C538 158.971 542.029 163 547 163C551.971 163 556 158.971 556 154C556 149.029 551.971 145 547 145C542.029 145 538 149.029 538 154 M589 127C593.971 127 598 122.971 598 118C598 113.029 593.971 109 589 109C584.029 109 580 113.029 580 118C580 122.971 584.029 127 589 127"></path></g></g></g><g id="g-root-tx_raffinam_1430i48vf6n7w-fill" data-item-order="0" transform="translate(26, 38)"><g id="tx_raffinam_1430i48vf6n7w-fill-merged" stroke="none" fill="#f4f4f4"><g><text style="font: bold 25px Roboto, sans-serif; white-space: pre;" font-weight="bold" font-size="25px" font-family="Roboto, sans-serif"><tspan x="17.7" y="40" dominant-baseline="ideographic">Raffinamento dell'Output dell'IA con l'Assegnazione di </tspan><tspan x="290.2" y="70" dominant-baseline="ideographic">Ruoli</tspan></text></g></g></g><g id="g-root-tx_assegnaz_90wgc8vf6o05-fill" data-item-order="0" transform="translate(98, 446)"><g id="tx_assegnaz_90wgc8vf6o05-fill-merged" stroke="none" fill="#1ac3fb"><g><text style="font: bold 20px Roboto, sans-serif; white-space: pre;" font-weight="bold" font-size="20px" font-family="Roboto, sans-serif"><tspan x="16.06" y="33.84" dominant-baseline="ideographic">Assegnazione </tspan><tspan x="42.81" y="57.85" dominant-baseline="ideographic">di Ruolo</tspan></text></g></g></g><g id="g-root-tx_filtrodi_1hfpynsvf6nt2-fill" data-item-order="0" transform="translate(278, 446)"><g id="tx_filtrodi_1hfpynsvf6nt2-fill-merged" stroke="none" fill="#43dd93"><g><text style="font: bold 20px Roboto, sans-serif; white-space: pre;" font-weight="bold" font-size="20px" font-family="Roboto, sans-serif"><tspan x="35.92" y="33.84" dominant-baseline="ideographic">Filtro di </tspan><tspan x="14.77" y="57.85" dominant-baseline="ideographic">Conoscenza</tspan></text></g></g></g><g id="g-root-tx_outputpe_qtff08vf6nt3-fill" data-item-order="0" transform="translate(434, 446)"><g id="tx_outputpe_qtff08vf6nt3-fill-merged" stroke="none" fill="#a6da37"><g><text style="font: bold 20px Roboto, sans-serif; white-space: pre;" font-weight="bold" font-size="20px" font-family="Roboto, sans-serif"><tspan x="51.51" y="33.84" dominant-baseline="ideographic">Output </tspan><tspan x="15.09" y="57.85" dominant-baseline="ideographic">Personalizzato</tspan></text></g></g></g><g id="g-root-tx_definizi_1usff7cvf6oe8-fill" data-item-order="0" transform="translate(92, 506)"><g id="tx_definizi_1usff7cvf6oe8-fill-merged" stroke="none" fill="#f4f4f4"><g><text style="font: 15px Roboto, sans-serif; white-space: pre;" font-size="15px" font-family="Roboto, sans-serif"><tspan x="27.78" y="30.69" dominant-baseline="ideographic">Definizione di una </tspan><tspan x="17.63" y="48.69" dominant-baseline="ideographic">prospettiva specifica </tspan><tspan x="64.14" y="66.7" dominant-baseline="ideographic">per l'IA</tspan></text></g></g></g><g id="g-root-tx_liafiltr_vb4ce0vf6m15-fill" data-item-order="0" transform="translate(272, 506)"><g id="tx_liafiltr_vb4ce0vf6m15-fill-merged" stroke="none" fill="#f4f4f4"><g><text style="font: 15px Roboto, sans-serif; white-space: pre;" font-size="15px" font-family="Roboto, sans-serif"><tspan x="37.36" y="27.69" dominant-baseline="ideographic">L'IA filtra le </tspan><tspan x="32.3" y="45.69" dominant-baseline="ideographic">informazioni </tspan><tspan x="14.48" y="63.69" dominant-baseline="ideographic">attraverso la lente </tspan><tspan x="45.19" y="81.7" dominant-baseline="ideographic">del ruolo</tspan></text></g></g></g><g id="g-root-tx_liagener_4otsqgvf6m16-fill" data-item-order="0" transform="translate(440, 506)"><g id="tx_liagener_4otsqgvf6m16-fill-merged" stroke="none" fill="#f4f4f4"><g><text style="font: 15px Roboto, sans-serif; white-space: pre;" font-size="15px" font-family="Roboto, sans-serif"><tspan x="22.93" y="30.69" dominant-baseline="ideographic">L'IA genera una </tspan><tspan x="12.4" y="48.69" dominant-baseline="ideographic">risposta su misura </tspan><tspan x="38.99" y="66.7" dominant-baseline="ideographic">per il ruolo</tspan></text></g></g></g><g id="g-root-tf_1qcltx4vf58ue-stroke" data-item-order="-663984"></g><g id="g-root-cp_1_g-1_mahjg8vf6new-stroke" data-item-order="-349910" transform="translate(119, 170)"><g id="cp_1_g-1_mahjg8vf6new-stroke" fill="none" stroke-linecap="round" stroke-linejoin="round" stroke-miterlimit="4" stroke="#2c2c2c" stroke-width="2"><g><path d="M 10 130C 10 196.2742 28.804 250 52 250C 55.0892 250 58.1006 249.0471 61 247.2385C 42.1289 235.467 28 187.4477 28 130C 28 72.5523 42.1289 24.533 61 12.7615C 58.1006 10.9529 55.0892 10 52 10C 28.804 10 10 63.7258 10 130Z"></path></g></g><g id="cp_1_g-1_mahjg8vf6new-stroke" fill="none" stroke-linecap="round" stroke-linejoin="round" stroke-miterlimit="4" stroke="#2c2c2c" stroke-width="2"><g><path d="M 112 130C 112 196.2742 93.196 250 70 250L 52 250C 55.0892 250 58.1006 249.0471 61 247.2385C 79.8711 235.467 94 187.4477 94 130C 94 72.5523 79.8711 24.533 61 12.7615C 58.1006 10.9529 55.0892 10 52 10L 70 10C 93.196 10 112 63.7258 112 130Z"></path></g></g></g><g id="g-root-cp_2_g-2_8z112wvf6ozt-stroke" data-item-order="-349904" transform="translate(287, 170)"><g id="cp_2_g-2_8z112wvf6ozt-stroke" fill="none" stroke-linecap="round" stroke-linejoin="round" stroke-miterlimit="4" stroke="#2c2c2c" stroke-width="2"><g><path d="M 10 130C 10 196.2742 28.804 250 52 250C 55.0892 250 58.1006 249.0471 61 247.2385C 42.1289 235.467 28 187.4477 28 130C 28 72.5523 42.1289 24.533 61 12.7615C 58.1006 10.9529 55.0892 10 52 10C 28.804 10 10 63.7258 10 130Z"></path></g></g><g id="cp_2_g-2_8z112wvf6ozt-stroke" fill="none" stroke-linecap="round" stroke-linejoin="round" stroke-miterlimit="4" stroke="#2c2c2c" stroke-width="2"><g><path d="M 112 130C 112 196.2742 93.196 250 70 250L 52 250C 55.0892 250 58.1006 249.0471 61 247.2385C 79.8711 235.467 94 187.4477 94 130C 94 72.5523 79.8711 24.533 61 12.7615C 58.1006 10.9529 55.0892 10 52 10L 70 10C 93.196 10 112 63.7258 112 130Z"></path></g></g></g><g id="g-root-cp_3_g-3_4ju01kvf6mma-stroke" data-item-order="-349898" transform="translate(455, 170)"><g id="cp_3_g-3_4ju01kvf6mma-stroke" fill="none" stroke-linecap="round" stroke-linejoin="round" stroke-miterlimit="4" stroke="#2c2c2c" stroke-width="2"><g><path d="M 10 130C 10 196.2742 28.804 250 52 250C 55.0892 250 58.1006 249.0471 61 247.2385C 42.1289 235.467 28 187.4477 28 130C 28 72.5523 42.1289 24.533 61 12.7615C 58.1006 10.9529 55.0892 10 52 10C 28.804 10 10 63.7258 10 130Z"></path></g></g><g id="cp_3_g-3_4ju01kvf6mma-stroke" fill="none" stroke-linecap="round" stroke-linejoin="round" stroke-miterlimit="4" stroke="#2c2c2c" stroke-width="2"><g><path d="M 112 130C 112 196.2742 93.196 250 70 250L 52 250C 55.0892 250 58.1006 249.0471 61 247.2385C 79.8711 235.467 94 187.4477 94 130C 94 72.5523 79.8711 24.533 61 12.7615C 58.1006 10.9529 55.0892 10 52 10L 70 10C 93.196 10 112 63.7258 112 130Z"></path></g></g></g><g id="g-root-cp_0_g-0_1upb1rsvf6n7v-stroke" data-item-order="-349892" transform="translate(38, 146)"><g id="cp_0_g-0_1upb1rsvf6n7v-stroke" fill="none" stroke-linecap="round" stroke-linejoin="round" stroke-miterlimit="4" stroke="#2c2c2c" stroke-width="2"><g><path d="M 10 33.999991L 10 21.999991L 34 21.999991L 34 33.999991C 34 47.254791 44.7452 57.999991 58 57.999991L 58 45.999991L 82 69.999991L 58 93.999991L 58 81.999991C 31.4903 81.999991 10 60.509691 10 33.999991Z"></path></g></g><g id="cp_0_g-0_1upb1rsvf6n7v-stroke" fill="none" stroke-linecap="round" stroke-linejoin="round" stroke-miterlimit="4" stroke="#2c2c2c" stroke-width="2"><g><path d="M 550 81.999986L 538 81.999986L 538 57.999986L 550 57.999986C 563.2548 57.999986 574 47.254786 574 33.999986L 562 33.999986L 586 9.999986L 610 33.999986L 598 33.999986C 598 60.509686 576.5097 81.999986 550 81.999986Z"></path></g></g><g id="cp_0_g-0_1upb1rsvf6n7v-stroke" fill="none" stroke-linecap="round" stroke-linejoin="round" stroke-miterlimit="4" stroke="#2c2c2c" stroke-width="2"><g><path d="M 10 273.999985L 10 285.999985L 34 285.999985L 34 273.999985C 34 260.745185 44.7452 249.999985 58 249.999985L 58 261.999985L 82 237.999985L 58 213.999985L 58 225.999985C 31.4903 225.999985 10 247.490285 10 273.999985Z"></path></g></g><g id="cp_0_g-0_1upb1rsvf6n7v-stroke" fill="none" stroke-linecap="round" stroke-linejoin="round" stroke-miterlimit="4" stroke="#2c2c2c" stroke-width="2"><g><path d="M 550 225.999985L 538 225.999985L 538 249.999985L 550 249.999985C 563.2548 249.999985 574 260.745185 574 273.999985L 562 273.999985L 586 297.999985L 610 273.999985L 598 273.999985C 598 247.490285 576.5097 225.999985 550 225.999985Z"></path></g></g><g id="cp_0_g-0_1upb1rsvf6n7v-stroke" fill="none" stroke-linecap="round" stroke-linejoin="round" stroke-miterlimit="4" stroke="#2c2c2c" stroke-width="2"><g><path d="M 202 249.999985L 226 249.999985L 226 261.999985L 250 237.999985L 226 213.999985L 226 225.999985L 202 225.999985L 202 249.999985Z"></path></g></g><g id="cp_0_g-0_1upb1rsvf6n7v-stroke" fill="none" stroke-linecap="round" stroke-linejoin="round" stroke-miterlimit="4" stroke="#2c2c2c" stroke-width="2"><g><path d="M 370 249.999985L 394 249.999985L 394 261.999985L 418 237.999985L 394 213.999985L 394 225.999985L 370 225.999985L 370 249.999985Z"></path></g></g><g id="cp_0_g-0_1upb1rsvf6n7v-stroke" fill="none" stroke-linecap="round" stroke-linejoin="round" stroke-miterlimit="4" stroke="#2c2c2c" stroke-width="2"><g><path d="M 202 81.999989L 226 81.999989L 226 93.999989L 250 69.999989L 226 45.999989L 226 57.999989L 202 57.999989L 202 81.999989Z"></path></g></g><g id="cp_0_g-0_1upb1rsvf6n7v-stroke" fill="none" stroke-linecap="round" stroke-linejoin="round" stroke-miterlimit="4" stroke="#2c2c2c" stroke-width="2"><g><path d="M 370 81.999989L 394 81.999989L 394 93.999989L 418 69.999989L 394 45.999989L 394 57.999989L 370 57.999989L 370 81.999989Z"></path></g></g><g id="cp_0_g-0_1upb1rsvf6n7v-stroke" fill="none" stroke-linecap="round" stroke-linejoin="round" stroke-miterlimit="4" stroke="#2c2c2c" stroke-width="2"><g><path d="M 174.8837 145.000723C 169.9667 145.063023 166 149.068323 166 154.000023C 166 158.931723 169.9667 162.937023 174.8837 162.999323C 174.9608 160.028323 175 157.027223 175 154.000023C 175 150.972823 174.9608 147.971723 174.8837 145.000723ZM 103 91.000023C 107.9706 91.000023 112 86.970623 112 82.000023C 112 77.029423 107.9706 73.000023 103 73.000023C 98.0294 73.000023 94 77.029423 94 82.000023C 94 86.970623 98.0294 91.000023 103 91.000023ZM 76 154.000023C 76 158.970623 71.9706 163.000023 67 163.000023C 62.0294 163.000023 58 158.970623 58 154.000023C 58 149.029423 62.0294 145.000023 67 145.000023C 71.9706 145.000023 76 149.029423 76 154.000023ZM 103 163.000023C 107.9706 163.000023 112 158.970623 112 154.000023C 112 149.029423 107.9706 145.000023 103 145.000023C 98.0294 145.000023 94 149.029423 94 154.000023C 94 158.970623 98.0294 163.000023 103 163.000023ZM 85 199.000023C 89.9706 199.000023 94 194.970623 94 190.000023C 94 185.029423 89.9706 181.000023 85 181.000023C 80.0294 181.000023 76 185.029423 76 190.000023C 76 194.970623 80.0294 199.000023 85 199.000023ZM 121 199.000023C 125.9706 199.000023 130 194.970623 130 190.000023C 130 185.029423 125.9706 181.000023 121 181.000023C 116.0294 181.000023 112 185.029423 112 190.000023C 112 194.970623 116.0294 199.000023 121 199.000023ZM 166 190.000023C 166 194.970623 161.9706 199.000023 157 199.000023C 152.0294 199.000023 148 194.970623 148 190.000023C 148 185.029423 152.0294 181.000023 157 181.000023C 161.9706 181.000023 166 185.029423 166 190.000023ZM 139 91.000023C 143.9706 91.000023 148 86.970623 148 82.000023C 148 77.029423 143.9706 73.000023 139 73.000023C 134.0294 73.000023 130 77.029423 130 82.000023C 130 86.970623 134.0294 91.000023 139 91.000023ZM 112 226.000023C 112 230.970623 107.9706 235.000023 103 235.000023C 98.0294 235.000023 94 230.970623 94 226.000023C 94 221.029423 98.0294 217.000023 103 217.000023C 107.9706 217.000023 112 221.029423 112 226.000023ZM 148 226.000023C 148 230.970623 143.9706 235.000023 139 235.000023C 134.0294 235.000023 130 230.970623 130 226.000023C 130 221.029423 134.0294 217.000023 139 217.000023C 143.9706 217.000023 148 221.029423 148 226.000023ZM 139 163.000023C 143.9706 163.000023 148 158.970623 148 154.000023C 148 149.029423 143.9706 145.000023 139 145.000023C 134.0294 145.000023 130 149.029423 130 154.000023C 130 158.970623 134.0294 163.000023 139 163.000023ZM 85 127.000023C 89.9706 127.000023 94 122.970623 94 118.000023C 94 113.029423 89.9706 109.000023 85 109.000023C 80.0294 109.000023 76 113.029423 76 118.000023C 76 122.970623 80.0294 127.000023 85 127.000023ZM 130 118.000023C 130 122.970623 125.9706 127.000023 121 127.000023C 116.0294 127.000023 112 122.970623 112 118.000023C 112 113.029423 116.0294 109.000023 121 109.000023C 125.9706 109.000023 130 113.029423 130 118.000023ZM 157 127.000023C 161.9706 127.000023 166 122.970623 166 118.000023C 166 113.029423 161.9706 109.000023 157 109.000023C 152.0294 109.000023 148 113.029423 148 118.000023C 148 122.970623 152.0294 127.000023 157 127.000023Z"></path></g></g><g id="cp_0_g-0_1upb1rsvf6n7v-stroke" fill="none" stroke-linecap="round" stroke-linejoin="round" stroke-miterlimit="4" stroke="#2c2c2c" stroke-width="2"><g><path d="M 40 154.000023C 40 158.970623 35.9706 163.000023 31 163.000023C 26.0294 163.000023 22 158.970623 22 154.000023C 22 149.029423 26.0294 145.000023 31 145.000023C 35.9706 145.000023 40 149.029423 40 154.000023ZM 49 199.000023C 53.9706 199.000023 58 194.970623 58 190.000023C 58 185.029423 53.9706 181.000023 49 181.000023C 44.0294 181.000023 40 185.029423 40 190.000023C 40 194.970623 44.0294 199.000023 49 199.000023ZM 49 127.000023C 53.9706 127.000023 58 122.970623 58 118.000023C 58 113.029423 53.9706 109.000023 49 109.000023C 44.0294 109.000023 40 113.029423 40 118.000023C 40 122.970623 44.0294 127.000023 49 127.000023Z"></path></g></g><g id="cp_0_g-0_1upb1rsvf6n7v-stroke" fill="none" stroke-linecap="round" stroke-linejoin="round" stroke-miterlimit="4" stroke="#2c2c2c" stroke-width="2"><g><path d="M 508.0182 109.505723C 504.5131 110.736123 502 114.074523 502 118.000023C 502 122.607623 505.4625 126.406623 509.9275 126.936823C 509.4439 120.942323 508.8031 115.119523 508.0182 109.505723ZM 509.9275 181.063223C 505.4625 181.593423 502 185.392323 502 190.000023C 502 193.925523 504.5131 197.263923 508.0182 198.494323C 508.8031 192.880523 509.4439 187.057723 509.9275 181.063223ZM 478 91.000023C 482.9706 91.000023 487 86.970623 487 82.000023C 487 77.029423 482.9706 73.000023 478 73.000023C 473.0294 73.000023 469 77.029423 469 82.000023C 469 86.970623 473.0294 91.000023 478 91.000023ZM 379 199.000023C 383.9706 199.000023 388 194.970623 388 190.000023C 388 185.029423 383.9706 181.000023 379 181.000023C 374.0294 181.000023 370 185.029423 370 190.000023C 370 194.970623 374.0294 199.000023 379 199.000023ZM 445 199.000023C 449.9706 199.000023 454 194.970623 454 190.000023C 454 185.029423 449.9706 181.000023 445 181.000023C 440.0294 181.000023 436 185.029423 436 190.000023C 436 194.970623 440.0294 199.000023 445 199.000023ZM 487 226.000023C 487 230.970623 482.9706 235.000023 478 235.000023C 473.0294 235.000023 469 230.970623 469 226.000023C 469 221.029423 473.0294 217.000023 478 217.000023C 482.9706 217.000023 487 221.029423 487 226.000023ZM 478 163.000023C 482.9706 163.000023 487 158.970623 487 154.000023C 487 149.029423 482.9706 145.000023 478 145.000023C 473.0294 145.000023 469 149.029423 469 154.000023C 469 158.970623 473.0294 163.000023 478 163.000023ZM 403 154.000023C 403 158.970623 407.0294 163.000023 412 163.000023C 416.9706 163.000023 421 158.970623 421 154.000023C 421 149.029423 416.9706 145.000023 412 145.000023C 407.0294 145.000023 403 149.029423 403 154.000023ZM 445 127.000023C 449.9706 127.000023 454 122.970623 454 118.000023C 454 113.029423 449.9706 109.000023 445 109.000023C 440.0294 109.000023 436 113.029423 436 118.000023C 436 122.970623 440.0294 127.000023 445 127.000023ZM 388 118.000023C 388 122.970623 383.9706 127.000023 379 127.000023C 374.0294 127.000023 370 122.970623 370 118.000023C 370 113.029423 374.0294 109.000023 379 109.000023C 383.9706 109.000023 388 113.029423 388 118.000023Z"></path></g></g><g id="cp_0_g-0_1upb1rsvf6n7v-stroke" fill="none" stroke-linecap="round" stroke-linejoin="round" stroke-miterlimit="4" stroke="#2c2c2c" stroke-width="2"><g><path d="M 340.1446 110.420723C 337.6517 112.021023 336 114.817623 336 118.000023C 336 121.876523 338.4509 125.180723 341.8876 126.447323C 341.4356 120.949823 340.8512 115.597923 340.1446 110.420723ZM 341.8876 181.552723C 338.4509 182.819423 336 186.123523 336 190.000023C 336 193.182423 337.6517 195.979023 340.1446 197.579323C 340.8512 192.402123 341.4356 187.050223 341.8876 181.552723ZM 277 91.000023C 281.9706 91.000023 286 86.970623 286 82.000023C 286 77.029423 281.9706 73.000023 277 73.000023C 272.0294 73.000023 268 77.029423 268 82.000023C 268 86.970623 272.0294 91.000023 277 91.000023ZM 211 199.000023C 215.9706 199.000023 220 194.970623 220 190.000023C 220 185.029423 215.9706 181.000023 211 181.000023C 206.0294 181.000023 202 185.029423 202 190.000023C 202 194.970623 206.0294 199.000023 211 199.000023ZM 262 190.000023C 262 194.970623 257.9706 199.000023 253 199.000023C 248.0294 199.000023 244 194.970623 244 190.000023C 244 185.029423 248.0294 181.000023 253 181.000023C 257.9706 181.000023 262 185.029423 262 190.000023ZM 308 190.000023C 308 194.970623 303.9706 199.000023 299 199.000023C 294.0294 199.000023 290 194.970623 290 190.000023C 290 185.029423 294.0294 181.000023 299 181.000023C 303.9706 181.000023 308 185.029423 308 190.000023ZM 332 82.000023C 332 86.970623 327.9706 91.000023 323 91.000023C 318.0294 91.000023 314 86.970623 314 82.000023C 314 77.029423 318.0294 73.000023 323 73.000023C 327.9706 73.000023 332 77.029423 332 82.000023ZM 277 235.000023C 281.9706 235.000023 286 230.970623 286 226.000023C 286 221.029423 281.9706 217.000023 277 217.000023C 272.0294 217.000023 268 221.029423 268 226.000023C 268 230.970623 272.0294 235.000023 277 235.000023ZM 332 226.000023C 332 230.970623 327.9706 235.000023 323 235.000023C 318.0294 235.000023 314 230.970623 314 226.000023C 314 221.029423 318.0294 217.000023 323 217.000023C 327.9706 217.000023 332 221.029423 332 226.000023ZM 277 163.000023C 281.9706 163.000023 286 158.970623 286 154.000023C 286 149.029423 281.9706 145.000023 277 145.000023C 272.0294 145.000023 268 149.029423 268 154.000023C 268 158.970623 272.0294 163.000023 277 163.000023ZM 332 154.000023C 332 158.970623 327.9706 163.000023 323 163.000023C 318.0294 163.000023 314 158.970623 314 154.000023C 314 149.029423 318.0294 145.000023 323 145.000023C 327.9706 145.000023 332 149.029423 332 154.000023ZM 231 163.000023C 226.0294 163.000023 222 158.970623 222 154.000023C 222 149.029423 226.0294 145.000023 231 145.000023C 235.9706 145.000023 240 149.029423 240 154.000023C 240 158.970623 235.9706 163.000023 231 163.000023ZM 262 118.000023C 262 122.970623 257.9706 127.000023 253 127.000023C 248.0294 127.000023 244 122.970623 244 118.000023C 244 113.029423 248.0294 109.000023 253 109.000023C 257.9706 109.000023 262 113.029423 262 118.000023ZM 211 127.000023C 215.9706 127.000023 220 122.970623 220 118.000023C 220 113.029423 215.9706 109.000023 211 109.000023C 206.0294 109.000023 202 113.029423 202 118.000023C 202 122.970623 206.0294 127.000023 211 127.000023ZM 308 118.000023C 308 122.970623 303.9706 127.000023 299 127.000023C 294.0294 127.000023 290 122.970623 290 118.000023C 290 113.029423 294.0294 109.000023 299 109.000023C 303.9706 109.000023 308 113.029423 308 118.000023Z"></path></g></g><g id="cp_0_g-0_1upb1rsvf6n7v-stroke" fill="none" stroke-linecap="round" stroke-linejoin="round" stroke-miterlimit="4" stroke="#2c2c2c" stroke-width="2"><g><path d="M 589 199.000023C 593.9706 199.000023 598 194.970623 598 190.000023C 598 185.029423 593.9706 181.000023 589 181.000023C 584.0294 181.000023 580 185.029423 580 190.000023C 580 194.970623 584.0294 199.000023 589 199.000023ZM 538 154.000023C 538 158.970623 542.0294 163.000023 547 163.000023C 551.9706 163.000023 556 158.970623 556 154.000023C 556 149.029423 551.9706 145.000023 547 145.000023C 542.0294 145.000023 538 149.029423 538 154.000023ZM 589 127.000023C 593.9706 127.000023 598 122.970623 598 118.000023C 598 113.029423 593.9706 109.000023 589 109.000023C 584.0294 109.000023 580 113.029423 580 118.000023C 580 122.970623 584.0294 127.000023 589 127.000023Z"></path></g></g></g><g id="g-root-tx_raffinam_1430i48vf6n7w-stroke" data-item-order="0" transform="translate(26, 38)"></g><g id="g-root-tx_assegnaz_90wgc8vf6o05-stroke" data-item-order="0" transform="translate(98, 446)"></g><g id="g-root-tx_filtrodi_1hfpynsvf6nt2-stroke" data-item-order="0" transform="translate(278, 446)"></g><g id="g-root-tx_outputpe_qtff08vf6nt3-stroke" data-item-order="0" transform="translate(434, 446)"></g><g id="g-root-tx_definizi_1usff7cvf6oe8-stroke" data-item-order="0" transform="translate(92, 506)"></g><g id="g-root-tx_liafiltr_vb4ce0vf6m15-stroke" data-item-order="0" transform="translate(272, 506)"></g><g id="g-root-tx_liagener_4otsqgvf6m16-stroke" data-item-order="0" transform="translate(440, 506)"></g></g></g><path id="w1lz967sygjw98" d="M65.283 12.757a.35.35 0 0 0 .584.157l5.203-5.141-6.183 3.523.396 1.461zm-2.216-11.7a.35.35 0 0 0-.522.305v3.111l3.276-1.868-2.754-1.548zm3.728 2.105l-4.25 2.421v2.445l6.391-3.644-2.141-1.222zm4.708 3.303a.35.35 0 0 0 0-.609l-1.592-.9-7.365 4.199v1.782a.35.35 0 0 0 .523.305l8.435-4.777z M44.542 2.513c0-.433.355-.783.792-.783s.792.35.792.783-.355.783-.792.783-.792-.35-.792-.783zm59.171 0c0-.433.355-.783.792-.783s.792.35.792.783-.355.783-.792.783-.792-.35-.792-.783zm-85.951 7.636h-1.27v-.487c-.276.201-.864.609-1.881.609-1.202 0-2.274-.794-2.137-2.078.118-1.106 1.153-1.584 1.848-1.727l2.17-.345c0-.539-.29-.956-1.064-1.006s-1.21.305-1.571 1.017l-1.124-.605c1.218-2.631 5.029-1.764 5.029.414v4.207zm-1.27-2.86c.006.396-.062 1.112-.819 1.59-.587.37-1.841.299-1.903-.395-.049-.555.461-.791.906-.898l1.816-.297zm72.662 2.86h-1.27v-.487c-.276.201-.864.609-1.881.609-1.202 0-2.274-.794-2.137-2.078.118-1.106 1.153-1.584 1.848-1.727l2.17-.345c0-.539-.29-.956-1.064-1.006s-1.21.305-1.571 1.017l-1.124-.605c1.218-2.631 5.029-1.764 5.029.414v4.207zm-1.27-2.86c.006.396-.062 1.112-.82 1.59-.587.37-1.841.299-1.903-.395-.049-.555.461-.791.906-.898l1.816-.297zM99.096 10.149H97.85v-8.45h1.246v4.895l2.68-2.559h1.738l-2.633 2.535 2.715 3.578h-1.556l-2.077-2.707-.867.844v1.863zm6.053-6.114h-1.255v6.113h1.255V4.035zm-59.2 0h-1.255v6.113h1.255V4.035zm5.584 6.113V1.697h1.255v2.695c.361-.346 1-.485 1.47-.485 1.452 0 2.477 1.082 2.457 2.448v3.792h-1.27v-3.68c0-.408-.214-1.339-1.315-1.339-.968 0-1.342.756-1.342 1.339v3.681h-1.255zm-4.76-4.894V4.039h.621a.45.45 0 0 0 .45-.45v-.855h1.251v1.305h1.309v1.215h-1.309v3.109c0 .293.105.664.648.664.365 0 .531-.035.736-.07v1.137s-.361.113-.857.113c-1.398 0-1.777-1.051-1.777-1.788V5.254h-1.071zM36.528 4.039h-1.394l2.191 6.106h1.125l1.234-3.918 1.238 3.918h1.129l2.188-6.106h-1.383l-1.359 3.93-1.256-3.93h-1.124l-1.242 3.957-1.348-3.957zM26.212 7.141c-.02 1.566 1.187 3.129 3.223 3.129 1.566 0 2.383-.918 2.734-1.719L31.172 8c-.315.399-.801 1.094-1.738 1.094-1.145 0-1.825-.781-1.891-1.52h4.625c.074-.284.148-.995-.03-1.559-.336-1.064-1.221-2.102-2.839-2.102s-3.088 1.152-3.088 3.227zm1.363-.75h3.348c-.055-.43-.566-1.301-1.623-1.301a1.79 1.79 0 0 0-1.725 1.301zm-8.758.75c.038 1.758 1.277 3.133 3.145 3.133 1.074 0 1.723-.477 1.961-.672v.547h1.242V1.703h-1.258v2.888c-.414-.36-1.062-.68-1.93-.68-1.91 0-3.198 1.473-3.16 3.23zm1.309-.08c0 1.119.723 1.978 1.836 1.978a1.88 1.88 0 0 0 1.94-1.904c0-1.371-1.011-1.99-1.972-1.99s-1.805.798-1.805 1.916zm76.683-.028C96.771 5.275 95.532 3.9 93.664 3.9c-1.074 0-1.723.477-1.961.672v-.547h-1.242v8.22h1.258V9.583c.414.36 1.063.68 1.93.68 1.91 0 3.198-1.473 3.16-3.23zm-1.309.08c0-1.119-.723-1.978-1.836-1.978a1.88 1.88 0 0 0-1.94 1.904c0 1.371 1.011 1.99 1.972 1.99S95.5 8.231 95.5 7.113zM106.441 10.173V4.036h1.254v.382c.361-.346 1-.485 1.47-.485 1.452 0 2.477 1.082 2.457 2.448v3.792h-1.27V6.492c0-.408-.214-1.339-1.315-1.339-.969 0-1.342.756-1.342 1.339v3.681h-1.254zm-30.383-.021V1.824h1.084l4.215 5.777V1.824h1.32v8.328h-1.094l-4.207-5.796v5.796h-1.319zM5.24 10.149H4V2.377h1.014l2.664 3.597 2.654-3.592h1.03v7.766h-1.256V4.762L7.678 8.068 5.24 4.742v5.407z" transform="translate(569, 611)" fill="#acacac88" stroke="none"></path></svg>